<?xml version="1.0" encoding="UTF-8"?>
<svg xmlns="http://www.w3.org/2000/svg"
     xmlns:xlink="http://www.w3.org/1999/xlink"
     xmlns:gadfly="http://www.gadflyjl.org/ns"
     version="1.2"
     width="254mm" height="76.2mm" viewBox="0 0 254 76.2"
     stroke="none"
     fill="#000000"
     stroke-width="0.3"
     font-size="3.88"
>
<defs>
  <marker id="arrow" markerWidth="15" markerHeight="7" refX="5" refY="3.5" orient="auto" markerUnits="strokeWidth">
    <path d="M0,0 L15,3.5 L0,7 z" stroke="context-stroke" fill="context-stroke"/>
  </marker>
</defs>
<g class="plotroot xscalable yscalable" id="img-44ec124a-1">
  <g font-size="3.18" font-family="'PT Sans','Helvetica Neue','Helvetica',sans-serif" fill="#202020" stroke="#000000" stroke-opacity="0.000" id="img-44ec124a-2">
    <g transform="translate(137.53,69.54)">
      <g class="primitive">
        <text text-anchor="middle" dy="0.6em">Channels</text>
      </g>
    </g>
  </g>
  <g class="guide xlabels" font-size="2.82" font-family="'PT Sans Caption','Helvetica Neue','Helvetica',sans-serif" fill="#6C606B" id="img-44ec124a-3">
    <g transform="translate(146.97,62.87)">
      <g class="primitive">
        <text text-anchor="middle" dy="0.6em">500</text>
      </g>
    </g>
  </g>
  <g clip-path="url(#img-44ec124a-4)">
    <g id="img-44ec124a-5">
      <g pointer-events="visible" stroke-width="0.3" fill="#FDFDF1" stroke="#202020" class="guide background" id="img-44ec124a-6">
        <g transform="translate(137.53,33.76)" id="img-44ec124a-7">
          <path d="M-115.76,-28.1 L 115.76 -28.1 115.76 28.1 -115.76 28.1 z" class="primitive"/>
        </g>
      </g>
      <g class="guide ygridlines xfixed" stroke-dasharray="none" stroke-width="0.2" stroke="#FFDFDF" id="img-44ec124a-8">
        <g transform="translate(137.53,59.77)" id="img-44ec124a-9">
          <path fill="none" d="M-115.76,0 L 115.76 0" class="primitive"/>
        </g>
        <g transform="translate(137.53,42.91)" id="img-44ec124a-10">
          <path fill="none" d="M-115.76,0 L 115.76 0" class="primitive"/>
        </g>
        <g transform="translate(137.53,26.05)" id="img-44ec124a-11">
          <path fill="none" d="M-115.76,0 L 115.76 0" class="primitive"/>
        </g>
        <g transform="translate(137.53,9.18)" id="img-44ec124a-12">
          <path fill="none" d="M-115.76,0 L 115.76 0" class="primitive"/>
        </g>
      </g>
      <g class="guide xgridlines yfixed" stroke-dasharray="none" stroke-width="0.2" stroke="#FFDFDF" id="img-44ec124a-13">
        <g transform="translate(146.97,33.76)" id="img-44ec124a-14">
          <path fill="none" d="M0,-28.1 L 0 28.1" class="primitive"/>
        </g>
      </g>
      <g class="plotpanel" id="img-44ec124a-15">
        <metadata>
          <boundingbox value="21.773888888888912mm 5.660555555555554mm 231.52055555555557mm 56.20555555555556mm"/>
          <unitbox value="22.3699201781524 1.6044717695260001e6 883.2601596436951 -1.6666849647070633e6"/>
        </metadata>
        <g class="geometry" stroke="#000000" stroke-opacity="0.000" fill="#4C404B" font-size="2.82" font-family="'PT Sans Caption','Helvetica Neue','Helvetica',sans-serif" id="img-44ec124a-16">
          <g class="marker" id="img-44ec124a-17">
            <g transform="translate(134.13,38.93)" id="img-44ec124a-18">
              <g class="primitive">
                <text text-anchor="middle" dy="-0em" transform="translate(0,-1.9)">0.4305</text>
              </g>
            </g>
          </g>
        </g>
        <g class="geometry" stroke="#000000" stroke-opacity="0.000" fill="#4C404B" font-size="2.82" font-family="'PT Sans Caption','Helvetica Neue','Helvetica',sans-serif" id="img-44ec124a-19">
          <g class="marker" id="img-44ec124a-20">
            <g transform="translate(124.17,38.93)" id="img-44ec124a-21">
              <g class="primitive">
                <text dy="0.35em" transform="translate(1.9,0)"></text>
              </g>
            </g>
            <g transform="translate(144.09,38.93)" id="img-44ec124a-22">
              <g class="primitive">
                <text dy="0.35em" transform="translate(1.9,0)">Si K-L3 + 2 others</text>
              </g>
            </g>
          </g>
        </g>
        <g class="geometry" id="img-44ec124a-23">
          <g stroke-width="0.3" id="img-44ec124a-24">
            <g class="color_RGBA{Float32}(0.5019608f0,0.5019608f0,0.5019608f0,1.0f0)" fill-opacity="1" stroke="#FFFFFF" fill="#808080" id="img-44ec124a-25">
              <g class="marker" id="img-44ec124a-26">
                <g transform="translate(144.09,38.93)" id="img-44ec124a-27">
                  <circle cx="0" cy="0" r="0.9" class="primitive"/>
                </g>
              </g>
            </g>
            <g class="color_RGBA{Float32}(0.5019608f0,0.5019608f0,0.5019608f0,1.0f0)" fill-opacity="1" stroke="#FFFFFF" fill="#808080" id="img-44ec124a-28">
              <g class="marker" id="img-44ec124a-29">
                <g transform="translate(124.17,38.93)" id="img-44ec124a-30">
                  <circle cx="0" cy="0" r="0.9" class="primitive"/>
                </g>
              </g>
            </g>
          </g>
        </g>
        <g stroke-width="0.3" fill="#000000" fill-opacity="0.000" class="geometry" id="img-44ec124a-31">
          <g class="color_RGB{N0f8}(0.502,0.502,0.502)" stroke-dasharray="none" stroke="#808080" id="img-44ec124a-32">
            <g transform="translate(134.13,38.93)" id="img-44ec124a-33">
              <path fill="none" d="M-9.96,0 L 9.96 0" class="primitive"/>
            </g>
          </g>
        </g>
        <g class="geometry" stroke="#000000" stroke-opacity="0.000" fill="#4C404B" font-size="2.82" font-family="'PT Sans Caption','Helvetica Neue','Helvetica',sans-serif" id="img-44ec124a-34">
          <g class="marker" id="img-44ec124a-35">
            <g transform="translate(68.86,33.71)" id="img-44ec124a-36">
              <g class="primitive">
                <text text-anchor="middle" dy="-0em" transform="translate(0,-1.9)">0.9922</text>
              </g>
            </g>
          </g>
        </g>
        <g class="geometry" stroke="#000000" stroke-opacity="0.000" fill="#4C404B" font-size="2.82" font-family="'PT Sans Caption','Helvetica Neue','Helvetica',sans-serif" id="img-44ec124a-37">
          <g class="marker" id="img-44ec124a-38">
            <g transform="translate(62.83,33.71)" id="img-44ec124a-39">
              <g class="primitive">
                <text dy="0.35em" transform="translate(1.9,0)"></text>
              </g>
            </g>
            <g transform="translate(74.89,33.71)" id="img-44ec124a-40">
              <g class="primitive">
                <text dy="0.35em" transform="translate(1.9,0)">O K-L3 + 1 other</text>
              </g>
            </g>
          </g>
        </g>
        <g class="geometry" id="img-44ec124a-41">
          <g stroke-width="0.3" id="img-44ec124a-42">
            <g class="color_RGBA{Float32}(0.5019608f0,0.5019608f0,0.5019608f0,1.0f0)" fill-opacity="1" stroke="#FFFFFF" fill="#808080" id="img-44ec124a-43">
              <g class="marker" id="img-44ec124a-44">
                <g transform="translate(74.89,33.71)" id="img-44ec124a-45">
                  <circle cx="0" cy="0" r="0.9" class="primitive"/>
                </g>
              </g>
            </g>
            <g class="color_RGBA{Float32}(0.5019608f0,0.5019608f0,0.5019608f0,1.0f0)" fill-opacity="1" stroke="#FFFFFF" fill="#808080" id="img-44ec124a-46">
              <g class="marker" id="img-44ec124a-47">
                <g transform="translate(62.83,33.71)" id="img-44ec124a-48">
                  <circle cx="0" cy="0" r="0.9" class="primitive"/>
                </g>
              </g>
            </g>
          </g>
        </g>
        <g stroke-width="0.3" fill="#000000" fill-opacity="0.000" class="geometry" id="img-44ec124a-49">
          <g class="color_RGB{N0f8}(0.502,0.502,0.502)" stroke-dasharray="none" stroke="#808080" id="img-44ec124a-50">
            <g transform="translate(68.86,33.71)" id="img-44ec124a-51">
              <path fill="none" d="M-6.03,0 L 6.03 0" class="primitive"/>
            </g>
          </g>
        </g>
        <g class="geometry" stroke="#000000" stroke-opacity="0.000" fill="#4C404B" font-size="2.82" font-family="'PT Sans Caption','Helvetica Neue','Helvetica',sans-serif" id="img-44ec124a-52">
          <g class="marker" id="img-44ec124a-53">
            <g transform="translate(55.88,38.93)" id="img-44ec124a-54">
              <g class="primitive">
                <text text-anchor="middle" dy="-0em" transform="translate(0,-1.9)">0.0124</text>
              </g>
            </g>
          </g>
        </g>
        <g class="geometry" stroke="#000000" stroke-opacity="0.000" fill="#4C404B" font-size="2.82" font-family="'PT Sans Caption','Helvetica Neue','Helvetica',sans-serif" id="img-44ec124a-55">
          <g class="marker" id="img-44ec124a-56">
            <g transform="translate(50.51,38.93)" id="img-44ec124a-57">
              <g class="primitive">
                <text dy="0.35em" transform="translate(1.9,0)"></text>
              </g>
            </g>
            <g transform="translate(61.26,38.93)" id="img-44ec124a-58">
              <g class="primitive">
                <text dy="0.35em" transform="translate(1.9,0)">C K-L2</text>
              </g>
            </g>
          </g>
        </g>
        <g class="geometry" id="img-44ec124a-59">
          <g stroke-width="0.3" id="img-44ec124a-60">
            <g class="color_RGBA{Float32}(0.5019608f0,0.5019608f0,0.5019608f0,1.0f0)" fill-opacity="1" stroke="#FFFFFF" fill="#808080" id="img-44ec124a-61">
              <g class="marker" id="img-44ec124a-62">
                <g transform="translate(61.26,38.93)" id="img-44ec124a-63">
                  <circle cx="0" cy="0" r="0.9" class="primitive"/>
                </g>
              </g>
            </g>
            <g class="color_RGBA{Float32}(0.5019608f0,0.5019608f0,0.5019608f0,1.0f0)" fill-opacity="1" stroke="#FFFFFF" fill="#808080" id="img-44ec124a-64">
              <g class="marker" id="img-44ec124a-65">
                <g transform="translate(50.51,38.93)" id="img-44ec124a-66">
                  <circle cx="0" cy="0" r="0.9" class="primitive"/>
                </g>
              </g>
            </g>
          </g>
        </g>
        <g stroke-width="0.3" fill="#000000" fill-opacity="0.000" class="geometry" id="img-44ec124a-67">
          <g class="color_RGB{N0f8}(0.502,0.502,0.502)" stroke-dasharray="none" stroke="#808080" id="img-44ec124a-68">
            <g transform="translate(55.88,38.93)" id="img-44ec124a-69">
              <path fill="none" d="M-5.37,0 L 5.37 0" class="primitive"/>
            </g>
          </g>
        </g>
        <g stroke-width="0.3" fill="#000000" fill-opacity="0.000" class="geometry" id="img-44ec124a-70">
          <g class="color_RGB{Float64}(0.06274509803921569,0.3058823529411765,0.5450980392156862)" stroke-dasharray="none" stroke="#104E8B" id="img-44ec124a-71">
            <g transform="translate(137.6,58.8)" id="img-44ec124a-72">
              <path fill="none" d="M-113.83,0.97 L -113.56 0.97 -113.56 0.97 -113.3 0.97 -113.3 0.97 -113.04 0.97 -113.04 0.97 -112.78 0.97 -112.78 0.97 -112.52 0.97 -112.52 0.97 -112.25 0.97 -112.25 0.97 -111.99 0.97 -111.99 0.97 -111.73 0.97 -111.73 0.97 -111.47 0.97 -111.47 0.97 -111.2 0.97 -111.2 0.97 -110.94 0.97 -110.94 0.97 -110.68 0.97 -110.68 0.97 -110.42 0.97 -110.42 0.97 -110.16 0.97 -110.16 0.97 -109.89 0.97 -109.89 0.97 -109.63 0.97 -109.63 0.97 -109.37 0.97 -109.37 0.97 -109.11 0.97 -109.11 0.97 -108.85 0.97 -108.85 0.97 -108.58 0.97 -108.58 0.97 -108.32 0.97 -108.32 0.97 -108.06 0.97 -108.06 0.97 -107.8 0.97 -107.8 0.97 -107.53 0.97 -107.53 0.97 -107.27 0.97 -107.27 0.97 -107.01 0.97 -107.01 0.97 -106.75 0.97 -106.75 0.97 -106.49 0.97 -106.49 0.97 -106.22 0.97 -106.22 0.97 -105.96 0.97 -105.96 0.97 -105.7 0.97 -105.7 0.97 -105.44 0.97 -105.44 0.97 -105.18 0.97 -105.18 0.97 -104.91 0.97 -104.91 0.97 -104.65 0.97 -104.65 0.97 -104.39 0.97 -104.39 0.97 -104.13 0.97 -104.13 0.97 -103.87 0.97 -103.87 0.97 -103.6 0.97 -103.6 0.97 -103.34 0.97 -103.34 0.97 -103.08 0.97 -103.08 0.97 -102.82 0.97 -102.82 0.97 -102.55 0.97 -102.55 0.97 -102.29 0.97 -102.29 0.97 -102.03 0.97 -102.03 0.97 -101.77 0.97 -101.77 0.97 -101.51 0.97 -101.51 0.97 -101.24 0.97 -101.24 0.97 -100.98 0.97 -100.98 0.97 -100.72 0.97 -100.72 0.97 -100.46 0.97 -100.46 0.96 -100.2 0.96 -100.2 0.95 -99.93 0.95 -99.93 0.93 -99.67 0.93 -99.67 0.88 -99.41 0.88 -99.41 0.77 -99.15 0.77 -99.15 0.56 -98.88 0.56 -98.88 0.16 -98.62 0.16 -98.62 -0.53 -98.36 -0.53 -98.36 -1.6 -98.1 -1.6 -98.1 -3.19 -97.84 -3.19 -97.84 -5.3 -97.57 -5.3 -97.57 -7.85 -97.31 -7.85 -97.31 -10.6 -97.05 -10.6 -97.05 -13.23 -96.79 -13.23 -96.79 -15.26 -96.53 -15.26 -96.53 -16.4 -96.26 -16.4 -96.26 -16.37 -96 -16.37 -96 -15.16 -95.74 -15.16 -95.74 -13.13 -95.48 -13.13 -95.48 -10.48 -95.22 -10.48 -95.22 -7.77 -94.95 -7.77 -94.95 -5.24 -94.69 -5.24 -94.69 -3.16 -94.43 -3.16 -94.43 -1.62 -94.17 -1.62 -94.17 -0.55 -93.9 -0.55 -93.9 0.14 -93.64 0.14 -93.64 0.54 -93.38 0.54 -93.38 0.75 -93.12 0.75 -93.12 0.87 -92.86 0.87 -92.86 0.92 -92.59 0.92 -92.59 0.95 -92.33 0.95 -92.33 0.96 -92.07 0.96 -92.07 0.96 -91.81 0.96 -91.81 0.96 -91.55 0.96 -91.55 0.96 -91.28 0.96 -91.28 0.97 -91.02 0.97 -91.02 0.97 -90.76 0.97 -90.76 0.97 -90.5 0.97 -90.5 0.97 -90.23 0.97 -90.23 0.97 -89.97 0.97 -89.97 0.97 -89.71 0.97 -89.71 0.94 -89.45 0.94 -89.45 0.92 -89.19 0.92 -89.19 0.93 -88.92 0.93 -88.92 0.93 -88.66 0.93 -88.66 0.94 -88.4 0.94 -88.4 0.94 -88.14 0.94 -88.14 0.93 -87.88 0.93 -87.88 0.93 -87.61 0.93 -87.61 0.93 -87.35 0.93 -87.35 0.93 -87.09 0.93 -87.09 0.93 -86.83 0.93 -86.83 0.93 -86.57 0.93 -86.57 0.93 -86.3 0.93 -86.3 0.93 -86.04 0.93 -86.04 0.93 -85.78 0.93 -85.78 0.93 -85.52 0.93 -85.52 0.92 -85.25 0.92 -85.25 0.91 -84.99 0.91 -84.99 0.91 -84.73 0.91 -84.73 0.9 -84.47 0.9 -84.47 0.88 -84.21 0.88 -84.21 0.86 -83.94 0.86 -83.94 0.83 -83.68 0.83 -83.68 0.79 -83.42 0.79 -83.42 0.75 -83.16 0.75 -83.16 0.7 -82.9 0.7 -82.9 0.65 -82.63 0.65 -82.63 0.6 -82.37 0.6 -82.37 0.57 -82.11 0.57 -82.11 0.54 -81.85 0.54 -81.85 0.53 -81.58 0.53 -81.58 0.54 -81.32 0.54 -81.32 0.56 -81.06 0.56 -81.06 0.6 -80.8 0.6 -80.8 0.65 -80.54 0.65 -80.54 0.7 -80.27 0.7 -80.27 0.75 -80.01 0.75 -80.01 0.79 -79.75 0.79 -79.75 0.83 -79.49 0.83 -79.49 0.86 -79.23 0.86 -79.23 0.88 -78.96 0.88 -78.96 0.89 -78.7 0.89 -78.7 0.9 -78.44 0.9 -78.44 0.9 -78.18 0.9 -78.18 0.9 -77.92 0.9 -77.92 0.9 -77.65 0.9 -77.65 0.9 -77.39 0.9 -77.39 0.9 -77.13 0.9 -77.13 0.89 -76.87 0.89 -76.87 0.89 -76.6 0.89 -76.6 0.89 -76.34 0.89 -76.34 0.88 -76.08 0.88 -76.08 0.88 -75.82 0.88 -75.82 0.87 -75.56 0.87 -75.56 0.87 -75.29 0.87 -75.29 0.86 -75.03 0.86 -75.03 0.86 -74.77 0.86 -74.77 0.85 -74.51 0.85 -74.51 0.84 -74.25 0.84 -74.25 0.83 -73.98 0.83 -73.98 0.81 -73.72 0.81 -73.72 0.79 -73.46 0.79 -73.46 0.76 -73.2 0.76 -73.2 0.73 -72.93 0.73 -72.93 0.67 -72.67 0.67 -72.67 0.59 -72.41 0.59 -72.41 0.46 -72.15 0.46 -72.15 0.28 -71.89 0.28 -71.89 0.01 -71.62 0.01 -71.62 -0.36 -71.36 -0.36 -71.36 -0.87 -71.1 -0.87 -71.1 -1.55 -70.84 -1.55 -70.84 -2.41 -70.58 -2.41 -70.58 -3.44 -70.31 -3.44 -70.31 -4.6 -70.05 -4.6 -70.05 -5.84 -69.79 -5.84 -69.79 -7.07 -69.53 -7.07 -69.53 -8.16 -69.27 -8.16 -69.27 -8.98 -69 -8.98 -69 -9.5 -68.74 -9.5 -68.74 -9.59 -68.48 -9.59 -68.48 -9.31 -68.22 -9.31 -68.22 -8.58 -67.95 -8.58 -67.95 -7.62 -67.69 -7.62 -67.69 -6.41 -67.43 -6.41 -67.43 -5.11 -67.17 -5.11 -67.17 -3.8 -66.91 -3.8 -66.91 -2.67 -66.64 -2.67 -66.64 -1.73 -66.38 -1.73 -66.38 -0.95 -66.12 -0.95 -66.12 -0.33 -65.86 -0.33 -65.86 0.09 -65.6 0.09 -65.6 0.39 -65.33 0.39 -65.33 0.59 -65.07 0.59 -65.07 0.72 -64.81 0.72 -64.81 0.79 -64.55 0.79 -64.55 0.84 -64.29 0.84 -64.29 0.86 -64.02 0.86 -64.02 0.87 -63.76 0.87 -63.76 0.88 -63.5 0.88 -63.5 0.88 -63.24 0.88 -63.24 0.88 -62.97 0.88 -62.97 0.88 -62.71 0.88 -62.71 0.87 -62.45 0.87 -62.45 0.87 -62.19 0.87 -62.19 0.87 -61.93 0.87 -61.93 0.87 -61.66 0.87 -61.66 0.86 -61.4 0.86 -61.4 0.86 -61.14 0.86 -61.14 0.86 -60.88 0.86 -60.88 0.85 -60.62 0.85 -60.62 0.85 -60.35 0.85 -60.35 0.85 -60.09 0.85 -60.09 0.85 -59.83 0.85 -59.83 0.85 -59.57 0.85 -59.57 0.85 -59.3 0.85 -59.3 0.85 -59.04 0.85 -59.04 0.85 -58.78 0.85 -58.78 0.85 -58.52 0.85 -58.52 0.85 -58.26 0.85 -58.26 0.85 -57.99 0.85 -57.99 0.85 -57.73 0.85 -57.73 0.85 -57.47 0.85 -57.47 0.85 -57.21 0.85 -57.21 0.85 -56.95 0.85 -56.95 0.85 -56.68 0.85 -56.68 0.84 -56.42 0.84 -56.42 0.84 -56.16 0.84 -56.16 0.84 -55.9 0.84 -55.9 0.84 -55.64 0.84 -55.64 0.84 -55.37 0.84 -55.37 0.83 -55.11 0.83 -55.11 0.83 -54.85 0.83 -54.85 0.83 -54.59 0.83 -54.59 0.83 -54.32 0.83 -54.32 0.83 -54.06 0.83 -54.06 0.82 -53.8 0.82 -53.8 0.82 -53.54 0.82 -53.54 0.82 -53.28 0.82 -53.28 0.82 -53.01 0.82 -53.01 0.81 -52.75 0.81 -52.75 0.81 -52.49 0.81 -52.49 0.8 -52.23 0.8 -52.23 0.8 -51.97 0.8 -51.97 0.8 -51.7 0.8 -51.7 0.8 -51.44 0.8 -51.44 0.8 -51.18 0.8 -51.18 0.8 -50.92 0.8 -50.92 0.8 -50.65 0.8 -50.65 0.79 -50.39 0.79 -50.39 0.79 -50.13 0.79 -50.13 0.8 -49.87 0.8 -49.87 0.79 -49.61 0.79 -49.61 0.79 -49.34 0.79 -49.34 0.79 -49.08 0.79 -49.08 0.79 -48.82 0.79 -48.82 0.79 -48.56 0.79 -48.56 0.79 -48.3 0.79 -48.3 0.79 -48.03 0.79 -48.03 0.79 -47.77 0.79 -47.77 0.79 -47.51 0.79 -47.51 0.79 -47.25 0.79 -47.25 0.78 -46.99 0.78 -46.99 0.78 -46.72 0.78 -46.72 0.77 -46.46 0.77 -46.46 0.78 -46.2 0.78 -46.2 0.77 -45.94 0.77 -45.94 0.77 -45.67 0.77 -45.67 0.77 -45.41 0.77 -45.41 0.77 -45.15 0.77 -45.15 0.77 -44.89 0.77 -44.89 0.76 -44.63 0.76 -44.63 0.76 -44.36 0.76 -44.36 0.76 -44.1 0.76 -44.1 0.76 -43.84 0.76 -43.84 0.76 -43.58 0.76 -43.58 0.76 -43.32 0.76 -43.32 0.76 -43.05 0.76 -43.05 0.76 -42.79 0.76 -42.79 0.75 -42.53 0.75 -42.53 0.75 -42.27 0.75 -42.27 0.75 -42 0.75 -42 0.75 -41.74 0.75 -41.74 0.75 -41.48 0.75 -41.48 0.75 -41.22 0.75 -41.22 0.75 -40.96 0.75 -40.96 0.75 -40.69 0.75 -40.69 0.74 -40.43 0.74 -40.43 0.74 -40.17 0.74 -40.17 0.75 -39.91 0.75 -39.91 0.74 -39.65 0.74 -39.65 0.74 -39.38 0.74 -39.38 0.74 -39.12 0.74 -39.12 0.74 -38.86 0.74 -38.86 0.74 -38.6 0.74 -38.6 0.74 -38.34 0.74 -38.34 0.74 -38.07 0.74 -38.07 0.74 -37.81 0.74 -37.81 0.74 -37.55 0.74 -37.55 0.73 -37.29 0.73 -37.29 0.73 -37.02 0.73 -37.02 0.73 -36.76 0.73 -36.76 0.73 -36.5 0.73 -36.5 0.73 -36.24 0.73 -36.24 0.73 -35.98 0.73 -35.98 0.73 -35.71 0.73 -35.71 0.73 -35.45 0.73 -35.45 0.73 -35.19 0.73 -35.19 0.73 -34.93 0.73 -34.93 0.73 -34.67 0.73 -34.67 0.72 -34.4 0.72 -34.4 0.72 -34.14 0.72 -34.14 0.72 -33.88 0.72 -33.88 0.72 -33.62 0.72 -33.62 0.72 -33.35 0.72 -33.35 0.72 -33.09 0.72 -33.09 0.72 -32.83 0.72 -32.83 0.72 -32.57 0.72 -32.57 0.72 -32.31 0.72 -32.31 0.72 -32.04 0.72 -32.04 0.72 -31.78 0.72 -31.78 0.72 -31.52 0.72 -31.52 0.72 -31.26 0.72 -31.26 0.71 -31 0.71 -31 0.72 -30.73 0.72 -30.73 0.71 -30.47 0.71 -30.47 0.71 -30.21 0.71 -30.21 0.72 -29.95 0.72 -29.95 0.71 -29.69 0.71 -29.69 0.71 -29.42 0.71 -29.42 0.71 -29.16 0.71 -29.16 0.7 -28.9 0.7 -28.9 0.71 -28.64 0.71 -28.64 0.71 -28.37 0.71 -28.37 0.71 -28.11 0.71 -28.11 0.71 -27.85 0.71 -27.85 0.7 -27.59 0.7 -27.59 0.71 -27.33 0.71 -27.33 0.71 -27.06 0.71 -27.06 0.71 -26.8 0.71 -26.8 0.71 -26.54 0.71 -26.54 0.71 -26.28 0.71 -26.28 0.7 -26.02 0.7 -26.02 0.7 -25.75 0.7 -25.75 0.7 -25.49 0.7 -25.49 0.7 -25.23 0.7 -25.23 0.7 -24.97 0.7 -24.97 0.7 -24.7 0.7 -24.7 0.7 -24.44 0.7 -24.44 0.69 -24.18 0.69 -24.18 0.7 -23.92 0.7 -23.92 0.69 -23.66 0.69 -23.66 0.69 -23.39 0.69 -23.39 0.7 -23.13 0.7 -23.13 0.69 -22.87 0.69 -22.87 0.69 -22.61 0.69 -22.61 0.69 -22.35 0.69 -22.35 0.69 -22.08 0.69 -22.08 0.68 -21.82 0.68 -21.82 0.68 -21.56 0.68 -21.56 0.68 -21.3 0.68 -21.3 0.68 -21.04 0.68 -21.04 0.67 -20.77 0.67 -20.77 0.66 -20.51 0.66 -20.51 0.68 -20.25 0.68 -20.25 0.67 -19.99 0.67 -19.99 0.66 -19.72 0.66 -19.72 0.65 -19.46 0.65 -19.46 0.66 -19.2 0.66 -19.2 0.65 -18.94 0.65 -18.94 0.65 -18.68 0.65 -18.68 0.65 -18.41 0.65 -18.41 0.64 -18.15 0.64 -18.15 0.64 -17.89 0.64 -17.89 0.63 -17.63 0.63 -17.63 0.63 -17.37 0.63 -17.37 0.63 -17.1 0.63 -17.1 0.63 -16.84 0.63 -16.84 0.63 -16.58 0.63 -16.58 0.63 -16.32 0.63 -16.32 0.63 -16.05 0.63 -16.05 0.63 -15.79 0.63 -15.79 0.63 -15.53 0.63 -15.53 0.63 -15.27 0.63 -15.27 0.64 -15.01 0.64 -15.01 0.63 -14.74 0.63 -14.74 0.63 -14.48 0.63 -14.48 0.62 -14.22 0.62 -14.22 0.63 -13.96 0.63 -13.96 0.63 -13.7 0.63 -13.7 0.63 -13.43 0.63 -13.43 0.63 -13.17 0.63 -13.17 0.63 -12.91 0.63 -12.91 0.63 -12.65 0.63 -12.65 0.63 -12.39 0.63 -12.39 0.63 -12.12 0.63 -12.12 0.63 -11.86 0.63 -11.86 0.63 -11.6 0.63 -11.6 0.63 -11.34 0.63 -11.34 0.62 -11.07 0.62 -11.07 0.6 -10.81 0.6 -10.81 0.56 -10.55 0.56 -10.55 0.5 -10.29 0.5 -10.29 0.43 -10.03 0.43 -10.03 0.3 -9.76 0.3 -9.76 0.12 -9.5 0.12 -9.5 -0.15 -9.24 -0.15 -9.24 -0.52 -8.98 -0.52 -8.98 -1.04 -8.72 -1.04 -8.72 -1.71 -8.45 -1.71 -8.45 -2.59 -8.19 -2.59 -8.19 -3.66 -7.93 -3.66 -7.93 -4.99 -7.67 -4.99 -7.67 -6.53 -7.4 -6.53 -7.4 -8.35 -7.14 -8.35 -7.14 -10.32 -6.88 -10.32 -6.88 -12.45 -6.62 -12.45 -6.62 -14.66 -6.36 -14.66 -6.36 -16.79 -6.09 -16.79 -6.09 -18.83 -5.83 -18.83 -5.83 -20.61 -5.57 -20.61 -5.57 -22.05 -5.31 -22.05 -5.31 -23.02 -5.05 -23.02 -5.05 -23.5 -4.78 -23.5 -4.78 -23.48 -4.52 -23.48 -4.52 -22.88 -4.26 -22.88 -4.26 -21.79 -4 -21.79 -4 -20.28 -3.74 -20.28 -3.74 -18.49 -3.47 -18.49 -3.47 -16.48 -3.21 -16.48 -3.21 -14.4 -2.95 -14.4 -2.95 -12.25 -2.69 -12.25 -2.69 -10.21 -2.42 -10.21 -2.42 -8.33 -2.16 -8.33 -2.16 -6.71 -1.9 -6.71 -1.9 -5.25 -1.64 -5.25 -1.64 -4.08 -1.38 -4.08 -1.38 -3.1 -1.11 -3.1 -1.11 -2.33 -0.85 -2.33 -0.85 -1.73 -0.59 -1.73 -0.59 -1.26 -0.33 -1.26 -0.33 -0.93 -0.07 -0.93 -0.07 -0.66 0.2 -0.66 0.2 -0.44 0.46 -0.44 0.46 -0.28 0.72 -0.28 0.72 -0.13 0.98 -0.13 0.98 -0.02 1.25 -0.02 1.25 0.08 1.51 0.08 1.51 0.2 1.77 0.2 1.77 0.29 2.03 0.29 2.03 0.36 2.29 0.36 2.29 0.45 2.56 0.45 2.56 0.51 2.82 0.51 2.82 0.57 3.08 0.57 3.08 0.62 3.34 0.62 3.34 0.67 3.6 0.67 3.6 0.71 3.87 0.71 3.87 0.73 4.13 0.73 4.13 0.76 4.39 0.76 4.39 0.77 4.65 0.77 4.65 0.78 4.91 0.78 4.91 0.8 5.18 0.8 5.18 0.81 5.44 0.81 5.44 0.81 5.7 0.81 5.7 0.82 5.96 0.82 5.96 0.82 6.23 0.82 6.23 0.82 6.49 0.82 6.49 0.83 6.75 0.83 6.75 0.83 7.01 0.83 7.01 0.83 7.27 0.83 7.27 0.83 7.54 0.83 7.54 0.83 7.8 0.83 7.8 0.83 8.06 0.83 8.06 0.83 8.32 0.83 8.32 0.83 8.58 0.83 8.58 0.83 8.85 0.83 8.85 0.83 9.11 0.83 9.11 0.83 9.37 0.83 9.37 0.83 9.63 0.83 9.63 0.83 9.9 0.83 9.9 0.83 10.16 0.83 10.16 0.83 10.42 0.83 10.42 0.83 10.68 0.83 10.68 0.83 10.94 0.83 10.94 0.83 11.21 0.83 11.21 0.83 11.47 0.83 11.47 0.83 11.73 0.83 11.73 0.83 11.99 0.83 11.99 0.83 12.25 0.83 12.25 0.83 12.52 0.83 12.52 0.83 12.78 0.83 12.78 0.84 13.04 0.84 13.04 0.83 13.3 0.83 13.3 0.83 13.56 0.83 13.56 0.83 13.83 0.83 13.83 0.83 14.09 0.83 14.09 0.83 14.35 0.83 14.35 0.84 14.61 0.84 14.61 0.84 14.88 0.84 14.88 0.83 15.14 0.83 15.14 0.83 15.4 0.83 15.4 0.83 15.66 0.83 15.66 0.83 15.92 0.83 15.92 0.83 16.19 0.83 16.19 0.83 16.45 0.83 16.45 0.83 16.71 0.83 16.71 0.83 16.97 0.83 16.97 0.83 17.23 0.83 17.23 0.83 17.5 0.83 17.5 0.83 17.76 0.83 17.76 0.83 18.02 0.83 18.02 0.83 18.28 0.83 18.28 0.83 18.55 0.83 18.55 0.82 18.81 0.82 18.81 0.82 19.07 0.82 19.07 0.82 19.33 0.82 19.33 0.82 19.59 0.82 19.59 0.82 19.86 0.82 19.86 0.82 20.12 0.82 20.12 0.82 20.38 0.82 20.38 0.82 20.64 0.82 20.64 0.82 20.9 0.82 20.9 0.82 21.17 0.82 21.17 0.83 21.43 0.83 21.43 0.83 21.69 0.83 21.69 0.83 21.95 0.83 21.95 0.83 22.21 0.83 22.21 0.83 22.48 0.83 22.48 0.83 22.74 0.83 22.74 0.83 23 0.83 23 0.83 23.26 0.83 23.26 0.83 23.53 0.83 23.53 0.83 23.79 0.83 23.79 0.83 24.05 0.83 24.05 0.83 24.31 0.83 24.31 0.83 24.57 0.83 24.57 0.83 24.84 0.83 24.84 0.83 25.1 0.83 25.1 0.83 25.36 0.83 25.36 0.83 25.62 0.83 25.62 0.83 25.88 0.83 25.88 0.83 26.15 0.83 26.15 0.83 26.41 0.83 26.41 0.83 26.67 0.83 26.67 0.83 26.93 0.83 26.93 0.83 27.2 0.83 27.2 0.83 27.46 0.83 27.46 0.83 27.72 0.83 27.72 0.83 27.98 0.83 27.98 0.84 28.24 0.84 28.24 0.84 28.51 0.84 28.51 0.83 28.77 0.83 28.77 0.84 29.03 0.84 29.03 0.84 29.29 0.84 29.29 0.84 29.55 0.84 29.55 0.84 29.82 0.84 29.82 0.83 30.08 0.83 30.08 0.84 30.34 0.84 30.34 0.84 30.6 0.84 30.6 0.84 30.86 0.84 30.86 0.84 31.13 0.84 31.13 0.84 31.39 0.84 31.39 0.84 31.65 0.84 31.65 0.84 31.91 0.84 31.91 0.84 32.18 0.84 32.18 0.84 32.44 0.84 32.44 0.84 32.7 0.84 32.7 0.84 32.96 0.84 32.96 0.84 33.22 0.84 33.22 0.84 33.49 0.84 33.49 0.84 33.75 0.84 33.75 0.84 34.01 0.84 34.01 0.84 34.27 0.84 34.27 0.84 34.53 0.84 34.53 0.84 34.8 0.84 34.8 0.84 35.06 0.84 35.06 0.84 35.32 0.84 35.32 0.84 35.58 0.84 35.58 0.84 35.85 0.84 35.85 0.84 36.11 0.84 36.11 0.84 36.37 0.84 36.37 0.84 36.63 0.84 36.63 0.84 36.89 0.84 36.89 0.84 37.16 0.84 37.16 0.84 37.42 0.84 37.42 0.84 37.68 0.84 37.68 0.84 37.94 0.84 37.94 0.84 38.2 0.84 38.2 0.84 38.47 0.84 38.47 0.84 38.73 0.84 38.73 0.84 38.99 0.84 38.99 0.85 39.25 0.85 39.25 0.84 39.51 0.84 39.51 0.84 39.78 0.84 39.78 0.84 40.04 0.84 40.04 0.84 40.3 0.84 40.3 0.84 40.56 0.84 40.56 0.85 40.83 0.85 40.83 0.85 41.09 0.85 41.09 0.85 41.35 0.85 41.35 0.85 41.61 0.85 41.61 0.85 41.87 0.85 41.87 0.85 42.14 0.85 42.14 0.84 42.4 0.84 42.4 0.84 42.66 0.84 42.66 0.85 42.92 0.85 42.92 0.84 43.18 0.84 43.18 0.85 43.45 0.85 43.45 0.85 43.71 0.85 43.71 0.85 43.97 0.85 43.97 0.85 44.23 0.85 44.23 0.85 44.49 0.85 44.49 0.85 44.76 0.85 44.76 0.85 45.02 0.85 45.02 0.85 45.28 0.85 45.28 0.85 45.54 0.85 45.54 0.85 45.81 0.85 45.81 0.85 46.07 0.85 46.07 0.85 46.33 0.85 46.33 0.85 46.59 0.85 46.59 0.85 46.85 0.85 46.85 0.85 47.12 0.85 47.12 0.85 47.38 0.85 47.38 0.85 47.64 0.85 47.64 0.85 47.9 0.85 47.9 0.85 48.16 0.85 48.16 0.85 48.43 0.85 48.43 0.85 48.69 0.85 48.69 0.85 48.95 0.85 48.95 0.85 49.21 0.85 49.21 0.85 49.48 0.85 49.48 0.85 49.74 0.85 49.74 0.85 50 0.85 50 0.85 50.26 0.85 50.26 0.85 50.52 0.85 50.52 0.85 50.79 0.85 50.79 0.85 51.05 0.85 51.05 0.85 51.31 0.85 51.31 0.85 51.57 0.85 51.57 0.85 51.83 0.85 51.83 0.85 52.1 0.85 52.1 0.85 52.36 0.85 52.36 0.86 52.62 0.86 52.62 0.85 52.88 0.85 52.88 0.85 53.14 0.85 53.14 0.85 53.41 0.85 53.41 0.85 53.67 0.85 53.67 0.85 53.93 0.85 53.93 0.85 54.19 0.85 54.19 0.86 54.46 0.86 54.46 0.86 54.72 0.86 54.72 0.86 54.98 0.86 54.98 0.86 55.24 0.86 55.24 0.85 55.5 0.85 55.5 0.85 55.77 0.85 55.77 0.86 56.03 0.86 56.03 0.86 56.29 0.86 56.29 0.86 56.55 0.86 56.55 0.85 56.81 0.85 56.81 0.86 57.08 0.86 57.08 0.86 57.34 0.86 57.34 0.86 57.6 0.86 57.6 0.85 57.86 0.85 57.86 0.85 58.13 0.85 58.13 0.86 58.39 0.86 58.39 0.86 58.65 0.86 58.65 0.86 58.91 0.86 58.91 0.86 59.17 0.86 59.17 0.86 59.44 0.86 59.44 0.86 59.7 0.86 59.7 0.86 59.96 0.86 59.96 0.86 60.22 0.86 60.22 0.86 60.48 0.86 60.48 0.86 60.75 0.86 60.75 0.86 61.01 0.86 61.01 0.86 61.27 0.86 61.27 0.86 61.53 0.86 61.53 0.86 61.79 0.86 61.79 0.86 62.06 0.86 62.06 0.86 62.32 0.86 62.32 0.86 62.58 0.86 62.58 0.86 62.84 0.86 62.84 0.86 63.11 0.86 63.11 0.86 63.37 0.86 63.37 0.86 63.63 0.86 63.63 0.86 63.89 0.86 63.89 0.86 64.15 0.86 64.15 0.86 64.42 0.86 64.42 0.86 64.68 0.86 64.68 0.86 64.94 0.86 64.94 0.86 65.2 0.86 65.2 0.86 65.46 0.86 65.46 0.86 65.73 0.86 65.73 0.86 65.99 0.86 65.99 0.86 66.25 0.86 66.25 0.86 66.51 0.86 66.51 0.86 66.78 0.86 66.78 0.86 67.04 0.86 67.04 0.86 67.3 0.86 67.3 0.86 67.56 0.86 67.56 0.86 67.82 0.86 67.82 0.86 68.09 0.86 68.09 0.86 68.35 0.86 68.35 0.86 68.61 0.86 68.61 0.86 68.87 0.86 68.87 0.87 69.13 0.87 69.13 0.86 69.4 0.86 69.4 0.86 69.66 0.86 69.66 0.86 69.92 0.86 69.92 0.86 70.18 0.86 70.18 0.86 70.44 0.86 70.44 0.86 70.71 0.86 70.71 0.86 70.97 0.86 70.97 0.86 71.23 0.86 71.23 0.86 71.49 0.86 71.49 0.86 71.76 0.86 71.76 0.86 72.02 0.86 72.02 0.87 72.28 0.87 72.28 0.86 72.54 0.86 72.54 0.86 72.8 0.86 72.8 0.86 73.07 0.86 73.07 0.87 73.33 0.87 73.33 0.86 73.59 0.86 73.59 0.87 73.85 0.87 73.85 0.87 74.11 0.87 74.11 0.87 74.38 0.87 74.38 0.87 74.64 0.87 74.64 0.87 74.9 0.87 74.9 0.87 75.16 0.87 75.16 0.87 75.43 0.87 75.43 0.87 75.69 0.87 75.69 0.87 75.95 0.87 75.95 0.87 76.21 0.87 76.21 0.87 76.47 0.87 76.47 0.86 76.74 0.86 76.74 0.87 77 0.87 77 0.87 77.26 0.87 77.26 0.87 77.52 0.87 77.52 0.87 77.78 0.87 77.78 0.87 78.05 0.87 78.05 0.87 78.31 0.87 78.31 0.87 78.57 0.87 78.57 0.87 78.83 0.87 78.83 0.87 79.09 0.87 79.09 0.87 79.36 0.87 79.36 0.87 79.62 0.87 79.62 0.87 79.88 0.87 79.88 0.87 80.14 0.87 80.14 0.87 80.41 0.87 80.41 0.87 80.67 0.87 80.67 0.87 80.93 0.87 80.93 0.87 81.19 0.87 81.19 0.87 81.45 0.87 81.45 0.87 81.72 0.87 81.72 0.87 81.98 0.87 81.98 0.87 82.24 0.87 82.24 0.88 82.5 0.88 82.5 0.87 82.76 0.87 82.76 0.87 83.03 0.87 83.03 0.87 83.29 0.87 83.29 0.87 83.55 0.87 83.55 0.88 83.81 0.88 83.81 0.88 84.08 0.88 84.08 0.88 84.34 0.88 84.34 0.88 84.6 0.88 84.6 0.88 84.86 0.88 84.86 0.88 85.12 0.88 85.12 0.88 85.39 0.88 85.39 0.88 85.65 0.88 85.65 0.88 85.91 0.88 85.91 0.88 86.17 0.88 86.17 0.88 86.43 0.88 86.43 0.88 86.7 0.88 86.7 0.88 86.96 0.88 86.96 0.88 87.22 0.88 87.22 0.88 87.48 0.88 87.48 0.88 87.74 0.88 87.74 0.88 88.01 0.88 88.01 0.88 88.27 0.88 88.27 0.88 88.53 0.88 88.53 0.88 88.79 0.88 88.79 0.88 89.06 0.88 89.06 0.88 89.32 0.88 89.32 0.88 89.58 0.88 89.58 0.88 89.84 0.88 89.84 0.88 90.1 0.88 90.1 0.88 90.37 0.88 90.37 0.88 90.63 0.88 90.63 0.88 90.89 0.88 90.89 0.88 91.15 0.88 91.15 0.88 91.41 0.88 91.41 0.88 91.68 0.88 91.68 0.88 91.94 0.88 91.94 0.88 92.2 0.88 92.2 0.88 92.46 0.88 92.46 0.88 92.73 0.88 92.73 0.88 92.99 0.88 92.99 0.88 93.25 0.88 93.25 0.88 93.51 0.88 93.51 0.87 93.77 0.87 93.77 0.87 94.04 0.87 94.04 0.87 94.3 0.87 94.3 0.87 94.56 0.87 94.56 0.87 94.82 0.87 94.82 0.87 95.08 0.87 95.08 0.87 95.35 0.87 95.35 0.87 95.61 0.87 95.61 0.87 95.87 0.87 95.87 0.87 96.13 0.87 96.13 0.87 96.39 0.87 96.39 0.86 96.66 0.86 96.66 0.86 96.92 0.86 96.92 0.86 97.18 0.86 97.18 0.86 97.44 0.86 97.44 0.86 97.71 0.86 97.71 0.86 97.97 0.86 97.97 0.86 98.23 0.86 98.23 0.87 98.49 0.87 98.49 0.87 98.75 0.87 98.75 0.87 99.02 0.87 99.02 0.87 99.28 0.87 99.28 0.87 99.54 0.87 99.54 0.87 99.8 0.87 99.8 0.87 100.06 0.87 100.06 0.87 100.33 0.87 100.33 0.88 100.59 0.88 100.59 0.88 100.85 0.88 100.85 0.88 101.11 0.88 101.11 0.88 101.38 0.88 101.38 0.88 101.64 0.88 101.64 0.88 101.9 0.88 101.9 0.88 102.16 0.88 102.16 0.88 102.42 0.88 102.42 0.88 102.69 0.88 102.69 0.88 102.95 0.88 102.95 0.88 103.21 0.88 103.21 0.88 103.47 0.88 103.47 0.88 103.73 0.88 103.73 0.88 104 0.88 104 0.88 104.26 0.88 104.26 0.88 104.52 0.88 104.52 0.88 104.78 0.88 104.78 0.88 105.04 0.88 105.04 0.88 105.31 0.88 105.31 0.89 105.57 0.89 105.57 0.89 105.83 0.89 105.83 0.88 106.09 0.88 106.09 0.89 106.36 0.89 106.36 0.89 106.62 0.89 106.62 0.88 106.88 0.88 106.88 0.89 107.14 0.89 107.14 0.89 107.4 0.89 107.4 0.89 107.67 0.89 107.67 0.89 107.93 0.89 107.93 0.89 108.19 0.89 108.19 0.89 108.45 0.89 108.45 0.89 108.71 0.89 108.71 0.88 108.98 0.88 108.98 0.88 109.24 0.88 109.24 0.89 109.5 0.89 109.5 0.89 109.76 0.89 109.76 0.89 110.03 0.89 110.03 0.89 110.29 0.89 110.29 0.89 110.55 0.89 110.55 0.89 110.81 0.89 110.81 0.89 111.07 0.89 111.07 0.89 111.34 0.89 111.34 0.89 111.6 0.89 111.6 0.89 111.86 0.89 111.86 0.89 112.12 0.89 112.12 0.89 112.38 0.89 112.38 0.89 112.65 0.89 112.65 0.89 112.91 0.89 112.91 0.89 113.17 0.89 113.17 0.89 113.43 0.89 113.43 0.89 113.69 0.89 113.69 0.89" class="primitive"/>
            </g>
          </g>
        </g>
        <g stroke-width="0.3" fill="#000000" fill-opacity="0.000" class="geometry" id="img-44ec124a-73">
          <g class="color_RGB{Float64}(0.7186016914382806,8.086625054816313e-7,0.0097916074077615)" stroke-dasharray="none" stroke="#B70002" id="img-44ec124a-74">
            <g transform="translate(137.6,59.44)" id="img-44ec124a-75">
              <path fill="none" d="M-113.83,0.33 L -113.56 0.33 -113.56 0.33 -113.3 0.33 -113.3 0.33 -113.04 0.33 -113.04 0.33 -112.78 0.33 -112.78 0.33 -112.52 0.33 -112.52 0.33 -112.25 0.33 -112.25 0.33 -111.99 0.33 -111.99 0.33 -111.73 0.33 -111.73 0.33 -111.47 0.33 -111.47 0.33 -111.2 0.33 -111.2 0.33 -110.94 0.33 -110.94 0.33 -110.68 0.33 -110.68 0.33 -110.42 0.33 -110.42 0.33 -110.16 0.33 -110.16 0.33 -109.89 0.33 -109.89 0.33 -109.63 0.33 -109.63 0.33 -109.37 0.33 -109.37 0.33 -109.11 0.33 -109.11 0.33 -108.85 0.33 -108.85 0.33 -108.58 0.33 -108.58 0.33 -108.32 0.33 -108.32 0.33 -108.06 0.33 -108.06 0.33 -107.8 0.33 -107.8 0.33 -107.53 0.33 -107.53 0.33 -107.27 0.33 -107.27 0.33 -107.01 0.33 -107.01 0.33 -106.75 0.33 -106.75 0.33 -106.49 0.33 -106.49 0.33 -106.22 0.33 -106.22 0.33 -105.96 0.33 -105.96 0.33 -105.7 0.33 -105.7 0.32 -105.44 0.32 -105.44 0.33 -105.18 0.33 -105.18 0.32 -104.91 0.32 -104.91 0.32 -104.65 0.32 -104.65 0.32 -104.39 0.32 -104.39 0.32 -104.13 0.32 -104.13 0.32 -103.87 0.32 -103.87 0.32 -103.6 0.32 -103.6 0.32 -103.34 0.32 -103.34 0.32 -103.08 0.32 -103.08 0.32 -102.82 0.32 -102.82 0.32 -102.55 0.32 -102.55 0.32 -102.29 0.32 -102.29 0.32 -102.03 0.32 -102.03 0.32 -101.77 0.32 -101.77 0.32 -101.51 0.32 -101.51 0.32 -101.24 0.32 -101.24 0.32 -100.98 0.32 -100.98 0.32 -100.72 0.32 -100.72 0.32 -100.46 0.32 -100.46 0.32 -100.2 0.32 -100.2 0.31 -99.93 0.31 -99.93 0.29 -99.67 0.29 -99.67 0.24 -99.41 0.24 -99.41 0.13 -99.15 0.13 -99.15 -0.09 -98.88 -0.09 -98.88 -0.48 -98.62 -0.48 -98.62 -1.17 -98.36 -1.17 -98.36 -2.24 -98.1 -2.24 -98.1 -3.84 -97.84 -3.84 -97.84 -5.94 -97.57 -5.94 -97.57 -8.49 -97.31 -8.49 -97.31 -11.24 -97.05 -11.24 -97.05 -13.87 -96.79 -13.87 -96.79 -15.91 -96.53 -15.91 -96.53 -17.04 -96.26 -17.04 -96.26 -17.01 -96 -17.01 -96 -15.81 -95.74 -15.81 -95.74 -13.77 -95.48 -13.77 -95.48 -11.12 -95.22 -11.12 -95.22 -8.41 -94.95 -8.41 -94.95 -5.88 -94.69 -5.88 -94.69 -3.8 -94.43 -3.8 -94.43 -2.26 -94.17 -2.26 -94.17 -1.19 -93.9 -1.19 -93.9 -0.5 -93.64 -0.5 -93.64 -0.1 -93.38 -0.1 -93.38 0.11 -93.12 0.11 -93.12 0.23 -92.86 0.23 -92.86 0.28 -92.59 0.28 -92.59 0.3 -92.33 0.3 -92.33 0.31 -92.07 0.31 -92.07 0.32 -91.81 0.32 -91.81 0.32 -91.55 0.32 -91.55 0.32 -91.28 0.32 -91.28 0.32 -91.02 0.32 -91.02 0.32 -90.76 0.32 -90.76 0.32 -90.5 0.32 -90.5 0.33 -90.23 0.33 -90.23 0.33 -89.97 0.33 -89.97 0.32 -89.71 0.32 -89.71 0.3 -89.45 0.3 -89.45 0.28 -89.19 0.28 -89.19 0.29 -88.92 0.29 -88.92 0.29 -88.66 0.29 -88.66 0.29 -88.4 0.29 -88.4 0.29 -88.14 0.29 -88.14 0.29 -87.88 0.29 -87.88 0.29 -87.61 0.29 -87.61 0.29 -87.35 0.29 -87.35 0.29 -87.09 0.29 -87.09 0.29 -86.83 0.29 -86.83 0.29 -86.57 0.29 -86.57 0.29 -86.3 0.29 -86.3 0.29 -86.04 0.29 -86.04 0.29 -85.78 0.29 -85.78 0.29 -85.52 0.29 -85.52 0.28 -85.25 0.28 -85.25 0.28 -84.99 0.28 -84.99 0.28 -84.73 0.28 -84.73 0.28 -84.47 0.28 -84.47 0.28 -84.21 0.28 -84.21 0.27 -83.94 0.27 -83.94 0.27 -83.68 0.27 -83.68 0.27 -83.42 0.27 -83.42 0.27 -83.16 0.27 -83.16 0.27 -82.9 0.27 -82.9 0.28 -82.63 0.28 -82.63 0.28 -82.37 0.28 -82.37 0.29 -82.11 0.29 -82.11 0.29 -81.85 0.29 -81.85 0.29 -81.58 0.29 -81.58 0.29 -81.32 0.29 -81.32 0.29 -81.06 0.29 -81.06 0.29 -80.8 0.29 -80.8 0.29 -80.54 0.29 -80.54 0.29 -80.27 0.29 -80.27 0.28 -80.01 0.28 -80.01 0.28 -79.75 0.28 -79.75 0.28 -79.49 0.28 -79.49 0.28 -79.23 0.28 -79.23 0.28 -78.96 0.28 -78.96 0.28 -78.7 0.28 -78.7 0.27 -78.44 0.27 -78.44 0.27 -78.18 0.27 -78.18 0.27 -77.92 0.27 -77.92 0.26 -77.65 0.26 -77.65 0.26 -77.39 0.26 -77.39 0.26 -77.13 0.26 -77.13 0.25 -76.87 0.25 -76.87 0.25 -76.6 0.25 -76.6 0.24 -76.34 0.24 -76.34 0.24 -76.08 0.24 -76.08 0.23 -75.82 0.23 -75.82 0.23 -75.56 0.23 -75.56 0.23 -75.29 0.23 -75.29 0.22 -75.03 0.22 -75.03 0.22 -74.77 0.22 -74.77 0.21 -74.51 0.21 -74.51 0.2 -74.25 0.2 -74.25 0.19 -73.98 0.19 -73.98 0.18 -73.72 0.18 -73.72 0.17 -73.46 0.17 -73.46 0.15 -73.2 0.15 -73.2 0.15 -72.93 0.15 -72.93 0.14 -72.67 0.14 -72.67 0.13 -72.41 0.13 -72.41 0.12 -72.15 0.12 -72.15 0.1 -71.89 0.1 -71.89 0.1 -71.62 0.1 -71.62 0.08 -71.36 0.08 -71.36 0.08 -71.1 0.08 -71.1 0.05 -70.84 0.05 -70.84 0.05 -70.58 0.05 -70.58 0.04 -70.31 0.04 -70.31 0.05 -70.05 0.05 -70.05 0.04 -69.79 0.04 -69.79 0.01 -69.53 0.01 -69.53 0.01 -69.27 0.01 -69.27 0.03 -69 0.03 -69 0.03 -68.74 0.03 -68.74 -0 -68.48 -0 -68.48 0.14 -68.22 0.14 -68.22 0.34 -67.95 0.34 -67.95 0.26 -67.69 0.26 -67.69 0.27 -67.43 0.27 -67.43 0.28 -67.17 0.28 -67.17 0.31 -66.91 0.31 -66.91 0.27 -66.64 0.27 -66.64 0.26 -66.38 0.26 -66.38 0.24 -66.12 0.24 -66.12 0.27 -65.86 0.27 -65.86 0.25 -65.6 0.25 -65.6 0.25 -65.33 0.25 -65.33 0.25 -65.07 0.25 -65.07 0.24 -64.81 0.24 -64.81 0.24 -64.55 0.24 -64.55 0.24 -64.29 0.24 -64.29 0.24 -64.02 0.24 -64.02 0.24 -63.76 0.24 -63.76 0.24 -63.5 0.24 -63.5 0.24 -63.24 0.24 -63.24 0.24 -62.97 0.24 -62.97 0.23 -62.71 0.23 -62.71 0.23 -62.45 0.23 -62.45 0.23 -62.19 0.23 -62.19 0.23 -61.93 0.23 -61.93 0.22 -61.66 0.22 -61.66 0.22 -61.4 0.22 -61.4 0.22 -61.14 0.22 -61.14 0.21 -60.88 0.21 -60.88 0.21 -60.62 0.21 -60.62 0.21 -60.35 0.21 -60.35 0.21 -60.09 0.21 -60.09 0.21 -59.83 0.21 -59.83 0.2 -59.57 0.2 -59.57 0.21 -59.3 0.21 -59.3 0.21 -59.04 0.21 -59.04 0.21 -58.78 0.21 -58.78 0.21 -58.52 0.21 -58.52 0.21 -58.26 0.21 -58.26 0.21 -57.99 0.21 -57.99 0.21 -57.73 0.21 -57.73 0.21 -57.47 0.21 -57.47 0.21 -57.21 0.21 -57.21 0.21 -56.95 0.21 -56.95 0.2 -56.68 0.2 -56.68 0.2 -56.42 0.2 -56.42 0.2 -56.16 0.2 -56.16 0.2 -55.9 0.2 -55.9 0.2 -55.64 0.2 -55.64 0.2 -55.37 0.2 -55.37 0.19 -55.11 0.19 -55.11 0.19 -54.85 0.19 -54.85 0.19 -54.59 0.19 -54.59 0.19 -54.32 0.19 -54.32 0.18 -54.06 0.18 -54.06 0.18 -53.8 0.18 -53.8 0.18 -53.54 0.18 -53.54 0.18 -53.28 0.18 -53.28 0.18 -53.01 0.18 -53.01 0.17 -52.75 0.17 -52.75 0.17 -52.49 0.17 -52.49 0.16 -52.23 0.16 -52.23 0.16 -51.97 0.16 -51.97 0.16 -51.7 0.16 -51.7 0.16 -51.44 0.16 -51.44 0.16 -51.18 0.16 -51.18 0.16 -50.92 0.16 -50.92 0.15 -50.65 0.15 -50.65 0.15 -50.39 0.15 -50.39 0.15 -50.13 0.15 -50.13 0.15 -49.87 0.15 -49.87 0.15 -49.61 0.15 -49.61 0.15 -49.34 0.15 -49.34 0.15 -49.08 0.15 -49.08 0.15 -48.82 0.15 -48.82 0.15 -48.56 0.15 -48.56 0.15 -48.3 0.15 -48.3 0.14 -48.03 0.14 -48.03 0.14 -47.77 0.14 -47.77 0.14 -47.51 0.14 -47.51 0.14 -47.25 0.14 -47.25 0.14 -46.99 0.14 -46.99 0.14 -46.72 0.14 -46.72 0.13 -46.46 0.13 -46.46 0.14 -46.2 0.14 -46.2 0.13 -45.94 0.13 -45.94 0.13 -45.67 0.13 -45.67 0.13 -45.41 0.13 -45.41 0.12 -45.15 0.12 -45.15 0.12 -44.89 0.12 -44.89 0.12 -44.63 0.12 -44.63 0.12 -44.36 0.12 -44.36 0.11 -44.1 0.11 -44.1 0.12 -43.84 0.12 -43.84 0.12 -43.58 0.12 -43.58 0.12 -43.32 0.12 -43.32 0.12 -43.05 0.12 -43.05 0.12 -42.79 0.12 -42.79 0.11 -42.53 0.11 -42.53 0.11 -42.27 0.11 -42.27 0.11 -42 0.11 -42 0.11 -41.74 0.11 -41.74 0.11 -41.48 0.11 -41.48 0.11 -41.22 0.11 -41.22 0.11 -40.96 0.11 -40.96 0.11 -40.69 0.11 -40.69 0.1 -40.43 0.1 -40.43 0.1 -40.17 0.1 -40.17 0.1 -39.91 0.1 -39.91 0.1 -39.65 0.1 -39.65 0.1 -39.38 0.1 -39.38 0.1 -39.12 0.1 -39.12 0.1 -38.86 0.1 -38.86 0.1 -38.6 0.1 -38.6 0.1 -38.34 0.1 -38.34 0.1 -38.07 0.1 -38.07 0.1 -37.81 0.1 -37.81 0.09 -37.55 0.09 -37.55 0.09 -37.29 0.09 -37.29 0.09 -37.02 0.09 -37.02 0.09 -36.76 0.09 -36.76 0.09 -36.5 0.09 -36.5 0.09 -36.24 0.09 -36.24 0.09 -35.98 0.09 -35.98 0.09 -35.71 0.09 -35.71 0.09 -35.45 0.09 -35.45 0.09 -35.19 0.09 -35.19 0.09 -34.93 0.09 -34.93 0.08 -34.67 0.08 -34.67 0.08 -34.4 0.08 -34.4 0.08 -34.14 0.08 -34.14 0.08 -33.88 0.08 -33.88 0.08 -33.62 0.08 -33.62 0.08 -33.35 0.08 -33.35 0.08 -33.09 0.08 -33.09 0.07 -32.83 0.07 -32.83 0.08 -32.57 0.08 -32.57 0.08 -32.31 0.08 -32.31 0.07 -32.04 0.07 -32.04 0.08 -31.78 0.08 -31.78 0.07 -31.52 0.07 -31.52 0.07 -31.26 0.07 -31.26 0.07 -31 0.07 -31 0.07 -30.73 0.07 -30.73 0.07 -30.47 0.07 -30.47 0.07 -30.21 0.07 -30.21 0.07 -29.95 0.07 -29.95 0.07 -29.69 0.07 -29.69 0.07 -29.42 0.07 -29.42 0.07 -29.16 0.07 -29.16 0.06 -28.9 0.06 -28.9 0.07 -28.64 0.07 -28.64 0.07 -28.37 0.07 -28.37 0.07 -28.11 0.07 -28.11 0.07 -27.85 0.07 -27.85 0.06 -27.59 0.06 -27.59 0.06 -27.33 0.06 -27.33 0.06 -27.06 0.06 -27.06 0.07 -26.8 0.07 -26.8 0.06 -26.54 0.06 -26.54 0.06 -26.28 0.06 -26.28 0.06 -26.02 0.06 -26.02 0.06 -25.75 0.06 -25.75 0.06 -25.49 0.06 -25.49 0.06 -25.23 0.06 -25.23 0.05 -24.97 0.05 -24.97 0.06 -24.7 0.06 -24.7 0.06 -24.44 0.06 -24.44 0.05 -24.18 0.05 -24.18 0.05 -23.92 0.05 -23.92 0.05 -23.66 0.05 -23.66 0.05 -23.39 0.05 -23.39 0.05 -23.13 0.05 -23.13 0.05 -22.87 0.05 -22.87 0.04 -22.61 0.04 -22.61 0.04 -22.35 0.04 -22.35 0.05 -22.08 0.05 -22.08 0.04 -21.82 0.04 -21.82 0.04 -21.56 0.04 -21.56 0.04 -21.3 0.04 -21.3 0.04 -21.04 0.04 -21.04 0.03 -20.77 0.03 -20.77 0.02 -20.51 0.02 -20.51 0.03 -20.25 0.03 -20.25 0.03 -19.99 0.03 -19.99 0.02 -19.72 0.02 -19.72 0.01 -19.46 0.01 -19.46 0.01 -19.2 0.01 -19.2 0.01 -18.94 0.01 -18.94 0 -18.68 0 -18.68 0.01 -18.41 0.01 -18.41 -0 -18.15 -0 -18.15 -0 -17.89 -0 -17.89 -0.01 -17.63 -0.01 -17.63 -0.01 -17.37 -0.01 -17.37 -0.01 -17.1 -0.01 -17.1 -0.01 -16.84 -0.01 -16.84 -0.01 -16.58 -0.01 -16.58 -0.01 -16.32 -0.01 -16.32 -0.02 -16.05 -0.02 -16.05 -0.02 -15.79 -0.02 -15.79 -0.01 -15.53 -0.01 -15.53 -0.01 -15.27 -0.01 -15.27 -0.01 -15.01 -0.01 -15.01 -0.01 -14.74 -0.01 -14.74 -0.01 -14.48 -0.01 -14.48 -0.02 -14.22 -0.02 -14.22 -0.01 -13.96 -0.01 -13.96 -0.02 -13.7 -0.02 -13.7 -0.01 -13.43 -0.01 -13.43 -0.01 -13.17 -0.01 -13.17 -0.01 -12.91 -0.01 -12.91 -0.01 -12.65 -0.01 -12.65 -0.01 -12.39 -0.01 -12.39 -0.01 -12.12 -0.01 -12.12 -0.01 -11.86 -0.01 -11.86 -0.01 -11.6 -0.01 -11.6 -0.01 -11.34 -0.01 -11.34 0 -11.07 0 -11.07 -0 -10.81 -0 -10.81 0 -10.55 0 -10.55 0 -10.29 0 -10.29 0.01 -10.03 0.01 -10.03 0.03 -9.76 0.03 -9.76 0.04 -9.5 0.04 -9.5 0.06 -9.24 0.06 -9.24 0.09 -8.98 0.09 -8.98 0.09 -8.72 0.09 -8.72 0.14 -8.45 0.14 -8.45 0.14 -8.19 0.14 -8.19 0.22 -7.93 0.22 -7.93 0.25 -7.67 0.25 -7.67 0.32 -7.4 0.32 -7.4 0.34 -7.14 0.34 -7.14 0.38 -6.88 0.38 -6.88 0.41 -6.62 0.41 -6.62 0.36 -6.36 0.36 -6.36 0.41 -6.09 0.41 -6.09 0.39 -5.83 0.39 -5.83 0.39 -5.57 0.39 -5.57 0.29 -5.31 0.29 -5.31 0.18 -5.05 0.18 -5.05 0.13 -4.78 0.13 -4.78 0.02 -4.52 0.02 -4.52 -0.02 -4.26 -0.02 -4.26 -0.1 -4 -0.1 -4 -0.17 -3.74 -0.17 -3.74 -0.19 -3.47 -0.19 -3.47 -0.25 -3.21 -0.25 -3.21 -0.34 -2.95 -0.34 -2.95 -0.27 -2.69 -0.27 -2.69 -0.27 -2.42 -0.27 -2.42 -0.27 -2.16 -0.27 -2.16 -0.21 -1.9 -0.21 -1.9 -0.16 -1.64 -0.16 -1.64 -0.1 -1.38 -0.1 -1.38 -0.06 -1.11 -0.06 -1.11 -0.03 -0.85 -0.03 -0.85 0.01 -0.59 0.01 -0.59 0.07 -0.33 0.07 -0.33 0.07 -0.07 0.07 -0.07 0.11 0.2 0.11 0.2 0.2 0.46 0.2 0.46 0.27 0.72 0.27 0.72 0.29 0.98 0.29 0.98 0.29 1.25 0.29 1.25 0.28 1.51 0.28 1.51 0.28 1.77 0.28 1.77 0.27 2.03 0.27 2.03 0.26 2.29 0.26 2.29 0.24 2.56 0.24 2.56 0.23 2.82 0.23 2.82 0.22 3.08 0.22 3.08 0.21 3.34 0.21 3.34 0.2 3.6 0.2 3.6 0.19 3.87 0.19 3.87 0.18 4.13 0.18 4.13 0.18 4.39 0.18 4.39 0.18 4.65 0.18 4.65 0.17 4.91 0.17 4.91 0.18 5.18 0.18 5.18 0.17 5.44 0.17 5.44 0.18 5.7 0.18 5.7 0.18 5.96 0.18 5.96 0.18 6.23 0.18 6.23 0.18 6.49 0.18 6.49 0.18 6.75 0.18 6.75 0.19 7.01 0.19 7.01 0.19 7.27 0.19 7.27 0.18 7.54 0.18 7.54 0.18 7.8 0.18 7.8 0.19 8.06 0.19 8.06 0.19 8.32 0.19 8.32 0.19 8.58 0.19 8.58 0.19 8.85 0.19 8.85 0.19 9.11 0.19 9.11 0.18 9.37 0.18 9.37 0.18 9.63 0.18 9.63 0.18 9.9 0.18 9.9 0.18 10.16 0.18 10.16 0.19 10.42 0.19 10.42 0.19 10.68 0.19 10.68 0.19 10.94 0.19 10.94 0.19 11.21 0.19 11.21 0.19 11.47 0.19 11.47 0.19 11.73 0.19 11.73 0.19 11.99 0.19 11.99 0.19 12.25 0.19 12.25 0.19 12.52 0.19 12.52 0.19 12.78 0.19 12.78 0.19 13.04 0.19 13.04 0.19 13.3 0.19 13.3 0.19 13.56 0.19 13.56 0.19 13.83 0.19 13.83 0.19 14.09 0.19 14.09 0.19 14.35 0.19 14.35 0.19 14.61 0.19 14.61 0.19 14.88 0.19 14.88 0.19 15.14 0.19 15.14 0.19 15.4 0.19 15.4 0.19 15.66 0.19 15.66 0.19 15.92 0.19 15.92 0.19 16.19 0.19 16.19 0.19 16.45 0.19 16.45 0.19 16.71 0.19 16.71 0.19 16.97 0.19 16.97 0.19 17.23 0.19 17.23 0.18 17.5 0.18 17.5 0.19 17.76 0.19 17.76 0.19 18.02 0.19 18.02 0.19 18.28 0.19 18.28 0.18 18.55 0.18 18.55 0.18 18.81 0.18 18.81 0.18 19.07 0.18 19.07 0.17 19.33 0.17 19.33 0.17 19.59 0.17 19.59 0.17 19.86 0.17 19.86 0.17 20.12 0.17 20.12 0.18 20.38 0.18 20.38 0.18 20.64 0.18 20.64 0.18 20.9 0.18 20.9 0.18 21.17 0.18 21.17 0.18 21.43 0.18 21.43 0.18 21.69 0.18 21.69 0.19 21.95 0.19 21.95 0.19 22.21 0.19 22.21 0.19 22.48 0.19 22.48 0.19 22.74 0.19 22.74 0.19 23 0.19 23 0.19 23.26 0.19 23.26 0.19 23.53 0.19 23.53 0.19 23.79 0.19 23.79 0.19 24.05 0.19 24.05 0.18 24.31 0.18 24.31 0.19 24.57 0.19 24.57 0.19 24.84 0.19 24.84 0.19 25.1 0.19 25.1 0.19 25.36 0.19 25.36 0.19 25.62 0.19 25.62 0.19 25.88 0.19 25.88 0.19 26.15 0.19 26.15 0.19 26.41 0.19 26.41 0.19 26.67 0.19 26.67 0.19 26.93 0.19 26.93 0.19 27.2 0.19 27.2 0.19 27.46 0.19 27.46 0.19 27.72 0.19 27.72 0.19 27.98 0.19 27.98 0.19 28.24 0.19 28.24 0.19 28.51 0.19 28.51 0.19 28.77 0.19 28.77 0.19 29.03 0.19 29.03 0.19 29.29 0.19 29.29 0.19 29.55 0.19 29.55 0.19 29.82 0.19 29.82 0.19 30.08 0.19 30.08 0.19 30.34 0.19 30.34 0.2 30.6 0.2 30.6 0.2 30.86 0.2 30.86 0.2 31.13 0.2 31.13 0.19 31.39 0.19 31.39 0.2 31.65 0.2 31.65 0.2 31.91 0.2 31.91 0.2 32.18 0.2 32.18 0.2 32.44 0.2 32.44 0.2 32.7 0.2 32.7 0.2 32.96 0.2 32.96 0.2 33.22 0.2 33.22 0.2 33.49 0.2 33.49 0.2 33.75 0.2 33.75 0.2 34.01 0.2 34.01 0.2 34.27 0.2 34.27 0.2 34.53 0.2 34.53 0.2 34.8 0.2 34.8 0.2 35.06 0.2 35.06 0.2 35.32 0.2 35.32 0.2 35.58 0.2 35.58 0.2 35.85 0.2 35.85 0.2 36.11 0.2 36.11 0.2 36.37 0.2 36.37 0.2 36.63 0.2 36.63 0.2 36.89 0.2 36.89 0.2 37.16 0.2 37.16 0.2 37.42 0.2 37.42 0.2 37.68 0.2 37.68 0.2 37.94 0.2 37.94 0.2 38.2 0.2 38.2 0.2 38.47 0.2 38.47 0.2 38.73 0.2 38.73 0.2 38.99 0.2 38.99 0.2 39.25 0.2 39.25 0.2 39.51 0.2 39.51 0.2 39.78 0.2 39.78 0.2 40.04 0.2 40.04 0.2 40.3 0.2 40.3 0.2 40.56 0.2 40.56 0.2 40.83 0.2 40.83 0.21 41.09 0.21 41.09 0.21 41.35 0.21 41.35 0.2 41.61 0.2 41.61 0.2 41.87 0.2 41.87 0.2 42.14 0.2 42.14 0.2 42.4 0.2 42.4 0.2 42.66 0.2 42.66 0.2 42.92 0.2 42.92 0.2 43.18 0.2 43.18 0.21 43.45 0.21 43.45 0.21 43.71 0.21 43.71 0.21 43.97 0.21 43.97 0.21 44.23 0.21 44.23 0.21 44.49 0.21 44.49 0.21 44.76 0.21 44.76 0.21 45.02 0.21 45.02 0.2 45.28 0.2 45.28 0.2 45.54 0.2 45.54 0.2 45.81 0.2 45.81 0.21 46.07 0.21 46.07 0.2 46.33 0.2 46.33 0.21 46.59 0.21 46.59 0.21 46.85 0.21 46.85 0.21 47.12 0.21 47.12 0.21 47.38 0.21 47.38 0.21 47.64 0.21 47.64 0.21 47.9 0.21 47.9 0.21 48.16 0.21 48.16 0.21 48.43 0.21 48.43 0.2 48.69 0.2 48.69 0.21 48.95 0.21 48.95 0.21 49.21 0.21 49.21 0.21 49.48 0.21 49.48 0.21 49.74 0.21 49.74 0.21 50 0.21 50 0.21 50.26 0.21 50.26 0.21 50.52 0.21 50.52 0.21 50.79 0.21 50.79 0.21 51.05 0.21 51.05 0.21 51.31 0.21 51.31 0.21 51.57 0.21 51.57 0.21 51.83 0.21 51.83 0.21 52.1 0.21 52.1 0.21 52.36 0.21 52.36 0.22 52.62 0.22 52.62 0.21 52.88 0.21 52.88 0.21 53.14 0.21 53.14 0.21 53.41 0.21 53.41 0.21 53.67 0.21 53.67 0.21 53.93 0.21 53.93 0.21 54.19 0.21 54.19 0.21 54.46 0.21 54.46 0.21 54.72 0.21 54.72 0.22 54.98 0.22 54.98 0.21 55.24 0.21 55.24 0.21 55.5 0.21 55.5 0.21 55.77 0.21 55.77 0.21 56.03 0.21 56.03 0.21 56.29 0.21 56.29 0.21 56.55 0.21 56.55 0.21 56.81 0.21 56.81 0.21 57.08 0.21 57.08 0.21 57.34 0.21 57.34 0.21 57.6 0.21 57.6 0.21 57.86 0.21 57.86 0.21 58.13 0.21 58.13 0.22 58.39 0.22 58.39 0.22 58.65 0.22 58.65 0.21 58.91 0.21 58.91 0.21 59.17 0.21 59.17 0.21 59.44 0.21 59.44 0.21 59.7 0.21 59.7 0.21 59.96 0.21 59.96 0.22 60.22 0.22 60.22 0.21 60.48 0.21 60.48 0.21 60.75 0.21 60.75 0.22 61.01 0.22 61.01 0.22 61.27 0.22 61.27 0.22 61.53 0.22 61.53 0.21 61.79 0.21 61.79 0.22 62.06 0.22 62.06 0.22 62.32 0.22 62.32 0.22 62.58 0.22 62.58 0.22 62.84 0.22 62.84 0.22 63.11 0.22 63.11 0.22 63.37 0.22 63.37 0.22 63.63 0.22 63.63 0.22 63.89 0.22 63.89 0.21 64.15 0.21 64.15 0.21 64.42 0.21 64.42 0.22 64.68 0.22 64.68 0.22 64.94 0.22 64.94 0.22 65.2 0.22 65.2 0.22 65.46 0.22 65.46 0.22 65.73 0.22 65.73 0.22 65.99 0.22 65.99 0.22 66.25 0.22 66.25 0.22 66.51 0.22 66.51 0.22 66.78 0.22 66.78 0.22 67.04 0.22 67.04 0.22 67.3 0.22 67.3 0.22 67.56 0.22 67.56 0.22 67.82 0.22 67.82 0.22 68.09 0.22 68.09 0.22 68.35 0.22 68.35 0.22 68.61 0.22 68.61 0.22 68.87 0.22 68.87 0.22 69.13 0.22 69.13 0.22 69.4 0.22 69.4 0.22 69.66 0.22 69.66 0.22 69.92 0.22 69.92 0.22 70.18 0.22 70.18 0.22 70.44 0.22 70.44 0.22 70.71 0.22 70.71 0.22 70.97 0.22 70.97 0.22 71.23 0.22 71.23 0.22 71.49 0.22 71.49 0.22 71.76 0.22 71.76 0.22 72.02 0.22 72.02 0.22 72.28 0.22 72.28 0.22 72.54 0.22 72.54 0.22 72.8 0.22 72.8 0.22 73.07 0.22 73.07 0.22 73.33 0.22 73.33 0.22 73.59 0.22 73.59 0.22 73.85 0.22 73.85 0.23 74.11 0.23 74.11 0.22 74.38 0.22 74.38 0.22 74.64 0.22 74.64 0.23 74.9 0.23 74.9 0.22 75.16 0.22 75.16 0.23 75.43 0.23 75.43 0.22 75.69 0.22 75.69 0.23 75.95 0.23 75.95 0.22 76.21 0.22 76.21 0.22 76.47 0.22 76.47 0.22 76.74 0.22 76.74 0.23 77 0.23 77 0.23 77.26 0.23 77.26 0.23 77.52 0.23 77.52 0.23 77.78 0.23 77.78 0.23 78.05 0.23 78.05 0.23 78.31 0.23 78.31 0.23 78.57 0.23 78.57 0.23 78.83 0.23 78.83 0.23 79.09 0.23 79.09 0.23 79.36 0.23 79.36 0.23 79.62 0.23 79.62 0.23 79.88 0.23 79.88 0.23 80.14 0.23 80.14 0.23 80.41 0.23 80.41 0.23 80.67 0.23 80.67 0.23 80.93 0.23 80.93 0.23 81.19 0.23 81.19 0.23 81.45 0.23 81.45 0.23 81.72 0.23 81.72 0.23 81.98 0.23 81.98 0.23 82.24 0.23 82.24 0.23 82.5 0.23 82.5 0.23 82.76 0.23 82.76 0.23 83.03 0.23 83.03 0.23 83.29 0.23 83.29 0.23 83.55 0.23 83.55 0.23 83.81 0.23 83.81 0.23 84.08 0.23 84.08 0.23 84.34 0.23 84.34 0.23 84.6 0.23 84.6 0.23 84.86 0.23 84.86 0.23 85.12 0.23 85.12 0.23 85.39 0.23 85.39 0.23 85.65 0.23 85.65 0.23 85.91 0.23 85.91 0.23 86.17 0.23 86.17 0.24 86.43 0.24 86.43 0.24 86.7 0.24 86.7 0.24 86.96 0.24 86.96 0.24 87.22 0.24 87.22 0.24 87.48 0.24 87.48 0.24 87.74 0.24 87.74 0.24 88.01 0.24 88.01 0.24 88.27 0.24 88.27 0.24 88.53 0.24 88.53 0.23 88.79 0.23 88.79 0.24 89.06 0.24 89.06 0.24 89.32 0.24 89.32 0.24 89.58 0.24 89.58 0.24 89.84 0.24 89.84 0.24 90.1 0.24 90.1 0.24 90.37 0.24 90.37 0.24 90.63 0.24 90.63 0.24 90.89 0.24 90.89 0.24 91.15 0.24 91.15 0.24 91.41 0.24 91.41 0.24 91.68 0.24 91.68 0.24 91.94 0.24 91.94 0.24 92.2 0.24 92.2 0.24 92.46 0.24 92.46 0.24 92.73 0.24 92.73 0.24 92.99 0.24 92.99 0.24 93.25 0.24 93.25 0.23 93.51 0.23 93.51 0.23 93.77 0.23 93.77 0.23 94.04 0.23 94.04 0.23 94.3 0.23 94.3 0.23 94.56 0.23 94.56 0.23 94.82 0.23 94.82 0.23 95.08 0.23 95.08 0.23 95.35 0.23 95.35 0.23 95.61 0.23 95.61 0.22 95.87 0.22 95.87 0.22 96.13 0.22 96.13 0.22 96.39 0.22 96.39 0.22 96.66 0.22 96.66 0.22 96.92 0.22 96.92 0.22 97.18 0.22 97.18 0.22 97.44 0.22 97.44 0.22 97.71 0.22 97.71 0.22 97.97 0.22 97.97 0.22 98.23 0.22 98.23 0.22 98.49 0.22 98.49 0.22 98.75 0.22 98.75 0.22 99.02 0.22 99.02 0.23 99.28 0.23 99.28 0.23 99.54 0.23 99.54 0.23 99.8 0.23 99.8 0.23 100.06 0.23 100.06 0.23 100.33 0.23 100.33 0.23 100.59 0.23 100.59 0.23 100.85 0.23 100.85 0.23 101.11 0.23 101.11 0.24 101.38 0.24 101.38 0.24 101.64 0.24 101.64 0.24 101.9 0.24 101.9 0.24 102.16 0.24 102.16 0.24 102.42 0.24 102.42 0.24 102.69 0.24 102.69 0.24 102.95 0.24 102.95 0.24 103.21 0.24 103.21 0.24 103.47 0.24 103.47 0.24 103.73 0.24 103.73 0.24 104 0.24 104 0.24 104.26 0.24 104.26 0.24 104.52 0.24 104.52 0.24 104.78 0.24 104.78 0.24 105.04 0.24 105.04 0.24 105.31 0.24 105.31 0.24 105.57 0.24 105.57 0.24 105.83 0.24 105.83 0.24 106.09 0.24 106.09 0.24 106.36 0.24 106.36 0.24 106.62 0.24 106.62 0.24 106.88 0.24 106.88 0.24 107.14 0.24 107.14 0.24 107.4 0.24 107.4 0.25 107.67 0.25 107.67 0.24 107.93 0.24 107.93 0.24 108.19 0.24 108.19 0.24 108.45 0.24 108.45 0.24 108.71 0.24 108.71 0.24 108.98 0.24 108.98 0.24 109.24 0.24 109.24 0.24 109.5 0.24 109.5 0.24 109.76 0.24 109.76 0.24 110.03 0.24 110.03 0.24 110.29 0.24 110.29 0.24 110.55 0.24 110.55 0.24 110.81 0.24 110.81 0.25 111.07 0.25 111.07 0.24 111.34 0.24 111.34 0.24 111.6 0.24 111.6 0.25 111.86 0.25 111.86 0.25 112.12 0.25 112.12 0.25 112.38 0.25 112.38 0.25 112.65 0.25 112.65 0.25 112.91 0.25 112.91 0.25 113.17 0.25 113.17 0.25 113.43 0.25 113.43 0.25 113.69 0.25 113.69 0.25" class="primitive"/>
            </g>
          </g>
        </g>
      </g>
    </g>
  </g>
  <g class="guide ylabels" font-size="2.82" font-family="'PT Sans Caption','Helvetica Neue','Helvetica',sans-serif" fill="#6C606B" id="img-44ec124a-76">
    <g transform="translate(20.77,59.77)" id="img-44ec124a-77">
      <g class="primitive">
        <text text-anchor="end" dy="0.35em">0</text>
      </g>
    </g>
    <g transform="translate(20.77,42.91)" id="img-44ec124a-78">
      <g class="primitive">
        <text text-anchor="end" dy="0.35em">5.010</text>
      </g>
    </g>
    <g transform="translate(20.77,26.05)" id="img-44ec124a-79">
      <g class="primitive">
        <text text-anchor="end" dy="0.35em">1.010</text>
      </g>
    </g>
    <g transform="translate(20.77,9.18)" id="img-44ec124a-80">
      <g class="primitive">
        <text text-anchor="end" dy="0.35em">1.510</text>
      </g>
    </g>
  </g>
  <g font-size="3.18" font-family="'PT Sans','Helvetica Neue','Helvetica',sans-serif" fill="#202020" stroke="#000000" stroke-opacity="0.000" id="img-44ec124a-81">
    <g transform="translate(4.18,31.76)" id="img-44ec124a-82">
      <g class="primitive">
        <text text-anchor="middle" dy="0.35em" transform="rotate(-90,0, 2)">Counts</text>
      </g>
    </g>
  </g>
  <g font-size="3.18" font-family="'PT Sans','Helvetica Neue','Helvetica',sans-serif" fill="#202020" stroke="#000000" stroke-opacity="0.000" id="img-44ec124a-83">
    <g transform="translate(137.53,0.71)" id="img-44ec124a-84">
      <g class="primitive">
        <text text-anchor="middle" dy="0.6em">SiO2</text>
      </g>
    </g>
  </g>
</g>
<defs>
  <clipPath id="img-44ec124a-4">
    <path d="M21.77,5.66 L 253.29 5.66 253.29 61.87 21.77 61.87" />
  </clipPath>
</defs>
</svg>
