<?xml version="1.0" encoding="UTF-8"?>
<svg xmlns="http://www.w3.org/2000/svg"
     xmlns:xlink="http://www.w3.org/1999/xlink"
     xmlns:gadfly="http://www.gadflyjl.org/ns"
     version="1.2"
     width="254mm" height="76.2mm" viewBox="0 0 254 76.2"
     stroke="none"
     fill="#000000"
     stroke-width="0.3"
     font-size="3.88"
>
<defs>
  <marker id="arrow" markerWidth="15" markerHeight="7" refX="5" refY="3.5" orient="auto" markerUnits="strokeWidth">
    <path d="M0,0 L15,3.5 L0,7 z" stroke="context-stroke" fill="context-stroke"/>
  </marker>
</defs>
<g class="plotroot xscalable yscalable" id="img-a0adbdd7-1">
  <g font-size="3.18" font-family="'PT Sans','Helvetica Neue','Helvetica',sans-serif" fill="#202020" stroke="#000000" stroke-opacity="0.000" id="img-a0adbdd7-2">
    <g transform="translate(130.44,69.54)">
      <g class="primitive">
        <text text-anchor="middle" dy="0.6em">Energy (eV)</text>
      </g>
    </g>
  </g>
  <g class="guide xlabels" font-size="2.82" font-family="'PT Sans Caption','Helvetica Neue','Helvetica',sans-serif" fill="#6C606B" id="img-a0adbdd7-3">
    <g transform="translate(21.7,62.87)">
      <g class="primitive">
        <text text-anchor="middle" dy="0.6em">0</text>
      </g>
    </g>
    <g transform="translate(65.2,62.87)">
      <g class="primitive">
        <text text-anchor="middle" dy="0.6em">500</text>
      </g>
    </g>
    <g transform="translate(108.69,62.87)">
      <g class="primitive">
        <text text-anchor="middle" dy="0.6em">1000</text>
      </g>
    </g>
    <g transform="translate(152.18,62.87)">
      <g class="primitive">
        <text text-anchor="middle" dy="0.6em">1500</text>
      </g>
    </g>
    <g transform="translate(195.68,62.87)">
      <g class="primitive">
        <text text-anchor="middle" dy="0.6em">2000</text>
      </g>
    </g>
    <g transform="translate(239.17,62.87)">
      <g class="primitive">
        <text text-anchor="middle" dy="0.6em">2500</text>
      </g>
    </g>
  </g>
  <g class="guide colorkey" id="img-a0adbdd7-4">
    <g fill="#4C404B" font-size="2.82" font-family="'PT Sans','Helvetica Neue','Helvetica',sans-serif" id="img-a0adbdd7-5">
      <g transform="translate(245.8,28.07)" id="img-a0adbdd7-6">
        <g class="primitive">
          <text dy="0.35em">SiO2</text>
        </g>
      </g>
      <g transform="translate(245.8,31.7)" id="img-a0adbdd7-7">
        <g class="primitive">
          <text dy="0.35em">Si</text>
        </g>
      </g>
      <g transform="translate(245.8,35.33)" id="img-a0adbdd7-8">
        <g class="primitive">
          <text dy="0.35em">Al2O3</text>
        </g>
      </g>
      <g transform="translate(245.8,38.95)" id="img-a0adbdd7-9">
        <g class="primitive">
          <text dy="0.35em">C</text>
        </g>
      </g>
    </g>
    <g stroke-width="0.3" id="img-a0adbdd7-10">
      <g stroke="#FFFFFF" fill-opacity="1" fill="#FFBC00" id="img-a0adbdd7-11">
        <g transform="translate(242.99,38.95)" id="img-a0adbdd7-12">
          <circle cx="0" cy="0" r="0.9" class="primitive"/>
        </g>
      </g>
      <g stroke="#FFFFFF" fill-opacity="1" fill="#00BBFF" id="img-a0adbdd7-13">
        <g transform="translate(242.99,35.33)" id="img-a0adbdd7-14">
          <circle cx="0" cy="0" r="0.9" class="primitive"/>
        </g>
      </g>
      <g stroke="#FFFFFF" fill-opacity="1" fill="#B70002" id="img-a0adbdd7-15">
        <g transform="translate(242.99,31.7)" id="img-a0adbdd7-16">
          <circle cx="0" cy="0" r="0.9" class="primitive"/>
        </g>
      </g>
      <g stroke="#FFFFFF" fill-opacity="1" fill="#104E8B" id="img-a0adbdd7-17">
        <g transform="translate(242.99,28.07)" id="img-a0adbdd7-18">
          <circle cx="0" cy="0" r="0.9" class="primitive"/>
        </g>
      </g>
    </g>
    <g fill="#362A35" font-size="3.18" font-family="'PT Sans','Helvetica Neue','Helvetica',sans-serif" stroke="#000000" stroke-opacity="0.000" id="img-a0adbdd7-19">
      <g transform="translate(242.17,24.76)" id="img-a0adbdd7-20">
        <g class="primitive">
          <text dy="-0em">Spectra</text>
        </g>
      </g>
    </g>
  </g>
  <g clip-path="url(#img-a0adbdd7-21)">
    <g id="img-a0adbdd7-22">
      <g pointer-events="visible" stroke-width="0.3" fill="#FDFDF1" stroke="#202020" class="guide background" id="img-a0adbdd7-23">
        <g transform="translate(130.44,31.29)" id="img-a0adbdd7-24">
          <path d="M-110.74,-30.58 L 110.74 -30.58 110.74 30.58 -110.74 30.58 z" class="primitive"/>
        </g>
      </g>
      <g class="guide ygridlines xfixed" stroke-dasharray="none" stroke-width="0.2" stroke="#FFDFDF" id="img-a0adbdd7-25">
        <g transform="translate(130.44,59.87)" id="img-a0adbdd7-26">
          <path fill="none" d="M-110.74,0 L 110.74 0" class="primitive"/>
        </g>
        <g transform="translate(130.44,29.77)" id="img-a0adbdd7-27">
          <path fill="none" d="M-110.74,0 L 110.74 0" class="primitive"/>
        </g>
      </g>
      <g class="guide xgridlines yfixed" stroke-dasharray="none" stroke-width="0.2" stroke="#FFDFDF" id="img-a0adbdd7-28">
        <g transform="translate(21.7,31.29)" id="img-a0adbdd7-29">
          <path fill="none" d="M0,-30.58 L 0 30.58" class="primitive"/>
        </g>
        <g transform="translate(65.2,31.29)" id="img-a0adbdd7-30">
          <path fill="none" d="M0,-30.58 L 0 30.58" class="primitive"/>
        </g>
        <g transform="translate(108.69,31.29)" id="img-a0adbdd7-31">
          <path fill="none" d="M0,-30.58 L 0 30.58" class="primitive"/>
        </g>
        <g transform="translate(152.18,31.29)" id="img-a0adbdd7-32">
          <path fill="none" d="M0,-30.58 L 0 30.58" class="primitive"/>
        </g>
        <g transform="translate(195.68,31.29)" id="img-a0adbdd7-33">
          <path fill="none" d="M0,-30.58 L 0 30.58" class="primitive"/>
        </g>
        <g transform="translate(239.17,31.29)" id="img-a0adbdd7-34">
          <path fill="none" d="M0,-30.58 L 0 30.58" class="primitive"/>
        </g>
      </g>
      <g class="plotpanel" id="img-a0adbdd7-35">
        <metadata>
          <boundingbox value="19.70055555555556mm 0.7055555555555555mm 221.4738888888889mm 61.16055555555556mm"/>
          <unitbox value="-22.99126587355315 982980.0778931665 2545.9825317471063 -1.016211005786333e6"/>
        </metadata>
        <g class="geometry" stroke="#000000" stroke-opacity="0.000" fill="#4C404B" font-size="2.82" font-family="'PT Sans Caption','Helvetica Neue','Helvetica',sans-serif" id="img-a0adbdd7-36">
          <g class="marker" id="img-a0adbdd7-37">
            <g transform="translate(173.04,37.85)" id="img-a0adbdd7-38">
              <g class="primitive">
                <text text-anchor="middle" dy="-0em" transform="translate(0,-1.9)">Si</text>
              </g>
            </g>
            <g transform="translate(173.04,16.19)" id="img-a0adbdd7-39">
              <g class="primitive">
                <text text-anchor="middle" dy="-0em" transform="translate(0,-1.9)">Si</text>
              </g>
            </g>
            <g transform="translate(181.22,59.49)" id="img-a0adbdd7-40">
              <g class="primitive">
                <text text-anchor="middle" dy="-0em" transform="translate(0,-1.9)"></text>
              </g>
            </g>
            <g transform="translate(45.83,40.25)" id="img-a0adbdd7-41">
              <g class="primitive">
                <text text-anchor="middle" dy="-0em" transform="translate(0,-1.9)">C</text>
              </g>
            </g>
            <g transform="translate(34.19,59.87)" id="img-a0adbdd7-42">
              <g class="primitive">
                <text text-anchor="middle" dy="-0em" transform="translate(0,-1.9)"></text>
              </g>
            </g>
            <g transform="translate(29.34,59.86)" id="img-a0adbdd7-43">
              <g class="primitive">
                <text text-anchor="middle" dy="-0em" transform="translate(0,-1.9)">Si</text>
              </g>
            </g>
            <g transform="translate(29.34,59.86)" id="img-a0adbdd7-44">
              <g class="primitive">
                <text text-anchor="middle" dy="-0em" transform="translate(0,-1.9)">Si</text>
              </g>
            </g>
            <g transform="translate(151.01,32.63)" id="img-a0adbdd7-45">
              <g class="primitive">
                <text text-anchor="middle" dy="-0em" transform="translate(0,-1.9)">Al</text>
              </g>
            </g>
            <g transform="translate(151.01,5.81)" id="img-a0adbdd7-46">
              <g class="primitive">
                <text text-anchor="middle" dy="-0em" transform="translate(0,-1.9)">Al</text>
              </g>
            </g>
            <g transform="translate(27.33,59.82)" id="img-a0adbdd7-47">
              <g class="primitive">
                <text text-anchor="middle" dy="-0em" transform="translate(0,-1.9)">Al</text>
              </g>
            </g>
            <g transform="translate(27.33,59.78)" id="img-a0adbdd7-48">
              <g class="primitive">
                <text text-anchor="middle" dy="-0em" transform="translate(0,-1.9)">Al</text>
              </g>
            </g>
            <g transform="translate(67.36,50.31)" id="img-a0adbdd7-49">
              <g class="primitive">
                <text text-anchor="middle" dy="-0em" transform="translate(0,-1.9)">O</text>
              </g>
            </g>
            <g transform="translate(67.36,40.83)" id="img-a0adbdd7-50">
              <g class="primitive">
                <text text-anchor="middle" dy="-0em" transform="translate(0,-1.9)">O</text>
              </g>
            </g>
          </g>
        </g>
        <g class="geometry" id="img-a0adbdd7-51">
          <g stroke-width="0.3" id="img-a0adbdd7-52">
            <g class="color_RGBA{Float32}(0.5019608f0,0.5019608f0,0.5019608f0,1.0f0)" fill-opacity="1" stroke="#FFFFFF" fill="#808080" id="img-a0adbdd7-53">
              <g class="marker" id="img-a0adbdd7-54">
                <g transform="translate(67.36,40.83)" id="img-a0adbdd7-55">
                  <circle cx="0" cy="0" r="0.9" class="primitive"/>
                </g>
              </g>
            </g>
            <g class="color_RGBA{Float32}(0.5019608f0,0.5019608f0,0.5019608f0,1.0f0)" fill-opacity="1" stroke="#FFFFFF" fill="#808080" id="img-a0adbdd7-56">
              <g class="marker" id="img-a0adbdd7-57">
                <g transform="translate(67.36,50.31)" id="img-a0adbdd7-58">
                  <circle cx="0" cy="0" r="0.9" class="primitive"/>
                </g>
              </g>
            </g>
            <g class="color_RGBA{Float32}(0.5019608f0,0.5019608f0,0.5019608f0,1.0f0)" fill-opacity="1" stroke="#FFFFFF" fill="#808080" id="img-a0adbdd7-59">
              <g class="marker" id="img-a0adbdd7-60">
                <g transform="translate(27.33,59.78)" id="img-a0adbdd7-61">
                  <circle cx="0" cy="0" r="0.9" class="primitive"/>
                </g>
              </g>
            </g>
            <g class="color_RGBA{Float32}(0.5019608f0,0.5019608f0,0.5019608f0,1.0f0)" fill-opacity="1" stroke="#FFFFFF" fill="#808080" id="img-a0adbdd7-62">
              <g class="marker" id="img-a0adbdd7-63">
                <g transform="translate(27.33,59.82)" id="img-a0adbdd7-64">
                  <circle cx="0" cy="0" r="0.9" class="primitive"/>
                </g>
              </g>
            </g>
            <g class="color_RGBA{Float32}(0.5019608f0,0.5019608f0,0.5019608f0,1.0f0)" fill-opacity="1" stroke="#FFFFFF" fill="#808080" id="img-a0adbdd7-65">
              <g class="marker" id="img-a0adbdd7-66">
                <g transform="translate(151.01,5.81)" id="img-a0adbdd7-67">
                  <circle cx="0" cy="0" r="0.9" class="primitive"/>
                </g>
              </g>
            </g>
            <g class="color_RGBA{Float32}(0.5019608f0,0.5019608f0,0.5019608f0,1.0f0)" fill-opacity="1" stroke="#FFFFFF" fill="#808080" id="img-a0adbdd7-68">
              <g class="marker" id="img-a0adbdd7-69">
                <g transform="translate(151.01,32.63)" id="img-a0adbdd7-70">
                  <circle cx="0" cy="0" r="0.9" class="primitive"/>
                </g>
              </g>
            </g>
            <g class="color_RGBA{Float32}(0.5019608f0,0.5019608f0,0.5019608f0,1.0f0)" fill-opacity="1" stroke="#FFFFFF" fill="#808080" id="img-a0adbdd7-71">
              <g class="marker" id="img-a0adbdd7-72">
                <g transform="translate(29.34,59.86)" id="img-a0adbdd7-73">
                  <circle cx="0" cy="0" r="0.9" class="primitive"/>
                </g>
              </g>
            </g>
            <g class="color_RGBA{Float32}(0.5019608f0,0.5019608f0,0.5019608f0,1.0f0)" fill-opacity="1" stroke="#FFFFFF" fill="#808080" id="img-a0adbdd7-74">
              <g class="marker" id="img-a0adbdd7-75">
                <g transform="translate(29.34,59.86)" id="img-a0adbdd7-76">
                  <circle cx="0" cy="0" r="0.9" class="primitive"/>
                </g>
              </g>
            </g>
            <g class="color_RGBA{Float32}(0.5019608f0,0.5019608f0,0.5019608f0,1.0f0)" fill-opacity="1" stroke="#FFFFFF" fill="#808080" id="img-a0adbdd7-77">
              <g class="marker" id="img-a0adbdd7-78">
                <g transform="translate(34.19,59.87)" id="img-a0adbdd7-79">
                  <circle cx="0" cy="0" r="0.9" class="primitive"/>
                </g>
              </g>
            </g>
            <g class="color_RGBA{Float32}(0.5019608f0,0.5019608f0,0.5019608f0,1.0f0)" fill-opacity="1" stroke="#FFFFFF" fill="#808080" id="img-a0adbdd7-80">
              <g class="marker" id="img-a0adbdd7-81">
                <g transform="translate(45.83,40.25)" id="img-a0adbdd7-82">
                  <circle cx="0" cy="0" r="0.9" class="primitive"/>
                </g>
              </g>
            </g>
            <g class="color_RGBA{Float32}(0.5019608f0,0.5019608f0,0.5019608f0,1.0f0)" fill-opacity="1" stroke="#FFFFFF" fill="#808080" id="img-a0adbdd7-83">
              <g class="marker" id="img-a0adbdd7-84">
                <g transform="translate(181.22,59.49)" id="img-a0adbdd7-85">
                  <circle cx="0" cy="0" r="0.9" class="primitive"/>
                </g>
              </g>
            </g>
            <g class="color_RGBA{Float32}(0.5019608f0,0.5019608f0,0.5019608f0,1.0f0)" fill-opacity="1" stroke="#FFFFFF" fill="#808080" id="img-a0adbdd7-86">
              <g class="marker" id="img-a0adbdd7-87">
                <g transform="translate(173.04,16.19)" id="img-a0adbdd7-88">
                  <circle cx="0" cy="0" r="0.9" class="primitive"/>
                </g>
              </g>
            </g>
            <g class="color_RGBA{Float32}(0.5019608f0,0.5019608f0,0.5019608f0,1.0f0)" fill-opacity="1" stroke="#FFFFFF" fill="#808080" id="img-a0adbdd7-89">
              <g class="marker" id="img-a0adbdd7-90">
                <g transform="translate(173.04,37.85)" id="img-a0adbdd7-91">
                  <circle cx="0" cy="0" r="0.9" class="primitive"/>
                </g>
              </g>
            </g>
          </g>
        </g>
        <g class="geometry" id="img-a0adbdd7-92">
          <g stroke-dasharray="none" stroke-width="0.3" id="img-a0adbdd7-93">
            <g transform="translate(173.04,48.86)" id="img-a0adbdd7-94" stroke="#808080" class="color_RGBA{Float32}(0.5019608f0,0.5019608f0,0.5019608f0,1.0f0)">
              <path fill="none" d="M0,-11.01 L 0 11.01" class="primitive"/>
            </g>
            <g transform="translate(173.04,38.03)" id="img-a0adbdd7-95" stroke="#808080" class="color_RGBA{Float32}(0.5019608f0,0.5019608f0,0.5019608f0,1.0f0)">
              <path fill="none" d="M0,-21.84 L 0 21.84" class="primitive"/>
            </g>
            <g transform="translate(181.22,59.68)" id="img-a0adbdd7-96" stroke="#808080" class="color_RGBA{Float32}(0.5019608f0,0.5019608f0,0.5019608f0,1.0f0)">
              <path fill="none" d="M0,-0.19 L 0 0.19" class="primitive"/>
            </g>
            <g transform="translate(45.83,50.06)" id="img-a0adbdd7-97" stroke="#808080" class="color_RGBA{Float32}(0.5019608f0,0.5019608f0,0.5019608f0,1.0f0)">
              <path fill="none" d="M0,-9.81 L 0 9.81" class="primitive"/>
            </g>
            <g transform="translate(34.19,59.87)" id="img-a0adbdd7-98" stroke="#808080" class="color_RGBA{Float32}(0.5019608f0,0.5019608f0,0.5019608f0,1.0f0)">
              <path fill="none" d="M0,-0 L 0 0" class="primitive"/>
            </g>
            <g transform="translate(29.34,59.86)" id="img-a0adbdd7-99" stroke="#808080" class="color_RGBA{Float32}(0.5019608f0,0.5019608f0,0.5019608f0,1.0f0)">
              <path fill="none" d="M0,-0 L 0 0" class="primitive"/>
            </g>
            <g transform="translate(29.34,59.86)" id="img-a0adbdd7-100" stroke="#808080" class="color_RGBA{Float32}(0.5019608f0,0.5019608f0,0.5019608f0,1.0f0)">
              <path fill="none" d="M0,-0 L 0 0" class="primitive"/>
            </g>
            <g transform="translate(151.01,46.25)" id="img-a0adbdd7-101" stroke="#808080" class="color_RGBA{Float32}(0.5019608f0,0.5019608f0,0.5019608f0,1.0f0)">
              <path fill="none" d="M0,-13.62 L 0 13.62" class="primitive"/>
            </g>
            <g transform="translate(151.01,32.84)" id="img-a0adbdd7-102" stroke="#808080" class="color_RGBA{Float32}(0.5019608f0,0.5019608f0,0.5019608f0,1.0f0)">
              <path fill="none" d="M0,-27.03 L 0 27.03" class="primitive"/>
            </g>
            <g transform="translate(27.33,59.84)" id="img-a0adbdd7-103" stroke="#808080" class="color_RGBA{Float32}(0.5019608f0,0.5019608f0,0.5019608f0,1.0f0)">
              <path fill="none" d="M0,-0.02 L 0 0.02" class="primitive"/>
            </g>
            <g transform="translate(27.33,59.82)" id="img-a0adbdd7-104" stroke="#808080" class="color_RGBA{Float32}(0.5019608f0,0.5019608f0,0.5019608f0,1.0f0)">
              <path fill="none" d="M0,-0.04 L 0 0.04" class="primitive"/>
            </g>
            <g transform="translate(67.36,55.09)" id="img-a0adbdd7-105" stroke="#808080" class="color_RGBA{Float32}(0.5019608f0,0.5019608f0,0.5019608f0,1.0f0)">
              <path fill="none" d="M0,-4.78 L 0 4.78" class="primitive"/>
            </g>
            <g transform="translate(67.36,50.35)" id="img-a0adbdd7-106" stroke="#808080" class="color_RGBA{Float32}(0.5019608f0,0.5019608f0,0.5019608f0,1.0f0)">
              <path fill="none" d="M0,-9.52 L 0 9.52" class="primitive"/>
            </g>
          </g>
        </g>
        <g stroke-width="0.3" fill="#000000" fill-opacity="0.000" class="geometry" id="img-a0adbdd7-107">
          <g class="color_RGB{Float64}(0.999999927656919,0.7391577461251295,0.0)" stroke-dasharray="none" stroke="#FFBC00" id="img-a0adbdd7-108">
            <g transform="translate(130.4,59.29)" id="img-a0adbdd7-109">
              <path fill="none" d="M-108.92,-5.6 L -108.48 -5.6 -108.48 -5.16 -108.05 -5.16 -108.05 -4.41 -107.61 -4.41 -107.61 -3.5 -107.18 -3.5 -107.18 -2.54 -106.74 -2.54 -106.74 -1.61 -106.31 -1.61 -106.31 -0.89 -105.87 -0.89 -105.87 -0.35 -105.44 -0.35 -105.44 0.02 -105 0.02 -105 0.27 -104.57 0.27 -104.57 0.41 -104.13 0.41 -104.13 0.49 -103.7 0.49 -103.7 0.53 -103.26 0.53 -103.26 0.55 -102.82 0.55 -102.82 0.56 -102.39 0.56 -102.39 0.57 -101.95 0.57 -101.95 0.57 -101.52 0.57 -101.52 0.57 -101.08 0.57 -101.08 0.57 -100.65 0.57 -100.65 0.58 -100.21 0.58 -100.21 0.58 -99.78 0.58 -99.78 0.58 -99.34 0.58 -99.34 0.58 -98.91 0.58 -98.91 0.58 -98.47 0.58 -98.47 0.58 -98.04 0.58 -98.04 0.58 -97.6 0.58 -97.6 0.58 -97.17 0.58 -97.17 0.57 -96.73 0.57 -96.73 0.58 -96.3 0.58 -96.3 0.58 -95.86 0.58 -95.86 0.58 -95.43 0.58 -95.43 0.57 -94.99 0.57 -94.99 0.57 -94.56 0.57 -94.56 0.57 -94.12 0.57 -94.12 0.56 -93.68 0.56 -93.68 0.55 -93.25 0.55 -93.25 0.54 -92.81 0.54 -92.81 0.52 -92.38 0.52 -92.38 0.48 -91.94 0.48 -91.94 0.43 -91.51 0.43 -91.51 0.35 -91.07 0.35 -91.07 0.22 -90.64 0.22 -90.64 0.03 -90.2 0.03 -90.2 -0.27 -89.77 -0.27 -89.77 -0.75 -89.33 -0.75 -89.33 -1.46 -88.9 -1.46 -88.9 -2.45 -88.46 -2.45 -88.46 -3.8 -88.03 -3.8 -88.03 -5.54 -87.59 -5.54 -87.59 -7.63 -87.16 -7.63 -87.16 -10.04 -86.72 -10.04 -86.72 -12.55 -86.29 -12.55 -86.29 -14.98 -85.85 -14.98 -85.85 -17.05 -85.42 -17.05 -85.42 -18.47 -84.98 -18.47 -84.98 -19.04 -84.54 -19.04 -84.54 -18.72 -84.11 -18.72 -84.11 -17.53 -83.67 -17.53 -83.67 -15.64 -83.24 -15.64 -83.24 -13.26 -82.8 -13.26 -82.8 -10.63 -82.37 -10.63 -82.37 -8.1 -81.93 -8.1 -81.93 -5.85 -81.5 -5.85 -81.5 -3.95 -81.06 -3.95 -81.06 -2.47 -80.63 -2.47 -80.63 -1.39 -80.19 -1.39 -80.19 -0.63 -79.76 -0.63 -79.76 -0.15 -79.32 -0.15 -79.32 0.16 -78.89 0.16 -78.89 0.34 -78.45 0.34 -78.45 0.44 -78.02 0.44 -78.02 0.49 -77.58 0.49 -77.58 0.51 -77.15 0.51 -77.15 0.53 -76.71 0.53 -76.71 0.54 -76.28 0.54 -76.28 0.54 -75.84 0.54 -75.84 0.54 -75.4 0.54 -75.4 0.54 -74.97 0.54 -74.97 0.55 -74.53 0.55 -74.53 0.55 -74.1 0.55 -74.1 0.55 -73.66 0.55 -73.66 0.55 -73.23 0.55 -73.23 0.55 -72.79 0.55 -72.79 0.55 -72.36 0.55 -72.36 0.55 -71.92 0.55 -71.92 0.55 -71.49 0.55 -71.49 0.55 -71.05 0.55 -71.05 0.54 -70.62 0.54 -70.62 0.54 -70.18 0.54 -70.18 0.54 -69.75 0.54 -69.75 0.53 -69.31 0.53 -69.31 0.52 -68.88 0.52 -68.88 0.52 -68.44 0.52 -68.44 0.51 -68.01 0.51 -68.01 0.5 -67.57 0.5 -67.57 0.49 -67.14 0.49 -67.14 0.48 -66.7 0.48 -66.7 0.47 -66.26 0.47 -66.26 0.46 -65.83 0.46 -65.83 0.45 -65.39 0.45 -65.39 0.45 -64.96 0.45 -64.96 0.45 -64.52 0.45 -64.52 0.45 -64.09 0.45 -64.09 0.45 -63.65 0.45 -63.65 0.46 -63.22 0.46 -63.22 0.46 -62.78 0.46 -62.78 0.47 -62.35 0.47 -62.35 0.47 -61.91 0.47 -61.91 0.47 -61.48 0.47 -61.48 0.48 -61.04 0.48 -61.04 0.49 -60.61 0.49 -60.61 0.5 -60.17 0.5 -60.17 0.51 -59.74 0.51 -59.74 0.52 -59.3 0.52 -59.3 0.53 -58.87 0.53 -58.87 0.55 -58.43 0.55 -58.43 0.55 -58 0.55 -58 0.55 -57.56 0.55 -57.56 0.55 -57.12 0.55 -57.12 0.56 -56.69 0.56 -56.69 0.56 -56.25 0.56 -56.25 0.56 -55.82 0.56 -55.82 0.56 -55.38 0.56 -55.38 0.56 -54.95 0.56 -54.95 0.56 -54.51 0.56 -54.51 0.56 -54.08 0.56 -54.08 0.55 -53.64 0.55 -53.64 0.55 -53.21 0.55 -53.21 0.55 -52.77 0.55 -52.77 0.55 -52.34 0.55 -52.34 0.54 -51.9 0.54 -51.9 0.54 -51.47 0.54 -51.47 0.54 -51.03 0.54 -51.03 0.54 -50.6 0.54 -50.6 0.54 -50.16 0.54 -50.16 0.54 -49.73 0.54 -49.73 0.54 -49.29 0.54 -49.29 0.54 -48.86 0.54 -48.86 0.54 -48.42 0.54 -48.42 0.54 -47.98 0.54 -47.98 0.54 -47.55 0.54 -47.55 0.54 -47.11 0.54 -47.11 0.53 -46.68 0.53 -46.68 0.53 -46.24 0.53 -46.24 0.53 -45.81 0.53 -45.81 0.53 -45.37 0.53 -45.37 0.54 -44.94 0.54 -44.94 0.53 -44.5 0.53 -44.5 0.53 -44.07 0.53 -44.07 0.53 -43.63 0.53 -43.63 0.53 -43.2 0.53 -43.2 0.53 -42.76 0.53 -42.76 0.53 -42.33 0.53 -42.33 0.53 -41.89 0.53 -41.89 0.53 -41.46 0.53 -41.46 0.53 -41.02 0.53 -41.02 0.53 -40.59 0.53 -40.59 0.53 -40.15 0.53 -40.15 0.53 -39.72 0.53 -39.72 0.53 -39.28 0.53 -39.28 0.52 -38.84 0.52 -38.84 0.52 -38.41 0.52 -38.41 0.52 -37.97 0.52 -37.97 0.52 -37.54 0.52 -37.54 0.52 -37.1 0.52 -37.1 0.52 -36.67 0.52 -36.67 0.52 -36.23 0.52 -36.23 0.52 -35.8 0.52 -35.8 0.52 -35.36 0.52 -35.36 0.52 -34.93 0.52 -34.93 0.52 -34.49 0.52 -34.49 0.52 -34.06 0.52 -34.06 0.52 -33.62 0.52 -33.62 0.52 -33.19 0.52 -33.19 0.51 -32.75 0.51 -32.75 0.51 -32.32 0.51 -32.32 0.51 -31.88 0.51 -31.88 0.51 -31.45 0.51 -31.45 0.51 -31.01 0.51 -31.01 0.51 -30.58 0.51 -30.58 0.51 -30.14 0.51 -30.14 0.51 -29.7 0.51 -29.7 0.51 -29.27 0.51 -29.27 0.51 -28.83 0.51 -28.83 0.51 -28.4 0.51 -28.4 0.51 -27.96 0.51 -27.96 0.51 -27.53 0.51 -27.53 0.5 -27.09 0.5 -27.09 0.5 -26.66 0.5 -26.66 0.5 -26.22 0.5 -26.22 0.5 -25.79 0.5 -25.79 0.5 -25.35 0.5 -25.35 0.5 -24.92 0.5 -24.92 0.5 -24.48 0.5 -24.48 0.5 -24.05 0.5 -24.05 0.5 -23.61 0.5 -23.61 0.5 -23.18 0.5 -23.18 0.5 -22.74 0.5 -22.74 0.49 -22.31 0.49 -22.31 0.49 -21.87 0.49 -21.87 0.49 -21.44 0.49 -21.44 0.49 -21 0.49 -21 0.49 -20.56 0.49 -20.56 0.49 -20.13 0.49 -20.13 0.49 -19.69 0.49 -19.69 0.49 -19.26 0.49 -19.26 0.49 -18.82 0.49 -18.82 0.49 -18.39 0.49 -18.39 0.49 -17.95 0.49 -17.95 0.49 -17.52 0.49 -17.52 0.49 -17.08 0.49 -17.08 0.49 -16.65 0.49 -16.65 0.49 -16.21 0.49 -16.21 0.49 -15.78 0.49 -15.78 0.49 -15.34 0.49 -15.34 0.49 -14.91 0.49 -14.91 0.49 -14.47 0.49 -14.47 0.49 -14.04 0.49 -14.04 0.49 -13.6 0.49 -13.6 0.49 -13.17 0.49 -13.17 0.49 -12.73 0.49 -12.73 0.49 -12.3 0.49 -12.3 0.49 -11.86 0.49 -11.86 0.49 -11.42 0.49 -11.42 0.49 -10.99 0.49 -10.99 0.49 -10.55 0.49 -10.55 0.49 -10.12 0.49 -10.12 0.49 -9.68 0.49 -9.68 0.49 -9.25 0.49 -9.25 0.49 -8.81 0.49 -8.81 0.49 -8.38 0.49 -8.38 0.49 -7.94 0.49 -7.94 0.49 -7.51 0.49 -7.51 0.49 -7.07 0.49 -7.07 0.49 -6.64 0.49 -6.64 0.49 -6.2 0.49 -6.2 0.49 -5.77 0.49 -5.77 0.49 -5.33 0.49 -5.33 0.49 -4.9 0.49 -4.9 0.49 -4.46 0.49 -4.46 0.49 -4.03 0.49 -4.03 0.49 -3.59 0.49 -3.59 0.49 -3.16 0.49 -3.16 0.49 -2.72 0.49 -2.72 0.49 -2.28 0.49 -2.28 0.49 -1.85 0.49 -1.85 0.49 -1.41 0.49 -1.41 0.48 -0.98 0.48 -0.98 0.48 -0.54 0.48 -0.54 0.49 -0.11 0.49 -0.11 0.48 0.33 0.48 0.33 0.48 0.76 0.48 0.76 0.49 1.2 0.49 1.2 0.49 1.63 0.49 1.63 0.48 2.07 0.48 2.07 0.49 2.5 0.49 2.5 0.48 2.94 0.48 2.94 0.49 3.37 0.49 3.37 0.49 3.81 0.49 3.81 0.49 4.24 0.49 4.24 0.48 4.68 0.48 4.68 0.48 5.11 0.48 5.11 0.49 5.55 0.49 5.55 0.49 5.98 0.49 5.98 0.49 6.42 0.49 6.42 0.48 6.86 0.48 6.86 0.48 7.29 0.48 7.29 0.49 7.73 0.49 7.73 0.48 8.16 0.48 8.16 0.49 8.6 0.49 8.6 0.49 9.03 0.49 9.03 0.49 9.47 0.49 9.47 0.49 9.9 0.49 9.9 0.49 10.34 0.49 10.34 0.49 10.77 0.49 10.77 0.49 11.21 0.49 11.21 0.49 11.64 0.49 11.64 0.49 12.08 0.49 12.08 0.49 12.51 0.49 12.51 0.49 12.95 0.49 12.95 0.49 13.38 0.49 13.38 0.49 13.82 0.49 13.82 0.48 14.25 0.48 14.25 0.49 14.69 0.49 14.69 0.49 15.12 0.49 15.12 0.49 15.56 0.49 15.56 0.49 16 0.49 16 0.49 16.43 0.49 16.43 0.49 16.87 0.49 16.87 0.48 17.3 0.48 17.3 0.49 17.74 0.49 17.74 0.49 18.17 0.49 18.17 0.49 18.61 0.49 18.61 0.49 19.04 0.49 19.04 0.49 19.48 0.49 19.48 0.49 19.91 0.49 19.91 0.49 20.35 0.49 20.35 0.49 20.78 0.49 20.78 0.49 21.22 0.49 21.22 0.49 21.65 0.49 21.65 0.49 22.09 0.49 22.09 0.49 22.52 0.49 22.52 0.49 22.96 0.49 22.96 0.49 23.39 0.49 23.39 0.49 23.83 0.49 23.83 0.49 24.26 0.49 24.26 0.49 24.7 0.49 24.7 0.49 25.14 0.49 25.14 0.49 25.57 0.49 25.57 0.5 26.01 0.5 26.01 0.49 26.44 0.49 26.44 0.49 26.88 0.49 26.88 0.49 27.31 0.49 27.31 0.49 27.75 0.49 27.75 0.5 28.18 0.5 28.18 0.5 28.62 0.5 28.62 0.49 29.05 0.49 29.05 0.5 29.49 0.5 29.49 0.5 29.92 0.5 29.92 0.5 30.36 0.5 30.36 0.5 30.79 0.5 30.79 0.5 31.23 0.5 31.23 0.5 31.66 0.5 31.66 0.5 32.1 0.5 32.1 0.5 32.53 0.5 32.53 0.5 32.97 0.5 32.97 0.5 33.4 0.5 33.4 0.5 33.84 0.5 33.84 0.5 34.27 0.5 34.27 0.5 34.71 0.5 34.71 0.5 35.15 0.5 35.15 0.5 35.58 0.5 35.58 0.5 36.02 0.5 36.02 0.49 36.45 0.49 36.45 0.5 36.89 0.5 36.89 0.49 37.32 0.49 37.32 0.49 37.76 0.49 37.76 0.49 38.19 0.49 38.19 0.49 38.63 0.49 38.63 0.49 39.06 0.49 39.06 0.49 39.5 0.49 39.5 0.49 39.93 0.49 39.93 0.49 40.37 0.49 40.37 0.48 40.8 0.48 40.8 0.48 41.24 0.48 41.24 0.48 41.67 0.48 41.67 0.48 42.11 0.48 42.11 0.48 42.54 0.48 42.54 0.48 42.98 0.48 42.98 0.48 43.41 0.48 43.41 0.48 43.85 0.48 43.85 0.48 44.29 0.48 44.29 0.49 44.72 0.49 44.72 0.48 45.16 0.48 45.16 0.49 45.59 0.49 45.59 0.49 46.03 0.49 46.03 0.49 46.46 0.49 46.46 0.49 46.9 0.49 46.9 0.5 47.33 0.5 47.33 0.49 47.77 0.49 47.77 0.5 48.2 0.5 48.2 0.5 48.64 0.5 48.64 0.5 49.07 0.5 49.07 0.5 49.51 0.5 49.51 0.5 49.94 0.5 49.94 0.51 50.38 0.51 50.38 0.51 50.81 0.51 50.81 0.5 51.25 0.5 51.25 0.51 51.68 0.51 51.68 0.5 52.12 0.5 52.12 0.51 52.55 0.51 52.55 0.51 52.99 0.51 52.99 0.51 53.43 0.51 53.43 0.51 53.86 0.51 53.86 0.51 54.3 0.51 54.3 0.51 54.73 0.51 54.73 0.51 55.17 0.51 55.17 0.51 55.6 0.51 55.6 0.51 56.04 0.51 56.04 0.51 56.47 0.51 56.47 0.51 56.91 0.51 56.91 0.51 57.34 0.51 57.34 0.51 57.78 0.51 57.78 0.51 58.21 0.51 58.21 0.51 58.65 0.51 58.65 0.51 59.08 0.51 59.08 0.51 59.52 0.51 59.52 0.51 59.95 0.51 59.95 0.51 60.39 0.51 60.39 0.51 60.82 0.51 60.82 0.51 61.26 0.51 61.26 0.51 61.69 0.51 61.69 0.51 62.13 0.51 62.13 0.51 62.57 0.51 62.57 0.51 63 0.51 63 0.51 63.44 0.51 63.44 0.51 63.87 0.51 63.87 0.51 64.31 0.51 64.31 0.51 64.74 0.51 64.74 0.51 65.18 0.51 65.18 0.51 65.61 0.51 65.61 0.51 66.05 0.51 66.05 0.51 66.48 0.51 66.48 0.51 66.92 0.51 66.92 0.51 67.35 0.51 67.35 0.52 67.79 0.52 67.79 0.51 68.22 0.51 68.22 0.51 68.66 0.51 68.66 0.52 69.09 0.52 69.09 0.51 69.53 0.51 69.53 0.51 69.96 0.51 69.96 0.52 70.4 0.52 70.4 0.52 70.83 0.52 70.83 0.52 71.27 0.52 71.27 0.52 71.71 0.52 71.71 0.51 72.14 0.51 72.14 0.52 72.58 0.52 72.58 0.52 73.01 0.52 73.01 0.52 73.45 0.52 73.45 0.52 73.88 0.52 73.88 0.52 74.32 0.52 74.32 0.52 74.75 0.52 74.75 0.52 75.19 0.52 75.19 0.52 75.62 0.52 75.62 0.52 76.06 0.52 76.06 0.52 76.49 0.52 76.49 0.52 76.93 0.52 76.93 0.52 77.36 0.52 77.36 0.52 77.8 0.52 77.8 0.52 78.23 0.52 78.23 0.52 78.67 0.52 78.67 0.52 79.1 0.52 79.1 0.52 79.54 0.52 79.54 0.52 79.97 0.52 79.97 0.52 80.41 0.52 80.41 0.52 80.85 0.52 80.85 0.52 81.28 0.52 81.28 0.52 81.72 0.52 81.72 0.52 82.15 0.52 82.15 0.52 82.59 0.52 82.59 0.52 83.02 0.52 83.02 0.52 83.46 0.52 83.46 0.52 83.89 0.52 83.89 0.52 84.33 0.52 84.33 0.52 84.76 0.52 84.76 0.52 85.2 0.52 85.2 0.52 85.63 0.52 85.63 0.52 86.07 0.52 86.07 0.52 86.5 0.52 86.5 0.52 86.94 0.52 86.94 0.52 87.37 0.52 87.37 0.52 87.81 0.52 87.81 0.52 88.24 0.52 88.24 0.52 88.68 0.52 88.68 0.52 89.11 0.52 89.11 0.52 89.55 0.52 89.55 0.52 89.99 0.52 89.99 0.52 90.42 0.52 90.42 0.52 90.86 0.52 90.86 0.52 91.29 0.52 91.29 0.52 91.73 0.52 91.73 0.52 92.16 0.52 92.16 0.52 92.6 0.52 92.6 0.51 93.03 0.51 93.03 0.51 93.47 0.51 93.47 0.52 93.9 0.52 93.9 0.52 94.34 0.52 94.34 0.52 94.77 0.52 94.77 0.52 95.21 0.52 95.21 0.52 95.64 0.52 95.64 0.52 96.08 0.52 96.08 0.52 96.51 0.52 96.51 0.52 96.95 0.52 96.95 0.52 97.38 0.52 97.38 0.52 97.82 0.52 97.82 0.52 98.25 0.52 98.25 0.53 98.69 0.53 98.69 0.53 99.13 0.53 99.13 0.52 99.56 0.52 99.56 0.53 100 0.53 100 0.53 100.43 0.53 100.43 0.53 100.87 0.53 100.87 0.53 101.3 0.53 101.3 0.53 101.74 0.53 101.74 0.53 102.17 0.53 102.17 0.53 102.61 0.53 102.61 0.53 103.04 0.53 103.04 0.53 103.48 0.53 103.48 0.53 103.91 0.53 103.91 0.53 104.35 0.53 104.35 0.53 104.78 0.53 104.78 0.53 105.22 0.53 105.22 0.53 105.65 0.53 105.65 0.53 106.09 0.53 106.09 0.53 106.52 0.53 106.52 0.53 106.96 0.53 106.96 0.53 107.39 0.53 107.39 0.52 107.83 0.52 107.83 0.53 108.27 0.53 108.27 0.53 108.7 0.53 108.7 0.53" class="primitive"/>
            </g>
          </g>
        </g>
        <g stroke-width="0.3" fill="#000000" fill-opacity="0.000" class="geometry" id="img-a0adbdd7-110">
          <g class="color_RGB{Float64}(9.080281391371514e-7,0.7349742009374827,1.0)" stroke-dasharray="none" stroke="#00BBFF" id="img-a0adbdd7-111">
            <g transform="translate(130.4,57.02)" id="img-a0adbdd7-112">
              <path fill="none" d="M-108.92,-28.12 L -108.48 -28.12 -108.48 -25.96 -108.05 -25.96 -108.05 -22.34 -107.61 -22.34 -107.61 -17.61 -107.18 -17.61 -107.18 -12.72 -106.74 -12.72 -106.74 -8.24 -106.31 -8.24 -106.31 -4.51 -105.87 -4.51 -105.87 -1.75 -105.44 -1.75 -105.44 0.16 -105 0.16 -105 1.35 -104.57 1.35 -104.57 2.07 -104.13 2.07 -104.13 2.46 -103.7 2.46 -103.7 2.67 -103.26 2.67 -103.26 2.76 -102.82 2.76 -102.82 2.81 -102.39 2.81 -102.39 2.83 -101.95 2.83 -101.95 2.84 -101.52 2.84 -101.52 2.84 -101.08 2.84 -101.08 2.84 -100.65 2.84 -100.65 2.84 -100.21 2.84 -100.21 2.85 -99.78 2.85 -99.78 2.85 -99.34 2.85 -99.34 2.85 -98.91 2.85 -98.91 2.85 -98.47 2.85 -98.47 2.85 -98.04 2.85 -98.04 2.8 -97.6 2.8 -97.6 2.77 -97.17 2.77 -97.17 2.78 -96.73 2.78 -96.73 2.78 -96.3 2.78 -96.3 2.78 -95.86 2.78 -95.86 2.78 -95.43 2.78 -95.43 2.78 -94.99 2.78 -94.99 2.78 -94.56 2.78 -94.56 2.78 -94.12 2.78 -94.12 2.78 -93.68 2.78 -93.68 2.78 -93.25 2.78 -93.25 2.78 -92.81 2.78 -92.81 2.78 -92.38 2.78 -92.38 2.78 -91.94 2.78 -91.94 2.77 -91.51 2.77 -91.51 2.77 -91.07 2.77 -91.07 2.76 -90.64 2.76 -90.64 2.75 -90.2 2.75 -90.2 2.74 -89.77 2.74 -89.77 2.71 -89.33 2.71 -89.33 2.69 -88.9 2.69 -88.9 2.64 -88.46 2.64 -88.46 2.59 -88.03 2.59 -88.03 2.52 -87.59 2.52 -87.59 2.44 -87.16 2.44 -87.16 2.35 -86.72 2.35 -86.72 2.26 -86.29 2.26 -86.29 2.17 -85.85 2.17 -85.85 2.09 -85.42 2.09 -85.42 2.04 -84.98 2.04 -84.98 2.02 -84.54 2.02 -84.54 2.03 -84.11 2.03 -84.11 2.07 -83.67 2.07 -83.67 2.15 -83.24 2.15 -83.24 2.24 -82.8 2.24 -82.8 2.34 -82.37 2.34 -82.37 2.44 -81.93 2.44 -81.93 2.53 -81.5 2.53 -81.5 2.59 -81.06 2.59 -81.06 2.65 -80.63 2.65 -80.63 2.69 -80.19 2.69 -80.19 2.71 -79.76 2.71 -79.76 2.73 -79.32 2.73 -79.32 2.73 -78.89 2.73 -78.89 2.73 -78.45 2.73 -78.45 2.73 -78.02 2.73 -78.02 2.73 -77.58 2.73 -77.58 2.72 -77.15 2.72 -77.15 2.71 -76.71 2.71 -76.71 2.7 -76.28 2.7 -76.28 2.69 -75.84 2.69 -75.84 2.69 -75.4 2.69 -75.4 2.69 -74.97 2.69 -74.97 2.68 -74.53 2.68 -74.53 2.67 -74.1 2.67 -74.1 2.66 -73.66 2.66 -73.66 2.65 -73.23 2.65 -73.23 2.63 -72.79 2.63 -72.79 2.62 -72.36 2.62 -72.36 2.6 -71.92 2.6 -71.92 2.56 -71.49 2.56 -71.49 2.53 -71.05 2.53 -71.05 2.49 -70.62 2.49 -70.62 2.4 -70.18 2.4 -70.18 2.3 -69.75 2.3 -69.75 2.16 -69.31 2.16 -69.31 1.94 -68.88 1.94 -68.88 1.61 -68.44 1.61 -68.44 1.12 -68.01 1.12 -68.01 0.45 -67.57 0.45 -67.57 -0.47 -67.14 -0.47 -67.14 -1.66 -66.7 -1.66 -66.7 -3.24 -66.26 -3.24 -66.26 -5.08 -65.83 -5.08 -65.83 -7.19 -65.39 -7.19 -65.39 -9.44 -64.96 -9.44 -64.96 -11.62 -64.52 -11.62 -64.52 -13.6 -64.09 -13.6 -64.09 -15.12 -63.65 -15.12 -63.65 -16.06 -63.22 -16.06 -63.22 -16.19 -62.78 -16.19 -62.78 -15.69 -62.35 -15.69 -62.35 -14.45 -61.91 -14.45 -61.91 -12.6 -61.48 -12.6 -61.48 -10.43 -61.04 -10.43 -61.04 -8.12 -60.61 -8.12 -60.61 -5.81 -60.17 -5.81 -60.17 -3.71 -59.74 -3.71 -59.74 -2.01 -59.3 -2.01 -59.3 -0.59 -58.87 -0.59 -58.87 0.48 -58.43 0.48 -58.43 1.27 -58 1.27 -58 1.81 -57.56 1.81 -57.56 2.16 -57.12 2.16 -57.12 2.4 -56.69 2.4 -56.69 2.53 -56.25 2.53 -56.25 2.61 -55.82 2.61 -55.82 2.64 -55.38 2.64 -55.38 2.67 -54.95 2.67 -54.95 2.68 -54.51 2.68 -54.51 2.68 -54.08 2.68 -54.08 2.68 -53.64 2.68 -53.64 2.68 -53.21 2.68 -53.21 2.68 -52.77 2.68 -52.77 2.67 -52.34 2.67 -52.34 2.67 -51.9 2.67 -51.9 2.66 -51.47 2.66 -51.47 2.65 -51.03 2.65 -51.03 2.65 -50.6 2.65 -50.6 2.65 -50.16 2.65 -50.16 2.64 -49.73 2.64 -49.73 2.64 -49.29 2.64 -49.29 2.64 -48.86 2.64 -48.86 2.63 -48.42 2.63 -48.42 2.63 -47.98 2.63 -47.98 2.63 -47.55 2.63 -47.55 2.63 -47.11 2.63 -47.11 2.63 -46.68 2.63 -46.68 2.63 -46.24 2.63 -46.24 2.62 -45.81 2.62 -45.81 2.63 -45.37 2.63 -45.37 2.63 -44.94 2.63 -44.94 2.62 -44.5 2.62 -44.5 2.62 -44.07 2.62 -44.07 2.61 -43.63 2.61 -43.63 2.61 -43.2 2.61 -43.2 2.6 -42.76 2.6 -42.76 2.6 -42.33 2.6 -42.33 2.6 -41.89 2.6 -41.89 2.6 -41.46 2.6 -41.46 2.59 -41.02 2.59 -41.02 2.59 -40.59 2.59 -40.59 2.59 -40.15 2.59 -40.15 2.58 -39.72 2.58 -39.72 2.57 -39.28 2.57 -39.28 2.57 -38.84 2.57 -38.84 2.57 -38.41 2.57 -38.41 2.56 -37.97 2.56 -37.97 2.56 -37.54 2.56 -37.54 2.55 -37.1 2.55 -37.1 2.54 -36.67 2.54 -36.67 2.54 -36.23 2.54 -36.23 2.54 -35.8 2.54 -35.8 2.53 -35.36 2.53 -35.36 2.53 -34.93 2.53 -34.93 2.52 -34.49 2.52 -34.49 2.52 -34.06 2.52 -34.06 2.51 -33.62 2.51 -33.62 2.51 -33.19 2.51 -33.19 2.51 -32.75 2.51 -32.75 2.51 -32.32 2.51 -32.32 2.5 -31.88 2.5 -31.88 2.5 -31.45 2.5 -31.45 2.5 -31.01 2.5 -31.01 2.5 -30.58 2.5 -30.58 2.51 -30.14 2.51 -30.14 2.49 -29.7 2.49 -29.7 2.49 -29.27 2.49 -29.27 2.49 -28.83 2.49 -28.83 2.49 -28.4 2.49 -28.4 2.49 -27.96 2.49 -27.96 2.49 -27.53 2.49 -27.53 2.47 -27.09 2.47 -27.09 2.48 -26.66 2.48 -26.66 2.47 -26.22 2.47 -26.22 2.47 -25.79 2.47 -25.79 2.45 -25.35 2.45 -25.35 2.46 -24.92 2.46 -24.92 2.46 -24.48 2.46 -24.48 2.46 -24.05 2.46 -24.05 2.45 -23.61 2.45 -23.61 2.45 -23.18 2.45 -23.18 2.44 -22.74 2.44 -22.74 2.44 -22.31 2.44 -22.31 2.44 -21.87 2.44 -21.87 2.43 -21.44 2.43 -21.44 2.43 -21 2.43 -21 2.43 -20.56 2.43 -20.56 2.43 -20.13 2.43 -20.13 2.43 -19.69 2.43 -19.69 2.43 -19.26 2.43 -19.26 2.43 -18.82 2.43 -18.82 2.42 -18.39 2.42 -18.39 2.42 -17.95 2.42 -17.95 2.42 -17.52 2.42 -17.52 2.41 -17.08 2.41 -17.08 2.41 -16.65 2.41 -16.65 2.41 -16.21 2.41 -16.21 2.41 -15.78 2.41 -15.78 2.4 -15.34 2.4 -15.34 2.4 -14.91 2.4 -14.91 2.4 -14.47 2.4 -14.47 2.4 -14.04 2.4 -14.04 2.4 -13.6 2.4 -13.6 2.39 -13.17 2.39 -13.17 2.39 -12.73 2.39 -12.73 2.39 -12.3 2.39 -12.3 2.39 -11.86 2.39 -11.86 2.38 -11.42 2.38 -11.42 2.37 -10.99 2.37 -10.99 2.37 -10.55 2.37 -10.55 2.37 -10.12 2.37 -10.12 2.37 -9.68 2.37 -9.68 2.36 -9.25 2.36 -9.25 2.36 -8.81 2.36 -8.81 2.36 -8.38 2.36 -8.38 2.37 -7.94 2.37 -7.94 2.35 -7.51 2.35 -7.51 2.35 -7.07 2.35 -7.07 2.33 -6.64 2.33 -6.64 2.36 -6.2 2.36 -6.2 2.34 -5.77 2.34 -5.77 2.34 -5.33 2.34 -5.33 2.32 -4.9 2.32 -4.9 2.33 -4.46 2.33 -4.46 2.33 -4.03 2.33 -4.03 2.32 -3.59 2.32 -3.59 2.31 -3.16 2.31 -3.16 2.3 -2.72 2.3 -2.72 2.3 -2.28 2.3 -2.28 2.28 -1.85 2.28 -1.85 2.28 -1.41 2.28 -1.41 2.29 -0.98 2.29 -0.98 2.26 -0.54 2.26 -0.54 2.26 -0.11 2.26 -0.11 2.26 0.33 2.26 0.33 2.25 0.76 2.25 0.76 2.24 1.2 2.24 1.2 2.23 1.63 2.23 1.63 2.23 2.07 2.23 2.07 2.22 2.5 2.22 2.5 2.22 2.94 2.22 2.94 2.21 3.37 2.21 3.37 2.19 3.81 2.19 3.81 2.18 4.24 2.18 4.24 2.16 4.68 2.16 4.68 2.17 5.11 2.17 5.11 2.15 5.55 2.15 5.55 2.13 5.98 2.13 5.98 2.12 6.42 2.12 6.42 2.1 6.86 2.1 6.86 2.12 7.29 2.12 7.29 2.1 7.73 2.1 7.73 2.08 8.16 2.08 8.16 2.07 8.6 2.07 8.6 2.07 9.03 2.07 9.03 2.07 9.47 2.07 9.47 2.05 9.9 2.05 9.9 2.03 10.34 2.03 10.34 2 10.77 2 10.77 1.98 11.21 1.98 11.21 1.92 11.64 1.92 11.64 1.81 12.08 1.81 12.08 1.65 12.51 1.65 12.51 1.4 12.95 1.4 12.95 1.05 13.38 1.05 13.38 0.47 13.82 0.47 13.82 -0.34 14.25 -0.34 14.25 -1.47 14.69 -1.47 14.69 -2.95 15.12 -2.95 15.12 -4.92 15.56 -4.92 15.56 -7.4 16 -7.4 16 -10.5 16.43 -10.5 16.43 -14.19 16.87 -14.19 16.87 -18.46 17.3 -18.46 17.3 -23.14 17.74 -23.14 17.74 -28.22 18.17 -28.22 18.17 -33.28 18.61 -33.28 18.61 -38.31 19.04 -38.31 19.04 -42.89 19.48 -42.89 19.48 -46.71 19.91 -46.71 19.91 -49.49 20.35 -49.49 20.35 -51.2 20.78 -51.2 20.78 -51.59 21.22 -51.59 21.22 -50.81 21.65 -50.81 21.65 -48.59 22.09 -48.59 22.09 -45.52 22.52 -45.52 22.52 -41.32 22.96 -41.32 22.96 -36.69 23.39 -36.69 23.39 -31.8 23.83 -31.8 23.83 -26.82 24.26 -26.82 24.26 -22.04 24.7 -22.04 24.7 -17.62 25.14 -17.62 25.14 -13.71 25.57 -13.71 25.57 -10.29 26.01 -10.29 26.01 -7.51 26.44 -7.51 26.44 -5.2 26.88 -5.2 26.88 -3.39 27.31 -3.39 27.31 -2 27.75 -2 27.75 -0.89 28.18 -0.89 28.18 -0.09 28.62 -0.09 28.62 0.53 29.05 0.53 29.05 1.02 29.49 1.02 29.49 1.38 29.92 1.38 29.92 1.65 30.36 1.65 30.36 1.85 30.79 1.85 30.79 2.02 31.23 2.02 31.23 2.14 31.66 2.14 31.66 2.24 32.1 2.24 32.1 2.32 32.53 2.32 32.53 2.38 32.97 2.38 32.97 2.43 33.4 2.43 33.4 2.46 33.84 2.46 33.84 2.49 34.27 2.49 34.27 2.52 34.71 2.52 34.71 2.53 35.15 2.53 35.15 2.55 35.58 2.55 35.58 2.56 36.02 2.56 36.02 2.57 36.45 2.57 36.45 2.57 36.89 2.57 36.89 2.57 37.32 2.57 37.32 2.57 37.76 2.57 37.76 2.57 38.19 2.57 38.19 2.57 38.63 2.57 38.63 2.57 39.06 2.57 39.06 2.57 39.5 2.57 39.5 2.57 39.93 2.57 39.93 2.56 40.37 2.56 40.37 2.56 40.8 2.56 40.8 2.55 41.24 2.55 41.24 2.55 41.67 2.55 41.67 2.55 42.11 2.55 42.11 2.55 42.54 2.55 42.54 2.55 42.98 2.55 42.98 2.55 43.41 2.55 43.41 2.55 43.85 2.55 43.85 2.55 44.29 2.55 44.29 2.55 44.72 2.55 44.72 2.55 45.16 2.55 45.16 2.56 45.59 2.56 45.59 2.56 46.03 2.56 46.03 2.57 46.46 2.57 46.46 2.57 46.9 2.57 46.9 2.58 47.33 2.58 47.33 2.58 47.77 2.58 47.77 2.59 48.2 2.59 48.2 2.59 48.64 2.59 48.64 2.59 49.07 2.59 49.07 2.6 49.51 2.6 49.51 2.6 49.94 2.6 49.94 2.6 50.38 2.6 50.38 2.6 50.81 2.6 50.81 2.6 51.25 2.6 51.25 2.6 51.68 2.6 51.68 2.6 52.12 2.6 52.12 2.6 52.55 2.6 52.55 2.6 52.99 2.6 52.99 2.6 53.43 2.6 53.43 2.6 53.86 2.6 53.86 2.6 54.3 2.6 54.3 2.6 54.73 2.6 54.73 2.61 55.17 2.61 55.17 2.61 55.6 2.61 55.6 2.61 56.04 2.61 56.04 2.6 56.47 2.6 56.47 2.6 56.91 2.6 56.91 2.6 57.34 2.6 57.34 2.59 57.78 2.59 57.78 2.59 58.21 2.59 58.21 2.6 58.65 2.6 58.65 2.59 59.08 2.59 59.08 2.59 59.52 2.59 59.52 2.59 59.95 2.59 59.95 2.59 60.39 2.59 60.39 2.58 60.82 2.58 60.82 2.58 61.26 2.58 61.26 2.58 61.69 2.58 61.69 2.58 62.13 2.58 62.13 2.58 62.57 2.58 62.57 2.58 63 2.58 63 2.58 63.44 2.58 63.44 2.59 63.87 2.59 63.87 2.59 64.31 2.59 64.31 2.59 64.74 2.59 64.74 2.59 65.18 2.59 65.18 2.59 65.61 2.59 65.61 2.6 66.05 2.6 66.05 2.6 66.48 2.6 66.48 2.6 66.92 2.6 66.92 2.6 67.35 2.6 67.35 2.6 67.79 2.6 67.79 2.6 68.22 2.6 68.22 2.6 68.66 2.6 68.66 2.59 69.09 2.59 69.09 2.59 69.53 2.59 69.53 2.6 69.96 2.6 69.96 2.6 70.4 2.6 70.4 2.6 70.83 2.6 70.83 2.6 71.27 2.6 71.27 2.6 71.71 2.6 71.71 2.6 72.14 2.6 72.14 2.6 72.58 2.6 72.58 2.6 73.01 2.6 73.01 2.6 73.45 2.6 73.45 2.61 73.88 2.61 73.88 2.61 74.32 2.61 74.32 2.6 74.75 2.6 74.75 2.6 75.19 2.6 75.19 2.6 75.62 2.6 75.62 2.6 76.06 2.6 76.06 2.6 76.49 2.6 76.49 2.6 76.93 2.6 76.93 2.6 77.36 2.6 77.36 2.6 77.8 2.6 77.8 2.6 78.23 2.6 78.23 2.61 78.67 2.61 78.67 2.61 79.1 2.61 79.1 2.61 79.54 2.61 79.54 2.6 79.97 2.6 79.97 2.61 80.41 2.61 80.41 2.61 80.85 2.61 80.85 2.61 81.28 2.61 81.28 2.61 81.72 2.61 81.72 2.6 82.15 2.6 82.15 2.61 82.59 2.61 82.59 2.6 83.02 2.6 83.02 2.61 83.46 2.61 83.46 2.61 83.89 2.61 83.89 2.61 84.33 2.61 84.33 2.6 84.76 2.6 84.76 2.6 85.2 2.6 85.2 2.61 85.63 2.61 85.63 2.61 86.07 2.61 86.07 2.6 86.5 2.6 86.5 2.6 86.94 2.6 86.94 2.6 87.37 2.6 87.37 2.6 87.81 2.6 87.81 2.6 88.24 2.6 88.24 2.6 88.68 2.6 88.68 2.6 89.11 2.6 89.11 2.6 89.55 2.6 89.55 2.6 89.99 2.6 89.99 2.59 90.42 2.59 90.42 2.59 90.86 2.59 90.86 2.59 91.29 2.59 91.29 2.59 91.73 2.59 91.73 2.6 92.16 2.6 92.16 2.59 92.6 2.59 92.6 2.59 93.03 2.59 93.03 2.59 93.47 2.59 93.47 2.61 93.9 2.61 93.9 2.59 94.34 2.59 94.34 2.59 94.77 2.59 94.77 2.59 95.21 2.59 95.21 2.6 95.64 2.6 95.64 2.6 96.08 2.6 96.08 2.61 96.51 2.61 96.51 2.61 96.95 2.61 96.95 2.61 97.38 2.61 97.38 2.61 97.82 2.61 97.82 2.61 98.25 2.61 98.25 2.61 98.69 2.61 98.69 2.6 99.13 2.6 99.13 2.62 99.56 2.62 99.56 2.61 100 2.61 100 2.61 100.43 2.61 100.43 2.62 100.87 2.62 100.87 2.61 101.3 2.61 101.3 2.62 101.74 2.62 101.74 2.61 102.17 2.61 102.17 2.61 102.61 2.61 102.61 2.61 103.04 2.61 103.04 2.62 103.48 2.62 103.48 2.62 103.91 2.62 103.91 2.62 104.35 2.62 104.35 2.61 104.78 2.61 104.78 2.62 105.22 2.62 105.22 2.61 105.65 2.61 105.65 2.62 106.09 2.62 106.09 2.62 106.52 2.62 106.52 2.62 106.96 2.62 106.96 2.62 107.39 2.62 107.39 2.62 107.83 2.62 107.83 2.62 108.27 2.62 108.27 2.62 108.7 2.62 108.7 2.62" class="primitive"/>
            </g>
          </g>
        </g>
        <g stroke-width="0.3" fill="#000000" fill-opacity="0.000" class="geometry" id="img-a0adbdd7-113">
          <g class="color_RGB{Float64}(0.7186016914382806,8.086625054816313e-7,0.0097916074077615)" stroke-dasharray="none" stroke="#B70002" id="img-a0adbdd7-114">
            <g transform="translate(130.4,58.33)" id="img-a0adbdd7-115">
              <path fill="none" d="M-108.92,-19.07 L -108.48 -19.07 -108.48 -17.61 -108.05 -17.61 -108.05 -15.17 -107.61 -15.17 -107.61 -12.05 -107.18 -12.05 -107.18 -8.82 -106.74 -8.82 -106.74 -5.81 -106.31 -5.81 -106.31 -3.39 -105.87 -3.39 -105.87 -1.56 -105.44 -1.56 -105.44 -0.27 -105 -0.27 -105 0.53 -104.57 0.53 -104.57 1.01 -104.13 1.01 -104.13 1.28 -103.7 1.28 -103.7 1.42 -103.26 1.42 -103.26 1.48 -102.82 1.48 -102.82 1.51 -102.39 1.51 -102.39 1.52 -101.95 1.52 -101.95 1.52 -101.52 1.52 -101.52 1.53 -101.08 1.53 -101.08 1.53 -100.65 1.53 -100.65 1.53 -100.21 1.53 -100.21 1.53 -99.78 1.53 -99.78 1.53 -99.34 1.53 -99.34 1.53 -98.91 1.53 -98.91 1.53 -98.47 1.53 -98.47 1.53 -98.04 1.53 -98.04 1.49 -97.6 1.49 -97.6 1.48 -97.17 1.48 -97.17 1.49 -96.73 1.49 -96.73 1.5 -96.3 1.5 -96.3 1.51 -95.86 1.51 -95.86 1.51 -95.43 1.51 -95.43 1.51 -94.99 1.51 -94.99 1.51 -94.56 1.51 -94.56 1.51 -94.12 1.51 -94.12 1.51 -93.68 1.51 -93.68 1.51 -93.25 1.51 -93.25 1.51 -92.81 1.51 -92.81 1.51 -92.38 1.51 -92.38 1.51 -91.94 1.51 -91.94 1.51 -91.51 1.51 -91.51 1.51 -91.07 1.51 -91.07 1.51 -90.64 1.51 -90.64 1.5 -90.2 1.5 -90.2 1.5 -89.77 1.5 -89.77 1.49 -89.33 1.49 -89.33 1.48 -88.9 1.48 -88.9 1.46 -88.46 1.46 -88.46 1.45 -88.03 1.45 -88.03 1.42 -87.59 1.42 -87.59 1.39 -87.16 1.39 -87.16 1.36 -86.72 1.36 -86.72 1.33 -86.29 1.33 -86.29 1.29 -85.85 1.29 -85.85 1.27 -85.42 1.27 -85.42 1.25 -84.98 1.25 -84.98 1.24 -84.54 1.24 -84.54 1.25 -84.11 1.25 -84.11 1.26 -83.67 1.26 -83.67 1.29 -83.24 1.29 -83.24 1.33 -82.8 1.33 -82.8 1.36 -82.37 1.36 -82.37 1.39 -81.93 1.39 -81.93 1.42 -81.5 1.42 -81.5 1.45 -81.06 1.45 -81.06 1.47 -80.63 1.47 -80.63 1.48 -80.19 1.48 -80.19 1.49 -79.76 1.49 -79.76 1.5 -79.32 1.5 -79.32 1.5 -78.89 1.5 -78.89 1.5 -78.45 1.5 -78.45 1.5 -78.02 1.5 -78.02 1.5 -77.58 1.5 -77.58 1.5 -77.15 1.5 -77.15 1.5 -76.71 1.5 -76.71 1.5 -76.28 1.5 -76.28 1.5 -75.84 1.5 -75.84 1.5 -75.4 1.5 -75.4 1.5 -74.97 1.5 -74.97 1.5 -74.53 1.5 -74.53 1.5 -74.1 1.5 -74.1 1.5 -73.66 1.5 -73.66 1.5 -73.23 1.5 -73.23 1.49 -72.79 1.49 -72.79 1.49 -72.36 1.49 -72.36 1.49 -71.92 1.49 -71.92 1.5 -71.49 1.5 -71.49 1.49 -71.05 1.49 -71.05 1.49 -70.62 1.49 -70.62 1.49 -70.18 1.49 -70.18 1.48 -69.75 1.48 -69.75 1.49 -69.31 1.49 -69.31 1.48 -68.88 1.48 -68.88 1.48 -68.44 1.48 -68.44 1.48 -68.01 1.48 -68.01 1.47 -67.57 1.47 -67.57 1.46 -67.14 1.46 -67.14 1.46 -66.7 1.46 -66.7 1.45 -66.26 1.45 -66.26 1.45 -65.83 1.45 -65.83 1.44 -65.39 1.44 -65.39 1.42 -64.96 1.42 -64.96 1.41 -64.52 1.41 -64.52 1.41 -64.09 1.41 -64.09 1.4 -63.65 1.4 -63.65 1.4 -63.22 1.4 -63.22 1.4 -62.78 1.4 -62.78 1.4 -62.35 1.4 -62.35 1.4 -61.91 1.4 -61.91 1.41 -61.48 1.41 -61.48 1.41 -61.04 1.41 -61.04 1.42 -60.61 1.42 -60.61 1.43 -60.17 1.43 -60.17 1.44 -59.74 1.44 -59.74 1.44 -59.3 1.44 -59.3 1.44 -58.87 1.44 -58.87 1.45 -58.43 1.45 -58.43 1.44 -58 1.44 -58 1.45 -57.56 1.45 -57.56 1.44 -57.12 1.44 -57.12 1.44 -56.69 1.44 -56.69 1.44 -56.25 1.44 -56.25 1.44 -55.82 1.44 -55.82 1.43 -55.38 1.43 -55.38 1.43 -54.95 1.43 -54.95 1.43 -54.51 1.43 -54.51 1.42 -54.08 1.42 -54.08 1.42 -53.64 1.42 -53.64 1.43 -53.21 1.43 -53.21 1.42 -52.77 1.42 -52.77 1.42 -52.34 1.42 -52.34 1.41 -51.9 1.41 -51.9 1.41 -51.47 1.41 -51.47 1.41 -51.03 1.41 -51.03 1.41 -50.6 1.41 -50.6 1.4 -50.16 1.4 -50.16 1.4 -49.73 1.4 -49.73 1.4 -49.29 1.4 -49.29 1.4 -48.86 1.4 -48.86 1.39 -48.42 1.39 -48.42 1.39 -47.98 1.39 -47.98 1.39 -47.55 1.39 -47.55 1.39 -47.11 1.39 -47.11 1.38 -46.68 1.38 -46.68 1.38 -46.24 1.38 -46.24 1.38 -45.81 1.38 -45.81 1.38 -45.37 1.38 -45.37 1.38 -44.94 1.38 -44.94 1.38 -44.5 1.38 -44.5 1.37 -44.07 1.37 -44.07 1.37 -43.63 1.37 -43.63 1.37 -43.2 1.37 -43.2 1.37 -42.76 1.37 -42.76 1.37 -42.33 1.37 -42.33 1.35 -41.89 1.35 -41.89 1.36 -41.46 1.36 -41.46 1.37 -41.02 1.37 -41.02 1.36 -40.59 1.36 -40.59 1.35 -40.15 1.35 -40.15 1.35 -39.72 1.35 -39.72 1.35 -39.28 1.35 -39.28 1.35 -38.84 1.35 -38.84 1.35 -38.41 1.35 -38.41 1.34 -37.97 1.34 -37.97 1.34 -37.54 1.34 -37.54 1.34 -37.1 1.34 -37.1 1.33 -36.67 1.33 -36.67 1.33 -36.23 1.33 -36.23 1.33 -35.8 1.33 -35.8 1.34 -35.36 1.34 -35.36 1.33 -34.93 1.33 -34.93 1.33 -34.49 1.33 -34.49 1.33 -34.06 1.33 -34.06 1.33 -33.62 1.33 -33.62 1.32 -33.19 1.32 -33.19 1.31 -32.75 1.31 -32.75 1.32 -32.32 1.32 -32.32 1.32 -31.88 1.32 -31.88 1.33 -31.45 1.33 -31.45 1.32 -31.01 1.32 -31.01 1.32 -30.58 1.32 -30.58 1.32 -30.14 1.32 -30.14 1.32 -29.7 1.32 -29.7 1.31 -29.27 1.31 -29.27 1.32 -28.83 1.32 -28.83 1.31 -28.4 1.31 -28.4 1.31 -27.96 1.31 -27.96 1.31 -27.53 1.31 -27.53 1.31 -27.09 1.31 -27.09 1.31 -26.66 1.31 -26.66 1.31 -26.22 1.31 -26.22 1.31 -25.79 1.31 -25.79 1.31 -25.35 1.31 -25.35 1.31 -24.92 1.31 -24.92 1.3 -24.48 1.3 -24.48 1.3 -24.05 1.3 -24.05 1.3 -23.61 1.3 -23.61 1.3 -23.18 1.3 -23.18 1.3 -22.74 1.3 -22.74 1.3 -22.31 1.3 -22.31 1.31 -21.87 1.31 -21.87 1.29 -21.44 1.29 -21.44 1.3 -21 1.3 -21 1.29 -20.56 1.29 -20.56 1.29 -20.13 1.29 -20.13 1.29 -19.69 1.29 -19.69 1.29 -19.26 1.29 -19.26 1.29 -18.82 1.29 -18.82 1.3 -18.39 1.3 -18.39 1.29 -17.95 1.29 -17.95 1.29 -17.52 1.29 -17.52 1.29 -17.08 1.29 -17.08 1.29 -16.65 1.29 -16.65 1.29 -16.21 1.29 -16.21 1.29 -15.78 1.29 -15.78 1.29 -15.34 1.29 -15.34 1.28 -14.91 1.28 -14.91 1.29 -14.47 1.29 -14.47 1.3 -14.04 1.3 -14.04 1.29 -13.6 1.29 -13.6 1.29 -13.17 1.29 -13.17 1.28 -12.73 1.28 -12.73 1.29 -12.3 1.29 -12.3 1.28 -11.86 1.28 -11.86 1.29 -11.42 1.29 -11.42 1.29 -10.99 1.29 -10.99 1.29 -10.55 1.29 -10.55 1.29 -10.12 1.29 -10.12 1.29 -9.68 1.29 -9.68 1.3 -9.25 1.3 -9.25 1.29 -8.81 1.29 -8.81 1.29 -8.38 1.29 -8.38 1.28 -7.94 1.28 -7.94 1.29 -7.51 1.29 -7.51 1.29 -7.07 1.29 -7.07 1.29 -6.64 1.29 -6.64 1.28 -6.2 1.28 -6.2 1.29 -5.77 1.29 -5.77 1.28 -5.33 1.28 -5.33 1.28 -4.9 1.28 -4.9 1.28 -4.46 1.28 -4.46 1.29 -4.03 1.29 -4.03 1.29 -3.59 1.29 -3.59 1.28 -3.16 1.28 -3.16 1.29 -2.72 1.29 -2.72 1.28 -2.28 1.28 -2.28 1.28 -1.85 1.28 -1.85 1.28 -1.41 1.28 -1.41 1.29 -0.98 1.29 -0.98 1.28 -0.54 1.28 -0.54 1.28 -0.11 1.28 -0.11 1.28 0.33 1.28 0.33 1.28 0.76 1.28 0.76 1.28 1.2 1.28 1.2 1.28 1.63 1.28 1.63 1.28 2.07 1.28 2.07 1.27 2.5 1.27 2.5 1.28 2.94 1.28 2.94 1.28 3.37 1.28 3.37 1.28 3.81 1.28 3.81 1.28 4.24 1.28 4.24 1.28 4.68 1.28 4.68 1.28 5.11 1.28 5.11 1.28 5.55 1.28 5.55 1.28 5.98 1.28 5.98 1.27 6.42 1.27 6.42 1.28 6.86 1.28 6.86 1.28 7.29 1.28 7.29 1.28 7.73 1.28 7.73 1.28 8.16 1.28 8.16 1.27 8.6 1.27 8.6 1.27 9.03 1.27 9.03 1.27 9.47 1.27 9.47 1.27 9.9 1.27 9.9 1.28 10.34 1.28 10.34 1.28 10.77 1.28 10.77 1.28 11.21 1.28 11.21 1.26 11.64 1.26 11.64 1.27 12.08 1.27 12.08 1.26 12.51 1.26 12.51 1.26 12.95 1.26 12.95 1.27 13.38 1.27 13.38 1.26 13.82 1.26 13.82 1.26 14.25 1.26 14.25 1.26 14.69 1.26 14.69 1.26 15.12 1.26 15.12 1.25 15.56 1.25 15.56 1.25 16 1.25 16 1.25 16.43 1.25 16.43 1.24 16.87 1.24 16.87 1.24 17.3 1.24 17.3 1.24 17.74 1.24 17.74 1.24 18.17 1.24 18.17 1.23 18.61 1.23 18.61 1.23 19.04 1.23 19.04 1.22 19.48 1.22 19.48 1.23 19.91 1.23 19.91 1.21 20.35 1.21 20.35 1.2 20.78 1.2 20.78 1.2 21.22 1.2 21.22 1.19 21.65 1.19 21.65 1.2 22.09 1.2 22.09 1.19 22.52 1.19 22.52 1.19 22.96 1.19 22.96 1.19 23.39 1.19 23.39 1.19 23.83 1.19 23.83 1.19 24.26 1.19 24.26 1.19 24.7 1.19 24.7 1.2 25.14 1.2 25.14 1.18 25.57 1.18 25.57 1.19 26.01 1.19 26.01 1.18 26.44 1.18 26.44 1.18 26.88 1.18 26.88 1.18 27.31 1.18 27.31 1.18 27.75 1.18 27.75 1.18 28.18 1.18 28.18 1.18 28.62 1.18 28.62 1.18 29.05 1.18 29.05 1.18 29.49 1.18 29.49 1.18 29.92 1.18 29.92 1.19 30.36 1.19 30.36 1.19 30.79 1.19 30.79 1.18 31.23 1.18 31.23 1.18 31.66 1.18 31.66 1.17 32.1 1.17 32.1 1.15 32.53 1.15 32.53 1.13 32.97 1.13 32.97 1.08 33.4 1.08 33.4 0.99 33.84 0.99 33.84 0.87 34.27 0.87 34.27 0.67 34.71 0.67 34.71 0.41 35.15 0.41 35.15 0.01 35.58 0.01 35.58 -0.54 36.02 -0.54 36.02 -1.25 36.45 -1.25 36.45 -2.26 36.89 -2.26 36.89 -3.48 37.32 -3.48 37.32 -5.06 37.76 -5.06 37.76 -6.94 38.19 -6.94 38.19 -9.16 38.63 -9.16 38.63 -11.69 39.06 -11.69 39.06 -14.47 39.5 -14.47 39.5 -17.47 39.93 -17.47 39.93 -20.45 40.37 -20.45 40.37 -23.46 40.8 -23.46 40.8 -26.25 41.24 -26.25 41.24 -28.72 41.67 -28.72 41.67 -30.56 42.11 -30.56 42.11 -31.74 42.54 -31.74 42.54 -32.34 42.98 -32.34 42.98 -32.15 43.41 -32.15 43.41 -31.27 43.85 -31.27 43.85 -29.67 44.29 -29.67 44.29 -27.47 44.72 -27.47 44.72 -24.97 45.16 -24.97 45.16 -22.1 45.59 -22.1 45.59 -19.12 46.03 -19.12 46.03 -16.23 46.46 -16.23 46.46 -13.42 46.9 -13.42 46.9 -10.82 47.33 -10.82 47.33 -8.66 47.77 -8.66 47.77 -6.72 48.2 -6.72 48.2 -5.17 48.64 -5.17 48.64 -3.88 49.07 -3.88 49.07 -2.86 49.51 -2.86 49.51 -2.07 49.94 -2.07 49.94 -1.5 50.38 -1.5 50.38 -1.05 50.81 -1.05 50.81 -0.75 51.25 -0.75 51.25 -0.49 51.68 -0.49 51.68 -0.28 52.12 -0.28 52.12 -0.1 52.55 -0.1 52.55 0.06 52.99 0.06 52.99 0.22 53.43 0.22 53.43 0.38 53.86 0.38 53.86 0.52 54.3 0.52 54.3 0.65 54.73 0.65 54.73 0.79 55.17 0.79 55.17 0.9 55.6 0.9 55.6 0.99 56.04 0.99 56.04 1.09 56.47 1.09 56.47 1.16 56.91 1.16 56.91 1.22 57.34 1.22 57.34 1.28 57.78 1.28 57.78 1.31 58.21 1.31 58.21 1.34 58.65 1.34 58.65 1.37 59.08 1.37 59.08 1.39 59.52 1.39 59.52 1.41 59.95 1.41 59.95 1.42 60.39 1.42 60.39 1.42 60.82 1.42 60.82 1.43 61.26 1.43 61.26 1.44 61.69 1.44 61.69 1.44 62.13 1.44 62.13 1.44 62.57 1.44 62.57 1.44 63 1.44 63 1.44 63.44 1.44 63.44 1.44 63.87 1.44 63.87 1.44 64.31 1.44 64.31 1.45 64.74 1.45 64.74 1.45 65.18 1.45 65.18 1.45 65.61 1.45 65.61 1.45 66.05 1.45 66.05 1.45 66.48 1.45 66.48 1.45 66.92 1.45 66.92 1.45 67.35 1.45 67.35 1.45 67.79 1.45 67.79 1.45 68.22 1.45 68.22 1.45 68.66 1.45 68.66 1.45 69.09 1.45 69.09 1.45 69.53 1.45 69.53 1.46 69.96 1.46 69.96 1.45 70.4 1.45 70.4 1.46 70.83 1.46 70.83 1.46 71.27 1.46 71.27 1.46 71.71 1.46 71.71 1.46 72.14 1.46 72.14 1.46 72.58 1.46 72.58 1.46 73.01 1.46 73.01 1.46 73.45 1.46 73.45 1.46 73.88 1.46 73.88 1.46 74.32 1.46 74.32 1.46 74.75 1.46 74.75 1.46 75.19 1.46 75.19 1.46 75.62 1.46 75.62 1.46 76.06 1.46 76.06 1.46 76.49 1.46 76.49 1.46 76.93 1.46 76.93 1.46 77.36 1.46 77.36 1.45 77.8 1.45 77.8 1.46 78.23 1.46 78.23 1.46 78.67 1.46 78.67 1.46 79.1 1.46 79.1 1.46 79.54 1.46 79.54 1.46 79.97 1.46 79.97 1.46 80.41 1.46 80.41 1.46 80.85 1.46 80.85 1.46 81.28 1.46 81.28 1.46 81.72 1.46 81.72 1.46 82.15 1.46 82.15 1.45 82.59 1.45 82.59 1.46 83.02 1.46 83.02 1.45 83.46 1.45 83.46 1.45 83.89 1.45 83.89 1.45 84.33 1.45 84.33 1.45 84.76 1.45 84.76 1.45 85.2 1.45 85.2 1.45 85.63 1.45 85.63 1.45 86.07 1.45 86.07 1.45 86.5 1.45 86.5 1.45 86.94 1.45 86.94 1.45 87.37 1.45 87.37 1.45 87.81 1.45 87.81 1.45 88.24 1.45 88.24 1.45 88.68 1.45 88.68 1.45 89.11 1.45 89.11 1.45 89.55 1.45 89.55 1.45 89.99 1.45 89.99 1.45 90.42 1.45 90.42 1.45 90.86 1.45 90.86 1.45 91.29 1.45 91.29 1.45 91.73 1.45 91.73 1.45 92.16 1.45 92.16 1.45 92.6 1.45 92.6 1.45 93.03 1.45 93.03 1.45 93.47 1.45 93.47 1.45 93.9 1.45 93.9 1.45 94.34 1.45 94.34 1.45 94.77 1.45 94.77 1.45 95.21 1.45 95.21 1.45 95.64 1.45 95.64 1.45 96.08 1.45 96.08 1.45 96.51 1.45 96.51 1.45 96.95 1.45 96.95 1.46 97.38 1.46 97.38 1.45 97.82 1.45 97.82 1.45 98.25 1.45 98.25 1.45 98.69 1.45 98.69 1.45 99.13 1.45 99.13 1.45 99.56 1.45 99.56 1.45 100 1.45 100 1.45 100.43 1.45 100.43 1.46 100.87 1.46 100.87 1.45 101.3 1.45 101.3 1.45 101.74 1.45 101.74 1.45 102.17 1.45 102.17 1.46 102.61 1.46 102.61 1.46 103.04 1.46 103.04 1.45 103.48 1.45 103.48 1.45 103.91 1.45 103.91 1.45 104.35 1.45 104.35 1.45 104.78 1.45 104.78 1.45 105.22 1.45 105.22 1.45 105.65 1.45 105.65 1.45 106.09 1.45 106.09 1.45 106.52 1.45 106.52 1.46 106.96 1.46 106.96 1.45 107.39 1.45 107.39 1.45 107.83 1.45 107.83 1.46 108.27 1.46 108.27 1.45 108.7 1.45 108.7 1.46" class="primitive"/>
            </g>
          </g>
        </g>
        <g stroke-width="0.3" fill="#000000" fill-opacity="0.000" class="geometry" id="img-a0adbdd7-116">
          <g class="color_RGB{Float64}(0.06274509803921569,0.3058823529411765,0.5450980392156862)" stroke-dasharray="none" stroke="#104E8B" id="img-a0adbdd7-117">
            <g transform="translate(130.4,57.28)" id="img-a0adbdd7-118">
              <path fill="none" d="M-108.92,-28.35 L -108.48 -28.35 -108.48 -26.2 -108.05 -26.2 -108.05 -22.58 -107.61 -22.58 -107.61 -17.84 -107.18 -17.84 -107.18 -13 -106.74 -13 -106.74 -8.49 -106.31 -8.49 -106.31 -4.78 -105.87 -4.78 -105.87 -2.03 -105.44 -2.03 -105.44 -0.12 -105 -0.12 -105 1.11 -104.57 1.11 -104.57 1.83 -104.13 1.83 -104.13 2.21 -103.7 2.21 -103.7 2.42 -103.26 2.42 -103.26 2.5 -102.82 2.5 -102.82 2.55 -102.39 2.55 -102.39 2.57 -101.95 2.57 -101.95 2.58 -101.52 2.58 -101.52 2.58 -101.08 2.58 -101.08 2.58 -100.65 2.58 -100.65 2.58 -100.21 2.58 -100.21 2.58 -99.78 2.58 -99.78 2.59 -99.34 2.59 -99.34 2.59 -98.91 2.59 -98.91 2.59 -98.47 2.59 -98.47 2.58 -98.04 2.58 -98.04 2.53 -97.6 2.53 -97.6 2.5 -97.17 2.5 -97.17 2.52 -96.73 2.52 -96.73 2.53 -96.3 2.53 -96.3 2.53 -95.86 2.53 -95.86 2.53 -95.43 2.53 -95.43 2.53 -94.99 2.53 -94.99 2.53 -94.56 2.53 -94.56 2.52 -94.12 2.52 -94.12 2.52 -93.68 2.52 -93.68 2.52 -93.25 2.52 -93.25 2.52 -92.81 2.52 -92.81 2.52 -92.38 2.52 -92.38 2.52 -91.94 2.52 -91.94 2.52 -91.51 2.52 -91.51 2.51 -91.07 2.51 -91.07 2.5 -90.64 2.5 -90.64 2.49 -90.2 2.49 -90.2 2.48 -89.77 2.48 -89.77 2.46 -89.33 2.46 -89.33 2.43 -88.9 2.43 -88.9 2.39 -88.46 2.39 -88.46 2.34 -88.03 2.34 -88.03 2.28 -87.59 2.28 -87.59 2.2 -87.16 2.2 -87.16 2.11 -86.72 2.11 -86.72 2.02 -86.29 2.02 -86.29 1.94 -85.85 1.94 -85.85 1.87 -85.42 1.87 -85.42 1.83 -84.98 1.83 -84.98 1.8 -84.54 1.8 -84.54 1.82 -84.11 1.82 -84.11 1.86 -83.67 1.86 -83.67 1.93 -83.24 1.93 -83.24 2.02 -82.8 2.02 -82.8 2.1 -82.37 2.1 -82.37 2.19 -81.93 2.19 -81.93 2.28 -81.5 2.28 -81.5 2.35 -81.06 2.35 -81.06 2.4 -80.63 2.4 -80.63 2.43 -80.19 2.43 -80.19 2.46 -79.76 2.46 -79.76 2.47 -79.32 2.47 -79.32 2.47 -78.89 2.47 -78.89 2.47 -78.45 2.47 -78.45 2.47 -78.02 2.47 -78.02 2.47 -77.58 2.47 -77.58 2.46 -77.15 2.46 -77.15 2.46 -76.71 2.46 -76.71 2.45 -76.28 2.45 -76.28 2.44 -75.84 2.44 -75.84 2.43 -75.4 2.43 -75.4 2.42 -74.97 2.42 -74.97 2.42 -74.53 2.42 -74.53 2.41 -74.1 2.41 -74.1 2.4 -73.66 2.4 -73.66 2.39 -73.23 2.39 -73.23 2.38 -72.79 2.38 -72.79 2.36 -72.36 2.36 -72.36 2.34 -71.92 2.34 -71.92 2.31 -71.49 2.31 -71.49 2.28 -71.05 2.28 -71.05 2.22 -70.62 2.22 -70.62 2.16 -70.18 2.16 -70.18 2.06 -69.75 2.06 -69.75 1.91 -69.31 1.91 -69.31 1.69 -68.88 1.69 -68.88 1.35 -68.44 1.35 -68.44 0.89 -68.01 0.89 -68.01 0.21 -67.57 0.21 -67.57 -0.7 -67.14 -0.7 -67.14 -1.91 -66.7 -1.91 -66.7 -3.44 -66.26 -3.44 -66.26 -5.29 -65.83 -5.29 -65.83 -7.35 -65.39 -7.35 -65.39 -9.56 -64.96 -9.56 -64.96 -11.76 -64.52 -11.76 -64.52 -13.71 -64.09 -13.71 -64.09 -15.17 -63.65 -15.17 -63.65 -16.09 -63.22 -16.09 -63.22 -16.25 -62.78 -16.25 -62.78 -15.76 -62.35 -15.76 -62.35 -14.45 -61.91 -14.45 -61.91 -12.74 -61.48 -12.74 -61.48 -10.58 -61.04 -10.58 -61.04 -8.26 -60.61 -8.26 -60.61 -5.92 -60.17 -5.92 -60.17 -3.91 -59.74 -3.91 -59.74 -2.23 -59.3 -2.23 -59.3 -0.84 -58.87 -0.84 -58.87 0.26 -58.43 0.26 -58.43 1.01 -58 1.01 -58 1.56 -57.56 1.56 -57.56 1.92 -57.12 1.92 -57.12 2.14 -56.69 2.14 -56.69 2.27 -56.25 2.27 -56.25 2.35 -55.82 2.35 -55.82 2.39 -55.38 2.39 -55.38 2.41 -54.95 2.41 -54.95 2.43 -54.51 2.43 -54.51 2.43 -54.08 2.43 -54.08 2.43 -53.64 2.43 -53.64 2.42 -53.21 2.42 -53.21 2.42 -52.77 2.42 -52.77 2.41 -52.34 2.41 -52.34 2.41 -51.9 2.41 -51.9 2.41 -51.47 2.41 -51.47 2.4 -51.03 2.4 -51.03 2.39 -50.6 2.39 -50.6 2.39 -50.16 2.39 -50.16 2.38 -49.73 2.38 -49.73 2.38 -49.29 2.38 -49.29 2.37 -48.86 2.37 -48.86 2.37 -48.42 2.37 -48.42 2.37 -47.98 2.37 -47.98 2.37 -47.55 2.37 -47.55 2.37 -47.11 2.37 -47.11 2.38 -46.68 2.38 -46.68 2.38 -46.24 2.38 -46.24 2.38 -45.81 2.38 -45.81 2.38 -45.37 2.38 -45.37 2.37 -44.94 2.37 -44.94 2.38 -44.5 2.38 -44.5 2.38 -44.07 2.38 -44.07 2.38 -43.63 2.38 -43.63 2.37 -43.2 2.37 -43.2 2.37 -42.76 2.37 -42.76 2.36 -42.33 2.36 -42.33 2.36 -41.89 2.36 -41.89 2.36 -41.46 2.36 -41.46 2.35 -41.02 2.35 -41.02 2.35 -40.59 2.35 -40.59 2.34 -40.15 2.34 -40.15 2.34 -39.72 2.34 -39.72 2.34 -39.28 2.34 -39.28 2.34 -38.84 2.34 -38.84 2.33 -38.41 2.33 -38.41 2.33 -37.97 2.33 -37.97 2.33 -37.54 2.33 -37.54 2.32 -37.1 2.32 -37.1 2.31 -36.67 2.31 -36.67 2.3 -36.23 2.3 -36.23 2.29 -35.8 2.29 -35.8 2.3 -35.36 2.3 -35.36 2.29 -34.93 2.29 -34.93 2.29 -34.49 2.29 -34.49 2.29 -34.06 2.29 -34.06 2.29 -33.62 2.29 -33.62 2.28 -33.19 2.28 -33.19 2.28 -32.75 2.28 -32.75 2.28 -32.32 2.28 -32.32 2.28 -31.88 2.28 -31.88 2.28 -31.45 2.28 -31.45 2.27 -31.01 2.27 -31.01 2.27 -30.58 2.27 -30.58 2.27 -30.14 2.27 -30.14 2.27 -29.7 2.27 -29.7 2.27 -29.27 2.27 -29.27 2.26 -28.83 2.26 -28.83 2.26 -28.4 2.26 -28.4 2.26 -27.96 2.26 -27.96 2.26 -27.53 2.26 -27.53 2.25 -27.09 2.25 -27.09 2.25 -26.66 2.25 -26.66 2.24 -26.22 2.24 -26.22 2.25 -25.79 2.25 -25.79 2.24 -25.35 2.24 -25.35 2.24 -24.92 2.24 -24.92 2.24 -24.48 2.24 -24.48 2.23 -24.05 2.23 -24.05 2.23 -23.61 2.23 -23.61 2.22 -23.18 2.22 -23.18 2.21 -22.74 2.21 -22.74 2.21 -22.31 2.21 -22.31 2.21 -21.87 2.21 -21.87 2.22 -21.44 2.22 -21.44 2.22 -21 2.22 -21 2.22 -20.56 2.22 -20.56 2.21 -20.13 2.21 -20.13 2.2 -19.69 2.2 -19.69 2.2 -19.26 2.2 -19.26 2.2 -18.82 2.2 -18.82 2.2 -18.39 2.2 -18.39 2.2 -17.95 2.2 -17.95 2.2 -17.52 2.2 -17.52 2.2 -17.08 2.2 -17.08 2.19 -16.65 2.19 -16.65 2.19 -16.21 2.19 -16.21 2.19 -15.78 2.19 -15.78 2.19 -15.34 2.19 -15.34 2.19 -14.91 2.19 -14.91 2.19 -14.47 2.19 -14.47 2.19 -14.04 2.19 -14.04 2.18 -13.6 2.18 -13.6 2.18 -13.17 2.18 -13.17 2.18 -12.73 2.18 -12.73 2.18 -12.3 2.18 -12.3 2.18 -11.86 2.18 -11.86 2.18 -11.42 2.18 -11.42 2.17 -10.99 2.17 -10.99 2.17 -10.55 2.17 -10.55 2.16 -10.12 2.16 -10.12 2.16 -9.68 2.16 -9.68 2.16 -9.25 2.16 -9.25 2.17 -8.81 2.17 -8.81 2.17 -8.38 2.17 -8.38 2.16 -7.94 2.16 -7.94 2.16 -7.51 2.16 -7.51 2.16 -7.07 2.16 -7.07 2.16 -6.64 2.16 -6.64 2.15 -6.2 2.15 -6.2 2.15 -5.77 2.15 -5.77 2.14 -5.33 2.14 -5.33 2.15 -4.9 2.15 -4.9 2.15 -4.46 2.15 -4.46 2.15 -4.03 2.15 -4.03 2.14 -3.59 2.14 -3.59 2.15 -3.16 2.15 -3.16 2.14 -2.72 2.14 -2.72 2.14 -2.28 2.14 -2.28 2.15 -1.85 2.15 -1.85 2.14 -1.41 2.14 -1.41 2.14 -0.98 2.14 -0.98 2.12 -0.54 2.12 -0.54 2.14 -0.11 2.14 -0.11 2.13 0.33 2.13 0.33 2.13 0.76 2.13 0.76 2.14 1.2 2.14 1.2 2.13 1.63 2.13 1.63 2.12 2.07 2.12 2.07 2.13 2.5 2.13 2.5 2.12 2.94 2.12 2.94 2.13 3.37 2.13 3.37 2.13 3.81 2.13 3.81 2.12 4.24 2.12 4.24 2.13 4.68 2.13 4.68 2.12 5.11 2.12 5.11 2.12 5.55 2.12 5.55 2.12 5.98 2.12 5.98 2.12 6.42 2.12 6.42 2.12 6.86 2.12 6.86 2.12 7.29 2.12 7.29 2.11 7.73 2.11 7.73 2.11 8.16 2.11 8.16 2.11 8.6 2.11 8.6 2.11 9.03 2.11 9.03 2.1 9.47 2.1 9.47 2.11 9.9 2.11 9.9 2.11 10.34 2.11 10.34 2.1 10.77 2.1 10.77 2.1 11.21 2.1 11.21 2.1 11.64 2.1 11.64 2.1 12.08 2.1 12.08 2.1 12.51 2.1 12.51 2.09 12.95 2.09 12.95 2.08 13.38 2.08 13.38 2.09 13.82 2.09 13.82 2.09 14.25 2.09 14.25 2.07 14.69 2.07 14.69 2.07 15.12 2.07 15.12 2.07 15.56 2.07 15.56 2.07 16 2.07 16 2.06 16.43 2.06 16.43 2.05 16.87 2.05 16.87 2.07 17.3 2.07 17.3 2.06 17.74 2.06 17.74 2.04 18.17 2.04 18.17 2.03 18.61 2.03 18.61 2.03 19.04 2.03 19.04 2.01 19.48 2.01 19.48 2.01 19.91 2.01 19.91 2.02 20.35 2.02 20.35 2 20.78 2 20.78 2 21.22 2 21.22 1.99 21.65 1.99 21.65 1.99 22.09 1.99 22.09 1.98 22.52 1.98 22.52 1.99 22.96 1.99 22.96 1.99 23.39 1.99 23.39 1.99 23.83 1.99 23.83 1.98 24.26 1.98 24.26 1.98 24.7 1.98 24.7 1.98 25.14 1.98 25.14 1.99 25.57 1.99 25.57 1.99 26.01 1.99 26.01 1.99 26.44 1.99 26.44 1.98 26.88 1.98 26.88 1.97 27.31 1.97 27.31 1.98 27.75 1.98 27.75 1.98 28.18 1.98 28.18 1.98 28.62 1.98 28.62 1.98 29.05 1.98 29.05 1.98 29.49 1.98 29.49 1.99 29.92 1.99 29.92 1.99 30.36 1.99 30.36 1.99 30.79 1.99 30.79 1.98 31.23 1.98 31.23 1.98 31.66 1.98 31.66 1.98 32.1 1.98 32.1 1.97 32.53 1.97 32.53 1.92 32.97 1.92 32.97 1.86 33.4 1.86 33.4 1.76 33.84 1.76 33.84 1.62 34.27 1.62 34.27 1.39 34.71 1.39 34.71 1.07 35.15 1.07 35.15 0.59 35.58 0.59 35.58 -0.08 36.02 -0.08 36.02 -0.99 36.45 -0.99 36.45 -2.2 36.89 -2.2 36.89 -3.77 37.32 -3.77 37.32 -5.67 37.76 -5.67 37.76 -8.05 38.19 -8.05 38.19 -10.79 38.63 -10.79 38.63 -14.03 39.06 -14.03 39.06 -17.55 39.5 -17.55 39.5 -21.37 39.93 -21.37 39.93 -25.31 40.37 -25.31 40.37 -29.1 40.8 -29.1 40.8 -32.75 41.24 -32.75 41.24 -35.93 41.67 -35.93 41.67 -38.49 42.11 -38.49 42.11 -40.23 42.54 -40.23 42.54 -41.09 42.98 -41.09 42.98 -41.04 43.41 -41.04 43.41 -39.97 43.85 -39.97 43.85 -38.04 44.29 -38.04 44.29 -35.33 44.72 -35.33 44.72 -32.14 45.16 -32.14 45.16 -28.55 45.59 -28.55 45.59 -24.84 46.03 -24.84 46.03 -21 46.46 -21 46.46 -17.36 46.9 -17.36 46.9 -14 47.33 -14 47.33 -11.11 47.77 -11.11 47.77 -8.52 48.2 -8.52 48.2 -6.42 48.64 -6.42 48.64 -4.67 49.07 -4.67 49.07 -3.3 49.51 -3.3 49.51 -2.22 49.94 -2.22 49.94 -1.38 50.38 -1.38 50.38 -0.79 50.81 -0.79 50.81 -0.32 51.25 -0.32 51.25 0.07 51.68 0.07 51.68 0.36 52.12 0.36 52.12 0.63 52.55 0.63 52.55 0.83 52.99 0.83 52.99 1 53.43 1 53.43 1.21 53.86 1.21 53.86 1.37 54.3 1.37 54.3 1.51 54.73 1.51 54.73 1.66 55.17 1.66 55.17 1.78 55.6 1.78 55.6 1.89 56.04 1.89 56.04 1.98 56.47 1.98 56.47 2.05 56.91 2.05 56.91 2.12 57.34 2.12 57.34 2.16 57.78 2.16 57.78 2.21 58.21 2.21 58.21 2.23 58.65 2.23 58.65 2.26 59.08 2.26 59.08 2.28 59.52 2.28 59.52 2.3 59.95 2.3 59.95 2.31 60.39 2.31 60.39 2.32 60.82 2.32 60.82 2.33 61.26 2.33 61.26 2.33 61.69 2.33 61.69 2.33 62.13 2.33 62.13 2.34 62.57 2.34 62.57 2.34 63 2.34 63 2.34 63.44 2.34 63.44 2.34 63.87 2.34 63.87 2.34 64.31 2.34 64.31 2.34 64.74 2.34 64.74 2.34 65.18 2.34 65.18 2.34 65.61 2.34 65.61 2.34 66.05 2.34 66.05 2.33 66.48 2.33 66.48 2.33 66.92 2.33 66.92 2.33 67.35 2.33 67.35 2.34 67.79 2.34 67.79 2.34 68.22 2.34 68.22 2.34 68.66 2.34 68.66 2.35 69.09 2.35 69.09 2.35 69.53 2.35 69.53 2.35 69.96 2.35 69.96 2.35 70.4 2.35 70.4 2.35 70.83 2.35 70.83 2.35 71.27 2.35 71.27 2.35 71.71 2.35 71.71 2.35 72.14 2.35 72.14 2.35 72.58 2.35 72.58 2.35 73.01 2.35 73.01 2.35 73.45 2.35 73.45 2.35 73.88 2.35 73.88 2.35 74.32 2.35 74.32 2.35 74.75 2.35 74.75 2.35 75.19 2.35 75.19 2.35 75.62 2.35 75.62 2.34 76.06 2.34 76.06 2.35 76.49 2.35 76.49 2.35 76.93 2.35 76.93 2.35 77.36 2.35 77.36 2.35 77.8 2.35 77.8 2.35 78.23 2.35 78.23 2.34 78.67 2.34 78.67 2.34 79.1 2.34 79.1 2.34 79.54 2.34 79.54 2.34 79.97 2.34 79.97 2.34 80.41 2.34 80.41 2.34 80.85 2.34 80.85 2.34 81.28 2.34 81.28 2.34 81.72 2.34 81.72 2.33 82.15 2.33 82.15 2.32 82.59 2.32 82.59 2.32 83.02 2.32 83.02 2.32 83.46 2.32 83.46 2.32 83.89 2.32 83.89 2.32 84.33 2.32 84.33 2.32 84.76 2.32 84.76 2.32 85.2 2.32 85.2 2.33 85.63 2.33 85.63 2.33 86.07 2.33 86.07 2.33 86.5 2.33 86.5 2.34 86.94 2.34 86.94 2.34 87.37 2.34 87.37 2.34 87.81 2.34 87.81 2.34 88.24 2.34 88.24 2.34 88.68 2.34 88.68 2.34 89.11 2.34 89.11 2.34 89.55 2.34 89.55 2.34 89.99 2.34 89.99 2.34 90.42 2.34 90.42 2.34 90.86 2.34 90.86 2.34 91.29 2.34 91.29 2.34 91.73 2.34 91.73 2.34 92.16 2.34 92.16 2.34 92.6 2.34 92.6 2.34 93.03 2.34 93.03 2.34 93.47 2.34 93.47 2.34 93.9 2.34 93.9 2.34 94.34 2.34 94.34 2.34 94.77 2.34 94.77 2.34 95.21 2.34 95.21 2.35 95.64 2.35 95.64 2.35 96.08 2.35 96.08 2.35 96.51 2.35 96.51 2.35 96.95 2.35 96.95 2.35 97.38 2.35 97.38 2.35 97.82 2.35 97.82 2.35 98.25 2.35 98.25 2.35 98.69 2.35 98.69 2.35 99.13 2.35 99.13 2.35 99.56 2.35 99.56 2.35 100 2.35 100 2.35 100.43 2.35 100.43 2.35 100.87 2.35 100.87 2.35 101.3 2.35 101.3 2.36 101.74 2.36 101.74 2.36 102.17 2.36 102.17 2.36 102.61 2.36 102.61 2.35 103.04 2.35 103.04 2.36 103.48 2.36 103.48 2.36 103.91 2.36 103.91 2.36 104.35 2.36 104.35 2.36 104.78 2.36 104.78 2.36 105.22 2.36 105.22 2.36 105.65 2.36 105.65 2.36 106.09 2.36 106.09 2.36 106.52 2.36 106.52 2.36 106.96 2.36 106.96 2.36 107.39 2.36 107.39 2.36 107.83 2.36 107.83 2.36 108.27 2.36 108.27 2.36 108.7 2.36 108.7 2.36" class="primitive"/>
            </g>
          </g>
        </g>
      </g>
    </g>
  </g>
  <g class="guide ylabels" font-size="2.82" font-family="'PT Sans Caption','Helvetica Neue','Helvetica',sans-serif" fill="#6C606B" id="img-a0adbdd7-119">
    <g transform="translate(18.7,59.87)" id="img-a0adbdd7-120">
      <g class="primitive">
        <text text-anchor="end" dy="0.35em">0</text>
      </g>
    </g>
    <g transform="translate(18.7,29.77)" id="img-a0adbdd7-121">
      <g class="primitive">
        <text text-anchor="end" dy="0.35em">500000</text>
      </g>
    </g>
  </g>
  <g font-size="3.18" font-family="'PT Sans','Helvetica Neue','Helvetica',sans-serif" fill="#202020" stroke="#000000" stroke-opacity="0.000" id="img-a0adbdd7-122">
    <g transform="translate(4.18,29.29)" id="img-a0adbdd7-123">
      <g class="primitive">
        <text text-anchor="middle" dy="0.35em" transform="rotate(-90,0, 2)">Counts</text>
      </g>
    </g>
  </g>
</g>
<defs>
  <clipPath id="img-a0adbdd7-21">
    <path d="M19.7,0.71 L 241.17 0.71 241.17 61.87 19.7 61.87" />
  </clipPath>
</defs>
</svg>
