<?xml version="1.0" encoding="UTF-8"?>
<svg xmlns="http://www.w3.org/2000/svg"
     xmlns:xlink="http://www.w3.org/1999/xlink"
     xmlns:gadfly="http://www.gadflyjl.org/ns"
     version="1.2"
     width="254mm" height="152.4mm" viewBox="0 0 254 152.4"
     stroke="none"
     fill="#000000"
     stroke-width="0.3"
     font-size="3.88"
>
<defs>
  <marker id="arrow" markerWidth="15" markerHeight="7" refX="5" refY="3.5" orient="auto" markerUnits="strokeWidth">
    <path d="M0,0 L15,3.5 L0,7 z" stroke="context-stroke" fill="context-stroke"/>
  </marker>
</defs>
<g class="plotroot xscalable yscalable" id="img-ba24f0fd-1">
  <g font-size="3.88" font-family="'PT Sans','Helvetica Neue','Helvetica',sans-serif" fill="#564A55" stroke="#000000" stroke-opacity="0.000" id="img-ba24f0fd-2">
    <g transform="translate(218.98,140.79)">
      <g class="primitive">
        <text text-anchor="middle" dy="0.6em">kMeas/kCalc</text>
      </g>
    </g>
  </g>
  <g class="guide xlabels" font-size="2.82" font-family="'PT Sans Caption','Helvetica Neue','Helvetica',sans-serif" fill="#6C606B" id="img-ba24f0fd-3">
    <g transform="translate(190.96,134.11)">
      <g class="primitive">
        <text text-anchor="middle" dy="0.6em">0.0</text>
      </g>
    </g>
    <g transform="translate(204.97,134.11)">
      <g class="primitive">
        <text text-anchor="middle" dy="0.6em">0.5</text>
      </g>
    </g>
    <g transform="translate(218.98,134.11)">
      <g class="primitive">
        <text text-anchor="middle" dy="0.6em">1.0</text>
      </g>
    </g>
    <g transform="translate(232.99,134.11)">
      <g class="primitive">
        <text text-anchor="middle" dy="0.6em">1.5</text>
      </g>
    </g>
    <g transform="translate(247,134.11)">
      <g class="primitive">
        <text text-anchor="middle" dy="0.6em">2.0</text>
      </g>
    </g>
  </g>
  <g clip-path="url(#img-ba24f0fd-4)">
    <g id="img-ba24f0fd-5">
      <g pointer-events="visible" stroke-width="0.3" fill="#000000" fill-opacity="0.000" stroke="#000000" stroke-opacity="0.000" class="guide background" id="img-ba24f0fd-6">
        <g transform="translate(218.98,109.96)" id="img-ba24f0fd-7">
          <path d="M-30.02,-23.15 L 30.02 -23.15 30.02 23.15 -30.02 23.15 z" class="primitive"/>
        </g>
      </g>
      <g class="guide ygridlines xfixed" stroke-dasharray="0.5,0.5" stroke-width="0.2" stroke="#D0D0E0" id="img-ba24f0fd-8">
        <g transform="translate(218.98,131.11)" id="img-ba24f0fd-9">
          <path fill="none" d="M-30.02,0 L 30.02 0" class="primitive"/>
        </g>
        <g transform="translate(218.98,120.54)" id="img-ba24f0fd-10">
          <path fill="none" d="M-30.02,0 L 30.02 0" class="primitive"/>
        </g>
        <g transform="translate(218.98,109.96)" id="img-ba24f0fd-11">
          <path fill="none" d="M-30.02,0 L 30.02 0" class="primitive"/>
        </g>
        <g transform="translate(218.98,99.39)" id="img-ba24f0fd-12">
          <path fill="none" d="M-30.02,0 L 30.02 0" class="primitive"/>
        </g>
        <g transform="translate(218.98,88.81)" id="img-ba24f0fd-13">
          <path fill="none" d="M-30.02,0 L 30.02 0" class="primitive"/>
        </g>
      </g>
      <g class="guide xgridlines yfixed" stroke-dasharray="0.5,0.5" stroke-width="0.2" stroke="#D0D0E0" id="img-ba24f0fd-14">
        <g transform="translate(190.96,109.96)" id="img-ba24f0fd-15">
          <path fill="none" d="M0,-23.15 L 0 23.15" class="primitive"/>
        </g>
        <g transform="translate(204.97,109.96)" id="img-ba24f0fd-16">
          <path fill="none" d="M0,-23.15 L 0 23.15" class="primitive"/>
        </g>
        <g transform="translate(218.98,109.96)" id="img-ba24f0fd-17">
          <path fill="none" d="M0,-23.15 L 0 23.15" class="primitive"/>
        </g>
        <g transform="translate(232.99,109.96)" id="img-ba24f0fd-18">
          <path fill="none" d="M0,-23.15 L 0 23.15" class="primitive"/>
        </g>
        <g transform="translate(247,109.96)" id="img-ba24f0fd-19">
          <path fill="none" d="M0,-23.15 L 0 23.15" class="primitive"/>
        </g>
      </g>
      <g class="plotpanel" id="img-ba24f0fd-20">
        <metadata>
          <boundingbox value="188.96499999999997mm 86.81166666666665mm 60.03499999999999mm 46.30333333333333mm"/>
          <unitbox value="-0.07138395645578657 209.4555196596013 2.142767912911573 -218.9110393192026"/>
        </metadata>
        <g shape-rendering="crispEdges" stroke-width="0.3" id="img-ba24f0fd-21">
          <g class="geometry" fill-opacity="1" stroke="#000000" stroke-opacity="0.000" fill="#00BFFF" id="img-ba24f0fd-22">
            <g transform="translate(192.11,129.11)" id="img-ba24f0fd-23">
              <path d="M-1.17,-2.01 L 1.17 -2.01 1.17 2.01 -1.17 2.01 z" class="primitive"/>
            </g>
            <g transform="translate(194.4,131.12)" id="img-ba24f0fd-24">
              <path d="M-1.17,-0 L 1.17 -0 1.17 0 -1.17 0 z" class="primitive"/>
            </g>
            <g transform="translate(196.69,131.12)" id="img-ba24f0fd-25">
              <path d="M-1.17,-0 L 1.17 -0 1.17 0 -1.17 0 z" class="primitive"/>
            </g>
            <g transform="translate(198.98,131.12)" id="img-ba24f0fd-26">
              <path d="M-1.17,-0 L 1.17 -0 1.17 0 -1.17 0 z" class="primitive"/>
            </g>
            <g transform="translate(201.27,131.12)" id="img-ba24f0fd-27">
              <path d="M-1.17,-0 L 1.17 -0 1.17 0 -1.17 0 z" class="primitive"/>
            </g>
            <g transform="translate(203.56,131.12)" id="img-ba24f0fd-28">
              <path d="M-1.17,-0 L 1.17 -0 1.17 0 -1.17 0 z" class="primitive"/>
            </g>
            <g transform="translate(205.85,131.12)" id="img-ba24f0fd-29">
              <path d="M-1.17,-0 L 1.17 -0 1.17 0 -1.17 0 z" class="primitive"/>
            </g>
            <g transform="translate(208.13,131.01)" id="img-ba24f0fd-30">
              <path d="M-1.17,-0.11 L 1.17 -0.11 1.17 0.11 -1.17 0.11 z" class="primitive"/>
            </g>
            <g transform="translate(210.42,130.69)" id="img-ba24f0fd-31">
              <path d="M-1.17,-0.42 L 1.17 -0.42 1.17 0.42 -1.17 0.42 z" class="primitive"/>
            </g>
            <g transform="translate(212.71,131.01)" id="img-ba24f0fd-32">
              <path d="M-1.17,-0.11 L 1.17 -0.11 1.17 0.11 -1.17 0.11 z" class="primitive"/>
            </g>
            <g transform="translate(215,130.8)" id="img-ba24f0fd-33">
              <path d="M-1.17,-0.32 L 1.17 -0.32 1.17 0.32 -1.17 0.32 z" class="primitive"/>
            </g>
            <g transform="translate(217.29,130.06)" id="img-ba24f0fd-34">
              <path d="M-1.17,-1.06 L 1.17 -1.06 1.17 1.06 -1.17 1.06 z" class="primitive"/>
            </g>
            <g transform="translate(219.58,111.97)" id="img-ba24f0fd-35">
              <path d="M-1.17,-19.14 L 1.17 -19.14 1.17 19.14 -1.17 19.14 z" class="primitive"/>
            </g>
            <g transform="translate(221.87,124.13)" id="img-ba24f0fd-36">
              <path d="M-1.17,-6.98 L 1.17 -6.98 1.17 6.98 -1.17 6.98 z" class="primitive"/>
            </g>
            <g transform="translate(224.16,127.84)" id="img-ba24f0fd-37">
              <path d="M-1.17,-3.28 L 1.17 -3.28 1.17 3.28 -1.17 3.28 z" class="primitive"/>
            </g>
            <g transform="translate(226.45,130.27)" id="img-ba24f0fd-38">
              <path d="M-1.17,-0.85 L 1.17 -0.85 1.17 0.85 -1.17 0.85 z" class="primitive"/>
            </g>
            <g transform="translate(228.74,130.59)" id="img-ba24f0fd-39">
              <path d="M-1.17,-0.53 L 1.17 -0.53 1.17 0.53 -1.17 0.53 z" class="primitive"/>
            </g>
            <g transform="translate(231.03,130.16)" id="img-ba24f0fd-40">
              <path d="M-1.17,-0.95 L 1.17 -0.95 1.17 0.95 -1.17 0.95 z" class="primitive"/>
            </g>
            <g transform="translate(233.32,130.37)" id="img-ba24f0fd-41">
              <path d="M-1.17,-0.74 L 1.17 -0.74 1.17 0.74 -1.17 0.74 z" class="primitive"/>
            </g>
            <g transform="translate(235.61,130.9)" id="img-ba24f0fd-42">
              <path d="M-1.17,-0.21 L 1.17 -0.21 1.17 0.21 -1.17 0.21 z" class="primitive"/>
            </g>
            <g transform="translate(237.9,130.59)" id="img-ba24f0fd-43">
              <path d="M-1.17,-0.53 L 1.17 -0.53 1.17 0.53 -1.17 0.53 z" class="primitive"/>
            </g>
            <g transform="translate(240.18,130.48)" id="img-ba24f0fd-44">
              <path d="M-1.17,-0.63 L 1.17 -0.63 1.17 0.63 -1.17 0.63 z" class="primitive"/>
            </g>
            <g transform="translate(242.47,130.69)" id="img-ba24f0fd-45">
              <path d="M-1.17,-0.42 L 1.17 -0.42 1.17 0.42 -1.17 0.42 z" class="primitive"/>
            </g>
            <g transform="translate(244.76,131.01)" id="img-ba24f0fd-46">
              <path d="M-1.17,-0.11 L 1.17 -0.11 1.17 0.11 -1.17 0.11 z" class="primitive"/>
            </g>
            <g transform="translate(247.05,130.69)" id="img-ba24f0fd-47">
              <path d="M-1.17,-0.42 L 1.17 -0.42 1.17 0.42 -1.17 0.42 z" class="primitive"/>
            </g>
            <g transform="translate(249.34,131.01)" id="img-ba24f0fd-48">
              <path d="M-1.17,-0.11 L 1.17 -0.11 1.17 0.11 -1.17 0.11 z" class="primitive"/>
            </g>
            <g transform="translate(251.63,131.01)" id="img-ba24f0fd-49">
              <path d="M-1.17,-0.11 L 1.17 -0.11 1.17 0.11 -1.17 0.11 z" class="primitive"/>
            </g>
            <g transform="translate(253.92,131.01)" id="img-ba24f0fd-50">
              <path d="M-1.17,-0.11 L 1.17 -0.11 1.17 0.11 -1.17 0.11 z" class="primitive"/>
            </g>
            <g transform="translate(256.21,131.01)" id="img-ba24f0fd-51">
              <path d="M-1.17,-0.11 L 1.17 -0.11 1.17 0.11 -1.17 0.11 z" class="primitive"/>
            </g>
            <g transform="translate(258.5,130.8)" id="img-ba24f0fd-52">
              <path d="M-1.17,-0.32 L 1.17 -0.32 1.17 0.32 -1.17 0.32 z" class="primitive"/>
            </g>
            <g transform="translate(260.79,131.12)" id="img-ba24f0fd-53">
              <path d="M-1.17,-0 L 1.17 -0 1.17 0 -1.17 0 z" class="primitive"/>
            </g>
            <g transform="translate(263.08,131.12)" id="img-ba24f0fd-54">
              <path d="M-1.17,-0 L 1.17 -0 1.17 0 -1.17 0 z" class="primitive"/>
            </g>
            <g transform="translate(265.37,130.9)" id="img-ba24f0fd-55">
              <path d="M-1.17,-0.21 L 1.17 -0.21 1.17 0.21 -1.17 0.21 z" class="primitive"/>
            </g>
            <g transform="translate(267.66,130.8)" id="img-ba24f0fd-56">
              <path d="M-1.17,-0.32 L 1.17 -0.32 1.17 0.32 -1.17 0.32 z" class="primitive"/>
            </g>
            <g transform="translate(269.95,131.01)" id="img-ba24f0fd-57">
              <path d="M-1.17,-0.11 L 1.17 -0.11 1.17 0.11 -1.17 0.11 z" class="primitive"/>
            </g>
            <g transform="translate(272.23,131.12)" id="img-ba24f0fd-58">
              <path d="M-1.17,-0 L 1.17 -0 1.17 0 -1.17 0 z" class="primitive"/>
            </g>
            <g transform="translate(274.52,130.9)" id="img-ba24f0fd-59">
              <path d="M-1.17,-0.21 L 1.17 -0.21 1.17 0.21 -1.17 0.21 z" class="primitive"/>
            </g>
            <g transform="translate(276.81,131.12)" id="img-ba24f0fd-60">
              <path d="M-1.17,-0 L 1.17 -0 1.17 0 -1.17 0 z" class="primitive"/>
            </g>
            <g transform="translate(279.1,131.12)" id="img-ba24f0fd-61">
              <path d="M-1.17,-0 L 1.17 -0 1.17 0 -1.17 0 z" class="primitive"/>
            </g>
            <g transform="translate(281.39,131.12)" id="img-ba24f0fd-62">
              <path d="M-1.17,-0 L 1.17 -0 1.17 0 -1.17 0 z" class="primitive"/>
            </g>
            <g transform="translate(283.68,131.12)" id="img-ba24f0fd-63">
              <path d="M-1.17,-0 L 1.17 -0 1.17 0 -1.17 0 z" class="primitive"/>
            </g>
            <g transform="translate(285.97,131.12)" id="img-ba24f0fd-64">
              <path d="M-1.17,-0 L 1.17 -0 1.17 0 -1.17 0 z" class="primitive"/>
            </g>
            <g transform="translate(288.26,131.12)" id="img-ba24f0fd-65">
              <path d="M-1.17,-0 L 1.17 -0 1.17 0 -1.17 0 z" class="primitive"/>
            </g>
            <g transform="translate(290.55,131.12)" id="img-ba24f0fd-66">
              <path d="M-1.17,-0 L 1.17 -0 1.17 0 -1.17 0 z" class="primitive"/>
            </g>
            <g transform="translate(292.84,131.12)" id="img-ba24f0fd-67">
              <path d="M-1.17,-0 L 1.17 -0 1.17 0 -1.17 0 z" class="primitive"/>
            </g>
            <g transform="translate(295.13,131.12)" id="img-ba24f0fd-68">
              <path d="M-1.17,-0 L 1.17 -0 1.17 0 -1.17 0 z" class="primitive"/>
            </g>
            <g transform="translate(297.42,131.12)" id="img-ba24f0fd-69">
              <path d="M-1.17,-0 L 1.17 -0 1.17 0 -1.17 0 z" class="primitive"/>
            </g>
            <g transform="translate(299.71,131.12)" id="img-ba24f0fd-70">
              <path d="M-1.17,-0 L 1.17 -0 1.17 0 -1.17 0 z" class="primitive"/>
            </g>
            <g transform="translate(302,131.12)" id="img-ba24f0fd-71">
              <path d="M-1.17,-0 L 1.17 -0 1.17 0 -1.17 0 z" class="primitive"/>
            </g>
            <g transform="translate(304.28,131.01)" id="img-ba24f0fd-72">
              <path d="M-1.17,-0.11 L 1.17 -0.11 1.17 0.11 -1.17 0.11 z" class="primitive"/>
            </g>
          </g>
        </g>
      </g>
    </g>
  </g>
  <g class="guide ylabels" font-size="2.82" font-family="'PT Sans Caption','Helvetica Neue','Helvetica',sans-serif" fill="#6C606B" id="img-ba24f0fd-73">
    <g transform="translate(187.96,131.11)" id="img-ba24f0fd-74">
      <g class="primitive">
        <text text-anchor="end" dy="0.35em">0</text>
      </g>
    </g>
    <g transform="translate(187.96,120.54)" id="img-ba24f0fd-75">
      <g class="primitive">
        <text text-anchor="end" dy="0.35em">50</text>
      </g>
    </g>
    <g transform="translate(187.96,109.96)" id="img-ba24f0fd-76">
      <g class="primitive">
        <text text-anchor="end" dy="0.35em">100</text>
      </g>
    </g>
    <g transform="translate(187.96,99.39)" id="img-ba24f0fd-77">
      <g class="primitive">
        <text text-anchor="end" dy="0.35em">150</text>
      </g>
    </g>
    <g transform="translate(187.96,88.81)" id="img-ba24f0fd-78">
      <g class="primitive">
        <text text-anchor="end" dy="0.35em">200</text>
      </g>
    </g>
  </g>
  <g font-size="3.88" font-family="'PT Sans','Helvetica Neue','Helvetica',sans-serif" fill="#564A55" stroke="#000000" stroke-opacity="0.000" id="img-ba24f0fd-79">
    <g transform="translate(178.14,107.96)" id="img-ba24f0fd-80">
      <g class="primitive">
        <text text-anchor="middle" dy="0.35em" transform="rotate(-90,0, 2)">Count</text>
      </g>
    </g>
  </g>
  <g font-size="3.88" font-family="'PT Sans','Helvetica Neue','Helvetica',sans-serif" fill="#564A55" stroke="#000000" stroke-opacity="0.000" id="img-ba24f0fd-81">
    <g transform="translate(218.98,81.2)" id="img-ba24f0fd-82">
      <g class="primitive">
        <text text-anchor="middle" dy="0.6em">Riveros</text>
      </g>
    </g>
  </g>
</g>
<g class="plotroot xscalable yscalable" id="img-ba24f0fd-83">
  <g font-size="3.88" font-family="'PT Sans','Helvetica Neue','Helvetica',sans-serif" fill="#564A55" stroke="#000000" stroke-opacity="0.000" id="img-ba24f0fd-84">
    <g transform="translate(134.32,140.79)" id="img-ba24f0fd-85">
      <g class="primitive">
        <text text-anchor="middle" dy="0.6em">kMeas/kCalc</text>
      </g>
    </g>
  </g>
  <g class="guide xlabels" font-size="2.82" font-family="'PT Sans Caption','Helvetica Neue','Helvetica',sans-serif" fill="#6C606B" id="img-ba24f0fd-86">
    <g transform="translate(106.3,134.11)" id="img-ba24f0fd-87">
      <g class="primitive">
        <text text-anchor="middle" dy="0.6em">0.0</text>
      </g>
    </g>
    <g transform="translate(120.31,134.11)" id="img-ba24f0fd-88">
      <g class="primitive">
        <text text-anchor="middle" dy="0.6em">0.5</text>
      </g>
    </g>
    <g transform="translate(134.32,134.11)" id="img-ba24f0fd-89">
      <g class="primitive">
        <text text-anchor="middle" dy="0.6em">1.0</text>
      </g>
    </g>
    <g transform="translate(148.32,134.11)" id="img-ba24f0fd-90">
      <g class="primitive">
        <text text-anchor="middle" dy="0.6em">1.5</text>
      </g>
    </g>
    <g transform="translate(162.33,134.11)" id="img-ba24f0fd-91">
      <g class="primitive">
        <text text-anchor="middle" dy="0.6em">2.0</text>
      </g>
    </g>
  </g>
  <g clip-path="url(#img-ba24f0fd-92)">
    <g id="img-ba24f0fd-93">
      <g pointer-events="visible" stroke-width="0.3" fill="#000000" fill-opacity="0.000" stroke="#000000" stroke-opacity="0.000" class="guide background" id="img-ba24f0fd-94">
        <g transform="translate(134.32,109.96)" id="img-ba24f0fd-95">
          <path d="M-30.02,-23.15 L 30.02 -23.15 30.02 23.15 -30.02 23.15 z" class="primitive"/>
        </g>
      </g>
      <g class="guide ygridlines xfixed" stroke-dasharray="0.5,0.5" stroke-width="0.2" stroke="#D0D0E0" id="img-ba24f0fd-96">
        <g transform="translate(134.32,131.11)" id="img-ba24f0fd-97">
          <path fill="none" d="M-30.02,0 L 30.02 0" class="primitive"/>
        </g>
        <g transform="translate(134.32,109.96)" id="img-ba24f0fd-98">
          <path fill="none" d="M-30.02,0 L 30.02 0" class="primitive"/>
        </g>
        <g transform="translate(134.32,88.81)" id="img-ba24f0fd-99">
          <path fill="none" d="M-30.02,0 L 30.02 0" class="primitive"/>
        </g>
      </g>
      <g class="guide xgridlines yfixed" stroke-dasharray="0.5,0.5" stroke-width="0.2" stroke="#D0D0E0" id="img-ba24f0fd-100">
        <g transform="translate(106.3,109.96)" id="img-ba24f0fd-101">
          <path fill="none" d="M0,-23.15 L 0 23.15" class="primitive"/>
        </g>
        <g transform="translate(120.31,109.96)" id="img-ba24f0fd-102">
          <path fill="none" d="M0,-23.15 L 0 23.15" class="primitive"/>
        </g>
        <g transform="translate(134.32,109.96)" id="img-ba24f0fd-103">
          <path fill="none" d="M0,-23.15 L 0 23.15" class="primitive"/>
        </g>
        <g transform="translate(148.32,109.96)" id="img-ba24f0fd-104">
          <path fill="none" d="M0,-23.15 L 0 23.15" class="primitive"/>
        </g>
        <g transform="translate(162.33,109.96)" id="img-ba24f0fd-105">
          <path fill="none" d="M0,-23.15 L 0 23.15" class="primitive"/>
        </g>
      </g>
      <g class="plotpanel" id="img-ba24f0fd-106">
        <metadata>
          <boundingbox value="104.29833333333332mm 86.81166666666665mm 60.03499999999999mm 46.30333333333333mm"/>
          <unitbox value="-0.07138395645578657 104.72775982980065 2.142767912911573 -109.4555196596013"/>
        </metadata>
        <g shape-rendering="crispEdges" stroke-width="0.3" id="img-ba24f0fd-107">
          <g class="geometry" fill-opacity="1" stroke="#000000" stroke-opacity="0.000" fill="#00BFFF" id="img-ba24f0fd-108">
            <g transform="translate(119.09,130.69)" id="img-ba24f0fd-109">
              <path d="M-0.53,-0.42 L 0.53 -0.42 0.53 0.42 -0.53 0.42 z" class="primitive"/>
            </g>
            <g transform="translate(120.1,131.12)" id="img-ba24f0fd-110">
              <path d="M-0.53,-0 L 0.53 -0 0.53 0 -0.53 0 z" class="primitive"/>
            </g>
            <g transform="translate(121.1,130.9)" id="img-ba24f0fd-111">
              <path d="M-0.53,-0.21 L 0.53 -0.21 0.53 0.21 -0.53 0.21 z" class="primitive"/>
            </g>
            <g transform="translate(122.11,131.12)" id="img-ba24f0fd-112">
              <path d="M-0.53,-0 L 0.53 -0 0.53 0 -0.53 0 z" class="primitive"/>
            </g>
            <g transform="translate(123.12,130.9)" id="img-ba24f0fd-113">
              <path d="M-0.53,-0.21 L 0.53 -0.21 0.53 0.21 -0.53 0.21 z" class="primitive"/>
            </g>
            <g transform="translate(124.13,130.9)" id="img-ba24f0fd-114">
              <path d="M-0.53,-0.21 L 0.53 -0.21 0.53 0.21 -0.53 0.21 z" class="primitive"/>
            </g>
            <g transform="translate(125.13,130.9)" id="img-ba24f0fd-115">
              <path d="M-0.53,-0.21 L 0.53 -0.21 0.53 0.21 -0.53 0.21 z" class="primitive"/>
            </g>
            <g transform="translate(126.14,130.9)" id="img-ba24f0fd-116">
              <path d="M-0.53,-0.21 L 0.53 -0.21 0.53 0.21 -0.53 0.21 z" class="primitive"/>
            </g>
            <g transform="translate(127.15,130.9)" id="img-ba24f0fd-117">
              <path d="M-0.53,-0.21 L 0.53 -0.21 0.53 0.21 -0.53 0.21 z" class="primitive"/>
            </g>
            <g transform="translate(128.15,130.69)" id="img-ba24f0fd-118">
              <path d="M-0.53,-0.42 L 0.53 -0.42 0.53 0.42 -0.53 0.42 z" class="primitive"/>
            </g>
            <g transform="translate(129.16,130.48)" id="img-ba24f0fd-119">
              <path d="M-0.53,-0.63 L 0.53 -0.63 0.53 0.63 -0.53 0.63 z" class="primitive"/>
            </g>
            <g transform="translate(130.17,130.06)" id="img-ba24f0fd-120">
              <path d="M-0.53,-1.06 L 0.53 -1.06 0.53 1.06 -0.53 1.06 z" class="primitive"/>
            </g>
            <g transform="translate(131.17,129.42)" id="img-ba24f0fd-121">
              <path d="M-0.53,-1.69 L 0.53 -1.69 0.53 1.69 -0.53 1.69 z" class="primitive"/>
            </g>
            <g transform="translate(132.18,127.94)" id="img-ba24f0fd-122">
              <path d="M-0.53,-3.17 L 0.53 -3.17 0.53 3.17 -0.53 3.17 z" class="primitive"/>
            </g>
            <g transform="translate(133.19,122.65)" id="img-ba24f0fd-123">
              <path d="M-0.53,-8.46 L 0.53 -8.46 0.53 8.46 -0.53 8.46 z" class="primitive"/>
            </g>
            <g transform="translate(134.2,115.04)" id="img-ba24f0fd-124">
              <path d="M-0.53,-16.08 L 0.53 -16.08 0.53 16.08 -0.53 16.08 z" class="primitive"/>
            </g>
            <g transform="translate(135.2,111.02)" id="img-ba24f0fd-125">
              <path d="M-0.53,-20.09 L 0.53 -20.09 0.53 20.09 -0.53 20.09 z" class="primitive"/>
            </g>
            <g transform="translate(136.21,125.4)" id="img-ba24f0fd-126">
              <path d="M-0.53,-5.71 L 0.53 -5.71 0.53 5.71 -0.53 5.71 z" class="primitive"/>
            </g>
            <g transform="translate(137.22,129.21)" id="img-ba24f0fd-127">
              <path d="M-0.53,-1.9 L 0.53 -1.9 0.53 1.9 -0.53 1.9 z" class="primitive"/>
            </g>
            <g transform="translate(138.22,128.79)" id="img-ba24f0fd-128">
              <path d="M-0.53,-2.33 L 0.53 -2.33 0.53 2.33 -0.53 2.33 z" class="primitive"/>
            </g>
            <g transform="translate(139.23,128.79)" id="img-ba24f0fd-129">
              <path d="M-0.53,-2.33 L 0.53 -2.33 0.53 2.33 -0.53 2.33 z" class="primitive"/>
            </g>
            <g transform="translate(140.24,129.63)" id="img-ba24f0fd-130">
              <path d="M-0.53,-1.48 L 0.53 -1.48 0.53 1.48 -0.53 1.48 z" class="primitive"/>
            </g>
            <g transform="translate(141.24,129)" id="img-ba24f0fd-131">
              <path d="M-0.53,-2.12 L 0.53 -2.12 0.53 2.12 -0.53 2.12 z" class="primitive"/>
            </g>
            <g transform="translate(142.25,129.42)" id="img-ba24f0fd-132">
              <path d="M-0.53,-1.69 L 0.53 -1.69 0.53 1.69 -0.53 1.69 z" class="primitive"/>
            </g>
            <g transform="translate(143.26,129.42)" id="img-ba24f0fd-133">
              <path d="M-0.53,-1.69 L 0.53 -1.69 0.53 1.69 -0.53 1.69 z" class="primitive"/>
            </g>
            <g transform="translate(144.27,130.48)" id="img-ba24f0fd-134">
              <path d="M-0.53,-0.63 L 0.53 -0.63 0.53 0.63 -0.53 0.63 z" class="primitive"/>
            </g>
            <g transform="translate(145.27,130.48)" id="img-ba24f0fd-135">
              <path d="M-0.53,-0.63 L 0.53 -0.63 0.53 0.63 -0.53 0.63 z" class="primitive"/>
            </g>
            <g transform="translate(146.28,131.12)" id="img-ba24f0fd-136">
              <path d="M-0.53,-0 L 0.53 -0 0.53 0 -0.53 0 z" class="primitive"/>
            </g>
            <g transform="translate(147.29,130.69)" id="img-ba24f0fd-137">
              <path d="M-0.53,-0.42 L 0.53 -0.42 0.53 0.42 -0.53 0.42 z" class="primitive"/>
            </g>
            <g transform="translate(148.29,130.69)" id="img-ba24f0fd-138">
              <path d="M-0.53,-0.42 L 0.53 -0.42 0.53 0.42 -0.53 0.42 z" class="primitive"/>
            </g>
            <g transform="translate(149.3,130.27)" id="img-ba24f0fd-139">
              <path d="M-0.53,-0.85 L 0.53 -0.85 0.53 0.85 -0.53 0.85 z" class="primitive"/>
            </g>
            <g transform="translate(150.31,130.69)" id="img-ba24f0fd-140">
              <path d="M-0.53,-0.42 L 0.53 -0.42 0.53 0.42 -0.53 0.42 z" class="primitive"/>
            </g>
            <g transform="translate(151.31,130.9)" id="img-ba24f0fd-141">
              <path d="M-0.53,-0.21 L 0.53 -0.21 0.53 0.21 -0.53 0.21 z" class="primitive"/>
            </g>
            <g transform="translate(152.32,130.69)" id="img-ba24f0fd-142">
              <path d="M-0.53,-0.42 L 0.53 -0.42 0.53 0.42 -0.53 0.42 z" class="primitive"/>
            </g>
            <g transform="translate(153.33,131.12)" id="img-ba24f0fd-143">
              <path d="M-0.53,-0 L 0.53 -0 0.53 0 -0.53 0 z" class="primitive"/>
            </g>
            <g transform="translate(154.34,130.69)" id="img-ba24f0fd-144">
              <path d="M-0.53,-0.42 L 0.53 -0.42 0.53 0.42 -0.53 0.42 z" class="primitive"/>
            </g>
            <g transform="translate(155.34,130.48)" id="img-ba24f0fd-145">
              <path d="M-0.53,-0.63 L 0.53 -0.63 0.53 0.63 -0.53 0.63 z" class="primitive"/>
            </g>
            <g transform="translate(156.35,130.69)" id="img-ba24f0fd-146">
              <path d="M-0.53,-0.42 L 0.53 -0.42 0.53 0.42 -0.53 0.42 z" class="primitive"/>
            </g>
            <g transform="translate(157.36,130.69)" id="img-ba24f0fd-147">
              <path d="M-0.53,-0.42 L 0.53 -0.42 0.53 0.42 -0.53 0.42 z" class="primitive"/>
            </g>
            <g transform="translate(158.36,130.48)" id="img-ba24f0fd-148">
              <path d="M-0.53,-0.63 L 0.53 -0.63 0.53 0.63 -0.53 0.63 z" class="primitive"/>
            </g>
            <g transform="translate(159.37,130.69)" id="img-ba24f0fd-149">
              <path d="M-0.53,-0.42 L 0.53 -0.42 0.53 0.42 -0.53 0.42 z" class="primitive"/>
            </g>
            <g transform="translate(160.38,130.9)" id="img-ba24f0fd-150">
              <path d="M-0.53,-0.21 L 0.53 -0.21 0.53 0.21 -0.53 0.21 z" class="primitive"/>
            </g>
            <g transform="translate(161.38,131.12)" id="img-ba24f0fd-151">
              <path d="M-0.53,-0 L 0.53 -0 0.53 0 -0.53 0 z" class="primitive"/>
            </g>
            <g transform="translate(162.39,130.9)" id="img-ba24f0fd-152">
              <path d="M-0.53,-0.21 L 0.53 -0.21 0.53 0.21 -0.53 0.21 z" class="primitive"/>
            </g>
            <g transform="translate(163.4,130.69)" id="img-ba24f0fd-153">
              <path d="M-0.53,-0.42 L 0.53 -0.42 0.53 0.42 -0.53 0.42 z" class="primitive"/>
            </g>
            <g transform="translate(164.41,131.12)" id="img-ba24f0fd-154">
              <path d="M-0.53,-0 L 0.53 -0 0.53 0 -0.53 0 z" class="primitive"/>
            </g>
            <g transform="translate(165.41,130.69)" id="img-ba24f0fd-155">
              <path d="M-0.53,-0.42 L 0.53 -0.42 0.53 0.42 -0.53 0.42 z" class="primitive"/>
            </g>
            <g transform="translate(166.42,131.12)" id="img-ba24f0fd-156">
              <path d="M-0.53,-0 L 0.53 -0 0.53 0 -0.53 0 z" class="primitive"/>
            </g>
            <g transform="translate(167.43,131.12)" id="img-ba24f0fd-157">
              <path d="M-0.53,-0 L 0.53 -0 0.53 0 -0.53 0 z" class="primitive"/>
            </g>
            <g transform="translate(168.43,130.9)" id="img-ba24f0fd-158">
              <path d="M-0.53,-0.21 L 0.53 -0.21 0.53 0.21 -0.53 0.21 z" class="primitive"/>
            </g>
          </g>
        </g>
      </g>
    </g>
  </g>
  <g class="guide ylabels" font-size="2.82" font-family="'PT Sans Caption','Helvetica Neue','Helvetica',sans-serif" fill="#6C606B" id="img-ba24f0fd-159">
    <g transform="translate(103.3,131.11)" id="img-ba24f0fd-160">
      <g class="primitive">
        <text text-anchor="end" dy="0.35em">0</text>
      </g>
    </g>
    <g transform="translate(103.3,109.96)" id="img-ba24f0fd-161">
      <g class="primitive">
        <text text-anchor="end" dy="0.35em">50</text>
      </g>
    </g>
    <g transform="translate(103.3,88.81)" id="img-ba24f0fd-162">
      <g class="primitive">
        <text text-anchor="end" dy="0.35em">100</text>
      </g>
    </g>
  </g>
  <g font-size="3.88" font-family="'PT Sans','Helvetica Neue','Helvetica',sans-serif" fill="#564A55" stroke="#000000" stroke-opacity="0.000" id="img-ba24f0fd-163">
    <g transform="translate(93.47,107.96)" id="img-ba24f0fd-164">
      <g class="primitive">
        <text text-anchor="middle" dy="0.35em" transform="rotate(-90,0, 2)">Count</text>
      </g>
    </g>
  </g>
  <g font-size="3.88" font-family="'PT Sans','Helvetica Neue','Helvetica',sans-serif" fill="#564A55" stroke="#000000" stroke-opacity="0.000" id="img-ba24f0fd-165">
    <g transform="translate(134.32,81.2)" id="img-ba24f0fd-166">
      <g class="primitive">
        <text text-anchor="middle" dy="0.6em">CitZAF</text>
      </g>
    </g>
  </g>
</g>
<g class="plotroot xscalable yscalable" id="img-ba24f0fd-167">
  <g font-size="3.88" font-family="'PT Sans','Helvetica Neue','Helvetica',sans-serif" fill="#564A55" stroke="#000000" stroke-opacity="0.000" id="img-ba24f0fd-168">
    <g transform="translate(49.65,140.79)" id="img-ba24f0fd-169">
      <g class="primitive">
        <text text-anchor="middle" dy="0.6em">kMeas/kCalc</text>
      </g>
    </g>
  </g>
  <g class="guide xlabels" font-size="2.82" font-family="'PT Sans Caption','Helvetica Neue','Helvetica',sans-serif" fill="#6C606B" id="img-ba24f0fd-170">
    <g transform="translate(21.63,134.11)" id="img-ba24f0fd-171">
      <g class="primitive">
        <text text-anchor="middle" dy="0.6em">0.0</text>
      </g>
    </g>
    <g transform="translate(35.64,134.11)" id="img-ba24f0fd-172">
      <g class="primitive">
        <text text-anchor="middle" dy="0.6em">0.5</text>
      </g>
    </g>
    <g transform="translate(49.65,134.11)" id="img-ba24f0fd-173">
      <g class="primitive">
        <text text-anchor="middle" dy="0.6em">1.0</text>
      </g>
    </g>
    <g transform="translate(63.66,134.11)" id="img-ba24f0fd-174">
      <g class="primitive">
        <text text-anchor="middle" dy="0.6em">1.5</text>
      </g>
    </g>
    <g transform="translate(77.67,134.11)" id="img-ba24f0fd-175">
      <g class="primitive">
        <text text-anchor="middle" dy="0.6em">2.0</text>
      </g>
    </g>
  </g>
  <g clip-path="url(#img-ba24f0fd-176)">
    <g id="img-ba24f0fd-177">
      <g pointer-events="visible" stroke-width="0.3" fill="#000000" fill-opacity="0.000" stroke="#000000" stroke-opacity="0.000" class="guide background" id="img-ba24f0fd-178">
        <g transform="translate(49.65,109.96)" id="img-ba24f0fd-179">
          <path d="M-30.02,-23.15 L 30.02 -23.15 30.02 23.15 -30.02 23.15 z" class="primitive"/>
        </g>
      </g>
      <g class="guide ygridlines xfixed" stroke-dasharray="0.5,0.5" stroke-width="0.2" stroke="#D0D0E0" id="img-ba24f0fd-180">
        <g transform="translate(49.65,131.11)" id="img-ba24f0fd-181">
          <path fill="none" d="M-30.02,0 L 30.02 0" class="primitive"/>
        </g>
        <g transform="translate(49.65,120.54)" id="img-ba24f0fd-182">
          <path fill="none" d="M-30.02,0 L 30.02 0" class="primitive"/>
        </g>
        <g transform="translate(49.65,109.96)" id="img-ba24f0fd-183">
          <path fill="none" d="M-30.02,0 L 30.02 0" class="primitive"/>
        </g>
        <g transform="translate(49.65,99.39)" id="img-ba24f0fd-184">
          <path fill="none" d="M-30.02,0 L 30.02 0" class="primitive"/>
        </g>
        <g transform="translate(49.65,88.81)" id="img-ba24f0fd-185">
          <path fill="none" d="M-30.02,0 L 30.02 0" class="primitive"/>
        </g>
      </g>
      <g class="guide xgridlines yfixed" stroke-dasharray="0.5,0.5" stroke-width="0.2" stroke="#D0D0E0" id="img-ba24f0fd-186">
        <g transform="translate(21.63,109.96)" id="img-ba24f0fd-187">
          <path fill="none" d="M0,-23.15 L 0 23.15" class="primitive"/>
        </g>
        <g transform="translate(35.64,109.96)" id="img-ba24f0fd-188">
          <path fill="none" d="M0,-23.15 L 0 23.15" class="primitive"/>
        </g>
        <g transform="translate(49.65,109.96)" id="img-ba24f0fd-189">
          <path fill="none" d="M0,-23.15 L 0 23.15" class="primitive"/>
        </g>
        <g transform="translate(63.66,109.96)" id="img-ba24f0fd-190">
          <path fill="none" d="M0,-23.15 L 0 23.15" class="primitive"/>
        </g>
        <g transform="translate(77.67,109.96)" id="img-ba24f0fd-191">
          <path fill="none" d="M0,-23.15 L 0 23.15" class="primitive"/>
        </g>
      </g>
      <g class="plotpanel" id="img-ba24f0fd-192">
        <metadata>
          <boundingbox value="19.631666666666668mm 86.81166666666665mm 60.03499999999999mm 46.30333333333333mm"/>
          <unitbox value="-0.07138395645578657 209.4555196596013 2.142767912911573 -218.9110393192026"/>
        </metadata>
        <g shape-rendering="crispEdges" stroke-width="0.3" id="img-ba24f0fd-193">
          <g class="geometry" fill-opacity="1" stroke="#000000" stroke-opacity="0.000" fill="#00BFFF" id="img-ba24f0fd-194">
            <g transform="translate(33.73,130.9)" id="img-ba24f0fd-195">
              <path d="M-0.46,-0.21 L 0.46 -0.21 0.46 0.21 -0.46 0.21 z" class="primitive"/>
            </g>
            <g transform="translate(34.61,131.01)" id="img-ba24f0fd-196">
              <path d="M-0.46,-0.11 L 0.46 -0.11 0.46 0.11 -0.46 0.11 z" class="primitive"/>
            </g>
            <g transform="translate(35.49,131.12)" id="img-ba24f0fd-197">
              <path d="M-0.46,-0 L 0.46 -0 0.46 0 -0.46 0 z" class="primitive"/>
            </g>
            <g transform="translate(36.37,131.12)" id="img-ba24f0fd-198">
              <path d="M-0.46,-0 L 0.46 -0 0.46 0 -0.46 0 z" class="primitive"/>
            </g>
            <g transform="translate(37.25,131.01)" id="img-ba24f0fd-199">
              <path d="M-0.46,-0.11 L 0.46 -0.11 0.46 0.11 -0.46 0.11 z" class="primitive"/>
            </g>
            <g transform="translate(38.13,131.12)" id="img-ba24f0fd-200">
              <path d="M-0.46,-0 L 0.46 -0 0.46 0 -0.46 0 z" class="primitive"/>
            </g>
            <g transform="translate(39.01,131.01)" id="img-ba24f0fd-201">
              <path d="M-0.46,-0.11 L 0.46 -0.11 0.46 0.11 -0.46 0.11 z" class="primitive"/>
            </g>
            <g transform="translate(39.89,131.12)" id="img-ba24f0fd-202">
              <path d="M-0.46,-0 L 0.46 -0 0.46 0 -0.46 0 z" class="primitive"/>
            </g>
            <g transform="translate(40.77,131.01)" id="img-ba24f0fd-203">
              <path d="M-0.46,-0.11 L 0.46 -0.11 0.46 0.11 -0.46 0.11 z" class="primitive"/>
            </g>
            <g transform="translate(41.65,131.01)" id="img-ba24f0fd-204">
              <path d="M-0.46,-0.11 L 0.46 -0.11 0.46 0.11 -0.46 0.11 z" class="primitive"/>
            </g>
            <g transform="translate(42.53,131.12)" id="img-ba24f0fd-205">
              <path d="M-0.46,-0 L 0.46 -0 0.46 0 -0.46 0 z" class="primitive"/>
            </g>
            <g transform="translate(43.41,131.12)" id="img-ba24f0fd-206">
              <path d="M-0.46,-0 L 0.46 -0 0.46 0 -0.46 0 z" class="primitive"/>
            </g>
            <g transform="translate(44.29,130.69)" id="img-ba24f0fd-207">
              <path d="M-0.46,-0.42 L 0.46 -0.42 0.46 0.42 -0.46 0.42 z" class="primitive"/>
            </g>
            <g transform="translate(45.17,130.69)" id="img-ba24f0fd-208">
              <path d="M-0.46,-0.42 L 0.46 -0.42 0.46 0.42 -0.46 0.42 z" class="primitive"/>
            </g>
            <g transform="translate(46.05,130.59)" id="img-ba24f0fd-209">
              <path d="M-0.46,-0.53 L 0.46 -0.53 0.46 0.53 -0.46 0.53 z" class="primitive"/>
            </g>
            <g transform="translate(46.93,130.48)" id="img-ba24f0fd-210">
              <path d="M-0.46,-0.63 L 0.46 -0.63 0.46 0.63 -0.46 0.63 z" class="primitive"/>
            </g>
            <g transform="translate(47.81,130.37)" id="img-ba24f0fd-211">
              <path d="M-0.46,-0.74 L 0.46 -0.74 0.46 0.74 -0.46 0.74 z" class="primitive"/>
            </g>
            <g transform="translate(48.69,126.99)" id="img-ba24f0fd-212">
              <path d="M-0.46,-4.12 L 0.46 -4.12 0.46 4.12 -0.46 4.12 z" class="primitive"/>
            </g>
            <g transform="translate(49.57,113.56)" id="img-ba24f0fd-213">
              <path d="M-0.46,-17.56 L 0.46 -17.56 0.46 17.56 -0.46 17.56 z" class="primitive"/>
            </g>
            <g transform="translate(50.44,126.46)" id="img-ba24f0fd-214">
              <path d="M-0.46,-4.65 L 0.46 -4.65 0.46 4.65 -0.46 4.65 z" class="primitive"/>
            </g>
            <g transform="translate(51.32,129.42)" id="img-ba24f0fd-215">
              <path d="M-0.46,-1.69 L 0.46 -1.69 0.46 1.69 -0.46 1.69 z" class="primitive"/>
            </g>
            <g transform="translate(52.2,130.27)" id="img-ba24f0fd-216">
              <path d="M-0.46,-0.85 L 0.46 -0.85 0.46 0.85 -0.46 0.85 z" class="primitive"/>
            </g>
            <g transform="translate(53.08,129.74)" id="img-ba24f0fd-217">
              <path d="M-0.46,-1.37 L 0.46 -1.37 0.46 1.37 -0.46 1.37 z" class="primitive"/>
            </g>
            <g transform="translate(53.96,129.74)" id="img-ba24f0fd-218">
              <path d="M-0.46,-1.37 L 0.46 -1.37 0.46 1.37 -0.46 1.37 z" class="primitive"/>
            </g>
            <g transform="translate(54.84,130.69)" id="img-ba24f0fd-219">
              <path d="M-0.46,-0.42 L 0.46 -0.42 0.46 0.42 -0.46 0.42 z" class="primitive"/>
            </g>
            <g transform="translate(55.72,131.01)" id="img-ba24f0fd-220">
              <path d="M-0.46,-0.11 L 0.46 -0.11 0.46 0.11 -0.46 0.11 z" class="primitive"/>
            </g>
            <g transform="translate(56.6,131.01)" id="img-ba24f0fd-221">
              <path d="M-0.46,-0.11 L 0.46 -0.11 0.46 0.11 -0.46 0.11 z" class="primitive"/>
            </g>
            <g transform="translate(57.48,130.8)" id="img-ba24f0fd-222">
              <path d="M-0.46,-0.32 L 0.46 -0.32 0.46 0.32 -0.46 0.32 z" class="primitive"/>
            </g>
            <g transform="translate(58.36,130.69)" id="img-ba24f0fd-223">
              <path d="M-0.46,-0.42 L 0.46 -0.42 0.46 0.42 -0.46 0.42 z" class="primitive"/>
            </g>
            <g transform="translate(59.24,131.01)" id="img-ba24f0fd-224">
              <path d="M-0.46,-0.11 L 0.46 -0.11 0.46 0.11 -0.46 0.11 z" class="primitive"/>
            </g>
            <g transform="translate(60.12,130.8)" id="img-ba24f0fd-225">
              <path d="M-0.46,-0.32 L 0.46 -0.32 0.46 0.32 -0.46 0.32 z" class="primitive"/>
            </g>
            <g transform="translate(61,130.8)" id="img-ba24f0fd-226">
              <path d="M-0.46,-0.32 L 0.46 -0.32 0.46 0.32 -0.46 0.32 z" class="primitive"/>
            </g>
            <g transform="translate(61.88,130.9)" id="img-ba24f0fd-227">
              <path d="M-0.46,-0.21 L 0.46 -0.21 0.46 0.21 -0.46 0.21 z" class="primitive"/>
            </g>
            <g transform="translate(62.76,130.9)" id="img-ba24f0fd-228">
              <path d="M-0.46,-0.21 L 0.46 -0.21 0.46 0.21 -0.46 0.21 z" class="primitive"/>
            </g>
            <g transform="translate(63.64,131.01)" id="img-ba24f0fd-229">
              <path d="M-0.46,-0.11 L 0.46 -0.11 0.46 0.11 -0.46 0.11 z" class="primitive"/>
            </g>
            <g transform="translate(64.52,130.59)" id="img-ba24f0fd-230">
              <path d="M-0.46,-0.53 L 0.46 -0.53 0.46 0.53 -0.46 0.53 z" class="primitive"/>
            </g>
            <g transform="translate(65.4,130.8)" id="img-ba24f0fd-231">
              <path d="M-0.46,-0.32 L 0.46 -0.32 0.46 0.32 -0.46 0.32 z" class="primitive"/>
            </g>
            <g transform="translate(66.28,130.59)" id="img-ba24f0fd-232">
              <path d="M-0.46,-0.53 L 0.46 -0.53 0.46 0.53 -0.46 0.53 z" class="primitive"/>
            </g>
            <g transform="translate(67.16,130.8)" id="img-ba24f0fd-233">
              <path d="M-0.46,-0.32 L 0.46 -0.32 0.46 0.32 -0.46 0.32 z" class="primitive"/>
            </g>
            <g transform="translate(68.04,130.59)" id="img-ba24f0fd-234">
              <path d="M-0.46,-0.53 L 0.46 -0.53 0.46 0.53 -0.46 0.53 z" class="primitive"/>
            </g>
            <g transform="translate(68.92,131.01)" id="img-ba24f0fd-235">
              <path d="M-0.46,-0.11 L 0.46 -0.11 0.46 0.11 -0.46 0.11 z" class="primitive"/>
            </g>
            <g transform="translate(69.8,131.12)" id="img-ba24f0fd-236">
              <path d="M-0.46,-0 L 0.46 -0 0.46 0 -0.46 0 z" class="primitive"/>
            </g>
            <g transform="translate(70.68,131.01)" id="img-ba24f0fd-237">
              <path d="M-0.46,-0.11 L 0.46 -0.11 0.46 0.11 -0.46 0.11 z" class="primitive"/>
            </g>
            <g transform="translate(71.56,131.12)" id="img-ba24f0fd-238">
              <path d="M-0.46,-0 L 0.46 -0 0.46 0 -0.46 0 z" class="primitive"/>
            </g>
            <g transform="translate(72.44,131.01)" id="img-ba24f0fd-239">
              <path d="M-0.46,-0.11 L 0.46 -0.11 0.46 0.11 -0.46 0.11 z" class="primitive"/>
            </g>
            <g transform="translate(73.32,131.01)" id="img-ba24f0fd-240">
              <path d="M-0.46,-0.11 L 0.46 -0.11 0.46 0.11 -0.46 0.11 z" class="primitive"/>
            </g>
            <g transform="translate(74.2,131.12)" id="img-ba24f0fd-241">
              <path d="M-0.46,-0 L 0.46 -0 0.46 0 -0.46 0 z" class="primitive"/>
            </g>
            <g transform="translate(75.08,131.12)" id="img-ba24f0fd-242">
              <path d="M-0.46,-0 L 0.46 -0 0.46 0 -0.46 0 z" class="primitive"/>
            </g>
            <g transform="translate(75.96,131.12)" id="img-ba24f0fd-243">
              <path d="M-0.46,-0 L 0.46 -0 0.46 0 -0.46 0 z" class="primitive"/>
            </g>
            <g transform="translate(76.84,131.01)" id="img-ba24f0fd-244">
              <path d="M-0.46,-0.11 L 0.46 -0.11 0.46 0.11 -0.46 0.11 z" class="primitive"/>
            </g>
          </g>
        </g>
      </g>
    </g>
  </g>
  <g class="guide ylabels" font-size="2.82" font-family="'PT Sans Caption','Helvetica Neue','Helvetica',sans-serif" fill="#6C606B" id="img-ba24f0fd-245">
    <g transform="translate(18.63,131.11)" id="img-ba24f0fd-246">
      <g class="primitive">
        <text text-anchor="end" dy="0.35em">0</text>
      </g>
    </g>
    <g transform="translate(18.63,120.54)" id="img-ba24f0fd-247">
      <g class="primitive">
        <text text-anchor="end" dy="0.35em">50</text>
      </g>
    </g>
    <g transform="translate(18.63,109.96)" id="img-ba24f0fd-248">
      <g class="primitive">
        <text text-anchor="end" dy="0.35em">100</text>
      </g>
    </g>
    <g transform="translate(18.63,99.39)" id="img-ba24f0fd-249">
      <g class="primitive">
        <text text-anchor="end" dy="0.35em">150</text>
      </g>
    </g>
    <g transform="translate(18.63,88.81)" id="img-ba24f0fd-250">
      <g class="primitive">
        <text text-anchor="end" dy="0.35em">200</text>
      </g>
    </g>
  </g>
  <g font-size="3.88" font-family="'PT Sans','Helvetica Neue','Helvetica',sans-serif" fill="#564A55" stroke="#000000" stroke-opacity="0.000" id="img-ba24f0fd-251">
    <g transform="translate(8.81,107.96)" id="img-ba24f0fd-252">
      <g class="primitive">
        <text text-anchor="middle" dy="0.35em" transform="rotate(-90,0, 2)">Count</text>
      </g>
    </g>
  </g>
  <g font-size="3.88" font-family="'PT Sans','Helvetica Neue','Helvetica',sans-serif" fill="#564A55" stroke="#000000" stroke-opacity="0.000" id="img-ba24f0fd-253">
    <g transform="translate(49.65,81.2)" id="img-ba24f0fd-254">
      <g class="primitive">
        <text text-anchor="middle" dy="0.6em">XPP</text>
      </g>
    </g>
  </g>
</g>
<g font-size="7.06" font-family="Arial" id="img-ba24f0fd-255">
  <g transform="translate(127,38.1)" id="img-ba24f0fd-256">
    <g class="primitive">
      <text text-anchor="middle" dy="0.35em">Bastin’s measurements of borides</text>
    </g>
  </g>
</g>
<defs>
  <clipPath id="img-ba24f0fd-4">
    <path d="M188.96,86.81 L 249 86.81 249 133.11 188.96 133.11" />
  </clipPath>
  <clipPath id="img-ba24f0fd-92">
    <path d="M104.3,86.81 L 164.33 86.81 164.33 133.11 104.3 133.11" />
  </clipPath>
  <clipPath id="img-ba24f0fd-176">
    <path d="M19.63,86.81 L 79.67 86.81 79.67 133.11 19.63 133.11" />
  </clipPath>
</defs>
</svg>
