<?xml version="1.0" encoding="UTF-8"?>
<svg xmlns="http://www.w3.org/2000/svg"
     xmlns:xlink="http://www.w3.org/1999/xlink"
     xmlns:gadfly="http://www.gadflyjl.org/ns"
     version="1.2"
     width="254mm" height="152.4mm" viewBox="0 0 254 152.4"
     stroke="none"
     fill="#000000"
     stroke-width="0.3"
     font-size="3.88"
>
<defs>
  <marker id="arrow" markerWidth="15" markerHeight="7" refX="5" refY="3.5" orient="auto" markerUnits="strokeWidth">
    <path d="M0,0 L15,3.5 L0,7 z" stroke="context-stroke" fill="context-stroke"/>
  </marker>
</defs>
<g class="plotroot xscalable yscalable" id="img-c39e2699-1">
  <g font-size="3.88" font-family="'PT Sans','Helvetica Neue','Helvetica',sans-serif" fill="#564A55" stroke="#000000" stroke-opacity="0.000" id="img-c39e2699-2">
    <g transform="translate(218.15,140.79)">
      <g class="primitive">
        <text text-anchor="middle" dy="0.6em">kMeas/kCalc</text>
      </g>
    </g>
  </g>
  <g class="guide xlabels" font-size="2.82" font-family="'PT Sans Caption','Helvetica Neue','Helvetica',sans-serif" fill="#6C606B" id="img-c39e2699-3">
    <g transform="translate(189.29,134.11)">
      <g class="primitive">
        <text text-anchor="middle" dy="0.6em">0.0</text>
      </g>
    </g>
    <g transform="translate(203.72,134.11)">
      <g class="primitive">
        <text text-anchor="middle" dy="0.6em">0.5</text>
      </g>
    </g>
    <g transform="translate(218.15,134.11)">
      <g class="primitive">
        <text text-anchor="middle" dy="0.6em">1.0</text>
      </g>
    </g>
    <g transform="translate(232.57,134.11)">
      <g class="primitive">
        <text text-anchor="middle" dy="0.6em">1.5</text>
      </g>
    </g>
    <g transform="translate(247,134.11)">
      <g class="primitive">
        <text text-anchor="middle" dy="0.6em">2.0</text>
      </g>
    </g>
  </g>
  <g clip-path="url(#img-c39e2699-4)">
    <g id="img-c39e2699-5">
      <g pointer-events="visible" stroke-width="0.3" fill="#000000" fill-opacity="0.000" stroke="#000000" stroke-opacity="0.000" class="guide background" id="img-c39e2699-6">
        <g transform="translate(218.15,71.86)" id="img-c39e2699-7">
          <path d="M-30.85,-61.25 L 30.85 -61.25 30.85 61.25 -30.85 61.25 z" class="primitive"/>
        </g>
      </g>
      <g class="guide ygridlines xfixed" stroke-dasharray="0.5,0.5" stroke-width="0.2" stroke="#D0D0E0" id="img-c39e2699-8">
        <g transform="translate(218.15,131.11)" id="img-c39e2699-9">
          <path fill="none" d="M-30.85,0 L 30.85 0" class="primitive"/>
        </g>
        <g transform="translate(218.15,101.49)" id="img-c39e2699-10">
          <path fill="none" d="M-30.85,0 L 30.85 0" class="primitive"/>
        </g>
        <g transform="translate(218.15,71.86)" id="img-c39e2699-11">
          <path fill="none" d="M-30.85,0 L 30.85 0" class="primitive"/>
        </g>
        <g transform="translate(218.15,42.24)" id="img-c39e2699-12">
          <path fill="none" d="M-30.85,0 L 30.85 0" class="primitive"/>
        </g>
        <g transform="translate(218.15,12.61)" id="img-c39e2699-13">
          <path fill="none" d="M-30.85,0 L 30.85 0" class="primitive"/>
        </g>
      </g>
      <g class="guide xgridlines yfixed" stroke-dasharray="0.5,0.5" stroke-width="0.2" stroke="#D0D0E0" id="img-c39e2699-14">
        <g transform="translate(189.29,71.86)" id="img-c39e2699-15">
          <path fill="none" d="M0,-61.25 L 0 61.25" class="primitive"/>
        </g>
        <g transform="translate(203.72,71.86)" id="img-c39e2699-16">
          <path fill="none" d="M0,-61.25 L 0 61.25" class="primitive"/>
        </g>
        <g transform="translate(218.15,71.86)" id="img-c39e2699-17">
          <path fill="none" d="M0,-61.25 L 0 61.25" class="primitive"/>
        </g>
        <g transform="translate(232.57,71.86)" id="img-c39e2699-18">
          <path fill="none" d="M0,-61.25 L 0 61.25" class="primitive"/>
        </g>
        <g transform="translate(247,71.86)" id="img-c39e2699-19">
          <path fill="none" d="M0,-61.25 L 0 61.25" class="primitive"/>
        </g>
      </g>
      <g class="plotpanel" id="img-c39e2699-20">
        <metadata>
          <boundingbox value="187.29166666666666mm 10.611666666666665mm 61.70833333333332mm 122.50333333333332mm"/>
          <unitbox value="-0.0693140794223827 81.35017299091446 2.1386281588447655 -82.70034598182892"/>
        </metadata>
        <g shape-rendering="crispEdges" stroke-width="0.3" id="img-c39e2699-21">
          <g class="geometry" fill-opacity="1" stroke="#000000" stroke-opacity="0.000" fill="#00BFFF" id="img-c39e2699-22">
            <g transform="translate(217.4,125.93)" id="img-c39e2699-23">
              <path d="M-0.36,-5.18 L 0.36 -5.18 0.36 5.18 -0.36 5.18 z" class="primitive"/>
            </g>
            <g transform="translate(218.07,81.49)" id="img-c39e2699-24">
              <path d="M-0.36,-49.62 L 0.36 -49.62 0.36 49.62 -0.36 49.62 z" class="primitive"/>
            </g>
            <g transform="translate(218.73,98.53)" id="img-c39e2699-25">
              <path d="M-0.36,-32.59 L 0.36 -32.59 0.36 32.59 -0.36 32.59 z" class="primitive"/>
            </g>
            <g transform="translate(219.39,120.75)" id="img-c39e2699-26">
              <path d="M-0.36,-10.37 L 0.36 -10.37 0.36 10.37 -0.36 10.37 z" class="primitive"/>
            </g>
            <g transform="translate(220.05,128.15)" id="img-c39e2699-27">
              <path d="M-0.36,-2.96 L 0.36 -2.96 0.36 2.96 -0.36 2.96 z" class="primitive"/>
            </g>
            <g transform="translate(220.72,129.63)" id="img-c39e2699-28">
              <path d="M-0.36,-1.48 L 0.36 -1.48 0.36 1.48 -0.36 1.48 z" class="primitive"/>
            </g>
            <g transform="translate(221.38,121.49)" id="img-c39e2699-29">
              <path d="M-0.36,-9.63 L 0.36 -9.63 0.36 9.63 -0.36 9.63 z" class="primitive"/>
            </g>
            <g transform="translate(222.04,127.41)" id="img-c39e2699-30">
              <path d="M-0.36,-3.7 L 0.36 -3.7 0.36 3.7 -0.36 3.7 z" class="primitive"/>
            </g>
            <g transform="translate(222.7,123.71)" id="img-c39e2699-31">
              <path d="M-0.36,-7.41 L 0.36 -7.41 0.36 7.41 -0.36 7.41 z" class="primitive"/>
            </g>
            <g transform="translate(223.37,125.19)" id="img-c39e2699-32">
              <path d="M-0.36,-5.93 L 0.36 -5.93 0.36 5.93 -0.36 5.93 z" class="primitive"/>
            </g>
            <g transform="translate(224.03,130.37)" id="img-c39e2699-33">
              <path d="M-0.36,-0.74 L 0.36 -0.74 0.36 0.74 -0.36 0.74 z" class="primitive"/>
            </g>
            <g transform="translate(224.69,131.12)" id="img-c39e2699-34">
              <path d="M-0.36,-0 L 0.36 -0 0.36 0 -0.36 0 z" class="primitive"/>
            </g>
            <g transform="translate(225.35,131.12)" id="img-c39e2699-35">
              <path d="M-0.36,-0 L 0.36 -0 0.36 0 -0.36 0 z" class="primitive"/>
            </g>
            <g transform="translate(226.02,131.12)" id="img-c39e2699-36">
              <path d="M-0.36,-0 L 0.36 -0 0.36 0 -0.36 0 z" class="primitive"/>
            </g>
            <g transform="translate(226.68,131.12)" id="img-c39e2699-37">
              <path d="M-0.36,-0 L 0.36 -0 0.36 0 -0.36 0 z" class="primitive"/>
            </g>
            <g transform="translate(227.34,131.12)" id="img-c39e2699-38">
              <path d="M-0.36,-0 L 0.36 -0 0.36 0 -0.36 0 z" class="primitive"/>
            </g>
            <g transform="translate(228,131.12)" id="img-c39e2699-39">
              <path d="M-0.36,-0 L 0.36 -0 0.36 0 -0.36 0 z" class="primitive"/>
            </g>
            <g transform="translate(228.67,131.12)" id="img-c39e2699-40">
              <path d="M-0.36,-0 L 0.36 -0 0.36 0 -0.36 0 z" class="primitive"/>
            </g>
            <g transform="translate(229.33,131.12)" id="img-c39e2699-41">
              <path d="M-0.36,-0 L 0.36 -0 0.36 0 -0.36 0 z" class="primitive"/>
            </g>
            <g transform="translate(229.99,131.12)" id="img-c39e2699-42">
              <path d="M-0.36,-0 L 0.36 -0 0.36 0 -0.36 0 z" class="primitive"/>
            </g>
            <g transform="translate(230.65,131.12)" id="img-c39e2699-43">
              <path d="M-0.36,-0 L 0.36 -0 0.36 0 -0.36 0 z" class="primitive"/>
            </g>
            <g transform="translate(231.31,130.37)" id="img-c39e2699-44">
              <path d="M-0.36,-0.74 L 0.36 -0.74 0.36 0.74 -0.36 0.74 z" class="primitive"/>
            </g>
            <g transform="translate(231.98,131.12)" id="img-c39e2699-45">
              <path d="M-0.36,-0 L 0.36 -0 0.36 0 -0.36 0 z" class="primitive"/>
            </g>
            <g transform="translate(232.64,131.12)" id="img-c39e2699-46">
              <path d="M-0.36,-0 L 0.36 -0 0.36 0 -0.36 0 z" class="primitive"/>
            </g>
            <g transform="translate(233.3,131.12)" id="img-c39e2699-47">
              <path d="M-0.36,-0 L 0.36 -0 0.36 0 -0.36 0 z" class="primitive"/>
            </g>
            <g transform="translate(233.96,131.12)" id="img-c39e2699-48">
              <path d="M-0.36,-0 L 0.36 -0 0.36 0 -0.36 0 z" class="primitive"/>
            </g>
            <g transform="translate(234.63,131.12)" id="img-c39e2699-49">
              <path d="M-0.36,-0 L 0.36 -0 0.36 0 -0.36 0 z" class="primitive"/>
            </g>
            <g transform="translate(235.29,131.12)" id="img-c39e2699-50">
              <path d="M-0.36,-0 L 0.36 -0 0.36 0 -0.36 0 z" class="primitive"/>
            </g>
            <g transform="translate(235.95,130.37)" id="img-c39e2699-51">
              <path d="M-0.36,-0.74 L 0.36 -0.74 0.36 0.74 -0.36 0.74 z" class="primitive"/>
            </g>
            <g transform="translate(236.61,131.12)" id="img-c39e2699-52">
              <path d="M-0.36,-0 L 0.36 -0 0.36 0 -0.36 0 z" class="primitive"/>
            </g>
            <g transform="translate(237.28,131.12)" id="img-c39e2699-53">
              <path d="M-0.36,-0 L 0.36 -0 0.36 0 -0.36 0 z" class="primitive"/>
            </g>
            <g transform="translate(237.94,131.12)" id="img-c39e2699-54">
              <path d="M-0.36,-0 L 0.36 -0 0.36 0 -0.36 0 z" class="primitive"/>
            </g>
            <g transform="translate(238.6,131.12)" id="img-c39e2699-55">
              <path d="M-0.36,-0 L 0.36 -0 0.36 0 -0.36 0 z" class="primitive"/>
            </g>
            <g transform="translate(239.26,131.12)" id="img-c39e2699-56">
              <path d="M-0.36,-0 L 0.36 -0 0.36 0 -0.36 0 z" class="primitive"/>
            </g>
            <g transform="translate(239.93,131.12)" id="img-c39e2699-57">
              <path d="M-0.36,-0 L 0.36 -0 0.36 0 -0.36 0 z" class="primitive"/>
            </g>
            <g transform="translate(240.59,130.37)" id="img-c39e2699-58">
              <path d="M-0.36,-0.74 L 0.36 -0.74 0.36 0.74 -0.36 0.74 z" class="primitive"/>
            </g>
            <g transform="translate(241.25,131.12)" id="img-c39e2699-59">
              <path d="M-0.36,-0 L 0.36 -0 0.36 0 -0.36 0 z" class="primitive"/>
            </g>
            <g transform="translate(241.91,131.12)" id="img-c39e2699-60">
              <path d="M-0.36,-0 L 0.36 -0 0.36 0 -0.36 0 z" class="primitive"/>
            </g>
            <g transform="translate(242.58,131.12)" id="img-c39e2699-61">
              <path d="M-0.36,-0 L 0.36 -0 0.36 0 -0.36 0 z" class="primitive"/>
            </g>
            <g transform="translate(243.24,131.12)" id="img-c39e2699-62">
              <path d="M-0.36,-0 L 0.36 -0 0.36 0 -0.36 0 z" class="primitive"/>
            </g>
            <g transform="translate(243.9,131.12)" id="img-c39e2699-63">
              <path d="M-0.36,-0 L 0.36 -0 0.36 0 -0.36 0 z" class="primitive"/>
            </g>
            <g transform="translate(244.56,130.37)" id="img-c39e2699-64">
              <path d="M-0.36,-0.74 L 0.36 -0.74 0.36 0.74 -0.36 0.74 z" class="primitive"/>
            </g>
            <g transform="translate(245.23,131.12)" id="img-c39e2699-65">
              <path d="M-0.36,-0 L 0.36 -0 0.36 0 -0.36 0 z" class="primitive"/>
            </g>
            <g transform="translate(245.89,131.12)" id="img-c39e2699-66">
              <path d="M-0.36,-0 L 0.36 -0 0.36 0 -0.36 0 z" class="primitive"/>
            </g>
            <g transform="translate(246.55,131.12)" id="img-c39e2699-67">
              <path d="M-0.36,-0 L 0.36 -0 0.36 0 -0.36 0 z" class="primitive"/>
            </g>
            <g transform="translate(247.21,130.37)" id="img-c39e2699-68">
              <path d="M-0.36,-0.74 L 0.36 -0.74 0.36 0.74 -0.36 0.74 z" class="primitive"/>
            </g>
            <g transform="translate(247.88,131.12)" id="img-c39e2699-69">
              <path d="M-0.36,-0 L 0.36 -0 0.36 0 -0.36 0 z" class="primitive"/>
            </g>
            <g transform="translate(248.54,131.12)" id="img-c39e2699-70">
              <path d="M-0.36,-0 L 0.36 -0 0.36 0 -0.36 0 z" class="primitive"/>
            </g>
            <g transform="translate(249.2,131.12)" id="img-c39e2699-71">
              <path d="M-0.36,-0 L 0.36 -0 0.36 0 -0.36 0 z" class="primitive"/>
            </g>
            <g transform="translate(249.86,130.37)" id="img-c39e2699-72">
              <path d="M-0.36,-0.74 L 0.36 -0.74 0.36 0.74 -0.36 0.74 z" class="primitive"/>
            </g>
          </g>
        </g>
      </g>
    </g>
  </g>
  <g class="guide ylabels" font-size="2.82" font-family="'PT Sans Caption','Helvetica Neue','Helvetica',sans-serif" fill="#6C606B" id="img-c39e2699-73">
    <g transform="translate(186.29,131.11)" id="img-c39e2699-74">
      <g class="primitive">
        <text text-anchor="end" dy="0.35em">0</text>
      </g>
    </g>
    <g transform="translate(186.29,101.49)" id="img-c39e2699-75">
      <g class="primitive">
        <text text-anchor="end" dy="0.35em">20</text>
      </g>
    </g>
    <g transform="translate(186.29,71.86)" id="img-c39e2699-76">
      <g class="primitive">
        <text text-anchor="end" dy="0.35em">40</text>
      </g>
    </g>
    <g transform="translate(186.29,42.24)" id="img-c39e2699-77">
      <g class="primitive">
        <text text-anchor="end" dy="0.35em">60</text>
      </g>
    </g>
    <g transform="translate(186.29,12.61)" id="img-c39e2699-78">
      <g class="primitive">
        <text text-anchor="end" dy="0.35em">80</text>
      </g>
    </g>
  </g>
  <g font-size="3.88" font-family="'PT Sans','Helvetica Neue','Helvetica',sans-serif" fill="#564A55" stroke="#000000" stroke-opacity="0.000" id="img-c39e2699-79">
    <g transform="translate(178.14,69.86)" id="img-c39e2699-80">
      <g class="primitive">
        <text text-anchor="middle" dy="0.35em" transform="rotate(-90,0, 2)">Count</text>
      </g>
    </g>
  </g>
  <g font-size="3.88" font-family="'PT Sans','Helvetica Neue','Helvetica',sans-serif" fill="#564A55" stroke="#000000" stroke-opacity="0.000" id="img-c39e2699-81">
    <g transform="translate(218.15,5)" id="img-c39e2699-82">
      <g class="primitive">
        <text text-anchor="middle" dy="0.6em">Riveros</text>
      </g>
    </g>
  </g>
</g>
<g class="plotroot xscalable yscalable" id="img-c39e2699-83">
  <g font-size="3.88" font-family="'PT Sans','Helvetica Neue','Helvetica',sans-serif" fill="#564A55" stroke="#000000" stroke-opacity="0.000" id="img-c39e2699-84">
    <g transform="translate(133.48,140.79)" id="img-c39e2699-85">
      <g class="primitive">
        <text text-anchor="middle" dy="0.6em">kMeas/kCalc</text>
      </g>
    </g>
  </g>
  <g class="guide xlabels" font-size="2.82" font-family="'PT Sans Caption','Helvetica Neue','Helvetica',sans-serif" fill="#6C606B" id="img-c39e2699-86">
    <g transform="translate(104.62,134.11)" id="img-c39e2699-87">
      <g class="primitive">
        <text text-anchor="middle" dy="0.6em">0.0</text>
      </g>
    </g>
    <g transform="translate(119.05,134.11)" id="img-c39e2699-88">
      <g class="primitive">
        <text text-anchor="middle" dy="0.6em">0.5</text>
      </g>
    </g>
    <g transform="translate(133.48,134.11)" id="img-c39e2699-89">
      <g class="primitive">
        <text text-anchor="middle" dy="0.6em">1.0</text>
      </g>
    </g>
    <g transform="translate(147.91,134.11)" id="img-c39e2699-90">
      <g class="primitive">
        <text text-anchor="middle" dy="0.6em">1.5</text>
      </g>
    </g>
    <g transform="translate(162.33,134.11)" id="img-c39e2699-91">
      <g class="primitive">
        <text text-anchor="middle" dy="0.6em">2.0</text>
      </g>
    </g>
  </g>
  <g clip-path="url(#img-c39e2699-92)">
    <g id="img-c39e2699-93">
      <g pointer-events="visible" stroke-width="0.3" fill="#000000" fill-opacity="0.000" stroke="#000000" stroke-opacity="0.000" class="guide background" id="img-c39e2699-94">
        <g transform="translate(133.48,71.86)" id="img-c39e2699-95">
          <path d="M-30.85,-61.25 L 30.85 -61.25 30.85 61.25 -30.85 61.25 z" class="primitive"/>
        </g>
      </g>
      <g class="guide ygridlines xfixed" stroke-dasharray="0.5,0.5" stroke-width="0.2" stroke="#D0D0E0" id="img-c39e2699-96">
        <g transform="translate(133.48,131.12)" id="img-c39e2699-97">
          <path fill="none" d="M-30.85,0 L 30.85 0" class="primitive"/>
        </g>
        <g transform="translate(133.48,111.36)" id="img-c39e2699-98">
          <path fill="none" d="M-30.85,0 L 30.85 0" class="primitive"/>
        </g>
        <g transform="translate(133.48,91.61)" id="img-c39e2699-99">
          <path fill="none" d="M-30.85,0 L 30.85 0" class="primitive"/>
        </g>
        <g transform="translate(133.48,71.86)" id="img-c39e2699-100">
          <path fill="none" d="M-30.85,0 L 30.85 0" class="primitive"/>
        </g>
        <g transform="translate(133.48,52.11)" id="img-c39e2699-101">
          <path fill="none" d="M-30.85,0 L 30.85 0" class="primitive"/>
        </g>
        <g transform="translate(133.48,32.36)" id="img-c39e2699-102">
          <path fill="none" d="M-30.85,0 L 30.85 0" class="primitive"/>
        </g>
        <g transform="translate(133.48,12.61)" id="img-c39e2699-103">
          <path fill="none" d="M-30.85,0 L 30.85 0" class="primitive"/>
        </g>
      </g>
      <g class="guide xgridlines yfixed" stroke-dasharray="0.5,0.5" stroke-width="0.2" stroke="#D0D0E0" id="img-c39e2699-104">
        <g transform="translate(104.62,71.86)" id="img-c39e2699-105">
          <path fill="none" d="M0,-61.25 L 0 61.25" class="primitive"/>
        </g>
        <g transform="translate(119.05,71.86)" id="img-c39e2699-106">
          <path fill="none" d="M0,-61.25 L 0 61.25" class="primitive"/>
        </g>
        <g transform="translate(133.48,71.86)" id="img-c39e2699-107">
          <path fill="none" d="M0,-61.25 L 0 61.25" class="primitive"/>
        </g>
        <g transform="translate(147.91,71.86)" id="img-c39e2699-108">
          <path fill="none" d="M0,-61.25 L 0 61.25" class="primitive"/>
        </g>
        <g transform="translate(162.33,71.86)" id="img-c39e2699-109">
          <path fill="none" d="M0,-61.25 L 0 61.25" class="primitive"/>
        </g>
      </g>
      <g class="plotpanel" id="img-c39e2699-110">
        <metadata>
          <boundingbox value="102.625mm 10.611666666666679mm 61.70833333333332mm 122.50333333333333mm"/>
          <unitbox value="-0.0693140794223827 61.01262974318585 2.1386281588447655 -62.025259486371695"/>
        </metadata>
        <g shape-rendering="crispEdges" stroke-width="0.3" id="img-c39e2699-111">
          <g class="geometry" fill-opacity="1" stroke="#000000" stroke-opacity="0.000" fill="#00BFFF" id="img-c39e2699-112">
            <g transform="translate(131.52,125.19)" id="img-c39e2699-113">
              <path d="M-0.4,-5.93 L 0.4 -5.93 0.4 5.93 -0.4 5.93 z" class="primitive"/>
            </g>
            <g transform="translate(132.28,116.3)" id="img-c39e2699-114">
              <path d="M-0.4,-14.81 L 0.4 -14.81 0.4 14.81 -0.4 14.81 z" class="primitive"/>
            </g>
            <g transform="translate(133.04,75.81)" id="img-c39e2699-115">
              <path d="M-0.4,-55.3 L 0.4 -55.3 0.4 55.3 -0.4 55.3 z" class="primitive"/>
            </g>
            <g transform="translate(133.8,71.86)" id="img-c39e2699-116">
              <path d="M-0.4,-59.25 L 0.4 -59.25 0.4 59.25 -0.4 59.25 z" class="primitive"/>
            </g>
            <g transform="translate(134.56,105.44)" id="img-c39e2699-117">
              <path d="M-0.4,-25.68 L 0.4 -25.68 0.4 25.68 -0.4 25.68 z" class="primitive"/>
            </g>
            <g transform="translate(135.32,124.2)" id="img-c39e2699-118">
              <path d="M-0.4,-6.91 L 0.4 -6.91 0.4 6.91 -0.4 6.91 z" class="primitive"/>
            </g>
            <g transform="translate(136.08,128.15)" id="img-c39e2699-119">
              <path d="M-0.4,-2.96 L 0.4 -2.96 0.4 2.96 -0.4 2.96 z" class="primitive"/>
            </g>
            <g transform="translate(136.84,130.13)" id="img-c39e2699-120">
              <path d="M-0.4,-0.99 L 0.4 -0.99 0.4 0.99 -0.4 0.99 z" class="primitive"/>
            </g>
            <g transform="translate(137.6,130.13)" id="img-c39e2699-121">
              <path d="M-0.4,-0.99 L 0.4 -0.99 0.4 0.99 -0.4 0.99 z" class="primitive"/>
            </g>
            <g transform="translate(138.36,131.12)" id="img-c39e2699-122">
              <path d="M-0.4,-0 L 0.4 -0 0.4 0 -0.4 0 z" class="primitive"/>
            </g>
            <g transform="translate(139.12,131.12)" id="img-c39e2699-123">
              <path d="M-0.4,-0 L 0.4 -0 0.4 0 -0.4 0 z" class="primitive"/>
            </g>
            <g transform="translate(139.88,131.12)" id="img-c39e2699-124">
              <path d="M-0.4,-0 L 0.4 -0 0.4 0 -0.4 0 z" class="primitive"/>
            </g>
            <g transform="translate(140.64,131.12)" id="img-c39e2699-125">
              <path d="M-0.4,-0 L 0.4 -0 0.4 0 -0.4 0 z" class="primitive"/>
            </g>
            <g transform="translate(141.4,131.12)" id="img-c39e2699-126">
              <path d="M-0.4,-0 L 0.4 -0 0.4 0 -0.4 0 z" class="primitive"/>
            </g>
            <g transform="translate(142.16,131.12)" id="img-c39e2699-127">
              <path d="M-0.4,-0 L 0.4 -0 0.4 0 -0.4 0 z" class="primitive"/>
            </g>
            <g transform="translate(142.92,130.13)" id="img-c39e2699-128">
              <path d="M-0.4,-0.99 L 0.4 -0.99 0.4 0.99 -0.4 0.99 z" class="primitive"/>
            </g>
            <g transform="translate(143.68,131.12)" id="img-c39e2699-129">
              <path d="M-0.4,-0 L 0.4 -0 0.4 0 -0.4 0 z" class="primitive"/>
            </g>
            <g transform="translate(144.44,131.12)" id="img-c39e2699-130">
              <path d="M-0.4,-0 L 0.4 -0 0.4 0 -0.4 0 z" class="primitive"/>
            </g>
            <g transform="translate(145.2,131.12)" id="img-c39e2699-131">
              <path d="M-0.4,-0 L 0.4 -0 0.4 0 -0.4 0 z" class="primitive"/>
            </g>
            <g transform="translate(145.96,131.12)" id="img-c39e2699-132">
              <path d="M-0.4,-0 L 0.4 -0 0.4 0 -0.4 0 z" class="primitive"/>
            </g>
            <g transform="translate(146.72,131.12)" id="img-c39e2699-133">
              <path d="M-0.4,-0 L 0.4 -0 0.4 0 -0.4 0 z" class="primitive"/>
            </g>
            <g transform="translate(147.48,131.12)" id="img-c39e2699-134">
              <path d="M-0.4,-0 L 0.4 -0 0.4 0 -0.4 0 z" class="primitive"/>
            </g>
            <g transform="translate(148.24,131.12)" id="img-c39e2699-135">
              <path d="M-0.4,-0 L 0.4 -0 0.4 0 -0.4 0 z" class="primitive"/>
            </g>
            <g transform="translate(149,131.12)" id="img-c39e2699-136">
              <path d="M-0.4,-0 L 0.4 -0 0.4 0 -0.4 0 z" class="primitive"/>
            </g>
            <g transform="translate(149.76,130.13)" id="img-c39e2699-137">
              <path d="M-0.4,-0.99 L 0.4 -0.99 0.4 0.99 -0.4 0.99 z" class="primitive"/>
            </g>
            <g transform="translate(150.52,131.12)" id="img-c39e2699-138">
              <path d="M-0.4,-0 L 0.4 -0 0.4 0 -0.4 0 z" class="primitive"/>
            </g>
            <g transform="translate(151.28,131.12)" id="img-c39e2699-139">
              <path d="M-0.4,-0 L 0.4 -0 0.4 0 -0.4 0 z" class="primitive"/>
            </g>
            <g transform="translate(152.04,131.12)" id="img-c39e2699-140">
              <path d="M-0.4,-0 L 0.4 -0 0.4 0 -0.4 0 z" class="primitive"/>
            </g>
            <g transform="translate(152.8,131.12)" id="img-c39e2699-141">
              <path d="M-0.4,-0 L 0.4 -0 0.4 0 -0.4 0 z" class="primitive"/>
            </g>
            <g transform="translate(153.56,131.12)" id="img-c39e2699-142">
              <path d="M-0.4,-0 L 0.4 -0 0.4 0 -0.4 0 z" class="primitive"/>
            </g>
            <g transform="translate(154.32,131.12)" id="img-c39e2699-143">
              <path d="M-0.4,-0 L 0.4 -0 0.4 0 -0.4 0 z" class="primitive"/>
            </g>
            <g transform="translate(155.08,131.12)" id="img-c39e2699-144">
              <path d="M-0.4,-0 L 0.4 -0 0.4 0 -0.4 0 z" class="primitive"/>
            </g>
            <g transform="translate(155.84,131.12)" id="img-c39e2699-145">
              <path d="M-0.4,-0 L 0.4 -0 0.4 0 -0.4 0 z" class="primitive"/>
            </g>
            <g transform="translate(156.6,130.13)" id="img-c39e2699-146">
              <path d="M-0.4,-0.99 L 0.4 -0.99 0.4 0.99 -0.4 0.99 z" class="primitive"/>
            </g>
            <g transform="translate(157.36,131.12)" id="img-c39e2699-147">
              <path d="M-0.4,-0 L 0.4 -0 0.4 0 -0.4 0 z" class="primitive"/>
            </g>
            <g transform="translate(158.12,131.12)" id="img-c39e2699-148">
              <path d="M-0.4,-0 L 0.4 -0 0.4 0 -0.4 0 z" class="primitive"/>
            </g>
            <g transform="translate(158.88,131.12)" id="img-c39e2699-149">
              <path d="M-0.4,-0 L 0.4 -0 0.4 0 -0.4 0 z" class="primitive"/>
            </g>
            <g transform="translate(159.64,131.12)" id="img-c39e2699-150">
              <path d="M-0.4,-0 L 0.4 -0 0.4 0 -0.4 0 z" class="primitive"/>
            </g>
            <g transform="translate(160.4,131.12)" id="img-c39e2699-151">
              <path d="M-0.4,-0 L 0.4 -0 0.4 0 -0.4 0 z" class="primitive"/>
            </g>
            <g transform="translate(161.16,131.12)" id="img-c39e2699-152">
              <path d="M-0.4,-0 L 0.4 -0 0.4 0 -0.4 0 z" class="primitive"/>
            </g>
            <g transform="translate(161.92,130.13)" id="img-c39e2699-153">
              <path d="M-0.4,-0.99 L 0.4 -0.99 0.4 0.99 -0.4 0.99 z" class="primitive"/>
            </g>
            <g transform="translate(162.68,131.12)" id="img-c39e2699-154">
              <path d="M-0.4,-0 L 0.4 -0 0.4 0 -0.4 0 z" class="primitive"/>
            </g>
            <g transform="translate(163.44,131.12)" id="img-c39e2699-155">
              <path d="M-0.4,-0 L 0.4 -0 0.4 0 -0.4 0 z" class="primitive"/>
            </g>
            <g transform="translate(164.2,131.12)" id="img-c39e2699-156">
              <path d="M-0.4,-0 L 0.4 -0 0.4 0 -0.4 0 z" class="primitive"/>
            </g>
            <g transform="translate(164.96,131.12)" id="img-c39e2699-157">
              <path d="M-0.4,-0 L 0.4 -0 0.4 0 -0.4 0 z" class="primitive"/>
            </g>
            <g transform="translate(165.72,130.13)" id="img-c39e2699-158">
              <path d="M-0.4,-0.99 L 0.4 -0.99 0.4 0.99 -0.4 0.99 z" class="primitive"/>
            </g>
            <g transform="translate(166.48,131.12)" id="img-c39e2699-159">
              <path d="M-0.4,-0 L 0.4 -0 0.4 0 -0.4 0 z" class="primitive"/>
            </g>
            <g transform="translate(167.24,131.12)" id="img-c39e2699-160">
              <path d="M-0.4,-0 L 0.4 -0 0.4 0 -0.4 0 z" class="primitive"/>
            </g>
            <g transform="translate(168,131.12)" id="img-c39e2699-161">
              <path d="M-0.4,-0 L 0.4 -0 0.4 0 -0.4 0 z" class="primitive"/>
            </g>
            <g transform="translate(168.76,130.13)" id="img-c39e2699-162">
              <path d="M-0.4,-0.99 L 0.4 -0.99 0.4 0.99 -0.4 0.99 z" class="primitive"/>
            </g>
          </g>
        </g>
      </g>
    </g>
  </g>
  <g class="guide ylabels" font-size="2.82" font-family="'PT Sans Caption','Helvetica Neue','Helvetica',sans-serif" fill="#6C606B" id="img-c39e2699-163">
    <g transform="translate(101.62,131.12)" id="img-c39e2699-164">
      <g class="primitive">
        <text text-anchor="end" dy="0.35em">0</text>
      </g>
    </g>
    <g transform="translate(101.62,111.36)" id="img-c39e2699-165">
      <g class="primitive">
        <text text-anchor="end" dy="0.35em">10</text>
      </g>
    </g>
    <g transform="translate(101.62,91.61)" id="img-c39e2699-166">
      <g class="primitive">
        <text text-anchor="end" dy="0.35em">20</text>
      </g>
    </g>
    <g transform="translate(101.62,71.86)" id="img-c39e2699-167">
      <g class="primitive">
        <text text-anchor="end" dy="0.35em">30</text>
      </g>
    </g>
    <g transform="translate(101.62,52.11)" id="img-c39e2699-168">
      <g class="primitive">
        <text text-anchor="end" dy="0.35em">40</text>
      </g>
    </g>
    <g transform="translate(101.62,32.36)" id="img-c39e2699-169">
      <g class="primitive">
        <text text-anchor="end" dy="0.35em">50</text>
      </g>
    </g>
    <g transform="translate(101.62,12.61)" id="img-c39e2699-170">
      <g class="primitive">
        <text text-anchor="end" dy="0.35em">60</text>
      </g>
    </g>
  </g>
  <g font-size="3.88" font-family="'PT Sans','Helvetica Neue','Helvetica',sans-serif" fill="#564A55" stroke="#000000" stroke-opacity="0.000" id="img-c39e2699-171">
    <g transform="translate(93.47,69.86)" id="img-c39e2699-172">
      <g class="primitive">
        <text text-anchor="middle" dy="0.35em" transform="rotate(-90,0, 2)">Count</text>
      </g>
    </g>
  </g>
  <g font-size="3.88" font-family="'PT Sans','Helvetica Neue','Helvetica',sans-serif" fill="#564A55" stroke="#000000" stroke-opacity="0.000" id="img-c39e2699-173">
    <g transform="translate(133.48,5)" id="img-c39e2699-174">
      <g class="primitive">
        <text text-anchor="middle" dy="0.6em">CitZAF</text>
      </g>
    </g>
  </g>
</g>
<g class="plotroot xscalable yscalable" id="img-c39e2699-175">
  <g font-size="3.88" font-family="'PT Sans','Helvetica Neue','Helvetica',sans-serif" fill="#564A55" stroke="#000000" stroke-opacity="0.000" id="img-c39e2699-176">
    <g transform="translate(49.65,140.79)" id="img-c39e2699-177">
      <g class="primitive">
        <text text-anchor="middle" dy="0.6em">kMeas/kCalc</text>
      </g>
    </g>
  </g>
  <g class="guide xlabels" font-size="2.82" font-family="'PT Sans Caption','Helvetica Neue','Helvetica',sans-serif" fill="#6C606B" id="img-c39e2699-178">
    <g transform="translate(21.63,134.11)" id="img-c39e2699-179">
      <g class="primitive">
        <text text-anchor="middle" dy="0.6em">0.0</text>
      </g>
    </g>
    <g transform="translate(35.64,134.11)" id="img-c39e2699-180">
      <g class="primitive">
        <text text-anchor="middle" dy="0.6em">0.5</text>
      </g>
    </g>
    <g transform="translate(49.65,134.11)" id="img-c39e2699-181">
      <g class="primitive">
        <text text-anchor="middle" dy="0.6em">1.0</text>
      </g>
    </g>
    <g transform="translate(63.66,134.11)" id="img-c39e2699-182">
      <g class="primitive">
        <text text-anchor="middle" dy="0.6em">1.5</text>
      </g>
    </g>
    <g transform="translate(77.67,134.11)" id="img-c39e2699-183">
      <g class="primitive">
        <text text-anchor="middle" dy="0.6em">2.0</text>
      </g>
    </g>
  </g>
  <g clip-path="url(#img-c39e2699-184)">
    <g id="img-c39e2699-185">
      <g pointer-events="visible" stroke-width="0.3" fill="#000000" fill-opacity="0.000" stroke="#000000" stroke-opacity="0.000" class="guide background" id="img-c39e2699-186">
        <g transform="translate(49.65,71.86)" id="img-c39e2699-187">
          <path d="M-30.02,-61.25 L 30.02 -61.25 30.02 61.25 -30.02 61.25 z" class="primitive"/>
        </g>
      </g>
      <g class="guide ygridlines xfixed" stroke-dasharray="0.5,0.5" stroke-width="0.2" stroke="#D0D0E0" id="img-c39e2699-188">
        <g transform="translate(49.65,131.11)" id="img-c39e2699-189">
          <path fill="none" d="M-30.02,0 L 30.02 0" class="primitive"/>
        </g>
        <g transform="translate(49.65,71.86)" id="img-c39e2699-190">
          <path fill="none" d="M-30.02,0 L 30.02 0" class="primitive"/>
        </g>
        <g transform="translate(49.65,12.61)" id="img-c39e2699-191">
          <path fill="none" d="M-30.02,0 L 30.02 0" class="primitive"/>
        </g>
      </g>
      <g class="guide xgridlines yfixed" stroke-dasharray="0.5,0.5" stroke-width="0.2" stroke="#D0D0E0" id="img-c39e2699-192">
        <g transform="translate(21.63,71.86)" id="img-c39e2699-193">
          <path fill="none" d="M0,-61.25 L 0 61.25" class="primitive"/>
        </g>
        <g transform="translate(35.64,71.86)" id="img-c39e2699-194">
          <path fill="none" d="M0,-61.25 L 0 61.25" class="primitive"/>
        </g>
        <g transform="translate(49.65,71.86)" id="img-c39e2699-195">
          <path fill="none" d="M0,-61.25 L 0 61.25" class="primitive"/>
        </g>
        <g transform="translate(63.66,71.86)" id="img-c39e2699-196">
          <path fill="none" d="M0,-61.25 L 0 61.25" class="primitive"/>
        </g>
        <g transform="translate(77.67,71.86)" id="img-c39e2699-197">
          <path fill="none" d="M0,-61.25 L 0 61.25" class="primitive"/>
        </g>
      </g>
      <g class="plotpanel" id="img-c39e2699-198">
        <metadata>
          <boundingbox value="19.631666666666668mm 10.611666666666665mm 60.03499999999999mm 122.50333333333332mm"/>
          <unitbox value="-0.07138395645578657 101.68771623864308 2.142767912911573 -103.37543247728615"/>
        </metadata>
        <g shape-rendering="crispEdges" stroke-width="0.3" id="img-c39e2699-199">
          <g class="geometry" fill-opacity="1" stroke="#000000" stroke-opacity="0.000" fill="#00BFFF" id="img-c39e2699-200">
            <g transform="translate(48.7,128.74)" id="img-c39e2699-201">
              <path d="M-0.31,-2.37 L 0.31 -2.37 0.31 2.37 -0.31 2.37 z" class="primitive"/>
            </g>
            <g transform="translate(49.28,117.49)" id="img-c39e2699-202">
              <path d="M-0.31,-13.63 L 0.31 -13.63 0.31 13.63 -0.31 13.63 z" class="primitive"/>
            </g>
            <g transform="translate(49.86,76.6)" id="img-c39e2699-203">
              <path d="M-0.31,-54.51 L 0.31 -54.51 0.31 54.51 -0.31 54.51 z" class="primitive"/>
            </g>
            <g transform="translate(50.44,121.63)" id="img-c39e2699-204">
              <path d="M-0.31,-9.48 L 0.31 -9.48 0.31 9.48 -0.31 9.48 z" class="primitive"/>
            </g>
            <g transform="translate(51.01,129.93)" id="img-c39e2699-205">
              <path d="M-0.31,-1.19 L 0.31 -1.19 0.31 1.19 -0.31 1.19 z" class="primitive"/>
            </g>
            <g transform="translate(51.59,126.97)" id="img-c39e2699-206">
              <path d="M-0.31,-4.15 L 0.31 -4.15 0.31 4.15 -0.31 4.15 z" class="primitive"/>
            </g>
            <g transform="translate(52.17,119.86)" id="img-c39e2699-207">
              <path d="M-0.31,-11.26 L 0.31 -11.26 0.31 11.26 -0.31 11.26 z" class="primitive"/>
            </g>
            <g transform="translate(52.74,125.78)" id="img-c39e2699-208">
              <path d="M-0.31,-5.33 L 0.31 -5.33 0.31 5.33 -0.31 5.33 z" class="primitive"/>
            </g>
            <g transform="translate(53.32,129.34)" id="img-c39e2699-209">
              <path d="M-0.31,-1.78 L 0.31 -1.78 0.31 1.78 -0.31 1.78 z" class="primitive"/>
            </g>
            <g transform="translate(53.9,131.12)" id="img-c39e2699-210">
              <path d="M-0.31,-0 L 0.31 -0 0.31 0 -0.31 0 z" class="primitive"/>
            </g>
            <g transform="translate(54.48,131.12)" id="img-c39e2699-211">
              <path d="M-0.31,-0 L 0.31 -0 0.31 0 -0.31 0 z" class="primitive"/>
            </g>
            <g transform="translate(55.05,131.12)" id="img-c39e2699-212">
              <path d="M-0.31,-0 L 0.31 -0 0.31 0 -0.31 0 z" class="primitive"/>
            </g>
            <g transform="translate(55.63,131.12)" id="img-c39e2699-213">
              <path d="M-0.31,-0 L 0.31 -0 0.31 0 -0.31 0 z" class="primitive"/>
            </g>
            <g transform="translate(56.21,131.12)" id="img-c39e2699-214">
              <path d="M-0.31,-0 L 0.31 -0 0.31 0 -0.31 0 z" class="primitive"/>
            </g>
            <g transform="translate(56.78,131.12)" id="img-c39e2699-215">
              <path d="M-0.31,-0 L 0.31 -0 0.31 0 -0.31 0 z" class="primitive"/>
            </g>
            <g transform="translate(57.36,131.12)" id="img-c39e2699-216">
              <path d="M-0.31,-0 L 0.31 -0 0.31 0 -0.31 0 z" class="primitive"/>
            </g>
            <g transform="translate(57.94,131.12)" id="img-c39e2699-217">
              <path d="M-0.31,-0 L 0.31 -0 0.31 0 -0.31 0 z" class="primitive"/>
            </g>
            <g transform="translate(58.52,130.52)" id="img-c39e2699-218">
              <path d="M-0.31,-0.59 L 0.31 -0.59 0.31 0.59 -0.31 0.59 z" class="primitive"/>
            </g>
            <g transform="translate(59.09,131.12)" id="img-c39e2699-219">
              <path d="M-0.31,-0 L 0.31 -0 0.31 0 -0.31 0 z" class="primitive"/>
            </g>
            <g transform="translate(59.67,131.12)" id="img-c39e2699-220">
              <path d="M-0.31,-0 L 0.31 -0 0.31 0 -0.31 0 z" class="primitive"/>
            </g>
            <g transform="translate(60.25,131.12)" id="img-c39e2699-221">
              <path d="M-0.31,-0 L 0.31 -0 0.31 0 -0.31 0 z" class="primitive"/>
            </g>
            <g transform="translate(60.83,131.12)" id="img-c39e2699-222">
              <path d="M-0.31,-0 L 0.31 -0 0.31 0 -0.31 0 z" class="primitive"/>
            </g>
            <g transform="translate(61.4,131.12)" id="img-c39e2699-223">
              <path d="M-0.31,-0 L 0.31 -0 0.31 0 -0.31 0 z" class="primitive"/>
            </g>
            <g transform="translate(61.98,131.12)" id="img-c39e2699-224">
              <path d="M-0.31,-0 L 0.31 -0 0.31 0 -0.31 0 z" class="primitive"/>
            </g>
            <g transform="translate(62.56,130.52)" id="img-c39e2699-225">
              <path d="M-0.31,-0.59 L 0.31 -0.59 0.31 0.59 -0.31 0.59 z" class="primitive"/>
            </g>
            <g transform="translate(63.13,131.12)" id="img-c39e2699-226">
              <path d="M-0.31,-0 L 0.31 -0 0.31 0 -0.31 0 z" class="primitive"/>
            </g>
            <g transform="translate(63.71,131.12)" id="img-c39e2699-227">
              <path d="M-0.31,-0 L 0.31 -0 0.31 0 -0.31 0 z" class="primitive"/>
            </g>
            <g transform="translate(64.29,131.12)" id="img-c39e2699-228">
              <path d="M-0.31,-0 L 0.31 -0 0.31 0 -0.31 0 z" class="primitive"/>
            </g>
            <g transform="translate(64.87,131.12)" id="img-c39e2699-229">
              <path d="M-0.31,-0 L 0.31 -0 0.31 0 -0.31 0 z" class="primitive"/>
            </g>
            <g transform="translate(65.44,131.12)" id="img-c39e2699-230">
              <path d="M-0.31,-0 L 0.31 -0 0.31 0 -0.31 0 z" class="primitive"/>
            </g>
            <g transform="translate(66.02,131.12)" id="img-c39e2699-231">
              <path d="M-0.31,-0 L 0.31 -0 0.31 0 -0.31 0 z" class="primitive"/>
            </g>
            <g transform="translate(66.6,130.52)" id="img-c39e2699-232">
              <path d="M-0.31,-0.59 L 0.31 -0.59 0.31 0.59 -0.31 0.59 z" class="primitive"/>
            </g>
            <g transform="translate(67.17,131.12)" id="img-c39e2699-233">
              <path d="M-0.31,-0 L 0.31 -0 0.31 0 -0.31 0 z" class="primitive"/>
            </g>
            <g transform="translate(67.75,131.12)" id="img-c39e2699-234">
              <path d="M-0.31,-0 L 0.31 -0 0.31 0 -0.31 0 z" class="primitive"/>
            </g>
            <g transform="translate(68.33,131.12)" id="img-c39e2699-235">
              <path d="M-0.31,-0 L 0.31 -0 0.31 0 -0.31 0 z" class="primitive"/>
            </g>
            <g transform="translate(68.91,131.12)" id="img-c39e2699-236">
              <path d="M-0.31,-0 L 0.31 -0 0.31 0 -0.31 0 z" class="primitive"/>
            </g>
            <g transform="translate(69.48,131.12)" id="img-c39e2699-237">
              <path d="M-0.31,-0 L 0.31 -0 0.31 0 -0.31 0 z" class="primitive"/>
            </g>
            <g transform="translate(70.06,131.12)" id="img-c39e2699-238">
              <path d="M-0.31,-0 L 0.31 -0 0.31 0 -0.31 0 z" class="primitive"/>
            </g>
            <g transform="translate(70.64,130.52)" id="img-c39e2699-239">
              <path d="M-0.31,-0.59 L 0.31 -0.59 0.31 0.59 -0.31 0.59 z" class="primitive"/>
            </g>
            <g transform="translate(71.21,131.12)" id="img-c39e2699-240">
              <path d="M-0.31,-0 L 0.31 -0 0.31 0 -0.31 0 z" class="primitive"/>
            </g>
            <g transform="translate(71.79,131.12)" id="img-c39e2699-241">
              <path d="M-0.31,-0 L 0.31 -0 0.31 0 -0.31 0 z" class="primitive"/>
            </g>
            <g transform="translate(72.37,131.12)" id="img-c39e2699-242">
              <path d="M-0.31,-0 L 0.31 -0 0.31 0 -0.31 0 z" class="primitive"/>
            </g>
            <g transform="translate(72.95,131.12)" id="img-c39e2699-243">
              <path d="M-0.31,-0 L 0.31 -0 0.31 0 -0.31 0 z" class="primitive"/>
            </g>
            <g transform="translate(73.52,130.52)" id="img-c39e2699-244">
              <path d="M-0.31,-0.59 L 0.31 -0.59 0.31 0.59 -0.31 0.59 z" class="primitive"/>
            </g>
            <g transform="translate(74.1,131.12)" id="img-c39e2699-245">
              <path d="M-0.31,-0 L 0.31 -0 0.31 0 -0.31 0 z" class="primitive"/>
            </g>
            <g transform="translate(74.68,131.12)" id="img-c39e2699-246">
              <path d="M-0.31,-0 L 0.31 -0 0.31 0 -0.31 0 z" class="primitive"/>
            </g>
            <g transform="translate(75.26,131.12)" id="img-c39e2699-247">
              <path d="M-0.31,-0 L 0.31 -0 0.31 0 -0.31 0 z" class="primitive"/>
            </g>
            <g transform="translate(75.83,131.12)" id="img-c39e2699-248">
              <path d="M-0.31,-0 L 0.31 -0 0.31 0 -0.31 0 z" class="primitive"/>
            </g>
            <g transform="translate(76.41,131.12)" id="img-c39e2699-249">
              <path d="M-0.31,-0 L 0.31 -0 0.31 0 -0.31 0 z" class="primitive"/>
            </g>
            <g transform="translate(76.99,130.52)" id="img-c39e2699-250">
              <path d="M-0.31,-0.59 L 0.31 -0.59 0.31 0.59 -0.31 0.59 z" class="primitive"/>
            </g>
          </g>
        </g>
      </g>
    </g>
  </g>
  <g class="guide ylabels" font-size="2.82" font-family="'PT Sans Caption','Helvetica Neue','Helvetica',sans-serif" fill="#6C606B" id="img-c39e2699-251">
    <g transform="translate(18.63,131.11)" id="img-c39e2699-252">
      <g class="primitive">
        <text text-anchor="end" dy="0.35em">0</text>
      </g>
    </g>
    <g transform="translate(18.63,71.86)" id="img-c39e2699-253">
      <g class="primitive">
        <text text-anchor="end" dy="0.35em">50</text>
      </g>
    </g>
    <g transform="translate(18.63,12.61)" id="img-c39e2699-254">
      <g class="primitive">
        <text text-anchor="end" dy="0.35em">100</text>
      </g>
    </g>
  </g>
  <g font-size="3.88" font-family="'PT Sans','Helvetica Neue','Helvetica',sans-serif" fill="#564A55" stroke="#000000" stroke-opacity="0.000" id="img-c39e2699-255">
    <g transform="translate(8.81,69.86)" id="img-c39e2699-256">
      <g class="primitive">
        <text text-anchor="middle" dy="0.35em" transform="rotate(-90,0, 2)">Count</text>
      </g>
    </g>
  </g>
  <g font-size="3.88" font-family="'PT Sans','Helvetica Neue','Helvetica',sans-serif" fill="#564A55" stroke="#000000" stroke-opacity="0.000" id="img-c39e2699-257">
    <g transform="translate(49.65,5)" id="img-c39e2699-258">
      <g class="primitive">
        <text text-anchor="middle" dy="0.6em">XPP</text>
      </g>
    </g>
  </g>
</g>
<defs>
  <clipPath id="img-c39e2699-4">
    <path d="M187.29,10.61 L 249 10.61 249 133.11 187.29 133.11" />
  </clipPath>
  <clipPath id="img-c39e2699-92">
    <path d="M102.62,10.61 L 164.33 10.61 164.33 133.12 102.62 133.12" />
  </clipPath>
  <clipPath id="img-c39e2699-184">
    <path d="M19.63,10.61 L 79.67 10.61 79.67 133.11 19.63 133.11" />
  </clipPath>
</defs>
</svg>
