<?xml version="1.0" encoding="UTF-8"?>
<svg xmlns="http://www.w3.org/2000/svg"
     xmlns:xlink="http://www.w3.org/1999/xlink"
     xmlns:gadfly="http://www.gadflyjl.org/ns"
     version="1.2"
     width="254mm" height="152.4mm" viewBox="0 0 254 152.4"
     stroke="none"
     fill="#000000"
     stroke-width="0.3"
     font-size="3.88"
>
<defs>
  <marker id="arrow" markerWidth="15" markerHeight="7" refX="5" refY="3.5" orient="auto" markerUnits="strokeWidth">
    <path d="M0,0 L15,3.5 L0,7 z" stroke="context-stroke" fill="context-stroke"/>
  </marker>
</defs>
<g class="plotroot xscalable yscalable" id="img-36fba06e-1">
  <g font-size="3.88" font-family="'PT Sans','Helvetica Neue','Helvetica',sans-serif" fill="#564A55" stroke="#000000" stroke-opacity="0.000" id="img-36fba06e-2">
    <g transform="translate(218.15,140.79)">
      <g class="primitive">
        <text text-anchor="middle" dy="0.6em">kMeas/kCalc</text>
      </g>
    </g>
  </g>
  <g class="guide xlabels" font-size="2.82" font-family="'PT Sans Caption','Helvetica Neue','Helvetica',sans-serif" fill="#6C606B" id="img-36fba06e-3">
    <g transform="translate(189.29,134.11)">
      <g class="primitive">
        <text text-anchor="middle" dy="0.6em">0.0</text>
      </g>
    </g>
    <g transform="translate(203.72,134.11)">
      <g class="primitive">
        <text text-anchor="middle" dy="0.6em">0.5</text>
      </g>
    </g>
    <g transform="translate(218.15,134.11)">
      <g class="primitive">
        <text text-anchor="middle" dy="0.6em">1.0</text>
      </g>
    </g>
    <g transform="translate(232.57,134.11)">
      <g class="primitive">
        <text text-anchor="middle" dy="0.6em">1.5</text>
      </g>
    </g>
    <g transform="translate(247,134.11)">
      <g class="primitive">
        <text text-anchor="middle" dy="0.6em">2.0</text>
      </g>
    </g>
  </g>
  <g clip-path="url(#img-36fba06e-4)">
    <g id="img-36fba06e-5">
      <g pointer-events="visible" stroke-width="0.3" fill="#000000" fill-opacity="0.000" stroke="#000000" stroke-opacity="0.000" class="guide background" id="img-36fba06e-6">
        <g transform="translate(218.15,71.86)" id="img-36fba06e-7">
          <path d="M-30.85,-61.25 L 30.85 -61.25 30.85 61.25 -30.85 61.25 z" class="primitive"/>
        </g>
      </g>
      <g class="guide ygridlines xfixed" stroke-dasharray="0.5,0.5" stroke-width="0.2" stroke="#D0D0E0" id="img-36fba06e-8">
        <g transform="translate(218.15,131.11)" id="img-36fba06e-9">
          <path fill="none" d="M-30.85,0 L 30.85 0" class="primitive"/>
        </g>
        <g transform="translate(218.15,101.49)" id="img-36fba06e-10">
          <path fill="none" d="M-30.85,0 L 30.85 0" class="primitive"/>
        </g>
        <g transform="translate(218.15,71.86)" id="img-36fba06e-11">
          <path fill="none" d="M-30.85,0 L 30.85 0" class="primitive"/>
        </g>
        <g transform="translate(218.15,42.24)" id="img-36fba06e-12">
          <path fill="none" d="M-30.85,0 L 30.85 0" class="primitive"/>
        </g>
        <g transform="translate(218.15,12.61)" id="img-36fba06e-13">
          <path fill="none" d="M-30.85,0 L 30.85 0" class="primitive"/>
        </g>
      </g>
      <g class="guide xgridlines yfixed" stroke-dasharray="0.5,0.5" stroke-width="0.2" stroke="#D0D0E0" id="img-36fba06e-14">
        <g transform="translate(189.29,71.86)" id="img-36fba06e-15">
          <path fill="none" d="M0,-61.25 L 0 61.25" class="primitive"/>
        </g>
        <g transform="translate(203.72,71.86)" id="img-36fba06e-16">
          <path fill="none" d="M0,-61.25 L 0 61.25" class="primitive"/>
        </g>
        <g transform="translate(218.15,71.86)" id="img-36fba06e-17">
          <path fill="none" d="M0,-61.25 L 0 61.25" class="primitive"/>
        </g>
        <g transform="translate(232.57,71.86)" id="img-36fba06e-18">
          <path fill="none" d="M0,-61.25 L 0 61.25" class="primitive"/>
        </g>
        <g transform="translate(247,71.86)" id="img-36fba06e-19">
          <path fill="none" d="M0,-61.25 L 0 61.25" class="primitive"/>
        </g>
      </g>
      <g class="plotpanel" id="img-36fba06e-20">
        <metadata>
          <boundingbox value="187.29166666666666mm 10.611666666666665mm 61.70833333333332mm 122.50333333333332mm"/>
          <unitbox value="-0.0693140794223827 81.35017299091446 2.1386281588447655 -82.70034598182892"/>
        </metadata>
        <g shape-rendering="crispEdges" stroke-width="0.3" id="img-36fba06e-21">
          <g class="geometry" fill-opacity="1" stroke="#000000" stroke-opacity="0.000" fill="#00BFFF" id="img-36fba06e-22">
            <g transform="translate(217.4,125.93)" id="img-36fba06e-23">
              <path d="M-0.36,-5.18 L 0.36 -5.18 0.36 5.18 -0.36 5.18 z" class="primitive"/>
            </g>
            <g transform="translate(218.07,81.49)" id="img-36fba06e-24">
              <path d="M-0.36,-49.62 L 0.36 -49.62 0.36 49.62 -0.36 49.62 z" class="primitive"/>
            </g>
            <g transform="translate(218.73,98.53)" id="img-36fba06e-25">
              <path d="M-0.36,-32.59 L 0.36 -32.59 0.36 32.59 -0.36 32.59 z" class="primitive"/>
            </g>
            <g transform="translate(219.39,120.75)" id="img-36fba06e-26">
              <path d="M-0.36,-10.37 L 0.36 -10.37 0.36 10.37 -0.36 10.37 z" class="primitive"/>
            </g>
            <g transform="translate(220.05,128.15)" id="img-36fba06e-27">
              <path d="M-0.36,-2.96 L 0.36 -2.96 0.36 2.96 -0.36 2.96 z" class="primitive"/>
            </g>
            <g transform="translate(220.72,129.63)" id="img-36fba06e-28">
              <path d="M-0.36,-1.48 L 0.36 -1.48 0.36 1.48 -0.36 1.48 z" class="primitive"/>
            </g>
            <g transform="translate(221.38,121.49)" id="img-36fba06e-29">
              <path d="M-0.36,-9.63 L 0.36 -9.63 0.36 9.63 -0.36 9.63 z" class="primitive"/>
            </g>
            <g transform="translate(222.04,127.41)" id="img-36fba06e-30">
              <path d="M-0.36,-3.7 L 0.36 -3.7 0.36 3.7 -0.36 3.7 z" class="primitive"/>
            </g>
            <g transform="translate(222.7,123.71)" id="img-36fba06e-31">
              <path d="M-0.36,-7.41 L 0.36 -7.41 0.36 7.41 -0.36 7.41 z" class="primitive"/>
            </g>
            <g transform="translate(223.37,125.19)" id="img-36fba06e-32">
              <path d="M-0.36,-5.93 L 0.36 -5.93 0.36 5.93 -0.36 5.93 z" class="primitive"/>
            </g>
            <g transform="translate(224.03,130.37)" id="img-36fba06e-33">
              <path d="M-0.36,-0.74 L 0.36 -0.74 0.36 0.74 -0.36 0.74 z" class="primitive"/>
            </g>
            <g transform="translate(224.69,131.12)" id="img-36fba06e-34">
              <path d="M-0.36,-0 L 0.36 -0 0.36 0 -0.36 0 z" class="primitive"/>
            </g>
            <g transform="translate(225.35,131.12)" id="img-36fba06e-35">
              <path d="M-0.36,-0 L 0.36 -0 0.36 0 -0.36 0 z" class="primitive"/>
            </g>
            <g transform="translate(226.02,131.12)" id="img-36fba06e-36">
              <path d="M-0.36,-0 L 0.36 -0 0.36 0 -0.36 0 z" class="primitive"/>
            </g>
            <g transform="translate(226.68,131.12)" id="img-36fba06e-37">
              <path d="M-0.36,-0 L 0.36 -0 0.36 0 -0.36 0 z" class="primitive"/>
            </g>
            <g transform="translate(227.34,131.12)" id="img-36fba06e-38">
              <path d="M-0.36,-0 L 0.36 -0 0.36 0 -0.36 0 z" class="primitive"/>
            </g>
            <g transform="translate(228,131.12)" id="img-36fba06e-39">
              <path d="M-0.36,-0 L 0.36 -0 0.36 0 -0.36 0 z" class="primitive"/>
            </g>
            <g transform="translate(228.67,131.12)" id="img-36fba06e-40">
              <path d="M-0.36,-0 L 0.36 -0 0.36 0 -0.36 0 z" class="primitive"/>
            </g>
            <g transform="translate(229.33,131.12)" id="img-36fba06e-41">
              <path d="M-0.36,-0 L 0.36 -0 0.36 0 -0.36 0 z" class="primitive"/>
            </g>
            <g transform="translate(229.99,131.12)" id="img-36fba06e-42">
              <path d="M-0.36,-0 L 0.36 -0 0.36 0 -0.36 0 z" class="primitive"/>
            </g>
            <g transform="translate(230.65,131.12)" id="img-36fba06e-43">
              <path d="M-0.36,-0 L 0.36 -0 0.36 0 -0.36 0 z" class="primitive"/>
            </g>
            <g transform="translate(231.31,130.37)" id="img-36fba06e-44">
              <path d="M-0.36,-0.74 L 0.36 -0.74 0.36 0.74 -0.36 0.74 z" class="primitive"/>
            </g>
            <g transform="translate(231.98,131.12)" id="img-36fba06e-45">
              <path d="M-0.36,-0 L 0.36 -0 0.36 0 -0.36 0 z" class="primitive"/>
            </g>
            <g transform="translate(232.64,131.12)" id="img-36fba06e-46">
              <path d="M-0.36,-0 L 0.36 -0 0.36 0 -0.36 0 z" class="primitive"/>
            </g>
            <g transform="translate(233.3,131.12)" id="img-36fba06e-47">
              <path d="M-0.36,-0 L 0.36 -0 0.36 0 -0.36 0 z" class="primitive"/>
            </g>
            <g transform="translate(233.96,131.12)" id="img-36fba06e-48">
              <path d="M-0.36,-0 L 0.36 -0 0.36 0 -0.36 0 z" class="primitive"/>
            </g>
            <g transform="translate(234.63,131.12)" id="img-36fba06e-49">
              <path d="M-0.36,-0 L 0.36 -0 0.36 0 -0.36 0 z" class="primitive"/>
            </g>
            <g transform="translate(235.29,131.12)" id="img-36fba06e-50">
              <path d="M-0.36,-0 L 0.36 -0 0.36 0 -0.36 0 z" class="primitive"/>
            </g>
            <g transform="translate(235.95,130.37)" id="img-36fba06e-51">
              <path d="M-0.36,-0.74 L 0.36 -0.74 0.36 0.74 -0.36 0.74 z" class="primitive"/>
            </g>
            <g transform="translate(236.61,131.12)" id="img-36fba06e-52">
              <path d="M-0.36,-0 L 0.36 -0 0.36 0 -0.36 0 z" class="primitive"/>
            </g>
            <g transform="translate(237.28,131.12)" id="img-36fba06e-53">
              <path d="M-0.36,-0 L 0.36 -0 0.36 0 -0.36 0 z" class="primitive"/>
            </g>
            <g transform="translate(237.94,131.12)" id="img-36fba06e-54">
              <path d="M-0.36,-0 L 0.36 -0 0.36 0 -0.36 0 z" class="primitive"/>
            </g>
            <g transform="translate(238.6,131.12)" id="img-36fba06e-55">
              <path d="M-0.36,-0 L 0.36 -0 0.36 0 -0.36 0 z" class="primitive"/>
            </g>
            <g transform="translate(239.26,131.12)" id="img-36fba06e-56">
              <path d="M-0.36,-0 L 0.36 -0 0.36 0 -0.36 0 z" class="primitive"/>
            </g>
            <g transform="translate(239.93,131.12)" id="img-36fba06e-57">
              <path d="M-0.36,-0 L 0.36 -0 0.36 0 -0.36 0 z" class="primitive"/>
            </g>
            <g transform="translate(240.59,130.37)" id="img-36fba06e-58">
              <path d="M-0.36,-0.74 L 0.36 -0.74 0.36 0.74 -0.36 0.74 z" class="primitive"/>
            </g>
            <g transform="translate(241.25,131.12)" id="img-36fba06e-59">
              <path d="M-0.36,-0 L 0.36 -0 0.36 0 -0.36 0 z" class="primitive"/>
            </g>
            <g transform="translate(241.91,131.12)" id="img-36fba06e-60">
              <path d="M-0.36,-0 L 0.36 -0 0.36 0 -0.36 0 z" class="primitive"/>
            </g>
            <g transform="translate(242.58,131.12)" id="img-36fba06e-61">
              <path d="M-0.36,-0 L 0.36 -0 0.36 0 -0.36 0 z" class="primitive"/>
            </g>
            <g transform="translate(243.24,131.12)" id="img-36fba06e-62">
              <path d="M-0.36,-0 L 0.36 -0 0.36 0 -0.36 0 z" class="primitive"/>
            </g>
            <g transform="translate(243.9,131.12)" id="img-36fba06e-63">
              <path d="M-0.36,-0 L 0.36 -0 0.36 0 -0.36 0 z" class="primitive"/>
            </g>
            <g transform="translate(244.56,130.37)" id="img-36fba06e-64">
              <path d="M-0.36,-0.74 L 0.36 -0.74 0.36 0.74 -0.36 0.74 z" class="primitive"/>
            </g>
            <g transform="translate(245.23,131.12)" id="img-36fba06e-65">
              <path d="M-0.36,-0 L 0.36 -0 0.36 0 -0.36 0 z" class="primitive"/>
            </g>
            <g transform="translate(245.89,131.12)" id="img-36fba06e-66">
              <path d="M-0.36,-0 L 0.36 -0 0.36 0 -0.36 0 z" class="primitive"/>
            </g>
            <g transform="translate(246.55,131.12)" id="img-36fba06e-67">
              <path d="M-0.36,-0 L 0.36 -0 0.36 0 -0.36 0 z" class="primitive"/>
            </g>
            <g transform="translate(247.21,130.37)" id="img-36fba06e-68">
              <path d="M-0.36,-0.74 L 0.36 -0.74 0.36 0.74 -0.36 0.74 z" class="primitive"/>
            </g>
            <g transform="translate(247.88,131.12)" id="img-36fba06e-69">
              <path d="M-0.36,-0 L 0.36 -0 0.36 0 -0.36 0 z" class="primitive"/>
            </g>
            <g transform="translate(248.54,131.12)" id="img-36fba06e-70">
              <path d="M-0.36,-0 L 0.36 -0 0.36 0 -0.36 0 z" class="primitive"/>
            </g>
            <g transform="translate(249.2,131.12)" id="img-36fba06e-71">
              <path d="M-0.36,-0 L 0.36 -0 0.36 0 -0.36 0 z" class="primitive"/>
            </g>
            <g transform="translate(249.86,130.37)" id="img-36fba06e-72">
              <path d="M-0.36,-0.74 L 0.36 -0.74 0.36 0.74 -0.36 0.74 z" class="primitive"/>
            </g>
          </g>
        </g>
      </g>
    </g>
  </g>
  <g class="guide ylabels" font-size="2.82" font-family="'PT Sans Caption','Helvetica Neue','Helvetica',sans-serif" fill="#6C606B" id="img-36fba06e-73">
    <g transform="translate(186.29,131.11)" id="img-36fba06e-74">
      <g class="primitive">
        <text text-anchor="end" dy="0.35em">0</text>
      </g>
    </g>
    <g transform="translate(186.29,101.49)" id="img-36fba06e-75">
      <g class="primitive">
        <text text-anchor="end" dy="0.35em">20</text>
      </g>
    </g>
    <g transform="translate(186.29,71.86)" id="img-36fba06e-76">
      <g class="primitive">
        <text text-anchor="end" dy="0.35em">40</text>
      </g>
    </g>
    <g transform="translate(186.29,42.24)" id="img-36fba06e-77">
      <g class="primitive">
        <text text-anchor="end" dy="0.35em">60</text>
      </g>
    </g>
    <g transform="translate(186.29,12.61)" id="img-36fba06e-78">
      <g class="primitive">
        <text text-anchor="end" dy="0.35em">80</text>
      </g>
    </g>
  </g>
  <g font-size="3.88" font-family="'PT Sans','Helvetica Neue','Helvetica',sans-serif" fill="#564A55" stroke="#000000" stroke-opacity="0.000" id="img-36fba06e-79">
    <g transform="translate(178.14,69.86)" id="img-36fba06e-80">
      <g class="primitive">
        <text text-anchor="middle" dy="0.35em" transform="rotate(-90,0, 2)">Count</text>
      </g>
    </g>
  </g>
  <g font-size="3.88" font-family="'PT Sans','Helvetica Neue','Helvetica',sans-serif" fill="#564A55" stroke="#000000" stroke-opacity="0.000" id="img-36fba06e-81">
    <g transform="translate(218.15,5)" id="img-36fba06e-82">
      <g class="primitive">
        <text text-anchor="middle" dy="0.6em">Riveros</text>
      </g>
    </g>
  </g>
</g>
<g class="plotroot xscalable yscalable" id="img-36fba06e-83">
  <g font-size="3.88" font-family="'PT Sans','Helvetica Neue','Helvetica',sans-serif" fill="#564A55" stroke="#000000" stroke-opacity="0.000" id="img-36fba06e-84">
    <g transform="translate(133.48,140.79)" id="img-36fba06e-85">
      <g class="primitive">
        <text text-anchor="middle" dy="0.6em">kMeas/kCalc</text>
      </g>
    </g>
  </g>
  <g class="guide xlabels" font-size="2.82" font-family="'PT Sans Caption','Helvetica Neue','Helvetica',sans-serif" fill="#6C606B" id="img-36fba06e-86">
    <g transform="translate(104.62,134.11)" id="img-36fba06e-87">
      <g class="primitive">
        <text text-anchor="middle" dy="0.6em">0.0</text>
      </g>
    </g>
    <g transform="translate(119.05,134.11)" id="img-36fba06e-88">
      <g class="primitive">
        <text text-anchor="middle" dy="0.6em">0.5</text>
      </g>
    </g>
    <g transform="translate(133.48,134.11)" id="img-36fba06e-89">
      <g class="primitive">
        <text text-anchor="middle" dy="0.6em">1.0</text>
      </g>
    </g>
    <g transform="translate(147.91,134.11)" id="img-36fba06e-90">
      <g class="primitive">
        <text text-anchor="middle" dy="0.6em">1.5</text>
      </g>
    </g>
    <g transform="translate(162.33,134.11)" id="img-36fba06e-91">
      <g class="primitive">
        <text text-anchor="middle" dy="0.6em">2.0</text>
      </g>
    </g>
  </g>
  <g clip-path="url(#img-36fba06e-92)">
    <g id="img-36fba06e-93">
      <g pointer-events="visible" stroke-width="0.3" fill="#000000" fill-opacity="0.000" stroke="#000000" stroke-opacity="0.000" class="guide background" id="img-36fba06e-94">
        <g transform="translate(133.48,71.86)" id="img-36fba06e-95">
          <path d="M-30.85,-61.25 L 30.85 -61.25 30.85 61.25 -30.85 61.25 z" class="primitive"/>
        </g>
      </g>
      <g class="guide ygridlines xfixed" stroke-dasharray="0.5,0.5" stroke-width="0.2" stroke="#D0D0E0" id="img-36fba06e-96">
        <g transform="translate(133.48,131.12)" id="img-36fba06e-97">
          <path fill="none" d="M-30.85,0 L 30.85 0" class="primitive"/>
        </g>
        <g transform="translate(133.48,111.36)" id="img-36fba06e-98">
          <path fill="none" d="M-30.85,0 L 30.85 0" class="primitive"/>
        </g>
        <g transform="translate(133.48,91.61)" id="img-36fba06e-99">
          <path fill="none" d="M-30.85,0 L 30.85 0" class="primitive"/>
        </g>
        <g transform="translate(133.48,71.86)" id="img-36fba06e-100">
          <path fill="none" d="M-30.85,0 L 30.85 0" class="primitive"/>
        </g>
        <g transform="translate(133.48,52.11)" id="img-36fba06e-101">
          <path fill="none" d="M-30.85,0 L 30.85 0" class="primitive"/>
        </g>
        <g transform="translate(133.48,32.36)" id="img-36fba06e-102">
          <path fill="none" d="M-30.85,0 L 30.85 0" class="primitive"/>
        </g>
        <g transform="translate(133.48,12.61)" id="img-36fba06e-103">
          <path fill="none" d="M-30.85,0 L 30.85 0" class="primitive"/>
        </g>
      </g>
      <g class="guide xgridlines yfixed" stroke-dasharray="0.5,0.5" stroke-width="0.2" stroke="#D0D0E0" id="img-36fba06e-104">
        <g transform="translate(104.62,71.86)" id="img-36fba06e-105">
          <path fill="none" d="M0,-61.25 L 0 61.25" class="primitive"/>
        </g>
        <g transform="translate(119.05,71.86)" id="img-36fba06e-106">
          <path fill="none" d="M0,-61.25 L 0 61.25" class="primitive"/>
        </g>
        <g transform="translate(133.48,71.86)" id="img-36fba06e-107">
          <path fill="none" d="M0,-61.25 L 0 61.25" class="primitive"/>
        </g>
        <g transform="translate(147.91,71.86)" id="img-36fba06e-108">
          <path fill="none" d="M0,-61.25 L 0 61.25" class="primitive"/>
        </g>
        <g transform="translate(162.33,71.86)" id="img-36fba06e-109">
          <path fill="none" d="M0,-61.25 L 0 61.25" class="primitive"/>
        </g>
      </g>
      <g class="plotpanel" id="img-36fba06e-110">
        <metadata>
          <boundingbox value="102.625mm 10.611666666666679mm 61.70833333333332mm 122.50333333333333mm"/>
          <unitbox value="-0.0693140794223827 61.01262974318585 2.1386281588447655 -62.025259486371695"/>
        </metadata>
        <g shape-rendering="crispEdges" stroke-width="0.3" id="img-36fba06e-111">
          <g class="geometry" fill-opacity="1" stroke="#000000" stroke-opacity="0.000" fill="#00BFFF" id="img-36fba06e-112">
            <g transform="translate(131.52,125.19)" id="img-36fba06e-113">
              <path d="M-0.4,-5.93 L 0.4 -5.93 0.4 5.93 -0.4 5.93 z" class="primitive"/>
            </g>
            <g transform="translate(132.28,116.3)" id="img-36fba06e-114">
              <path d="M-0.4,-14.81 L 0.4 -14.81 0.4 14.81 -0.4 14.81 z" class="primitive"/>
            </g>
            <g transform="translate(133.04,75.81)" id="img-36fba06e-115">
              <path d="M-0.4,-55.3 L 0.4 -55.3 0.4 55.3 -0.4 55.3 z" class="primitive"/>
            </g>
            <g transform="translate(133.8,71.86)" id="img-36fba06e-116">
              <path d="M-0.4,-59.25 L 0.4 -59.25 0.4 59.25 -0.4 59.25 z" class="primitive"/>
            </g>
            <g transform="translate(134.56,105.44)" id="img-36fba06e-117">
              <path d="M-0.4,-25.68 L 0.4 -25.68 0.4 25.68 -0.4 25.68 z" class="primitive"/>
            </g>
            <g transform="translate(135.32,124.2)" id="img-36fba06e-118">
              <path d="M-0.4,-6.91 L 0.4 -6.91 0.4 6.91 -0.4 6.91 z" class="primitive"/>
            </g>
            <g transform="translate(136.08,128.15)" id="img-36fba06e-119">
              <path d="M-0.4,-2.96 L 0.4 -2.96 0.4 2.96 -0.4 2.96 z" class="primitive"/>
            </g>
            <g transform="translate(136.84,130.13)" id="img-36fba06e-120">
              <path d="M-0.4,-0.99 L 0.4 -0.99 0.4 0.99 -0.4 0.99 z" class="primitive"/>
            </g>
            <g transform="translate(137.6,130.13)" id="img-36fba06e-121">
              <path d="M-0.4,-0.99 L 0.4 -0.99 0.4 0.99 -0.4 0.99 z" class="primitive"/>
            </g>
            <g transform="translate(138.36,131.12)" id="img-36fba06e-122">
              <path d="M-0.4,-0 L 0.4 -0 0.4 0 -0.4 0 z" class="primitive"/>
            </g>
            <g transform="translate(139.12,131.12)" id="img-36fba06e-123">
              <path d="M-0.4,-0 L 0.4 -0 0.4 0 -0.4 0 z" class="primitive"/>
            </g>
            <g transform="translate(139.88,131.12)" id="img-36fba06e-124">
              <path d="M-0.4,-0 L 0.4 -0 0.4 0 -0.4 0 z" class="primitive"/>
            </g>
            <g transform="translate(140.64,131.12)" id="img-36fba06e-125">
              <path d="M-0.4,-0 L 0.4 -0 0.4 0 -0.4 0 z" class="primitive"/>
            </g>
            <g transform="translate(141.4,131.12)" id="img-36fba06e-126">
              <path d="M-0.4,-0 L 0.4 -0 0.4 0 -0.4 0 z" class="primitive"/>
            </g>
            <g transform="translate(142.16,131.12)" id="img-36fba06e-127">
              <path d="M-0.4,-0 L 0.4 -0 0.4 0 -0.4 0 z" class="primitive"/>
            </g>
            <g transform="translate(142.92,130.13)" id="img-36fba06e-128">
              <path d="M-0.4,-0.99 L 0.4 -0.99 0.4 0.99 -0.4 0.99 z" class="primitive"/>
            </g>
            <g transform="translate(143.68,131.12)" id="img-36fba06e-129">
              <path d="M-0.4,-0 L 0.4 -0 0.4 0 -0.4 0 z" class="primitive"/>
            </g>
            <g transform="translate(144.44,131.12)" id="img-36fba06e-130">
              <path d="M-0.4,-0 L 0.4 -0 0.4 0 -0.4 0 z" class="primitive"/>
            </g>
            <g transform="translate(145.2,131.12)" id="img-36fba06e-131">
              <path d="M-0.4,-0 L 0.4 -0 0.4 0 -0.4 0 z" class="primitive"/>
            </g>
            <g transform="translate(145.96,131.12)" id="img-36fba06e-132">
              <path d="M-0.4,-0 L 0.4 -0 0.4 0 -0.4 0 z" class="primitive"/>
            </g>
            <g transform="translate(146.72,131.12)" id="img-36fba06e-133">
              <path d="M-0.4,-0 L 0.4 -0 0.4 0 -0.4 0 z" class="primitive"/>
            </g>
            <g transform="translate(147.48,131.12)" id="img-36fba06e-134">
              <path d="M-0.4,-0 L 0.4 -0 0.4 0 -0.4 0 z" class="primitive"/>
            </g>
            <g transform="translate(148.24,131.12)" id="img-36fba06e-135">
              <path d="M-0.4,-0 L 0.4 -0 0.4 0 -0.4 0 z" class="primitive"/>
            </g>
            <g transform="translate(149,131.12)" id="img-36fba06e-136">
              <path d="M-0.4,-0 L 0.4 -0 0.4 0 -0.4 0 z" class="primitive"/>
            </g>
            <g transform="translate(149.76,130.13)" id="img-36fba06e-137">
              <path d="M-0.4,-0.99 L 0.4 -0.99 0.4 0.99 -0.4 0.99 z" class="primitive"/>
            </g>
            <g transform="translate(150.52,131.12)" id="img-36fba06e-138">
              <path d="M-0.4,-0 L 0.4 -0 0.4 0 -0.4 0 z" class="primitive"/>
            </g>
            <g transform="translate(151.28,131.12)" id="img-36fba06e-139">
              <path d="M-0.4,-0 L 0.4 -0 0.4 0 -0.4 0 z" class="primitive"/>
            </g>
            <g transform="translate(152.04,131.12)" id="img-36fba06e-140">
              <path d="M-0.4,-0 L 0.4 -0 0.4 0 -0.4 0 z" class="primitive"/>
            </g>
            <g transform="translate(152.8,131.12)" id="img-36fba06e-141">
              <path d="M-0.4,-0 L 0.4 -0 0.4 0 -0.4 0 z" class="primitive"/>
            </g>
            <g transform="translate(153.56,131.12)" id="img-36fba06e-142">
              <path d="M-0.4,-0 L 0.4 -0 0.4 0 -0.4 0 z" class="primitive"/>
            </g>
            <g transform="translate(154.32,131.12)" id="img-36fba06e-143">
              <path d="M-0.4,-0 L 0.4 -0 0.4 0 -0.4 0 z" class="primitive"/>
            </g>
            <g transform="translate(155.08,131.12)" id="img-36fba06e-144">
              <path d="M-0.4,-0 L 0.4 -0 0.4 0 -0.4 0 z" class="primitive"/>
            </g>
            <g transform="translate(155.84,131.12)" id="img-36fba06e-145">
              <path d="M-0.4,-0 L 0.4 -0 0.4 0 -0.4 0 z" class="primitive"/>
            </g>
            <g transform="translate(156.6,130.13)" id="img-36fba06e-146">
              <path d="M-0.4,-0.99 L 0.4 -0.99 0.4 0.99 -0.4 0.99 z" class="primitive"/>
            </g>
            <g transform="translate(157.36,131.12)" id="img-36fba06e-147">
              <path d="M-0.4,-0 L 0.4 -0 0.4 0 -0.4 0 z" class="primitive"/>
            </g>
            <g transform="translate(158.12,131.12)" id="img-36fba06e-148">
              <path d="M-0.4,-0 L 0.4 -0 0.4 0 -0.4 0 z" class="primitive"/>
            </g>
            <g transform="translate(158.88,131.12)" id="img-36fba06e-149">
              <path d="M-0.4,-0 L 0.4 -0 0.4 0 -0.4 0 z" class="primitive"/>
            </g>
            <g transform="translate(159.64,131.12)" id="img-36fba06e-150">
              <path d="M-0.4,-0 L 0.4 -0 0.4 0 -0.4 0 z" class="primitive"/>
            </g>
            <g transform="translate(160.4,131.12)" id="img-36fba06e-151">
              <path d="M-0.4,-0 L 0.4 -0 0.4 0 -0.4 0 z" class="primitive"/>
            </g>
            <g transform="translate(161.16,131.12)" id="img-36fba06e-152">
              <path d="M-0.4,-0 L 0.4 -0 0.4 0 -0.4 0 z" class="primitive"/>
            </g>
            <g transform="translate(161.91,130.13)" id="img-36fba06e-153">
              <path d="M-0.4,-0.99 L 0.4 -0.99 0.4 0.99 -0.4 0.99 z" class="primitive"/>
            </g>
            <g transform="translate(162.67,131.12)" id="img-36fba06e-154">
              <path d="M-0.4,-0 L 0.4 -0 0.4 0 -0.4 0 z" class="primitive"/>
            </g>
            <g transform="translate(163.43,131.12)" id="img-36fba06e-155">
              <path d="M-0.4,-0 L 0.4 -0 0.4 0 -0.4 0 z" class="primitive"/>
            </g>
            <g transform="translate(164.19,131.12)" id="img-36fba06e-156">
              <path d="M-0.4,-0 L 0.4 -0 0.4 0 -0.4 0 z" class="primitive"/>
            </g>
            <g transform="translate(164.95,131.12)" id="img-36fba06e-157">
              <path d="M-0.4,-0 L 0.4 -0 0.4 0 -0.4 0 z" class="primitive"/>
            </g>
            <g transform="translate(165.71,130.13)" id="img-36fba06e-158">
              <path d="M-0.4,-0.99 L 0.4 -0.99 0.4 0.99 -0.4 0.99 z" class="primitive"/>
            </g>
            <g transform="translate(166.47,131.12)" id="img-36fba06e-159">
              <path d="M-0.4,-0 L 0.4 -0 0.4 0 -0.4 0 z" class="primitive"/>
            </g>
            <g transform="translate(167.23,131.12)" id="img-36fba06e-160">
              <path d="M-0.4,-0 L 0.4 -0 0.4 0 -0.4 0 z" class="primitive"/>
            </g>
            <g transform="translate(167.99,131.12)" id="img-36fba06e-161">
              <path d="M-0.4,-0 L 0.4 -0 0.4 0 -0.4 0 z" class="primitive"/>
            </g>
            <g transform="translate(168.75,130.13)" id="img-36fba06e-162">
              <path d="M-0.4,-0.99 L 0.4 -0.99 0.4 0.99 -0.4 0.99 z" class="primitive"/>
            </g>
          </g>
        </g>
      </g>
    </g>
  </g>
  <g class="guide ylabels" font-size="2.82" font-family="'PT Sans Caption','Helvetica Neue','Helvetica',sans-serif" fill="#6C606B" id="img-36fba06e-163">
    <g transform="translate(101.62,131.12)" id="img-36fba06e-164">
      <g class="primitive">
        <text text-anchor="end" dy="0.35em">0</text>
      </g>
    </g>
    <g transform="translate(101.62,111.36)" id="img-36fba06e-165">
      <g class="primitive">
        <text text-anchor="end" dy="0.35em">10</text>
      </g>
    </g>
    <g transform="translate(101.62,91.61)" id="img-36fba06e-166">
      <g class="primitive">
        <text text-anchor="end" dy="0.35em">20</text>
      </g>
    </g>
    <g transform="translate(101.62,71.86)" id="img-36fba06e-167">
      <g class="primitive">
        <text text-anchor="end" dy="0.35em">30</text>
      </g>
    </g>
    <g transform="translate(101.62,52.11)" id="img-36fba06e-168">
      <g class="primitive">
        <text text-anchor="end" dy="0.35em">40</text>
      </g>
    </g>
    <g transform="translate(101.62,32.36)" id="img-36fba06e-169">
      <g class="primitive">
        <text text-anchor="end" dy="0.35em">50</text>
      </g>
    </g>
    <g transform="translate(101.62,12.61)" id="img-36fba06e-170">
      <g class="primitive">
        <text text-anchor="end" dy="0.35em">60</text>
      </g>
    </g>
  </g>
  <g font-size="3.88" font-family="'PT Sans','Helvetica Neue','Helvetica',sans-serif" fill="#564A55" stroke="#000000" stroke-opacity="0.000" id="img-36fba06e-171">
    <g transform="translate(93.47,69.86)" id="img-36fba06e-172">
      <g class="primitive">
        <text text-anchor="middle" dy="0.35em" transform="rotate(-90,0, 2)">Count</text>
      </g>
    </g>
  </g>
  <g font-size="3.88" font-family="'PT Sans','Helvetica Neue','Helvetica',sans-serif" fill="#564A55" stroke="#000000" stroke-opacity="0.000" id="img-36fba06e-173">
    <g transform="translate(133.48,5)" id="img-36fba06e-174">
      <g class="primitive">
        <text text-anchor="middle" dy="0.6em">CitZAF</text>
      </g>
    </g>
  </g>
</g>
<g class="plotroot xscalable yscalable" id="img-36fba06e-175">
  <g font-size="3.88" font-family="'PT Sans','Helvetica Neue','Helvetica',sans-serif" fill="#564A55" stroke="#000000" stroke-opacity="0.000" id="img-36fba06e-176">
    <g transform="translate(49.65,140.79)" id="img-36fba06e-177">
      <g class="primitive">
        <text text-anchor="middle" dy="0.6em">kMeas/kCalc</text>
      </g>
    </g>
  </g>
  <g class="guide xlabels" font-size="2.82" font-family="'PT Sans Caption','Helvetica Neue','Helvetica',sans-serif" fill="#6C606B" id="img-36fba06e-178">
    <g transform="translate(21.63,134.11)" id="img-36fba06e-179">
      <g class="primitive">
        <text text-anchor="middle" dy="0.6em">0.0</text>
      </g>
    </g>
    <g transform="translate(35.64,134.11)" id="img-36fba06e-180">
      <g class="primitive">
        <text text-anchor="middle" dy="0.6em">0.5</text>
      </g>
    </g>
    <g transform="translate(49.65,134.11)" id="img-36fba06e-181">
      <g class="primitive">
        <text text-anchor="middle" dy="0.6em">1.0</text>
      </g>
    </g>
    <g transform="translate(63.66,134.11)" id="img-36fba06e-182">
      <g class="primitive">
        <text text-anchor="middle" dy="0.6em">1.5</text>
      </g>
    </g>
    <g transform="translate(77.67,134.11)" id="img-36fba06e-183">
      <g class="primitive">
        <text text-anchor="middle" dy="0.6em">2.0</text>
      </g>
    </g>
  </g>
  <g clip-path="url(#img-36fba06e-184)">
    <g id="img-36fba06e-185">
      <g pointer-events="visible" stroke-width="0.3" fill="#000000" fill-opacity="0.000" stroke="#000000" stroke-opacity="0.000" class="guide background" id="img-36fba06e-186">
        <g transform="translate(49.65,71.86)" id="img-36fba06e-187">
          <path d="M-30.02,-61.25 L 30.02 -61.25 30.02 61.25 -30.02 61.25 z" class="primitive"/>
        </g>
      </g>
      <g class="guide ygridlines xfixed" stroke-dasharray="0.5,0.5" stroke-width="0.2" stroke="#D0D0E0" id="img-36fba06e-188">
        <g transform="translate(49.65,131.11)" id="img-36fba06e-189">
          <path fill="none" d="M-30.02,0 L 30.02 0" class="primitive"/>
        </g>
        <g transform="translate(49.65,71.86)" id="img-36fba06e-190">
          <path fill="none" d="M-30.02,0 L 30.02 0" class="primitive"/>
        </g>
        <g transform="translate(49.65,12.61)" id="img-36fba06e-191">
          <path fill="none" d="M-30.02,0 L 30.02 0" class="primitive"/>
        </g>
      </g>
      <g class="guide xgridlines yfixed" stroke-dasharray="0.5,0.5" stroke-width="0.2" stroke="#D0D0E0" id="img-36fba06e-192">
        <g transform="translate(21.63,71.86)" id="img-36fba06e-193">
          <path fill="none" d="M0,-61.25 L 0 61.25" class="primitive"/>
        </g>
        <g transform="translate(35.64,71.86)" id="img-36fba06e-194">
          <path fill="none" d="M0,-61.25 L 0 61.25" class="primitive"/>
        </g>
        <g transform="translate(49.65,71.86)" id="img-36fba06e-195">
          <path fill="none" d="M0,-61.25 L 0 61.25" class="primitive"/>
        </g>
        <g transform="translate(63.66,71.86)" id="img-36fba06e-196">
          <path fill="none" d="M0,-61.25 L 0 61.25" class="primitive"/>
        </g>
        <g transform="translate(77.67,71.86)" id="img-36fba06e-197">
          <path fill="none" d="M0,-61.25 L 0 61.25" class="primitive"/>
        </g>
      </g>
      <g class="plotpanel" id="img-36fba06e-198">
        <metadata>
          <boundingbox value="19.631666666666668mm 10.611666666666665mm 60.03499999999999mm 122.50333333333332mm"/>
          <unitbox value="-0.07138395645578657 101.68771623864308 2.142767912911573 -103.37543247728615"/>
        </metadata>
        <g shape-rendering="crispEdges" stroke-width="0.3" id="img-36fba06e-199">
          <g class="geometry" fill-opacity="1" stroke="#000000" stroke-opacity="0.000" fill="#00BFFF" id="img-36fba06e-200">
            <g transform="translate(48.7,128.74)" id="img-36fba06e-201">
              <path d="M-0.31,-2.37 L 0.31 -2.37 0.31 2.37 -0.31 2.37 z" class="primitive"/>
            </g>
            <g transform="translate(49.28,117.49)" id="img-36fba06e-202">
              <path d="M-0.31,-13.63 L 0.31 -13.63 0.31 13.63 -0.31 13.63 z" class="primitive"/>
            </g>
            <g transform="translate(49.86,76.6)" id="img-36fba06e-203">
              <path d="M-0.31,-54.51 L 0.31 -54.51 0.31 54.51 -0.31 54.51 z" class="primitive"/>
            </g>
            <g transform="translate(50.44,121.63)" id="img-36fba06e-204">
              <path d="M-0.31,-9.48 L 0.31 -9.48 0.31 9.48 -0.31 9.48 z" class="primitive"/>
            </g>
            <g transform="translate(51.01,129.93)" id="img-36fba06e-205">
              <path d="M-0.31,-1.19 L 0.31 -1.19 0.31 1.19 -0.31 1.19 z" class="primitive"/>
            </g>
            <g transform="translate(51.59,126.97)" id="img-36fba06e-206">
              <path d="M-0.31,-4.15 L 0.31 -4.15 0.31 4.15 -0.31 4.15 z" class="primitive"/>
            </g>
            <g transform="translate(52.17,119.86)" id="img-36fba06e-207">
              <path d="M-0.31,-11.26 L 0.31 -11.26 0.31 11.26 -0.31 11.26 z" class="primitive"/>
            </g>
            <g transform="translate(52.74,125.78)" id="img-36fba06e-208">
              <path d="M-0.31,-5.33 L 0.31 -5.33 0.31 5.33 -0.31 5.33 z" class="primitive"/>
            </g>
            <g transform="translate(53.32,129.34)" id="img-36fba06e-209">
              <path d="M-0.31,-1.78 L 0.31 -1.78 0.31 1.78 -0.31 1.78 z" class="primitive"/>
            </g>
            <g transform="translate(53.9,131.12)" id="img-36fba06e-210">
              <path d="M-0.31,-0 L 0.31 -0 0.31 0 -0.31 0 z" class="primitive"/>
            </g>
            <g transform="translate(54.48,131.12)" id="img-36fba06e-211">
              <path d="M-0.31,-0 L 0.31 -0 0.31 0 -0.31 0 z" class="primitive"/>
            </g>
            <g transform="translate(55.05,131.12)" id="img-36fba06e-212">
              <path d="M-0.31,-0 L 0.31 -0 0.31 0 -0.31 0 z" class="primitive"/>
            </g>
            <g transform="translate(55.63,131.12)" id="img-36fba06e-213">
              <path d="M-0.31,-0 L 0.31 -0 0.31 0 -0.31 0 z" class="primitive"/>
            </g>
            <g transform="translate(56.21,131.12)" id="img-36fba06e-214">
              <path d="M-0.31,-0 L 0.31 -0 0.31 0 -0.31 0 z" class="primitive"/>
            </g>
            <g transform="translate(56.78,131.12)" id="img-36fba06e-215">
              <path d="M-0.31,-0 L 0.31 -0 0.31 0 -0.31 0 z" class="primitive"/>
            </g>
            <g transform="translate(57.36,131.12)" id="img-36fba06e-216">
              <path d="M-0.31,-0 L 0.31 -0 0.31 0 -0.31 0 z" class="primitive"/>
            </g>
            <g transform="translate(57.94,131.12)" id="img-36fba06e-217">
              <path d="M-0.31,-0 L 0.31 -0 0.31 0 -0.31 0 z" class="primitive"/>
            </g>
            <g transform="translate(58.52,130.52)" id="img-36fba06e-218">
              <path d="M-0.31,-0.59 L 0.31 -0.59 0.31 0.59 -0.31 0.59 z" class="primitive"/>
            </g>
            <g transform="translate(59.09,131.12)" id="img-36fba06e-219">
              <path d="M-0.31,-0 L 0.31 -0 0.31 0 -0.31 0 z" class="primitive"/>
            </g>
            <g transform="translate(59.67,131.12)" id="img-36fba06e-220">
              <path d="M-0.31,-0 L 0.31 -0 0.31 0 -0.31 0 z" class="primitive"/>
            </g>
            <g transform="translate(60.25,131.12)" id="img-36fba06e-221">
              <path d="M-0.31,-0 L 0.31 -0 0.31 0 -0.31 0 z" class="primitive"/>
            </g>
            <g transform="translate(60.83,131.12)" id="img-36fba06e-222">
              <path d="M-0.31,-0 L 0.31 -0 0.31 0 -0.31 0 z" class="primitive"/>
            </g>
            <g transform="translate(61.4,131.12)" id="img-36fba06e-223">
              <path d="M-0.31,-0 L 0.31 -0 0.31 0 -0.31 0 z" class="primitive"/>
            </g>
            <g transform="translate(61.98,131.12)" id="img-36fba06e-224">
              <path d="M-0.31,-0 L 0.31 -0 0.31 0 -0.31 0 z" class="primitive"/>
            </g>
            <g transform="translate(62.56,130.52)" id="img-36fba06e-225">
              <path d="M-0.31,-0.59 L 0.31 -0.59 0.31 0.59 -0.31 0.59 z" class="primitive"/>
            </g>
            <g transform="translate(63.13,131.12)" id="img-36fba06e-226">
              <path d="M-0.31,-0 L 0.31 -0 0.31 0 -0.31 0 z" class="primitive"/>
            </g>
            <g transform="translate(63.71,131.12)" id="img-36fba06e-227">
              <path d="M-0.31,-0 L 0.31 -0 0.31 0 -0.31 0 z" class="primitive"/>
            </g>
            <g transform="translate(64.29,131.12)" id="img-36fba06e-228">
              <path d="M-0.31,-0 L 0.31 -0 0.31 0 -0.31 0 z" class="primitive"/>
            </g>
            <g transform="translate(64.87,131.12)" id="img-36fba06e-229">
              <path d="M-0.31,-0 L 0.31 -0 0.31 0 -0.31 0 z" class="primitive"/>
            </g>
            <g transform="translate(65.44,131.12)" id="img-36fba06e-230">
              <path d="M-0.31,-0 L 0.31 -0 0.31 0 -0.31 0 z" class="primitive"/>
            </g>
            <g transform="translate(66.02,131.12)" id="img-36fba06e-231">
              <path d="M-0.31,-0 L 0.31 -0 0.31 0 -0.31 0 z" class="primitive"/>
            </g>
            <g transform="translate(66.6,130.52)" id="img-36fba06e-232">
              <path d="M-0.31,-0.59 L 0.31 -0.59 0.31 0.59 -0.31 0.59 z" class="primitive"/>
            </g>
            <g transform="translate(67.17,131.12)" id="img-36fba06e-233">
              <path d="M-0.31,-0 L 0.31 -0 0.31 0 -0.31 0 z" class="primitive"/>
            </g>
            <g transform="translate(67.75,131.12)" id="img-36fba06e-234">
              <path d="M-0.31,-0 L 0.31 -0 0.31 0 -0.31 0 z" class="primitive"/>
            </g>
            <g transform="translate(68.33,131.12)" id="img-36fba06e-235">
              <path d="M-0.31,-0 L 0.31 -0 0.31 0 -0.31 0 z" class="primitive"/>
            </g>
            <g transform="translate(68.91,131.12)" id="img-36fba06e-236">
              <path d="M-0.31,-0 L 0.31 -0 0.31 0 -0.31 0 z" class="primitive"/>
            </g>
            <g transform="translate(69.48,131.12)" id="img-36fba06e-237">
              <path d="M-0.31,-0 L 0.31 -0 0.31 0 -0.31 0 z" class="primitive"/>
            </g>
            <g transform="translate(70.06,131.12)" id="img-36fba06e-238">
              <path d="M-0.31,-0 L 0.31 -0 0.31 0 -0.31 0 z" class="primitive"/>
            </g>
            <g transform="translate(70.64,130.52)" id="img-36fba06e-239">
              <path d="M-0.31,-0.59 L 0.31 -0.59 0.31 0.59 -0.31 0.59 z" class="primitive"/>
            </g>
            <g transform="translate(71.21,131.12)" id="img-36fba06e-240">
              <path d="M-0.31,-0 L 0.31 -0 0.31 0 -0.31 0 z" class="primitive"/>
            </g>
            <g transform="translate(71.79,131.12)" id="img-36fba06e-241">
              <path d="M-0.31,-0 L 0.31 -0 0.31 0 -0.31 0 z" class="primitive"/>
            </g>
            <g transform="translate(72.37,131.12)" id="img-36fba06e-242">
              <path d="M-0.31,-0 L 0.31 -0 0.31 0 -0.31 0 z" class="primitive"/>
            </g>
            <g transform="translate(72.95,131.12)" id="img-36fba06e-243">
              <path d="M-0.31,-0 L 0.31 -0 0.31 0 -0.31 0 z" class="primitive"/>
            </g>
            <g transform="translate(73.52,130.52)" id="img-36fba06e-244">
              <path d="M-0.31,-0.59 L 0.31 -0.59 0.31 0.59 -0.31 0.59 z" class="primitive"/>
            </g>
            <g transform="translate(74.1,131.12)" id="img-36fba06e-245">
              <path d="M-0.31,-0 L 0.31 -0 0.31 0 -0.31 0 z" class="primitive"/>
            </g>
            <g transform="translate(74.68,131.12)" id="img-36fba06e-246">
              <path d="M-0.31,-0 L 0.31 -0 0.31 0 -0.31 0 z" class="primitive"/>
            </g>
            <g transform="translate(75.26,131.12)" id="img-36fba06e-247">
              <path d="M-0.31,-0 L 0.31 -0 0.31 0 -0.31 0 z" class="primitive"/>
            </g>
            <g transform="translate(75.83,131.12)" id="img-36fba06e-248">
              <path d="M-0.31,-0 L 0.31 -0 0.31 0 -0.31 0 z" class="primitive"/>
            </g>
            <g transform="translate(76.41,131.12)" id="img-36fba06e-249">
              <path d="M-0.31,-0 L 0.31 -0 0.31 0 -0.31 0 z" class="primitive"/>
            </g>
            <g transform="translate(76.99,130.52)" id="img-36fba06e-250">
              <path d="M-0.31,-0.59 L 0.31 -0.59 0.31 0.59 -0.31 0.59 z" class="primitive"/>
            </g>
          </g>
        </g>
      </g>
    </g>
  </g>
  <g class="guide ylabels" font-size="2.82" font-family="'PT Sans Caption','Helvetica Neue','Helvetica',sans-serif" fill="#6C606B" id="img-36fba06e-251">
    <g transform="translate(18.63,131.11)" id="img-36fba06e-252">
      <g class="primitive">
        <text text-anchor="end" dy="0.35em">0</text>
      </g>
    </g>
    <g transform="translate(18.63,71.86)" id="img-36fba06e-253">
      <g class="primitive">
        <text text-anchor="end" dy="0.35em">50</text>
      </g>
    </g>
    <g transform="translate(18.63,12.61)" id="img-36fba06e-254">
      <g class="primitive">
        <text text-anchor="end" dy="0.35em">100</text>
      </g>
    </g>
  </g>
  <g font-size="3.88" font-family="'PT Sans','Helvetica Neue','Helvetica',sans-serif" fill="#564A55" stroke="#000000" stroke-opacity="0.000" id="img-36fba06e-255">
    <g transform="translate(8.81,69.86)" id="img-36fba06e-256">
      <g class="primitive">
        <text text-anchor="middle" dy="0.35em" transform="rotate(-90,0, 2)">Count</text>
      </g>
    </g>
  </g>
  <g font-size="3.88" font-family="'PT Sans','Helvetica Neue','Helvetica',sans-serif" fill="#564A55" stroke="#000000" stroke-opacity="0.000" id="img-36fba06e-257">
    <g transform="translate(49.65,5)" id="img-36fba06e-258">
      <g class="primitive">
        <text text-anchor="middle" dy="0.6em">XPP</text>
      </g>
    </g>
  </g>
</g>
<defs>
  <clipPath id="img-36fba06e-4">
    <path d="M187.29,10.61 L 249 10.61 249 133.11 187.29 133.11" />
  </clipPath>
  <clipPath id="img-36fba06e-92">
    <path d="M102.62,10.61 L 164.33 10.61 164.33 133.12 102.62 133.12" />
  </clipPath>
  <clipPath id="img-36fba06e-184">
    <path d="M19.63,10.61 L 79.67 10.61 79.67 133.11 19.63 133.11" />
  </clipPath>
</defs>
</svg>
