<?xml version="1.0" encoding="UTF-8"?>
<svg xmlns="http://www.w3.org/2000/svg"
     xmlns:xlink="http://www.w3.org/1999/xlink"
     xmlns:gadfly="http://www.gadflyjl.org/ns"
     version="1.2"
     width="254mm" height="152.4mm" viewBox="0 0 254 152.4"
     stroke="none"
     fill="#000000"
     stroke-width="0.3"
     font-size="3.88"
>
<defs>
  <marker id="arrow" markerWidth="15" markerHeight="7" refX="5" refY="3.5" orient="auto" markerUnits="strokeWidth">
    <path d="M0,0 L15,3.5 L0,7 z" stroke="context-stroke" fill="context-stroke"/>
  </marker>
</defs>
<g class="plotroot xscalable yscalable" id="img-ab549dbd-1">
  <g font-size="3.88" font-family="'PT Sans','Helvetica Neue','Helvetica',sans-serif" fill="#564A55" stroke="#000000" stroke-opacity="0.000" id="img-ab549dbd-2">
    <g transform="translate(218.98,140.79)">
      <g class="primitive">
        <text text-anchor="middle" dy="0.6em">kMeas/kCalc</text>
      </g>
    </g>
  </g>
  <g class="guide xlabels" font-size="2.82" font-family="'PT Sans Caption','Helvetica Neue','Helvetica',sans-serif" fill="#6C606B" id="img-ab549dbd-3">
    <g transform="translate(190.96,134.11)">
      <g class="primitive">
        <text text-anchor="middle" dy="0.6em">0.0</text>
      </g>
    </g>
    <g transform="translate(204.97,134.11)">
      <g class="primitive">
        <text text-anchor="middle" dy="0.6em">0.5</text>
      </g>
    </g>
    <g transform="translate(218.98,134.11)">
      <g class="primitive">
        <text text-anchor="middle" dy="0.6em">1.0</text>
      </g>
    </g>
    <g transform="translate(232.99,134.11)">
      <g class="primitive">
        <text text-anchor="middle" dy="0.6em">1.5</text>
      </g>
    </g>
    <g transform="translate(247,134.11)">
      <g class="primitive">
        <text text-anchor="middle" dy="0.6em">2.0</text>
      </g>
    </g>
  </g>
  <g clip-path="url(#img-ab549dbd-4)">
    <g id="img-ab549dbd-5">
      <g pointer-events="visible" stroke-width="0.3" fill="#000000" fill-opacity="0.000" stroke="#000000" stroke-opacity="0.000" class="guide background" id="img-ab549dbd-6">
        <g transform="translate(218.98,109.96)" id="img-ab549dbd-7">
          <path d="M-30.02,-23.15 L 30.02 -23.15 30.02 23.15 -30.02 23.15 z" class="primitive"/>
        </g>
      </g>
      <g class="guide ygridlines xfixed" stroke-dasharray="0.5,0.5" stroke-width="0.2" stroke="#D0D0E0" id="img-ab549dbd-8">
        <g transform="translate(218.98,131.11)" id="img-ab549dbd-9">
          <path fill="none" d="M-30.02,0 L 30.02 0" class="primitive"/>
        </g>
        <g transform="translate(218.98,122.65)" id="img-ab549dbd-10">
          <path fill="none" d="M-30.02,0 L 30.02 0" class="primitive"/>
        </g>
        <g transform="translate(218.98,114.19)" id="img-ab549dbd-11">
          <path fill="none" d="M-30.02,0 L 30.02 0" class="primitive"/>
        </g>
        <g transform="translate(218.98,105.73)" id="img-ab549dbd-12">
          <path fill="none" d="M-30.02,0 L 30.02 0" class="primitive"/>
        </g>
        <g transform="translate(218.98,97.27)" id="img-ab549dbd-13">
          <path fill="none" d="M-30.02,0 L 30.02 0" class="primitive"/>
        </g>
        <g transform="translate(218.98,88.81)" id="img-ab549dbd-14">
          <path fill="none" d="M-30.02,0 L 30.02 0" class="primitive"/>
        </g>
      </g>
      <g class="guide xgridlines yfixed" stroke-dasharray="0.5,0.5" stroke-width="0.2" stroke="#D0D0E0" id="img-ab549dbd-15">
        <g transform="translate(190.96,109.96)" id="img-ab549dbd-16">
          <path fill="none" d="M0,-23.15 L 0 23.15" class="primitive"/>
        </g>
        <g transform="translate(204.97,109.96)" id="img-ab549dbd-17">
          <path fill="none" d="M0,-23.15 L 0 23.15" class="primitive"/>
        </g>
        <g transform="translate(218.98,109.96)" id="img-ab549dbd-18">
          <path fill="none" d="M0,-23.15 L 0 23.15" class="primitive"/>
        </g>
        <g transform="translate(232.99,109.96)" id="img-ab549dbd-19">
          <path fill="none" d="M0,-23.15 L 0 23.15" class="primitive"/>
        </g>
        <g transform="translate(247,109.96)" id="img-ab549dbd-20">
          <path fill="none" d="M0,-23.15 L 0 23.15" class="primitive"/>
        </g>
      </g>
      <g class="plotpanel" id="img-ab549dbd-21">
        <metadata>
          <boundingbox value="188.96499999999997mm 86.81166666666665mm 60.03499999999999mm 46.30333333333333mm"/>
          <unitbox value="-0.07138395645578657 261.81939957450163 2.142767912911573 -273.63879914900326"/>
        </metadata>
        <g shape-rendering="crispEdges" stroke-width="0.3" id="img-ab549dbd-22">
          <g class="geometry" fill-opacity="1" stroke="#000000" stroke-opacity="0.000" fill="#00BFFF" id="img-ab549dbd-23">
            <g transform="translate(217.92,111.66)" id="img-ab549dbd-24">
              <path d="M-2.75,-19.46 L 2.75 -19.46 2.75 19.46 -2.75 19.46 z" class="primitive"/>
            </g>
            <g transform="translate(223.37,126.29)" id="img-ab549dbd-25">
              <path d="M-2.75,-4.82 L 2.75 -4.82 2.75 4.82 -2.75 4.82 z" class="primitive"/>
            </g>
            <g transform="translate(228.82,130.52)" id="img-ab549dbd-26">
              <path d="M-2.75,-0.59 L 2.75 -0.59 2.75 0.59 -2.75 0.59 z" class="primitive"/>
            </g>
            <g transform="translate(234.27,130.44)" id="img-ab549dbd-27">
              <path d="M-2.75,-0.68 L 2.75 -0.68 2.75 0.68 -2.75 0.68 z" class="primitive"/>
            </g>
            <g transform="translate(239.72,130.95)" id="img-ab549dbd-28">
              <path d="M-2.75,-0.17 L 2.75 -0.17 2.75 0.17 -2.75 0.17 z" class="primitive"/>
            </g>
            <g transform="translate(245.17,131.12)" id="img-ab549dbd-29">
              <path d="M-2.75,-0 L 2.75 -0 2.75 0 -2.75 0 z" class="primitive"/>
            </g>
            <g transform="translate(250.63,130.95)" id="img-ab549dbd-30">
              <path d="M-2.75,-0.17 L 2.75 -0.17 2.75 0.17 -2.75 0.17 z" class="primitive"/>
            </g>
            <g transform="translate(256.08,131.03)" id="img-ab549dbd-31">
              <path d="M-2.75,-0.08 L 2.75 -0.08 2.75 0.08 -2.75 0.08 z" class="primitive"/>
            </g>
            <g transform="translate(261.53,131.03)" id="img-ab549dbd-32">
              <path d="M-2.75,-0.08 L 2.75 -0.08 2.75 0.08 -2.75 0.08 z" class="primitive"/>
            </g>
            <g transform="translate(266.98,131.12)" id="img-ab549dbd-33">
              <path d="M-2.75,-0 L 2.75 -0 2.75 0 -2.75 0 z" class="primitive"/>
            </g>
            <g transform="translate(272.43,131.12)" id="img-ab549dbd-34">
              <path d="M-2.75,-0 L 2.75 -0 2.75 0 -2.75 0 z" class="primitive"/>
            </g>
            <g transform="translate(277.88,131.12)" id="img-ab549dbd-35">
              <path d="M-2.75,-0 L 2.75 -0 2.75 0 -2.75 0 z" class="primitive"/>
            </g>
            <g transform="translate(283.33,131.12)" id="img-ab549dbd-36">
              <path d="M-2.75,-0 L 2.75 -0 2.75 0 -2.75 0 z" class="primitive"/>
            </g>
            <g transform="translate(288.78,131.12)" id="img-ab549dbd-37">
              <path d="M-2.75,-0 L 2.75 -0 2.75 0 -2.75 0 z" class="primitive"/>
            </g>
            <g transform="translate(294.23,131.12)" id="img-ab549dbd-38">
              <path d="M-2.75,-0 L 2.75 -0 2.75 0 -2.75 0 z" class="primitive"/>
            </g>
            <g transform="translate(299.69,131.12)" id="img-ab549dbd-39">
              <path d="M-2.75,-0 L 2.75 -0 2.75 0 -2.75 0 z" class="primitive"/>
            </g>
            <g transform="translate(305.14,131.12)" id="img-ab549dbd-40">
              <path d="M-2.75,-0 L 2.75 -0 2.75 0 -2.75 0 z" class="primitive"/>
            </g>
            <g transform="translate(310.59,131.12)" id="img-ab549dbd-41">
              <path d="M-2.75,-0 L 2.75 -0 2.75 0 -2.75 0 z" class="primitive"/>
            </g>
            <g transform="translate(316.04,131.12)" id="img-ab549dbd-42">
              <path d="M-2.75,-0 L 2.75 -0 2.75 0 -2.75 0 z" class="primitive"/>
            </g>
            <g transform="translate(321.49,131.12)" id="img-ab549dbd-43">
              <path d="M-2.75,-0 L 2.75 -0 2.75 0 -2.75 0 z" class="primitive"/>
            </g>
            <g transform="translate(326.94,131.12)" id="img-ab549dbd-44">
              <path d="M-2.75,-0 L 2.75 -0 2.75 0 -2.75 0 z" class="primitive"/>
            </g>
            <g transform="translate(332.39,131.12)" id="img-ab549dbd-45">
              <path d="M-2.75,-0 L 2.75 -0 2.75 0 -2.75 0 z" class="primitive"/>
            </g>
            <g transform="translate(337.84,131.12)" id="img-ab549dbd-46">
              <path d="M-2.75,-0 L 2.75 -0 2.75 0 -2.75 0 z" class="primitive"/>
            </g>
            <g transform="translate(343.3,131.12)" id="img-ab549dbd-47">
              <path d="M-2.75,-0 L 2.75 -0 2.75 0 -2.75 0 z" class="primitive"/>
            </g>
            <g transform="translate(348.75,131.12)" id="img-ab549dbd-48">
              <path d="M-2.75,-0 L 2.75 -0 2.75 0 -2.75 0 z" class="primitive"/>
            </g>
            <g transform="translate(354.2,131.12)" id="img-ab549dbd-49">
              <path d="M-2.75,-0 L 2.75 -0 2.75 0 -2.75 0 z" class="primitive"/>
            </g>
            <g transform="translate(359.65,131.12)" id="img-ab549dbd-50">
              <path d="M-2.75,-0 L 2.75 -0 2.75 0 -2.75 0 z" class="primitive"/>
            </g>
            <g transform="translate(365.1,131.12)" id="img-ab549dbd-51">
              <path d="M-2.75,-0 L 2.75 -0 2.75 0 -2.75 0 z" class="primitive"/>
            </g>
            <g transform="translate(370.55,131.12)" id="img-ab549dbd-52">
              <path d="M-2.75,-0 L 2.75 -0 2.75 0 -2.75 0 z" class="primitive"/>
            </g>
            <g transform="translate(376,131.12)" id="img-ab549dbd-53">
              <path d="M-2.75,-0 L 2.75 -0 2.75 0 -2.75 0 z" class="primitive"/>
            </g>
            <g transform="translate(381.45,131.12)" id="img-ab549dbd-54">
              <path d="M-2.75,-0 L 2.75 -0 2.75 0 -2.75 0 z" class="primitive"/>
            </g>
            <g transform="translate(386.91,131.12)" id="img-ab549dbd-55">
              <path d="M-2.75,-0 L 2.75 -0 2.75 0 -2.75 0 z" class="primitive"/>
            </g>
            <g transform="translate(392.36,131.12)" id="img-ab549dbd-56">
              <path d="M-2.75,-0 L 2.75 -0 2.75 0 -2.75 0 z" class="primitive"/>
            </g>
            <g transform="translate(397.81,131.12)" id="img-ab549dbd-57">
              <path d="M-2.75,-0 L 2.75 -0 2.75 0 -2.75 0 z" class="primitive"/>
            </g>
            <g transform="translate(403.26,131.12)" id="img-ab549dbd-58">
              <path d="M-2.75,-0 L 2.75 -0 2.75 0 -2.75 0 z" class="primitive"/>
            </g>
            <g transform="translate(408.71,131.12)" id="img-ab549dbd-59">
              <path d="M-2.75,-0 L 2.75 -0 2.75 0 -2.75 0 z" class="primitive"/>
            </g>
            <g transform="translate(414.16,131.12)" id="img-ab549dbd-60">
              <path d="M-2.75,-0 L 2.75 -0 2.75 0 -2.75 0 z" class="primitive"/>
            </g>
            <g transform="translate(419.61,131.12)" id="img-ab549dbd-61">
              <path d="M-2.75,-0 L 2.75 -0 2.75 0 -2.75 0 z" class="primitive"/>
            </g>
            <g transform="translate(425.06,131.12)" id="img-ab549dbd-62">
              <path d="M-2.75,-0 L 2.75 -0 2.75 0 -2.75 0 z" class="primitive"/>
            </g>
            <g transform="translate(430.52,131.12)" id="img-ab549dbd-63">
              <path d="M-2.75,-0 L 2.75 -0 2.75 0 -2.75 0 z" class="primitive"/>
            </g>
            <g transform="translate(435.97,131.12)" id="img-ab549dbd-64">
              <path d="M-2.75,-0 L 2.75 -0 2.75 0 -2.75 0 z" class="primitive"/>
            </g>
            <g transform="translate(441.42,131.12)" id="img-ab549dbd-65">
              <path d="M-2.75,-0 L 2.75 -0 2.75 0 -2.75 0 z" class="primitive"/>
            </g>
            <g transform="translate(446.87,131.12)" id="img-ab549dbd-66">
              <path d="M-2.75,-0 L 2.75 -0 2.75 0 -2.75 0 z" class="primitive"/>
            </g>
            <g transform="translate(452.32,131.12)" id="img-ab549dbd-67">
              <path d="M-2.75,-0 L 2.75 -0 2.75 0 -2.75 0 z" class="primitive"/>
            </g>
            <g transform="translate(457.77,131.12)" id="img-ab549dbd-68">
              <path d="M-2.75,-0 L 2.75 -0 2.75 0 -2.75 0 z" class="primitive"/>
            </g>
            <g transform="translate(463.22,131.12)" id="img-ab549dbd-69">
              <path d="M-2.75,-0 L 2.75 -0 2.75 0 -2.75 0 z" class="primitive"/>
            </g>
            <g transform="translate(468.67,131.12)" id="img-ab549dbd-70">
              <path d="M-2.75,-0 L 2.75 -0 2.75 0 -2.75 0 z" class="primitive"/>
            </g>
            <g transform="translate(474.13,131.12)" id="img-ab549dbd-71">
              <path d="M-2.75,-0 L 2.75 -0 2.75 0 -2.75 0 z" class="primitive"/>
            </g>
            <g transform="translate(479.58,131.03)" id="img-ab549dbd-72">
              <path d="M-2.75,-0.08 L 2.75 -0.08 2.75 0.08 -2.75 0.08 z" class="primitive"/>
            </g>
            <g transform="translate(485.03,130.86)" id="img-ab549dbd-73">
              <path d="M-2.75,-0.25 L 2.75 -0.25 2.75 0.25 -2.75 0.25 z" class="primitive"/>
            </g>
          </g>
        </g>
      </g>
    </g>
  </g>
  <g class="guide ylabels" font-size="2.82" font-family="'PT Sans Caption','Helvetica Neue','Helvetica',sans-serif" fill="#6C606B" id="img-ab549dbd-74">
    <g transform="translate(187.96,131.11)" id="img-ab549dbd-75">
      <g class="primitive">
        <text text-anchor="end" dy="0.35em">0</text>
      </g>
    </g>
    <g transform="translate(187.96,122.65)" id="img-ab549dbd-76">
      <g class="primitive">
        <text text-anchor="end" dy="0.35em">50</text>
      </g>
    </g>
    <g transform="translate(187.96,114.19)" id="img-ab549dbd-77">
      <g class="primitive">
        <text text-anchor="end" dy="0.35em">100</text>
      </g>
    </g>
    <g transform="translate(187.96,105.73)" id="img-ab549dbd-78">
      <g class="primitive">
        <text text-anchor="end" dy="0.35em">150</text>
      </g>
    </g>
    <g transform="translate(187.96,97.27)" id="img-ab549dbd-79">
      <g class="primitive">
        <text text-anchor="end" dy="0.35em">200</text>
      </g>
    </g>
    <g transform="translate(187.96,88.81)" id="img-ab549dbd-80">
      <g class="primitive">
        <text text-anchor="end" dy="0.35em">250</text>
      </g>
    </g>
  </g>
  <g font-size="3.88" font-family="'PT Sans','Helvetica Neue','Helvetica',sans-serif" fill="#564A55" stroke="#000000" stroke-opacity="0.000" id="img-ab549dbd-81">
    <g transform="translate(178.14,107.96)" id="img-ab549dbd-82">
      <g class="primitive">
        <text text-anchor="middle" dy="0.35em" transform="rotate(-90,0, 2)">Count</text>
      </g>
    </g>
  </g>
  <g font-size="3.88" font-family="'PT Sans','Helvetica Neue','Helvetica',sans-serif" fill="#564A55" stroke="#000000" stroke-opacity="0.000" id="img-ab549dbd-83">
    <g transform="translate(218.98,81.2)" id="img-ab549dbd-84">
      <g class="primitive">
        <text text-anchor="middle" dy="0.6em">Riveros</text>
      </g>
    </g>
  </g>
</g>
<g class="plotroot xscalable yscalable" id="img-ab549dbd-85">
  <g font-size="3.88" font-family="'PT Sans','Helvetica Neue','Helvetica',sans-serif" fill="#564A55" stroke="#000000" stroke-opacity="0.000" id="img-ab549dbd-86">
    <g transform="translate(134.32,140.79)" id="img-ab549dbd-87">
      <g class="primitive">
        <text text-anchor="middle" dy="0.6em">kMeas/kCalc</text>
      </g>
    </g>
  </g>
  <g class="guide xlabels" font-size="2.82" font-family="'PT Sans Caption','Helvetica Neue','Helvetica',sans-serif" fill="#6C606B" id="img-ab549dbd-88">
    <g transform="translate(106.3,134.11)" id="img-ab549dbd-89">
      <g class="primitive">
        <text text-anchor="middle" dy="0.6em">0.0</text>
      </g>
    </g>
    <g transform="translate(120.31,134.11)" id="img-ab549dbd-90">
      <g class="primitive">
        <text text-anchor="middle" dy="0.6em">0.5</text>
      </g>
    </g>
    <g transform="translate(134.32,134.11)" id="img-ab549dbd-91">
      <g class="primitive">
        <text text-anchor="middle" dy="0.6em">1.0</text>
      </g>
    </g>
    <g transform="translate(148.32,134.11)" id="img-ab549dbd-92">
      <g class="primitive">
        <text text-anchor="middle" dy="0.6em">1.5</text>
      </g>
    </g>
    <g transform="translate(162.33,134.11)" id="img-ab549dbd-93">
      <g class="primitive">
        <text text-anchor="middle" dy="0.6em">2.0</text>
      </g>
    </g>
  </g>
  <g clip-path="url(#img-ab549dbd-94)">
    <g id="img-ab549dbd-95">
      <g pointer-events="visible" stroke-width="0.3" fill="#000000" fill-opacity="0.000" stroke="#000000" stroke-opacity="0.000" class="guide background" id="img-ab549dbd-96">
        <g transform="translate(134.32,109.96)" id="img-ab549dbd-97">
          <path d="M-30.02,-23.15 L 30.02 -23.15 30.02 23.15 -30.02 23.15 z" class="primitive"/>
        </g>
      </g>
      <g class="guide ygridlines xfixed" stroke-dasharray="0.5,0.5" stroke-width="0.2" stroke="#D0D0E0" id="img-ab549dbd-98">
        <g transform="translate(134.32,131.11)" id="img-ab549dbd-99">
          <path fill="none" d="M-30.02,0 L 30.02 0" class="primitive"/>
        </g>
        <g transform="translate(134.32,117.01)" id="img-ab549dbd-100">
          <path fill="none" d="M-30.02,0 L 30.02 0" class="primitive"/>
        </g>
        <g transform="translate(134.32,102.91)" id="img-ab549dbd-101">
          <path fill="none" d="M-30.02,0 L 30.02 0" class="primitive"/>
        </g>
        <g transform="translate(134.32,88.81)" id="img-ab549dbd-102">
          <path fill="none" d="M-30.02,0 L 30.02 0" class="primitive"/>
        </g>
      </g>
      <g class="guide xgridlines yfixed" stroke-dasharray="0.5,0.5" stroke-width="0.2" stroke="#D0D0E0" id="img-ab549dbd-103">
        <g transform="translate(106.3,109.96)" id="img-ab549dbd-104">
          <path fill="none" d="M0,-23.15 L 0 23.15" class="primitive"/>
        </g>
        <g transform="translate(120.31,109.96)" id="img-ab549dbd-105">
          <path fill="none" d="M0,-23.15 L 0 23.15" class="primitive"/>
        </g>
        <g transform="translate(134.32,109.96)" id="img-ab549dbd-106">
          <path fill="none" d="M0,-23.15 L 0 23.15" class="primitive"/>
        </g>
        <g transform="translate(148.32,109.96)" id="img-ab549dbd-107">
          <path fill="none" d="M0,-23.15 L 0 23.15" class="primitive"/>
        </g>
        <g transform="translate(162.33,109.96)" id="img-ab549dbd-108">
          <path fill="none" d="M0,-23.15 L 0 23.15" class="primitive"/>
        </g>
      </g>
      <g class="plotpanel" id="img-ab549dbd-109">
        <metadata>
          <boundingbox value="104.29833333333332mm 86.81166666666665mm 60.03499999999999mm 46.30333333333333mm"/>
          <unitbox value="-0.07138395645578657 314.1832794894019 2.142767912911573 -328.3665589788039"/>
        </metadata>
        <g shape-rendering="crispEdges" stroke-width="0.3" id="img-ab549dbd-110">
          <g class="geometry" fill-opacity="1" stroke="#000000" stroke-opacity="0.000" fill="#00BFFF" id="img-ab549dbd-111">
            <g transform="translate(132.79,110.95)" id="img-ab549dbd-112">
              <path d="M-2.74,-20.16 L 2.74 -20.16 2.74 20.16 -2.74 20.16 z" class="primitive"/>
            </g>
            <g transform="translate(138.21,130.13)" id="img-ab549dbd-113">
              <path d="M-2.74,-0.99 L 2.74 -0.99 2.74 0.99 -2.74 0.99 z" class="primitive"/>
            </g>
            <g transform="translate(143.64,131.04)" id="img-ab549dbd-114">
              <path d="M-2.74,-0.07 L 2.74 -0.07 2.74 0.07 -2.74 0.07 z" class="primitive"/>
            </g>
            <g transform="translate(149.06,130.9)" id="img-ab549dbd-115">
              <path d="M-2.74,-0.21 L 2.74 -0.21 2.74 0.21 -2.74 0.21 z" class="primitive"/>
            </g>
            <g transform="translate(154.48,131.04)" id="img-ab549dbd-116">
              <path d="M-2.74,-0.07 L 2.74 -0.07 2.74 0.07 -2.74 0.07 z" class="primitive"/>
            </g>
            <g transform="translate(159.9,131.12)" id="img-ab549dbd-117">
              <path d="M-2.74,-0 L 2.74 -0 2.74 0 -2.74 0 z" class="primitive"/>
            </g>
            <g transform="translate(165.33,130.97)" id="img-ab549dbd-118">
              <path d="M-2.74,-0.14 L 2.74 -0.14 2.74 0.14 -2.74 0.14 z" class="primitive"/>
            </g>
            <g transform="translate(170.75,131.04)" id="img-ab549dbd-119">
              <path d="M-2.74,-0.07 L 2.74 -0.07 2.74 0.07 -2.74 0.07 z" class="primitive"/>
            </g>
            <g transform="translate(176.17,131.12)" id="img-ab549dbd-120">
              <path d="M-2.74,-0 L 2.74 -0 2.74 0 -2.74 0 z" class="primitive"/>
            </g>
            <g transform="translate(181.59,131.12)" id="img-ab549dbd-121">
              <path d="M-2.74,-0 L 2.74 -0 2.74 0 -2.74 0 z" class="primitive"/>
            </g>
            <g transform="translate(187.02,131.12)" id="img-ab549dbd-122">
              <path d="M-2.74,-0 L 2.74 -0 2.74 0 -2.74 0 z" class="primitive"/>
            </g>
            <g transform="translate(192.44,131.12)" id="img-ab549dbd-123">
              <path d="M-2.74,-0 L 2.74 -0 2.74 0 -2.74 0 z" class="primitive"/>
            </g>
            <g transform="translate(197.86,131.12)" id="img-ab549dbd-124">
              <path d="M-2.74,-0 L 2.74 -0 2.74 0 -2.74 0 z" class="primitive"/>
            </g>
            <g transform="translate(203.29,131.12)" id="img-ab549dbd-125">
              <path d="M-2.74,-0 L 2.74 -0 2.74 0 -2.74 0 z" class="primitive"/>
            </g>
            <g transform="translate(208.71,131.12)" id="img-ab549dbd-126">
              <path d="M-2.74,-0 L 2.74 -0 2.74 0 -2.74 0 z" class="primitive"/>
            </g>
            <g transform="translate(214.13,131.12)" id="img-ab549dbd-127">
              <path d="M-2.74,-0 L 2.74 -0 2.74 0 -2.74 0 z" class="primitive"/>
            </g>
            <g transform="translate(219.55,131.12)" id="img-ab549dbd-128">
              <path d="M-2.74,-0 L 2.74 -0 2.74 0 -2.74 0 z" class="primitive"/>
            </g>
            <g transform="translate(224.98,131.12)" id="img-ab549dbd-129">
              <path d="M-2.74,-0 L 2.74 -0 2.74 0 -2.74 0 z" class="primitive"/>
            </g>
            <g transform="translate(230.4,131.12)" id="img-ab549dbd-130">
              <path d="M-2.74,-0 L 2.74 -0 2.74 0 -2.74 0 z" class="primitive"/>
            </g>
            <g transform="translate(235.82,131.12)" id="img-ab549dbd-131">
              <path d="M-2.74,-0 L 2.74 -0 2.74 0 -2.74 0 z" class="primitive"/>
            </g>
            <g transform="translate(241.24,131.12)" id="img-ab549dbd-132">
              <path d="M-2.74,-0 L 2.74 -0 2.74 0 -2.74 0 z" class="primitive"/>
            </g>
            <g transform="translate(246.67,131.12)" id="img-ab549dbd-133">
              <path d="M-2.74,-0 L 2.74 -0 2.74 0 -2.74 0 z" class="primitive"/>
            </g>
            <g transform="translate(252.09,131.12)" id="img-ab549dbd-134">
              <path d="M-2.74,-0 L 2.74 -0 2.74 0 -2.74 0 z" class="primitive"/>
            </g>
            <g transform="translate(257.51,131.12)" id="img-ab549dbd-135">
              <path d="M-2.74,-0 L 2.74 -0 2.74 0 -2.74 0 z" class="primitive"/>
            </g>
            <g transform="translate(262.93,131.12)" id="img-ab549dbd-136">
              <path d="M-2.74,-0 L 2.74 -0 2.74 0 -2.74 0 z" class="primitive"/>
            </g>
            <g transform="translate(268.36,131.12)" id="img-ab549dbd-137">
              <path d="M-2.74,-0 L 2.74 -0 2.74 0 -2.74 0 z" class="primitive"/>
            </g>
            <g transform="translate(273.78,131.12)" id="img-ab549dbd-138">
              <path d="M-2.74,-0 L 2.74 -0 2.74 0 -2.74 0 z" class="primitive"/>
            </g>
            <g transform="translate(279.2,131.12)" id="img-ab549dbd-139">
              <path d="M-2.74,-0 L 2.74 -0 2.74 0 -2.74 0 z" class="primitive"/>
            </g>
            <g transform="translate(284.63,131.12)" id="img-ab549dbd-140">
              <path d="M-2.74,-0 L 2.74 -0 2.74 0 -2.74 0 z" class="primitive"/>
            </g>
            <g transform="translate(290.05,131.12)" id="img-ab549dbd-141">
              <path d="M-2.74,-0 L 2.74 -0 2.74 0 -2.74 0 z" class="primitive"/>
            </g>
            <g transform="translate(295.47,131.12)" id="img-ab549dbd-142">
              <path d="M-2.74,-0 L 2.74 -0 2.74 0 -2.74 0 z" class="primitive"/>
            </g>
            <g transform="translate(300.89,131.12)" id="img-ab549dbd-143">
              <path d="M-2.74,-0 L 2.74 -0 2.74 0 -2.74 0 z" class="primitive"/>
            </g>
            <g transform="translate(306.32,131.12)" id="img-ab549dbd-144">
              <path d="M-2.74,-0 L 2.74 -0 2.74 0 -2.74 0 z" class="primitive"/>
            </g>
            <g transform="translate(311.74,131.12)" id="img-ab549dbd-145">
              <path d="M-2.74,-0 L 2.74 -0 2.74 0 -2.74 0 z" class="primitive"/>
            </g>
            <g transform="translate(317.16,131.12)" id="img-ab549dbd-146">
              <path d="M-2.74,-0 L 2.74 -0 2.74 0 -2.74 0 z" class="primitive"/>
            </g>
            <g transform="translate(322.58,131.12)" id="img-ab549dbd-147">
              <path d="M-2.74,-0 L 2.74 -0 2.74 0 -2.74 0 z" class="primitive"/>
            </g>
            <g transform="translate(328.01,131.12)" id="img-ab549dbd-148">
              <path d="M-2.74,-0 L 2.74 -0 2.74 0 -2.74 0 z" class="primitive"/>
            </g>
            <g transform="translate(333.43,131.12)" id="img-ab549dbd-149">
              <path d="M-2.74,-0 L 2.74 -0 2.74 0 -2.74 0 z" class="primitive"/>
            </g>
            <g transform="translate(338.85,131.12)" id="img-ab549dbd-150">
              <path d="M-2.74,-0 L 2.74 -0 2.74 0 -2.74 0 z" class="primitive"/>
            </g>
            <g transform="translate(344.28,131.12)" id="img-ab549dbd-151">
              <path d="M-2.74,-0 L 2.74 -0 2.74 0 -2.74 0 z" class="primitive"/>
            </g>
            <g transform="translate(349.7,131.12)" id="img-ab549dbd-152">
              <path d="M-2.74,-0 L 2.74 -0 2.74 0 -2.74 0 z" class="primitive"/>
            </g>
            <g transform="translate(355.12,131.12)" id="img-ab549dbd-153">
              <path d="M-2.74,-0 L 2.74 -0 2.74 0 -2.74 0 z" class="primitive"/>
            </g>
            <g transform="translate(360.54,131.12)" id="img-ab549dbd-154">
              <path d="M-2.74,-0 L 2.74 -0 2.74 0 -2.74 0 z" class="primitive"/>
            </g>
            <g transform="translate(365.97,131.12)" id="img-ab549dbd-155">
              <path d="M-2.74,-0 L 2.74 -0 2.74 0 -2.74 0 z" class="primitive"/>
            </g>
            <g transform="translate(371.39,131.12)" id="img-ab549dbd-156">
              <path d="M-2.74,-0 L 2.74 -0 2.74 0 -2.74 0 z" class="primitive"/>
            </g>
            <g transform="translate(376.81,131.12)" id="img-ab549dbd-157">
              <path d="M-2.74,-0 L 2.74 -0 2.74 0 -2.74 0 z" class="primitive"/>
            </g>
            <g transform="translate(382.23,131.12)" id="img-ab549dbd-158">
              <path d="M-2.74,-0 L 2.74 -0 2.74 0 -2.74 0 z" class="primitive"/>
            </g>
            <g transform="translate(387.66,131.12)" id="img-ab549dbd-159">
              <path d="M-2.74,-0 L 2.74 -0 2.74 0 -2.74 0 z" class="primitive"/>
            </g>
            <g transform="translate(393.08,131.04)" id="img-ab549dbd-160">
              <path d="M-2.74,-0.07 L 2.74 -0.07 2.74 0.07 -2.74 0.07 z" class="primitive"/>
            </g>
            <g transform="translate(398.5,130.9)" id="img-ab549dbd-161">
              <path d="M-2.74,-0.21 L 2.74 -0.21 2.74 0.21 -2.74 0.21 z" class="primitive"/>
            </g>
          </g>
        </g>
      </g>
    </g>
  </g>
  <g class="guide ylabels" font-size="2.82" font-family="'PT Sans Caption','Helvetica Neue','Helvetica',sans-serif" fill="#6C606B" id="img-ab549dbd-162">
    <g transform="translate(103.3,131.11)" id="img-ab549dbd-163">
      <g class="primitive">
        <text text-anchor="end" dy="0.35em">0</text>
      </g>
    </g>
    <g transform="translate(103.3,117.01)" id="img-ab549dbd-164">
      <g class="primitive">
        <text text-anchor="end" dy="0.35em">100</text>
      </g>
    </g>
    <g transform="translate(103.3,102.91)" id="img-ab549dbd-165">
      <g class="primitive">
        <text text-anchor="end" dy="0.35em">200</text>
      </g>
    </g>
    <g transform="translate(103.3,88.81)" id="img-ab549dbd-166">
      <g class="primitive">
        <text text-anchor="end" dy="0.35em">300</text>
      </g>
    </g>
  </g>
  <g font-size="3.88" font-family="'PT Sans','Helvetica Neue','Helvetica',sans-serif" fill="#564A55" stroke="#000000" stroke-opacity="0.000" id="img-ab549dbd-167">
    <g transform="translate(93.47,107.96)" id="img-ab549dbd-168">
      <g class="primitive">
        <text text-anchor="middle" dy="0.35em" transform="rotate(-90,0, 2)">Count</text>
      </g>
    </g>
  </g>
  <g font-size="3.88" font-family="'PT Sans','Helvetica Neue','Helvetica',sans-serif" fill="#564A55" stroke="#000000" stroke-opacity="0.000" id="img-ab549dbd-169">
    <g transform="translate(134.32,81.2)" id="img-ab549dbd-170">
      <g class="primitive">
        <text text-anchor="middle" dy="0.6em">CitZAF</text>
      </g>
    </g>
  </g>
</g>
<g class="plotroot xscalable yscalable" id="img-ab549dbd-171">
  <g font-size="3.88" font-family="'PT Sans','Helvetica Neue','Helvetica',sans-serif" fill="#564A55" stroke="#000000" stroke-opacity="0.000" id="img-ab549dbd-172">
    <g transform="translate(49.65,140.79)" id="img-ab549dbd-173">
      <g class="primitive">
        <text text-anchor="middle" dy="0.6em">kMeas/kCalc</text>
      </g>
    </g>
  </g>
  <g class="guide xlabels" font-size="2.82" font-family="'PT Sans Caption','Helvetica Neue','Helvetica',sans-serif" fill="#6C606B" id="img-ab549dbd-174">
    <g transform="translate(21.63,134.11)" id="img-ab549dbd-175">
      <g class="primitive">
        <text text-anchor="middle" dy="0.6em">0.0</text>
      </g>
    </g>
    <g transform="translate(35.64,134.11)" id="img-ab549dbd-176">
      <g class="primitive">
        <text text-anchor="middle" dy="0.6em">0.5</text>
      </g>
    </g>
    <g transform="translate(49.65,134.11)" id="img-ab549dbd-177">
      <g class="primitive">
        <text text-anchor="middle" dy="0.6em">1.0</text>
      </g>
    </g>
    <g transform="translate(63.66,134.11)" id="img-ab549dbd-178">
      <g class="primitive">
        <text text-anchor="middle" dy="0.6em">1.5</text>
      </g>
    </g>
    <g transform="translate(77.67,134.11)" id="img-ab549dbd-179">
      <g class="primitive">
        <text text-anchor="middle" dy="0.6em">2.0</text>
      </g>
    </g>
  </g>
  <g clip-path="url(#img-ab549dbd-180)">
    <g id="img-ab549dbd-181">
      <g pointer-events="visible" stroke-width="0.3" fill="#000000" fill-opacity="0.000" stroke="#000000" stroke-opacity="0.000" class="guide background" id="img-ab549dbd-182">
        <g transform="translate(49.65,109.96)" id="img-ab549dbd-183">
          <path d="M-30.02,-23.15 L 30.02 -23.15 30.02 23.15 -30.02 23.15 z" class="primitive"/>
        </g>
      </g>
      <g class="guide ygridlines xfixed" stroke-dasharray="0.5,0.5" stroke-width="0.2" stroke="#D0D0E0" id="img-ab549dbd-184">
        <g transform="translate(49.65,131.11)" id="img-ab549dbd-185">
          <path fill="none" d="M-30.02,0 L 30.02 0" class="primitive"/>
        </g>
        <g transform="translate(49.65,117.01)" id="img-ab549dbd-186">
          <path fill="none" d="M-30.02,0 L 30.02 0" class="primitive"/>
        </g>
        <g transform="translate(49.65,102.91)" id="img-ab549dbd-187">
          <path fill="none" d="M-30.02,0 L 30.02 0" class="primitive"/>
        </g>
        <g transform="translate(49.65,88.81)" id="img-ab549dbd-188">
          <path fill="none" d="M-30.02,0 L 30.02 0" class="primitive"/>
        </g>
      </g>
      <g class="guide xgridlines yfixed" stroke-dasharray="0.5,0.5" stroke-width="0.2" stroke="#D0D0E0" id="img-ab549dbd-189">
        <g transform="translate(21.63,109.96)" id="img-ab549dbd-190">
          <path fill="none" d="M0,-23.15 L 0 23.15" class="primitive"/>
        </g>
        <g transform="translate(35.64,109.96)" id="img-ab549dbd-191">
          <path fill="none" d="M0,-23.15 L 0 23.15" class="primitive"/>
        </g>
        <g transform="translate(49.65,109.96)" id="img-ab549dbd-192">
          <path fill="none" d="M0,-23.15 L 0 23.15" class="primitive"/>
        </g>
        <g transform="translate(63.66,109.96)" id="img-ab549dbd-193">
          <path fill="none" d="M0,-23.15 L 0 23.15" class="primitive"/>
        </g>
        <g transform="translate(77.67,109.96)" id="img-ab549dbd-194">
          <path fill="none" d="M0,-23.15 L 0 23.15" class="primitive"/>
        </g>
      </g>
      <g class="plotpanel" id="img-ab549dbd-195">
        <metadata>
          <boundingbox value="19.631666666666668mm 86.81166666666665mm 60.03499999999999mm 46.30333333333333mm"/>
          <unitbox value="-0.07138395645578657 314.1832794894019 2.142767912911573 -328.3665589788039"/>
        </metadata>
        <g shape-rendering="crispEdges" stroke-width="0.3" id="img-ab549dbd-196">
          <g class="geometry" fill-opacity="1" stroke="#000000" stroke-opacity="0.000" fill="#00BFFF" id="img-ab549dbd-197">
            <g transform="translate(50.34,110.39)" id="img-ab549dbd-198">
              <path d="M-2.73,-20.73 L 2.73 -20.73 2.73 20.73 -2.73 20.73 z" class="primitive"/>
            </g>
            <g transform="translate(55.75,130.55)" id="img-ab549dbd-199">
              <path d="M-2.73,-0.56 L 2.73 -0.56 2.73 0.56 -2.73 0.56 z" class="primitive"/>
            </g>
            <g transform="translate(61.16,131.04)" id="img-ab549dbd-200">
              <path d="M-2.73,-0.07 L 2.73 -0.07 2.73 0.07 -2.73 0.07 z" class="primitive"/>
            </g>
            <g transform="translate(66.58,131.04)" id="img-ab549dbd-201">
              <path d="M-2.73,-0.07 L 2.73 -0.07 2.73 0.07 -2.73 0.07 z" class="primitive"/>
            </g>
            <g transform="translate(71.99,131.04)" id="img-ab549dbd-202">
              <path d="M-2.73,-0.07 L 2.73 -0.07 2.73 0.07 -2.73 0.07 z" class="primitive"/>
            </g>
            <g transform="translate(77.4,131.12)" id="img-ab549dbd-203">
              <path d="M-2.73,-0 L 2.73 -0 2.73 0 -2.73 0 z" class="primitive"/>
            </g>
            <g transform="translate(82.81,131.04)" id="img-ab549dbd-204">
              <path d="M-2.73,-0.07 L 2.73 -0.07 2.73 0.07 -2.73 0.07 z" class="primitive"/>
            </g>
            <g transform="translate(88.23,130.97)" id="img-ab549dbd-205">
              <path d="M-2.73,-0.14 L 2.73 -0.14 2.73 0.14 -2.73 0.14 z" class="primitive"/>
            </g>
            <g transform="translate(93.64,131.12)" id="img-ab549dbd-206">
              <path d="M-2.73,-0 L 2.73 -0 2.73 0 -2.73 0 z" class="primitive"/>
            </g>
            <g transform="translate(99.05,131.12)" id="img-ab549dbd-207">
              <path d="M-2.73,-0 L 2.73 -0 2.73 0 -2.73 0 z" class="primitive"/>
            </g>
            <g transform="translate(104.46,131.12)" id="img-ab549dbd-208">
              <path d="M-2.73,-0 L 2.73 -0 2.73 0 -2.73 0 z" class="primitive"/>
            </g>
            <g transform="translate(109.87,131.12)" id="img-ab549dbd-209">
              <path d="M-2.73,-0 L 2.73 -0 2.73 0 -2.73 0 z" class="primitive"/>
            </g>
            <g transform="translate(115.29,131.12)" id="img-ab549dbd-210">
              <path d="M-2.73,-0 L 2.73 -0 2.73 0 -2.73 0 z" class="primitive"/>
            </g>
            <g transform="translate(120.7,131.12)" id="img-ab549dbd-211">
              <path d="M-2.73,-0 L 2.73 -0 2.73 0 -2.73 0 z" class="primitive"/>
            </g>
            <g transform="translate(126.11,131.12)" id="img-ab549dbd-212">
              <path d="M-2.73,-0 L 2.73 -0 2.73 0 -2.73 0 z" class="primitive"/>
            </g>
            <g transform="translate(131.52,131.12)" id="img-ab549dbd-213">
              <path d="M-2.73,-0 L 2.73 -0 2.73 0 -2.73 0 z" class="primitive"/>
            </g>
            <g transform="translate(136.93,131.12)" id="img-ab549dbd-214">
              <path d="M-2.73,-0 L 2.73 -0 2.73 0 -2.73 0 z" class="primitive"/>
            </g>
            <g transform="translate(142.35,131.12)" id="img-ab549dbd-215">
              <path d="M-2.73,-0 L 2.73 -0 2.73 0 -2.73 0 z" class="primitive"/>
            </g>
            <g transform="translate(147.76,131.12)" id="img-ab549dbd-216">
              <path d="M-2.73,-0 L 2.73 -0 2.73 0 -2.73 0 z" class="primitive"/>
            </g>
            <g transform="translate(153.17,131.12)" id="img-ab549dbd-217">
              <path d="M-2.73,-0 L 2.73 -0 2.73 0 -2.73 0 z" class="primitive"/>
            </g>
            <g transform="translate(158.58,131.12)" id="img-ab549dbd-218">
              <path d="M-2.73,-0 L 2.73 -0 2.73 0 -2.73 0 z" class="primitive"/>
            </g>
            <g transform="translate(164,131.12)" id="img-ab549dbd-219">
              <path d="M-2.73,-0 L 2.73 -0 2.73 0 -2.73 0 z" class="primitive"/>
            </g>
            <g transform="translate(169.41,131.12)" id="img-ab549dbd-220">
              <path d="M-2.73,-0 L 2.73 -0 2.73 0 -2.73 0 z" class="primitive"/>
            </g>
            <g transform="translate(174.82,131.12)" id="img-ab549dbd-221">
              <path d="M-2.73,-0 L 2.73 -0 2.73 0 -2.73 0 z" class="primitive"/>
            </g>
            <g transform="translate(180.23,131.12)" id="img-ab549dbd-222">
              <path d="M-2.73,-0 L 2.73 -0 2.73 0 -2.73 0 z" class="primitive"/>
            </g>
            <g transform="translate(185.64,131.12)" id="img-ab549dbd-223">
              <path d="M-2.73,-0 L 2.73 -0 2.73 0 -2.73 0 z" class="primitive"/>
            </g>
            <g transform="translate(191.06,131.12)" id="img-ab549dbd-224">
              <path d="M-2.73,-0 L 2.73 -0 2.73 0 -2.73 0 z" class="primitive"/>
            </g>
            <g transform="translate(196.47,131.12)" id="img-ab549dbd-225">
              <path d="M-2.73,-0 L 2.73 -0 2.73 0 -2.73 0 z" class="primitive"/>
            </g>
            <g transform="translate(201.88,131.12)" id="img-ab549dbd-226">
              <path d="M-2.73,-0 L 2.73 -0 2.73 0 -2.73 0 z" class="primitive"/>
            </g>
            <g transform="translate(207.29,131.12)" id="img-ab549dbd-227">
              <path d="M-2.73,-0 L 2.73 -0 2.73 0 -2.73 0 z" class="primitive"/>
            </g>
            <g transform="translate(212.7,131.12)" id="img-ab549dbd-228">
              <path d="M-2.73,-0 L 2.73 -0 2.73 0 -2.73 0 z" class="primitive"/>
            </g>
            <g transform="translate(218.12,131.12)" id="img-ab549dbd-229">
              <path d="M-2.73,-0 L 2.73 -0 2.73 0 -2.73 0 z" class="primitive"/>
            </g>
            <g transform="translate(223.53,131.12)" id="img-ab549dbd-230">
              <path d="M-2.73,-0 L 2.73 -0 2.73 0 -2.73 0 z" class="primitive"/>
            </g>
            <g transform="translate(228.94,131.12)" id="img-ab549dbd-231">
              <path d="M-2.73,-0 L 2.73 -0 2.73 0 -2.73 0 z" class="primitive"/>
            </g>
            <g transform="translate(234.35,131.12)" id="img-ab549dbd-232">
              <path d="M-2.73,-0 L 2.73 -0 2.73 0 -2.73 0 z" class="primitive"/>
            </g>
            <g transform="translate(239.77,131.12)" id="img-ab549dbd-233">
              <path d="M-2.73,-0 L 2.73 -0 2.73 0 -2.73 0 z" class="primitive"/>
            </g>
            <g transform="translate(245.18,131.12)" id="img-ab549dbd-234">
              <path d="M-2.73,-0 L 2.73 -0 2.73 0 -2.73 0 z" class="primitive"/>
            </g>
            <g transform="translate(250.59,131.12)" id="img-ab549dbd-235">
              <path d="M-2.73,-0 L 2.73 -0 2.73 0 -2.73 0 z" class="primitive"/>
            </g>
            <g transform="translate(256,131.12)" id="img-ab549dbd-236">
              <path d="M-2.73,-0 L 2.73 -0 2.73 0 -2.73 0 z" class="primitive"/>
            </g>
            <g transform="translate(261.41,131.12)" id="img-ab549dbd-237">
              <path d="M-2.73,-0 L 2.73 -0 2.73 0 -2.73 0 z" class="primitive"/>
            </g>
            <g transform="translate(266.83,131.12)" id="img-ab549dbd-238">
              <path d="M-2.73,-0 L 2.73 -0 2.73 0 -2.73 0 z" class="primitive"/>
            </g>
            <g transform="translate(272.24,131.12)" id="img-ab549dbd-239">
              <path d="M-2.73,-0 L 2.73 -0 2.73 0 -2.73 0 z" class="primitive"/>
            </g>
            <g transform="translate(277.65,131.12)" id="img-ab549dbd-240">
              <path d="M-2.73,-0 L 2.73 -0 2.73 0 -2.73 0 z" class="primitive"/>
            </g>
            <g transform="translate(283.06,131.12)" id="img-ab549dbd-241">
              <path d="M-2.73,-0 L 2.73 -0 2.73 0 -2.73 0 z" class="primitive"/>
            </g>
            <g transform="translate(288.47,131.12)" id="img-ab549dbd-242">
              <path d="M-2.73,-0 L 2.73 -0 2.73 0 -2.73 0 z" class="primitive"/>
            </g>
            <g transform="translate(293.89,131.12)" id="img-ab549dbd-243">
              <path d="M-2.73,-0 L 2.73 -0 2.73 0 -2.73 0 z" class="primitive"/>
            </g>
            <g transform="translate(299.3,131.12)" id="img-ab549dbd-244">
              <path d="M-2.73,-0 L 2.73 -0 2.73 0 -2.73 0 z" class="primitive"/>
            </g>
            <g transform="translate(304.71,131.12)" id="img-ab549dbd-245">
              <path d="M-2.73,-0 L 2.73 -0 2.73 0 -2.73 0 z" class="primitive"/>
            </g>
            <g transform="translate(310.12,130.97)" id="img-ab549dbd-246">
              <path d="M-2.73,-0.14 L 2.73 -0.14 2.73 0.14 -2.73 0.14 z" class="primitive"/>
            </g>
            <g transform="translate(315.54,130.97)" id="img-ab549dbd-247">
              <path d="M-2.73,-0.14 L 2.73 -0.14 2.73 0.14 -2.73 0.14 z" class="primitive"/>
            </g>
          </g>
        </g>
      </g>
    </g>
  </g>
  <g class="guide ylabels" font-size="2.82" font-family="'PT Sans Caption','Helvetica Neue','Helvetica',sans-serif" fill="#6C606B" id="img-ab549dbd-248">
    <g transform="translate(18.63,131.11)" id="img-ab549dbd-249">
      <g class="primitive">
        <text text-anchor="end" dy="0.35em">0</text>
      </g>
    </g>
    <g transform="translate(18.63,117.01)" id="img-ab549dbd-250">
      <g class="primitive">
        <text text-anchor="end" dy="0.35em">100</text>
      </g>
    </g>
    <g transform="translate(18.63,102.91)" id="img-ab549dbd-251">
      <g class="primitive">
        <text text-anchor="end" dy="0.35em">200</text>
      </g>
    </g>
    <g transform="translate(18.63,88.81)" id="img-ab549dbd-252">
      <g class="primitive">
        <text text-anchor="end" dy="0.35em">300</text>
      </g>
    </g>
  </g>
  <g font-size="3.88" font-family="'PT Sans','Helvetica Neue','Helvetica',sans-serif" fill="#564A55" stroke="#000000" stroke-opacity="0.000" id="img-ab549dbd-253">
    <g transform="translate(8.81,107.96)" id="img-ab549dbd-254">
      <g class="primitive">
        <text text-anchor="middle" dy="0.35em" transform="rotate(-90,0, 2)">Count</text>
      </g>
    </g>
  </g>
  <g font-size="3.88" font-family="'PT Sans','Helvetica Neue','Helvetica',sans-serif" fill="#564A55" stroke="#000000" stroke-opacity="0.000" id="img-ab549dbd-255">
    <g transform="translate(49.65,81.2)" id="img-ab549dbd-256">
      <g class="primitive">
        <text text-anchor="middle" dy="0.6em">XPP</text>
      </g>
    </g>
  </g>
</g>
<g font-size="7.06" font-family="Arial" id="img-ab549dbd-257">
  <g transform="translate(127,38.1)" id="img-ab549dbd-258">
    <g class="primitive">
      <text text-anchor="middle" dy="0.35em">Pouchou’s compilation</text>
    </g>
  </g>
</g>
<defs>
  <clipPath id="img-ab549dbd-4">
    <path d="M188.96,86.81 L 249 86.81 249 133.11 188.96 133.11" />
  </clipPath>
  <clipPath id="img-ab549dbd-94">
    <path d="M104.3,86.81 L 164.33 86.81 164.33 133.11 104.3 133.11" />
  </clipPath>
  <clipPath id="img-ab549dbd-180">
    <path d="M19.63,86.81 L 79.67 86.81 79.67 133.11 19.63 133.11" />
  </clipPath>
</defs>
</svg>
