<?xml version="1.0" encoding="UTF-8"?>
<svg xmlns="http://www.w3.org/2000/svg"
     xmlns:xlink="http://www.w3.org/1999/xlink"
     xmlns:gadfly="http://www.gadflyjl.org/ns"
     version="1.2"
     width="203.2mm" height="101.6mm" viewBox="0 0 203.2 101.6"
     stroke="none"
     fill="#000000"
     stroke-width="0.3"
     font-size="3.88"
>
<defs>
  <marker id="arrow" markerWidth="15" markerHeight="7" refX="5" refY="3.5" orient="auto" markerUnits="strokeWidth">
    <path d="M0,0 L15,3.5 L0,7 z" stroke="context-stroke" fill="context-stroke"/>
  </marker>
</defs>
<g class="plotroot xscalable yscalable" id="img-503e3cf0-1">
  <g font-size="3.88" font-family="'PT Sans','Helvetica Neue','Helvetica',sans-serif" fill="#564A55" stroke="#000000" stroke-opacity="0.000" id="img-503e3cf0-2">
    <g transform="translate(108.08,89.99)">
      <g class="primitive">
        <text text-anchor="middle" dy="0.6em">kMeas/kCalc</text>
      </g>
    </g>
  </g>
  <g class="guide xlabels" font-size="2.82" font-family="'PT Sans Caption','Helvetica Neue','Helvetica',sans-serif" fill="#6C606B" id="img-503e3cf0-3">
    <g transform="translate(19.96,83.32)">
      <g class="primitive">
        <text text-anchor="middle" dy="0.6em">0.0</text>
      </g>
    </g>
    <g transform="translate(64.02,83.32)">
      <g class="primitive">
        <text text-anchor="middle" dy="0.6em">0.5</text>
      </g>
    </g>
    <g transform="translate(108.08,83.32)">
      <g class="primitive">
        <text text-anchor="middle" dy="0.6em">1.0</text>
      </g>
    </g>
    <g transform="translate(152.14,83.32)">
      <g class="primitive">
        <text text-anchor="middle" dy="0.6em">1.5</text>
      </g>
    </g>
    <g transform="translate(196.2,83.32)">
      <g class="primitive">
        <text text-anchor="middle" dy="0.6em">2.0</text>
      </g>
    </g>
  </g>
  <g clip-path="url(#img-503e3cf0-4)">
    <g id="img-503e3cf0-5">
      <g pointer-events="visible" stroke-width="0.3" fill="#000000" fill-opacity="0.000" stroke="#000000" stroke-opacity="0.000" class="guide background" id="img-503e3cf0-6">
        <g transform="translate(108.08,46.46)" id="img-503e3cf0-7">
          <path d="M-90.12,-35.85 L 90.12 -35.85 90.12 35.85 -90.12 35.85 z" class="primitive"/>
        </g>
      </g>
      <g class="guide ygridlines xfixed" stroke-dasharray="0.5,0.5" stroke-width="0.2" stroke="#D0D0E0" id="img-503e3cf0-8">
        <g transform="translate(108.08,80.32)" id="img-503e3cf0-9">
          <path fill="none" d="M-90.12,0 L 90.12 0" class="primitive"/>
        </g>
        <g transform="translate(108.08,57.75)" id="img-503e3cf0-10">
          <path fill="none" d="M-90.12,0 L 90.12 0" class="primitive"/>
        </g>
        <g transform="translate(108.08,35.18)" id="img-503e3cf0-11">
          <path fill="none" d="M-90.12,0 L 90.12 0" class="primitive"/>
        </g>
        <g transform="translate(108.08,12.61)" id="img-503e3cf0-12">
          <path fill="none" d="M-90.12,0 L 90.12 0" class="primitive"/>
        </g>
      </g>
      <g class="guide xgridlines yfixed" stroke-dasharray="0.5,0.5" stroke-width="0.2" stroke="#D0D0E0" id="img-503e3cf0-13">
        <g transform="translate(19.96,46.46)" id="img-503e3cf0-14">
          <path fill="none" d="M0,-35.85 L 0 35.85" class="primitive"/>
        </g>
        <g transform="translate(64.02,46.46)" id="img-503e3cf0-15">
          <path fill="none" d="M0,-35.85 L 0 35.85" class="primitive"/>
        </g>
        <g transform="translate(108.08,46.46)" id="img-503e3cf0-16">
          <path fill="none" d="M0,-35.85 L 0 35.85" class="primitive"/>
        </g>
        <g transform="translate(152.14,46.46)" id="img-503e3cf0-17">
          <path fill="none" d="M0,-35.85 L 0 35.85" class="primitive"/>
        </g>
        <g transform="translate(196.2,46.46)" id="img-503e3cf0-18">
          <path fill="none" d="M0,-35.85 L 0 35.85" class="primitive"/>
        </g>
      </g>
      <g class="plotpanel" id="img-503e3cf0-19">
        <metadata>
          <boundingbox value="17.958333333333343mm 10.611666666666665mm 180.24166666666665mm 71.70333333333333mm"/>
          <unitbox value="-0.02269610856305263 30.88621929003988 2.045392217126105 -31.772438580079758"/>
        </metadata>
        <g shape-rendering="crispEdges" stroke-width="0.3" id="img-503e3cf0-20">
          <g class="geometry" fill-opacity="1" stroke="#000000" stroke-opacity="0.000" fill="#00BFFF" id="img-503e3cf0-21">
            <g transform="translate(58.3,78.06)" id="img-503e3cf0-22">
              <path d="M-1.7,-2.26 L 1.7 -2.26 1.7 2.26 -1.7 2.26 z" class="primitive"/>
            </g>
            <g transform="translate(61.65,79.19)" id="img-503e3cf0-23">
              <path d="M-1.7,-1.13 L 1.7 -1.13 1.7 1.13 -1.7 1.13 z" class="primitive"/>
            </g>
            <g transform="translate(65,80.32)" id="img-503e3cf0-24">
              <path d="M-1.7,-0 L 1.7 -0 1.7 0 -1.7 0 z" class="primitive"/>
            </g>
            <g transform="translate(68.35,79.19)" id="img-503e3cf0-25">
              <path d="M-1.7,-1.13 L 1.7 -1.13 1.7 1.13 -1.7 1.13 z" class="primitive"/>
            </g>
            <g transform="translate(71.7,80.32)" id="img-503e3cf0-26">
              <path d="M-1.7,-0 L 1.7 -0 1.7 0 -1.7 0 z" class="primitive"/>
            </g>
            <g transform="translate(75.05,79.19)" id="img-503e3cf0-27">
              <path d="M-1.7,-1.13 L 1.7 -1.13 1.7 1.13 -1.7 1.13 z" class="primitive"/>
            </g>
            <g transform="translate(78.4,79.19)" id="img-503e3cf0-28">
              <path d="M-1.7,-1.13 L 1.7 -1.13 1.7 1.13 -1.7 1.13 z" class="primitive"/>
            </g>
            <g transform="translate(81.75,80.32)" id="img-503e3cf0-29">
              <path d="M-1.7,-0 L 1.7 -0 1.7 0 -1.7 0 z" class="primitive"/>
            </g>
            <g transform="translate(85.1,79.19)" id="img-503e3cf0-30">
              <path d="M-1.7,-1.13 L 1.7 -1.13 1.7 1.13 -1.7 1.13 z" class="primitive"/>
            </g>
            <g transform="translate(88.44,80.32)" id="img-503e3cf0-31">
              <path d="M-1.7,-0 L 1.7 -0 1.7 0 -1.7 0 z" class="primitive"/>
            </g>
            <g transform="translate(91.79,74.67)" id="img-503e3cf0-32">
              <path d="M-1.7,-5.64 L 1.7 -5.64 1.7 5.64 -1.7 5.64 z" class="primitive"/>
            </g>
            <g transform="translate(95.14,73.54)" id="img-503e3cf0-33">
              <path d="M-1.7,-6.77 L 1.7 -6.77 1.7 6.77 -1.7 6.77 z" class="primitive"/>
            </g>
            <g transform="translate(98.49,73.54)" id="img-503e3cf0-34">
              <path d="M-1.7,-6.77 L 1.7 -6.77 1.7 6.77 -1.7 6.77 z" class="primitive"/>
            </g>
            <g transform="translate(101.84,70.16)" id="img-503e3cf0-35">
              <path d="M-1.7,-10.16 L 1.7 -10.16 1.7 10.16 -1.7 10.16 z" class="primitive"/>
            </g>
            <g transform="translate(105.19,63.39)" id="img-503e3cf0-36">
              <path d="M-1.7,-16.93 L 1.7 -16.93 1.7 16.93 -1.7 16.93 z" class="primitive"/>
            </g>
            <g transform="translate(108.54,49.85)" id="img-503e3cf0-37">
              <path d="M-1.7,-30.47 L 1.7 -30.47 1.7 30.47 -1.7 30.47 z" class="primitive"/>
            </g>
            <g transform="translate(111.89,56.62)" id="img-503e3cf0-38">
              <path d="M-1.7,-23.7 L 1.7 -23.7 1.7 23.7 -1.7 23.7 z" class="primitive"/>
            </g>
            <g transform="translate(115.24,67.9)" id="img-503e3cf0-39">
              <path d="M-1.7,-12.41 L 1.7 -12.41 1.7 12.41 -1.7 12.41 z" class="primitive"/>
            </g>
            <g transform="translate(118.59,64.52)" id="img-503e3cf0-40">
              <path d="M-1.7,-15.8 L 1.7 -15.8 1.7 15.8 -1.7 15.8 z" class="primitive"/>
            </g>
            <g transform="translate(121.94,62.26)" id="img-503e3cf0-41">
              <path d="M-1.7,-18.05 L 1.7 -18.05 1.7 18.05 -1.7 18.05 z" class="primitive"/>
            </g>
            <g transform="translate(125.28,78.06)" id="img-503e3cf0-42">
              <path d="M-1.7,-2.26 L 1.7 -2.26 1.7 2.26 -1.7 2.26 z" class="primitive"/>
            </g>
            <g transform="translate(128.63,78.06)" id="img-503e3cf0-43">
              <path d="M-1.7,-2.26 L 1.7 -2.26 1.7 2.26 -1.7 2.26 z" class="primitive"/>
            </g>
            <g transform="translate(131.98,78.06)" id="img-503e3cf0-44">
              <path d="M-1.7,-2.26 L 1.7 -2.26 1.7 2.26 -1.7 2.26 z" class="primitive"/>
            </g>
            <g transform="translate(135.33,73.54)" id="img-503e3cf0-45">
              <path d="M-1.7,-6.77 L 1.7 -6.77 1.7 6.77 -1.7 6.77 z" class="primitive"/>
            </g>
            <g transform="translate(138.68,79.19)" id="img-503e3cf0-46">
              <path d="M-1.7,-1.13 L 1.7 -1.13 1.7 1.13 -1.7 1.13 z" class="primitive"/>
            </g>
            <g transform="translate(142.03,76.93)" id="img-503e3cf0-47">
              <path d="M-1.7,-3.39 L 1.7 -3.39 1.7 3.39 -1.7 3.39 z" class="primitive"/>
            </g>
            <g transform="translate(145.38,76.93)" id="img-503e3cf0-48">
              <path d="M-1.7,-3.39 L 1.7 -3.39 1.7 3.39 -1.7 3.39 z" class="primitive"/>
            </g>
            <g transform="translate(148.73,75.8)" id="img-503e3cf0-49">
              <path d="M-1.7,-4.51 L 1.7 -4.51 1.7 4.51 -1.7 4.51 z" class="primitive"/>
            </g>
            <g transform="translate(152.08,79.19)" id="img-503e3cf0-50">
              <path d="M-1.7,-1.13 L 1.7 -1.13 1.7 1.13 -1.7 1.13 z" class="primitive"/>
            </g>
            <g transform="translate(155.43,71.29)" id="img-503e3cf0-51">
              <path d="M-1.7,-9.03 L 1.7 -9.03 1.7 9.03 -1.7 9.03 z" class="primitive"/>
            </g>
            <g transform="translate(158.78,75.8)" id="img-503e3cf0-52">
              <path d="M-1.7,-4.51 L 1.7 -4.51 1.7 4.51 -1.7 4.51 z" class="primitive"/>
            </g>
            <g transform="translate(162.12,75.8)" id="img-503e3cf0-53">
              <path d="M-1.7,-4.51 L 1.7 -4.51 1.7 4.51 -1.7 4.51 z" class="primitive"/>
            </g>
            <g transform="translate(165.47,73.54)" id="img-503e3cf0-54">
              <path d="M-1.7,-6.77 L 1.7 -6.77 1.7 6.77 -1.7 6.77 z" class="primitive"/>
            </g>
            <g transform="translate(168.82,79.19)" id="img-503e3cf0-55">
              <path d="M-1.7,-1.13 L 1.7 -1.13 1.7 1.13 -1.7 1.13 z" class="primitive"/>
            </g>
            <g transform="translate(172.17,80.32)" id="img-503e3cf0-56">
              <path d="M-1.7,-0 L 1.7 -0 1.7 0 -1.7 0 z" class="primitive"/>
            </g>
            <g transform="translate(175.52,79.19)" id="img-503e3cf0-57">
              <path d="M-1.7,-1.13 L 1.7 -1.13 1.7 1.13 -1.7 1.13 z" class="primitive"/>
            </g>
            <g transform="translate(178.87,79.19)" id="img-503e3cf0-58">
              <path d="M-1.7,-1.13 L 1.7 -1.13 1.7 1.13 -1.7 1.13 z" class="primitive"/>
            </g>
            <g transform="translate(182.22,79.19)" id="img-503e3cf0-59">
              <path d="M-1.7,-1.13 L 1.7 -1.13 1.7 1.13 -1.7 1.13 z" class="primitive"/>
            </g>
            <g transform="translate(185.57,80.32)" id="img-503e3cf0-60">
              <path d="M-1.7,-0 L 1.7 -0 1.7 0 -1.7 0 z" class="primitive"/>
            </g>
            <g transform="translate(188.92,80.32)" id="img-503e3cf0-61">
              <path d="M-1.7,-0 L 1.7 -0 1.7 0 -1.7 0 z" class="primitive"/>
            </g>
            <g transform="translate(192.27,80.32)" id="img-503e3cf0-62">
              <path d="M-1.7,-0 L 1.7 -0 1.7 0 -1.7 0 z" class="primitive"/>
            </g>
            <g transform="translate(195.61,79.19)" id="img-503e3cf0-63">
              <path d="M-1.7,-1.13 L 1.7 -1.13 1.7 1.13 -1.7 1.13 z" class="primitive"/>
            </g>
            <g transform="translate(198.96,80.32)" id="img-503e3cf0-64">
              <path d="M-1.7,-0 L 1.7 -0 1.7 0 -1.7 0 z" class="primitive"/>
            </g>
            <g transform="translate(202.31,80.32)" id="img-503e3cf0-65">
              <path d="M-1.7,-0 L 1.7 -0 1.7 0 -1.7 0 z" class="primitive"/>
            </g>
            <g transform="translate(205.66,79.19)" id="img-503e3cf0-66">
              <path d="M-1.7,-1.13 L 1.7 -1.13 1.7 1.13 -1.7 1.13 z" class="primitive"/>
            </g>
            <g transform="translate(209.01,80.32)" id="img-503e3cf0-67">
              <path d="M-1.7,-0 L 1.7 -0 1.7 0 -1.7 0 z" class="primitive"/>
            </g>
            <g transform="translate(212.36,80.32)" id="img-503e3cf0-68">
              <path d="M-1.7,-0 L 1.7 -0 1.7 0 -1.7 0 z" class="primitive"/>
            </g>
            <g transform="translate(215.71,80.32)" id="img-503e3cf0-69">
              <path d="M-1.7,-0 L 1.7 -0 1.7 0 -1.7 0 z" class="primitive"/>
            </g>
            <g transform="translate(219.06,80.32)" id="img-503e3cf0-70">
              <path d="M-1.7,-0 L 1.7 -0 1.7 0 -1.7 0 z" class="primitive"/>
            </g>
            <g transform="translate(222.41,79.19)" id="img-503e3cf0-71">
              <path d="M-1.7,-1.13 L 1.7 -1.13 1.7 1.13 -1.7 1.13 z" class="primitive"/>
            </g>
          </g>
        </g>
      </g>
    </g>
  </g>
  <g class="guide ylabels" font-size="2.82" font-family="'PT Sans Caption','Helvetica Neue','Helvetica',sans-serif" fill="#6C606B" id="img-503e3cf0-72">
    <g transform="translate(16.96,80.32)" id="img-503e3cf0-73">
      <g class="primitive">
        <text text-anchor="end" dy="0.35em">0</text>
      </g>
    </g>
    <g transform="translate(16.96,57.75)" id="img-503e3cf0-74">
      <g class="primitive">
        <text text-anchor="end" dy="0.35em">10</text>
      </g>
    </g>
    <g transform="translate(16.96,35.18)" id="img-503e3cf0-75">
      <g class="primitive">
        <text text-anchor="end" dy="0.35em">20</text>
      </g>
    </g>
    <g transform="translate(16.96,12.61)" id="img-503e3cf0-76">
      <g class="primitive">
        <text text-anchor="end" dy="0.35em">30</text>
      </g>
    </g>
  </g>
  <g font-size="3.88" font-family="'PT Sans','Helvetica Neue','Helvetica',sans-serif" fill="#564A55" stroke="#000000" stroke-opacity="0.000" id="img-503e3cf0-77">
    <g transform="translate(8.81,44.46)" id="img-503e3cf0-78">
      <g class="primitive">
        <text text-anchor="middle" dy="0.35em" transform="rotate(-90,0, 2)">Count</text>
      </g>
    </g>
  </g>
  <g font-size="3.88" font-family="'PT Sans','Helvetica Neue','Helvetica',sans-serif" fill="#564A55" stroke="#000000" stroke-opacity="0.000" id="img-503e3cf0-79">
    <g transform="translate(108.08,5)" id="img-503e3cf0-80">
      <g class="primitive">
        <text text-anchor="middle" dy="0.6em">XPP</text>
      </g>
    </g>
  </g>
</g>
<defs>
  <clipPath id="img-503e3cf0-4">
    <path d="M17.96,10.61 L 198.2 10.61 198.2 82.32 17.96 82.32" />
  </clipPath>
</defs>
</svg>
