<?xml version="1.0" encoding="UTF-8"?>
<svg xmlns="http://www.w3.org/2000/svg"
     xmlns:xlink="http://www.w3.org/1999/xlink"
     xmlns:gadfly="http://www.gadflyjl.org/ns"
     version="1.2"
     width="203.2mm" height="101.6mm" viewBox="0 0 203.2 101.6"
     stroke="none"
     fill="#000000"
     stroke-width="0.3"
     font-size="3.88"
>
<defs>
  <marker id="arrow" markerWidth="15" markerHeight="7" refX="5" refY="3.5" orient="auto" markerUnits="strokeWidth">
    <path d="M0,0 L15,3.5 L0,7 z" stroke="context-stroke" fill="context-stroke"/>
  </marker>
</defs>
<g class="plotroot xscalable yscalable" id="img-931e4629-1">
  <g font-size="3.88" font-family="'PT Sans','Helvetica Neue','Helvetica',sans-serif" fill="#564A55" stroke="#000000" stroke-opacity="0.000" id="img-931e4629-2">
    <g transform="translate(108.92,89.99)">
      <g class="primitive">
        <text text-anchor="middle" dy="0.6em">XPP</text>
      </g>
    </g>
  </g>
  <g class="guide xlabels" font-size="2.82" font-family="'PT Sans Caption','Helvetica Neue','Helvetica',sans-serif" fill="#6C606B" id="img-931e4629-3">
    <g transform="translate(21.63,83.32)">
      <g class="primitive">
        <text text-anchor="middle" dy="0.6em">0.8</text>
      </g>
    </g>
    <g transform="translate(65.27,83.32)">
      <g class="primitive">
        <text text-anchor="middle" dy="0.6em">0.9</text>
      </g>
    </g>
    <g transform="translate(108.92,83.32)">
      <g class="primitive">
        <text text-anchor="middle" dy="0.6em">1.0</text>
      </g>
    </g>
    <g transform="translate(152.56,83.32)">
      <g class="primitive">
        <text text-anchor="middle" dy="0.6em">1.1</text>
      </g>
    </g>
    <g transform="translate(196.2,83.32)">
      <g class="primitive">
        <text text-anchor="middle" dy="0.6em">1.2</text>
      </g>
    </g>
  </g>
  <g clip-path="url(#img-931e4629-4)">
    <g id="img-931e4629-5">
      <g pointer-events="visible" stroke-width="0.3" fill="#000000" fill-opacity="0.000" stroke="#000000" stroke-opacity="0.000" class="guide background" id="img-931e4629-6">
        <g transform="translate(108.92,46.46)" id="img-931e4629-7">
          <path d="M-89.28,-35.85 L 89.28 -35.85 89.28 35.85 -89.28 35.85 z" class="primitive"/>
        </g>
      </g>
      <g class="guide ygridlines xfixed" stroke-dasharray="0.5,0.5" stroke-width="0.2" stroke="#D0D0E0" id="img-931e4629-8">
        <g transform="translate(108.92,80.32)" id="img-931e4629-9">
          <path fill="none" d="M-89.28,0 L 89.28 0" class="primitive"/>
        </g>
        <g transform="translate(108.92,57.75)" id="img-931e4629-10">
          <path fill="none" d="M-89.28,0 L 89.28 0" class="primitive"/>
        </g>
        <g transform="translate(108.92,35.18)" id="img-931e4629-11">
          <path fill="none" d="M-89.28,0 L 89.28 0" class="primitive"/>
        </g>
        <g transform="translate(108.92,12.61)" id="img-931e4629-12">
          <path fill="none" d="M-89.28,0 L 89.28 0" class="primitive"/>
        </g>
      </g>
      <g class="guide xgridlines yfixed" stroke-dasharray="0.5,0.5" stroke-width="0.2" stroke="#D0D0E0" id="img-931e4629-13">
        <g transform="translate(21.63,46.46)" id="img-931e4629-14">
          <path fill="none" d="M0,-35.85 L 0 35.85" class="primitive"/>
        </g>
        <g transform="translate(65.27,46.46)" id="img-931e4629-15">
          <path fill="none" d="M0,-35.85 L 0 35.85" class="primitive"/>
        </g>
        <g transform="translate(108.92,46.46)" id="img-931e4629-16">
          <path fill="none" d="M0,-35.85 L 0 35.85" class="primitive"/>
        </g>
        <g transform="translate(152.56,46.46)" id="img-931e4629-17">
          <path fill="none" d="M0,-35.85 L 0 35.85" class="primitive"/>
        </g>
        <g transform="translate(196.2,46.46)" id="img-931e4629-18">
          <path fill="none" d="M0,-35.85 L 0 35.85" class="primitive"/>
        </g>
      </g>
      <g class="plotpanel" id="img-931e4629-19">
        <metadata>
          <boundingbox value="19.63166666666669mm 10.611666666666665mm 178.5683333333333mm 71.70333333333333mm"/>
          <unitbox value="0.7954172673547131 154.4310964501994 0.40916546529057407 -158.86219290039878"/>
        </metadata>
        <g shape-rendering="crispEdges" stroke-width="0.3" id="img-931e4629-20">
          <g class="geometry" fill-opacity="1" stroke="#000000" stroke-opacity="0.000" fill="#00BFFF" id="img-931e4629-21">
            <g transform="translate(65.42,80.09)" id="img-931e4629-22">
              <path d="M-1.3,-0.23 L 1.3 -0.23 1.3 0.23 -1.3 0.23 z" class="primitive"/>
            </g>
            <g transform="translate(67.98,80.09)" id="img-931e4629-23">
              <path d="M-1.3,-0.23 L 1.3 -0.23 1.3 0.23 -1.3 0.23 z" class="primitive"/>
            </g>
            <g transform="translate(70.53,80.09)" id="img-931e4629-24">
              <path d="M-1.3,-0.23 L 1.3 -0.23 1.3 0.23 -1.3 0.23 z" class="primitive"/>
            </g>
            <g transform="translate(73.09,80.09)" id="img-931e4629-25">
              <path d="M-1.3,-0.23 L 1.3 -0.23 1.3 0.23 -1.3 0.23 z" class="primitive"/>
            </g>
            <g transform="translate(75.64,80.32)" id="img-931e4629-26">
              <path d="M-1.3,-0 L 1.3 -0 1.3 0 -1.3 0 z" class="primitive"/>
            </g>
            <g transform="translate(78.2,80.09)" id="img-931e4629-27">
              <path d="M-1.3,-0.23 L 1.3 -0.23 1.3 0.23 -1.3 0.23 z" class="primitive"/>
            </g>
            <g transform="translate(80.75,80.09)" id="img-931e4629-28">
              <path d="M-1.3,-0.23 L 1.3 -0.23 1.3 0.23 -1.3 0.23 z" class="primitive"/>
            </g>
            <g transform="translate(83.31,80.09)" id="img-931e4629-29">
              <path d="M-1.3,-0.23 L 1.3 -0.23 1.3 0.23 -1.3 0.23 z" class="primitive"/>
            </g>
            <g transform="translate(85.86,80.09)" id="img-931e4629-30">
              <path d="M-1.3,-0.23 L 1.3 -0.23 1.3 0.23 -1.3 0.23 z" class="primitive"/>
            </g>
            <g transform="translate(88.42,79.41)" id="img-931e4629-31">
              <path d="M-1.3,-0.9 L 1.3 -0.9 1.3 0.9 -1.3 0.9 z" class="primitive"/>
            </g>
            <g transform="translate(90.97,79.19)" id="img-931e4629-32">
              <path d="M-1.3,-1.13 L 1.3 -1.13 1.3 1.13 -1.3 1.13 z" class="primitive"/>
            </g>
            <g transform="translate(93.53,78.74)" id="img-931e4629-33">
              <path d="M-1.3,-1.58 L 1.3 -1.58 1.3 1.58 -1.3 1.58 z" class="primitive"/>
            </g>
            <g transform="translate(96.08,74.9)" id="img-931e4629-34">
              <path d="M-1.3,-5.42 L 1.3 -5.42 1.3 5.42 -1.3 5.42 z" class="primitive"/>
            </g>
            <g transform="translate(98.64,71.06)" id="img-931e4629-35">
              <path d="M-1.3,-9.25 L 1.3 -9.25 1.3 9.25 -1.3 9.25 z" class="primitive"/>
            </g>
            <g transform="translate(101.19,66.55)" id="img-931e4629-36">
              <path d="M-1.3,-13.77 L 1.3 -13.77 1.3 13.77 -1.3 13.77 z" class="primitive"/>
            </g>
            <g transform="translate(103.75,59.33)" id="img-931e4629-37">
              <path d="M-1.3,-20.99 L 1.3 -20.99 1.3 20.99 -1.3 20.99 z" class="primitive"/>
            </g>
            <g transform="translate(106.3,55.04)" id="img-931e4629-38">
              <path d="M-1.3,-25.28 L 1.3 -25.28 1.3 25.28 -1.3 25.28 z" class="primitive"/>
            </g>
            <g transform="translate(108.85,52.33)" id="img-931e4629-39">
              <path d="M-1.3,-27.98 L 1.3 -27.98 1.3 27.98 -1.3 27.98 z" class="primitive"/>
            </g>
            <g transform="translate(111.41,58.2)" id="img-931e4629-40">
              <path d="M-1.3,-22.12 L 1.3 -22.12 1.3 22.12 -1.3 22.12 z" class="primitive"/>
            </g>
            <g transform="translate(113.96,65.87)" id="img-931e4629-41">
              <path d="M-1.3,-14.44 L 1.3 -14.44 1.3 14.44 -1.3 14.44 z" class="primitive"/>
            </g>
            <g transform="translate(116.52,70.84)" id="img-931e4629-42">
              <path d="M-1.3,-9.48 L 1.3 -9.48 1.3 9.48 -1.3 9.48 z" class="primitive"/>
            </g>
            <g transform="translate(119.07,72.87)" id="img-931e4629-43">
              <path d="M-1.3,-7.45 L 1.3 -7.45 1.3 7.45 -1.3 7.45 z" class="primitive"/>
            </g>
            <g transform="translate(121.63,75.12)" id="img-931e4629-44">
              <path d="M-1.3,-5.19 L 1.3 -5.19 1.3 5.19 -1.3 5.19 z" class="primitive"/>
            </g>
            <g transform="translate(124.18,76.03)" id="img-931e4629-45">
              <path d="M-1.3,-4.29 L 1.3 -4.29 1.3 4.29 -1.3 4.29 z" class="primitive"/>
            </g>
            <g transform="translate(126.74,78.06)" id="img-931e4629-46">
              <path d="M-1.3,-2.26 L 1.3 -2.26 1.3 2.26 -1.3 2.26 z" class="primitive"/>
            </g>
            <g transform="translate(129.29,78.28)" id="img-931e4629-47">
              <path d="M-1.3,-2.03 L 1.3 -2.03 1.3 2.03 -1.3 2.03 z" class="primitive"/>
            </g>
            <g transform="translate(131.85,78.28)" id="img-931e4629-48">
              <path d="M-1.3,-2.03 L 1.3 -2.03 1.3 2.03 -1.3 2.03 z" class="primitive"/>
            </g>
            <g transform="translate(134.4,78.51)" id="img-931e4629-49">
              <path d="M-1.3,-1.81 L 1.3 -1.81 1.3 1.81 -1.3 1.81 z" class="primitive"/>
            </g>
            <g transform="translate(136.96,79.41)" id="img-931e4629-50">
              <path d="M-1.3,-0.9 L 1.3 -0.9 1.3 0.9 -1.3 0.9 z" class="primitive"/>
            </g>
            <g transform="translate(139.51,78.96)" id="img-931e4629-51">
              <path d="M-1.3,-1.35 L 1.3 -1.35 1.3 1.35 -1.3 1.35 z" class="primitive"/>
            </g>
            <g transform="translate(142.07,79.19)" id="img-931e4629-52">
              <path d="M-1.3,-1.13 L 1.3 -1.13 1.3 1.13 -1.3 1.13 z" class="primitive"/>
            </g>
            <g transform="translate(144.62,78.74)" id="img-931e4629-53">
              <path d="M-1.3,-1.58 L 1.3 -1.58 1.3 1.58 -1.3 1.58 z" class="primitive"/>
            </g>
            <g transform="translate(147.18,79.86)" id="img-931e4629-54">
              <path d="M-1.3,-0.45 L 1.3 -0.45 1.3 0.45 -1.3 0.45 z" class="primitive"/>
            </g>
            <g transform="translate(149.73,80.09)" id="img-931e4629-55">
              <path d="M-1.3,-0.23 L 1.3 -0.23 1.3 0.23 -1.3 0.23 z" class="primitive"/>
            </g>
            <g transform="translate(152.29,79.64)" id="img-931e4629-56">
              <path d="M-1.3,-0.68 L 1.3 -0.68 1.3 0.68 -1.3 0.68 z" class="primitive"/>
            </g>
            <g transform="translate(154.84,80.32)" id="img-931e4629-57">
              <path d="M-1.3,-0 L 1.3 -0 1.3 0 -1.3 0 z" class="primitive"/>
            </g>
            <g transform="translate(157.4,80.32)" id="img-931e4629-58">
              <path d="M-1.3,-0 L 1.3 -0 1.3 0 -1.3 0 z" class="primitive"/>
            </g>
            <g transform="translate(159.95,80.09)" id="img-931e4629-59">
              <path d="M-1.3,-0.23 L 1.3 -0.23 1.3 0.23 -1.3 0.23 z" class="primitive"/>
            </g>
            <g transform="translate(162.51,80.32)" id="img-931e4629-60">
              <path d="M-1.3,-0 L 1.3 -0 1.3 0 -1.3 0 z" class="primitive"/>
            </g>
            <g transform="translate(165.06,80.32)" id="img-931e4629-61">
              <path d="M-1.3,-0 L 1.3 -0 1.3 0 -1.3 0 z" class="primitive"/>
            </g>
            <g transform="translate(167.62,80.09)" id="img-931e4629-62">
              <path d="M-1.3,-0.23 L 1.3 -0.23 1.3 0.23 -1.3 0.23 z" class="primitive"/>
            </g>
            <g transform="translate(170.17,80.09)" id="img-931e4629-63">
              <path d="M-1.3,-0.23 L 1.3 -0.23 1.3 0.23 -1.3 0.23 z" class="primitive"/>
            </g>
            <g transform="translate(172.73,80.32)" id="img-931e4629-64">
              <path d="M-1.3,-0 L 1.3 -0 1.3 0 -1.3 0 z" class="primitive"/>
            </g>
            <g transform="translate(175.28,80.32)" id="img-931e4629-65">
              <path d="M-1.3,-0 L 1.3 -0 1.3 0 -1.3 0 z" class="primitive"/>
            </g>
            <g transform="translate(177.84,80.32)" id="img-931e4629-66">
              <path d="M-1.3,-0 L 1.3 -0 1.3 0 -1.3 0 z" class="primitive"/>
            </g>
            <g transform="translate(180.39,80.32)" id="img-931e4629-67">
              <path d="M-1.3,-0 L 1.3 -0 1.3 0 -1.3 0 z" class="primitive"/>
            </g>
            <g transform="translate(182.95,80.32)" id="img-931e4629-68">
              <path d="M-1.3,-0 L 1.3 -0 1.3 0 -1.3 0 z" class="primitive"/>
            </g>
            <g transform="translate(185.5,80.32)" id="img-931e4629-69">
              <path d="M-1.3,-0 L 1.3 -0 1.3 0 -1.3 0 z" class="primitive"/>
            </g>
            <g transform="translate(188.06,80.32)" id="img-931e4629-70">
              <path d="M-1.3,-0 L 1.3 -0 1.3 0 -1.3 0 z" class="primitive"/>
            </g>
            <g transform="translate(190.61,80.09)" id="img-931e4629-71">
              <path d="M-1.3,-0.23 L 1.3 -0.23 1.3 0.23 -1.3 0.23 z" class="primitive"/>
            </g>
          </g>
        </g>
      </g>
    </g>
  </g>
  <g class="guide ylabels" font-size="2.82" font-family="'PT Sans Caption','Helvetica Neue','Helvetica',sans-serif" fill="#6C606B" id="img-931e4629-72">
    <g transform="translate(18.63,80.32)" id="img-931e4629-73">
      <g class="primitive">
        <text text-anchor="end" dy="0.35em">0</text>
      </g>
    </g>
    <g transform="translate(18.63,57.75)" id="img-931e4629-74">
      <g class="primitive">
        <text text-anchor="end" dy="0.35em">50</text>
      </g>
    </g>
    <g transform="translate(18.63,35.18)" id="img-931e4629-75">
      <g class="primitive">
        <text text-anchor="end" dy="0.35em">100</text>
      </g>
    </g>
    <g transform="translate(18.63,12.61)" id="img-931e4629-76">
      <g class="primitive">
        <text text-anchor="end" dy="0.35em">150</text>
      </g>
    </g>
  </g>
  <g font-size="3.88" font-family="'PT Sans','Helvetica Neue','Helvetica',sans-serif" fill="#564A55" stroke="#000000" stroke-opacity="0.000" id="img-931e4629-77">
    <g transform="translate(8.81,44.46)" id="img-931e4629-78">
      <g class="primitive">
        <text text-anchor="middle" dy="0.35em" transform="rotate(-90,0, 2)">XPP</text>
      </g>
    </g>
  </g>
  <g font-size="3.88" font-family="'PT Sans','Helvetica Neue','Helvetica',sans-serif" fill="#564A55" stroke="#000000" stroke-opacity="0.000" id="img-931e4629-79">
    <g transform="translate(108.92,5)" id="img-931e4629-80">
      <g class="primitive">
        <text text-anchor="middle" dy="0.6em">XPP</text>
      </g>
    </g>
  </g>
</g>
<defs>
  <clipPath id="img-931e4629-4">
    <path d="M19.63,10.61 L 198.2 10.61 198.2 82.32 19.63 82.32" />
  </clipPath>
</defs>
</svg>
