<?xml version="1.0" encoding="UTF-8"?>
<svg xmlns="http://www.w3.org/2000/svg"
     xmlns:xlink="http://www.w3.org/1999/xlink"
     xmlns:gadfly="http://www.gadflyjl.org/ns"
     version="1.2"
     width="254mm" height="152.4mm" viewBox="0 0 254 152.4"
     stroke="none"
     fill="#000000"
     stroke-width="0.3"
     font-size="3.88"
>
<defs>
  <marker id="arrow" markerWidth="15" markerHeight="7" refX="5" refY="3.5" orient="auto" markerUnits="strokeWidth">
    <path d="M0,0 L15,3.5 L0,7 z" stroke="context-stroke" fill="context-stroke"/>
  </marker>
</defs>
<g class="plotroot xscalable yscalable" id="img-a21cb038-1">
  <g font-size="3.88" font-family="'PT Sans','Helvetica Neue','Helvetica',sans-serif" fill="#564A55" stroke="#000000" stroke-opacity="0.000" id="img-a21cb038-2">
    <g transform="translate(218.15,140.79)">
      <g class="primitive">
        <text text-anchor="middle" dy="0.6em">kMeas/kCalc</text>
      </g>
    </g>
  </g>
  <g class="guide xlabels" font-size="2.82" font-family="'PT Sans Caption','Helvetica Neue','Helvetica',sans-serif" fill="#6C606B" id="img-a21cb038-3">
    <g transform="translate(189.29,134.11)">
      <g class="primitive">
        <text text-anchor="middle" dy="0.6em">0.0</text>
      </g>
    </g>
    <g transform="translate(203.72,134.11)">
      <g class="primitive">
        <text text-anchor="middle" dy="0.6em">0.5</text>
      </g>
    </g>
    <g transform="translate(218.15,134.11)">
      <g class="primitive">
        <text text-anchor="middle" dy="0.6em">1.0</text>
      </g>
    </g>
    <g transform="translate(232.57,134.11)">
      <g class="primitive">
        <text text-anchor="middle" dy="0.6em">1.5</text>
      </g>
    </g>
    <g transform="translate(247,134.11)">
      <g class="primitive">
        <text text-anchor="middle" dy="0.6em">2.0</text>
      </g>
    </g>
  </g>
  <g clip-path="url(#img-a21cb038-4)">
    <g id="img-a21cb038-5">
      <g pointer-events="visible" stroke-width="0.3" fill="#000000" fill-opacity="0.000" stroke="#000000" stroke-opacity="0.000" class="guide background" id="img-a21cb038-6">
        <g transform="translate(218.15,109.96)" id="img-a21cb038-7">
          <path d="M-30.85,-23.15 L 30.85 -23.15 30.85 23.15 -30.85 23.15 z" class="primitive"/>
        </g>
      </g>
      <g class="guide ygridlines xfixed" stroke-dasharray="0.5,0.5" stroke-width="0.2" stroke="#D0D0E0" id="img-a21cb038-8">
        <g transform="translate(218.15,131.11)" id="img-a21cb038-9">
          <path fill="none" d="M-30.85,0 L 30.85 0" class="primitive"/>
        </g>
        <g transform="translate(218.15,109.96)" id="img-a21cb038-10">
          <path fill="none" d="M-30.85,0 L 30.85 0" class="primitive"/>
        </g>
        <g transform="translate(218.15,88.81)" id="img-a21cb038-11">
          <path fill="none" d="M-30.85,0 L 30.85 0" class="primitive"/>
        </g>
      </g>
      <g class="guide xgridlines yfixed" stroke-dasharray="0.5,0.5" stroke-width="0.2" stroke="#D0D0E0" id="img-a21cb038-12">
        <g transform="translate(189.29,109.96)" id="img-a21cb038-13">
          <path fill="none" d="M0,-23.15 L 0 23.15" class="primitive"/>
        </g>
        <g transform="translate(203.72,109.96)" id="img-a21cb038-14">
          <path fill="none" d="M0,-23.15 L 0 23.15" class="primitive"/>
        </g>
        <g transform="translate(218.15,109.96)" id="img-a21cb038-15">
          <path fill="none" d="M0,-23.15 L 0 23.15" class="primitive"/>
        </g>
        <g transform="translate(232.57,109.96)" id="img-a21cb038-16">
          <path fill="none" d="M0,-23.15 L 0 23.15" class="primitive"/>
        </g>
        <g transform="translate(247,109.96)" id="img-a21cb038-17">
          <path fill="none" d="M0,-23.15 L 0 23.15" class="primitive"/>
        </g>
      </g>
      <g class="plotpanel" id="img-a21cb038-18">
        <metadata>
          <boundingbox value="187.29166666666666mm 86.81166666666665mm 61.70833333333332mm 46.30333333333333mm"/>
          <unitbox value="-0.0693140794223827 10.472775982980064 2.1386281588447655 -10.94555196596013"/>
        </metadata>
        <g shape-rendering="crispEdges" stroke-width="0.3" id="img-a21cb038-19">
          <g class="geometry" fill-opacity="1" stroke="#000000" stroke-opacity="0.000" fill="#00BFFF" id="img-a21cb038-20">
            <g transform="translate(215.94,126.88)" id="img-a21cb038-21">
              <path d="M-0.1,-4.23 L 0.1 -4.23 0.1 4.23 -0.1 4.23 z" class="primitive"/>
            </g>
            <g transform="translate(216.08,131.12)" id="img-a21cb038-22">
              <path d="M-0.1,-0 L 0.1 -0 0.1 0 -0.1 0 z" class="primitive"/>
            </g>
            <g transform="translate(216.22,131.12)" id="img-a21cb038-23">
              <path d="M-0.1,-0 L 0.1 -0 0.1 0 -0.1 0 z" class="primitive"/>
            </g>
            <g transform="translate(216.37,131.12)" id="img-a21cb038-24">
              <path d="M-0.1,-0 L 0.1 -0 0.1 0 -0.1 0 z" class="primitive"/>
            </g>
            <g transform="translate(216.51,129)" id="img-a21cb038-25">
              <path d="M-0.1,-2.12 L 0.1 -2.12 0.1 2.12 -0.1 2.12 z" class="primitive"/>
            </g>
            <g transform="translate(216.65,131.12)" id="img-a21cb038-26">
              <path d="M-0.1,-0 L 0.1 -0 0.1 0 -0.1 0 z" class="primitive"/>
            </g>
            <g transform="translate(216.79,131.12)" id="img-a21cb038-27">
              <path d="M-0.1,-0 L 0.1 -0 0.1 0 -0.1 0 z" class="primitive"/>
            </g>
            <g transform="translate(216.94,126.88)" id="img-a21cb038-28">
              <path d="M-0.1,-4.23 L 0.1 -4.23 0.1 4.23 -0.1 4.23 z" class="primitive"/>
            </g>
            <g transform="translate(217.08,129)" id="img-a21cb038-29">
              <path d="M-0.1,-2.12 L 0.1 -2.12 0.1 2.12 -0.1 2.12 z" class="primitive"/>
            </g>
            <g transform="translate(217.22,122.65)" id="img-a21cb038-30">
              <path d="M-0.1,-8.46 L 0.1 -8.46 0.1 8.46 -0.1 8.46 z" class="primitive"/>
            </g>
            <g transform="translate(217.37,122.65)" id="img-a21cb038-31">
              <path d="M-0.1,-8.46 L 0.1 -8.46 0.1 8.46 -0.1 8.46 z" class="primitive"/>
            </g>
            <g transform="translate(217.51,109.96)" id="img-a21cb038-32">
              <path d="M-0.1,-21.15 L 0.1 -21.15 0.1 21.15 -0.1 21.15 z" class="primitive"/>
            </g>
            <g transform="translate(217.65,129)" id="img-a21cb038-33">
              <path d="M-0.1,-2.12 L 0.1 -2.12 0.1 2.12 -0.1 2.12 z" class="primitive"/>
            </g>
            <g transform="translate(217.79,126.88)" id="img-a21cb038-34">
              <path d="M-0.1,-4.23 L 0.1 -4.23 0.1 4.23 -0.1 4.23 z" class="primitive"/>
            </g>
            <g transform="translate(217.94,126.88)" id="img-a21cb038-35">
              <path d="M-0.1,-4.23 L 0.1 -4.23 0.1 4.23 -0.1 4.23 z" class="primitive"/>
            </g>
            <g transform="translate(218.08,124.77)" id="img-a21cb038-36">
              <path d="M-0.1,-6.35 L 0.1 -6.35 0.1 6.35 -0.1 6.35 z" class="primitive"/>
            </g>
            <g transform="translate(218.22,122.65)" id="img-a21cb038-37">
              <path d="M-0.1,-8.46 L 0.1 -8.46 0.1 8.46 -0.1 8.46 z" class="primitive"/>
            </g>
            <g transform="translate(218.36,126.88)" id="img-a21cb038-38">
              <path d="M-0.1,-4.23 L 0.1 -4.23 0.1 4.23 -0.1 4.23 z" class="primitive"/>
            </g>
            <g transform="translate(218.51,124.77)" id="img-a21cb038-39">
              <path d="M-0.1,-6.35 L 0.1 -6.35 0.1 6.35 -0.1 6.35 z" class="primitive"/>
            </g>
            <g transform="translate(218.65,131.12)" id="img-a21cb038-40">
              <path d="M-0.1,-0 L 0.1 -0 0.1 0 -0.1 0 z" class="primitive"/>
            </g>
            <g transform="translate(218.79,126.88)" id="img-a21cb038-41">
              <path d="M-0.1,-4.23 L 0.1 -4.23 0.1 4.23 -0.1 4.23 z" class="primitive"/>
            </g>
            <g transform="translate(218.93,124.77)" id="img-a21cb038-42">
              <path d="M-0.1,-6.35 L 0.1 -6.35 0.1 6.35 -0.1 6.35 z" class="primitive"/>
            </g>
            <g transform="translate(219.08,131.12)" id="img-a21cb038-43">
              <path d="M-0.1,-0 L 0.1 -0 0.1 0 -0.1 0 z" class="primitive"/>
            </g>
            <g transform="translate(219.22,131.12)" id="img-a21cb038-44">
              <path d="M-0.1,-0 L 0.1 -0 0.1 0 -0.1 0 z" class="primitive"/>
            </g>
            <g transform="translate(219.36,129)" id="img-a21cb038-45">
              <path d="M-0.1,-2.12 L 0.1 -2.12 0.1 2.12 -0.1 2.12 z" class="primitive"/>
            </g>
            <g transform="translate(219.51,131.12)" id="img-a21cb038-46">
              <path d="M-0.1,-0 L 0.1 -0 0.1 0 -0.1 0 z" class="primitive"/>
            </g>
            <g transform="translate(219.65,131.12)" id="img-a21cb038-47">
              <path d="M-0.1,-0 L 0.1 -0 0.1 0 -0.1 0 z" class="primitive"/>
            </g>
            <g transform="translate(219.79,129)" id="img-a21cb038-48">
              <path d="M-0.1,-2.12 L 0.1 -2.12 0.1 2.12 -0.1 2.12 z" class="primitive"/>
            </g>
            <g transform="translate(219.93,131.12)" id="img-a21cb038-49">
              <path d="M-0.1,-0 L 0.1 -0 0.1 0 -0.1 0 z" class="primitive"/>
            </g>
            <g transform="translate(220.08,131.12)" id="img-a21cb038-50">
              <path d="M-0.1,-0 L 0.1 -0 0.1 0 -0.1 0 z" class="primitive"/>
            </g>
            <g transform="translate(220.22,131.12)" id="img-a21cb038-51">
              <path d="M-0.1,-0 L 0.1 -0 0.1 0 -0.1 0 z" class="primitive"/>
            </g>
            <g transform="translate(220.36,126.88)" id="img-a21cb038-52">
              <path d="M-0.1,-4.23 L 0.1 -4.23 0.1 4.23 -0.1 4.23 z" class="primitive"/>
            </g>
            <g transform="translate(220.5,129)" id="img-a21cb038-53">
              <path d="M-0.1,-2.12 L 0.1 -2.12 0.1 2.12 -0.1 2.12 z" class="primitive"/>
            </g>
            <g transform="translate(220.65,131.12)" id="img-a21cb038-54">
              <path d="M-0.1,-0 L 0.1 -0 0.1 0 -0.1 0 z" class="primitive"/>
            </g>
            <g transform="translate(220.79,131.12)" id="img-a21cb038-55">
              <path d="M-0.1,-0 L 0.1 -0 0.1 0 -0.1 0 z" class="primitive"/>
            </g>
            <g transform="translate(220.93,131.12)" id="img-a21cb038-56">
              <path d="M-0.1,-0 L 0.1 -0 0.1 0 -0.1 0 z" class="primitive"/>
            </g>
            <g transform="translate(221.07,129)" id="img-a21cb038-57">
              <path d="M-0.1,-2.12 L 0.1 -2.12 0.1 2.12 -0.1 2.12 z" class="primitive"/>
            </g>
            <g transform="translate(221.22,131.12)" id="img-a21cb038-58">
              <path d="M-0.1,-0 L 0.1 -0 0.1 0 -0.1 0 z" class="primitive"/>
            </g>
            <g transform="translate(221.36,131.12)" id="img-a21cb038-59">
              <path d="M-0.1,-0 L 0.1 -0 0.1 0 -0.1 0 z" class="primitive"/>
            </g>
            <g transform="translate(221.5,131.12)" id="img-a21cb038-60">
              <path d="M-0.1,-0 L 0.1 -0 0.1 0 -0.1 0 z" class="primitive"/>
            </g>
            <g transform="translate(221.65,129)" id="img-a21cb038-61">
              <path d="M-0.1,-2.12 L 0.1 -2.12 0.1 2.12 -0.1 2.12 z" class="primitive"/>
            </g>
            <g transform="translate(221.79,131.12)" id="img-a21cb038-62">
              <path d="M-0.1,-0 L 0.1 -0 0.1 0 -0.1 0 z" class="primitive"/>
            </g>
            <g transform="translate(221.93,129)" id="img-a21cb038-63">
              <path d="M-0.1,-2.12 L 0.1 -2.12 0.1 2.12 -0.1 2.12 z" class="primitive"/>
            </g>
            <g transform="translate(222.07,131.12)" id="img-a21cb038-64">
              <path d="M-0.1,-0 L 0.1 -0 0.1 0 -0.1 0 z" class="primitive"/>
            </g>
            <g transform="translate(222.22,131.12)" id="img-a21cb038-65">
              <path d="M-0.1,-0 L 0.1 -0 0.1 0 -0.1 0 z" class="primitive"/>
            </g>
            <g transform="translate(222.36,131.12)" id="img-a21cb038-66">
              <path d="M-0.1,-0 L 0.1 -0 0.1 0 -0.1 0 z" class="primitive"/>
            </g>
            <g transform="translate(222.5,129)" id="img-a21cb038-67">
              <path d="M-0.1,-2.12 L 0.1 -2.12 0.1 2.12 -0.1 2.12 z" class="primitive"/>
            </g>
            <g transform="translate(222.64,131.12)" id="img-a21cb038-68">
              <path d="M-0.1,-0 L 0.1 -0 0.1 0 -0.1 0 z" class="primitive"/>
            </g>
            <g transform="translate(222.79,131.12)" id="img-a21cb038-69">
              <path d="M-0.1,-0 L 0.1 -0 0.1 0 -0.1 0 z" class="primitive"/>
            </g>
            <g transform="translate(222.93,129)" id="img-a21cb038-70">
              <path d="M-0.1,-2.12 L 0.1 -2.12 0.1 2.12 -0.1 2.12 z" class="primitive"/>
            </g>
          </g>
        </g>
      </g>
    </g>
  </g>
  <g class="guide ylabels" font-size="2.82" font-family="'PT Sans Caption','Helvetica Neue','Helvetica',sans-serif" fill="#6C606B" id="img-a21cb038-71">
    <g transform="translate(186.29,131.11)" id="img-a21cb038-72">
      <g class="primitive">
        <text text-anchor="end" dy="0.35em">0</text>
      </g>
    </g>
    <g transform="translate(186.29,109.96)" id="img-a21cb038-73">
      <g class="primitive">
        <text text-anchor="end" dy="0.35em">5</text>
      </g>
    </g>
    <g transform="translate(186.29,88.81)" id="img-a21cb038-74">
      <g class="primitive">
        <text text-anchor="end" dy="0.35em">10</text>
      </g>
    </g>
  </g>
  <g font-size="3.88" font-family="'PT Sans','Helvetica Neue','Helvetica',sans-serif" fill="#564A55" stroke="#000000" stroke-opacity="0.000" id="img-a21cb038-75">
    <g transform="translate(178.14,107.96)" id="img-a21cb038-76">
      <g class="primitive">
        <text text-anchor="middle" dy="0.35em" transform="rotate(-90,0, 2)">Count</text>
      </g>
    </g>
  </g>
  <g font-size="3.88" font-family="'PT Sans','Helvetica Neue','Helvetica',sans-serif" fill="#564A55" stroke="#000000" stroke-opacity="0.000" id="img-a21cb038-77">
    <g transform="translate(218.15,81.2)" id="img-a21cb038-78">
      <g class="primitive">
        <text text-anchor="middle" dy="0.6em">Riveros</text>
      </g>
    </g>
  </g>
</g>
<g class="plotroot xscalable yscalable" id="img-a21cb038-79">
  <g font-size="3.88" font-family="'PT Sans','Helvetica Neue','Helvetica',sans-serif" fill="#564A55" stroke="#000000" stroke-opacity="0.000" id="img-a21cb038-80">
    <g transform="translate(133.48,140.79)" id="img-a21cb038-81">
      <g class="primitive">
        <text text-anchor="middle" dy="0.6em">kMeas/kCalc</text>
      </g>
    </g>
  </g>
  <g class="guide xlabels" font-size="2.82" font-family="'PT Sans Caption','Helvetica Neue','Helvetica',sans-serif" fill="#6C606B" id="img-a21cb038-82">
    <g transform="translate(104.62,134.11)" id="img-a21cb038-83">
      <g class="primitive">
        <text text-anchor="middle" dy="0.6em">0.0</text>
      </g>
    </g>
    <g transform="translate(119.05,134.11)" id="img-a21cb038-84">
      <g class="primitive">
        <text text-anchor="middle" dy="0.6em">0.5</text>
      </g>
    </g>
    <g transform="translate(133.48,134.11)" id="img-a21cb038-85">
      <g class="primitive">
        <text text-anchor="middle" dy="0.6em">1.0</text>
      </g>
    </g>
    <g transform="translate(147.91,134.11)" id="img-a21cb038-86">
      <g class="primitive">
        <text text-anchor="middle" dy="0.6em">1.5</text>
      </g>
    </g>
    <g transform="translate(162.33,134.11)" id="img-a21cb038-87">
      <g class="primitive">
        <text text-anchor="middle" dy="0.6em">2.0</text>
      </g>
    </g>
  </g>
  <g clip-path="url(#img-a21cb038-88)">
    <g id="img-a21cb038-89">
      <g pointer-events="visible" stroke-width="0.3" fill="#000000" fill-opacity="0.000" stroke="#000000" stroke-opacity="0.000" class="guide background" id="img-a21cb038-90">
        <g transform="translate(133.48,109.96)" id="img-a21cb038-91">
          <path d="M-30.85,-23.15 L 30.85 -23.15 30.85 23.15 -30.85 23.15 z" class="primitive"/>
        </g>
      </g>
      <g class="guide ygridlines xfixed" stroke-dasharray="0.5,0.5" stroke-width="0.2" stroke="#D0D0E0" id="img-a21cb038-92">
        <g transform="translate(133.48,131.11)" id="img-a21cb038-93">
          <path fill="none" d="M-30.85,0 L 30.85 0" class="primitive"/>
        </g>
        <g transform="translate(133.48,109.96)" id="img-a21cb038-94">
          <path fill="none" d="M-30.85,0 L 30.85 0" class="primitive"/>
        </g>
        <g transform="translate(133.48,88.81)" id="img-a21cb038-95">
          <path fill="none" d="M-30.85,0 L 30.85 0" class="primitive"/>
        </g>
      </g>
      <g class="guide xgridlines yfixed" stroke-dasharray="0.5,0.5" stroke-width="0.2" stroke="#D0D0E0" id="img-a21cb038-96">
        <g transform="translate(104.62,109.96)" id="img-a21cb038-97">
          <path fill="none" d="M0,-23.15 L 0 23.15" class="primitive"/>
        </g>
        <g transform="translate(119.05,109.96)" id="img-a21cb038-98">
          <path fill="none" d="M0,-23.15 L 0 23.15" class="primitive"/>
        </g>
        <g transform="translate(133.48,109.96)" id="img-a21cb038-99">
          <path fill="none" d="M0,-23.15 L 0 23.15" class="primitive"/>
        </g>
        <g transform="translate(147.91,109.96)" id="img-a21cb038-100">
          <path fill="none" d="M0,-23.15 L 0 23.15" class="primitive"/>
        </g>
        <g transform="translate(162.33,109.96)" id="img-a21cb038-101">
          <path fill="none" d="M0,-23.15 L 0 23.15" class="primitive"/>
        </g>
      </g>
      <g class="plotpanel" id="img-a21cb038-102">
        <metadata>
          <boundingbox value="102.625mm 86.81166666666665mm 61.70833333333332mm 46.30333333333333mm"/>
          <unitbox value="-0.0693140794223827 10.472775982980064 2.1386281588447655 -10.94555196596013"/>
        </metadata>
        <g shape-rendering="crispEdges" stroke-width="0.3" id="img-a21cb038-103">
          <g class="geometry" fill-opacity="1" stroke="#000000" stroke-opacity="0.000" fill="#00BFFF" id="img-a21cb038-104">
            <g transform="translate(129.85,129)" id="img-a21cb038-105">
              <path d="M-0.06,-2.12 L 0.06 -2.12 0.06 2.12 -0.06 2.12 z" class="primitive"/>
            </g>
            <g transform="translate(129.93,129)" id="img-a21cb038-106">
              <path d="M-0.06,-2.12 L 0.06 -2.12 0.06 2.12 -0.06 2.12 z" class="primitive"/>
            </g>
            <g transform="translate(130.01,131.12)" id="img-a21cb038-107">
              <path d="M-0.06,-0 L 0.06 -0 0.06 0 -0.06 0 z" class="primitive"/>
            </g>
            <g transform="translate(130.08,129)" id="img-a21cb038-108">
              <path d="M-0.06,-2.12 L 0.06 -2.12 0.06 2.12 -0.06 2.12 z" class="primitive"/>
            </g>
            <g transform="translate(130.16,131.12)" id="img-a21cb038-109">
              <path d="M-0.06,-0 L 0.06 -0 0.06 0 -0.06 0 z" class="primitive"/>
            </g>
            <g transform="translate(130.23,129)" id="img-a21cb038-110">
              <path d="M-0.06,-2.12 L 0.06 -2.12 0.06 2.12 -0.06 2.12 z" class="primitive"/>
            </g>
            <g transform="translate(130.31,131.12)" id="img-a21cb038-111">
              <path d="M-0.06,-0 L 0.06 -0 0.06 0 -0.06 0 z" class="primitive"/>
            </g>
            <g transform="translate(130.39,131.12)" id="img-a21cb038-112">
              <path d="M-0.06,-0 L 0.06 -0 0.06 0 -0.06 0 z" class="primitive"/>
            </g>
            <g transform="translate(130.46,126.88)" id="img-a21cb038-113">
              <path d="M-0.06,-4.23 L 0.06 -4.23 0.06 4.23 -0.06 4.23 z" class="primitive"/>
            </g>
            <g transform="translate(130.54,131.12)" id="img-a21cb038-114">
              <path d="M-0.06,-0 L 0.06 -0 0.06 0 -0.06 0 z" class="primitive"/>
            </g>
            <g transform="translate(130.62,131.12)" id="img-a21cb038-115">
              <path d="M-0.06,-0 L 0.06 -0 0.06 0 -0.06 0 z" class="primitive"/>
            </g>
            <g transform="translate(130.69,131.12)" id="img-a21cb038-116">
              <path d="M-0.06,-0 L 0.06 -0 0.06 0 -0.06 0 z" class="primitive"/>
            </g>
            <g transform="translate(130.77,131.12)" id="img-a21cb038-117">
              <path d="M-0.06,-0 L 0.06 -0 0.06 0 -0.06 0 z" class="primitive"/>
            </g>
            <g transform="translate(130.84,126.88)" id="img-a21cb038-118">
              <path d="M-0.06,-4.23 L 0.06 -4.23 0.06 4.23 -0.06 4.23 z" class="primitive"/>
            </g>
            <g transform="translate(130.92,124.77)" id="img-a21cb038-119">
              <path d="M-0.06,-6.35 L 0.06 -6.35 0.06 6.35 -0.06 6.35 z" class="primitive"/>
            </g>
            <g transform="translate(131,131.12)" id="img-a21cb038-120">
              <path d="M-0.06,-0 L 0.06 -0 0.06 0 -0.06 0 z" class="primitive"/>
            </g>
            <g transform="translate(131.07,131.12)" id="img-a21cb038-121">
              <path d="M-0.06,-0 L 0.06 -0 0.06 0 -0.06 0 z" class="primitive"/>
            </g>
            <g transform="translate(131.15,129)" id="img-a21cb038-122">
              <path d="M-0.06,-2.12 L 0.06 -2.12 0.06 2.12 -0.06 2.12 z" class="primitive"/>
            </g>
            <g transform="translate(131.22,131.12)" id="img-a21cb038-123">
              <path d="M-0.06,-0 L 0.06 -0 0.06 0 -0.06 0 z" class="primitive"/>
            </g>
            <g transform="translate(131.3,129)" id="img-a21cb038-124">
              <path d="M-0.06,-2.12 L 0.06 -2.12 0.06 2.12 -0.06 2.12 z" class="primitive"/>
            </g>
            <g transform="translate(131.38,129)" id="img-a21cb038-125">
              <path d="M-0.06,-2.12 L 0.06 -2.12 0.06 2.12 -0.06 2.12 z" class="primitive"/>
            </g>
            <g transform="translate(131.45,131.12)" id="img-a21cb038-126">
              <path d="M-0.06,-0 L 0.06 -0 0.06 0 -0.06 0 z" class="primitive"/>
            </g>
            <g transform="translate(131.53,131.12)" id="img-a21cb038-127">
              <path d="M-0.06,-0 L 0.06 -0 0.06 0 -0.06 0 z" class="primitive"/>
            </g>
            <g transform="translate(131.6,131.12)" id="img-a21cb038-128">
              <path d="M-0.06,-0 L 0.06 -0 0.06 0 -0.06 0 z" class="primitive"/>
            </g>
            <g transform="translate(131.68,131.12)" id="img-a21cb038-129">
              <path d="M-0.06,-0 L 0.06 -0 0.06 0 -0.06 0 z" class="primitive"/>
            </g>
            <g transform="translate(131.76,126.88)" id="img-a21cb038-130">
              <path d="M-0.06,-4.23 L 0.06 -4.23 0.06 4.23 -0.06 4.23 z" class="primitive"/>
            </g>
            <g transform="translate(131.83,129)" id="img-a21cb038-131">
              <path d="M-0.06,-2.12 L 0.06 -2.12 0.06 2.12 -0.06 2.12 z" class="primitive"/>
            </g>
            <g transform="translate(131.91,126.88)" id="img-a21cb038-132">
              <path d="M-0.06,-4.23 L 0.06 -4.23 0.06 4.23 -0.06 4.23 z" class="primitive"/>
            </g>
            <g transform="translate(131.98,131.12)" id="img-a21cb038-133">
              <path d="M-0.06,-0 L 0.06 -0 0.06 0 -0.06 0 z" class="primitive"/>
            </g>
            <g transform="translate(132.06,129)" id="img-a21cb038-134">
              <path d="M-0.06,-2.12 L 0.06 -2.12 0.06 2.12 -0.06 2.12 z" class="primitive"/>
            </g>
            <g transform="translate(132.14,131.12)" id="img-a21cb038-135">
              <path d="M-0.06,-0 L 0.06 -0 0.06 0 -0.06 0 z" class="primitive"/>
            </g>
            <g transform="translate(132.21,131.12)" id="img-a21cb038-136">
              <path d="M-0.06,-0 L 0.06 -0 0.06 0 -0.06 0 z" class="primitive"/>
            </g>
            <g transform="translate(132.29,129)" id="img-a21cb038-137">
              <path d="M-0.06,-2.12 L 0.06 -2.12 0.06 2.12 -0.06 2.12 z" class="primitive"/>
            </g>
            <g transform="translate(132.37,131.12)" id="img-a21cb038-138">
              <path d="M-0.06,-0 L 0.06 -0 0.06 0 -0.06 0 z" class="primitive"/>
            </g>
            <g transform="translate(132.44,126.88)" id="img-a21cb038-139">
              <path d="M-0.06,-4.23 L 0.06 -4.23 0.06 4.23 -0.06 4.23 z" class="primitive"/>
            </g>
            <g transform="translate(132.52,122.65)" id="img-a21cb038-140">
              <path d="M-0.06,-8.46 L 0.06 -8.46 0.06 8.46 -0.06 8.46 z" class="primitive"/>
            </g>
            <g transform="translate(132.59,124.77)" id="img-a21cb038-141">
              <path d="M-0.06,-6.35 L 0.06 -6.35 0.06 6.35 -0.06 6.35 z" class="primitive"/>
            </g>
            <g transform="translate(132.67,124.77)" id="img-a21cb038-142">
              <path d="M-0.06,-6.35 L 0.06 -6.35 0.06 6.35 -0.06 6.35 z" class="primitive"/>
            </g>
            <g transform="translate(132.75,126.88)" id="img-a21cb038-143">
              <path d="M-0.06,-4.23 L 0.06 -4.23 0.06 4.23 -0.06 4.23 z" class="primitive"/>
            </g>
            <g transform="translate(132.82,109.96)" id="img-a21cb038-144">
              <path d="M-0.06,-21.15 L 0.06 -21.15 0.06 21.15 -0.06 21.15 z" class="primitive"/>
            </g>
            <g transform="translate(132.9,124.77)" id="img-a21cb038-145">
              <path d="M-0.06,-6.35 L 0.06 -6.35 0.06 6.35 -0.06 6.35 z" class="primitive"/>
            </g>
            <g transform="translate(132.97,124.77)" id="img-a21cb038-146">
              <path d="M-0.06,-6.35 L 0.06 -6.35 0.06 6.35 -0.06 6.35 z" class="primitive"/>
            </g>
            <g transform="translate(133.05,126.88)" id="img-a21cb038-147">
              <path d="M-0.06,-4.23 L 0.06 -4.23 0.06 4.23 -0.06 4.23 z" class="primitive"/>
            </g>
            <g transform="translate(133.13,126.88)" id="img-a21cb038-148">
              <path d="M-0.06,-4.23 L 0.06 -4.23 0.06 4.23 -0.06 4.23 z" class="primitive"/>
            </g>
            <g transform="translate(133.2,131.12)" id="img-a21cb038-149">
              <path d="M-0.06,-0 L 0.06 -0 0.06 0 -0.06 0 z" class="primitive"/>
            </g>
            <g transform="translate(133.28,131.12)" id="img-a21cb038-150">
              <path d="M-0.06,-0 L 0.06 -0 0.06 0 -0.06 0 z" class="primitive"/>
            </g>
            <g transform="translate(133.35,131.12)" id="img-a21cb038-151">
              <path d="M-0.06,-0 L 0.06 -0 0.06 0 -0.06 0 z" class="primitive"/>
            </g>
            <g transform="translate(133.43,131.12)" id="img-a21cb038-152">
              <path d="M-0.06,-0 L 0.06 -0 0.06 0 -0.06 0 z" class="primitive"/>
            </g>
            <g transform="translate(133.51,131.12)" id="img-a21cb038-153">
              <path d="M-0.06,-0 L 0.06 -0 0.06 0 -0.06 0 z" class="primitive"/>
            </g>
            <g transform="translate(133.58,129)" id="img-a21cb038-154">
              <path d="M-0.06,-2.12 L 0.06 -2.12 0.06 2.12 -0.06 2.12 z" class="primitive"/>
            </g>
          </g>
        </g>
      </g>
    </g>
  </g>
  <g class="guide ylabels" font-size="2.82" font-family="'PT Sans Caption','Helvetica Neue','Helvetica',sans-serif" fill="#6C606B" id="img-a21cb038-155">
    <g transform="translate(101.62,131.11)" id="img-a21cb038-156">
      <g class="primitive">
        <text text-anchor="end" dy="0.35em">0</text>
      </g>
    </g>
    <g transform="translate(101.62,109.96)" id="img-a21cb038-157">
      <g class="primitive">
        <text text-anchor="end" dy="0.35em">5</text>
      </g>
    </g>
    <g transform="translate(101.62,88.81)" id="img-a21cb038-158">
      <g class="primitive">
        <text text-anchor="end" dy="0.35em">10</text>
      </g>
    </g>
  </g>
  <g font-size="3.88" font-family="'PT Sans','Helvetica Neue','Helvetica',sans-serif" fill="#564A55" stroke="#000000" stroke-opacity="0.000" id="img-a21cb038-159">
    <g transform="translate(93.47,107.96)" id="img-a21cb038-160">
      <g class="primitive">
        <text text-anchor="middle" dy="0.35em" transform="rotate(-90,0, 2)">Count</text>
      </g>
    </g>
  </g>
  <g font-size="3.88" font-family="'PT Sans','Helvetica Neue','Helvetica',sans-serif" fill="#564A55" stroke="#000000" stroke-opacity="0.000" id="img-a21cb038-161">
    <g transform="translate(133.48,81.2)" id="img-a21cb038-162">
      <g class="primitive">
        <text text-anchor="middle" dy="0.6em">CitZAF</text>
      </g>
    </g>
  </g>
</g>
<g class="plotroot xscalable yscalable" id="img-a21cb038-163">
  <g font-size="3.88" font-family="'PT Sans','Helvetica Neue','Helvetica',sans-serif" fill="#564A55" stroke="#000000" stroke-opacity="0.000" id="img-a21cb038-164">
    <g transform="translate(47.98,140.79)" id="img-a21cb038-165">
      <g class="primitive">
        <text text-anchor="middle" dy="0.6em">kMeas/kCalc</text>
      </g>
    </g>
  </g>
  <g class="guide xlabels" font-size="2.82" font-family="'PT Sans Caption','Helvetica Neue','Helvetica',sans-serif" fill="#6C606B" id="img-a21cb038-166">
    <g transform="translate(18.29,134.11)" id="img-a21cb038-167">
      <g class="primitive">
        <text text-anchor="middle" dy="0.6em">0.0</text>
      </g>
    </g>
    <g transform="translate(33.13,134.11)" id="img-a21cb038-168">
      <g class="primitive">
        <text text-anchor="middle" dy="0.6em">0.5</text>
      </g>
    </g>
    <g transform="translate(47.98,134.11)" id="img-a21cb038-169">
      <g class="primitive">
        <text text-anchor="middle" dy="0.6em">1.0</text>
      </g>
    </g>
    <g transform="translate(62.82,134.11)" id="img-a21cb038-170">
      <g class="primitive">
        <text text-anchor="middle" dy="0.6em">1.5</text>
      </g>
    </g>
    <g transform="translate(77.67,134.11)" id="img-a21cb038-171">
      <g class="primitive">
        <text text-anchor="middle" dy="0.6em">2.0</text>
      </g>
    </g>
  </g>
  <g clip-path="url(#img-a21cb038-172)">
    <g id="img-a21cb038-173">
      <g pointer-events="visible" stroke-width="0.3" fill="#000000" fill-opacity="0.000" stroke="#000000" stroke-opacity="0.000" class="guide background" id="img-a21cb038-174">
        <g transform="translate(47.98,109.96)" id="img-a21cb038-175">
          <path d="M-31.69,-23.15 L 31.69 -23.15 31.69 23.15 -31.69 23.15 z" class="primitive"/>
        </g>
      </g>
      <g class="guide ygridlines xfixed" stroke-dasharray="0.5,0.5" stroke-width="0.2" stroke="#D0D0E0" id="img-a21cb038-176">
        <g transform="translate(47.98,131.11)" id="img-a21cb038-177">
          <path fill="none" d="M-31.69,0 L 31.69 0" class="primitive"/>
        </g>
        <g transform="translate(47.98,124.06)" id="img-a21cb038-178">
          <path fill="none" d="M-31.69,0 L 31.69 0" class="primitive"/>
        </g>
        <g transform="translate(47.98,117.01)" id="img-a21cb038-179">
          <path fill="none" d="M-31.69,0 L 31.69 0" class="primitive"/>
        </g>
        <g transform="translate(47.98,109.96)" id="img-a21cb038-180">
          <path fill="none" d="M-31.69,0 L 31.69 0" class="primitive"/>
        </g>
        <g transform="translate(47.98,102.91)" id="img-a21cb038-181">
          <path fill="none" d="M-31.69,0 L 31.69 0" class="primitive"/>
        </g>
        <g transform="translate(47.98,95.86)" id="img-a21cb038-182">
          <path fill="none" d="M-31.69,0 L 31.69 0" class="primitive"/>
        </g>
        <g transform="translate(47.98,88.81)" id="img-a21cb038-183">
          <path fill="none" d="M-31.69,0 L 31.69 0" class="primitive"/>
        </g>
      </g>
      <g class="guide xgridlines yfixed" stroke-dasharray="0.5,0.5" stroke-width="0.2" stroke="#D0D0E0" id="img-a21cb038-184">
        <g transform="translate(18.29,109.96)" id="img-a21cb038-185">
          <path fill="none" d="M0,-23.15 L 0 23.15" class="primitive"/>
        </g>
        <g transform="translate(33.13,109.96)" id="img-a21cb038-186">
          <path fill="none" d="M0,-23.15 L 0 23.15" class="primitive"/>
        </g>
        <g transform="translate(47.98,109.96)" id="img-a21cb038-187">
          <path fill="none" d="M0,-23.15 L 0 23.15" class="primitive"/>
        </g>
        <g transform="translate(62.82,109.96)" id="img-a21cb038-188">
          <path fill="none" d="M0,-23.15 L 0 23.15" class="primitive"/>
        </g>
        <g transform="translate(77.67,109.96)" id="img-a21cb038-189">
          <path fill="none" d="M0,-23.15 L 0 23.15" class="primitive"/>
        </g>
      </g>
      <g class="plotpanel" id="img-a21cb038-190">
        <metadata>
          <boundingbox value="16.285000000000004mm 86.81166666666665mm 63.38166666666665mm 46.30333333333333mm"/>
          <unitbox value="-0.06736085772825509 6.283665589788039 2.1347217154565103 -6.567331179576078"/>
        </metadata>
        <g shape-rendering="crispEdges" stroke-width="0.3" id="img-a21cb038-191">
          <g class="geometry" fill-opacity="1" stroke="#000000" stroke-opacity="0.000" fill="#00BFFF" id="img-a21cb038-192">
            <g transform="translate(45.86,127.59)" id="img-a21cb038-193">
              <path d="M-0.06,-3.53 L 0.06 -3.53 0.06 3.53 -0.06 3.53 z" class="primitive"/>
            </g>
            <g transform="translate(45.92,131.12)" id="img-a21cb038-194">
              <path d="M-0.06,-0 L 0.06 -0 0.06 0 -0.06 0 z" class="primitive"/>
            </g>
            <g transform="translate(45.98,131.12)" id="img-a21cb038-195">
              <path d="M-0.06,-0 L 0.06 -0 0.06 0 -0.06 0 z" class="primitive"/>
            </g>
            <g transform="translate(46.05,127.59)" id="img-a21cb038-196">
              <path d="M-0.06,-3.53 L 0.06 -3.53 0.06 3.53 -0.06 3.53 z" class="primitive"/>
            </g>
            <g transform="translate(46.11,131.12)" id="img-a21cb038-197">
              <path d="M-0.06,-0 L 0.06 -0 0.06 0 -0.06 0 z" class="primitive"/>
            </g>
            <g transform="translate(46.17,131.12)" id="img-a21cb038-198">
              <path d="M-0.06,-0 L 0.06 -0 0.06 0 -0.06 0 z" class="primitive"/>
            </g>
            <g transform="translate(46.23,131.12)" id="img-a21cb038-199">
              <path d="M-0.06,-0 L 0.06 -0 0.06 0 -0.06 0 z" class="primitive"/>
            </g>
            <g transform="translate(46.3,131.12)" id="img-a21cb038-200">
              <path d="M-0.06,-0 L 0.06 -0 0.06 0 -0.06 0 z" class="primitive"/>
            </g>
            <g transform="translate(46.36,131.12)" id="img-a21cb038-201">
              <path d="M-0.06,-0 L 0.06 -0 0.06 0 -0.06 0 z" class="primitive"/>
            </g>
            <g transform="translate(46.42,127.59)" id="img-a21cb038-202">
              <path d="M-0.06,-3.53 L 0.06 -3.53 0.06 3.53 -0.06 3.53 z" class="primitive"/>
            </g>
            <g transform="translate(46.48,127.59)" id="img-a21cb038-203">
              <path d="M-0.06,-3.53 L 0.06 -3.53 0.06 3.53 -0.06 3.53 z" class="primitive"/>
            </g>
            <g transform="translate(46.55,127.59)" id="img-a21cb038-204">
              <path d="M-0.06,-3.53 L 0.06 -3.53 0.06 3.53 -0.06 3.53 z" class="primitive"/>
            </g>
            <g transform="translate(46.61,131.12)" id="img-a21cb038-205">
              <path d="M-0.06,-0 L 0.06 -0 0.06 0 -0.06 0 z" class="primitive"/>
            </g>
            <g transform="translate(46.67,131.12)" id="img-a21cb038-206">
              <path d="M-0.06,-0 L 0.06 -0 0.06 0 -0.06 0 z" class="primitive"/>
            </g>
            <g transform="translate(46.73,127.59)" id="img-a21cb038-207">
              <path d="M-0.06,-3.53 L 0.06 -3.53 0.06 3.53 -0.06 3.53 z" class="primitive"/>
            </g>
            <g transform="translate(46.8,131.12)" id="img-a21cb038-208">
              <path d="M-0.06,-0 L 0.06 -0 0.06 0 -0.06 0 z" class="primitive"/>
            </g>
            <g transform="translate(46.86,131.12)" id="img-a21cb038-209">
              <path d="M-0.06,-0 L 0.06 -0 0.06 0 -0.06 0 z" class="primitive"/>
            </g>
            <g transform="translate(46.92,127.59)" id="img-a21cb038-210">
              <path d="M-0.06,-3.53 L 0.06 -3.53 0.06 3.53 -0.06 3.53 z" class="primitive"/>
            </g>
            <g transform="translate(46.98,127.59)" id="img-a21cb038-211">
              <path d="M-0.06,-3.53 L 0.06 -3.53 0.06 3.53 -0.06 3.53 z" class="primitive"/>
            </g>
            <g transform="translate(47.05,124.06)" id="img-a21cb038-212">
              <path d="M-0.06,-7.05 L 0.06 -7.05 0.06 7.05 -0.06 7.05 z" class="primitive"/>
            </g>
            <g transform="translate(47.11,124.06)" id="img-a21cb038-213">
              <path d="M-0.06,-7.05 L 0.06 -7.05 0.06 7.05 -0.06 7.05 z" class="primitive"/>
            </g>
            <g transform="translate(47.17,127.59)" id="img-a21cb038-214">
              <path d="M-0.06,-3.53 L 0.06 -3.53 0.06 3.53 -0.06 3.53 z" class="primitive"/>
            </g>
            <g transform="translate(47.23,109.96)" id="img-a21cb038-215">
              <path d="M-0.06,-21.15 L 0.06 -21.15 0.06 21.15 -0.06 21.15 z" class="primitive"/>
            </g>
            <g transform="translate(47.3,131.12)" id="img-a21cb038-216">
              <path d="M-0.06,-0 L 0.06 -0 0.06 0 -0.06 0 z" class="primitive"/>
            </g>
            <g transform="translate(47.36,127.59)" id="img-a21cb038-217">
              <path d="M-0.06,-3.53 L 0.06 -3.53 0.06 3.53 -0.06 3.53 z" class="primitive"/>
            </g>
            <g transform="translate(47.42,131.12)" id="img-a21cb038-218">
              <path d="M-0.06,-0 L 0.06 -0 0.06 0 -0.06 0 z" class="primitive"/>
            </g>
            <g transform="translate(47.48,120.54)" id="img-a21cb038-219">
              <path d="M-0.06,-10.58 L 0.06 -10.58 0.06 10.58 -0.06 10.58 z" class="primitive"/>
            </g>
            <g transform="translate(47.55,127.59)" id="img-a21cb038-220">
              <path d="M-0.06,-3.53 L 0.06 -3.53 0.06 3.53 -0.06 3.53 z" class="primitive"/>
            </g>
            <g transform="translate(47.61,120.54)" id="img-a21cb038-221">
              <path d="M-0.06,-10.58 L 0.06 -10.58 0.06 10.58 -0.06 10.58 z" class="primitive"/>
            </g>
            <g transform="translate(47.67,117.01)" id="img-a21cb038-222">
              <path d="M-0.06,-14.1 L 0.06 -14.1 0.06 14.1 -0.06 14.1 z" class="primitive"/>
            </g>
            <g transform="translate(47.73,131.12)" id="img-a21cb038-223">
              <path d="M-0.06,-0 L 0.06 -0 0.06 0 -0.06 0 z" class="primitive"/>
            </g>
            <g transform="translate(47.8,117.01)" id="img-a21cb038-224">
              <path d="M-0.06,-14.1 L 0.06 -14.1 0.06 14.1 -0.06 14.1 z" class="primitive"/>
            </g>
            <g transform="translate(47.86,124.06)" id="img-a21cb038-225">
              <path d="M-0.06,-7.05 L 0.06 -7.05 0.06 7.05 -0.06 7.05 z" class="primitive"/>
            </g>
            <g transform="translate(47.92,131.12)" id="img-a21cb038-226">
              <path d="M-0.06,-0 L 0.06 -0 0.06 0 -0.06 0 z" class="primitive"/>
            </g>
            <g transform="translate(47.98,124.06)" id="img-a21cb038-227">
              <path d="M-0.06,-7.05 L 0.06 -7.05 0.06 7.05 -0.06 7.05 z" class="primitive"/>
            </g>
            <g transform="translate(48.04,124.06)" id="img-a21cb038-228">
              <path d="M-0.06,-7.05 L 0.06 -7.05 0.06 7.05 -0.06 7.05 z" class="primitive"/>
            </g>
            <g transform="translate(48.11,124.06)" id="img-a21cb038-229">
              <path d="M-0.06,-7.05 L 0.06 -7.05 0.06 7.05 -0.06 7.05 z" class="primitive"/>
            </g>
            <g transform="translate(48.17,127.59)" id="img-a21cb038-230">
              <path d="M-0.06,-3.53 L 0.06 -3.53 0.06 3.53 -0.06 3.53 z" class="primitive"/>
            </g>
            <g transform="translate(48.23,120.54)" id="img-a21cb038-231">
              <path d="M-0.06,-10.58 L 0.06 -10.58 0.06 10.58 -0.06 10.58 z" class="primitive"/>
            </g>
            <g transform="translate(48.29,124.06)" id="img-a21cb038-232">
              <path d="M-0.06,-7.05 L 0.06 -7.05 0.06 7.05 -0.06 7.05 z" class="primitive"/>
            </g>
            <g transform="translate(48.36,131.12)" id="img-a21cb038-233">
              <path d="M-0.06,-0 L 0.06 -0 0.06 0 -0.06 0 z" class="primitive"/>
            </g>
            <g transform="translate(48.42,131.12)" id="img-a21cb038-234">
              <path d="M-0.06,-0 L 0.06 -0 0.06 0 -0.06 0 z" class="primitive"/>
            </g>
            <g transform="translate(48.48,124.06)" id="img-a21cb038-235">
              <path d="M-0.06,-7.05 L 0.06 -7.05 0.06 7.05 -0.06 7.05 z" class="primitive"/>
            </g>
            <g transform="translate(48.54,127.59)" id="img-a21cb038-236">
              <path d="M-0.06,-3.53 L 0.06 -3.53 0.06 3.53 -0.06 3.53 z" class="primitive"/>
            </g>
            <g transform="translate(48.61,131.12)" id="img-a21cb038-237">
              <path d="M-0.06,-0 L 0.06 -0 0.06 0 -0.06 0 z" class="primitive"/>
            </g>
            <g transform="translate(48.67,124.06)" id="img-a21cb038-238">
              <path d="M-0.06,-7.05 L 0.06 -7.05 0.06 7.05 -0.06 7.05 z" class="primitive"/>
            </g>
            <g transform="translate(48.73,131.12)" id="img-a21cb038-239">
              <path d="M-0.06,-0 L 0.06 -0 0.06 0 -0.06 0 z" class="primitive"/>
            </g>
            <g transform="translate(48.79,131.12)" id="img-a21cb038-240">
              <path d="M-0.06,-0 L 0.06 -0 0.06 0 -0.06 0 z" class="primitive"/>
            </g>
            <g transform="translate(48.86,127.59)" id="img-a21cb038-241">
              <path d="M-0.06,-3.53 L 0.06 -3.53 0.06 3.53 -0.06 3.53 z" class="primitive"/>
            </g>
            <g transform="translate(48.92,127.59)" id="img-a21cb038-242">
              <path d="M-0.06,-3.53 L 0.06 -3.53 0.06 3.53 -0.06 3.53 z" class="primitive"/>
            </g>
          </g>
        </g>
      </g>
    </g>
  </g>
  <g class="guide ylabels" font-size="2.82" font-family="'PT Sans Caption','Helvetica Neue','Helvetica',sans-serif" fill="#6C606B" id="img-a21cb038-243">
    <g transform="translate(15.28,131.11)" id="img-a21cb038-244">
      <g class="primitive">
        <text text-anchor="end" dy="0.35em">0</text>
      </g>
    </g>
    <g transform="translate(15.28,124.06)" id="img-a21cb038-245">
      <g class="primitive">
        <text text-anchor="end" dy="0.35em">1</text>
      </g>
    </g>
    <g transform="translate(15.28,117.01)" id="img-a21cb038-246">
      <g class="primitive">
        <text text-anchor="end" dy="0.35em">2</text>
      </g>
    </g>
    <g transform="translate(15.28,109.96)" id="img-a21cb038-247">
      <g class="primitive">
        <text text-anchor="end" dy="0.35em">3</text>
      </g>
    </g>
    <g transform="translate(15.28,102.91)" id="img-a21cb038-248">
      <g class="primitive">
        <text text-anchor="end" dy="0.35em">4</text>
      </g>
    </g>
    <g transform="translate(15.28,95.86)" id="img-a21cb038-249">
      <g class="primitive">
        <text text-anchor="end" dy="0.35em">5</text>
      </g>
    </g>
    <g transform="translate(15.28,88.81)" id="img-a21cb038-250">
      <g class="primitive">
        <text text-anchor="end" dy="0.35em">6</text>
      </g>
    </g>
  </g>
  <g font-size="3.88" font-family="'PT Sans','Helvetica Neue','Helvetica',sans-serif" fill="#564A55" stroke="#000000" stroke-opacity="0.000" id="img-a21cb038-251">
    <g transform="translate(8.81,107.96)" id="img-a21cb038-252">
      <g class="primitive">
        <text text-anchor="middle" dy="0.35em" transform="rotate(-90,0, 2)">Count</text>
      </g>
    </g>
  </g>
  <g font-size="3.88" font-family="'PT Sans','Helvetica Neue','Helvetica',sans-serif" fill="#564A55" stroke="#000000" stroke-opacity="0.000" id="img-a21cb038-253">
    <g transform="translate(47.98,81.2)" id="img-a21cb038-254">
      <g class="primitive">
        <text text-anchor="middle" dy="0.6em">XPP</text>
      </g>
    </g>
  </g>
</g>
<g font-size="7.06" font-family="Arial" id="img-a21cb038-255">
  <g transform="translate(127,38.1)" id="img-a21cb038-256">
    <g class="primitive">
      <text text-anchor="middle" dy="0.35em">NBS 2 measurements</text>
    </g>
  </g>
</g>
<defs>
  <clipPath id="img-a21cb038-4">
    <path d="M187.29,86.81 L 249 86.81 249 133.11 187.29 133.11" />
  </clipPath>
  <clipPath id="img-a21cb038-88">
    <path d="M102.62,86.81 L 164.33 86.81 164.33 133.11 102.62 133.11" />
  </clipPath>
  <clipPath id="img-a21cb038-172">
    <path d="M16.29,86.81 L 79.67 86.81 79.67 133.11 16.29 133.11" />
  </clipPath>
</defs>
</svg>
