<?xml version="1.0" encoding="UTF-8"?>
<svg xmlns="http://www.w3.org/2000/svg"
     xmlns:xlink="http://www.w3.org/1999/xlink"
     xmlns:gadfly="http://www.gadflyjl.org/ns"
     version="1.2"
     width="254mm" height="152.4mm" viewBox="0 0 254 152.4"
     stroke="none"
     fill="#000000"
     stroke-width="0.3"
     font-size="3.88"
>
<defs>
  <marker id="arrow" markerWidth="15" markerHeight="7" refX="5" refY="3.5" orient="auto" markerUnits="strokeWidth">
    <path d="M0,0 L15,3.5 L0,7 z" stroke="context-stroke" fill="context-stroke"/>
  </marker>
</defs>
<g class="plotroot xscalable yscalable" id="img-7bd0bd89-1">
  <g font-size="3.88" font-family="'PT Sans','Helvetica Neue','Helvetica',sans-serif" fill="#564A55" stroke="#000000" stroke-opacity="0.000" id="img-7bd0bd89-2">
    <g transform="translate(196.14,140.79)">
      <g class="primitive">
        <text text-anchor="middle" dy="0.6em">kMeas/kCalc</text>
      </g>
    </g>
  </g>
  <g class="guide xlabels" font-size="2.82" font-family="'PT Sans Caption','Helvetica Neue','Helvetica',sans-serif" fill="#6C606B" id="img-7bd0bd89-3">
    <g transform="translate(145.28,134.11)">
      <g class="primitive">
        <text text-anchor="middle" dy="0.6em">0.0</text>
      </g>
    </g>
    <g transform="translate(170.71,134.11)">
      <g class="primitive">
        <text text-anchor="middle" dy="0.6em">0.5</text>
      </g>
    </g>
    <g transform="translate(196.14,134.11)">
      <g class="primitive">
        <text text-anchor="middle" dy="0.6em">1.0</text>
      </g>
    </g>
    <g transform="translate(221.57,134.11)">
      <g class="primitive">
        <text text-anchor="middle" dy="0.6em">1.5</text>
      </g>
    </g>
    <g transform="translate(247,134.11)">
      <g class="primitive">
        <text text-anchor="middle" dy="0.6em">2.0</text>
      </g>
    </g>
  </g>
  <g clip-path="url(#img-7bd0bd89-4)">
    <g id="img-7bd0bd89-5">
      <g pointer-events="visible" stroke-width="0.3" fill="#000000" fill-opacity="0.000" stroke="#000000" stroke-opacity="0.000" class="guide background" id="img-7bd0bd89-6">
        <g transform="translate(196.14,71.86)" id="img-7bd0bd89-7">
          <path d="M-52.86,-61.25 L 52.86 -61.25 52.86 61.25 -52.86 61.25 z" class="primitive"/>
        </g>
      </g>
      <g class="guide ygridlines xfixed" stroke-dasharray="0.5,0.5" stroke-width="0.2" stroke="#D0D0E0" id="img-7bd0bd89-8">
        <g transform="translate(196.14,131.11)" id="img-7bd0bd89-9">
          <path fill="none" d="M-52.86,0 L 52.86 0" class="primitive"/>
        </g>
        <g transform="translate(196.14,107.41)" id="img-7bd0bd89-10">
          <path fill="none" d="M-52.86,0 L 52.86 0" class="primitive"/>
        </g>
        <g transform="translate(196.14,83.71)" id="img-7bd0bd89-11">
          <path fill="none" d="M-52.86,0 L 52.86 0" class="primitive"/>
        </g>
        <g transform="translate(196.14,60.01)" id="img-7bd0bd89-12">
          <path fill="none" d="M-52.86,0 L 52.86 0" class="primitive"/>
        </g>
        <g transform="translate(196.14,36.31)" id="img-7bd0bd89-13">
          <path fill="none" d="M-52.86,0 L 52.86 0" class="primitive"/>
        </g>
        <g transform="translate(196.14,12.61)" id="img-7bd0bd89-14">
          <path fill="none" d="M-52.86,0 L 52.86 0" class="primitive"/>
        </g>
      </g>
      <g class="guide xgridlines yfixed" stroke-dasharray="0.5,0.5" stroke-width="0.2" stroke="#D0D0E0" id="img-7bd0bd89-15">
        <g transform="translate(145.28,71.86)" id="img-7bd0bd89-16">
          <path fill="none" d="M0,-61.25 L 0 61.25" class="primitive"/>
        </g>
        <g transform="translate(170.71,71.86)" id="img-7bd0bd89-17">
          <path fill="none" d="M0,-61.25 L 0 61.25" class="primitive"/>
        </g>
        <g transform="translate(196.14,71.86)" id="img-7bd0bd89-18">
          <path fill="none" d="M0,-61.25 L 0 61.25" class="primitive"/>
        </g>
        <g transform="translate(221.57,71.86)" id="img-7bd0bd89-19">
          <path fill="none" d="M0,-61.25 L 0 61.25" class="primitive"/>
        </g>
        <g transform="translate(247,71.86)" id="img-7bd0bd89-20">
          <path fill="none" d="M0,-61.25 L 0 61.25" class="primitive"/>
        </g>
      </g>
      <g class="plotpanel" id="img-7bd0bd89-21">
        <metadata>
          <boundingbox value="143.285mm 10.611666666666679mm 105.715mm 122.5033333333333mm"/>
          <unitbox value="-0.03932556653394288 5.084385811932154 2.078651133067886 -5.168771623864307"/>
        </metadata>
        <g shape-rendering="crispEdges" stroke-width="0.3" id="img-7bd0bd89-22">
          <g class="geometry" fill-opacity="1" stroke="#000000" stroke-opacity="0.000" fill="#00BFFF" id="img-7bd0bd89-23">
            <g transform="translate(195.87,119.26)" id="img-7bd0bd89-24">
              <path d="M-0.05,-11.85 L 0.05 -11.85 0.05 11.85 -0.05 11.85 z" class="primitive"/>
            </g>
            <g transform="translate(195.91,95.56)" id="img-7bd0bd89-25">
              <path d="M-0.05,-35.55 L 0.05 -35.55 0.05 35.55 -0.05 35.55 z" class="primitive"/>
            </g>
            <g transform="translate(195.96,131.12)" id="img-7bd0bd89-26">
              <path d="M-0.05,-0 L 0.05 -0 0.05 0 -0.05 0 z" class="primitive"/>
            </g>
            <g transform="translate(196,119.26)" id="img-7bd0bd89-27">
              <path d="M-0.05,-11.85 L 0.05 -11.85 0.05 11.85 -0.05 11.85 z" class="primitive"/>
            </g>
            <g transform="translate(196.05,107.41)" id="img-7bd0bd89-28">
              <path d="M-0.05,-23.7 L 0.05 -23.7 0.05 23.7 -0.05 23.7 z" class="primitive"/>
            </g>
            <g transform="translate(196.1,107.41)" id="img-7bd0bd89-29">
              <path d="M-0.05,-23.7 L 0.05 -23.7 0.05 23.7 -0.05 23.7 z" class="primitive"/>
            </g>
            <g transform="translate(196.14,119.26)" id="img-7bd0bd89-30">
              <path d="M-0.05,-11.85 L 0.05 -11.85 0.05 11.85 -0.05 11.85 z" class="primitive"/>
            </g>
            <g transform="translate(196.19,107.41)" id="img-7bd0bd89-31">
              <path d="M-0.05,-23.7 L 0.05 -23.7 0.05 23.7 -0.05 23.7 z" class="primitive"/>
            </g>
            <g transform="translate(196.24,131.12)" id="img-7bd0bd89-32">
              <path d="M-0.05,-0 L 0.05 -0 0.05 0 -0.05 0 z" class="primitive"/>
            </g>
            <g transform="translate(196.28,95.56)" id="img-7bd0bd89-33">
              <path d="M-0.05,-35.55 L 0.05 -35.55 0.05 35.55 -0.05 35.55 z" class="primitive"/>
            </g>
            <g transform="translate(196.33,119.26)" id="img-7bd0bd89-34">
              <path d="M-0.05,-11.85 L 0.05 -11.85 0.05 11.85 -0.05 11.85 z" class="primitive"/>
            </g>
            <g transform="translate(196.37,95.56)" id="img-7bd0bd89-35">
              <path d="M-0.05,-35.55 L 0.05 -35.55 0.05 35.55 -0.05 35.55 z" class="primitive"/>
            </g>
            <g transform="translate(196.42,119.26)" id="img-7bd0bd89-36">
              <path d="M-0.05,-11.85 L 0.05 -11.85 0.05 11.85 -0.05 11.85 z" class="primitive"/>
            </g>
            <g transform="translate(196.47,83.71)" id="img-7bd0bd89-37">
              <path d="M-0.05,-47.4 L 0.05 -47.4 0.05 47.4 -0.05 47.4 z" class="primitive"/>
            </g>
            <g transform="translate(196.51,71.86)" id="img-7bd0bd89-38">
              <path d="M-0.05,-59.25 L 0.05 -59.25 0.05 59.25 -0.05 59.25 z" class="primitive"/>
            </g>
            <g transform="translate(196.56,119.26)" id="img-7bd0bd89-39">
              <path d="M-0.05,-11.85 L 0.05 -11.85 0.05 11.85 -0.05 11.85 z" class="primitive"/>
            </g>
            <g transform="translate(196.61,107.41)" id="img-7bd0bd89-40">
              <path d="M-0.05,-23.7 L 0.05 -23.7 0.05 23.7 -0.05 23.7 z" class="primitive"/>
            </g>
            <g transform="translate(196.65,95.56)" id="img-7bd0bd89-41">
              <path d="M-0.05,-35.55 L 0.05 -35.55 0.05 35.55 -0.05 35.55 z" class="primitive"/>
            </g>
            <g transform="translate(196.7,119.26)" id="img-7bd0bd89-42">
              <path d="M-0.05,-11.85 L 0.05 -11.85 0.05 11.85 -0.05 11.85 z" class="primitive"/>
            </g>
            <g transform="translate(196.74,107.41)" id="img-7bd0bd89-43">
              <path d="M-0.05,-23.7 L 0.05 -23.7 0.05 23.7 -0.05 23.7 z" class="primitive"/>
            </g>
            <g transform="translate(196.79,131.12)" id="img-7bd0bd89-44">
              <path d="M-0.05,-0 L 0.05 -0 0.05 0 -0.05 0 z" class="primitive"/>
            </g>
            <g transform="translate(196.84,131.12)" id="img-7bd0bd89-45">
              <path d="M-0.05,-0 L 0.05 -0 0.05 0 -0.05 0 z" class="primitive"/>
            </g>
            <g transform="translate(196.88,119.26)" id="img-7bd0bd89-46">
              <path d="M-0.05,-11.85 L 0.05 -11.85 0.05 11.85 -0.05 11.85 z" class="primitive"/>
            </g>
            <g transform="translate(196.93,131.12)" id="img-7bd0bd89-47">
              <path d="M-0.05,-0 L 0.05 -0 0.05 0 -0.05 0 z" class="primitive"/>
            </g>
            <g transform="translate(196.97,119.26)" id="img-7bd0bd89-48">
              <path d="M-0.05,-11.85 L 0.05 -11.85 0.05 11.85 -0.05 11.85 z" class="primitive"/>
            </g>
            <g transform="translate(197.02,131.12)" id="img-7bd0bd89-49">
              <path d="M-0.05,-0 L 0.05 -0 0.05 0 -0.05 0 z" class="primitive"/>
            </g>
            <g transform="translate(197.07,131.12)" id="img-7bd0bd89-50">
              <path d="M-0.05,-0 L 0.05 -0 0.05 0 -0.05 0 z" class="primitive"/>
            </g>
            <g transform="translate(197.11,119.26)" id="img-7bd0bd89-51">
              <path d="M-0.05,-11.85 L 0.05 -11.85 0.05 11.85 -0.05 11.85 z" class="primitive"/>
            </g>
            <g transform="translate(197.16,119.26)" id="img-7bd0bd89-52">
              <path d="M-0.05,-11.85 L 0.05 -11.85 0.05 11.85 -0.05 11.85 z" class="primitive"/>
            </g>
            <g transform="translate(197.21,119.26)" id="img-7bd0bd89-53">
              <path d="M-0.05,-11.85 L 0.05 -11.85 0.05 11.85 -0.05 11.85 z" class="primitive"/>
            </g>
            <g transform="translate(197.25,119.26)" id="img-7bd0bd89-54">
              <path d="M-0.05,-11.85 L 0.05 -11.85 0.05 11.85 -0.05 11.85 z" class="primitive"/>
            </g>
            <g transform="translate(197.3,131.12)" id="img-7bd0bd89-55">
              <path d="M-0.05,-0 L 0.05 -0 0.05 0 -0.05 0 z" class="primitive"/>
            </g>
            <g transform="translate(197.34,119.26)" id="img-7bd0bd89-56">
              <path d="M-0.05,-11.85 L 0.05 -11.85 0.05 11.85 -0.05 11.85 z" class="primitive"/>
            </g>
            <g transform="translate(197.39,131.12)" id="img-7bd0bd89-57">
              <path d="M-0.05,-0 L 0.05 -0 0.05 0 -0.05 0 z" class="primitive"/>
            </g>
            <g transform="translate(197.44,131.12)" id="img-7bd0bd89-58">
              <path d="M-0.05,-0 L 0.05 -0 0.05 0 -0.05 0 z" class="primitive"/>
            </g>
            <g transform="translate(197.48,131.12)" id="img-7bd0bd89-59">
              <path d="M-0.05,-0 L 0.05 -0 0.05 0 -0.05 0 z" class="primitive"/>
            </g>
            <g transform="translate(197.53,131.12)" id="img-7bd0bd89-60">
              <path d="M-0.05,-0 L 0.05 -0 0.05 0 -0.05 0 z" class="primitive"/>
            </g>
            <g transform="translate(197.58,119.26)" id="img-7bd0bd89-61">
              <path d="M-0.05,-11.85 L 0.05 -11.85 0.05 11.85 -0.05 11.85 z" class="primitive"/>
            </g>
            <g transform="translate(197.62,119.26)" id="img-7bd0bd89-62">
              <path d="M-0.05,-11.85 L 0.05 -11.85 0.05 11.85 -0.05 11.85 z" class="primitive"/>
            </g>
            <g transform="translate(197.67,131.12)" id="img-7bd0bd89-63">
              <path d="M-0.05,-0 L 0.05 -0 0.05 0 -0.05 0 z" class="primitive"/>
            </g>
            <g transform="translate(197.71,131.12)" id="img-7bd0bd89-64">
              <path d="M-0.05,-0 L 0.05 -0 0.05 0 -0.05 0 z" class="primitive"/>
            </g>
            <g transform="translate(197.76,131.12)" id="img-7bd0bd89-65">
              <path d="M-0.05,-0 L 0.05 -0 0.05 0 -0.05 0 z" class="primitive"/>
            </g>
            <g transform="translate(197.81,131.12)" id="img-7bd0bd89-66">
              <path d="M-0.05,-0 L 0.05 -0 0.05 0 -0.05 0 z" class="primitive"/>
            </g>
            <g transform="translate(197.85,131.12)" id="img-7bd0bd89-67">
              <path d="M-0.05,-0 L 0.05 -0 0.05 0 -0.05 0 z" class="primitive"/>
            </g>
            <g transform="translate(197.9,131.12)" id="img-7bd0bd89-68">
              <path d="M-0.05,-0 L 0.05 -0 0.05 0 -0.05 0 z" class="primitive"/>
            </g>
            <g transform="translate(197.95,131.12)" id="img-7bd0bd89-69">
              <path d="M-0.05,-0 L 0.05 -0 0.05 0 -0.05 0 z" class="primitive"/>
            </g>
            <g transform="translate(197.99,131.12)" id="img-7bd0bd89-70">
              <path d="M-0.05,-0 L 0.05 -0 0.05 0 -0.05 0 z" class="primitive"/>
            </g>
            <g transform="translate(198.04,131.12)" id="img-7bd0bd89-71">
              <path d="M-0.05,-0 L 0.05 -0 0.05 0 -0.05 0 z" class="primitive"/>
            </g>
            <g transform="translate(198.08,119.26)" id="img-7bd0bd89-72">
              <path d="M-0.05,-11.85 L 0.05 -11.85 0.05 11.85 -0.05 11.85 z" class="primitive"/>
            </g>
            <g transform="translate(198.13,131.12)" id="img-7bd0bd89-73">
              <path d="M-0.05,-0 L 0.05 -0 0.05 0 -0.05 0 z" class="primitive"/>
            </g>
          </g>
        </g>
      </g>
    </g>
  </g>
  <g class="guide ylabels" font-size="2.82" font-family="'PT Sans Caption','Helvetica Neue','Helvetica',sans-serif" fill="#6C606B" id="img-7bd0bd89-74">
    <g transform="translate(142.29,131.11)" id="img-7bd0bd89-75">
      <g class="primitive">
        <text text-anchor="end" dy="0.35em">0</text>
      </g>
    </g>
    <g transform="translate(142.29,107.41)" id="img-7bd0bd89-76">
      <g class="primitive">
        <text text-anchor="end" dy="0.35em">1</text>
      </g>
    </g>
    <g transform="translate(142.29,83.71)" id="img-7bd0bd89-77">
      <g class="primitive">
        <text text-anchor="end" dy="0.35em">2</text>
      </g>
    </g>
    <g transform="translate(142.29,60.01)" id="img-7bd0bd89-78">
      <g class="primitive">
        <text text-anchor="end" dy="0.35em">3</text>
      </g>
    </g>
    <g transform="translate(142.29,36.31)" id="img-7bd0bd89-79">
      <g class="primitive">
        <text text-anchor="end" dy="0.35em">4</text>
      </g>
    </g>
    <g transform="translate(142.29,12.61)" id="img-7bd0bd89-80">
      <g class="primitive">
        <text text-anchor="end" dy="0.35em">5</text>
      </g>
    </g>
  </g>
  <g font-size="3.88" font-family="'PT Sans','Helvetica Neue','Helvetica',sans-serif" fill="#564A55" stroke="#000000" stroke-opacity="0.000" id="img-7bd0bd89-81">
    <g transform="translate(135.81,69.86)" id="img-7bd0bd89-82">
      <g class="primitive">
        <text text-anchor="middle" dy="0.35em" transform="rotate(-90,0, 2)">Count</text>
      </g>
    </g>
  </g>
  <g font-size="3.88" font-family="'PT Sans','Helvetica Neue','Helvetica',sans-serif" fill="#564A55" stroke="#000000" stroke-opacity="0.000" id="img-7bd0bd89-83">
    <g transform="translate(196.14,5)" id="img-7bd0bd89-84">
      <g class="primitive">
        <text text-anchor="middle" dy="0.6em">Less So</text>
      </g>
    </g>
  </g>
</g>
<g class="plotroot xscalable yscalable" id="img-7bd0bd89-85">
  <g font-size="3.88" font-family="'PT Sans','Helvetica Neue','Helvetica',sans-serif" fill="#564A55" stroke="#000000" stroke-opacity="0.000" id="img-7bd0bd89-86">
    <g transform="translate(69.14,140.79)" id="img-7bd0bd89-87">
      <g class="primitive">
        <text text-anchor="middle" dy="0.6em">kMeas/kCalc</text>
      </g>
    </g>
  </g>
  <g class="guide xlabels" font-size="2.82" font-family="'PT Sans Caption','Helvetica Neue','Helvetica',sans-serif" fill="#6C606B" id="img-7bd0bd89-88">
    <g transform="translate(18.28,134.11)" id="img-7bd0bd89-89">
      <g class="primitive">
        <text text-anchor="middle" dy="0.6em">0.0</text>
      </g>
    </g>
    <g transform="translate(43.71,134.11)" id="img-7bd0bd89-90">
      <g class="primitive">
        <text text-anchor="middle" dy="0.6em">0.5</text>
      </g>
    </g>
    <g transform="translate(69.14,134.11)" id="img-7bd0bd89-91">
      <g class="primitive">
        <text text-anchor="middle" dy="0.6em">1.0</text>
      </g>
    </g>
    <g transform="translate(94.57,134.11)" id="img-7bd0bd89-92">
      <g class="primitive">
        <text text-anchor="middle" dy="0.6em">1.5</text>
      </g>
    </g>
    <g transform="translate(120,134.11)" id="img-7bd0bd89-93">
      <g class="primitive">
        <text text-anchor="middle" dy="0.6em">2.0</text>
      </g>
    </g>
  </g>
  <g clip-path="url(#img-7bd0bd89-94)">
    <g id="img-7bd0bd89-95">
      <g pointer-events="visible" stroke-width="0.3" fill="#000000" fill-opacity="0.000" stroke="#000000" stroke-opacity="0.000" class="guide background" id="img-7bd0bd89-96">
        <g transform="translate(69.14,71.86)" id="img-7bd0bd89-97">
          <path d="M-52.86,-61.25 L 52.86 -61.25 52.86 61.25 -52.86 61.25 z" class="primitive"/>
        </g>
      </g>
      <g class="guide ygridlines xfixed" stroke-dasharray="0.5,0.5" stroke-width="0.2" stroke="#D0D0E0" id="img-7bd0bd89-98">
        <g transform="translate(69.14,131.11)" id="img-7bd0bd89-99">
          <path fill="none" d="M-52.86,0 L 52.86 0" class="primitive"/>
        </g>
        <g transform="translate(69.14,101.49)" id="img-7bd0bd89-100">
          <path fill="none" d="M-52.86,0 L 52.86 0" class="primitive"/>
        </g>
        <g transform="translate(69.14,71.86)" id="img-7bd0bd89-101">
          <path fill="none" d="M-52.86,0 L 52.86 0" class="primitive"/>
        </g>
        <g transform="translate(69.14,42.24)" id="img-7bd0bd89-102">
          <path fill="none" d="M-52.86,0 L 52.86 0" class="primitive"/>
        </g>
        <g transform="translate(69.14,12.61)" id="img-7bd0bd89-103">
          <path fill="none" d="M-52.86,0 L 52.86 0" class="primitive"/>
        </g>
      </g>
      <g class="guide xgridlines yfixed" stroke-dasharray="0.5,0.5" stroke-width="0.2" stroke="#D0D0E0" id="img-7bd0bd89-104">
        <g transform="translate(18.28,71.86)" id="img-7bd0bd89-105">
          <path fill="none" d="M0,-61.25 L 0 61.25" class="primitive"/>
        </g>
        <g transform="translate(43.71,71.86)" id="img-7bd0bd89-106">
          <path fill="none" d="M0,-61.25 L 0 61.25" class="primitive"/>
        </g>
        <g transform="translate(69.14,71.86)" id="img-7bd0bd89-107">
          <path fill="none" d="M0,-61.25 L 0 61.25" class="primitive"/>
        </g>
        <g transform="translate(94.57,71.86)" id="img-7bd0bd89-108">
          <path fill="none" d="M0,-61.25 L 0 61.25" class="primitive"/>
        </g>
        <g transform="translate(120,71.86)" id="img-7bd0bd89-109">
          <path fill="none" d="M0,-61.25 L 0 61.25" class="primitive"/>
        </g>
      </g>
      <g class="plotpanel" id="img-7bd0bd89-110">
        <metadata>
          <boundingbox value="16.284999999999997mm 10.611666666666665mm 105.715mm 122.50333333333332mm"/>
          <unitbox value="-0.03932556653394288 4.067508649545723 2.078651133067886 -4.135017299091446"/>
        </metadata>
        <g shape-rendering="crispEdges" stroke-width="0.3" id="img-7bd0bd89-111">
          <g class="geometry" fill-opacity="1" stroke="#000000" stroke-opacity="0.000" fill="#00BFFF" id="img-7bd0bd89-112">
            <g transform="translate(74.23,116.3)" id="img-7bd0bd89-113">
              <path d="M-0.07,-14.81 L 0.07 -14.81 0.07 14.81 -0.07 14.81 z" class="primitive"/>
            </g>
            <g transform="translate(74.33,131.12)" id="img-7bd0bd89-114">
              <path d="M-0.07,-0 L 0.07 -0 0.07 0 -0.07 0 z" class="primitive"/>
            </g>
            <g transform="translate(74.42,131.12)" id="img-7bd0bd89-115">
              <path d="M-0.07,-0 L 0.07 -0 0.07 0 -0.07 0 z" class="primitive"/>
            </g>
            <g transform="translate(74.52,131.12)" id="img-7bd0bd89-116">
              <path d="M-0.07,-0 L 0.07 -0 0.07 0 -0.07 0 z" class="primitive"/>
            </g>
            <g transform="translate(74.62,116.3)" id="img-7bd0bd89-117">
              <path d="M-0.07,-14.81 L 0.07 -14.81 0.07 14.81 -0.07 14.81 z" class="primitive"/>
            </g>
            <g transform="translate(74.72,131.12)" id="img-7bd0bd89-118">
              <path d="M-0.07,-0 L 0.07 -0 0.07 0 -0.07 0 z" class="primitive"/>
            </g>
            <g transform="translate(74.81,131.12)" id="img-7bd0bd89-119">
              <path d="M-0.07,-0 L 0.07 -0 0.07 0 -0.07 0 z" class="primitive"/>
            </g>
            <g transform="translate(74.91,101.49)" id="img-7bd0bd89-120">
              <path d="M-0.07,-29.63 L 0.07 -29.63 0.07 29.63 -0.07 29.63 z" class="primitive"/>
            </g>
            <g transform="translate(75.01,101.49)" id="img-7bd0bd89-121">
              <path d="M-0.07,-29.63 L 0.07 -29.63 0.07 29.63 -0.07 29.63 z" class="primitive"/>
            </g>
            <g transform="translate(75.1,71.86)" id="img-7bd0bd89-122">
              <path d="M-0.07,-59.25 L 0.07 -59.25 0.07 59.25 -0.07 59.25 z" class="primitive"/>
            </g>
            <g transform="translate(75.2,116.3)" id="img-7bd0bd89-123">
              <path d="M-0.07,-14.81 L 0.07 -14.81 0.07 14.81 -0.07 14.81 z" class="primitive"/>
            </g>
            <g transform="translate(75.3,116.3)" id="img-7bd0bd89-124">
              <path d="M-0.07,-14.81 L 0.07 -14.81 0.07 14.81 -0.07 14.81 z" class="primitive"/>
            </g>
            <g transform="translate(75.4,101.49)" id="img-7bd0bd89-125">
              <path d="M-0.07,-29.63 L 0.07 -29.63 0.07 29.63 -0.07 29.63 z" class="primitive"/>
            </g>
            <g transform="translate(75.49,131.12)" id="img-7bd0bd89-126">
              <path d="M-0.07,-0 L 0.07 -0 0.07 0 -0.07 0 z" class="primitive"/>
            </g>
            <g transform="translate(75.59,131.12)" id="img-7bd0bd89-127">
              <path d="M-0.07,-0 L 0.07 -0 0.07 0 -0.07 0 z" class="primitive"/>
            </g>
            <g transform="translate(75.69,131.12)" id="img-7bd0bd89-128">
              <path d="M-0.07,-0 L 0.07 -0 0.07 0 -0.07 0 z" class="primitive"/>
            </g>
            <g transform="translate(75.79,131.12)" id="img-7bd0bd89-129">
              <path d="M-0.07,-0 L 0.07 -0 0.07 0 -0.07 0 z" class="primitive"/>
            </g>
            <g transform="translate(75.88,131.12)" id="img-7bd0bd89-130">
              <path d="M-0.07,-0 L 0.07 -0 0.07 0 -0.07 0 z" class="primitive"/>
            </g>
            <g transform="translate(75.98,131.12)" id="img-7bd0bd89-131">
              <path d="M-0.07,-0 L 0.07 -0 0.07 0 -0.07 0 z" class="primitive"/>
            </g>
            <g transform="translate(76.08,131.12)" id="img-7bd0bd89-132">
              <path d="M-0.07,-0 L 0.07 -0 0.07 0 -0.07 0 z" class="primitive"/>
            </g>
            <g transform="translate(76.17,131.12)" id="img-7bd0bd89-133">
              <path d="M-0.07,-0 L 0.07 -0 0.07 0 -0.07 0 z" class="primitive"/>
            </g>
            <g transform="translate(76.27,116.3)" id="img-7bd0bd89-134">
              <path d="M-0.07,-14.81 L 0.07 -14.81 0.07 14.81 -0.07 14.81 z" class="primitive"/>
            </g>
            <g transform="translate(76.37,131.12)" id="img-7bd0bd89-135">
              <path d="M-0.07,-0 L 0.07 -0 0.07 0 -0.07 0 z" class="primitive"/>
            </g>
            <g transform="translate(76.47,101.49)" id="img-7bd0bd89-136">
              <path d="M-0.07,-29.63 L 0.07 -29.63 0.07 29.63 -0.07 29.63 z" class="primitive"/>
            </g>
            <g transform="translate(76.56,131.12)" id="img-7bd0bd89-137">
              <path d="M-0.07,-0 L 0.07 -0 0.07 0 -0.07 0 z" class="primitive"/>
            </g>
            <g transform="translate(76.66,131.12)" id="img-7bd0bd89-138">
              <path d="M-0.07,-0 L 0.07 -0 0.07 0 -0.07 0 z" class="primitive"/>
            </g>
            <g transform="translate(76.76,101.49)" id="img-7bd0bd89-139">
              <path d="M-0.07,-29.63 L 0.07 -29.63 0.07 29.63 -0.07 29.63 z" class="primitive"/>
            </g>
            <g transform="translate(76.86,131.12)" id="img-7bd0bd89-140">
              <path d="M-0.07,-0 L 0.07 -0 0.07 0 -0.07 0 z" class="primitive"/>
            </g>
            <g transform="translate(76.95,116.3)" id="img-7bd0bd89-141">
              <path d="M-0.07,-14.81 L 0.07 -14.81 0.07 14.81 -0.07 14.81 z" class="primitive"/>
            </g>
            <g transform="translate(77.05,116.3)" id="img-7bd0bd89-142">
              <path d="M-0.07,-14.81 L 0.07 -14.81 0.07 14.81 -0.07 14.81 z" class="primitive"/>
            </g>
            <g transform="translate(77.15,116.3)" id="img-7bd0bd89-143">
              <path d="M-0.07,-14.81 L 0.07 -14.81 0.07 14.81 -0.07 14.81 z" class="primitive"/>
            </g>
            <g transform="translate(77.24,101.49)" id="img-7bd0bd89-144">
              <path d="M-0.07,-29.63 L 0.07 -29.63 0.07 29.63 -0.07 29.63 z" class="primitive"/>
            </g>
            <g transform="translate(77.34,116.3)" id="img-7bd0bd89-145">
              <path d="M-0.07,-14.81 L 0.07 -14.81 0.07 14.81 -0.07 14.81 z" class="primitive"/>
            </g>
            <g transform="translate(77.44,131.12)" id="img-7bd0bd89-146">
              <path d="M-0.07,-0 L 0.07 -0 0.07 0 -0.07 0 z" class="primitive"/>
            </g>
            <g transform="translate(77.54,131.12)" id="img-7bd0bd89-147">
              <path d="M-0.07,-0 L 0.07 -0 0.07 0 -0.07 0 z" class="primitive"/>
            </g>
            <g transform="translate(77.63,116.3)" id="img-7bd0bd89-148">
              <path d="M-0.07,-14.81 L 0.07 -14.81 0.07 14.81 -0.07 14.81 z" class="primitive"/>
            </g>
            <g transform="translate(77.73,116.3)" id="img-7bd0bd89-149">
              <path d="M-0.07,-14.81 L 0.07 -14.81 0.07 14.81 -0.07 14.81 z" class="primitive"/>
            </g>
            <g transform="translate(77.83,131.12)" id="img-7bd0bd89-150">
              <path d="M-0.07,-0 L 0.07 -0 0.07 0 -0.07 0 z" class="primitive"/>
            </g>
            <g transform="translate(77.93,101.49)" id="img-7bd0bd89-151">
              <path d="M-0.07,-29.63 L 0.07 -29.63 0.07 29.63 -0.07 29.63 z" class="primitive"/>
            </g>
            <g transform="translate(78.02,131.12)" id="img-7bd0bd89-152">
              <path d="M-0.07,-0 L 0.07 -0 0.07 0 -0.07 0 z" class="primitive"/>
            </g>
            <g transform="translate(78.12,116.3)" id="img-7bd0bd89-153">
              <path d="M-0.07,-14.81 L 0.07 -14.81 0.07 14.81 -0.07 14.81 z" class="primitive"/>
            </g>
            <g transform="translate(78.22,131.12)" id="img-7bd0bd89-154">
              <path d="M-0.07,-0 L 0.07 -0 0.07 0 -0.07 0 z" class="primitive"/>
            </g>
            <g transform="translate(78.31,86.68)" id="img-7bd0bd89-155">
              <path d="M-0.07,-44.44 L 0.07 -44.44 0.07 44.44 -0.07 44.44 z" class="primitive"/>
            </g>
            <g transform="translate(78.41,116.3)" id="img-7bd0bd89-156">
              <path d="M-0.07,-14.81 L 0.07 -14.81 0.07 14.81 -0.07 14.81 z" class="primitive"/>
            </g>
            <g transform="translate(78.51,116.3)" id="img-7bd0bd89-157">
              <path d="M-0.07,-14.81 L 0.07 -14.81 0.07 14.81 -0.07 14.81 z" class="primitive"/>
            </g>
            <g transform="translate(78.61,131.12)" id="img-7bd0bd89-158">
              <path d="M-0.07,-0 L 0.07 -0 0.07 0 -0.07 0 z" class="primitive"/>
            </g>
            <g transform="translate(78.7,131.12)" id="img-7bd0bd89-159">
              <path d="M-0.07,-0 L 0.07 -0 0.07 0 -0.07 0 z" class="primitive"/>
            </g>
            <g transform="translate(78.8,131.12)" id="img-7bd0bd89-160">
              <path d="M-0.07,-0 L 0.07 -0 0.07 0 -0.07 0 z" class="primitive"/>
            </g>
            <g transform="translate(78.9,131.12)" id="img-7bd0bd89-161">
              <path d="M-0.07,-0 L 0.07 -0 0.07 0 -0.07 0 z" class="primitive"/>
            </g>
            <g transform="translate(79,116.3)" id="img-7bd0bd89-162">
              <path d="M-0.07,-14.81 L 0.07 -14.81 0.07 14.81 -0.07 14.81 z" class="primitive"/>
            </g>
          </g>
        </g>
      </g>
    </g>
  </g>
  <g class="guide ylabels" font-size="2.82" font-family="'PT Sans Caption','Helvetica Neue','Helvetica',sans-serif" fill="#6C606B" id="img-7bd0bd89-163">
    <g transform="translate(15.28,131.11)" id="img-7bd0bd89-164">
      <g class="primitive">
        <text text-anchor="end" dy="0.35em">0</text>
      </g>
    </g>
    <g transform="translate(15.28,101.49)" id="img-7bd0bd89-165">
      <g class="primitive">
        <text text-anchor="end" dy="0.35em">1</text>
      </g>
    </g>
    <g transform="translate(15.28,71.86)" id="img-7bd0bd89-166">
      <g class="primitive">
        <text text-anchor="end" dy="0.35em">2</text>
      </g>
    </g>
    <g transform="translate(15.28,42.24)" id="img-7bd0bd89-167">
      <g class="primitive">
        <text text-anchor="end" dy="0.35em">3</text>
      </g>
    </g>
    <g transform="translate(15.28,12.61)" id="img-7bd0bd89-168">
      <g class="primitive">
        <text text-anchor="end" dy="0.35em">4</text>
      </g>
    </g>
  </g>
  <g font-size="3.88" font-family="'PT Sans','Helvetica Neue','Helvetica',sans-serif" fill="#564A55" stroke="#000000" stroke-opacity="0.000" id="img-7bd0bd89-169">
    <g transform="translate(8.81,69.86)" id="img-7bd0bd89-170">
      <g class="primitive">
        <text text-anchor="middle" dy="0.35em" transform="rotate(-90,0, 2)">Count</text>
      </g>
    </g>
  </g>
  <g font-size="3.88" font-family="'PT Sans','Helvetica Neue','Helvetica',sans-serif" fill="#564A55" stroke="#000000" stroke-opacity="0.000" id="img-7bd0bd89-171">
    <g transform="translate(69.14,5)" id="img-7bd0bd89-172">
      <g class="primitive">
        <text text-anchor="middle" dy="0.6em">Weird</text>
      </g>
    </g>
  </g>
</g>
<defs>
  <clipPath id="img-7bd0bd89-4">
    <path d="M143.28,10.61 L 249 10.61 249 133.11 143.28 133.11" />
  </clipPath>
  <clipPath id="img-7bd0bd89-94">
    <path d="M16.28,10.61 L 122 10.61 122 133.11 16.28 133.11" />
  </clipPath>
</defs>
</svg>
