<?xml version="1.0" encoding="UTF-8"?>
<svg xmlns="http://www.w3.org/2000/svg"
     xmlns:xlink="http://www.w3.org/1999/xlink"
     xmlns:gadfly="http://www.gadflyjl.org/ns"
     version="1.2"
     width="254mm" height="152.4mm" viewBox="0 0 254 152.4"
     stroke="none"
     fill="#000000"
     stroke-width="0.3"
     font-size="3.88"
>
<defs>
  <marker id="arrow" markerWidth="15" markerHeight="7" refX="5" refY="3.5" orient="auto" markerUnits="strokeWidth">
    <path d="M0,0 L15,3.5 L0,7 z" stroke="context-stroke" fill="context-stroke"/>
  </marker>
</defs>
<g class="plotroot xscalable yscalable" id="img-e6ee47c5-1">
  <g font-size="3.88" font-family="'PT Sans','Helvetica Neue','Helvetica',sans-serif" fill="#564A55" stroke="#000000" stroke-opacity="0.000" id="img-e6ee47c5-2">
    <g transform="translate(218.15,140.79)">
      <g class="primitive">
        <text text-anchor="middle" dy="0.6em">kMeas/kCalc</text>
      </g>
    </g>
  </g>
  <g class="guide xlabels" font-size="2.82" font-family="'PT Sans Caption','Helvetica Neue','Helvetica',sans-serif" fill="#6C606B" id="img-e6ee47c5-3">
    <g transform="translate(189.29,134.11)">
      <g class="primitive">
        <text text-anchor="middle" dy="0.6em">0.0</text>
      </g>
    </g>
    <g transform="translate(203.72,134.11)">
      <g class="primitive">
        <text text-anchor="middle" dy="0.6em">0.5</text>
      </g>
    </g>
    <g transform="translate(218.15,134.11)">
      <g class="primitive">
        <text text-anchor="middle" dy="0.6em">1.0</text>
      </g>
    </g>
    <g transform="translate(232.57,134.11)">
      <g class="primitive">
        <text text-anchor="middle" dy="0.6em">1.5</text>
      </g>
    </g>
    <g transform="translate(247,134.11)">
      <g class="primitive">
        <text text-anchor="middle" dy="0.6em">2.0</text>
      </g>
    </g>
  </g>
  <g clip-path="url(#img-e6ee47c5-4)">
    <g id="img-e6ee47c5-5">
      <g pointer-events="visible" stroke-width="0.3" fill="#000000" fill-opacity="0.000" stroke="#000000" stroke-opacity="0.000" class="guide background" id="img-e6ee47c5-6">
        <g transform="translate(218.15,109.96)" id="img-e6ee47c5-7">
          <path d="M-30.85,-23.15 L 30.85 -23.15 30.85 23.15 -30.85 23.15 z" class="primitive"/>
        </g>
      </g>
      <g class="guide ygridlines xfixed" stroke-dasharray="0.5,0.5" stroke-width="0.2" stroke="#D0D0E0" id="img-e6ee47c5-8">
        <g transform="translate(218.15,131.11)" id="img-e6ee47c5-9">
          <path fill="none" d="M-30.85,0 L 30.85 0" class="primitive"/>
        </g>
        <g transform="translate(218.15,109.96)" id="img-e6ee47c5-10">
          <path fill="none" d="M-30.85,0 L 30.85 0" class="primitive"/>
        </g>
        <g transform="translate(218.15,88.81)" id="img-e6ee47c5-11">
          <path fill="none" d="M-30.85,0 L 30.85 0" class="primitive"/>
        </g>
      </g>
      <g class="guide xgridlines yfixed" stroke-dasharray="0.5,0.5" stroke-width="0.2" stroke="#D0D0E0" id="img-e6ee47c5-12">
        <g transform="translate(189.29,109.96)" id="img-e6ee47c5-13">
          <path fill="none" d="M0,-23.15 L 0 23.15" class="primitive"/>
        </g>
        <g transform="translate(203.72,109.96)" id="img-e6ee47c5-14">
          <path fill="none" d="M0,-23.15 L 0 23.15" class="primitive"/>
        </g>
        <g transform="translate(218.15,109.96)" id="img-e6ee47c5-15">
          <path fill="none" d="M0,-23.15 L 0 23.15" class="primitive"/>
        </g>
        <g transform="translate(232.57,109.96)" id="img-e6ee47c5-16">
          <path fill="none" d="M0,-23.15 L 0 23.15" class="primitive"/>
        </g>
        <g transform="translate(247,109.96)" id="img-e6ee47c5-17">
          <path fill="none" d="M0,-23.15 L 0 23.15" class="primitive"/>
        </g>
      </g>
      <g class="plotpanel" id="img-e6ee47c5-18">
        <metadata>
          <boundingbox value="187.29166666666666mm 86.81166666666665mm 61.70833333333332mm 46.30333333333333mm"/>
          <unitbox value="-0.0693140794223827 10.472775982980064 2.1386281588447655 -10.94555196596013"/>
        </metadata>
        <g shape-rendering="crispEdges" stroke-width="0.3" id="img-e6ee47c5-19">
          <g class="geometry" fill-opacity="1" stroke="#000000" stroke-opacity="0.000" fill="#00BFFF" id="img-e6ee47c5-20">
            <g transform="translate(215.94,126.88)" id="img-e6ee47c5-21">
              <path d="M-0.1,-4.23 L 0.1 -4.23 0.1 4.23 -0.1 4.23 z" class="primitive"/>
            </g>
            <g transform="translate(216.08,131.12)" id="img-e6ee47c5-22">
              <path d="M-0.1,-0 L 0.1 -0 0.1 0 -0.1 0 z" class="primitive"/>
            </g>
            <g transform="translate(216.22,131.12)" id="img-e6ee47c5-23">
              <path d="M-0.1,-0 L 0.1 -0 0.1 0 -0.1 0 z" class="primitive"/>
            </g>
            <g transform="translate(216.37,131.12)" id="img-e6ee47c5-24">
              <path d="M-0.1,-0 L 0.1 -0 0.1 0 -0.1 0 z" class="primitive"/>
            </g>
            <g transform="translate(216.51,129)" id="img-e6ee47c5-25">
              <path d="M-0.1,-2.12 L 0.1 -2.12 0.1 2.12 -0.1 2.12 z" class="primitive"/>
            </g>
            <g transform="translate(216.65,131.12)" id="img-e6ee47c5-26">
              <path d="M-0.1,-0 L 0.1 -0 0.1 0 -0.1 0 z" class="primitive"/>
            </g>
            <g transform="translate(216.79,131.12)" id="img-e6ee47c5-27">
              <path d="M-0.1,-0 L 0.1 -0 0.1 0 -0.1 0 z" class="primitive"/>
            </g>
            <g transform="translate(216.94,126.88)" id="img-e6ee47c5-28">
              <path d="M-0.1,-4.23 L 0.1 -4.23 0.1 4.23 -0.1 4.23 z" class="primitive"/>
            </g>
            <g transform="translate(217.08,129)" id="img-e6ee47c5-29">
              <path d="M-0.1,-2.12 L 0.1 -2.12 0.1 2.12 -0.1 2.12 z" class="primitive"/>
            </g>
            <g transform="translate(217.22,122.65)" id="img-e6ee47c5-30">
              <path d="M-0.1,-8.46 L 0.1 -8.46 0.1 8.46 -0.1 8.46 z" class="primitive"/>
            </g>
            <g transform="translate(217.37,122.65)" id="img-e6ee47c5-31">
              <path d="M-0.1,-8.46 L 0.1 -8.46 0.1 8.46 -0.1 8.46 z" class="primitive"/>
            </g>
            <g transform="translate(217.51,109.96)" id="img-e6ee47c5-32">
              <path d="M-0.1,-21.15 L 0.1 -21.15 0.1 21.15 -0.1 21.15 z" class="primitive"/>
            </g>
            <g transform="translate(217.65,129)" id="img-e6ee47c5-33">
              <path d="M-0.1,-2.12 L 0.1 -2.12 0.1 2.12 -0.1 2.12 z" class="primitive"/>
            </g>
            <g transform="translate(217.79,126.88)" id="img-e6ee47c5-34">
              <path d="M-0.1,-4.23 L 0.1 -4.23 0.1 4.23 -0.1 4.23 z" class="primitive"/>
            </g>
            <g transform="translate(217.94,126.88)" id="img-e6ee47c5-35">
              <path d="M-0.1,-4.23 L 0.1 -4.23 0.1 4.23 -0.1 4.23 z" class="primitive"/>
            </g>
            <g transform="translate(218.08,124.77)" id="img-e6ee47c5-36">
              <path d="M-0.1,-6.35 L 0.1 -6.35 0.1 6.35 -0.1 6.35 z" class="primitive"/>
            </g>
            <g transform="translate(218.22,122.65)" id="img-e6ee47c5-37">
              <path d="M-0.1,-8.46 L 0.1 -8.46 0.1 8.46 -0.1 8.46 z" class="primitive"/>
            </g>
            <g transform="translate(218.36,126.88)" id="img-e6ee47c5-38">
              <path d="M-0.1,-4.23 L 0.1 -4.23 0.1 4.23 -0.1 4.23 z" class="primitive"/>
            </g>
            <g transform="translate(218.51,124.77)" id="img-e6ee47c5-39">
              <path d="M-0.1,-6.35 L 0.1 -6.35 0.1 6.35 -0.1 6.35 z" class="primitive"/>
            </g>
            <g transform="translate(218.65,131.12)" id="img-e6ee47c5-40">
              <path d="M-0.1,-0 L 0.1 -0 0.1 0 -0.1 0 z" class="primitive"/>
            </g>
            <g transform="translate(218.79,126.88)" id="img-e6ee47c5-41">
              <path d="M-0.1,-4.23 L 0.1 -4.23 0.1 4.23 -0.1 4.23 z" class="primitive"/>
            </g>
            <g transform="translate(218.93,124.77)" id="img-e6ee47c5-42">
              <path d="M-0.1,-6.35 L 0.1 -6.35 0.1 6.35 -0.1 6.35 z" class="primitive"/>
            </g>
            <g transform="translate(219.08,131.12)" id="img-e6ee47c5-43">
              <path d="M-0.1,-0 L 0.1 -0 0.1 0 -0.1 0 z" class="primitive"/>
            </g>
            <g transform="translate(219.22,131.12)" id="img-e6ee47c5-44">
              <path d="M-0.1,-0 L 0.1 -0 0.1 0 -0.1 0 z" class="primitive"/>
            </g>
            <g transform="translate(219.36,129)" id="img-e6ee47c5-45">
              <path d="M-0.1,-2.12 L 0.1 -2.12 0.1 2.12 -0.1 2.12 z" class="primitive"/>
            </g>
            <g transform="translate(219.51,131.12)" id="img-e6ee47c5-46">
              <path d="M-0.1,-0 L 0.1 -0 0.1 0 -0.1 0 z" class="primitive"/>
            </g>
            <g transform="translate(219.65,131.12)" id="img-e6ee47c5-47">
              <path d="M-0.1,-0 L 0.1 -0 0.1 0 -0.1 0 z" class="primitive"/>
            </g>
            <g transform="translate(219.79,129)" id="img-e6ee47c5-48">
              <path d="M-0.1,-2.12 L 0.1 -2.12 0.1 2.12 -0.1 2.12 z" class="primitive"/>
            </g>
            <g transform="translate(219.93,131.12)" id="img-e6ee47c5-49">
              <path d="M-0.1,-0 L 0.1 -0 0.1 0 -0.1 0 z" class="primitive"/>
            </g>
            <g transform="translate(220.08,131.12)" id="img-e6ee47c5-50">
              <path d="M-0.1,-0 L 0.1 -0 0.1 0 -0.1 0 z" class="primitive"/>
            </g>
            <g transform="translate(220.22,131.12)" id="img-e6ee47c5-51">
              <path d="M-0.1,-0 L 0.1 -0 0.1 0 -0.1 0 z" class="primitive"/>
            </g>
            <g transform="translate(220.36,126.88)" id="img-e6ee47c5-52">
              <path d="M-0.1,-4.23 L 0.1 -4.23 0.1 4.23 -0.1 4.23 z" class="primitive"/>
            </g>
            <g transform="translate(220.5,129)" id="img-e6ee47c5-53">
              <path d="M-0.1,-2.12 L 0.1 -2.12 0.1 2.12 -0.1 2.12 z" class="primitive"/>
            </g>
            <g transform="translate(220.65,131.12)" id="img-e6ee47c5-54">
              <path d="M-0.1,-0 L 0.1 -0 0.1 0 -0.1 0 z" class="primitive"/>
            </g>
            <g transform="translate(220.79,131.12)" id="img-e6ee47c5-55">
              <path d="M-0.1,-0 L 0.1 -0 0.1 0 -0.1 0 z" class="primitive"/>
            </g>
            <g transform="translate(220.93,131.12)" id="img-e6ee47c5-56">
              <path d="M-0.1,-0 L 0.1 -0 0.1 0 -0.1 0 z" class="primitive"/>
            </g>
            <g transform="translate(221.07,129)" id="img-e6ee47c5-57">
              <path d="M-0.1,-2.12 L 0.1 -2.12 0.1 2.12 -0.1 2.12 z" class="primitive"/>
            </g>
            <g transform="translate(221.22,131.12)" id="img-e6ee47c5-58">
              <path d="M-0.1,-0 L 0.1 -0 0.1 0 -0.1 0 z" class="primitive"/>
            </g>
            <g transform="translate(221.36,131.12)" id="img-e6ee47c5-59">
              <path d="M-0.1,-0 L 0.1 -0 0.1 0 -0.1 0 z" class="primitive"/>
            </g>
            <g transform="translate(221.5,131.12)" id="img-e6ee47c5-60">
              <path d="M-0.1,-0 L 0.1 -0 0.1 0 -0.1 0 z" class="primitive"/>
            </g>
            <g transform="translate(221.65,129)" id="img-e6ee47c5-61">
              <path d="M-0.1,-2.12 L 0.1 -2.12 0.1 2.12 -0.1 2.12 z" class="primitive"/>
            </g>
            <g transform="translate(221.79,131.12)" id="img-e6ee47c5-62">
              <path d="M-0.1,-0 L 0.1 -0 0.1 0 -0.1 0 z" class="primitive"/>
            </g>
            <g transform="translate(221.93,129)" id="img-e6ee47c5-63">
              <path d="M-0.1,-2.12 L 0.1 -2.12 0.1 2.12 -0.1 2.12 z" class="primitive"/>
            </g>
            <g transform="translate(222.07,131.12)" id="img-e6ee47c5-64">
              <path d="M-0.1,-0 L 0.1 -0 0.1 0 -0.1 0 z" class="primitive"/>
            </g>
            <g transform="translate(222.22,131.12)" id="img-e6ee47c5-65">
              <path d="M-0.1,-0 L 0.1 -0 0.1 0 -0.1 0 z" class="primitive"/>
            </g>
            <g transform="translate(222.36,131.12)" id="img-e6ee47c5-66">
              <path d="M-0.1,-0 L 0.1 -0 0.1 0 -0.1 0 z" class="primitive"/>
            </g>
            <g transform="translate(222.5,129)" id="img-e6ee47c5-67">
              <path d="M-0.1,-2.12 L 0.1 -2.12 0.1 2.12 -0.1 2.12 z" class="primitive"/>
            </g>
            <g transform="translate(222.64,131.12)" id="img-e6ee47c5-68">
              <path d="M-0.1,-0 L 0.1 -0 0.1 0 -0.1 0 z" class="primitive"/>
            </g>
            <g transform="translate(222.79,131.12)" id="img-e6ee47c5-69">
              <path d="M-0.1,-0 L 0.1 -0 0.1 0 -0.1 0 z" class="primitive"/>
            </g>
            <g transform="translate(222.93,129)" id="img-e6ee47c5-70">
              <path d="M-0.1,-2.12 L 0.1 -2.12 0.1 2.12 -0.1 2.12 z" class="primitive"/>
            </g>
          </g>
        </g>
      </g>
    </g>
  </g>
  <g class="guide ylabels" font-size="2.82" font-family="'PT Sans Caption','Helvetica Neue','Helvetica',sans-serif" fill="#6C606B" id="img-e6ee47c5-71">
    <g transform="translate(186.29,131.11)" id="img-e6ee47c5-72">
      <g class="primitive">
        <text text-anchor="end" dy="0.35em">0</text>
      </g>
    </g>
    <g transform="translate(186.29,109.96)" id="img-e6ee47c5-73">
      <g class="primitive">
        <text text-anchor="end" dy="0.35em">5</text>
      </g>
    </g>
    <g transform="translate(186.29,88.81)" id="img-e6ee47c5-74">
      <g class="primitive">
        <text text-anchor="end" dy="0.35em">10</text>
      </g>
    </g>
  </g>
  <g font-size="3.88" font-family="'PT Sans','Helvetica Neue','Helvetica',sans-serif" fill="#564A55" stroke="#000000" stroke-opacity="0.000" id="img-e6ee47c5-75">
    <g transform="translate(178.14,107.96)" id="img-e6ee47c5-76">
      <g class="primitive">
        <text text-anchor="middle" dy="0.35em" transform="rotate(-90,0, 2)">Count</text>
      </g>
    </g>
  </g>
  <g font-size="3.88" font-family="'PT Sans','Helvetica Neue','Helvetica',sans-serif" fill="#564A55" stroke="#000000" stroke-opacity="0.000" id="img-e6ee47c5-77">
    <g transform="translate(218.15,81.2)" id="img-e6ee47c5-78">
      <g class="primitive">
        <text text-anchor="middle" dy="0.6em">Riveros</text>
      </g>
    </g>
  </g>
</g>
<g class="plotroot xscalable yscalable" id="img-e6ee47c5-79">
  <g font-size="3.88" font-family="'PT Sans','Helvetica Neue','Helvetica',sans-serif" fill="#564A55" stroke="#000000" stroke-opacity="0.000" id="img-e6ee47c5-80">
    <g transform="translate(133.48,140.79)" id="img-e6ee47c5-81">
      <g class="primitive">
        <text text-anchor="middle" dy="0.6em">kMeas/kCalc</text>
      </g>
    </g>
  </g>
  <g class="guide xlabels" font-size="2.82" font-family="'PT Sans Caption','Helvetica Neue','Helvetica',sans-serif" fill="#6C606B" id="img-e6ee47c5-82">
    <g transform="translate(104.62,134.11)" id="img-e6ee47c5-83">
      <g class="primitive">
        <text text-anchor="middle" dy="0.6em">0.0</text>
      </g>
    </g>
    <g transform="translate(119.05,134.11)" id="img-e6ee47c5-84">
      <g class="primitive">
        <text text-anchor="middle" dy="0.6em">0.5</text>
      </g>
    </g>
    <g transform="translate(133.48,134.11)" id="img-e6ee47c5-85">
      <g class="primitive">
        <text text-anchor="middle" dy="0.6em">1.0</text>
      </g>
    </g>
    <g transform="translate(147.91,134.11)" id="img-e6ee47c5-86">
      <g class="primitive">
        <text text-anchor="middle" dy="0.6em">1.5</text>
      </g>
    </g>
    <g transform="translate(162.33,134.11)" id="img-e6ee47c5-87">
      <g class="primitive">
        <text text-anchor="middle" dy="0.6em">2.0</text>
      </g>
    </g>
  </g>
  <g clip-path="url(#img-e6ee47c5-88)">
    <g id="img-e6ee47c5-89">
      <g pointer-events="visible" stroke-width="0.3" fill="#000000" fill-opacity="0.000" stroke="#000000" stroke-opacity="0.000" class="guide background" id="img-e6ee47c5-90">
        <g transform="translate(133.48,109.96)" id="img-e6ee47c5-91">
          <path d="M-30.85,-23.15 L 30.85 -23.15 30.85 23.15 -30.85 23.15 z" class="primitive"/>
        </g>
      </g>
      <g class="guide ygridlines xfixed" stroke-dasharray="0.5,0.5" stroke-width="0.2" stroke="#D0D0E0" id="img-e6ee47c5-92">
        <g transform="translate(133.48,131.11)" id="img-e6ee47c5-93">
          <path fill="none" d="M-30.85,0 L 30.85 0" class="primitive"/>
        </g>
        <g transform="translate(133.48,109.96)" id="img-e6ee47c5-94">
          <path fill="none" d="M-30.85,0 L 30.85 0" class="primitive"/>
        </g>
        <g transform="translate(133.48,88.81)" id="img-e6ee47c5-95">
          <path fill="none" d="M-30.85,0 L 30.85 0" class="primitive"/>
        </g>
      </g>
      <g class="guide xgridlines yfixed" stroke-dasharray="0.5,0.5" stroke-width="0.2" stroke="#D0D0E0" id="img-e6ee47c5-96">
        <g transform="translate(104.62,109.96)" id="img-e6ee47c5-97">
          <path fill="none" d="M0,-23.15 L 0 23.15" class="primitive"/>
        </g>
        <g transform="translate(119.05,109.96)" id="img-e6ee47c5-98">
          <path fill="none" d="M0,-23.15 L 0 23.15" class="primitive"/>
        </g>
        <g transform="translate(133.48,109.96)" id="img-e6ee47c5-99">
          <path fill="none" d="M0,-23.15 L 0 23.15" class="primitive"/>
        </g>
        <g transform="translate(147.91,109.96)" id="img-e6ee47c5-100">
          <path fill="none" d="M0,-23.15 L 0 23.15" class="primitive"/>
        </g>
        <g transform="translate(162.33,109.96)" id="img-e6ee47c5-101">
          <path fill="none" d="M0,-23.15 L 0 23.15" class="primitive"/>
        </g>
      </g>
      <g class="plotpanel" id="img-e6ee47c5-102">
        <metadata>
          <boundingbox value="102.625mm 86.81166666666665mm 61.70833333333332mm 46.30333333333333mm"/>
          <unitbox value="-0.0693140794223827 10.472775982980064 2.1386281588447655 -10.94555196596013"/>
        </metadata>
        <g shape-rendering="crispEdges" stroke-width="0.3" id="img-e6ee47c5-103">
          <g class="geometry" fill-opacity="1" stroke="#000000" stroke-opacity="0.000" fill="#00BFFF" id="img-e6ee47c5-104">
            <g transform="translate(129.85,129)" id="img-e6ee47c5-105">
              <path d="M-0.06,-2.12 L 0.06 -2.12 0.06 2.12 -0.06 2.12 z" class="primitive"/>
            </g>
            <g transform="translate(129.93,129)" id="img-e6ee47c5-106">
              <path d="M-0.06,-2.12 L 0.06 -2.12 0.06 2.12 -0.06 2.12 z" class="primitive"/>
            </g>
            <g transform="translate(130.01,131.12)" id="img-e6ee47c5-107">
              <path d="M-0.06,-0 L 0.06 -0 0.06 0 -0.06 0 z" class="primitive"/>
            </g>
            <g transform="translate(130.08,129)" id="img-e6ee47c5-108">
              <path d="M-0.06,-2.12 L 0.06 -2.12 0.06 2.12 -0.06 2.12 z" class="primitive"/>
            </g>
            <g transform="translate(130.16,131.12)" id="img-e6ee47c5-109">
              <path d="M-0.06,-0 L 0.06 -0 0.06 0 -0.06 0 z" class="primitive"/>
            </g>
            <g transform="translate(130.23,129)" id="img-e6ee47c5-110">
              <path d="M-0.06,-2.12 L 0.06 -2.12 0.06 2.12 -0.06 2.12 z" class="primitive"/>
            </g>
            <g transform="translate(130.31,131.12)" id="img-e6ee47c5-111">
              <path d="M-0.06,-0 L 0.06 -0 0.06 0 -0.06 0 z" class="primitive"/>
            </g>
            <g transform="translate(130.39,131.12)" id="img-e6ee47c5-112">
              <path d="M-0.06,-0 L 0.06 -0 0.06 0 -0.06 0 z" class="primitive"/>
            </g>
            <g transform="translate(130.46,126.88)" id="img-e6ee47c5-113">
              <path d="M-0.06,-4.23 L 0.06 -4.23 0.06 4.23 -0.06 4.23 z" class="primitive"/>
            </g>
            <g transform="translate(130.54,131.12)" id="img-e6ee47c5-114">
              <path d="M-0.06,-0 L 0.06 -0 0.06 0 -0.06 0 z" class="primitive"/>
            </g>
            <g transform="translate(130.62,131.12)" id="img-e6ee47c5-115">
              <path d="M-0.06,-0 L 0.06 -0 0.06 0 -0.06 0 z" class="primitive"/>
            </g>
            <g transform="translate(130.69,131.12)" id="img-e6ee47c5-116">
              <path d="M-0.06,-0 L 0.06 -0 0.06 0 -0.06 0 z" class="primitive"/>
            </g>
            <g transform="translate(130.77,131.12)" id="img-e6ee47c5-117">
              <path d="M-0.06,-0 L 0.06 -0 0.06 0 -0.06 0 z" class="primitive"/>
            </g>
            <g transform="translate(130.84,126.88)" id="img-e6ee47c5-118">
              <path d="M-0.06,-4.23 L 0.06 -4.23 0.06 4.23 -0.06 4.23 z" class="primitive"/>
            </g>
            <g transform="translate(130.92,124.77)" id="img-e6ee47c5-119">
              <path d="M-0.06,-6.35 L 0.06 -6.35 0.06 6.35 -0.06 6.35 z" class="primitive"/>
            </g>
            <g transform="translate(131,131.12)" id="img-e6ee47c5-120">
              <path d="M-0.06,-0 L 0.06 -0 0.06 0 -0.06 0 z" class="primitive"/>
            </g>
            <g transform="translate(131.07,131.12)" id="img-e6ee47c5-121">
              <path d="M-0.06,-0 L 0.06 -0 0.06 0 -0.06 0 z" class="primitive"/>
            </g>
            <g transform="translate(131.15,129)" id="img-e6ee47c5-122">
              <path d="M-0.06,-2.12 L 0.06 -2.12 0.06 2.12 -0.06 2.12 z" class="primitive"/>
            </g>
            <g transform="translate(131.22,131.12)" id="img-e6ee47c5-123">
              <path d="M-0.06,-0 L 0.06 -0 0.06 0 -0.06 0 z" class="primitive"/>
            </g>
            <g transform="translate(131.3,129)" id="img-e6ee47c5-124">
              <path d="M-0.06,-2.12 L 0.06 -2.12 0.06 2.12 -0.06 2.12 z" class="primitive"/>
            </g>
            <g transform="translate(131.38,129)" id="img-e6ee47c5-125">
              <path d="M-0.06,-2.12 L 0.06 -2.12 0.06 2.12 -0.06 2.12 z" class="primitive"/>
            </g>
            <g transform="translate(131.45,131.12)" id="img-e6ee47c5-126">
              <path d="M-0.06,-0 L 0.06 -0 0.06 0 -0.06 0 z" class="primitive"/>
            </g>
            <g transform="translate(131.53,131.12)" id="img-e6ee47c5-127">
              <path d="M-0.06,-0 L 0.06 -0 0.06 0 -0.06 0 z" class="primitive"/>
            </g>
            <g transform="translate(131.6,131.12)" id="img-e6ee47c5-128">
              <path d="M-0.06,-0 L 0.06 -0 0.06 0 -0.06 0 z" class="primitive"/>
            </g>
            <g transform="translate(131.68,131.12)" id="img-e6ee47c5-129">
              <path d="M-0.06,-0 L 0.06 -0 0.06 0 -0.06 0 z" class="primitive"/>
            </g>
            <g transform="translate(131.76,126.88)" id="img-e6ee47c5-130">
              <path d="M-0.06,-4.23 L 0.06 -4.23 0.06 4.23 -0.06 4.23 z" class="primitive"/>
            </g>
            <g transform="translate(131.83,129)" id="img-e6ee47c5-131">
              <path d="M-0.06,-2.12 L 0.06 -2.12 0.06 2.12 -0.06 2.12 z" class="primitive"/>
            </g>
            <g transform="translate(131.91,126.88)" id="img-e6ee47c5-132">
              <path d="M-0.06,-4.23 L 0.06 -4.23 0.06 4.23 -0.06 4.23 z" class="primitive"/>
            </g>
            <g transform="translate(131.98,131.12)" id="img-e6ee47c5-133">
              <path d="M-0.06,-0 L 0.06 -0 0.06 0 -0.06 0 z" class="primitive"/>
            </g>
            <g transform="translate(132.06,129)" id="img-e6ee47c5-134">
              <path d="M-0.06,-2.12 L 0.06 -2.12 0.06 2.12 -0.06 2.12 z" class="primitive"/>
            </g>
            <g transform="translate(132.14,131.12)" id="img-e6ee47c5-135">
              <path d="M-0.06,-0 L 0.06 -0 0.06 0 -0.06 0 z" class="primitive"/>
            </g>
            <g transform="translate(132.21,131.12)" id="img-e6ee47c5-136">
              <path d="M-0.06,-0 L 0.06 -0 0.06 0 -0.06 0 z" class="primitive"/>
            </g>
            <g transform="translate(132.29,129)" id="img-e6ee47c5-137">
              <path d="M-0.06,-2.12 L 0.06 -2.12 0.06 2.12 -0.06 2.12 z" class="primitive"/>
            </g>
            <g transform="translate(132.37,131.12)" id="img-e6ee47c5-138">
              <path d="M-0.06,-0 L 0.06 -0 0.06 0 -0.06 0 z" class="primitive"/>
            </g>
            <g transform="translate(132.44,126.88)" id="img-e6ee47c5-139">
              <path d="M-0.06,-4.23 L 0.06 -4.23 0.06 4.23 -0.06 4.23 z" class="primitive"/>
            </g>
            <g transform="translate(132.52,122.65)" id="img-e6ee47c5-140">
              <path d="M-0.06,-8.46 L 0.06 -8.46 0.06 8.46 -0.06 8.46 z" class="primitive"/>
            </g>
            <g transform="translate(132.59,124.77)" id="img-e6ee47c5-141">
              <path d="M-0.06,-6.35 L 0.06 -6.35 0.06 6.35 -0.06 6.35 z" class="primitive"/>
            </g>
            <g transform="translate(132.67,124.77)" id="img-e6ee47c5-142">
              <path d="M-0.06,-6.35 L 0.06 -6.35 0.06 6.35 -0.06 6.35 z" class="primitive"/>
            </g>
            <g transform="translate(132.75,126.88)" id="img-e6ee47c5-143">
              <path d="M-0.06,-4.23 L 0.06 -4.23 0.06 4.23 -0.06 4.23 z" class="primitive"/>
            </g>
            <g transform="translate(132.82,109.96)" id="img-e6ee47c5-144">
              <path d="M-0.06,-21.15 L 0.06 -21.15 0.06 21.15 -0.06 21.15 z" class="primitive"/>
            </g>
            <g transform="translate(132.9,124.77)" id="img-e6ee47c5-145">
              <path d="M-0.06,-6.35 L 0.06 -6.35 0.06 6.35 -0.06 6.35 z" class="primitive"/>
            </g>
            <g transform="translate(132.97,124.77)" id="img-e6ee47c5-146">
              <path d="M-0.06,-6.35 L 0.06 -6.35 0.06 6.35 -0.06 6.35 z" class="primitive"/>
            </g>
            <g transform="translate(133.05,126.88)" id="img-e6ee47c5-147">
              <path d="M-0.06,-4.23 L 0.06 -4.23 0.06 4.23 -0.06 4.23 z" class="primitive"/>
            </g>
            <g transform="translate(133.13,126.88)" id="img-e6ee47c5-148">
              <path d="M-0.06,-4.23 L 0.06 -4.23 0.06 4.23 -0.06 4.23 z" class="primitive"/>
            </g>
            <g transform="translate(133.2,131.12)" id="img-e6ee47c5-149">
              <path d="M-0.06,-0 L 0.06 -0 0.06 0 -0.06 0 z" class="primitive"/>
            </g>
            <g transform="translate(133.28,131.12)" id="img-e6ee47c5-150">
              <path d="M-0.06,-0 L 0.06 -0 0.06 0 -0.06 0 z" class="primitive"/>
            </g>
            <g transform="translate(133.35,131.12)" id="img-e6ee47c5-151">
              <path d="M-0.06,-0 L 0.06 -0 0.06 0 -0.06 0 z" class="primitive"/>
            </g>
            <g transform="translate(133.43,131.12)" id="img-e6ee47c5-152">
              <path d="M-0.06,-0 L 0.06 -0 0.06 0 -0.06 0 z" class="primitive"/>
            </g>
            <g transform="translate(133.51,131.12)" id="img-e6ee47c5-153">
              <path d="M-0.06,-0 L 0.06 -0 0.06 0 -0.06 0 z" class="primitive"/>
            </g>
            <g transform="translate(133.58,129)" id="img-e6ee47c5-154">
              <path d="M-0.06,-2.12 L 0.06 -2.12 0.06 2.12 -0.06 2.12 z" class="primitive"/>
            </g>
          </g>
        </g>
      </g>
    </g>
  </g>
  <g class="guide ylabels" font-size="2.82" font-family="'PT Sans Caption','Helvetica Neue','Helvetica',sans-serif" fill="#6C606B" id="img-e6ee47c5-155">
    <g transform="translate(101.62,131.11)" id="img-e6ee47c5-156">
      <g class="primitive">
        <text text-anchor="end" dy="0.35em">0</text>
      </g>
    </g>
    <g transform="translate(101.62,109.96)" id="img-e6ee47c5-157">
      <g class="primitive">
        <text text-anchor="end" dy="0.35em">5</text>
      </g>
    </g>
    <g transform="translate(101.62,88.81)" id="img-e6ee47c5-158">
      <g class="primitive">
        <text text-anchor="end" dy="0.35em">10</text>
      </g>
    </g>
  </g>
  <g font-size="3.88" font-family="'PT Sans','Helvetica Neue','Helvetica',sans-serif" fill="#564A55" stroke="#000000" stroke-opacity="0.000" id="img-e6ee47c5-159">
    <g transform="translate(93.47,107.96)" id="img-e6ee47c5-160">
      <g class="primitive">
        <text text-anchor="middle" dy="0.35em" transform="rotate(-90,0, 2)">Count</text>
      </g>
    </g>
  </g>
  <g font-size="3.88" font-family="'PT Sans','Helvetica Neue','Helvetica',sans-serif" fill="#564A55" stroke="#000000" stroke-opacity="0.000" id="img-e6ee47c5-161">
    <g transform="translate(133.48,81.2)" id="img-e6ee47c5-162">
      <g class="primitive">
        <text text-anchor="middle" dy="0.6em">CitZAF</text>
      </g>
    </g>
  </g>
</g>
<g class="plotroot xscalable yscalable" id="img-e6ee47c5-163">
  <g font-size="3.88" font-family="'PT Sans','Helvetica Neue','Helvetica',sans-serif" fill="#564A55" stroke="#000000" stroke-opacity="0.000" id="img-e6ee47c5-164">
    <g transform="translate(47.98,140.79)" id="img-e6ee47c5-165">
      <g class="primitive">
        <text text-anchor="middle" dy="0.6em">kMeas/kCalc</text>
      </g>
    </g>
  </g>
  <g class="guide xlabels" font-size="2.82" font-family="'PT Sans Caption','Helvetica Neue','Helvetica',sans-serif" fill="#6C606B" id="img-e6ee47c5-166">
    <g transform="translate(18.29,134.11)" id="img-e6ee47c5-167">
      <g class="primitive">
        <text text-anchor="middle" dy="0.6em">0.0</text>
      </g>
    </g>
    <g transform="translate(33.13,134.11)" id="img-e6ee47c5-168">
      <g class="primitive">
        <text text-anchor="middle" dy="0.6em">0.5</text>
      </g>
    </g>
    <g transform="translate(47.98,134.11)" id="img-e6ee47c5-169">
      <g class="primitive">
        <text text-anchor="middle" dy="0.6em">1.0</text>
      </g>
    </g>
    <g transform="translate(62.82,134.11)" id="img-e6ee47c5-170">
      <g class="primitive">
        <text text-anchor="middle" dy="0.6em">1.5</text>
      </g>
    </g>
    <g transform="translate(77.67,134.11)" id="img-e6ee47c5-171">
      <g class="primitive">
        <text text-anchor="middle" dy="0.6em">2.0</text>
      </g>
    </g>
  </g>
  <g clip-path="url(#img-e6ee47c5-172)">
    <g id="img-e6ee47c5-173">
      <g pointer-events="visible" stroke-width="0.3" fill="#000000" fill-opacity="0.000" stroke="#000000" stroke-opacity="0.000" class="guide background" id="img-e6ee47c5-174">
        <g transform="translate(47.98,109.96)" id="img-e6ee47c5-175">
          <path d="M-31.69,-23.15 L 31.69 -23.15 31.69 23.15 -31.69 23.15 z" class="primitive"/>
        </g>
      </g>
      <g class="guide ygridlines xfixed" stroke-dasharray="0.5,0.5" stroke-width="0.2" stroke="#D0D0E0" id="img-e6ee47c5-176">
        <g transform="translate(47.98,131.11)" id="img-e6ee47c5-177">
          <path fill="none" d="M-31.69,0 L 31.69 0" class="primitive"/>
        </g>
        <g transform="translate(47.98,120.54)" id="img-e6ee47c5-178">
          <path fill="none" d="M-31.69,0 L 31.69 0" class="primitive"/>
        </g>
        <g transform="translate(47.98,109.96)" id="img-e6ee47c5-179">
          <path fill="none" d="M-31.69,0 L 31.69 0" class="primitive"/>
        </g>
        <g transform="translate(47.98,99.39)" id="img-e6ee47c5-180">
          <path fill="none" d="M-31.69,0 L 31.69 0" class="primitive"/>
        </g>
        <g transform="translate(47.98,88.81)" id="img-e6ee47c5-181">
          <path fill="none" d="M-31.69,0 L 31.69 0" class="primitive"/>
        </g>
      </g>
      <g class="guide xgridlines yfixed" stroke-dasharray="0.5,0.5" stroke-width="0.2" stroke="#D0D0E0" id="img-e6ee47c5-182">
        <g transform="translate(18.29,109.96)" id="img-e6ee47c5-183">
          <path fill="none" d="M0,-23.15 L 0 23.15" class="primitive"/>
        </g>
        <g transform="translate(33.13,109.96)" id="img-e6ee47c5-184">
          <path fill="none" d="M0,-23.15 L 0 23.15" class="primitive"/>
        </g>
        <g transform="translate(47.98,109.96)" id="img-e6ee47c5-185">
          <path fill="none" d="M0,-23.15 L 0 23.15" class="primitive"/>
        </g>
        <g transform="translate(62.82,109.96)" id="img-e6ee47c5-186">
          <path fill="none" d="M0,-23.15 L 0 23.15" class="primitive"/>
        </g>
        <g transform="translate(77.67,109.96)" id="img-e6ee47c5-187">
          <path fill="none" d="M0,-23.15 L 0 23.15" class="primitive"/>
        </g>
      </g>
      <g class="plotpanel" id="img-e6ee47c5-188">
        <metadata>
          <boundingbox value="16.285000000000004mm 86.81166666666665mm 63.38166666666665mm 46.30333333333333mm"/>
          <unitbox value="-0.06736085772825509 4.189110393192026 2.1347217154565103 -4.378220786384052"/>
        </metadata>
        <g shape-rendering="crispEdges" stroke-width="0.3" id="img-e6ee47c5-189">
          <g class="geometry" fill-opacity="1" stroke="#000000" stroke-opacity="0.000" fill="#00BFFF" id="img-e6ee47c5-190">
            <g transform="translate(45.86,125.83)" id="img-e6ee47c5-191">
              <path d="M-0.06,-5.29 L 0.06 -5.29 0.06 5.29 -0.06 5.29 z" class="primitive"/>
            </g>
            <g transform="translate(45.92,131.12)" id="img-e6ee47c5-192">
              <path d="M-0.06,-0 L 0.06 -0 0.06 0 -0.06 0 z" class="primitive"/>
            </g>
            <g transform="translate(45.99,131.12)" id="img-e6ee47c5-193">
              <path d="M-0.06,-0 L 0.06 -0 0.06 0 -0.06 0 z" class="primitive"/>
            </g>
            <g transform="translate(46.05,125.83)" id="img-e6ee47c5-194">
              <path d="M-0.06,-5.29 L 0.06 -5.29 0.06 5.29 -0.06 5.29 z" class="primitive"/>
            </g>
            <g transform="translate(46.11,131.12)" id="img-e6ee47c5-195">
              <path d="M-0.06,-0 L 0.06 -0 0.06 0 -0.06 0 z" class="primitive"/>
            </g>
            <g transform="translate(46.18,131.12)" id="img-e6ee47c5-196">
              <path d="M-0.06,-0 L 0.06 -0 0.06 0 -0.06 0 z" class="primitive"/>
            </g>
            <g transform="translate(46.24,131.12)" id="img-e6ee47c5-197">
              <path d="M-0.06,-0 L 0.06 -0 0.06 0 -0.06 0 z" class="primitive"/>
            </g>
            <g transform="translate(46.3,131.12)" id="img-e6ee47c5-198">
              <path d="M-0.06,-0 L 0.06 -0 0.06 0 -0.06 0 z" class="primitive"/>
            </g>
            <g transform="translate(46.37,131.12)" id="img-e6ee47c5-199">
              <path d="M-0.06,-0 L 0.06 -0 0.06 0 -0.06 0 z" class="primitive"/>
            </g>
            <g transform="translate(46.43,125.83)" id="img-e6ee47c5-200">
              <path d="M-0.06,-5.29 L 0.06 -5.29 0.06 5.29 -0.06 5.29 z" class="primitive"/>
            </g>
            <g transform="translate(46.49,125.83)" id="img-e6ee47c5-201">
              <path d="M-0.06,-5.29 L 0.06 -5.29 0.06 5.29 -0.06 5.29 z" class="primitive"/>
            </g>
            <g transform="translate(46.56,125.83)" id="img-e6ee47c5-202">
              <path d="M-0.06,-5.29 L 0.06 -5.29 0.06 5.29 -0.06 5.29 z" class="primitive"/>
            </g>
            <g transform="translate(46.62,131.12)" id="img-e6ee47c5-203">
              <path d="M-0.06,-0 L 0.06 -0 0.06 0 -0.06 0 z" class="primitive"/>
            </g>
            <g transform="translate(46.68,131.12)" id="img-e6ee47c5-204">
              <path d="M-0.06,-0 L 0.06 -0 0.06 0 -0.06 0 z" class="primitive"/>
            </g>
            <g transform="translate(46.75,125.83)" id="img-e6ee47c5-205">
              <path d="M-0.06,-5.29 L 0.06 -5.29 0.06 5.29 -0.06 5.29 z" class="primitive"/>
            </g>
            <g transform="translate(46.81,131.12)" id="img-e6ee47c5-206">
              <path d="M-0.06,-0 L 0.06 -0 0.06 0 -0.06 0 z" class="primitive"/>
            </g>
            <g transform="translate(46.87,131.12)" id="img-e6ee47c5-207">
              <path d="M-0.06,-0 L 0.06 -0 0.06 0 -0.06 0 z" class="primitive"/>
            </g>
            <g transform="translate(46.94,125.83)" id="img-e6ee47c5-208">
              <path d="M-0.06,-5.29 L 0.06 -5.29 0.06 5.29 -0.06 5.29 z" class="primitive"/>
            </g>
            <g transform="translate(47,120.54)" id="img-e6ee47c5-209">
              <path d="M-0.06,-10.58 L 0.06 -10.58 0.06 10.58 -0.06 10.58 z" class="primitive"/>
            </g>
            <g transform="translate(47.06,125.83)" id="img-e6ee47c5-210">
              <path d="M-0.06,-5.29 L 0.06 -5.29 0.06 5.29 -0.06 5.29 z" class="primitive"/>
            </g>
            <g transform="translate(47.13,120.54)" id="img-e6ee47c5-211">
              <path d="M-0.06,-10.58 L 0.06 -10.58 0.06 10.58 -0.06 10.58 z" class="primitive"/>
            </g>
            <g transform="translate(47.19,115.25)" id="img-e6ee47c5-212">
              <path d="M-0.06,-15.86 L 0.06 -15.86 0.06 15.86 -0.06 15.86 z" class="primitive"/>
            </g>
            <g transform="translate(47.25,109.96)" id="img-e6ee47c5-213">
              <path d="M-0.06,-21.15 L 0.06 -21.15 0.06 21.15 -0.06 21.15 z" class="primitive"/>
            </g>
            <g transform="translate(47.32,125.83)" id="img-e6ee47c5-214">
              <path d="M-0.06,-5.29 L 0.06 -5.29 0.06 5.29 -0.06 5.29 z" class="primitive"/>
            </g>
            <g transform="translate(47.38,131.12)" id="img-e6ee47c5-215">
              <path d="M-0.06,-0 L 0.06 -0 0.06 0 -0.06 0 z" class="primitive"/>
            </g>
            <g transform="translate(47.44,120.54)" id="img-e6ee47c5-216">
              <path d="M-0.06,-10.58 L 0.06 -10.58 0.06 10.58 -0.06 10.58 z" class="primitive"/>
            </g>
            <g transform="translate(47.51,125.83)" id="img-e6ee47c5-217">
              <path d="M-0.06,-5.29 L 0.06 -5.29 0.06 5.29 -0.06 5.29 z" class="primitive"/>
            </g>
            <g transform="translate(47.57,120.54)" id="img-e6ee47c5-218">
              <path d="M-0.06,-10.58 L 0.06 -10.58 0.06 10.58 -0.06 10.58 z" class="primitive"/>
            </g>
            <g transform="translate(47.63,109.96)" id="img-e6ee47c5-219">
              <path d="M-0.06,-21.15 L 0.06 -21.15 0.06 21.15 -0.06 21.15 z" class="primitive"/>
            </g>
            <g transform="translate(47.7,120.54)" id="img-e6ee47c5-220">
              <path d="M-0.06,-10.58 L 0.06 -10.58 0.06 10.58 -0.06 10.58 z" class="primitive"/>
            </g>
            <g transform="translate(47.76,120.54)" id="img-e6ee47c5-221">
              <path d="M-0.06,-10.58 L 0.06 -10.58 0.06 10.58 -0.06 10.58 z" class="primitive"/>
            </g>
            <g transform="translate(47.82,120.54)" id="img-e6ee47c5-222">
              <path d="M-0.06,-10.58 L 0.06 -10.58 0.06 10.58 -0.06 10.58 z" class="primitive"/>
            </g>
            <g transform="translate(47.89,120.54)" id="img-e6ee47c5-223">
              <path d="M-0.06,-10.58 L 0.06 -10.58 0.06 10.58 -0.06 10.58 z" class="primitive"/>
            </g>
            <g transform="translate(47.95,120.54)" id="img-e6ee47c5-224">
              <path d="M-0.06,-10.58 L 0.06 -10.58 0.06 10.58 -0.06 10.58 z" class="primitive"/>
            </g>
            <g transform="translate(48.01,120.54)" id="img-e6ee47c5-225">
              <path d="M-0.06,-10.58 L 0.06 -10.58 0.06 10.58 -0.06 10.58 z" class="primitive"/>
            </g>
            <g transform="translate(48.08,125.83)" id="img-e6ee47c5-226">
              <path d="M-0.06,-5.29 L 0.06 -5.29 0.06 5.29 -0.06 5.29 z" class="primitive"/>
            </g>
            <g transform="translate(48.14,125.83)" id="img-e6ee47c5-227">
              <path d="M-0.06,-5.29 L 0.06 -5.29 0.06 5.29 -0.06 5.29 z" class="primitive"/>
            </g>
            <g transform="translate(48.2,115.25)" id="img-e6ee47c5-228">
              <path d="M-0.06,-15.86 L 0.06 -15.86 0.06 15.86 -0.06 15.86 z" class="primitive"/>
            </g>
            <g transform="translate(48.26,120.54)" id="img-e6ee47c5-229">
              <path d="M-0.06,-10.58 L 0.06 -10.58 0.06 10.58 -0.06 10.58 z" class="primitive"/>
            </g>
            <g transform="translate(48.33,125.83)" id="img-e6ee47c5-230">
              <path d="M-0.06,-5.29 L 0.06 -5.29 0.06 5.29 -0.06 5.29 z" class="primitive"/>
            </g>
            <g transform="translate(48.39,131.12)" id="img-e6ee47c5-231">
              <path d="M-0.06,-0 L 0.06 -0 0.06 0 -0.06 0 z" class="primitive"/>
            </g>
            <g transform="translate(48.45,125.83)" id="img-e6ee47c5-232">
              <path d="M-0.06,-5.29 L 0.06 -5.29 0.06 5.29 -0.06 5.29 z" class="primitive"/>
            </g>
            <g transform="translate(48.52,120.54)" id="img-e6ee47c5-233">
              <path d="M-0.06,-10.58 L 0.06 -10.58 0.06 10.58 -0.06 10.58 z" class="primitive"/>
            </g>
            <g transform="translate(48.58,131.12)" id="img-e6ee47c5-234">
              <path d="M-0.06,-0 L 0.06 -0 0.06 0 -0.06 0 z" class="primitive"/>
            </g>
            <g transform="translate(48.64,125.83)" id="img-e6ee47c5-235">
              <path d="M-0.06,-5.29 L 0.06 -5.29 0.06 5.29 -0.06 5.29 z" class="primitive"/>
            </g>
            <g transform="translate(48.71,125.83)" id="img-e6ee47c5-236">
              <path d="M-0.06,-5.29 L 0.06 -5.29 0.06 5.29 -0.06 5.29 z" class="primitive"/>
            </g>
            <g transform="translate(48.77,131.12)" id="img-e6ee47c5-237">
              <path d="M-0.06,-0 L 0.06 -0 0.06 0 -0.06 0 z" class="primitive"/>
            </g>
            <g transform="translate(48.83,131.12)" id="img-e6ee47c5-238">
              <path d="M-0.06,-0 L 0.06 -0 0.06 0 -0.06 0 z" class="primitive"/>
            </g>
            <g transform="translate(48.9,125.83)" id="img-e6ee47c5-239">
              <path d="M-0.06,-5.29 L 0.06 -5.29 0.06 5.29 -0.06 5.29 z" class="primitive"/>
            </g>
            <g transform="translate(48.96,125.83)" id="img-e6ee47c5-240">
              <path d="M-0.06,-5.29 L 0.06 -5.29 0.06 5.29 -0.06 5.29 z" class="primitive"/>
            </g>
          </g>
        </g>
      </g>
    </g>
  </g>
  <g class="guide ylabels" font-size="2.82" font-family="'PT Sans Caption','Helvetica Neue','Helvetica',sans-serif" fill="#6C606B" id="img-e6ee47c5-241">
    <g transform="translate(15.28,131.11)" id="img-e6ee47c5-242">
      <g class="primitive">
        <text text-anchor="end" dy="0.35em">0</text>
      </g>
    </g>
    <g transform="translate(15.28,120.54)" id="img-e6ee47c5-243">
      <g class="primitive">
        <text text-anchor="end" dy="0.35em">1</text>
      </g>
    </g>
    <g transform="translate(15.28,109.96)" id="img-e6ee47c5-244">
      <g class="primitive">
        <text text-anchor="end" dy="0.35em">2</text>
      </g>
    </g>
    <g transform="translate(15.28,99.39)" id="img-e6ee47c5-245">
      <g class="primitive">
        <text text-anchor="end" dy="0.35em">3</text>
      </g>
    </g>
    <g transform="translate(15.28,88.81)" id="img-e6ee47c5-246">
      <g class="primitive">
        <text text-anchor="end" dy="0.35em">4</text>
      </g>
    </g>
  </g>
  <g font-size="3.88" font-family="'PT Sans','Helvetica Neue','Helvetica',sans-serif" fill="#564A55" stroke="#000000" stroke-opacity="0.000" id="img-e6ee47c5-247">
    <g transform="translate(8.81,107.96)" id="img-e6ee47c5-248">
      <g class="primitive">
        <text text-anchor="middle" dy="0.35em" transform="rotate(-90,0, 2)">Count</text>
      </g>
    </g>
  </g>
  <g font-size="3.88" font-family="'PT Sans','Helvetica Neue','Helvetica',sans-serif" fill="#564A55" stroke="#000000" stroke-opacity="0.000" id="img-e6ee47c5-249">
    <g transform="translate(47.98,81.2)" id="img-e6ee47c5-250">
      <g class="primitive">
        <text text-anchor="middle" dy="0.6em">XPP</text>
      </g>
    </g>
  </g>
</g>
<g font-size="7.06" font-family="Arial" id="img-e6ee47c5-251">
  <g transform="translate(127,38.1)" id="img-e6ee47c5-252">
    <g class="primitive">
      <text text-anchor="middle" dy="0.35em">NBS 2 measurements</text>
    </g>
  </g>
</g>
<defs>
  <clipPath id="img-e6ee47c5-4">
    <path d="M187.29,86.81 L 249 86.81 249 133.11 187.29 133.11" />
  </clipPath>
  <clipPath id="img-e6ee47c5-88">
    <path d="M102.62,86.81 L 164.33 86.81 164.33 133.11 102.62 133.11" />
  </clipPath>
  <clipPath id="img-e6ee47c5-172">
    <path d="M16.29,86.81 L 79.67 86.81 79.67 133.11 16.29 133.11" />
  </clipPath>
</defs>
</svg>
