<?xml version="1.0" encoding="UTF-8"?>
<svg xmlns="http://www.w3.org/2000/svg"
     xmlns:xlink="http://www.w3.org/1999/xlink"
     xmlns:gadfly="http://www.gadflyjl.org/ns"
     version="1.2"
     width="254mm" height="152.4mm" viewBox="0 0 254 152.4"
     stroke="none"
     fill="#000000"
     stroke-width="0.3"
     font-size="3.88"
>
<defs>
  <marker id="arrow" markerWidth="15" markerHeight="7" refX="5" refY="3.5" orient="auto" markerUnits="strokeWidth">
    <path d="M0,0 L15,3.5 L0,7 z" stroke="context-stroke" fill="context-stroke"/>
  </marker>
</defs>
<g class="plotroot xscalable yscalable" id="img-16f63780-1">
  <g font-size="3.88" font-family="'PT Sans','Helvetica Neue','Helvetica',sans-serif" fill="#564A55" stroke="#000000" stroke-opacity="0.000" id="img-16f63780-2">
    <g transform="translate(218.98,140.79)">
      <g class="primitive">
        <text text-anchor="middle" dy="0.6em">kMeas/kCalc</text>
      </g>
    </g>
  </g>
  <g class="guide xlabels" font-size="2.82" font-family="'PT Sans Caption','Helvetica Neue','Helvetica',sans-serif" fill="#6C606B" id="img-16f63780-3">
    <g transform="translate(190.96,134.11)">
      <g class="primitive">
        <text text-anchor="middle" dy="0.6em">0.0</text>
      </g>
    </g>
    <g transform="translate(204.97,134.11)">
      <g class="primitive">
        <text text-anchor="middle" dy="0.6em">0.5</text>
      </g>
    </g>
    <g transform="translate(218.98,134.11)">
      <g class="primitive">
        <text text-anchor="middle" dy="0.6em">1.0</text>
      </g>
    </g>
    <g transform="translate(232.99,134.11)">
      <g class="primitive">
        <text text-anchor="middle" dy="0.6em">1.5</text>
      </g>
    </g>
    <g transform="translate(247,134.11)">
      <g class="primitive">
        <text text-anchor="middle" dy="0.6em">2.0</text>
      </g>
    </g>
  </g>
  <g clip-path="url(#img-16f63780-4)">
    <g id="img-16f63780-5">
      <g pointer-events="visible" stroke-width="0.3" fill="#000000" fill-opacity="0.000" stroke="#000000" stroke-opacity="0.000" class="guide background" id="img-16f63780-6">
        <g transform="translate(218.98,109.96)" id="img-16f63780-7">
          <path d="M-30.02,-23.15 L 30.02 -23.15 30.02 23.15 -30.02 23.15 z" class="primitive"/>
        </g>
      </g>
      <g class="guide ygridlines xfixed" stroke-dasharray="0.5,0.5" stroke-width="0.2" stroke="#D0D0E0" id="img-16f63780-8">
        <g transform="translate(218.98,131.11)" id="img-16f63780-9">
          <path fill="none" d="M-30.02,0 L 30.02 0" class="primitive"/>
        </g>
        <g transform="translate(218.98,117.01)" id="img-16f63780-10">
          <path fill="none" d="M-30.02,0 L 30.02 0" class="primitive"/>
        </g>
        <g transform="translate(218.98,102.91)" id="img-16f63780-11">
          <path fill="none" d="M-30.02,0 L 30.02 0" class="primitive"/>
        </g>
        <g transform="translate(218.98,88.81)" id="img-16f63780-12">
          <path fill="none" d="M-30.02,0 L 30.02 0" class="primitive"/>
        </g>
      </g>
      <g class="guide xgridlines yfixed" stroke-dasharray="0.5,0.5" stroke-width="0.2" stroke="#D0D0E0" id="img-16f63780-13">
        <g transform="translate(190.96,109.96)" id="img-16f63780-14">
          <path fill="none" d="M0,-23.15 L 0 23.15" class="primitive"/>
        </g>
        <g transform="translate(204.97,109.96)" id="img-16f63780-15">
          <path fill="none" d="M0,-23.15 L 0 23.15" class="primitive"/>
        </g>
        <g transform="translate(218.98,109.96)" id="img-16f63780-16">
          <path fill="none" d="M0,-23.15 L 0 23.15" class="primitive"/>
        </g>
        <g transform="translate(232.99,109.96)" id="img-16f63780-17">
          <path fill="none" d="M0,-23.15 L 0 23.15" class="primitive"/>
        </g>
        <g transform="translate(247,109.96)" id="img-16f63780-18">
          <path fill="none" d="M0,-23.15 L 0 23.15" class="primitive"/>
        </g>
      </g>
      <g class="plotpanel" id="img-16f63780-19">
        <metadata>
          <boundingbox value="188.96499999999997mm 86.81166666666665mm 60.03499999999999mm 46.30333333333333mm"/>
          <unitbox value="-0.07138395645578657 157.09163974470096 2.142767912911573 -164.18327948940194"/>
        </metadata>
        <g shape-rendering="crispEdges" stroke-width="0.3" id="img-16f63780-20">
          <g class="geometry" fill-opacity="1" stroke="#000000" stroke-opacity="0.000" fill="#00BFFF" id="img-16f63780-21">
            <g transform="translate(215.65,130.83)" id="img-16f63780-22">
              <path d="M-0.48,-0.28 L 0.48 -0.28 0.48 0.28 -0.48 0.28 z" class="primitive"/>
            </g>
            <g transform="translate(216.57,130.55)" id="img-16f63780-23">
              <path d="M-0.48,-0.56 L 0.48 -0.56 0.48 0.56 -0.48 0.56 z" class="primitive"/>
            </g>
            <g transform="translate(217.48,129.28)" id="img-16f63780-24">
              <path d="M-0.48,-1.83 L 0.48 -1.83 0.48 1.83 -0.48 1.83 z" class="primitive"/>
            </g>
            <g transform="translate(218.4,125.62)" id="img-16f63780-25">
              <path d="M-0.48,-5.5 L 0.48 -5.5 0.48 5.5 -0.48 5.5 z" class="primitive"/>
            </g>
            <g transform="translate(219.32,112.92)" id="img-16f63780-26">
              <path d="M-0.48,-18.19 L 0.48 -18.19 0.48 18.19 -0.48 18.19 z" class="primitive"/>
            </g>
            <g transform="translate(220.23,124.77)" id="img-16f63780-27">
              <path d="M-0.48,-6.35 L 0.48 -6.35 0.48 6.35 -0.48 6.35 z" class="primitive"/>
            </g>
            <g transform="translate(221.15,125.76)" id="img-16f63780-28">
              <path d="M-0.48,-5.36 L 0.48 -5.36 0.48 5.36 -0.48 5.36 z" class="primitive"/>
            </g>
            <g transform="translate(222.06,130.13)" id="img-16f63780-29">
              <path d="M-0.48,-0.99 L 0.48 -0.99 0.48 0.99 -0.48 0.99 z" class="primitive"/>
            </g>
            <g transform="translate(222.98,130.13)" id="img-16f63780-30">
              <path d="M-0.48,-0.99 L 0.48 -0.99 0.48 0.99 -0.48 0.99 z" class="primitive"/>
            </g>
            <g transform="translate(223.9,130.97)" id="img-16f63780-31">
              <path d="M-0.48,-0.14 L 0.48 -0.14 0.48 0.14 -0.48 0.14 z" class="primitive"/>
            </g>
            <g transform="translate(224.81,130.97)" id="img-16f63780-32">
              <path d="M-0.48,-0.14 L 0.48 -0.14 0.48 0.14 -0.48 0.14 z" class="primitive"/>
            </g>
            <g transform="translate(225.73,130.97)" id="img-16f63780-33">
              <path d="M-0.48,-0.14 L 0.48 -0.14 0.48 0.14 -0.48 0.14 z" class="primitive"/>
            </g>
            <g transform="translate(226.65,131.12)" id="img-16f63780-34">
              <path d="M-0.48,-0 L 0.48 -0 0.48 0 -0.48 0 z" class="primitive"/>
            </g>
            <g transform="translate(227.56,130.83)" id="img-16f63780-35">
              <path d="M-0.48,-0.28 L 0.48 -0.28 0.48 0.28 -0.48 0.28 z" class="primitive"/>
            </g>
            <g transform="translate(228.48,131.12)" id="img-16f63780-36">
              <path d="M-0.48,-0 L 0.48 -0 0.48 0 -0.48 0 z" class="primitive"/>
            </g>
            <g transform="translate(229.4,130.97)" id="img-16f63780-37">
              <path d="M-0.48,-0.14 L 0.48 -0.14 0.48 0.14 -0.48 0.14 z" class="primitive"/>
            </g>
            <g transform="translate(230.31,130.97)" id="img-16f63780-38">
              <path d="M-0.48,-0.14 L 0.48 -0.14 0.48 0.14 -0.48 0.14 z" class="primitive"/>
            </g>
            <g transform="translate(231.23,130.69)" id="img-16f63780-39">
              <path d="M-0.48,-0.42 L 0.48 -0.42 0.48 0.42 -0.48 0.42 z" class="primitive"/>
            </g>
            <g transform="translate(232.14,130.83)" id="img-16f63780-40">
              <path d="M-0.48,-0.28 L 0.48 -0.28 0.48 0.28 -0.48 0.28 z" class="primitive"/>
            </g>
            <g transform="translate(233.06,130.97)" id="img-16f63780-41">
              <path d="M-0.48,-0.14 L 0.48 -0.14 0.48 0.14 -0.48 0.14 z" class="primitive"/>
            </g>
            <g transform="translate(233.98,130.83)" id="img-16f63780-42">
              <path d="M-0.48,-0.28 L 0.48 -0.28 0.48 0.28 -0.48 0.28 z" class="primitive"/>
            </g>
            <g transform="translate(234.89,130.83)" id="img-16f63780-43">
              <path d="M-0.48,-0.28 L 0.48 -0.28 0.48 0.28 -0.48 0.28 z" class="primitive"/>
            </g>
            <g transform="translate(235.81,130.97)" id="img-16f63780-44">
              <path d="M-0.48,-0.14 L 0.48 -0.14 0.48 0.14 -0.48 0.14 z" class="primitive"/>
            </g>
            <g transform="translate(236.73,131.12)" id="img-16f63780-45">
              <path d="M-0.48,-0 L 0.48 -0 0.48 0 -0.48 0 z" class="primitive"/>
            </g>
            <g transform="translate(237.64,131.12)" id="img-16f63780-46">
              <path d="M-0.48,-0 L 0.48 -0 0.48 0 -0.48 0 z" class="primitive"/>
            </g>
            <g transform="translate(238.56,131.12)" id="img-16f63780-47">
              <path d="M-0.48,-0 L 0.48 -0 0.48 0 -0.48 0 z" class="primitive"/>
            </g>
            <g transform="translate(239.48,130.97)" id="img-16f63780-48">
              <path d="M-0.48,-0.14 L 0.48 -0.14 0.48 0.14 -0.48 0.14 z" class="primitive"/>
            </g>
            <g transform="translate(240.39,131.12)" id="img-16f63780-49">
              <path d="M-0.48,-0 L 0.48 -0 0.48 0 -0.48 0 z" class="primitive"/>
            </g>
            <g transform="translate(241.31,130.97)" id="img-16f63780-50">
              <path d="M-0.48,-0.14 L 0.48 -0.14 0.48 0.14 -0.48 0.14 z" class="primitive"/>
            </g>
            <g transform="translate(242.23,131.12)" id="img-16f63780-51">
              <path d="M-0.48,-0 L 0.48 -0 0.48 0 -0.48 0 z" class="primitive"/>
            </g>
            <g transform="translate(243.14,131.12)" id="img-16f63780-52">
              <path d="M-0.48,-0 L 0.48 -0 0.48 0 -0.48 0 z" class="primitive"/>
            </g>
            <g transform="translate(244.06,131.12)" id="img-16f63780-53">
              <path d="M-0.48,-0 L 0.48 -0 0.48 0 -0.48 0 z" class="primitive"/>
            </g>
            <g transform="translate(244.97,131.12)" id="img-16f63780-54">
              <path d="M-0.48,-0 L 0.48 -0 0.48 0 -0.48 0 z" class="primitive"/>
            </g>
            <g transform="translate(245.89,131.12)" id="img-16f63780-55">
              <path d="M-0.48,-0 L 0.48 -0 0.48 0 -0.48 0 z" class="primitive"/>
            </g>
            <g transform="translate(246.81,131.12)" id="img-16f63780-56">
              <path d="M-0.48,-0 L 0.48 -0 0.48 0 -0.48 0 z" class="primitive"/>
            </g>
            <g transform="translate(247.72,131.12)" id="img-16f63780-57">
              <path d="M-0.48,-0 L 0.48 -0 0.48 0 -0.48 0 z" class="primitive"/>
            </g>
            <g transform="translate(248.64,130.97)" id="img-16f63780-58">
              <path d="M-0.48,-0.14 L 0.48 -0.14 0.48 0.14 -0.48 0.14 z" class="primitive"/>
            </g>
            <g transform="translate(249.56,131.12)" id="img-16f63780-59">
              <path d="M-0.48,-0 L 0.48 -0 0.48 0 -0.48 0 z" class="primitive"/>
            </g>
            <g transform="translate(250.47,131.12)" id="img-16f63780-60">
              <path d="M-0.48,-0 L 0.48 -0 0.48 0 -0.48 0 z" class="primitive"/>
            </g>
            <g transform="translate(251.39,131.12)" id="img-16f63780-61">
              <path d="M-0.48,-0 L 0.48 -0 0.48 0 -0.48 0 z" class="primitive"/>
            </g>
            <g transform="translate(252.31,130.97)" id="img-16f63780-62">
              <path d="M-0.48,-0.14 L 0.48 -0.14 0.48 0.14 -0.48 0.14 z" class="primitive"/>
            </g>
            <g transform="translate(253.22,131.12)" id="img-16f63780-63">
              <path d="M-0.48,-0 L 0.48 -0 0.48 0 -0.48 0 z" class="primitive"/>
            </g>
            <g transform="translate(254.14,131.12)" id="img-16f63780-64">
              <path d="M-0.48,-0 L 0.48 -0 0.48 0 -0.48 0 z" class="primitive"/>
            </g>
            <g transform="translate(255.05,131.12)" id="img-16f63780-65">
              <path d="M-0.48,-0 L 0.48 -0 0.48 0 -0.48 0 z" class="primitive"/>
            </g>
            <g transform="translate(255.97,130.97)" id="img-16f63780-66">
              <path d="M-0.48,-0.14 L 0.48 -0.14 0.48 0.14 -0.48 0.14 z" class="primitive"/>
            </g>
            <g transform="translate(256.89,131.12)" id="img-16f63780-67">
              <path d="M-0.48,-0 L 0.48 -0 0.48 0 -0.48 0 z" class="primitive"/>
            </g>
            <g transform="translate(257.8,131.12)" id="img-16f63780-68">
              <path d="M-0.48,-0 L 0.48 -0 0.48 0 -0.48 0 z" class="primitive"/>
            </g>
            <g transform="translate(258.72,131.12)" id="img-16f63780-69">
              <path d="M-0.48,-0 L 0.48 -0 0.48 0 -0.48 0 z" class="primitive"/>
            </g>
            <g transform="translate(259.64,131.12)" id="img-16f63780-70">
              <path d="M-0.48,-0 L 0.48 -0 0.48 0 -0.48 0 z" class="primitive"/>
            </g>
            <g transform="translate(260.55,130.97)" id="img-16f63780-71">
              <path d="M-0.48,-0.14 L 0.48 -0.14 0.48 0.14 -0.48 0.14 z" class="primitive"/>
            </g>
          </g>
        </g>
      </g>
    </g>
  </g>
  <g class="guide ylabels" font-size="2.82" font-family="'PT Sans Caption','Helvetica Neue','Helvetica',sans-serif" fill="#6C606B" id="img-16f63780-72">
    <g transform="translate(187.96,131.11)" id="img-16f63780-73">
      <g class="primitive">
        <text text-anchor="end" dy="0.35em">0</text>
      </g>
    </g>
    <g transform="translate(187.96,117.01)" id="img-16f63780-74">
      <g class="primitive">
        <text text-anchor="end" dy="0.35em">50</text>
      </g>
    </g>
    <g transform="translate(187.96,102.91)" id="img-16f63780-75">
      <g class="primitive">
        <text text-anchor="end" dy="0.35em">100</text>
      </g>
    </g>
    <g transform="translate(187.96,88.81)" id="img-16f63780-76">
      <g class="primitive">
        <text text-anchor="end" dy="0.35em">150</text>
      </g>
    </g>
  </g>
  <g font-size="3.88" font-family="'PT Sans','Helvetica Neue','Helvetica',sans-serif" fill="#564A55" stroke="#000000" stroke-opacity="0.000" id="img-16f63780-77">
    <g transform="translate(178.14,107.96)" id="img-16f63780-78">
      <g class="primitive">
        <text text-anchor="middle" dy="0.35em" transform="rotate(-90,0, 2)">Count</text>
      </g>
    </g>
  </g>
  <g font-size="3.88" font-family="'PT Sans','Helvetica Neue','Helvetica',sans-serif" fill="#564A55" stroke="#000000" stroke-opacity="0.000" id="img-16f63780-79">
    <g transform="translate(218.98,81.2)" id="img-16f63780-80">
      <g class="primitive">
        <text text-anchor="middle" dy="0.6em">Riveros</text>
      </g>
    </g>
  </g>
</g>
<g class="plotroot xscalable yscalable" id="img-16f63780-81">
  <g font-size="3.88" font-family="'PT Sans','Helvetica Neue','Helvetica',sans-serif" fill="#564A55" stroke="#000000" stroke-opacity="0.000" id="img-16f63780-82">
    <g transform="translate(133.48,140.79)" id="img-16f63780-83">
      <g class="primitive">
        <text text-anchor="middle" dy="0.6em">kMeas/kCalc</text>
      </g>
    </g>
  </g>
  <g class="guide xlabels" font-size="2.82" font-family="'PT Sans Caption','Helvetica Neue','Helvetica',sans-serif" fill="#6C606B" id="img-16f63780-84">
    <g transform="translate(104.62,134.11)" id="img-16f63780-85">
      <g class="primitive">
        <text text-anchor="middle" dy="0.6em">0.0</text>
      </g>
    </g>
    <g transform="translate(119.05,134.11)" id="img-16f63780-86">
      <g class="primitive">
        <text text-anchor="middle" dy="0.6em">0.5</text>
      </g>
    </g>
    <g transform="translate(133.48,134.11)" id="img-16f63780-87">
      <g class="primitive">
        <text text-anchor="middle" dy="0.6em">1.0</text>
      </g>
    </g>
    <g transform="translate(147.91,134.11)" id="img-16f63780-88">
      <g class="primitive">
        <text text-anchor="middle" dy="0.6em">1.5</text>
      </g>
    </g>
    <g transform="translate(162.33,134.11)" id="img-16f63780-89">
      <g class="primitive">
        <text text-anchor="middle" dy="0.6em">2.0</text>
      </g>
    </g>
  </g>
  <g clip-path="url(#img-16f63780-90)">
    <g id="img-16f63780-91">
      <g pointer-events="visible" stroke-width="0.3" fill="#000000" fill-opacity="0.000" stroke="#000000" stroke-opacity="0.000" class="guide background" id="img-16f63780-92">
        <g transform="translate(133.48,109.96)" id="img-16f63780-93">
          <path d="M-30.85,-23.15 L 30.85 -23.15 30.85 23.15 -30.85 23.15 z" class="primitive"/>
        </g>
      </g>
      <g class="guide ygridlines xfixed" stroke-dasharray="0.5,0.5" stroke-width="0.2" stroke="#D0D0E0" id="img-16f63780-94">
        <g transform="translate(133.48,131.11)" id="img-16f63780-95">
          <path fill="none" d="M-30.85,0 L 30.85 0" class="primitive"/>
        </g>
        <g transform="translate(133.48,120.54)" id="img-16f63780-96">
          <path fill="none" d="M-30.85,0 L 30.85 0" class="primitive"/>
        </g>
        <g transform="translate(133.48,109.96)" id="img-16f63780-97">
          <path fill="none" d="M-30.85,0 L 30.85 0" class="primitive"/>
        </g>
        <g transform="translate(133.48,99.39)" id="img-16f63780-98">
          <path fill="none" d="M-30.85,0 L 30.85 0" class="primitive"/>
        </g>
        <g transform="translate(133.48,88.81)" id="img-16f63780-99">
          <path fill="none" d="M-30.85,0 L 30.85 0" class="primitive"/>
        </g>
      </g>
      <g class="guide xgridlines yfixed" stroke-dasharray="0.5,0.5" stroke-width="0.2" stroke="#D0D0E0" id="img-16f63780-100">
        <g transform="translate(104.62,109.96)" id="img-16f63780-101">
          <path fill="none" d="M0,-23.15 L 0 23.15" class="primitive"/>
        </g>
        <g transform="translate(119.05,109.96)" id="img-16f63780-102">
          <path fill="none" d="M0,-23.15 L 0 23.15" class="primitive"/>
        </g>
        <g transform="translate(133.48,109.96)" id="img-16f63780-103">
          <path fill="none" d="M0,-23.15 L 0 23.15" class="primitive"/>
        </g>
        <g transform="translate(147.91,109.96)" id="img-16f63780-104">
          <path fill="none" d="M0,-23.15 L 0 23.15" class="primitive"/>
        </g>
        <g transform="translate(162.33,109.96)" id="img-16f63780-105">
          <path fill="none" d="M0,-23.15 L 0 23.15" class="primitive"/>
        </g>
      </g>
      <g class="plotpanel" id="img-16f63780-106">
        <metadata>
          <boundingbox value="102.625mm 86.81166666666665mm 61.70833333333332mm 46.30333333333333mm"/>
          <unitbox value="-0.0693140794223827 83.78220786384051 2.1386281588447655 -87.56441572768104"/>
        </metadata>
        <g shape-rendering="crispEdges" stroke-width="0.3" id="img-16f63780-107">
          <g class="geometry" fill-opacity="1" stroke="#000000" stroke-opacity="0.000" fill="#00BFFF" id="img-16f63780-108">
            <g transform="translate(129.53,125.3)" id="img-16f63780-109">
              <path d="M-0.44,-5.82 L 0.44 -5.82 0.44 5.82 -0.44 5.82 z" class="primitive"/>
            </g>
            <g transform="translate(130.36,122.92)" id="img-16f63780-110">
              <path d="M-0.44,-8.2 L 0.44 -8.2 0.44 8.2 -0.44 8.2 z" class="primitive"/>
            </g>
            <g transform="translate(131.19,122.39)" id="img-16f63780-111">
              <path d="M-0.44,-8.73 L 0.44 -8.73 0.44 8.73 -0.44 8.73 z" class="primitive"/>
            </g>
            <g transform="translate(132.01,117.37)" id="img-16f63780-112">
              <path d="M-0.44,-13.75 L 0.44 -13.75 0.44 13.75 -0.44 13.75 z" class="primitive"/>
            </g>
            <g transform="translate(132.84,114.99)" id="img-16f63780-113">
              <path d="M-0.44,-16.13 L 0.44 -16.13 0.44 16.13 -0.44 16.13 z" class="primitive"/>
            </g>
            <g transform="translate(133.67,112.08)" id="img-16f63780-114">
              <path d="M-0.44,-19.04 L 0.44 -19.04 0.44 19.04 -0.44 19.04 z" class="primitive"/>
            </g>
            <g transform="translate(134.5,125.83)" id="img-16f63780-115">
              <path d="M-0.44,-5.29 L 0.44 -5.29 0.44 5.29 -0.44 5.29 z" class="primitive"/>
            </g>
            <g transform="translate(135.33,130.06)" id="img-16f63780-116">
              <path d="M-0.44,-1.06 L 0.44 -1.06 0.44 1.06 -0.44 1.06 z" class="primitive"/>
            </g>
            <g transform="translate(136.15,129.79)" id="img-16f63780-117">
              <path d="M-0.44,-1.32 L 0.44 -1.32 0.44 1.32 -0.44 1.32 z" class="primitive"/>
            </g>
            <g transform="translate(136.98,131.12)" id="img-16f63780-118">
              <path d="M-0.44,-0 L 0.44 -0 0.44 0 -0.44 0 z" class="primitive"/>
            </g>
            <g transform="translate(137.81,131.12)" id="img-16f63780-119">
              <path d="M-0.44,-0 L 0.44 -0 0.44 0 -0.44 0 z" class="primitive"/>
            </g>
            <g transform="translate(138.64,131.12)" id="img-16f63780-120">
              <path d="M-0.44,-0 L 0.44 -0 0.44 0 -0.44 0 z" class="primitive"/>
            </g>
            <g transform="translate(139.47,131.12)" id="img-16f63780-121">
              <path d="M-0.44,-0 L 0.44 -0 0.44 0 -0.44 0 z" class="primitive"/>
            </g>
            <g transform="translate(140.29,131.12)" id="img-16f63780-122">
              <path d="M-0.44,-0 L 0.44 -0 0.44 0 -0.44 0 z" class="primitive"/>
            </g>
            <g transform="translate(141.12,130.85)" id="img-16f63780-123">
              <path d="M-0.44,-0.26 L 0.44 -0.26 0.44 0.26 -0.44 0.26 z" class="primitive"/>
            </g>
            <g transform="translate(141.95,131.12)" id="img-16f63780-124">
              <path d="M-0.44,-0 L 0.44 -0 0.44 0 -0.44 0 z" class="primitive"/>
            </g>
            <g transform="translate(142.78,131.12)" id="img-16f63780-125">
              <path d="M-0.44,-0 L 0.44 -0 0.44 0 -0.44 0 z" class="primitive"/>
            </g>
            <g transform="translate(143.61,131.12)" id="img-16f63780-126">
              <path d="M-0.44,-0 L 0.44 -0 0.44 0 -0.44 0 z" class="primitive"/>
            </g>
            <g transform="translate(144.43,131.12)" id="img-16f63780-127">
              <path d="M-0.44,-0 L 0.44 -0 0.44 0 -0.44 0 z" class="primitive"/>
            </g>
            <g transform="translate(145.26,131.12)" id="img-16f63780-128">
              <path d="M-0.44,-0 L 0.44 -0 0.44 0 -0.44 0 z" class="primitive"/>
            </g>
            <g transform="translate(146.09,131.12)" id="img-16f63780-129">
              <path d="M-0.44,-0 L 0.44 -0 0.44 0 -0.44 0 z" class="primitive"/>
            </g>
            <g transform="translate(146.92,130.85)" id="img-16f63780-130">
              <path d="M-0.44,-0.26 L 0.44 -0.26 0.44 0.26 -0.44 0.26 z" class="primitive"/>
            </g>
            <g transform="translate(147.75,130.59)" id="img-16f63780-131">
              <path d="M-0.44,-0.53 L 0.44 -0.53 0.44 0.53 -0.44 0.53 z" class="primitive"/>
            </g>
            <g transform="translate(148.57,131.12)" id="img-16f63780-132">
              <path d="M-0.44,-0 L 0.44 -0 0.44 0 -0.44 0 z" class="primitive"/>
            </g>
            <g transform="translate(149.4,131.12)" id="img-16f63780-133">
              <path d="M-0.44,-0 L 0.44 -0 0.44 0 -0.44 0 z" class="primitive"/>
            </g>
            <g transform="translate(150.23,131.12)" id="img-16f63780-134">
              <path d="M-0.44,-0 L 0.44 -0 0.44 0 -0.44 0 z" class="primitive"/>
            </g>
            <g transform="translate(151.06,131.12)" id="img-16f63780-135">
              <path d="M-0.44,-0 L 0.44 -0 0.44 0 -0.44 0 z" class="primitive"/>
            </g>
            <g transform="translate(151.89,131.12)" id="img-16f63780-136">
              <path d="M-0.44,-0 L 0.44 -0 0.44 0 -0.44 0 z" class="primitive"/>
            </g>
            <g transform="translate(152.71,131.12)" id="img-16f63780-137">
              <path d="M-0.44,-0 L 0.44 -0 0.44 0 -0.44 0 z" class="primitive"/>
            </g>
            <g transform="translate(153.54,131.12)" id="img-16f63780-138">
              <path d="M-0.44,-0 L 0.44 -0 0.44 0 -0.44 0 z" class="primitive"/>
            </g>
            <g transform="translate(154.37,131.12)" id="img-16f63780-139">
              <path d="M-0.44,-0 L 0.44 -0 0.44 0 -0.44 0 z" class="primitive"/>
            </g>
            <g transform="translate(155.2,131.12)" id="img-16f63780-140">
              <path d="M-0.44,-0 L 0.44 -0 0.44 0 -0.44 0 z" class="primitive"/>
            </g>
            <g transform="translate(156.03,130.85)" id="img-16f63780-141">
              <path d="M-0.44,-0.26 L 0.44 -0.26 0.44 0.26 -0.44 0.26 z" class="primitive"/>
            </g>
            <g transform="translate(156.85,131.12)" id="img-16f63780-142">
              <path d="M-0.44,-0 L 0.44 -0 0.44 0 -0.44 0 z" class="primitive"/>
            </g>
            <g transform="translate(157.68,131.12)" id="img-16f63780-143">
              <path d="M-0.44,-0 L 0.44 -0 0.44 0 -0.44 0 z" class="primitive"/>
            </g>
            <g transform="translate(158.51,131.12)" id="img-16f63780-144">
              <path d="M-0.44,-0 L 0.44 -0 0.44 0 -0.44 0 z" class="primitive"/>
            </g>
            <g transform="translate(159.34,131.12)" id="img-16f63780-145">
              <path d="M-0.44,-0 L 0.44 -0 0.44 0 -0.44 0 z" class="primitive"/>
            </g>
            <g transform="translate(160.17,131.12)" id="img-16f63780-146">
              <path d="M-0.44,-0 L 0.44 -0 0.44 0 -0.44 0 z" class="primitive"/>
            </g>
            <g transform="translate(160.99,131.12)" id="img-16f63780-147">
              <path d="M-0.44,-0 L 0.44 -0 0.44 0 -0.44 0 z" class="primitive"/>
            </g>
            <g transform="translate(161.82,131.12)" id="img-16f63780-148">
              <path d="M-0.44,-0 L 0.44 -0 0.44 0 -0.44 0 z" class="primitive"/>
            </g>
            <g transform="translate(162.65,131.12)" id="img-16f63780-149">
              <path d="M-0.44,-0 L 0.44 -0 0.44 0 -0.44 0 z" class="primitive"/>
            </g>
            <g transform="translate(163.48,130.85)" id="img-16f63780-150">
              <path d="M-0.44,-0.26 L 0.44 -0.26 0.44 0.26 -0.44 0.26 z" class="primitive"/>
            </g>
            <g transform="translate(164.31,130.85)" id="img-16f63780-151">
              <path d="M-0.44,-0.26 L 0.44 -0.26 0.44 0.26 -0.44 0.26 z" class="primitive"/>
            </g>
            <g transform="translate(165.14,131.12)" id="img-16f63780-152">
              <path d="M-0.44,-0 L 0.44 -0 0.44 0 -0.44 0 z" class="primitive"/>
            </g>
            <g transform="translate(165.96,131.12)" id="img-16f63780-153">
              <path d="M-0.44,-0 L 0.44 -0 0.44 0 -0.44 0 z" class="primitive"/>
            </g>
            <g transform="translate(166.79,131.12)" id="img-16f63780-154">
              <path d="M-0.44,-0 L 0.44 -0 0.44 0 -0.44 0 z" class="primitive"/>
            </g>
            <g transform="translate(167.62,131.12)" id="img-16f63780-155">
              <path d="M-0.44,-0 L 0.44 -0 0.44 0 -0.44 0 z" class="primitive"/>
            </g>
            <g transform="translate(168.45,131.12)" id="img-16f63780-156">
              <path d="M-0.44,-0 L 0.44 -0 0.44 0 -0.44 0 z" class="primitive"/>
            </g>
            <g transform="translate(169.28,131.12)" id="img-16f63780-157">
              <path d="M-0.44,-0 L 0.44 -0 0.44 0 -0.44 0 z" class="primitive"/>
            </g>
            <g transform="translate(170.1,130.85)" id="img-16f63780-158">
              <path d="M-0.44,-0.26 L 0.44 -0.26 0.44 0.26 -0.44 0.26 z" class="primitive"/>
            </g>
          </g>
        </g>
      </g>
    </g>
  </g>
  <g class="guide ylabels" font-size="2.82" font-family="'PT Sans Caption','Helvetica Neue','Helvetica',sans-serif" fill="#6C606B" id="img-16f63780-159">
    <g transform="translate(101.62,131.11)" id="img-16f63780-160">
      <g class="primitive">
        <text text-anchor="end" dy="0.35em">0</text>
      </g>
    </g>
    <g transform="translate(101.62,120.54)" id="img-16f63780-161">
      <g class="primitive">
        <text text-anchor="end" dy="0.35em">20</text>
      </g>
    </g>
    <g transform="translate(101.62,109.96)" id="img-16f63780-162">
      <g class="primitive">
        <text text-anchor="end" dy="0.35em">40</text>
      </g>
    </g>
    <g transform="translate(101.62,99.39)" id="img-16f63780-163">
      <g class="primitive">
        <text text-anchor="end" dy="0.35em">60</text>
      </g>
    </g>
    <g transform="translate(101.62,88.81)" id="img-16f63780-164">
      <g class="primitive">
        <text text-anchor="end" dy="0.35em">80</text>
      </g>
    </g>
  </g>
  <g font-size="3.88" font-family="'PT Sans','Helvetica Neue','Helvetica',sans-serif" fill="#564A55" stroke="#000000" stroke-opacity="0.000" id="img-16f63780-165">
    <g transform="translate(93.47,107.96)" id="img-16f63780-166">
      <g class="primitive">
        <text text-anchor="middle" dy="0.35em" transform="rotate(-90,0, 2)">Count</text>
      </g>
    </g>
  </g>
  <g font-size="3.88" font-family="'PT Sans','Helvetica Neue','Helvetica',sans-serif" fill="#564A55" stroke="#000000" stroke-opacity="0.000" id="img-16f63780-167">
    <g transform="translate(133.48,81.2)" id="img-16f63780-168">
      <g class="primitive">
        <text text-anchor="middle" dy="0.6em">CitZAF</text>
      </g>
    </g>
  </g>
</g>
<g class="plotroot xscalable yscalable" id="img-16f63780-169">
  <g font-size="3.88" font-family="'PT Sans','Helvetica Neue','Helvetica',sans-serif" fill="#564A55" stroke="#000000" stroke-opacity="0.000" id="img-16f63780-170">
    <g transform="translate(49.65,140.79)" id="img-16f63780-171">
      <g class="primitive">
        <text text-anchor="middle" dy="0.6em">kMeas/kCalc</text>
      </g>
    </g>
  </g>
  <g class="guide xlabels" font-size="2.82" font-family="'PT Sans Caption','Helvetica Neue','Helvetica',sans-serif" fill="#6C606B" id="img-16f63780-172">
    <g transform="translate(21.63,134.11)" id="img-16f63780-173">
      <g class="primitive">
        <text text-anchor="middle" dy="0.6em">0.0</text>
      </g>
    </g>
    <g transform="translate(35.64,134.11)" id="img-16f63780-174">
      <g class="primitive">
        <text text-anchor="middle" dy="0.6em">0.5</text>
      </g>
    </g>
    <g transform="translate(49.65,134.11)" id="img-16f63780-175">
      <g class="primitive">
        <text text-anchor="middle" dy="0.6em">1.0</text>
      </g>
    </g>
    <g transform="translate(63.66,134.11)" id="img-16f63780-176">
      <g class="primitive">
        <text text-anchor="middle" dy="0.6em">1.5</text>
      </g>
    </g>
    <g transform="translate(77.67,134.11)" id="img-16f63780-177">
      <g class="primitive">
        <text text-anchor="middle" dy="0.6em">2.0</text>
      </g>
    </g>
  </g>
  <g clip-path="url(#img-16f63780-178)">
    <g id="img-16f63780-179">
      <g pointer-events="visible" stroke-width="0.3" fill="#000000" fill-opacity="0.000" stroke="#000000" stroke-opacity="0.000" class="guide background" id="img-16f63780-180">
        <g transform="translate(49.65,109.96)" id="img-16f63780-181">
          <path d="M-30.02,-23.15 L 30.02 -23.15 30.02 23.15 -30.02 23.15 z" class="primitive"/>
        </g>
      </g>
      <g class="guide ygridlines xfixed" stroke-dasharray="0.5,0.5" stroke-width="0.2" stroke="#D0D0E0" id="img-16f63780-182">
        <g transform="translate(49.65,131.11)" id="img-16f63780-183">
          <path fill="none" d="M-30.02,0 L 30.02 0" class="primitive"/>
        </g>
        <g transform="translate(49.65,117.01)" id="img-16f63780-184">
          <path fill="none" d="M-30.02,0 L 30.02 0" class="primitive"/>
        </g>
        <g transform="translate(49.65,102.91)" id="img-16f63780-185">
          <path fill="none" d="M-30.02,0 L 30.02 0" class="primitive"/>
        </g>
        <g transform="translate(49.65,88.81)" id="img-16f63780-186">
          <path fill="none" d="M-30.02,0 L 30.02 0" class="primitive"/>
        </g>
      </g>
      <g class="guide xgridlines yfixed" stroke-dasharray="0.5,0.5" stroke-width="0.2" stroke="#D0D0E0" id="img-16f63780-187">
        <g transform="translate(21.63,109.96)" id="img-16f63780-188">
          <path fill="none" d="M0,-23.15 L 0 23.15" class="primitive"/>
        </g>
        <g transform="translate(35.64,109.96)" id="img-16f63780-189">
          <path fill="none" d="M0,-23.15 L 0 23.15" class="primitive"/>
        </g>
        <g transform="translate(49.65,109.96)" id="img-16f63780-190">
          <path fill="none" d="M0,-23.15 L 0 23.15" class="primitive"/>
        </g>
        <g transform="translate(63.66,109.96)" id="img-16f63780-191">
          <path fill="none" d="M0,-23.15 L 0 23.15" class="primitive"/>
        </g>
        <g transform="translate(77.67,109.96)" id="img-16f63780-192">
          <path fill="none" d="M0,-23.15 L 0 23.15" class="primitive"/>
        </g>
      </g>
      <g class="plotpanel" id="img-16f63780-193">
        <metadata>
          <boundingbox value="19.631666666666668mm 86.81166666666665mm 60.03499999999999mm 46.30333333333333mm"/>
          <unitbox value="-0.07138395645578657 157.09163974470096 2.142767912911573 -164.18327948940194"/>
        </metadata>
        <g shape-rendering="crispEdges" stroke-width="0.3" id="img-16f63780-194">
          <g class="geometry" fill-opacity="1" stroke="#000000" stroke-opacity="0.000" fill="#00BFFF" id="img-16f63780-195">
            <g transform="translate(48.02,129.28)" id="img-16f63780-196">
              <path d="M-0.41,-1.83 L 0.41 -1.83 0.41 1.83 -0.41 1.83 z" class="primitive"/>
            </g>
            <g transform="translate(48.8,124.91)" id="img-16f63780-197">
              <path d="M-0.41,-6.2 L 0.41 -6.2 0.41 6.2 -0.41 6.2 z" class="primitive"/>
            </g>
            <g transform="translate(49.58,110.39)" id="img-16f63780-198">
              <path d="M-0.41,-20.73 L 0.41 -20.73 0.41 20.73 -0.41 20.73 z" class="primitive"/>
            </g>
            <g transform="translate(50.36,122.23)" id="img-16f63780-199">
              <path d="M-0.41,-8.88 L 0.41 -8.88 0.41 8.88 -0.41 8.88 z" class="primitive"/>
            </g>
            <g transform="translate(51.13,129.7)" id="img-16f63780-200">
              <path d="M-0.41,-1.41 L 0.41 -1.41 0.41 1.41 -0.41 1.41 z" class="primitive"/>
            </g>
            <g transform="translate(51.91,129.42)" id="img-16f63780-201">
              <path d="M-0.41,-1.69 L 0.41 -1.69 0.41 1.69 -0.41 1.69 z" class="primitive"/>
            </g>
            <g transform="translate(52.69,130.41)" id="img-16f63780-202">
              <path d="M-0.41,-0.71 L 0.41 -0.71 0.41 0.71 -0.41 0.71 z" class="primitive"/>
            </g>
            <g transform="translate(53.47,130.69)" id="img-16f63780-203">
              <path d="M-0.41,-0.42 L 0.41 -0.42 0.41 0.42 -0.41 0.42 z" class="primitive"/>
            </g>
            <g transform="translate(54.25,130.69)" id="img-16f63780-204">
              <path d="M-0.41,-0.42 L 0.41 -0.42 0.41 0.42 -0.41 0.42 z" class="primitive"/>
            </g>
            <g transform="translate(55.02,130.97)" id="img-16f63780-205">
              <path d="M-0.41,-0.14 L 0.41 -0.14 0.41 0.14 -0.41 0.14 z" class="primitive"/>
            </g>
            <g transform="translate(55.8,131.12)" id="img-16f63780-206">
              <path d="M-0.41,-0 L 0.41 -0 0.41 0 -0.41 0 z" class="primitive"/>
            </g>
            <g transform="translate(56.58,131.12)" id="img-16f63780-207">
              <path d="M-0.41,-0 L 0.41 -0 0.41 0 -0.41 0 z" class="primitive"/>
            </g>
            <g transform="translate(57.36,131.12)" id="img-16f63780-208">
              <path d="M-0.41,-0 L 0.41 -0 0.41 0 -0.41 0 z" class="primitive"/>
            </g>
            <g transform="translate(58.14,130.97)" id="img-16f63780-209">
              <path d="M-0.41,-0.14 L 0.41 -0.14 0.41 0.14 -0.41 0.14 z" class="primitive"/>
            </g>
            <g transform="translate(58.91,130.97)" id="img-16f63780-210">
              <path d="M-0.41,-0.14 L 0.41 -0.14 0.41 0.14 -0.41 0.14 z" class="primitive"/>
            </g>
            <g transform="translate(59.69,131.12)" id="img-16f63780-211">
              <path d="M-0.41,-0 L 0.41 -0 0.41 0 -0.41 0 z" class="primitive"/>
            </g>
            <g transform="translate(60.47,131.12)" id="img-16f63780-212">
              <path d="M-0.41,-0 L 0.41 -0 0.41 0 -0.41 0 z" class="primitive"/>
            </g>
            <g transform="translate(61.25,131.12)" id="img-16f63780-213">
              <path d="M-0.41,-0 L 0.41 -0 0.41 0 -0.41 0 z" class="primitive"/>
            </g>
            <g transform="translate(62.03,131.12)" id="img-16f63780-214">
              <path d="M-0.41,-0 L 0.41 -0 0.41 0 -0.41 0 z" class="primitive"/>
            </g>
            <g transform="translate(62.8,131.12)" id="img-16f63780-215">
              <path d="M-0.41,-0 L 0.41 -0 0.41 0 -0.41 0 z" class="primitive"/>
            </g>
            <g transform="translate(63.58,131.12)" id="img-16f63780-216">
              <path d="M-0.41,-0 L 0.41 -0 0.41 0 -0.41 0 z" class="primitive"/>
            </g>
            <g transform="translate(64.36,131.12)" id="img-16f63780-217">
              <path d="M-0.41,-0 L 0.41 -0 0.41 0 -0.41 0 z" class="primitive"/>
            </g>
            <g transform="translate(65.14,130.97)" id="img-16f63780-218">
              <path d="M-0.41,-0.14 L 0.41 -0.14 0.41 0.14 -0.41 0.14 z" class="primitive"/>
            </g>
            <g transform="translate(65.92,131.12)" id="img-16f63780-219">
              <path d="M-0.41,-0 L 0.41 -0 0.41 0 -0.41 0 z" class="primitive"/>
            </g>
            <g transform="translate(66.69,131.12)" id="img-16f63780-220">
              <path d="M-0.41,-0 L 0.41 -0 0.41 0 -0.41 0 z" class="primitive"/>
            </g>
            <g transform="translate(67.47,131.12)" id="img-16f63780-221">
              <path d="M-0.41,-0 L 0.41 -0 0.41 0 -0.41 0 z" class="primitive"/>
            </g>
            <g transform="translate(68.25,131.12)" id="img-16f63780-222">
              <path d="M-0.41,-0 L 0.41 -0 0.41 0 -0.41 0 z" class="primitive"/>
            </g>
            <g transform="translate(69.03,131.12)" id="img-16f63780-223">
              <path d="M-0.41,-0 L 0.41 -0 0.41 0 -0.41 0 z" class="primitive"/>
            </g>
            <g transform="translate(69.81,131.12)" id="img-16f63780-224">
              <path d="M-0.41,-0 L 0.41 -0 0.41 0 -0.41 0 z" class="primitive"/>
            </g>
            <g transform="translate(70.58,131.12)" id="img-16f63780-225">
              <path d="M-0.41,-0 L 0.41 -0 0.41 0 -0.41 0 z" class="primitive"/>
            </g>
            <g transform="translate(71.36,131.12)" id="img-16f63780-226">
              <path d="M-0.41,-0 L 0.41 -0 0.41 0 -0.41 0 z" class="primitive"/>
            </g>
            <g transform="translate(72.14,130.97)" id="img-16f63780-227">
              <path d="M-0.41,-0.14 L 0.41 -0.14 0.41 0.14 -0.41 0.14 z" class="primitive"/>
            </g>
            <g transform="translate(72.92,131.12)" id="img-16f63780-228">
              <path d="M-0.41,-0 L 0.41 -0 0.41 0 -0.41 0 z" class="primitive"/>
            </g>
            <g transform="translate(73.7,131.12)" id="img-16f63780-229">
              <path d="M-0.41,-0 L 0.41 -0 0.41 0 -0.41 0 z" class="primitive"/>
            </g>
            <g transform="translate(74.47,131.12)" id="img-16f63780-230">
              <path d="M-0.41,-0 L 0.41 -0 0.41 0 -0.41 0 z" class="primitive"/>
            </g>
            <g transform="translate(75.25,131.12)" id="img-16f63780-231">
              <path d="M-0.41,-0 L 0.41 -0 0.41 0 -0.41 0 z" class="primitive"/>
            </g>
            <g transform="translate(76.03,131.12)" id="img-16f63780-232">
              <path d="M-0.41,-0 L 0.41 -0 0.41 0 -0.41 0 z" class="primitive"/>
            </g>
            <g transform="translate(76.81,131.12)" id="img-16f63780-233">
              <path d="M-0.41,-0 L 0.41 -0 0.41 0 -0.41 0 z" class="primitive"/>
            </g>
            <g transform="translate(77.59,131.12)" id="img-16f63780-234">
              <path d="M-0.41,-0 L 0.41 -0 0.41 0 -0.41 0 z" class="primitive"/>
            </g>
            <g transform="translate(78.36,131.12)" id="img-16f63780-235">
              <path d="M-0.41,-0 L 0.41 -0 0.41 0 -0.41 0 z" class="primitive"/>
            </g>
            <g transform="translate(79.14,131.12)" id="img-16f63780-236">
              <path d="M-0.41,-0 L 0.41 -0 0.41 0 -0.41 0 z" class="primitive"/>
            </g>
            <g transform="translate(79.92,131.12)" id="img-16f63780-237">
              <path d="M-0.41,-0 L 0.41 -0 0.41 0 -0.41 0 z" class="primitive"/>
            </g>
            <g transform="translate(80.7,130.97)" id="img-16f63780-238">
              <path d="M-0.41,-0.14 L 0.41 -0.14 0.41 0.14 -0.41 0.14 z" class="primitive"/>
            </g>
            <g transform="translate(81.47,131.12)" id="img-16f63780-239">
              <path d="M-0.41,-0 L 0.41 -0 0.41 0 -0.41 0 z" class="primitive"/>
            </g>
            <g transform="translate(82.25,131.12)" id="img-16f63780-240">
              <path d="M-0.41,-0 L 0.41 -0 0.41 0 -0.41 0 z" class="primitive"/>
            </g>
            <g transform="translate(83.03,131.12)" id="img-16f63780-241">
              <path d="M-0.41,-0 L 0.41 -0 0.41 0 -0.41 0 z" class="primitive"/>
            </g>
            <g transform="translate(83.81,131.12)" id="img-16f63780-242">
              <path d="M-0.41,-0 L 0.41 -0 0.41 0 -0.41 0 z" class="primitive"/>
            </g>
            <g transform="translate(84.59,131.12)" id="img-16f63780-243">
              <path d="M-0.41,-0 L 0.41 -0 0.41 0 -0.41 0 z" class="primitive"/>
            </g>
            <g transform="translate(85.36,130.97)" id="img-16f63780-244">
              <path d="M-0.41,-0.14 L 0.41 -0.14 0.41 0.14 -0.41 0.14 z" class="primitive"/>
            </g>
            <g transform="translate(86.14,130.97)" id="img-16f63780-245">
              <path d="M-0.41,-0.14 L 0.41 -0.14 0.41 0.14 -0.41 0.14 z" class="primitive"/>
            </g>
          </g>
        </g>
      </g>
    </g>
  </g>
  <g class="guide ylabels" font-size="2.82" font-family="'PT Sans Caption','Helvetica Neue','Helvetica',sans-serif" fill="#6C606B" id="img-16f63780-246">
    <g transform="translate(18.63,131.11)" id="img-16f63780-247">
      <g class="primitive">
        <text text-anchor="end" dy="0.35em">0</text>
      </g>
    </g>
    <g transform="translate(18.63,117.01)" id="img-16f63780-248">
      <g class="primitive">
        <text text-anchor="end" dy="0.35em">50</text>
      </g>
    </g>
    <g transform="translate(18.63,102.91)" id="img-16f63780-249">
      <g class="primitive">
        <text text-anchor="end" dy="0.35em">100</text>
      </g>
    </g>
    <g transform="translate(18.63,88.81)" id="img-16f63780-250">
      <g class="primitive">
        <text text-anchor="end" dy="0.35em">150</text>
      </g>
    </g>
  </g>
  <g font-size="3.88" font-family="'PT Sans','Helvetica Neue','Helvetica',sans-serif" fill="#564A55" stroke="#000000" stroke-opacity="0.000" id="img-16f63780-251">
    <g transform="translate(8.81,107.96)" id="img-16f63780-252">
      <g class="primitive">
        <text text-anchor="middle" dy="0.35em" transform="rotate(-90,0, 2)">Count</text>
      </g>
    </g>
  </g>
  <g font-size="3.88" font-family="'PT Sans','Helvetica Neue','Helvetica',sans-serif" fill="#564A55" stroke="#000000" stroke-opacity="0.000" id="img-16f63780-253">
    <g transform="translate(49.65,81.2)" id="img-16f63780-254">
      <g class="primitive">
        <text text-anchor="middle" dy="0.6em">XPP</text>
      </g>
    </g>
  </g>
</g>
<g font-size="7.06" font-family="Arial" id="img-16f63780-255">
  <g transform="translate(127,38.1)" id="img-16f63780-256">
    <g class="primitive">
      <text text-anchor="middle" dy="0.35em">Pouchou’s compilation</text>
    </g>
  </g>
</g>
<defs>
  <clipPath id="img-16f63780-4">
    <path d="M188.96,86.81 L 249 86.81 249 133.11 188.96 133.11" />
  </clipPath>
  <clipPath id="img-16f63780-90">
    <path d="M102.62,86.81 L 164.33 86.81 164.33 133.11 102.62 133.11" />
  </clipPath>
  <clipPath id="img-16f63780-178">
    <path d="M19.63,86.81 L 79.67 86.81 79.67 133.11 19.63 133.11" />
  </clipPath>
</defs>
</svg>
