<?xml version="1.0" encoding="UTF-8"?>
<svg xmlns="http://www.w3.org/2000/svg"
     xmlns:xlink="http://www.w3.org/1999/xlink"
     xmlns:gadfly="http://www.gadflyjl.org/ns"
     version="1.2"
     width="203.2mm" height="101.6mm" viewBox="0 0 203.2 101.6"
     stroke="none"
     fill="#000000"
     stroke-width="0.3"
     font-size="3.88"
>
<defs>
  <marker id="arrow" markerWidth="15" markerHeight="7" refX="5" refY="3.5" orient="auto" markerUnits="strokeWidth">
    <path d="M0,0 L15,3.5 L0,7 z" stroke="context-stroke" fill="context-stroke"/>
  </marker>
</defs>
<g class="plotroot xscalable yscalable" id="img-ad29c238-1">
  <g font-size="3.88" font-family="'PT Sans','Helvetica Neue','Helvetica',sans-serif" fill="#564A55" stroke="#000000" stroke-opacity="0.000" id="img-ad29c238-2">
    <g transform="translate(109.75,89.99)">
      <g class="primitive">
        <text text-anchor="middle" dy="0.6em">kMeas/kCalc</text>
      </g>
    </g>
  </g>
  <g class="guide xlabels" font-size="2.82" font-family="'PT Sans Caption','Helvetica Neue','Helvetica',sans-serif" fill="#6C606B" id="img-ad29c238-3">
    <g transform="translate(23.31,83.32)">
      <g class="primitive">
        <text text-anchor="middle" dy="0.6em">0.0</text>
      </g>
    </g>
    <g transform="translate(66.53,83.32)">
      <g class="primitive">
        <text text-anchor="middle" dy="0.6em">0.5</text>
      </g>
    </g>
    <g transform="translate(109.75,83.32)">
      <g class="primitive">
        <text text-anchor="middle" dy="0.6em">1.0</text>
      </g>
    </g>
    <g transform="translate(152.98,83.32)">
      <g class="primitive">
        <text text-anchor="middle" dy="0.6em">1.5</text>
      </g>
    </g>
    <g transform="translate(196.2,83.32)">
      <g class="primitive">
        <text text-anchor="middle" dy="0.6em">2.0</text>
      </g>
    </g>
  </g>
  <g clip-path="url(#img-ad29c238-4)">
    <g id="img-ad29c238-5">
      <g pointer-events="visible" stroke-width="0.3" fill="#000000" fill-opacity="0.000" stroke="#000000" stroke-opacity="0.000" class="guide background" id="img-ad29c238-6">
        <g transform="translate(109.75,46.46)" id="img-ad29c238-7">
          <path d="M-88.45,-35.85 L 88.45 -35.85 88.45 35.85 -88.45 35.85 z" class="primitive"/>
        </g>
      </g>
      <g class="guide ygridlines xfixed" stroke-dasharray="0.5,0.5" stroke-width="0.2" stroke="#D0D0E0" id="img-ad29c238-8">
        <g transform="translate(109.75,80.32)" id="img-ad29c238-9">
          <path fill="none" d="M-88.45,0 L 88.45 0" class="primitive"/>
        </g>
        <g transform="translate(109.75,46.46)" id="img-ad29c238-10">
          <path fill="none" d="M-88.45,0 L 88.45 0" class="primitive"/>
        </g>
        <g transform="translate(109.75,12.61)" id="img-ad29c238-11">
          <path fill="none" d="M-88.45,0 L 88.45 0" class="primitive"/>
        </g>
      </g>
      <g class="guide xgridlines yfixed" stroke-dasharray="0.5,0.5" stroke-width="0.2" stroke="#D0D0E0" id="img-ad29c238-12">
        <g transform="translate(23.31,46.46)" id="img-ad29c238-13">
          <path fill="none" d="M0,-35.85 L 0 35.85" class="primitive"/>
        </g>
        <g transform="translate(66.53,46.46)" id="img-ad29c238-14">
          <path fill="none" d="M0,-35.85 L 0 35.85" class="primitive"/>
        </g>
        <g transform="translate(109.75,46.46)" id="img-ad29c238-15">
          <path fill="none" d="M0,-35.85 L 0 35.85" class="primitive"/>
        </g>
        <g transform="translate(152.98,46.46)" id="img-ad29c238-16">
          <path fill="none" d="M0,-35.85 L 0 35.85" class="primitive"/>
        </g>
        <g transform="translate(196.2,46.46)" id="img-ad29c238-17">
          <path fill="none" d="M0,-35.85 L 0 35.85" class="primitive"/>
        </g>
      </g>
      <g class="plotpanel" id="img-ad29c238-18">
        <metadata>
          <boundingbox value="21.305000000000007mm 10.611666666666665mm 176.89499999999998mm 71.70333333333333mm"/>
          <unitbox value="-0.023135429017611845 1029.5406430013293 2.0462708580352236 -1059.0812860026585"/>
        </metadata>
        <g shape-rendering="crispEdges" stroke-width="0.3" id="img-ad29c238-19">
          <g class="geometry" fill-opacity="1" stroke="#000000" stroke-opacity="0.000" fill="#00BFFF" id="img-ad29c238-20">
            <g transform="translate(60.92,80.25)" id="img-ad29c238-21">
              <path d="M-1.67,-0.07 L 1.67 -0.07 1.67 0.07 -1.67 0.07 z" class="primitive"/>
            </g>
            <g transform="translate(64.21,80.28)" id="img-ad29c238-22">
              <path d="M-1.67,-0.03 L 1.67 -0.03 1.67 0.03 -1.67 0.03 z" class="primitive"/>
            </g>
            <g transform="translate(67.49,80.32)" id="img-ad29c238-23">
              <path d="M-1.67,-0 L 1.67 -0 1.67 0 -1.67 0 z" class="primitive"/>
            </g>
            <g transform="translate(70.78,80.28)" id="img-ad29c238-24">
              <path d="M-1.67,-0.03 L 1.67 -0.03 1.67 0.03 -1.67 0.03 z" class="primitive"/>
            </g>
            <g transform="translate(74.06,80.32)" id="img-ad29c238-25">
              <path d="M-1.67,-0 L 1.67 -0 1.67 0 -1.67 0 z" class="primitive"/>
            </g>
            <g transform="translate(77.35,80.28)" id="img-ad29c238-26">
              <path d="M-1.67,-0.03 L 1.67 -0.03 1.67 0.03 -1.67 0.03 z" class="primitive"/>
            </g>
            <g transform="translate(80.63,80.28)" id="img-ad29c238-27">
              <path d="M-1.67,-0.03 L 1.67 -0.03 1.67 0.03 -1.67 0.03 z" class="primitive"/>
            </g>
            <g transform="translate(83.92,80.32)" id="img-ad29c238-28">
              <path d="M-1.67,-0 L 1.67 -0 1.67 0 -1.67 0 z" class="primitive"/>
            </g>
            <g transform="translate(87.21,80.28)" id="img-ad29c238-29">
              <path d="M-1.67,-0.03 L 1.67 -0.03 1.67 0.03 -1.67 0.03 z" class="primitive"/>
            </g>
            <g transform="translate(90.49,80.32)" id="img-ad29c238-30">
              <path d="M-1.67,-0 L 1.67 -0 1.67 0 -1.67 0 z" class="primitive"/>
            </g>
            <g transform="translate(93.78,80.15)" id="img-ad29c238-31">
              <path d="M-1.67,-0.17 L 1.67 -0.17 1.67 0.17 -1.67 0.17 z" class="primitive"/>
            </g>
            <g transform="translate(97.06,80.04)" id="img-ad29c238-32">
              <path d="M-1.67,-0.27 L 1.67 -0.27 1.67 0.27 -1.67 0.27 z" class="primitive"/>
            </g>
            <g transform="translate(100.35,79.81)" id="img-ad29c238-33">
              <path d="M-1.67,-0.51 L 1.67 -0.51 1.67 0.51 -1.67 0.51 z" class="primitive"/>
            </g>
            <g transform="translate(103.63,78.28)" id="img-ad29c238-34">
              <path d="M-1.67,-2.03 L 1.67 -2.03 1.67 2.03 -1.67 2.03 z" class="primitive"/>
            </g>
            <g transform="translate(106.92,69.52)" id="img-ad29c238-35">
              <path d="M-1.67,-10.8 L 1.67 -10.8 1.67 10.8 -1.67 10.8 z" class="primitive"/>
            </g>
            <g transform="translate(110.2,48.43)" id="img-ad29c238-36">
              <path d="M-1.67,-31.89 L 1.67 -31.89 1.67 31.89 -1.67 31.89 z" class="primitive"/>
            </g>
            <g transform="translate(113.49,72.22)" id="img-ad29c238-37">
              <path d="M-1.67,-8.09 L 1.67 -8.09 1.67 8.09 -1.67 8.09 z" class="primitive"/>
            </g>
            <g transform="translate(116.77,77.44)" id="img-ad29c238-38">
              <path d="M-1.67,-2.88 L 1.67 -2.88 1.67 2.88 -1.67 2.88 z" class="primitive"/>
            </g>
            <g transform="translate(120.06,78.96)" id="img-ad29c238-39">
              <path d="M-1.67,-1.35 L 1.67 -1.35 1.67 1.35 -1.67 1.35 z" class="primitive"/>
            </g>
            <g transform="translate(123.35,79.43)" id="img-ad29c238-40">
              <path d="M-1.67,-0.88 L 1.67 -0.88 1.67 0.88 -1.67 0.88 z" class="primitive"/>
            </g>
            <g transform="translate(126.63,80.01)" id="img-ad29c238-41">
              <path d="M-1.67,-0.3 L 1.67 -0.3 1.67 0.3 -1.67 0.3 z" class="primitive"/>
            </g>
            <g transform="translate(129.92,80.15)" id="img-ad29c238-42">
              <path d="M-1.67,-0.17 L 1.67 -0.17 1.67 0.17 -1.67 0.17 z" class="primitive"/>
            </g>
            <g transform="translate(133.2,80.15)" id="img-ad29c238-43">
              <path d="M-1.67,-0.17 L 1.67 -0.17 1.67 0.17 -1.67 0.17 z" class="primitive"/>
            </g>
            <g transform="translate(136.49,79.91)" id="img-ad29c238-44">
              <path d="M-1.67,-0.41 L 1.67 -0.41 1.67 0.41 -1.67 0.41 z" class="primitive"/>
            </g>
            <g transform="translate(139.77,80.25)" id="img-ad29c238-45">
              <path d="M-1.67,-0.07 L 1.67 -0.07 1.67 0.07 -1.67 0.07 z" class="primitive"/>
            </g>
            <g transform="translate(143.06,80.21)" id="img-ad29c238-46">
              <path d="M-1.67,-0.1 L 1.67 -0.1 1.67 0.1 -1.67 0.1 z" class="primitive"/>
            </g>
            <g transform="translate(146.34,80.21)" id="img-ad29c238-47">
              <path d="M-1.67,-0.1 L 1.67 -0.1 1.67 0.1 -1.67 0.1 z" class="primitive"/>
            </g>
            <g transform="translate(149.63,80.18)" id="img-ad29c238-48">
              <path d="M-1.67,-0.14 L 1.67 -0.14 1.67 0.14 -1.67 0.14 z" class="primitive"/>
            </g>
            <g transform="translate(152.91,80.28)" id="img-ad29c238-49">
              <path d="M-1.67,-0.03 L 1.67 -0.03 1.67 0.03 -1.67 0.03 z" class="primitive"/>
            </g>
            <g transform="translate(156.2,80.04)" id="img-ad29c238-50">
              <path d="M-1.67,-0.27 L 1.67 -0.27 1.67 0.27 -1.67 0.27 z" class="primitive"/>
            </g>
            <g transform="translate(159.49,80.18)" id="img-ad29c238-51">
              <path d="M-1.67,-0.14 L 1.67 -0.14 1.67 0.14 -1.67 0.14 z" class="primitive"/>
            </g>
            <g transform="translate(162.77,80.18)" id="img-ad29c238-52">
              <path d="M-1.67,-0.14 L 1.67 -0.14 1.67 0.14 -1.67 0.14 z" class="primitive"/>
            </g>
            <g transform="translate(166.06,80.11)" id="img-ad29c238-53">
              <path d="M-1.67,-0.2 L 1.67 -0.2 1.67 0.2 -1.67 0.2 z" class="primitive"/>
            </g>
            <g transform="translate(169.34,80.28)" id="img-ad29c238-54">
              <path d="M-1.67,-0.03 L 1.67 -0.03 1.67 0.03 -1.67 0.03 z" class="primitive"/>
            </g>
            <g transform="translate(172.63,80.32)" id="img-ad29c238-55">
              <path d="M-1.67,-0 L 1.67 -0 1.67 0 -1.67 0 z" class="primitive"/>
            </g>
            <g transform="translate(175.91,80.28)" id="img-ad29c238-56">
              <path d="M-1.67,-0.03 L 1.67 -0.03 1.67 0.03 -1.67 0.03 z" class="primitive"/>
            </g>
            <g transform="translate(179.2,80.25)" id="img-ad29c238-57">
              <path d="M-1.67,-0.07 L 1.67 -0.07 1.67 0.07 -1.67 0.07 z" class="primitive"/>
            </g>
            <g transform="translate(182.48,80.28)" id="img-ad29c238-58">
              <path d="M-1.67,-0.03 L 1.67 -0.03 1.67 0.03 -1.67 0.03 z" class="primitive"/>
            </g>
            <g transform="translate(185.77,80.32)" id="img-ad29c238-59">
              <path d="M-1.67,-0 L 1.67 -0 1.67 0 -1.67 0 z" class="primitive"/>
            </g>
            <g transform="translate(189.05,80.32)" id="img-ad29c238-60">
              <path d="M-1.67,-0 L 1.67 -0 1.67 0 -1.67 0 z" class="primitive"/>
            </g>
            <g transform="translate(192.34,80.32)" id="img-ad29c238-61">
              <path d="M-1.67,-0 L 1.67 -0 1.67 0 -1.67 0 z" class="primitive"/>
            </g>
            <g transform="translate(195.63,80.28)" id="img-ad29c238-62">
              <path d="M-1.67,-0.03 L 1.67 -0.03 1.67 0.03 -1.67 0.03 z" class="primitive"/>
            </g>
            <g transform="translate(198.91,80.32)" id="img-ad29c238-63">
              <path d="M-1.67,-0 L 1.67 -0 1.67 0 -1.67 0 z" class="primitive"/>
            </g>
            <g transform="translate(202.2,80.32)" id="img-ad29c238-64">
              <path d="M-1.67,-0 L 1.67 -0 1.67 0 -1.67 0 z" class="primitive"/>
            </g>
            <g transform="translate(205.48,80.28)" id="img-ad29c238-65">
              <path d="M-1.67,-0.03 L 1.67 -0.03 1.67 0.03 -1.67 0.03 z" class="primitive"/>
            </g>
            <g transform="translate(208.77,80.32)" id="img-ad29c238-66">
              <path d="M-1.67,-0 L 1.67 -0 1.67 0 -1.67 0 z" class="primitive"/>
            </g>
            <g transform="translate(212.05,80.32)" id="img-ad29c238-67">
              <path d="M-1.67,-0 L 1.67 -0 1.67 0 -1.67 0 z" class="primitive"/>
            </g>
            <g transform="translate(215.34,80.32)" id="img-ad29c238-68">
              <path d="M-1.67,-0 L 1.67 -0 1.67 0 -1.67 0 z" class="primitive"/>
            </g>
            <g transform="translate(218.62,80.32)" id="img-ad29c238-69">
              <path d="M-1.67,-0 L 1.67 -0 1.67 0 -1.67 0 z" class="primitive"/>
            </g>
            <g transform="translate(221.91,80.25)" id="img-ad29c238-70">
              <path d="M-1.67,-0.07 L 1.67 -0.07 1.67 0.07 -1.67 0.07 z" class="primitive"/>
            </g>
          </g>
        </g>
      </g>
    </g>
  </g>
  <g class="guide ylabels" font-size="2.82" font-family="'PT Sans Caption','Helvetica Neue','Helvetica',sans-serif" fill="#6C606B" id="img-ad29c238-71">
    <g transform="translate(20.3,80.32)" id="img-ad29c238-72">
      <g class="primitive">
        <text text-anchor="end" dy="0.35em">0</text>
      </g>
    </g>
    <g transform="translate(20.3,46.46)" id="img-ad29c238-73">
      <g class="primitive">
        <text text-anchor="end" dy="0.35em">500</text>
      </g>
    </g>
    <g transform="translate(20.3,12.61)" id="img-ad29c238-74">
      <g class="primitive">
        <text text-anchor="end" dy="0.35em">1000</text>
      </g>
    </g>
  </g>
  <g font-size="3.88" font-family="'PT Sans','Helvetica Neue','Helvetica',sans-serif" fill="#564A55" stroke="#000000" stroke-opacity="0.000" id="img-ad29c238-75">
    <g transform="translate(8.81,44.46)" id="img-ad29c238-76">
      <g class="primitive">
        <text text-anchor="middle" dy="0.35em" transform="rotate(-90,0, 2)">Count</text>
      </g>
    </g>
  </g>
  <g font-size="3.88" font-family="'PT Sans','Helvetica Neue','Helvetica',sans-serif" fill="#564A55" stroke="#000000" stroke-opacity="0.000" id="img-ad29c238-77">
    <g transform="translate(109.75,5)" id="img-ad29c238-78">
      <g class="primitive">
        <text text-anchor="middle" dy="0.6em">XPP</text>
      </g>
    </g>
  </g>
</g>
<defs>
  <clipPath id="img-ad29c238-4">
    <path d="M21.31,10.61 L 198.2 10.61 198.2 82.32 21.31 82.32" />
  </clipPath>
</defs>
</svg>
