<?xml version="1.0" encoding="UTF-8"?>
<svg xmlns="http://www.w3.org/2000/svg"
     xmlns:xlink="http://www.w3.org/1999/xlink"
     xmlns:gadfly="http://www.gadflyjl.org/ns"
     version="1.2"
     width="203.2mm" height="101.6mm" viewBox="0 0 203.2 101.6"
     stroke="none"
     fill="#000000"
     stroke-width="0.3"
     font-size="3.88"
>
<defs>
  <marker id="arrow" markerWidth="15" markerHeight="7" refX="5" refY="3.5" orient="auto" markerUnits="strokeWidth">
    <path d="M0,0 L15,3.5 L0,7 z" stroke="context-stroke" fill="context-stroke"/>
  </marker>
</defs>
<g class="plotroot xscalable yscalable" id="img-4c265581-1">
  <g font-size="3.88" font-family="'PT Sans','Helvetica Neue','Helvetica',sans-serif" fill="#564A55" stroke="#000000" stroke-opacity="0.000" id="img-4c265581-2">
    <g transform="translate(108.92,89.99)">
      <g class="primitive">
        <text text-anchor="middle" dy="0.6em">kMeas/kCalc</text>
      </g>
    </g>
  </g>
  <g class="guide xlabels" font-size="2.82" font-family="'PT Sans Caption','Helvetica Neue','Helvetica',sans-serif" fill="#6C606B" id="img-4c265581-3">
    <g transform="translate(21.63,83.32)">
      <g class="primitive">
        <text text-anchor="middle" dy="0.6em">0.0</text>
      </g>
    </g>
    <g transform="translate(65.27,83.32)">
      <g class="primitive">
        <text text-anchor="middle" dy="0.6em">0.5</text>
      </g>
    </g>
    <g transform="translate(108.92,83.32)">
      <g class="primitive">
        <text text-anchor="middle" dy="0.6em">1.0</text>
      </g>
    </g>
    <g transform="translate(152.56,83.32)">
      <g class="primitive">
        <text text-anchor="middle" dy="0.6em">1.5</text>
      </g>
    </g>
    <g transform="translate(196.2,83.32)">
      <g class="primitive">
        <text text-anchor="middle" dy="0.6em">2.0</text>
      </g>
    </g>
  </g>
  <g clip-path="url(#img-4c265581-4)">
    <g id="img-4c265581-5">
      <g pointer-events="visible" stroke-width="0.3" fill="#000000" fill-opacity="0.000" stroke="#000000" stroke-opacity="0.000" class="guide background" id="img-4c265581-6">
        <g transform="translate(108.92,46.46)" id="img-4c265581-7">
          <path d="M-89.28,-35.85 L 89.28 -35.85 89.28 35.85 -89.28 35.85 z" class="primitive"/>
        </g>
      </g>
      <g class="guide ygridlines xfixed" stroke-dasharray="0.5,0.5" stroke-width="0.2" stroke="#D0D0E0" id="img-4c265581-8">
        <g transform="translate(108.92,80.32)" id="img-4c265581-9">
          <path fill="none" d="M-89.28,0 L 89.28 0" class="primitive"/>
        </g>
        <g transform="translate(108.92,69.03)" id="img-4c265581-10">
          <path fill="none" d="M-89.28,0 L 89.28 0" class="primitive"/>
        </g>
        <g transform="translate(108.92,57.75)" id="img-4c265581-11">
          <path fill="none" d="M-89.28,0 L 89.28 0" class="primitive"/>
        </g>
        <g transform="translate(108.92,46.46)" id="img-4c265581-12">
          <path fill="none" d="M-89.28,0 L 89.28 0" class="primitive"/>
        </g>
        <g transform="translate(108.92,35.18)" id="img-4c265581-13">
          <path fill="none" d="M-89.28,0 L 89.28 0" class="primitive"/>
        </g>
        <g transform="translate(108.92,23.9)" id="img-4c265581-14">
          <path fill="none" d="M-89.28,0 L 89.28 0" class="primitive"/>
        </g>
        <g transform="translate(108.92,12.61)" id="img-4c265581-15">
          <path fill="none" d="M-89.28,0 L 89.28 0" class="primitive"/>
        </g>
      </g>
      <g class="guide xgridlines yfixed" stroke-dasharray="0.5,0.5" stroke-width="0.2" stroke="#D0D0E0" id="img-4c265581-16">
        <g transform="translate(21.63,46.46)" id="img-4c265581-17">
          <path fill="none" d="M0,-35.85 L 0 35.85" class="primitive"/>
        </g>
        <g transform="translate(65.27,46.46)" id="img-4c265581-18">
          <path fill="none" d="M0,-35.85 L 0 35.85" class="primitive"/>
        </g>
        <g transform="translate(108.92,46.46)" id="img-4c265581-19">
          <path fill="none" d="M0,-35.85 L 0 35.85" class="primitive"/>
        </g>
        <g transform="translate(152.56,46.46)" id="img-4c265581-20">
          <path fill="none" d="M0,-35.85 L 0 35.85" class="primitive"/>
        </g>
        <g transform="translate(196.2,46.46)" id="img-4c265581-21">
          <path fill="none" d="M0,-35.85 L 0 35.85" class="primitive"/>
        </g>
      </g>
      <g class="plotpanel" id="img-4c265581-22">
        <metadata>
          <boundingbox value="19.63166666666669mm 10.611666666666665mm 178.5683333333333mm 71.70333333333333mm"/>
          <unitbox value="-0.022913663226434736 617.7243858007976 2.0458273264528697 -635.4487716015951"/>
        </metadata>
        <g shape-rendering="crispEdges" stroke-width="0.3" id="img-4c265581-23">
          <g class="geometry" fill-opacity="1" stroke="#000000" stroke-opacity="0.000" fill="#00BFFF" id="img-4c265581-24">
            <g transform="translate(61.53,80.2)" id="img-4c265581-25">
              <path d="M-1.64,-0.11 L 1.64 -0.11 1.64 0.11 -1.64 0.11 z" class="primitive"/>
            </g>
            <g transform="translate(64.75,80.32)" id="img-4c265581-26">
              <path d="M-1.64,-0 L 1.64 -0 1.64 0 -1.64 0 z" class="primitive"/>
            </g>
            <g transform="translate(67.97,80.26)" id="img-4c265581-27">
              <path d="M-1.64,-0.06 L 1.64 -0.06 1.64 0.06 -1.64 0.06 z" class="primitive"/>
            </g>
            <g transform="translate(71.19,80.32)" id="img-4c265581-28">
              <path d="M-1.64,-0 L 1.64 -0 1.64 0 -1.64 0 z" class="primitive"/>
            </g>
            <g transform="translate(74.41,80.26)" id="img-4c265581-29">
              <path d="M-1.64,-0.06 L 1.64 -0.06 1.64 0.06 -1.64 0.06 z" class="primitive"/>
            </g>
            <g transform="translate(77.63,80.26)" id="img-4c265581-30">
              <path d="M-1.64,-0.06 L 1.64 -0.06 1.64 0.06 -1.64 0.06 z" class="primitive"/>
            </g>
            <g transform="translate(80.85,80.26)" id="img-4c265581-31">
              <path d="M-1.64,-0.06 L 1.64 -0.06 1.64 0.06 -1.64 0.06 z" class="primitive"/>
            </g>
            <g transform="translate(84.07,80.15)" id="img-4c265581-32">
              <path d="M-1.64,-0.17 L 1.64 -0.17 1.64 0.17 -1.64 0.17 z" class="primitive"/>
            </g>
            <g transform="translate(87.29,80.2)" id="img-4c265581-33">
              <path d="M-1.64,-0.11 L 1.64 -0.11 1.64 0.11 -1.64 0.11 z" class="primitive"/>
            </g>
            <g transform="translate(90.51,79.69)" id="img-4c265581-34">
              <path d="M-1.64,-0.62 L 1.64 -0.62 1.64 0.62 -1.64 0.62 z" class="primitive"/>
            </g>
            <g transform="translate(93.73,79.13)" id="img-4c265581-35">
              <path d="M-1.64,-1.18 L 1.64 -1.18 1.64 1.18 -1.64 1.18 z" class="primitive"/>
            </g>
            <g transform="translate(96.96,75.91)" id="img-4c265581-36">
              <path d="M-1.64,-4.4 L 1.64 -4.4 1.64 4.4 -1.64 4.4 z" class="primitive"/>
            </g>
            <g transform="translate(100.18,74.22)" id="img-4c265581-37">
              <path d="M-1.64,-6.09 L 1.64 -6.09 1.64 6.09 -1.64 6.09 z" class="primitive"/>
            </g>
            <g transform="translate(103.4,68.97)" id="img-4c265581-38">
              <path d="M-1.64,-11.34 L 1.64 -11.34 1.64 11.34 -1.64 11.34 z" class="primitive"/>
            </g>
            <g transform="translate(106.62,54.02)" id="img-4c265581-39">
              <path d="M-1.64,-26.29 L 1.64 -26.29 1.64 26.29 -1.64 26.29 z" class="primitive"/>
            </g>
            <g transform="translate(109.84,50.07)" id="img-4c265581-40">
              <path d="M-1.64,-30.24 L 1.64 -30.24 1.64 30.24 -1.64 30.24 z" class="primitive"/>
            </g>
            <g transform="translate(113.06,68.75)" id="img-4c265581-41">
              <path d="M-1.64,-11.57 L 1.64 -11.57 1.64 11.57 -1.64 11.57 z" class="primitive"/>
            </g>
            <g transform="translate(116.28,77.55)" id="img-4c265581-42">
              <path d="M-1.64,-2.76 L 1.64 -2.76 1.64 2.76 -1.64 2.76 z" class="primitive"/>
            </g>
            <g transform="translate(119.5,78.79)" id="img-4c265581-43">
              <path d="M-1.64,-1.52 L 1.64 -1.52 1.64 1.52 -1.64 1.52 z" class="primitive"/>
            </g>
            <g transform="translate(122.72,79.86)" id="img-4c265581-44">
              <path d="M-1.64,-0.45 L 1.64 -0.45 1.64 0.45 -1.64 0.45 z" class="primitive"/>
            </g>
            <g transform="translate(125.94,79.3)" id="img-4c265581-45">
              <path d="M-1.64,-1.02 L 1.64 -1.02 1.64 1.02 -1.64 1.02 z" class="primitive"/>
            </g>
            <g transform="translate(129.16,79.86)" id="img-4c265581-46">
              <path d="M-1.64,-0.45 L 1.64 -0.45 1.64 0.45 -1.64 0.45 z" class="primitive"/>
            </g>
            <g transform="translate(132.38,79.53)" id="img-4c265581-47">
              <path d="M-1.64,-0.79 L 1.64 -0.79 1.64 0.79 -1.64 0.79 z" class="primitive"/>
            </g>
            <g transform="translate(135.61,79.75)" id="img-4c265581-48">
              <path d="M-1.64,-0.56 L 1.64 -0.56 1.64 0.56 -1.64 0.56 z" class="primitive"/>
            </g>
            <g transform="translate(138.83,80.09)" id="img-4c265581-49">
              <path d="M-1.64,-0.23 L 1.64 -0.23 1.64 0.23 -1.64 0.23 z" class="primitive"/>
            </g>
            <g transform="translate(142.05,80.15)" id="img-4c265581-50">
              <path d="M-1.64,-0.17 L 1.64 -0.17 1.64 0.17 -1.64 0.17 z" class="primitive"/>
            </g>
            <g transform="translate(145.27,80.2)" id="img-4c265581-51">
              <path d="M-1.64,-0.11 L 1.64 -0.11 1.64 0.11 -1.64 0.11 z" class="primitive"/>
            </g>
            <g transform="translate(148.49,80.2)" id="img-4c265581-52">
              <path d="M-1.64,-0.11 L 1.64 -0.11 1.64 0.11 -1.64 0.11 z" class="primitive"/>
            </g>
            <g transform="translate(151.71,80.09)" id="img-4c265581-53">
              <path d="M-1.64,-0.23 L 1.64 -0.23 1.64 0.23 -1.64 0.23 z" class="primitive"/>
            </g>
            <g transform="translate(154.93,80.09)" id="img-4c265581-54">
              <path d="M-1.64,-0.23 L 1.64 -0.23 1.64 0.23 -1.64 0.23 z" class="primitive"/>
            </g>
            <g transform="translate(158.15,80.15)" id="img-4c265581-55">
              <path d="M-1.64,-0.17 L 1.64 -0.17 1.64 0.17 -1.64 0.17 z" class="primitive"/>
            </g>
            <g transform="translate(161.37,80.26)" id="img-4c265581-56">
              <path d="M-1.64,-0.06 L 1.64 -0.06 1.64 0.06 -1.64 0.06 z" class="primitive"/>
            </g>
            <g transform="translate(164.59,80.2)" id="img-4c265581-57">
              <path d="M-1.64,-0.11 L 1.64 -0.11 1.64 0.11 -1.64 0.11 z" class="primitive"/>
            </g>
            <g transform="translate(167.81,80.32)" id="img-4c265581-58">
              <path d="M-1.64,-0 L 1.64 -0 1.64 0 -1.64 0 z" class="primitive"/>
            </g>
            <g transform="translate(171.03,80.2)" id="img-4c265581-59">
              <path d="M-1.64,-0.11 L 1.64 -0.11 1.64 0.11 -1.64 0.11 z" class="primitive"/>
            </g>
            <g transform="translate(174.25,80.15)" id="img-4c265581-60">
              <path d="M-1.64,-0.17 L 1.64 -0.17 1.64 0.17 -1.64 0.17 z" class="primitive"/>
            </g>
            <g transform="translate(177.48,80.15)" id="img-4c265581-61">
              <path d="M-1.64,-0.17 L 1.64 -0.17 1.64 0.17 -1.64 0.17 z" class="primitive"/>
            </g>
            <g transform="translate(180.7,80.2)" id="img-4c265581-62">
              <path d="M-1.64,-0.11 L 1.64 -0.11 1.64 0.11 -1.64 0.11 z" class="primitive"/>
            </g>
            <g transform="translate(183.92,80.15)" id="img-4c265581-63">
              <path d="M-1.64,-0.17 L 1.64 -0.17 1.64 0.17 -1.64 0.17 z" class="primitive"/>
            </g>
            <g transform="translate(187.14,80.2)" id="img-4c265581-64">
              <path d="M-1.64,-0.11 L 1.64 -0.11 1.64 0.11 -1.64 0.11 z" class="primitive"/>
            </g>
            <g transform="translate(190.36,80.26)" id="img-4c265581-65">
              <path d="M-1.64,-0.06 L 1.64 -0.06 1.64 0.06 -1.64 0.06 z" class="primitive"/>
            </g>
            <g transform="translate(193.58,80.32)" id="img-4c265581-66">
              <path d="M-1.64,-0 L 1.64 -0 1.64 0 -1.64 0 z" class="primitive"/>
            </g>
            <g transform="translate(196.8,80.26)" id="img-4c265581-67">
              <path d="M-1.64,-0.06 L 1.64 -0.06 1.64 0.06 -1.64 0.06 z" class="primitive"/>
            </g>
            <g transform="translate(200.02,80.15)" id="img-4c265581-68">
              <path d="M-1.64,-0.17 L 1.64 -0.17 1.64 0.17 -1.64 0.17 z" class="primitive"/>
            </g>
            <g transform="translate(203.24,80.26)" id="img-4c265581-69">
              <path d="M-1.64,-0.06 L 1.64 -0.06 1.64 0.06 -1.64 0.06 z" class="primitive"/>
            </g>
            <g transform="translate(206.46,80.2)" id="img-4c265581-70">
              <path d="M-1.64,-0.11 L 1.64 -0.11 1.64 0.11 -1.64 0.11 z" class="primitive"/>
            </g>
            <g transform="translate(209.68,80.32)" id="img-4c265581-71">
              <path d="M-1.64,-0 L 1.64 -0 1.64 0 -1.64 0 z" class="primitive"/>
            </g>
            <g transform="translate(212.9,80.32)" id="img-4c265581-72">
              <path d="M-1.64,-0 L 1.64 -0 1.64 0 -1.64 0 z" class="primitive"/>
            </g>
            <g transform="translate(216.13,80.26)" id="img-4c265581-73">
              <path d="M-1.64,-0.06 L 1.64 -0.06 1.64 0.06 -1.64 0.06 z" class="primitive"/>
            </g>
            <g transform="translate(219.35,80.26)" id="img-4c265581-74">
              <path d="M-1.64,-0.06 L 1.64 -0.06 1.64 0.06 -1.64 0.06 z" class="primitive"/>
            </g>
          </g>
        </g>
      </g>
    </g>
  </g>
  <g class="guide ylabels" font-size="2.82" font-family="'PT Sans Caption','Helvetica Neue','Helvetica',sans-serif" fill="#6C606B" id="img-4c265581-75">
    <g transform="translate(18.63,80.32)" id="img-4c265581-76">
      <g class="primitive">
        <text text-anchor="end" dy="0.35em">0</text>
      </g>
    </g>
    <g transform="translate(18.63,69.03)" id="img-4c265581-77">
      <g class="primitive">
        <text text-anchor="end" dy="0.35em">100</text>
      </g>
    </g>
    <g transform="translate(18.63,57.75)" id="img-4c265581-78">
      <g class="primitive">
        <text text-anchor="end" dy="0.35em">200</text>
      </g>
    </g>
    <g transform="translate(18.63,46.46)" id="img-4c265581-79">
      <g class="primitive">
        <text text-anchor="end" dy="0.35em">300</text>
      </g>
    </g>
    <g transform="translate(18.63,35.18)" id="img-4c265581-80">
      <g class="primitive">
        <text text-anchor="end" dy="0.35em">400</text>
      </g>
    </g>
    <g transform="translate(18.63,23.9)" id="img-4c265581-81">
      <g class="primitive">
        <text text-anchor="end" dy="0.35em">500</text>
      </g>
    </g>
    <g transform="translate(18.63,12.61)" id="img-4c265581-82">
      <g class="primitive">
        <text text-anchor="end" dy="0.35em">600</text>
      </g>
    </g>
  </g>
  <g font-size="3.88" font-family="'PT Sans','Helvetica Neue','Helvetica',sans-serif" fill="#564A55" stroke="#000000" stroke-opacity="0.000" id="img-4c265581-83">
    <g transform="translate(8.81,44.46)" id="img-4c265581-84">
      <g class="primitive">
        <text text-anchor="middle" dy="0.35em" transform="rotate(-90,0, 2)">Count</text>
      </g>
    </g>
  </g>
  <g font-size="3.88" font-family="'PT Sans','Helvetica Neue','Helvetica',sans-serif" fill="#564A55" stroke="#000000" stroke-opacity="0.000" id="img-4c265581-85">
    <g transform="translate(108.92,5)" id="img-4c265581-86">
      <g class="primitive">
        <text text-anchor="middle" dy="0.6em">CitZAF</text>
      </g>
    </g>
  </g>
</g>
<defs>
  <clipPath id="img-4c265581-4">
    <path d="M19.63,10.61 L 198.2 10.61 198.2 82.32 19.63 82.32" />
  </clipPath>
</defs>
</svg>
