<?xml version="1.0" encoding="UTF-8"?>
<svg xmlns="http://www.w3.org/2000/svg"
     xmlns:xlink="http://www.w3.org/1999/xlink"
     xmlns:gadfly="http://www.gadflyjl.org/ns"
     version="1.2"
     width="254mm" height="152.4mm" viewBox="0 0 254 152.4"
     stroke="none"
     fill="#000000"
     stroke-width="0.3"
     font-size="3.88"
>
<defs>
  <marker id="arrow" markerWidth="15" markerHeight="7" refX="5" refY="3.5" orient="auto" markerUnits="strokeWidth">
    <path d="M0,0 L15,3.5 L0,7 z" stroke="context-stroke" fill="context-stroke"/>
  </marker>
</defs>
<g class="plotroot xscalable yscalable" id="img-b1b33a25-1">
  <g font-size="3.88" font-family="'PT Sans','Helvetica Neue','Helvetica',sans-serif" fill="#564A55" stroke="#000000" stroke-opacity="0.000" id="img-b1b33a25-2">
    <g transform="translate(218.15,140.79)">
      <g class="primitive">
        <text text-anchor="middle" dy="0.6em">kMeas/kCalc</text>
      </g>
    </g>
  </g>
  <g class="guide xlabels" font-size="2.82" font-family="'PT Sans Caption','Helvetica Neue','Helvetica',sans-serif" fill="#6C606B" id="img-b1b33a25-3">
    <g transform="translate(189.29,134.11)">
      <g class="primitive">
        <text text-anchor="middle" dy="0.6em">0.0</text>
      </g>
    </g>
    <g transform="translate(203.72,134.11)">
      <g class="primitive">
        <text text-anchor="middle" dy="0.6em">0.5</text>
      </g>
    </g>
    <g transform="translate(218.15,134.11)">
      <g class="primitive">
        <text text-anchor="middle" dy="0.6em">1.0</text>
      </g>
    </g>
    <g transform="translate(232.57,134.11)">
      <g class="primitive">
        <text text-anchor="middle" dy="0.6em">1.5</text>
      </g>
    </g>
    <g transform="translate(247,134.11)">
      <g class="primitive">
        <text text-anchor="middle" dy="0.6em">2.0</text>
      </g>
    </g>
  </g>
  <g clip-path="url(#img-b1b33a25-4)">
    <g id="img-b1b33a25-5">
      <g pointer-events="visible" stroke-width="0.3" fill="#000000" fill-opacity="0.000" stroke="#000000" stroke-opacity="0.000" class="guide background" id="img-b1b33a25-6">
        <g transform="translate(218.15,109.96)" id="img-b1b33a25-7">
          <path d="M-30.85,-23.15 L 30.85 -23.15 30.85 23.15 -30.85 23.15 z" class="primitive"/>
        </g>
      </g>
      <g class="guide ygridlines xfixed" stroke-dasharray="0.5,0.5" stroke-width="0.2" stroke="#D0D0E0" id="img-b1b33a25-8">
        <g transform="translate(218.15,131.11)" id="img-b1b33a25-9">
          <path fill="none" d="M-30.85,0 L 30.85 0" class="primitive"/>
        </g>
        <g transform="translate(218.15,117.01)" id="img-b1b33a25-10">
          <path fill="none" d="M-30.85,0 L 30.85 0" class="primitive"/>
        </g>
        <g transform="translate(218.15,102.91)" id="img-b1b33a25-11">
          <path fill="none" d="M-30.85,0 L 30.85 0" class="primitive"/>
        </g>
        <g transform="translate(218.15,88.81)" id="img-b1b33a25-12">
          <path fill="none" d="M-30.85,0 L 30.85 0" class="primitive"/>
        </g>
      </g>
      <g class="guide xgridlines yfixed" stroke-dasharray="0.5,0.5" stroke-width="0.2" stroke="#D0D0E0" id="img-b1b33a25-13">
        <g transform="translate(189.29,109.96)" id="img-b1b33a25-14">
          <path fill="none" d="M0,-23.15 L 0 23.15" class="primitive"/>
        </g>
        <g transform="translate(203.72,109.96)" id="img-b1b33a25-15">
          <path fill="none" d="M0,-23.15 L 0 23.15" class="primitive"/>
        </g>
        <g transform="translate(218.15,109.96)" id="img-b1b33a25-16">
          <path fill="none" d="M0,-23.15 L 0 23.15" class="primitive"/>
        </g>
        <g transform="translate(232.57,109.96)" id="img-b1b33a25-17">
          <path fill="none" d="M0,-23.15 L 0 23.15" class="primitive"/>
        </g>
        <g transform="translate(247,109.96)" id="img-b1b33a25-18">
          <path fill="none" d="M0,-23.15 L 0 23.15" class="primitive"/>
        </g>
      </g>
      <g class="plotpanel" id="img-b1b33a25-19">
        <metadata>
          <boundingbox value="187.29166666666666mm 86.81166666666665mm 61.70833333333332mm 46.30333333333333mm"/>
          <unitbox value="-0.0693140794223827 15.709163974470098 2.1386281588447655 -16.418327948940195"/>
        </metadata>
        <g shape-rendering="crispEdges" stroke-width="0.3" id="img-b1b33a25-20">
          <g class="geometry" fill-opacity="1" stroke="#000000" stroke-opacity="0.000" fill="#00BFFF" id="img-b1b33a25-21">
            <g transform="translate(218.09,124.06)" id="img-b1b33a25-22">
              <path d="M-0.05,-7.05 L 0.05 -7.05 0.05 7.05 -0.05 7.05 z" class="primitive"/>
            </g>
            <g transform="translate(218.14,122.65)" id="img-b1b33a25-23">
              <path d="M-0.05,-8.46 L 0.05 -8.46 0.05 8.46 -0.05 8.46 z" class="primitive"/>
            </g>
            <g transform="translate(218.19,129.7)" id="img-b1b33a25-24">
              <path d="M-0.05,-1.41 L 0.05 -1.41 0.05 1.41 -0.05 1.41 z" class="primitive"/>
            </g>
            <g transform="translate(218.24,126.88)" id="img-b1b33a25-25">
              <path d="M-0.05,-4.23 L 0.05 -4.23 0.05 4.23 -0.05 4.23 z" class="primitive"/>
            </g>
            <g transform="translate(218.29,125.47)" id="img-b1b33a25-26">
              <path d="M-0.05,-5.64 L 0.05 -5.64 0.05 5.64 -0.05 5.64 z" class="primitive"/>
            </g>
            <g transform="translate(218.33,115.6)" id="img-b1b33a25-27">
              <path d="M-0.05,-15.51 L 0.05 -15.51 0.05 15.51 -0.05 15.51 z" class="primitive"/>
            </g>
            <g transform="translate(218.38,122.65)" id="img-b1b33a25-28">
              <path d="M-0.05,-8.46 L 0.05 -8.46 0.05 8.46 -0.05 8.46 z" class="primitive"/>
            </g>
            <g transform="translate(218.43,122.65)" id="img-b1b33a25-29">
              <path d="M-0.05,-8.46 L 0.05 -8.46 0.05 8.46 -0.05 8.46 z" class="primitive"/>
            </g>
            <g transform="translate(218.48,122.65)" id="img-b1b33a25-30">
              <path d="M-0.05,-8.46 L 0.05 -8.46 0.05 8.46 -0.05 8.46 z" class="primitive"/>
            </g>
            <g transform="translate(218.53,115.6)" id="img-b1b33a25-31">
              <path d="M-0.05,-15.51 L 0.05 -15.51 0.05 15.51 -0.05 15.51 z" class="primitive"/>
            </g>
            <g transform="translate(218.58,122.65)" id="img-b1b33a25-32">
              <path d="M-0.05,-8.46 L 0.05 -8.46 0.05 8.46 -0.05 8.46 z" class="primitive"/>
            </g>
            <g transform="translate(218.63,122.65)" id="img-b1b33a25-33">
              <path d="M-0.05,-8.46 L 0.05 -8.46 0.05 8.46 -0.05 8.46 z" class="primitive"/>
            </g>
            <g transform="translate(218.67,122.65)" id="img-b1b33a25-34">
              <path d="M-0.05,-8.46 L 0.05 -8.46 0.05 8.46 -0.05 8.46 z" class="primitive"/>
            </g>
            <g transform="translate(218.72,128.29)" id="img-b1b33a25-35">
              <path d="M-0.05,-2.82 L 0.05 -2.82 0.05 2.82 -0.05 2.82 z" class="primitive"/>
            </g>
            <g transform="translate(218.77,126.88)" id="img-b1b33a25-36">
              <path d="M-0.05,-4.23 L 0.05 -4.23 0.05 4.23 -0.05 4.23 z" class="primitive"/>
            </g>
            <g transform="translate(218.82,119.83)" id="img-b1b33a25-37">
              <path d="M-0.05,-11.28 L 0.05 -11.28 0.05 11.28 -0.05 11.28 z" class="primitive"/>
            </g>
            <g transform="translate(218.87,126.88)" id="img-b1b33a25-38">
              <path d="M-0.05,-4.23 L 0.05 -4.23 0.05 4.23 -0.05 4.23 z" class="primitive"/>
            </g>
            <g transform="translate(218.92,126.88)" id="img-b1b33a25-39">
              <path d="M-0.05,-4.23 L 0.05 -4.23 0.05 4.23 -0.05 4.23 z" class="primitive"/>
            </g>
            <g transform="translate(218.97,129.7)" id="img-b1b33a25-40">
              <path d="M-0.05,-1.41 L 0.05 -1.41 0.05 1.41 -0.05 1.41 z" class="primitive"/>
            </g>
            <g transform="translate(219.02,126.88)" id="img-b1b33a25-41">
              <path d="M-0.05,-4.23 L 0.05 -4.23 0.05 4.23 -0.05 4.23 z" class="primitive"/>
            </g>
            <g transform="translate(219.06,126.88)" id="img-b1b33a25-42">
              <path d="M-0.05,-4.23 L 0.05 -4.23 0.05 4.23 -0.05 4.23 z" class="primitive"/>
            </g>
            <g transform="translate(219.11,129.7)" id="img-b1b33a25-43">
              <path d="M-0.05,-1.41 L 0.05 -1.41 0.05 1.41 -0.05 1.41 z" class="primitive"/>
            </g>
            <g transform="translate(219.16,128.29)" id="img-b1b33a25-44">
              <path d="M-0.05,-2.82 L 0.05 -2.82 0.05 2.82 -0.05 2.82 z" class="primitive"/>
            </g>
            <g transform="translate(219.21,128.29)" id="img-b1b33a25-45">
              <path d="M-0.05,-2.82 L 0.05 -2.82 0.05 2.82 -0.05 2.82 z" class="primitive"/>
            </g>
            <g transform="translate(219.26,129.7)" id="img-b1b33a25-46">
              <path d="M-0.05,-1.41 L 0.05 -1.41 0.05 1.41 -0.05 1.41 z" class="primitive"/>
            </g>
            <g transform="translate(219.31,126.88)" id="img-b1b33a25-47">
              <path d="M-0.05,-4.23 L 0.05 -4.23 0.05 4.23 -0.05 4.23 z" class="primitive"/>
            </g>
            <g transform="translate(219.36,129.7)" id="img-b1b33a25-48">
              <path d="M-0.05,-1.41 L 0.05 -1.41 0.05 1.41 -0.05 1.41 z" class="primitive"/>
            </g>
            <g transform="translate(219.41,129.7)" id="img-b1b33a25-49">
              <path d="M-0.05,-1.41 L 0.05 -1.41 0.05 1.41 -0.05 1.41 z" class="primitive"/>
            </g>
            <g transform="translate(219.45,129.7)" id="img-b1b33a25-50">
              <path d="M-0.05,-1.41 L 0.05 -1.41 0.05 1.41 -0.05 1.41 z" class="primitive"/>
            </g>
            <g transform="translate(219.5,128.29)" id="img-b1b33a25-51">
              <path d="M-0.05,-2.82 L 0.05 -2.82 0.05 2.82 -0.05 2.82 z" class="primitive"/>
            </g>
            <g transform="translate(219.55,128.29)" id="img-b1b33a25-52">
              <path d="M-0.05,-2.82 L 0.05 -2.82 0.05 2.82 -0.05 2.82 z" class="primitive"/>
            </g>
            <g transform="translate(219.6,129.7)" id="img-b1b33a25-53">
              <path d="M-0.05,-1.41 L 0.05 -1.41 0.05 1.41 -0.05 1.41 z" class="primitive"/>
            </g>
            <g transform="translate(219.65,129.7)" id="img-b1b33a25-54">
              <path d="M-0.05,-1.41 L 0.05 -1.41 0.05 1.41 -0.05 1.41 z" class="primitive"/>
            </g>
            <g transform="translate(219.7,131.12)" id="img-b1b33a25-55">
              <path d="M-0.05,-0 L 0.05 -0 0.05 0 -0.05 0 z" class="primitive"/>
            </g>
            <g transform="translate(219.75,129.7)" id="img-b1b33a25-56">
              <path d="M-0.05,-1.41 L 0.05 -1.41 0.05 1.41 -0.05 1.41 z" class="primitive"/>
            </g>
            <g transform="translate(219.8,129.7)" id="img-b1b33a25-57">
              <path d="M-0.05,-1.41 L 0.05 -1.41 0.05 1.41 -0.05 1.41 z" class="primitive"/>
            </g>
            <g transform="translate(219.84,131.12)" id="img-b1b33a25-58">
              <path d="M-0.05,-0 L 0.05 -0 0.05 0 -0.05 0 z" class="primitive"/>
            </g>
            <g transform="translate(219.89,129.7)" id="img-b1b33a25-59">
              <path d="M-0.05,-1.41 L 0.05 -1.41 0.05 1.41 -0.05 1.41 z" class="primitive"/>
            </g>
            <g transform="translate(219.94,131.12)" id="img-b1b33a25-60">
              <path d="M-0.05,-0 L 0.05 -0 0.05 0 -0.05 0 z" class="primitive"/>
            </g>
            <g transform="translate(219.99,131.12)" id="img-b1b33a25-61">
              <path d="M-0.05,-0 L 0.05 -0 0.05 0 -0.05 0 z" class="primitive"/>
            </g>
            <g transform="translate(220.04,131.12)" id="img-b1b33a25-62">
              <path d="M-0.05,-0 L 0.05 -0 0.05 0 -0.05 0 z" class="primitive"/>
            </g>
            <g transform="translate(220.09,131.12)" id="img-b1b33a25-63">
              <path d="M-0.05,-0 L 0.05 -0 0.05 0 -0.05 0 z" class="primitive"/>
            </g>
            <g transform="translate(220.14,131.12)" id="img-b1b33a25-64">
              <path d="M-0.05,-0 L 0.05 -0 0.05 0 -0.05 0 z" class="primitive"/>
            </g>
            <g transform="translate(220.18,129.7)" id="img-b1b33a25-65">
              <path d="M-0.05,-1.41 L 0.05 -1.41 0.05 1.41 -0.05 1.41 z" class="primitive"/>
            </g>
            <g transform="translate(220.23,131.12)" id="img-b1b33a25-66">
              <path d="M-0.05,-0 L 0.05 -0 0.05 0 -0.05 0 z" class="primitive"/>
            </g>
            <g transform="translate(220.28,131.12)" id="img-b1b33a25-67">
              <path d="M-0.05,-0 L 0.05 -0 0.05 0 -0.05 0 z" class="primitive"/>
            </g>
            <g transform="translate(220.33,131.12)" id="img-b1b33a25-68">
              <path d="M-0.05,-0 L 0.05 -0 0.05 0 -0.05 0 z" class="primitive"/>
            </g>
            <g transform="translate(220.38,131.12)" id="img-b1b33a25-69">
              <path d="M-0.05,-0 L 0.05 -0 0.05 0 -0.05 0 z" class="primitive"/>
            </g>
            <g transform="translate(220.43,131.12)" id="img-b1b33a25-70">
              <path d="M-0.05,-0 L 0.05 -0 0.05 0 -0.05 0 z" class="primitive"/>
            </g>
            <g transform="translate(220.48,128.29)" id="img-b1b33a25-71">
              <path d="M-0.05,-2.82 L 0.05 -2.82 0.05 2.82 -0.05 2.82 z" class="primitive"/>
            </g>
          </g>
        </g>
      </g>
    </g>
  </g>
  <g class="guide ylabels" font-size="2.82" font-family="'PT Sans Caption','Helvetica Neue','Helvetica',sans-serif" fill="#6C606B" id="img-b1b33a25-72">
    <g transform="translate(186.29,131.11)" id="img-b1b33a25-73">
      <g class="primitive">
        <text text-anchor="end" dy="0.35em">0</text>
      </g>
    </g>
    <g transform="translate(186.29,117.01)" id="img-b1b33a25-74">
      <g class="primitive">
        <text text-anchor="end" dy="0.35em">5</text>
      </g>
    </g>
    <g transform="translate(186.29,102.91)" id="img-b1b33a25-75">
      <g class="primitive">
        <text text-anchor="end" dy="0.35em">10</text>
      </g>
    </g>
    <g transform="translate(186.29,88.81)" id="img-b1b33a25-76">
      <g class="primitive">
        <text text-anchor="end" dy="0.35em">15</text>
      </g>
    </g>
  </g>
  <g font-size="3.88" font-family="'PT Sans','Helvetica Neue','Helvetica',sans-serif" fill="#564A55" stroke="#000000" stroke-opacity="0.000" id="img-b1b33a25-77">
    <g transform="translate(178.14,107.96)" id="img-b1b33a25-78">
      <g class="primitive">
        <text text-anchor="middle" dy="0.35em" transform="rotate(-90,0, 2)">Count</text>
      </g>
    </g>
  </g>
  <g font-size="3.88" font-family="'PT Sans','Helvetica Neue','Helvetica',sans-serif" fill="#564A55" stroke="#000000" stroke-opacity="0.000" id="img-b1b33a25-79">
    <g transform="translate(218.15,81.2)" id="img-b1b33a25-80">
      <g class="primitive">
        <text text-anchor="middle" dy="0.6em">Riveros</text>
      </g>
    </g>
  </g>
</g>
<g class="plotroot xscalable yscalable" id="img-b1b33a25-81">
  <g font-size="3.88" font-family="'PT Sans','Helvetica Neue','Helvetica',sans-serif" fill="#564A55" stroke="#000000" stroke-opacity="0.000" id="img-b1b33a25-82">
    <g transform="translate(132.64,140.79)" id="img-b1b33a25-83">
      <g class="primitive">
        <text text-anchor="middle" dy="0.6em">kMeas/kCalc</text>
      </g>
    </g>
  </g>
  <g class="guide xlabels" font-size="2.82" font-family="'PT Sans Caption','Helvetica Neue','Helvetica',sans-serif" fill="#6C606B" id="img-b1b33a25-84">
    <g transform="translate(102.95,134.11)" id="img-b1b33a25-85">
      <g class="primitive">
        <text text-anchor="middle" dy="0.6em">0.0</text>
      </g>
    </g>
    <g transform="translate(117.8,134.11)" id="img-b1b33a25-86">
      <g class="primitive">
        <text text-anchor="middle" dy="0.6em">0.5</text>
      </g>
    </g>
    <g transform="translate(132.64,134.11)" id="img-b1b33a25-87">
      <g class="primitive">
        <text text-anchor="middle" dy="0.6em">1.0</text>
      </g>
    </g>
    <g transform="translate(147.49,134.11)" id="img-b1b33a25-88">
      <g class="primitive">
        <text text-anchor="middle" dy="0.6em">1.5</text>
      </g>
    </g>
    <g transform="translate(162.33,134.11)" id="img-b1b33a25-89">
      <g class="primitive">
        <text text-anchor="middle" dy="0.6em">2.0</text>
      </g>
    </g>
  </g>
  <g clip-path="url(#img-b1b33a25-90)">
    <g id="img-b1b33a25-91">
      <g pointer-events="visible" stroke-width="0.3" fill="#000000" fill-opacity="0.000" stroke="#000000" stroke-opacity="0.000" class="guide background" id="img-b1b33a25-92">
        <g transform="translate(132.64,109.96)" id="img-b1b33a25-93">
          <path d="M-31.69,-23.15 L 31.69 -23.15 31.69 23.15 -31.69 23.15 z" class="primitive"/>
        </g>
      </g>
      <g class="guide ygridlines xfixed" stroke-dasharray="0.5,0.5" stroke-width="0.2" stroke="#D0D0E0" id="img-b1b33a25-94">
        <g transform="translate(132.64,131.11)" id="img-b1b33a25-95">
          <path fill="none" d="M-31.69,0 L 31.69 0" class="primitive"/>
        </g>
        <g transform="translate(132.64,120.54)" id="img-b1b33a25-96">
          <path fill="none" d="M-31.69,0 L 31.69 0" class="primitive"/>
        </g>
        <g transform="translate(132.64,109.96)" id="img-b1b33a25-97">
          <path fill="none" d="M-31.69,0 L 31.69 0" class="primitive"/>
        </g>
        <g transform="translate(132.64,99.39)" id="img-b1b33a25-98">
          <path fill="none" d="M-31.69,0 L 31.69 0" class="primitive"/>
        </g>
        <g transform="translate(132.64,88.81)" id="img-b1b33a25-99">
          <path fill="none" d="M-31.69,0 L 31.69 0" class="primitive"/>
        </g>
      </g>
      <g class="guide xgridlines yfixed" stroke-dasharray="0.5,0.5" stroke-width="0.2" stroke="#D0D0E0" id="img-b1b33a25-100">
        <g transform="translate(102.95,109.96)" id="img-b1b33a25-101">
          <path fill="none" d="M0,-23.15 L 0 23.15" class="primitive"/>
        </g>
        <g transform="translate(117.8,109.96)" id="img-b1b33a25-102">
          <path fill="none" d="M0,-23.15 L 0 23.15" class="primitive"/>
        </g>
        <g transform="translate(132.64,109.96)" id="img-b1b33a25-103">
          <path fill="none" d="M0,-23.15 L 0 23.15" class="primitive"/>
        </g>
        <g transform="translate(147.49,109.96)" id="img-b1b33a25-104">
          <path fill="none" d="M0,-23.15 L 0 23.15" class="primitive"/>
        </g>
        <g transform="translate(162.33,109.96)" id="img-b1b33a25-105">
          <path fill="none" d="M0,-23.15 L 0 23.15" class="primitive"/>
        </g>
      </g>
      <g class="plotpanel" id="img-b1b33a25-106">
        <metadata>
          <boundingbox value="100.95166666666665mm 86.81166666666665mm 63.38166666666665mm 46.30333333333333mm"/>
          <unitbox value="-0.06736085772825509 8.378220786384052 2.1347217154565103 -8.756441572768104"/>
        </metadata>
        <g shape-rendering="crispEdges" stroke-width="0.3" id="img-b1b33a25-107">
          <g class="geometry" fill-opacity="1" stroke="#000000" stroke-opacity="0.000" fill="#00BFFF" id="img-b1b33a25-108">
            <g transform="translate(131.41,128.47)" id="img-b1b33a25-109">
              <path d="M-0.06,-2.64 L 0.06 -2.64 0.06 2.64 -0.06 2.64 z" class="primitive"/>
            </g>
            <g transform="translate(131.49,131.12)" id="img-b1b33a25-110">
              <path d="M-0.06,-0 L 0.06 -0 0.06 0 -0.06 0 z" class="primitive"/>
            </g>
            <g transform="translate(131.56,131.12)" id="img-b1b33a25-111">
              <path d="M-0.06,-0 L 0.06 -0 0.06 0 -0.06 0 z" class="primitive"/>
            </g>
            <g transform="translate(131.64,131.12)" id="img-b1b33a25-112">
              <path d="M-0.06,-0 L 0.06 -0 0.06 0 -0.06 0 z" class="primitive"/>
            </g>
            <g transform="translate(131.71,131.12)" id="img-b1b33a25-113">
              <path d="M-0.06,-0 L 0.06 -0 0.06 0 -0.06 0 z" class="primitive"/>
            </g>
            <g transform="translate(131.78,131.12)" id="img-b1b33a25-114">
              <path d="M-0.06,-0 L 0.06 -0 0.06 0 -0.06 0 z" class="primitive"/>
            </g>
            <g transform="translate(131.86,120.54)" id="img-b1b33a25-115">
              <path d="M-0.06,-10.58 L 0.06 -10.58 0.06 10.58 -0.06 10.58 z" class="primitive"/>
            </g>
            <g transform="translate(131.93,123.18)" id="img-b1b33a25-116">
              <path d="M-0.06,-7.93 L 0.06 -7.93 0.06 7.93 -0.06 7.93 z" class="primitive"/>
            </g>
            <g transform="translate(132.01,123.18)" id="img-b1b33a25-117">
              <path d="M-0.06,-7.93 L 0.06 -7.93 0.06 7.93 -0.06 7.93 z" class="primitive"/>
            </g>
            <g transform="translate(132.08,125.83)" id="img-b1b33a25-118">
              <path d="M-0.06,-5.29 L 0.06 -5.29 0.06 5.29 -0.06 5.29 z" class="primitive"/>
            </g>
            <g transform="translate(132.15,123.18)" id="img-b1b33a25-119">
              <path d="M-0.06,-7.93 L 0.06 -7.93 0.06 7.93 -0.06 7.93 z" class="primitive"/>
            </g>
            <g transform="translate(132.23,128.47)" id="img-b1b33a25-120">
              <path d="M-0.06,-2.64 L 0.06 -2.64 0.06 2.64 -0.06 2.64 z" class="primitive"/>
            </g>
            <g transform="translate(132.3,117.9)" id="img-b1b33a25-121">
              <path d="M-0.06,-13.22 L 0.06 -13.22 0.06 13.22 -0.06 13.22 z" class="primitive"/>
            </g>
            <g transform="translate(132.38,117.9)" id="img-b1b33a25-122">
              <path d="M-0.06,-13.22 L 0.06 -13.22 0.06 13.22 -0.06 13.22 z" class="primitive"/>
            </g>
            <g transform="translate(132.45,109.96)" id="img-b1b33a25-123">
              <path d="M-0.06,-21.15 L 0.06 -21.15 0.06 21.15 -0.06 21.15 z" class="primitive"/>
            </g>
            <g transform="translate(132.52,120.54)" id="img-b1b33a25-124">
              <path d="M-0.06,-10.58 L 0.06 -10.58 0.06 10.58 -0.06 10.58 z" class="primitive"/>
            </g>
            <g transform="translate(132.6,115.25)" id="img-b1b33a25-125">
              <path d="M-0.06,-15.86 L 0.06 -15.86 0.06 15.86 -0.06 15.86 z" class="primitive"/>
            </g>
            <g transform="translate(132.67,117.9)" id="img-b1b33a25-126">
              <path d="M-0.06,-13.22 L 0.06 -13.22 0.06 13.22 -0.06 13.22 z" class="primitive"/>
            </g>
            <g transform="translate(132.75,115.25)" id="img-b1b33a25-127">
              <path d="M-0.06,-15.86 L 0.06 -15.86 0.06 15.86 -0.06 15.86 z" class="primitive"/>
            </g>
            <g transform="translate(132.82,117.9)" id="img-b1b33a25-128">
              <path d="M-0.06,-13.22 L 0.06 -13.22 0.06 13.22 -0.06 13.22 z" class="primitive"/>
            </g>
            <g transform="translate(132.9,112.61)" id="img-b1b33a25-129">
              <path d="M-0.06,-18.51 L 0.06 -18.51 0.06 18.51 -0.06 18.51 z" class="primitive"/>
            </g>
            <g transform="translate(132.97,115.25)" id="img-b1b33a25-130">
              <path d="M-0.06,-15.86 L 0.06 -15.86 0.06 15.86 -0.06 15.86 z" class="primitive"/>
            </g>
            <g transform="translate(133.04,125.83)" id="img-b1b33a25-131">
              <path d="M-0.06,-5.29 L 0.06 -5.29 0.06 5.29 -0.06 5.29 z" class="primitive"/>
            </g>
            <g transform="translate(133.12,112.61)" id="img-b1b33a25-132">
              <path d="M-0.06,-18.51 L 0.06 -18.51 0.06 18.51 -0.06 18.51 z" class="primitive"/>
            </g>
            <g transform="translate(133.19,115.25)" id="img-b1b33a25-133">
              <path d="M-0.06,-15.86 L 0.06 -15.86 0.06 15.86 -0.06 15.86 z" class="primitive"/>
            </g>
            <g transform="translate(133.27,123.18)" id="img-b1b33a25-134">
              <path d="M-0.06,-7.93 L 0.06 -7.93 0.06 7.93 -0.06 7.93 z" class="primitive"/>
            </g>
            <g transform="translate(133.34,125.83)" id="img-b1b33a25-135">
              <path d="M-0.06,-5.29 L 0.06 -5.29 0.06 5.29 -0.06 5.29 z" class="primitive"/>
            </g>
            <g transform="translate(133.41,115.25)" id="img-b1b33a25-136">
              <path d="M-0.06,-15.86 L 0.06 -15.86 0.06 15.86 -0.06 15.86 z" class="primitive"/>
            </g>
            <g transform="translate(133.49,125.83)" id="img-b1b33a25-137">
              <path d="M-0.06,-5.29 L 0.06 -5.29 0.06 5.29 -0.06 5.29 z" class="primitive"/>
            </g>
            <g transform="translate(133.56,120.54)" id="img-b1b33a25-138">
              <path d="M-0.06,-10.58 L 0.06 -10.58 0.06 10.58 -0.06 10.58 z" class="primitive"/>
            </g>
            <g transform="translate(133.64,131.12)" id="img-b1b33a25-139">
              <path d="M-0.06,-0 L 0.06 -0 0.06 0 -0.06 0 z" class="primitive"/>
            </g>
            <g transform="translate(133.71,125.83)" id="img-b1b33a25-140">
              <path d="M-0.06,-5.29 L 0.06 -5.29 0.06 5.29 -0.06 5.29 z" class="primitive"/>
            </g>
            <g transform="translate(133.78,125.83)" id="img-b1b33a25-141">
              <path d="M-0.06,-5.29 L 0.06 -5.29 0.06 5.29 -0.06 5.29 z" class="primitive"/>
            </g>
            <g transform="translate(133.86,123.18)" id="img-b1b33a25-142">
              <path d="M-0.06,-7.93 L 0.06 -7.93 0.06 7.93 -0.06 7.93 z" class="primitive"/>
            </g>
            <g transform="translate(133.93,128.47)" id="img-b1b33a25-143">
              <path d="M-0.06,-2.64 L 0.06 -2.64 0.06 2.64 -0.06 2.64 z" class="primitive"/>
            </g>
            <g transform="translate(134.01,123.18)" id="img-b1b33a25-144">
              <path d="M-0.06,-7.93 L 0.06 -7.93 0.06 7.93 -0.06 7.93 z" class="primitive"/>
            </g>
            <g transform="translate(134.08,125.83)" id="img-b1b33a25-145">
              <path d="M-0.06,-5.29 L 0.06 -5.29 0.06 5.29 -0.06 5.29 z" class="primitive"/>
            </g>
            <g transform="translate(134.15,128.47)" id="img-b1b33a25-146">
              <path d="M-0.06,-2.64 L 0.06 -2.64 0.06 2.64 -0.06 2.64 z" class="primitive"/>
            </g>
            <g transform="translate(134.23,128.47)" id="img-b1b33a25-147">
              <path d="M-0.06,-2.64 L 0.06 -2.64 0.06 2.64 -0.06 2.64 z" class="primitive"/>
            </g>
            <g transform="translate(134.3,125.83)" id="img-b1b33a25-148">
              <path d="M-0.06,-5.29 L 0.06 -5.29 0.06 5.29 -0.06 5.29 z" class="primitive"/>
            </g>
            <g transform="translate(134.38,131.12)" id="img-b1b33a25-149">
              <path d="M-0.06,-0 L 0.06 -0 0.06 0 -0.06 0 z" class="primitive"/>
            </g>
            <g transform="translate(134.45,131.12)" id="img-b1b33a25-150">
              <path d="M-0.06,-0 L 0.06 -0 0.06 0 -0.06 0 z" class="primitive"/>
            </g>
            <g transform="translate(134.53,128.47)" id="img-b1b33a25-151">
              <path d="M-0.06,-2.64 L 0.06 -2.64 0.06 2.64 -0.06 2.64 z" class="primitive"/>
            </g>
            <g transform="translate(134.6,131.12)" id="img-b1b33a25-152">
              <path d="M-0.06,-0 L 0.06 -0 0.06 0 -0.06 0 z" class="primitive"/>
            </g>
            <g transform="translate(134.67,128.47)" id="img-b1b33a25-153">
              <path d="M-0.06,-2.64 L 0.06 -2.64 0.06 2.64 -0.06 2.64 z" class="primitive"/>
            </g>
            <g transform="translate(134.75,131.12)" id="img-b1b33a25-154">
              <path d="M-0.06,-0 L 0.06 -0 0.06 0 -0.06 0 z" class="primitive"/>
            </g>
            <g transform="translate(134.82,131.12)" id="img-b1b33a25-155">
              <path d="M-0.06,-0 L 0.06 -0 0.06 0 -0.06 0 z" class="primitive"/>
            </g>
            <g transform="translate(134.9,131.12)" id="img-b1b33a25-156">
              <path d="M-0.06,-0 L 0.06 -0 0.06 0 -0.06 0 z" class="primitive"/>
            </g>
            <g transform="translate(134.97,128.47)" id="img-b1b33a25-157">
              <path d="M-0.06,-2.64 L 0.06 -2.64 0.06 2.64 -0.06 2.64 z" class="primitive"/>
            </g>
            <g transform="translate(135.04,128.47)" id="img-b1b33a25-158">
              <path d="M-0.06,-2.64 L 0.06 -2.64 0.06 2.64 -0.06 2.64 z" class="primitive"/>
            </g>
          </g>
        </g>
      </g>
    </g>
  </g>
  <g class="guide ylabels" font-size="2.82" font-family="'PT Sans Caption','Helvetica Neue','Helvetica',sans-serif" fill="#6C606B" id="img-b1b33a25-159">
    <g transform="translate(99.95,131.11)" id="img-b1b33a25-160">
      <g class="primitive">
        <text text-anchor="end" dy="0.35em">0</text>
      </g>
    </g>
    <g transform="translate(99.95,120.54)" id="img-b1b33a25-161">
      <g class="primitive">
        <text text-anchor="end" dy="0.35em">2</text>
      </g>
    </g>
    <g transform="translate(99.95,109.96)" id="img-b1b33a25-162">
      <g class="primitive">
        <text text-anchor="end" dy="0.35em">4</text>
      </g>
    </g>
    <g transform="translate(99.95,99.39)" id="img-b1b33a25-163">
      <g class="primitive">
        <text text-anchor="end" dy="0.35em">6</text>
      </g>
    </g>
    <g transform="translate(99.95,88.81)" id="img-b1b33a25-164">
      <g class="primitive">
        <text text-anchor="end" dy="0.35em">8</text>
      </g>
    </g>
  </g>
  <g font-size="3.88" font-family="'PT Sans','Helvetica Neue','Helvetica',sans-serif" fill="#564A55" stroke="#000000" stroke-opacity="0.000" id="img-b1b33a25-165">
    <g transform="translate(93.47,107.96)" id="img-b1b33a25-166">
      <g class="primitive">
        <text text-anchor="middle" dy="0.35em" transform="rotate(-90,0, 2)">Count</text>
      </g>
    </g>
  </g>
  <g font-size="3.88" font-family="'PT Sans','Helvetica Neue','Helvetica',sans-serif" fill="#564A55" stroke="#000000" stroke-opacity="0.000" id="img-b1b33a25-167">
    <g transform="translate(132.64,81.2)" id="img-b1b33a25-168">
      <g class="primitive">
        <text text-anchor="middle" dy="0.6em">CitZAF</text>
      </g>
    </g>
  </g>
</g>
<g class="plotroot xscalable yscalable" id="img-b1b33a25-169">
  <g font-size="3.88" font-family="'PT Sans','Helvetica Neue','Helvetica',sans-serif" fill="#564A55" stroke="#000000" stroke-opacity="0.000" id="img-b1b33a25-170">
    <g transform="translate(48.81,140.79)" id="img-b1b33a25-171">
      <g class="primitive">
        <text text-anchor="middle" dy="0.6em">kMeas/kCalc</text>
      </g>
    </g>
  </g>
  <g class="guide xlabels" font-size="2.82" font-family="'PT Sans Caption','Helvetica Neue','Helvetica',sans-serif" fill="#6C606B" id="img-b1b33a25-172">
    <g transform="translate(19.96,134.11)" id="img-b1b33a25-173">
      <g class="primitive">
        <text text-anchor="middle" dy="0.6em">0.0</text>
      </g>
    </g>
    <g transform="translate(34.39,134.11)" id="img-b1b33a25-174">
      <g class="primitive">
        <text text-anchor="middle" dy="0.6em">0.5</text>
      </g>
    </g>
    <g transform="translate(48.81,134.11)" id="img-b1b33a25-175">
      <g class="primitive">
        <text text-anchor="middle" dy="0.6em">1.0</text>
      </g>
    </g>
    <g transform="translate(63.24,134.11)" id="img-b1b33a25-176">
      <g class="primitive">
        <text text-anchor="middle" dy="0.6em">1.5</text>
      </g>
    </g>
    <g transform="translate(77.67,134.11)" id="img-b1b33a25-177">
      <g class="primitive">
        <text text-anchor="middle" dy="0.6em">2.0</text>
      </g>
    </g>
  </g>
  <g clip-path="url(#img-b1b33a25-178)">
    <g id="img-b1b33a25-179">
      <g pointer-events="visible" stroke-width="0.3" fill="#000000" fill-opacity="0.000" stroke="#000000" stroke-opacity="0.000" class="guide background" id="img-b1b33a25-180">
        <g transform="translate(48.81,109.96)" id="img-b1b33a25-181">
          <path d="M-30.85,-23.15 L 30.85 -23.15 30.85 23.15 -30.85 23.15 z" class="primitive"/>
        </g>
      </g>
      <g class="guide ygridlines xfixed" stroke-dasharray="0.5,0.5" stroke-width="0.2" stroke="#D0D0E0" id="img-b1b33a25-182">
        <g transform="translate(48.81,131.11)" id="img-b1b33a25-183">
          <path fill="none" d="M-30.85,0 L 30.85 0" class="primitive"/>
        </g>
        <g transform="translate(48.81,124.06)" id="img-b1b33a25-184">
          <path fill="none" d="M-30.85,0 L 30.85 0" class="primitive"/>
        </g>
        <g transform="translate(48.81,117.01)" id="img-b1b33a25-185">
          <path fill="none" d="M-30.85,0 L 30.85 0" class="primitive"/>
        </g>
        <g transform="translate(48.81,109.96)" id="img-b1b33a25-186">
          <path fill="none" d="M-30.85,0 L 30.85 0" class="primitive"/>
        </g>
        <g transform="translate(48.81,102.91)" id="img-b1b33a25-187">
          <path fill="none" d="M-30.85,0 L 30.85 0" class="primitive"/>
        </g>
        <g transform="translate(48.81,95.86)" id="img-b1b33a25-188">
          <path fill="none" d="M-30.85,0 L 30.85 0" class="primitive"/>
        </g>
        <g transform="translate(48.81,88.81)" id="img-b1b33a25-189">
          <path fill="none" d="M-30.85,0 L 30.85 0" class="primitive"/>
        </g>
      </g>
      <g class="guide xgridlines yfixed" stroke-dasharray="0.5,0.5" stroke-width="0.2" stroke="#D0D0E0" id="img-b1b33a25-190">
        <g transform="translate(19.96,109.96)" id="img-b1b33a25-191">
          <path fill="none" d="M0,-23.15 L 0 23.15" class="primitive"/>
        </g>
        <g transform="translate(34.39,109.96)" id="img-b1b33a25-192">
          <path fill="none" d="M0,-23.15 L 0 23.15" class="primitive"/>
        </g>
        <g transform="translate(48.81,109.96)" id="img-b1b33a25-193">
          <path fill="none" d="M0,-23.15 L 0 23.15" class="primitive"/>
        </g>
        <g transform="translate(63.24,109.96)" id="img-b1b33a25-194">
          <path fill="none" d="M0,-23.15 L 0 23.15" class="primitive"/>
        </g>
        <g transform="translate(77.67,109.96)" id="img-b1b33a25-195">
          <path fill="none" d="M0,-23.15 L 0 23.15" class="primitive"/>
        </g>
      </g>
      <g class="plotpanel" id="img-b1b33a25-196">
        <metadata>
          <boundingbox value="17.958333333333336mm 86.81166666666665mm 61.70833333333332mm 46.30333333333333mm"/>
          <unitbox value="-0.0693140794223827 12.567331179576078 2.1386281588447655 -13.134662359152156"/>
        </metadata>
        <g shape-rendering="crispEdges" stroke-width="0.3" id="img-b1b33a25-197">
          <g class="geometry" fill-opacity="1" stroke="#000000" stroke-opacity="0.000" fill="#00BFFF" id="img-b1b33a25-198">
            <g transform="translate(47.68,127.59)" id="img-b1b33a25-199">
              <path d="M-0.06,-3.53 L 0.06 -3.53 0.06 3.53 -0.06 3.53 z" class="primitive"/>
            </g>
            <g transform="translate(47.75,131.12)" id="img-b1b33a25-200">
              <path d="M-0.06,-0 L 0.06 -0 0.06 0 -0.06 0 z" class="primitive"/>
            </g>
            <g transform="translate(47.81,129.35)" id="img-b1b33a25-201">
              <path d="M-0.06,-1.76 L 0.06 -1.76 0.06 1.76 -0.06 1.76 z" class="primitive"/>
            </g>
            <g transform="translate(47.87,129.35)" id="img-b1b33a25-202">
              <path d="M-0.06,-1.76 L 0.06 -1.76 0.06 1.76 -0.06 1.76 z" class="primitive"/>
            </g>
            <g transform="translate(47.93,127.59)" id="img-b1b33a25-203">
              <path d="M-0.06,-3.53 L 0.06 -3.53 0.06 3.53 -0.06 3.53 z" class="primitive"/>
            </g>
            <g transform="translate(48,127.59)" id="img-b1b33a25-204">
              <path d="M-0.06,-3.53 L 0.06 -3.53 0.06 3.53 -0.06 3.53 z" class="primitive"/>
            </g>
            <g transform="translate(48.06,129.35)" id="img-b1b33a25-205">
              <path d="M-0.06,-1.76 L 0.06 -1.76 0.06 1.76 -0.06 1.76 z" class="primitive"/>
            </g>
            <g transform="translate(48.12,117.01)" id="img-b1b33a25-206">
              <path d="M-0.06,-14.1 L 0.06 -14.1 0.06 14.1 -0.06 14.1 z" class="primitive"/>
            </g>
            <g transform="translate(48.18,124.06)" id="img-b1b33a25-207">
              <path d="M-0.06,-7.05 L 0.06 -7.05 0.06 7.05 -0.06 7.05 z" class="primitive"/>
            </g>
            <g transform="translate(48.25,129.35)" id="img-b1b33a25-208">
              <path d="M-0.06,-1.76 L 0.06 -1.76 0.06 1.76 -0.06 1.76 z" class="primitive"/>
            </g>
            <g transform="translate(48.31,131.12)" id="img-b1b33a25-209">
              <path d="M-0.06,-0 L 0.06 -0 0.06 0 -0.06 0 z" class="primitive"/>
            </g>
            <g transform="translate(48.37,127.59)" id="img-b1b33a25-210">
              <path d="M-0.06,-3.53 L 0.06 -3.53 0.06 3.53 -0.06 3.53 z" class="primitive"/>
            </g>
            <g transform="translate(48.43,109.96)" id="img-b1b33a25-211">
              <path d="M-0.06,-21.15 L 0.06 -21.15 0.06 21.15 -0.06 21.15 z" class="primitive"/>
            </g>
            <g transform="translate(48.5,124.06)" id="img-b1b33a25-212">
              <path d="M-0.06,-7.05 L 0.06 -7.05 0.06 7.05 -0.06 7.05 z" class="primitive"/>
            </g>
            <g transform="translate(48.56,125.83)" id="img-b1b33a25-213">
              <path d="M-0.06,-5.29 L 0.06 -5.29 0.06 5.29 -0.06 5.29 z" class="primitive"/>
            </g>
            <g transform="translate(48.62,117.01)" id="img-b1b33a25-214">
              <path d="M-0.06,-14.1 L 0.06 -14.1 0.06 14.1 -0.06 14.1 z" class="primitive"/>
            </g>
            <g transform="translate(48.68,111.73)" id="img-b1b33a25-215">
              <path d="M-0.06,-19.39 L 0.06 -19.39 0.06 19.39 -0.06 19.39 z" class="primitive"/>
            </g>
            <g transform="translate(48.74,115.25)" id="img-b1b33a25-216">
              <path d="M-0.06,-15.86 L 0.06 -15.86 0.06 15.86 -0.06 15.86 z" class="primitive"/>
            </g>
            <g transform="translate(48.81,122.3)" id="img-b1b33a25-217">
              <path d="M-0.06,-8.81 L 0.06 -8.81 0.06 8.81 -0.06 8.81 z" class="primitive"/>
            </g>
            <g transform="translate(48.87,118.78)" id="img-b1b33a25-218">
              <path d="M-0.06,-12.34 L 0.06 -12.34 0.06 12.34 -0.06 12.34 z" class="primitive"/>
            </g>
            <g transform="translate(48.93,122.3)" id="img-b1b33a25-219">
              <path d="M-0.06,-8.81 L 0.06 -8.81 0.06 8.81 -0.06 8.81 z" class="primitive"/>
            </g>
            <g transform="translate(48.99,125.83)" id="img-b1b33a25-220">
              <path d="M-0.06,-5.29 L 0.06 -5.29 0.06 5.29 -0.06 5.29 z" class="primitive"/>
            </g>
            <g transform="translate(49.06,122.3)" id="img-b1b33a25-221">
              <path d="M-0.06,-8.81 L 0.06 -8.81 0.06 8.81 -0.06 8.81 z" class="primitive"/>
            </g>
            <g transform="translate(49.12,124.06)" id="img-b1b33a25-222">
              <path d="M-0.06,-7.05 L 0.06 -7.05 0.06 7.05 -0.06 7.05 z" class="primitive"/>
            </g>
            <g transform="translate(49.18,124.06)" id="img-b1b33a25-223">
              <path d="M-0.06,-7.05 L 0.06 -7.05 0.06 7.05 -0.06 7.05 z" class="primitive"/>
            </g>
            <g transform="translate(49.24,129.35)" id="img-b1b33a25-224">
              <path d="M-0.06,-1.76 L 0.06 -1.76 0.06 1.76 -0.06 1.76 z" class="primitive"/>
            </g>
            <g transform="translate(49.31,124.06)" id="img-b1b33a25-225">
              <path d="M-0.06,-7.05 L 0.06 -7.05 0.06 7.05 -0.06 7.05 z" class="primitive"/>
            </g>
            <g transform="translate(49.37,124.06)" id="img-b1b33a25-226">
              <path d="M-0.06,-7.05 L 0.06 -7.05 0.06 7.05 -0.06 7.05 z" class="primitive"/>
            </g>
            <g transform="translate(49.43,122.3)" id="img-b1b33a25-227">
              <path d="M-0.06,-8.81 L 0.06 -8.81 0.06 8.81 -0.06 8.81 z" class="primitive"/>
            </g>
            <g transform="translate(49.49,129.35)" id="img-b1b33a25-228">
              <path d="M-0.06,-1.76 L 0.06 -1.76 0.06 1.76 -0.06 1.76 z" class="primitive"/>
            </g>
            <g transform="translate(49.56,131.12)" id="img-b1b33a25-229">
              <path d="M-0.06,-0 L 0.06 -0 0.06 0 -0.06 0 z" class="primitive"/>
            </g>
            <g transform="translate(49.62,129.35)" id="img-b1b33a25-230">
              <path d="M-0.06,-1.76 L 0.06 -1.76 0.06 1.76 -0.06 1.76 z" class="primitive"/>
            </g>
            <g transform="translate(49.68,129.35)" id="img-b1b33a25-231">
              <path d="M-0.06,-1.76 L 0.06 -1.76 0.06 1.76 -0.06 1.76 z" class="primitive"/>
            </g>
            <g transform="translate(49.74,129.35)" id="img-b1b33a25-232">
              <path d="M-0.06,-1.76 L 0.06 -1.76 0.06 1.76 -0.06 1.76 z" class="primitive"/>
            </g>
            <g transform="translate(49.8,131.12)" id="img-b1b33a25-233">
              <path d="M-0.06,-0 L 0.06 -0 0.06 0 -0.06 0 z" class="primitive"/>
            </g>
            <g transform="translate(49.87,129.35)" id="img-b1b33a25-234">
              <path d="M-0.06,-1.76 L 0.06 -1.76 0.06 1.76 -0.06 1.76 z" class="primitive"/>
            </g>
            <g transform="translate(49.93,129.35)" id="img-b1b33a25-235">
              <path d="M-0.06,-1.76 L 0.06 -1.76 0.06 1.76 -0.06 1.76 z" class="primitive"/>
            </g>
            <g transform="translate(49.99,129.35)" id="img-b1b33a25-236">
              <path d="M-0.06,-1.76 L 0.06 -1.76 0.06 1.76 -0.06 1.76 z" class="primitive"/>
            </g>
            <g transform="translate(50.05,131.12)" id="img-b1b33a25-237">
              <path d="M-0.06,-0 L 0.06 -0 0.06 0 -0.06 0 z" class="primitive"/>
            </g>
            <g transform="translate(50.12,131.12)" id="img-b1b33a25-238">
              <path d="M-0.06,-0 L 0.06 -0 0.06 0 -0.06 0 z" class="primitive"/>
            </g>
            <g transform="translate(50.18,129.35)" id="img-b1b33a25-239">
              <path d="M-0.06,-1.76 L 0.06 -1.76 0.06 1.76 -0.06 1.76 z" class="primitive"/>
            </g>
            <g transform="translate(50.24,131.12)" id="img-b1b33a25-240">
              <path d="M-0.06,-0 L 0.06 -0 0.06 0 -0.06 0 z" class="primitive"/>
            </g>
            <g transform="translate(50.3,131.12)" id="img-b1b33a25-241">
              <path d="M-0.06,-0 L 0.06 -0 0.06 0 -0.06 0 z" class="primitive"/>
            </g>
            <g transform="translate(50.37,131.12)" id="img-b1b33a25-242">
              <path d="M-0.06,-0 L 0.06 -0 0.06 0 -0.06 0 z" class="primitive"/>
            </g>
            <g transform="translate(50.43,131.12)" id="img-b1b33a25-243">
              <path d="M-0.06,-0 L 0.06 -0 0.06 0 -0.06 0 z" class="primitive"/>
            </g>
            <g transform="translate(50.49,131.12)" id="img-b1b33a25-244">
              <path d="M-0.06,-0 L 0.06 -0 0.06 0 -0.06 0 z" class="primitive"/>
            </g>
            <g transform="translate(50.55,131.12)" id="img-b1b33a25-245">
              <path d="M-0.06,-0 L 0.06 -0 0.06 0 -0.06 0 z" class="primitive"/>
            </g>
            <g transform="translate(50.62,131.12)" id="img-b1b33a25-246">
              <path d="M-0.06,-0 L 0.06 -0 0.06 0 -0.06 0 z" class="primitive"/>
            </g>
            <g transform="translate(50.68,131.12)" id="img-b1b33a25-247">
              <path d="M-0.06,-0 L 0.06 -0 0.06 0 -0.06 0 z" class="primitive"/>
            </g>
            <g transform="translate(50.74,129.35)" id="img-b1b33a25-248">
              <path d="M-0.06,-1.76 L 0.06 -1.76 0.06 1.76 -0.06 1.76 z" class="primitive"/>
            </g>
          </g>
        </g>
      </g>
    </g>
  </g>
  <g class="guide ylabels" font-size="2.82" font-family="'PT Sans Caption','Helvetica Neue','Helvetica',sans-serif" fill="#6C606B" id="img-b1b33a25-249">
    <g transform="translate(16.96,131.11)" id="img-b1b33a25-250">
      <g class="primitive">
        <text text-anchor="end" dy="0.35em">0</text>
      </g>
    </g>
    <g transform="translate(16.96,124.06)" id="img-b1b33a25-251">
      <g class="primitive">
        <text text-anchor="end" dy="0.35em">2</text>
      </g>
    </g>
    <g transform="translate(16.96,117.01)" id="img-b1b33a25-252">
      <g class="primitive">
        <text text-anchor="end" dy="0.35em">4</text>
      </g>
    </g>
    <g transform="translate(16.96,109.96)" id="img-b1b33a25-253">
      <g class="primitive">
        <text text-anchor="end" dy="0.35em">6</text>
      </g>
    </g>
    <g transform="translate(16.96,102.91)" id="img-b1b33a25-254">
      <g class="primitive">
        <text text-anchor="end" dy="0.35em">8</text>
      </g>
    </g>
    <g transform="translate(16.96,95.86)" id="img-b1b33a25-255">
      <g class="primitive">
        <text text-anchor="end" dy="0.35em">10</text>
      </g>
    </g>
    <g transform="translate(16.96,88.81)" id="img-b1b33a25-256">
      <g class="primitive">
        <text text-anchor="end" dy="0.35em">12</text>
      </g>
    </g>
  </g>
  <g font-size="3.88" font-family="'PT Sans','Helvetica Neue','Helvetica',sans-serif" fill="#564A55" stroke="#000000" stroke-opacity="0.000" id="img-b1b33a25-257">
    <g transform="translate(8.81,107.96)" id="img-b1b33a25-258">
      <g class="primitive">
        <text text-anchor="middle" dy="0.35em" transform="rotate(-90,0, 2)">Count</text>
      </g>
    </g>
  </g>
  <g font-size="3.88" font-family="'PT Sans','Helvetica Neue','Helvetica',sans-serif" fill="#564A55" stroke="#000000" stroke-opacity="0.000" id="img-b1b33a25-259">
    <g transform="translate(48.81,81.2)" id="img-b1b33a25-260">
      <g class="primitive">
        <text text-anchor="middle" dy="0.6em">XPP</text>
      </g>
    </g>
  </g>
</g>
<g font-size="7.06" font-family="Arial" id="img-b1b33a25-261">
  <g transform="translate(127,38.1)" id="img-b1b33a25-262">
    <g class="primitive">
      <text text-anchor="middle" dy="0.35em">Bastin compilation</text>
    </g>
  </g>
</g>
<defs>
  <clipPath id="img-b1b33a25-4">
    <path d="M187.29,86.81 L 249 86.81 249 133.11 187.29 133.11" />
  </clipPath>
  <clipPath id="img-b1b33a25-90">
    <path d="M100.95,86.81 L 164.33 86.81 164.33 133.11 100.95 133.11" />
  </clipPath>
  <clipPath id="img-b1b33a25-178">
    <path d="M17.96,86.81 L 79.67 86.81 79.67 133.11 17.96 133.11" />
  </clipPath>
</defs>
</svg>
