<?xml version="1.0" encoding="UTF-8"?>
<svg xmlns="http://www.w3.org/2000/svg"
     xmlns:xlink="http://www.w3.org/1999/xlink"
     xmlns:gadfly="http://www.gadflyjl.org/ns"
     version="1.2"
     width="203.2mm" height="101.6mm" viewBox="0 0 203.2 101.6"
     stroke="none"
     fill="#000000"
     stroke-width="0.3"
     font-size="3.88"
>
<defs>
  <marker id="arrow" markerWidth="15" markerHeight="7" refX="5" refY="3.5" orient="auto" markerUnits="strokeWidth">
    <path d="M0,0 L15,3.5 L0,7 z" stroke="context-stroke" fill="context-stroke"/>
  </marker>
</defs>
<g class="plotroot xscalable yscalable" id="img-0cf24993-1">
  <g font-size="3.88" font-family="'PT Sans','Helvetica Neue','Helvetica',sans-serif" fill="#564A55" stroke="#000000" stroke-opacity="0.000" id="img-0cf24993-2">
    <g transform="translate(109.75,89.99)">
      <g class="primitive">
        <text text-anchor="middle" dy="0.6em">kMeas/kCalc</text>
      </g>
    </g>
  </g>
  <g class="guide xlabels" font-size="2.82" font-family="'PT Sans Caption','Helvetica Neue','Helvetica',sans-serif" fill="#6C606B" id="img-0cf24993-3">
    <g transform="translate(23.31,83.32)">
      <g class="primitive">
        <text text-anchor="middle" dy="0.6em">0.0</text>
      </g>
    </g>
    <g transform="translate(66.53,83.32)">
      <g class="primitive">
        <text text-anchor="middle" dy="0.6em">0.5</text>
      </g>
    </g>
    <g transform="translate(109.75,83.32)">
      <g class="primitive">
        <text text-anchor="middle" dy="0.6em">1.0</text>
      </g>
    </g>
    <g transform="translate(152.98,83.32)">
      <g class="primitive">
        <text text-anchor="middle" dy="0.6em">1.5</text>
      </g>
    </g>
    <g transform="translate(196.2,83.32)">
      <g class="primitive">
        <text text-anchor="middle" dy="0.6em">2.0</text>
      </g>
    </g>
  </g>
  <g clip-path="url(#img-0cf24993-4)">
    <g id="img-0cf24993-5">
      <g pointer-events="visible" stroke-width="0.3" fill="#000000" fill-opacity="0.000" stroke="#000000" stroke-opacity="0.000" class="guide background" id="img-0cf24993-6">
        <g transform="translate(109.75,46.46)" id="img-0cf24993-7">
          <path d="M-88.45,-35.85 L 88.45 -35.85 88.45 35.85 -88.45 35.85 z" class="primitive"/>
        </g>
      </g>
      <g class="guide ygridlines xfixed" stroke-dasharray="0.5,0.5" stroke-width="0.2" stroke="#D0D0E0" id="img-0cf24993-8">
        <g transform="translate(109.75,80.32)" id="img-0cf24993-9">
          <path fill="none" d="M-88.45,0 L 88.45 0" class="primitive"/>
        </g>
        <g transform="translate(109.75,57.75)" id="img-0cf24993-10">
          <path fill="none" d="M-88.45,0 L 88.45 0" class="primitive"/>
        </g>
        <g transform="translate(109.75,35.18)" id="img-0cf24993-11">
          <path fill="none" d="M-88.45,0 L 88.45 0" class="primitive"/>
        </g>
        <g transform="translate(109.75,12.61)" id="img-0cf24993-12">
          <path fill="none" d="M-88.45,0 L 88.45 0" class="primitive"/>
        </g>
      </g>
      <g class="guide xgridlines yfixed" stroke-dasharray="0.5,0.5" stroke-width="0.2" stroke="#D0D0E0" id="img-0cf24993-13">
        <g transform="translate(23.31,46.46)" id="img-0cf24993-14">
          <path fill="none" d="M0,-35.85 L 0 35.85" class="primitive"/>
        </g>
        <g transform="translate(66.53,46.46)" id="img-0cf24993-15">
          <path fill="none" d="M0,-35.85 L 0 35.85" class="primitive"/>
        </g>
        <g transform="translate(109.75,46.46)" id="img-0cf24993-16">
          <path fill="none" d="M0,-35.85 L 0 35.85" class="primitive"/>
        </g>
        <g transform="translate(152.98,46.46)" id="img-0cf24993-17">
          <path fill="none" d="M0,-35.85 L 0 35.85" class="primitive"/>
        </g>
        <g transform="translate(196.2,46.46)" id="img-0cf24993-18">
          <path fill="none" d="M0,-35.85 L 0 35.85" class="primitive"/>
        </g>
      </g>
      <g class="plotpanel" id="img-0cf24993-19">
        <metadata>
          <boundingbox value="21.305000000000007mm 10.611666666666665mm 176.89499999999998mm 71.70333333333333mm"/>
          <unitbox value="-0.023135429017611845 1544.310964501994 2.0462708580352236 -1588.6219290039878"/>
        </metadata>
        <g shape-rendering="crispEdges" stroke-width="0.3" id="img-0cf24993-20">
          <g class="geometry" fill-opacity="1" stroke="#000000" stroke-opacity="0.000" fill="#00BFFF" id="img-0cf24993-21">
            <g transform="translate(68.07,80.2)" id="img-0cf24993-22">
              <path d="M-8.82,-0.11 L 8.82 -0.11 8.82 0.11 -8.82 0.11 z" class="primitive"/>
            </g>
            <g transform="translate(85.66,80.18)" id="img-0cf24993-23">
              <path d="M-8.82,-0.14 L 8.82 -0.14 8.82 0.14 -8.82 0.14 z" class="primitive"/>
            </g>
            <g transform="translate(103.24,49.37)" id="img-0cf24993-24">
              <path d="M-8.82,-30.94 L 8.82 -30.94 8.82 30.94 -8.82 30.94 z" class="primitive"/>
            </g>
            <g transform="translate(120.82,71.85)" id="img-0cf24993-25">
              <path d="M-8.82,-8.46 L 8.82 -8.46 8.82 8.46 -8.82 8.46 z" class="primitive"/>
            </g>
            <g transform="translate(138.41,79.68)" id="img-0cf24993-26">
              <path d="M-8.82,-0.63 L 8.82 -0.63 8.82 0.63 -8.82 0.63 z" class="primitive"/>
            </g>
            <g transform="translate(155.99,79.82)" id="img-0cf24993-27">
              <path d="M-8.82,-0.5 L 8.82 -0.5 8.82 0.5 -8.82 0.5 z" class="primitive"/>
            </g>
            <g transform="translate(173.58,80.11)" id="img-0cf24993-28">
              <path d="M-8.82,-0.2 L 8.82 -0.2 8.82 0.2 -8.82 0.2 z" class="primitive"/>
            </g>
            <g transform="translate(191.16,80.27)" id="img-0cf24993-29">
              <path d="M-8.82,-0.05 L 8.82 -0.05 8.82 0.05 -8.82 0.05 z" class="primitive"/>
            </g>
            <g transform="translate(208.74,80.29)" id="img-0cf24993-30">
              <path d="M-8.82,-0.02 L 8.82 -0.02 8.82 0.02 -8.82 0.02 z" class="primitive"/>
            </g>
            <g transform="translate(226.33,80.27)" id="img-0cf24993-31">
              <path d="M-8.82,-0.05 L 8.82 -0.05 8.82 0.05 -8.82 0.05 z" class="primitive"/>
            </g>
            <g transform="translate(243.91,80.32)" id="img-0cf24993-32">
              <path d="M-8.82,-0 L 8.82 -0 8.82 0 -8.82 0 z" class="primitive"/>
            </g>
            <g transform="translate(261.5,80.32)" id="img-0cf24993-33">
              <path d="M-8.82,-0 L 8.82 -0 8.82 0 -8.82 0 z" class="primitive"/>
            </g>
            <g transform="translate(279.08,80.32)" id="img-0cf24993-34">
              <path d="M-8.82,-0 L 8.82 -0 8.82 0 -8.82 0 z" class="primitive"/>
            </g>
            <g transform="translate(296.67,80.32)" id="img-0cf24993-35">
              <path d="M-8.82,-0 L 8.82 -0 8.82 0 -8.82 0 z" class="primitive"/>
            </g>
            <g transform="translate(314.25,80.32)" id="img-0cf24993-36">
              <path d="M-8.82,-0 L 8.82 -0 8.82 0 -8.82 0 z" class="primitive"/>
            </g>
            <g transform="translate(331.83,80.32)" id="img-0cf24993-37">
              <path d="M-8.82,-0 L 8.82 -0 8.82 0 -8.82 0 z" class="primitive"/>
            </g>
            <g transform="translate(349.42,80.32)" id="img-0cf24993-38">
              <path d="M-8.82,-0 L 8.82 -0 8.82 0 -8.82 0 z" class="primitive"/>
            </g>
            <g transform="translate(367,80.32)" id="img-0cf24993-39">
              <path d="M-8.82,-0 L 8.82 -0 8.82 0 -8.82 0 z" class="primitive"/>
            </g>
            <g transform="translate(384.59,80.32)" id="img-0cf24993-40">
              <path d="M-8.82,-0 L 8.82 -0 8.82 0 -8.82 0 z" class="primitive"/>
            </g>
            <g transform="translate(402.17,80.32)" id="img-0cf24993-41">
              <path d="M-8.82,-0 L 8.82 -0 8.82 0 -8.82 0 z" class="primitive"/>
            </g>
            <g transform="translate(419.76,80.32)" id="img-0cf24993-42">
              <path d="M-8.82,-0 L 8.82 -0 8.82 0 -8.82 0 z" class="primitive"/>
            </g>
            <g transform="translate(437.34,80.32)" id="img-0cf24993-43">
              <path d="M-8.82,-0 L 8.82 -0 8.82 0 -8.82 0 z" class="primitive"/>
            </g>
            <g transform="translate(454.92,80.32)" id="img-0cf24993-44">
              <path d="M-8.82,-0 L 8.82 -0 8.82 0 -8.82 0 z" class="primitive"/>
            </g>
            <g transform="translate(472.51,80.32)" id="img-0cf24993-45">
              <path d="M-8.82,-0 L 8.82 -0 8.82 0 -8.82 0 z" class="primitive"/>
            </g>
            <g transform="translate(490.09,80.32)" id="img-0cf24993-46">
              <path d="M-8.82,-0 L 8.82 -0 8.82 0 -8.82 0 z" class="primitive"/>
            </g>
            <g transform="translate(507.68,80.32)" id="img-0cf24993-47">
              <path d="M-8.82,-0 L 8.82 -0 8.82 0 -8.82 0 z" class="primitive"/>
            </g>
            <g transform="translate(525.26,80.32)" id="img-0cf24993-48">
              <path d="M-8.82,-0 L 8.82 -0 8.82 0 -8.82 0 z" class="primitive"/>
            </g>
            <g transform="translate(542.84,80.32)" id="img-0cf24993-49">
              <path d="M-8.82,-0 L 8.82 -0 8.82 0 -8.82 0 z" class="primitive"/>
            </g>
            <g transform="translate(560.43,80.32)" id="img-0cf24993-50">
              <path d="M-8.82,-0 L 8.82 -0 8.82 0 -8.82 0 z" class="primitive"/>
            </g>
            <g transform="translate(578.01,80.32)" id="img-0cf24993-51">
              <path d="M-8.82,-0 L 8.82 -0 8.82 0 -8.82 0 z" class="primitive"/>
            </g>
            <g transform="translate(595.6,80.32)" id="img-0cf24993-52">
              <path d="M-8.82,-0 L 8.82 -0 8.82 0 -8.82 0 z" class="primitive"/>
            </g>
            <g transform="translate(613.18,80.32)" id="img-0cf24993-53">
              <path d="M-8.82,-0 L 8.82 -0 8.82 0 -8.82 0 z" class="primitive"/>
            </g>
            <g transform="translate(630.77,80.32)" id="img-0cf24993-54">
              <path d="M-8.82,-0 L 8.82 -0 8.82 0 -8.82 0 z" class="primitive"/>
            </g>
            <g transform="translate(648.35,80.32)" id="img-0cf24993-55">
              <path d="M-8.82,-0 L 8.82 -0 8.82 0 -8.82 0 z" class="primitive"/>
            </g>
            <g transform="translate(665.93,80.32)" id="img-0cf24993-56">
              <path d="M-8.82,-0 L 8.82 -0 8.82 0 -8.82 0 z" class="primitive"/>
            </g>
            <g transform="translate(683.52,80.32)" id="img-0cf24993-57">
              <path d="M-8.82,-0 L 8.82 -0 8.82 0 -8.82 0 z" class="primitive"/>
            </g>
            <g transform="translate(701.1,80.32)" id="img-0cf24993-58">
              <path d="M-8.82,-0 L 8.82 -0 8.82 0 -8.82 0 z" class="primitive"/>
            </g>
            <g transform="translate(718.69,80.32)" id="img-0cf24993-59">
              <path d="M-8.82,-0 L 8.82 -0 8.82 0 -8.82 0 z" class="primitive"/>
            </g>
            <g transform="translate(736.27,80.32)" id="img-0cf24993-60">
              <path d="M-8.82,-0 L 8.82 -0 8.82 0 -8.82 0 z" class="primitive"/>
            </g>
            <g transform="translate(753.86,80.32)" id="img-0cf24993-61">
              <path d="M-8.82,-0 L 8.82 -0 8.82 0 -8.82 0 z" class="primitive"/>
            </g>
            <g transform="translate(771.44,80.32)" id="img-0cf24993-62">
              <path d="M-8.82,-0 L 8.82 -0 8.82 0 -8.82 0 z" class="primitive"/>
            </g>
            <g transform="translate(789.02,80.32)" id="img-0cf24993-63">
              <path d="M-8.82,-0 L 8.82 -0 8.82 0 -8.82 0 z" class="primitive"/>
            </g>
            <g transform="translate(806.61,80.32)" id="img-0cf24993-64">
              <path d="M-8.82,-0 L 8.82 -0 8.82 0 -8.82 0 z" class="primitive"/>
            </g>
            <g transform="translate(824.19,80.32)" id="img-0cf24993-65">
              <path d="M-8.82,-0 L 8.82 -0 8.82 0 -8.82 0 z" class="primitive"/>
            </g>
            <g transform="translate(841.78,80.32)" id="img-0cf24993-66">
              <path d="M-8.82,-0 L 8.82 -0 8.82 0 -8.82 0 z" class="primitive"/>
            </g>
            <g transform="translate(859.36,80.32)" id="img-0cf24993-67">
              <path d="M-8.82,-0 L 8.82 -0 8.82 0 -8.82 0 z" class="primitive"/>
            </g>
            <g transform="translate(876.94,80.32)" id="img-0cf24993-68">
              <path d="M-8.82,-0 L 8.82 -0 8.82 0 -8.82 0 z" class="primitive"/>
            </g>
            <g transform="translate(894.53,80.32)" id="img-0cf24993-69">
              <path d="M-8.82,-0 L 8.82 -0 8.82 0 -8.82 0 z" class="primitive"/>
            </g>
            <g transform="translate(912.11,80.27)" id="img-0cf24993-70">
              <path d="M-8.82,-0.05 L 8.82 -0.05 8.82 0.05 -8.82 0.05 z" class="primitive"/>
            </g>
            <g transform="translate(929.7,80.27)" id="img-0cf24993-71">
              <path d="M-8.82,-0.05 L 8.82 -0.05 8.82 0.05 -8.82 0.05 z" class="primitive"/>
            </g>
          </g>
        </g>
      </g>
    </g>
  </g>
  <g class="guide ylabels" font-size="2.82" font-family="'PT Sans Caption','Helvetica Neue','Helvetica',sans-serif" fill="#6C606B" id="img-0cf24993-72">
    <g transform="translate(20.3,80.32)" id="img-0cf24993-73">
      <g class="primitive">
        <text text-anchor="end" dy="0.35em">0</text>
      </g>
    </g>
    <g transform="translate(20.3,57.75)" id="img-0cf24993-74">
      <g class="primitive">
        <text text-anchor="end" dy="0.35em">500</text>
      </g>
    </g>
    <g transform="translate(20.3,35.18)" id="img-0cf24993-75">
      <g class="primitive">
        <text text-anchor="end" dy="0.35em">1000</text>
      </g>
    </g>
    <g transform="translate(20.3,12.61)" id="img-0cf24993-76">
      <g class="primitive">
        <text text-anchor="end" dy="0.35em">1500</text>
      </g>
    </g>
  </g>
  <g font-size="3.88" font-family="'PT Sans','Helvetica Neue','Helvetica',sans-serif" fill="#564A55" stroke="#000000" stroke-opacity="0.000" id="img-0cf24993-77">
    <g transform="translate(8.81,44.46)" id="img-0cf24993-78">
      <g class="primitive">
        <text text-anchor="middle" dy="0.35em" transform="rotate(-90,0, 2)">Count</text>
      </g>
    </g>
  </g>
  <g font-size="3.88" font-family="'PT Sans','Helvetica Neue','Helvetica',sans-serif" fill="#564A55" stroke="#000000" stroke-opacity="0.000" id="img-0cf24993-79">
    <g transform="translate(109.75,5)" id="img-0cf24993-80">
      <g class="primitive">
        <text text-anchor="middle" dy="0.6em">XPP</text>
      </g>
    </g>
  </g>
</g>
<defs>
  <clipPath id="img-0cf24993-4">
    <path d="M21.31,10.61 L 198.2 10.61 198.2 82.32 21.31 82.32" />
  </clipPath>
</defs>
</svg>
