<?xml version="1.0" encoding="UTF-8"?>
<svg xmlns="http://www.w3.org/2000/svg"
     xmlns:xlink="http://www.w3.org/1999/xlink"
     xmlns:gadfly="http://www.gadflyjl.org/ns"
     version="1.2"
     width="254mm" height="152.4mm" viewBox="0 0 254 152.4"
     stroke="none"
     fill="#000000"
     stroke-width="0.3"
     font-size="3.88"
>
<defs>
  <marker id="arrow" markerWidth="15" markerHeight="7" refX="5" refY="3.5" orient="auto" markerUnits="strokeWidth">
    <path d="M0,0 L15,3.5 L0,7 z" stroke="context-stroke" fill="context-stroke"/>
  </marker>
</defs>
<g class="plotroot xscalable yscalable" id="img-dea0543b-1">
  <g font-size="3.88" font-family="'PT Sans','Helvetica Neue','Helvetica',sans-serif" fill="#564A55" stroke="#000000" stroke-opacity="0.000" id="img-dea0543b-2">
    <g transform="translate(196.14,140.79)">
      <g class="primitive">
        <text text-anchor="middle" dy="0.6em">kMeas/kCalc</text>
      </g>
    </g>
  </g>
  <g class="guide xlabels" font-size="2.82" font-family="'PT Sans Caption','Helvetica Neue','Helvetica',sans-serif" fill="#6C606B" id="img-dea0543b-3">
    <g transform="translate(145.28,134.11)">
      <g class="primitive">
        <text text-anchor="middle" dy="0.6em">0.0</text>
      </g>
    </g>
    <g transform="translate(170.71,134.11)">
      <g class="primitive">
        <text text-anchor="middle" dy="0.6em">0.5</text>
      </g>
    </g>
    <g transform="translate(196.14,134.11)">
      <g class="primitive">
        <text text-anchor="middle" dy="0.6em">1.0</text>
      </g>
    </g>
    <g transform="translate(221.57,134.11)">
      <g class="primitive">
        <text text-anchor="middle" dy="0.6em">1.5</text>
      </g>
    </g>
    <g transform="translate(247,134.11)">
      <g class="primitive">
        <text text-anchor="middle" dy="0.6em">2.0</text>
      </g>
    </g>
  </g>
  <g clip-path="url(#img-dea0543b-4)">
    <g id="img-dea0543b-5">
      <g pointer-events="visible" stroke-width="0.3" fill="#000000" fill-opacity="0.000" stroke="#000000" stroke-opacity="0.000" class="guide background" id="img-dea0543b-6">
        <g transform="translate(196.14,71.86)" id="img-dea0543b-7">
          <path d="M-52.86,-61.25 L 52.86 -61.25 52.86 61.25 -52.86 61.25 z" class="primitive"/>
        </g>
      </g>
      <g class="guide ygridlines xfixed" stroke-dasharray="0.5,0.5" stroke-width="0.2" stroke="#D0D0E0" id="img-dea0543b-8">
        <g transform="translate(196.14,131.12)" id="img-dea0543b-9">
          <path fill="none" d="M-52.86,0 L 52.86 0" class="primitive"/>
        </g>
        <g transform="translate(196.14,111.36)" id="img-dea0543b-10">
          <path fill="none" d="M-52.86,0 L 52.86 0" class="primitive"/>
        </g>
        <g transform="translate(196.14,91.61)" id="img-dea0543b-11">
          <path fill="none" d="M-52.86,0 L 52.86 0" class="primitive"/>
        </g>
        <g transform="translate(196.14,71.86)" id="img-dea0543b-12">
          <path fill="none" d="M-52.86,0 L 52.86 0" class="primitive"/>
        </g>
        <g transform="translate(196.14,52.11)" id="img-dea0543b-13">
          <path fill="none" d="M-52.86,0 L 52.86 0" class="primitive"/>
        </g>
        <g transform="translate(196.14,32.36)" id="img-dea0543b-14">
          <path fill="none" d="M-52.86,0 L 52.86 0" class="primitive"/>
        </g>
        <g transform="translate(196.14,12.61)" id="img-dea0543b-15">
          <path fill="none" d="M-52.86,0 L 52.86 0" class="primitive"/>
        </g>
      </g>
      <g class="guide xgridlines yfixed" stroke-dasharray="0.5,0.5" stroke-width="0.2" stroke="#D0D0E0" id="img-dea0543b-16">
        <g transform="translate(145.28,71.86)" id="img-dea0543b-17">
          <path fill="none" d="M0,-61.25 L 0 61.25" class="primitive"/>
        </g>
        <g transform="translate(170.71,71.86)" id="img-dea0543b-18">
          <path fill="none" d="M0,-61.25 L 0 61.25" class="primitive"/>
        </g>
        <g transform="translate(196.14,71.86)" id="img-dea0543b-19">
          <path fill="none" d="M0,-61.25 L 0 61.25" class="primitive"/>
        </g>
        <g transform="translate(221.57,71.86)" id="img-dea0543b-20">
          <path fill="none" d="M0,-61.25 L 0 61.25" class="primitive"/>
        </g>
        <g transform="translate(247,71.86)" id="img-dea0543b-21">
          <path fill="none" d="M0,-61.25 L 0 61.25" class="primitive"/>
        </g>
      </g>
      <g class="plotpanel" id="img-dea0543b-22">
        <metadata>
          <boundingbox value="143.285mm 10.611666666666679mm 105.715mm 122.50333333333333mm"/>
          <unitbox value="-0.03932556653394288 6.101262974318584 2.078651133067886 -6.202525948637169"/>
        </metadata>
        <g shape-rendering="crispEdges" stroke-width="0.3" id="img-dea0543b-23">
          <g class="geometry" fill-opacity="1" stroke="#000000" stroke-opacity="0.000" fill="#00BFFF" id="img-dea0543b-24">
            <g transform="translate(192.07,111.36)" id="img-dea0543b-25">
              <path d="M-0.07,-19.75 L 0.07 -19.75 0.07 19.75 -0.07 19.75 z" class="primitive"/>
            </g>
            <g transform="translate(192.16,131.12)" id="img-dea0543b-26">
              <path d="M-0.07,-0 L 0.07 -0 0.07 0 -0.07 0 z" class="primitive"/>
            </g>
            <g transform="translate(192.26,131.12)" id="img-dea0543b-27">
              <path d="M-0.07,-0 L 0.07 -0 0.07 0 -0.07 0 z" class="primitive"/>
            </g>
            <g transform="translate(192.36,131.12)" id="img-dea0543b-28">
              <path d="M-0.07,-0 L 0.07 -0 0.07 0 -0.07 0 z" class="primitive"/>
            </g>
            <g transform="translate(192.46,131.12)" id="img-dea0543b-29">
              <path d="M-0.07,-0 L 0.07 -0 0.07 0 -0.07 0 z" class="primitive"/>
            </g>
            <g transform="translate(192.56,121.24)" id="img-dea0543b-30">
              <path d="M-0.07,-9.88 L 0.07 -9.88 0.07 9.88 -0.07 9.88 z" class="primitive"/>
            </g>
            <g transform="translate(192.65,131.12)" id="img-dea0543b-31">
              <path d="M-0.07,-0 L 0.07 -0 0.07 0 -0.07 0 z" class="primitive"/>
            </g>
            <g transform="translate(192.75,131.12)" id="img-dea0543b-32">
              <path d="M-0.07,-0 L 0.07 -0 0.07 0 -0.07 0 z" class="primitive"/>
            </g>
            <g transform="translate(192.85,111.36)" id="img-dea0543b-33">
              <path d="M-0.07,-19.75 L 0.07 -19.75 0.07 19.75 -0.07 19.75 z" class="primitive"/>
            </g>
            <g transform="translate(192.95,131.12)" id="img-dea0543b-34">
              <path d="M-0.07,-0 L 0.07 -0 0.07 0 -0.07 0 z" class="primitive"/>
            </g>
            <g transform="translate(193.05,131.12)" id="img-dea0543b-35">
              <path d="M-0.07,-0 L 0.07 -0 0.07 0 -0.07 0 z" class="primitive"/>
            </g>
            <g transform="translate(193.14,131.12)" id="img-dea0543b-36">
              <path d="M-0.07,-0 L 0.07 -0 0.07 0 -0.07 0 z" class="primitive"/>
            </g>
            <g transform="translate(193.24,131.12)" id="img-dea0543b-37">
              <path d="M-0.07,-0 L 0.07 -0 0.07 0 -0.07 0 z" class="primitive"/>
            </g>
            <g transform="translate(193.34,121.24)" id="img-dea0543b-38">
              <path d="M-0.07,-9.88 L 0.07 -9.88 0.07 9.88 -0.07 9.88 z" class="primitive"/>
            </g>
            <g transform="translate(193.44,131.12)" id="img-dea0543b-39">
              <path d="M-0.07,-0 L 0.07 -0 0.07 0 -0.07 0 z" class="primitive"/>
            </g>
            <g transform="translate(193.54,131.12)" id="img-dea0543b-40">
              <path d="M-0.07,-0 L 0.07 -0 0.07 0 -0.07 0 z" class="primitive"/>
            </g>
            <g transform="translate(193.63,131.12)" id="img-dea0543b-41">
              <path d="M-0.07,-0 L 0.07 -0 0.07 0 -0.07 0 z" class="primitive"/>
            </g>
            <g transform="translate(193.73,131.12)" id="img-dea0543b-42">
              <path d="M-0.07,-0 L 0.07 -0 0.07 0 -0.07 0 z" class="primitive"/>
            </g>
            <g transform="translate(193.83,131.12)" id="img-dea0543b-43">
              <path d="M-0.07,-0 L 0.07 -0 0.07 0 -0.07 0 z" class="primitive"/>
            </g>
            <g transform="translate(193.93,131.12)" id="img-dea0543b-44">
              <path d="M-0.07,-0 L 0.07 -0 0.07 0 -0.07 0 z" class="primitive"/>
            </g>
            <g transform="translate(194.03,131.12)" id="img-dea0543b-45">
              <path d="M-0.07,-0 L 0.07 -0 0.07 0 -0.07 0 z" class="primitive"/>
            </g>
            <g transform="translate(194.12,131.12)" id="img-dea0543b-46">
              <path d="M-0.07,-0 L 0.07 -0 0.07 0 -0.07 0 z" class="primitive"/>
            </g>
            <g transform="translate(194.22,131.12)" id="img-dea0543b-47">
              <path d="M-0.07,-0 L 0.07 -0 0.07 0 -0.07 0 z" class="primitive"/>
            </g>
            <g transform="translate(194.32,131.12)" id="img-dea0543b-48">
              <path d="M-0.07,-0 L 0.07 -0 0.07 0 -0.07 0 z" class="primitive"/>
            </g>
            <g transform="translate(194.42,131.12)" id="img-dea0543b-49">
              <path d="M-0.07,-0 L 0.07 -0 0.07 0 -0.07 0 z" class="primitive"/>
            </g>
            <g transform="translate(194.52,131.12)" id="img-dea0543b-50">
              <path d="M-0.07,-0 L 0.07 -0 0.07 0 -0.07 0 z" class="primitive"/>
            </g>
            <g transform="translate(194.61,131.12)" id="img-dea0543b-51">
              <path d="M-0.07,-0 L 0.07 -0 0.07 0 -0.07 0 z" class="primitive"/>
            </g>
            <g transform="translate(194.71,131.12)" id="img-dea0543b-52">
              <path d="M-0.07,-0 L 0.07 -0 0.07 0 -0.07 0 z" class="primitive"/>
            </g>
            <g transform="translate(194.81,131.12)" id="img-dea0543b-53">
              <path d="M-0.07,-0 L 0.07 -0 0.07 0 -0.07 0 z" class="primitive"/>
            </g>
            <g transform="translate(194.91,131.12)" id="img-dea0543b-54">
              <path d="M-0.07,-0 L 0.07 -0 0.07 0 -0.07 0 z" class="primitive"/>
            </g>
            <g transform="translate(195.01,131.12)" id="img-dea0543b-55">
              <path d="M-0.07,-0 L 0.07 -0 0.07 0 -0.07 0 z" class="primitive"/>
            </g>
            <g transform="translate(195.1,121.24)" id="img-dea0543b-56">
              <path d="M-0.07,-9.88 L 0.07 -9.88 0.07 9.88 -0.07 9.88 z" class="primitive"/>
            </g>
            <g transform="translate(195.2,121.24)" id="img-dea0543b-57">
              <path d="M-0.07,-9.88 L 0.07 -9.88 0.07 9.88 -0.07 9.88 z" class="primitive"/>
            </g>
            <g transform="translate(195.3,131.12)" id="img-dea0543b-58">
              <path d="M-0.07,-0 L 0.07 -0 0.07 0 -0.07 0 z" class="primitive"/>
            </g>
            <g transform="translate(195.4,101.49)" id="img-dea0543b-59">
              <path d="M-0.07,-29.63 L 0.07 -29.63 0.07 29.63 -0.07 29.63 z" class="primitive"/>
            </g>
            <g transform="translate(195.5,111.36)" id="img-dea0543b-60">
              <path d="M-0.07,-19.75 L 0.07 -19.75 0.07 19.75 -0.07 19.75 z" class="primitive"/>
            </g>
            <g transform="translate(195.59,81.74)" id="img-dea0543b-61">
              <path d="M-0.07,-49.38 L 0.07 -49.38 0.07 49.38 -0.07 49.38 z" class="primitive"/>
            </g>
            <g transform="translate(195.69,71.86)" id="img-dea0543b-62">
              <path d="M-0.07,-59.25 L 0.07 -59.25 0.07 59.25 -0.07 59.25 z" class="primitive"/>
            </g>
            <g transform="translate(195.79,101.49)" id="img-dea0543b-63">
              <path d="M-0.07,-29.63 L 0.07 -29.63 0.07 29.63 -0.07 29.63 z" class="primitive"/>
            </g>
            <g transform="translate(195.89,111.36)" id="img-dea0543b-64">
              <path d="M-0.07,-19.75 L 0.07 -19.75 0.07 19.75 -0.07 19.75 z" class="primitive"/>
            </g>
            <g transform="translate(195.99,101.49)" id="img-dea0543b-65">
              <path d="M-0.07,-29.63 L 0.07 -29.63 0.07 29.63 -0.07 29.63 z" class="primitive"/>
            </g>
            <g transform="translate(196.08,91.61)" id="img-dea0543b-66">
              <path d="M-0.07,-39.5 L 0.07 -39.5 0.07 39.5 -0.07 39.5 z" class="primitive"/>
            </g>
            <g transform="translate(196.18,121.24)" id="img-dea0543b-67">
              <path d="M-0.07,-9.88 L 0.07 -9.88 0.07 9.88 -0.07 9.88 z" class="primitive"/>
            </g>
            <g transform="translate(196.28,111.36)" id="img-dea0543b-68">
              <path d="M-0.07,-19.75 L 0.07 -19.75 0.07 19.75 -0.07 19.75 z" class="primitive"/>
            </g>
            <g transform="translate(196.38,81.74)" id="img-dea0543b-69">
              <path d="M-0.07,-49.38 L 0.07 -49.38 0.07 49.38 -0.07 49.38 z" class="primitive"/>
            </g>
            <g transform="translate(196.48,121.24)" id="img-dea0543b-70">
              <path d="M-0.07,-9.88 L 0.07 -9.88 0.07 9.88 -0.07 9.88 z" class="primitive"/>
            </g>
            <g transform="translate(196.57,131.12)" id="img-dea0543b-71">
              <path d="M-0.07,-0 L 0.07 -0 0.07 0 -0.07 0 z" class="primitive"/>
            </g>
            <g transform="translate(196.67,121.24)" id="img-dea0543b-72">
              <path d="M-0.07,-9.88 L 0.07 -9.88 0.07 9.88 -0.07 9.88 z" class="primitive"/>
            </g>
            <g transform="translate(196.77,121.24)" id="img-dea0543b-73">
              <path d="M-0.07,-9.88 L 0.07 -9.88 0.07 9.88 -0.07 9.88 z" class="primitive"/>
            </g>
            <g transform="translate(196.87,121.24)" id="img-dea0543b-74">
              <path d="M-0.07,-9.88 L 0.07 -9.88 0.07 9.88 -0.07 9.88 z" class="primitive"/>
            </g>
          </g>
        </g>
      </g>
    </g>
  </g>
  <g class="guide ylabels" font-size="2.82" font-family="'PT Sans Caption','Helvetica Neue','Helvetica',sans-serif" fill="#6C606B" id="img-dea0543b-75">
    <g transform="translate(142.29,131.12)" id="img-dea0543b-76">
      <g class="primitive">
        <text text-anchor="end" dy="0.35em">0</text>
      </g>
    </g>
    <g transform="translate(142.29,111.36)" id="img-dea0543b-77">
      <g class="primitive">
        <text text-anchor="end" dy="0.35em">1</text>
      </g>
    </g>
    <g transform="translate(142.29,91.61)" id="img-dea0543b-78">
      <g class="primitive">
        <text text-anchor="end" dy="0.35em">2</text>
      </g>
    </g>
    <g transform="translate(142.29,71.86)" id="img-dea0543b-79">
      <g class="primitive">
        <text text-anchor="end" dy="0.35em">3</text>
      </g>
    </g>
    <g transform="translate(142.29,52.11)" id="img-dea0543b-80">
      <g class="primitive">
        <text text-anchor="end" dy="0.35em">4</text>
      </g>
    </g>
    <g transform="translate(142.29,32.36)" id="img-dea0543b-81">
      <g class="primitive">
        <text text-anchor="end" dy="0.35em">5</text>
      </g>
    </g>
    <g transform="translate(142.29,12.61)" id="img-dea0543b-82">
      <g class="primitive">
        <text text-anchor="end" dy="0.35em">6</text>
      </g>
    </g>
  </g>
  <g font-size="3.88" font-family="'PT Sans','Helvetica Neue','Helvetica',sans-serif" fill="#564A55" stroke="#000000" stroke-opacity="0.000" id="img-dea0543b-83">
    <g transform="translate(135.81,69.86)" id="img-dea0543b-84">
      <g class="primitive">
        <text text-anchor="middle" dy="0.35em" transform="rotate(-90,0, 2)">Count</text>
      </g>
    </g>
  </g>
  <g font-size="3.88" font-family="'PT Sans','Helvetica Neue','Helvetica',sans-serif" fill="#564A55" stroke="#000000" stroke-opacity="0.000" id="img-dea0543b-85">
    <g transform="translate(196.14,5)" id="img-dea0543b-86">
      <g class="primitive">
        <text text-anchor="middle" dy="0.6em">Less So</text>
      </g>
    </g>
  </g>
</g>
<g class="plotroot xscalable yscalable" id="img-dea0543b-87">
  <g font-size="3.88" font-family="'PT Sans','Helvetica Neue','Helvetica',sans-serif" fill="#564A55" stroke="#000000" stroke-opacity="0.000" id="img-dea0543b-88">
    <g transform="translate(69.14,140.79)" id="img-dea0543b-89">
      <g class="primitive">
        <text text-anchor="middle" dy="0.6em">kMeas/kCalc</text>
      </g>
    </g>
  </g>
  <g class="guide xlabels" font-size="2.82" font-family="'PT Sans Caption','Helvetica Neue','Helvetica',sans-serif" fill="#6C606B" id="img-dea0543b-90">
    <g transform="translate(18.28,134.11)" id="img-dea0543b-91">
      <g class="primitive">
        <text text-anchor="middle" dy="0.6em">0.0</text>
      </g>
    </g>
    <g transform="translate(43.71,134.11)" id="img-dea0543b-92">
      <g class="primitive">
        <text text-anchor="middle" dy="0.6em">0.5</text>
      </g>
    </g>
    <g transform="translate(69.14,134.11)" id="img-dea0543b-93">
      <g class="primitive">
        <text text-anchor="middle" dy="0.6em">1.0</text>
      </g>
    </g>
    <g transform="translate(94.57,134.11)" id="img-dea0543b-94">
      <g class="primitive">
        <text text-anchor="middle" dy="0.6em">1.5</text>
      </g>
    </g>
    <g transform="translate(120,134.11)" id="img-dea0543b-95">
      <g class="primitive">
        <text text-anchor="middle" dy="0.6em">2.0</text>
      </g>
    </g>
  </g>
  <g clip-path="url(#img-dea0543b-96)">
    <g id="img-dea0543b-97">
      <g pointer-events="visible" stroke-width="0.3" fill="#000000" fill-opacity="0.000" stroke="#000000" stroke-opacity="0.000" class="guide background" id="img-dea0543b-98">
        <g transform="translate(69.14,71.86)" id="img-dea0543b-99">
          <path d="M-52.86,-61.25 L 52.86 -61.25 52.86 61.25 -52.86 61.25 z" class="primitive"/>
        </g>
      </g>
      <g class="guide ygridlines xfixed" stroke-dasharray="0.5,0.5" stroke-width="0.2" stroke="#D0D0E0" id="img-dea0543b-100">
        <g transform="translate(69.14,131.11)" id="img-dea0543b-101">
          <path fill="none" d="M-52.86,0 L 52.86 0" class="primitive"/>
        </g>
        <g transform="translate(69.14,107.41)" id="img-dea0543b-102">
          <path fill="none" d="M-52.86,0 L 52.86 0" class="primitive"/>
        </g>
        <g transform="translate(69.14,83.71)" id="img-dea0543b-103">
          <path fill="none" d="M-52.86,0 L 52.86 0" class="primitive"/>
        </g>
        <g transform="translate(69.14,60.01)" id="img-dea0543b-104">
          <path fill="none" d="M-52.86,0 L 52.86 0" class="primitive"/>
        </g>
        <g transform="translate(69.14,36.31)" id="img-dea0543b-105">
          <path fill="none" d="M-52.86,0 L 52.86 0" class="primitive"/>
        </g>
        <g transform="translate(69.14,12.61)" id="img-dea0543b-106">
          <path fill="none" d="M-52.86,0 L 52.86 0" class="primitive"/>
        </g>
      </g>
      <g class="guide xgridlines yfixed" stroke-dasharray="0.5,0.5" stroke-width="0.2" stroke="#D0D0E0" id="img-dea0543b-107">
        <g transform="translate(18.28,71.86)" id="img-dea0543b-108">
          <path fill="none" d="M0,-61.25 L 0 61.25" class="primitive"/>
        </g>
        <g transform="translate(43.71,71.86)" id="img-dea0543b-109">
          <path fill="none" d="M0,-61.25 L 0 61.25" class="primitive"/>
        </g>
        <g transform="translate(69.14,71.86)" id="img-dea0543b-110">
          <path fill="none" d="M0,-61.25 L 0 61.25" class="primitive"/>
        </g>
        <g transform="translate(94.57,71.86)" id="img-dea0543b-111">
          <path fill="none" d="M0,-61.25 L 0 61.25" class="primitive"/>
        </g>
        <g transform="translate(120,71.86)" id="img-dea0543b-112">
          <path fill="none" d="M0,-61.25 L 0 61.25" class="primitive"/>
        </g>
      </g>
      <g class="plotpanel" id="img-dea0543b-113">
        <metadata>
          <boundingbox value="16.284999999999997mm 10.611666666666679mm 105.715mm 122.5033333333333mm"/>
          <unitbox value="-0.03932556653394288 5.084385811932154 2.078651133067886 -5.168771623864307"/>
        </metadata>
        <g shape-rendering="crispEdges" stroke-width="0.3" id="img-dea0543b-114">
          <g class="geometry" fill-opacity="1" stroke="#000000" stroke-opacity="0.000" fill="#00BFFF" id="img-dea0543b-115">
            <g transform="translate(66.84,119.26)" id="img-dea0543b-116">
              <path d="M-0.09,-11.85 L 0.09 -11.85 0.09 11.85 -0.09 11.85 z" class="primitive"/>
            </g>
            <g transform="translate(66.97,131.12)" id="img-dea0543b-117">
              <path d="M-0.09,-0 L 0.09 -0 0.09 0 -0.09 0 z" class="primitive"/>
            </g>
            <g transform="translate(67.1,107.41)" id="img-dea0543b-118">
              <path d="M-0.09,-23.7 L 0.09 -23.7 0.09 23.7 -0.09 23.7 z" class="primitive"/>
            </g>
            <g transform="translate(67.23,131.12)" id="img-dea0543b-119">
              <path d="M-0.09,-0 L 0.09 -0 0.09 0 -0.09 0 z" class="primitive"/>
            </g>
            <g transform="translate(67.35,119.26)" id="img-dea0543b-120">
              <path d="M-0.09,-11.85 L 0.09 -11.85 0.09 11.85 -0.09 11.85 z" class="primitive"/>
            </g>
            <g transform="translate(67.48,119.26)" id="img-dea0543b-121">
              <path d="M-0.09,-11.85 L 0.09 -11.85 0.09 11.85 -0.09 11.85 z" class="primitive"/>
            </g>
            <g transform="translate(67.61,119.26)" id="img-dea0543b-122">
              <path d="M-0.09,-11.85 L 0.09 -11.85 0.09 11.85 -0.09 11.85 z" class="primitive"/>
            </g>
            <g transform="translate(67.74,119.26)" id="img-dea0543b-123">
              <path d="M-0.09,-11.85 L 0.09 -11.85 0.09 11.85 -0.09 11.85 z" class="primitive"/>
            </g>
            <g transform="translate(67.87,119.26)" id="img-dea0543b-124">
              <path d="M-0.09,-11.85 L 0.09 -11.85 0.09 11.85 -0.09 11.85 z" class="primitive"/>
            </g>
            <g transform="translate(67.99,131.12)" id="img-dea0543b-125">
              <path d="M-0.09,-0 L 0.09 -0 0.09 0 -0.09 0 z" class="primitive"/>
            </g>
            <g transform="translate(68.12,119.26)" id="img-dea0543b-126">
              <path d="M-0.09,-11.85 L 0.09 -11.85 0.09 11.85 -0.09 11.85 z" class="primitive"/>
            </g>
            <g transform="translate(68.25,119.26)" id="img-dea0543b-127">
              <path d="M-0.09,-11.85 L 0.09 -11.85 0.09 11.85 -0.09 11.85 z" class="primitive"/>
            </g>
            <g transform="translate(68.38,119.26)" id="img-dea0543b-128">
              <path d="M-0.09,-11.85 L 0.09 -11.85 0.09 11.85 -0.09 11.85 z" class="primitive"/>
            </g>
            <g transform="translate(68.5,131.12)" id="img-dea0543b-129">
              <path d="M-0.09,-0 L 0.09 -0 0.09 0 -0.09 0 z" class="primitive"/>
            </g>
            <g transform="translate(68.63,71.86)" id="img-dea0543b-130">
              <path d="M-0.09,-59.25 L 0.09 -59.25 0.09 59.25 -0.09 59.25 z" class="primitive"/>
            </g>
            <g transform="translate(68.76,119.26)" id="img-dea0543b-131">
              <path d="M-0.09,-11.85 L 0.09 -11.85 0.09 11.85 -0.09 11.85 z" class="primitive"/>
            </g>
            <g transform="translate(68.89,131.12)" id="img-dea0543b-132">
              <path d="M-0.09,-0 L 0.09 -0 0.09 0 -0.09 0 z" class="primitive"/>
            </g>
            <g transform="translate(69.02,107.41)" id="img-dea0543b-133">
              <path d="M-0.09,-23.7 L 0.09 -23.7 0.09 23.7 -0.09 23.7 z" class="primitive"/>
            </g>
            <g transform="translate(69.14,131.12)" id="img-dea0543b-134">
              <path d="M-0.09,-0 L 0.09 -0 0.09 0 -0.09 0 z" class="primitive"/>
            </g>
            <g transform="translate(69.27,131.12)" id="img-dea0543b-135">
              <path d="M-0.09,-0 L 0.09 -0 0.09 0 -0.09 0 z" class="primitive"/>
            </g>
            <g transform="translate(69.4,131.12)" id="img-dea0543b-136">
              <path d="M-0.09,-0 L 0.09 -0 0.09 0 -0.09 0 z" class="primitive"/>
            </g>
            <g transform="translate(69.53,131.12)" id="img-dea0543b-137">
              <path d="M-0.09,-0 L 0.09 -0 0.09 0 -0.09 0 z" class="primitive"/>
            </g>
            <g transform="translate(69.66,131.12)" id="img-dea0543b-138">
              <path d="M-0.09,-0 L 0.09 -0 0.09 0 -0.09 0 z" class="primitive"/>
            </g>
            <g transform="translate(69.78,119.26)" id="img-dea0543b-139">
              <path d="M-0.09,-11.85 L 0.09 -11.85 0.09 11.85 -0.09 11.85 z" class="primitive"/>
            </g>
            <g transform="translate(69.91,107.41)" id="img-dea0543b-140">
              <path d="M-0.09,-23.7 L 0.09 -23.7 0.09 23.7 -0.09 23.7 z" class="primitive"/>
            </g>
            <g transform="translate(70.04,131.12)" id="img-dea0543b-141">
              <path d="M-0.09,-0 L 0.09 -0 0.09 0 -0.09 0 z" class="primitive"/>
            </g>
            <g transform="translate(70.17,119.26)" id="img-dea0543b-142">
              <path d="M-0.09,-11.85 L 0.09 -11.85 0.09 11.85 -0.09 11.85 z" class="primitive"/>
            </g>
            <g transform="translate(70.29,131.12)" id="img-dea0543b-143">
              <path d="M-0.09,-0 L 0.09 -0 0.09 0 -0.09 0 z" class="primitive"/>
            </g>
            <g transform="translate(70.42,131.12)" id="img-dea0543b-144">
              <path d="M-0.09,-0 L 0.09 -0 0.09 0 -0.09 0 z" class="primitive"/>
            </g>
            <g transform="translate(70.55,119.26)" id="img-dea0543b-145">
              <path d="M-0.09,-11.85 L 0.09 -11.85 0.09 11.85 -0.09 11.85 z" class="primitive"/>
            </g>
            <g transform="translate(70.68,119.26)" id="img-dea0543b-146">
              <path d="M-0.09,-11.85 L 0.09 -11.85 0.09 11.85 -0.09 11.85 z" class="primitive"/>
            </g>
            <g transform="translate(70.81,107.41)" id="img-dea0543b-147">
              <path d="M-0.09,-23.7 L 0.09 -23.7 0.09 23.7 -0.09 23.7 z" class="primitive"/>
            </g>
            <g transform="translate(70.93,107.41)" id="img-dea0543b-148">
              <path d="M-0.09,-23.7 L 0.09 -23.7 0.09 23.7 -0.09 23.7 z" class="primitive"/>
            </g>
            <g transform="translate(71.06,119.26)" id="img-dea0543b-149">
              <path d="M-0.09,-11.85 L 0.09 -11.85 0.09 11.85 -0.09 11.85 z" class="primitive"/>
            </g>
            <g transform="translate(71.19,131.12)" id="img-dea0543b-150">
              <path d="M-0.09,-0 L 0.09 -0 0.09 0 -0.09 0 z" class="primitive"/>
            </g>
            <g transform="translate(71.32,119.26)" id="img-dea0543b-151">
              <path d="M-0.09,-11.85 L 0.09 -11.85 0.09 11.85 -0.09 11.85 z" class="primitive"/>
            </g>
            <g transform="translate(71.44,131.12)" id="img-dea0543b-152">
              <path d="M-0.09,-0 L 0.09 -0 0.09 0 -0.09 0 z" class="primitive"/>
            </g>
            <g transform="translate(71.57,131.12)" id="img-dea0543b-153">
              <path d="M-0.09,-0 L 0.09 -0 0.09 0 -0.09 0 z" class="primitive"/>
            </g>
            <g transform="translate(71.7,131.12)" id="img-dea0543b-154">
              <path d="M-0.09,-0 L 0.09 -0 0.09 0 -0.09 0 z" class="primitive"/>
            </g>
            <g transform="translate(71.83,131.12)" id="img-dea0543b-155">
              <path d="M-0.09,-0 L 0.09 -0 0.09 0 -0.09 0 z" class="primitive"/>
            </g>
            <g transform="translate(71.96,119.26)" id="img-dea0543b-156">
              <path d="M-0.09,-11.85 L 0.09 -11.85 0.09 11.85 -0.09 11.85 z" class="primitive"/>
            </g>
            <g transform="translate(72.08,131.12)" id="img-dea0543b-157">
              <path d="M-0.09,-0 L 0.09 -0 0.09 0 -0.09 0 z" class="primitive"/>
            </g>
            <g transform="translate(72.21,131.12)" id="img-dea0543b-158">
              <path d="M-0.09,-0 L 0.09 -0 0.09 0 -0.09 0 z" class="primitive"/>
            </g>
            <g transform="translate(72.34,131.12)" id="img-dea0543b-159">
              <path d="M-0.09,-0 L 0.09 -0 0.09 0 -0.09 0 z" class="primitive"/>
            </g>
            <g transform="translate(72.47,131.12)" id="img-dea0543b-160">
              <path d="M-0.09,-0 L 0.09 -0 0.09 0 -0.09 0 z" class="primitive"/>
            </g>
            <g transform="translate(72.6,131.12)" id="img-dea0543b-161">
              <path d="M-0.09,-0 L 0.09 -0 0.09 0 -0.09 0 z" class="primitive"/>
            </g>
            <g transform="translate(72.72,131.12)" id="img-dea0543b-162">
              <path d="M-0.09,-0 L 0.09 -0 0.09 0 -0.09 0 z" class="primitive"/>
            </g>
            <g transform="translate(72.85,107.41)" id="img-dea0543b-163">
              <path d="M-0.09,-23.7 L 0.09 -23.7 0.09 23.7 -0.09 23.7 z" class="primitive"/>
            </g>
            <g transform="translate(72.98,131.12)" id="img-dea0543b-164">
              <path d="M-0.09,-0 L 0.09 -0 0.09 0 -0.09 0 z" class="primitive"/>
            </g>
            <g transform="translate(73.11,107.41)" id="img-dea0543b-165">
              <path d="M-0.09,-23.7 L 0.09 -23.7 0.09 23.7 -0.09 23.7 z" class="primitive"/>
            </g>
          </g>
        </g>
      </g>
    </g>
  </g>
  <g class="guide ylabels" font-size="2.82" font-family="'PT Sans Caption','Helvetica Neue','Helvetica',sans-serif" fill="#6C606B" id="img-dea0543b-166">
    <g transform="translate(15.28,131.11)" id="img-dea0543b-167">
      <g class="primitive">
        <text text-anchor="end" dy="0.35em">0</text>
      </g>
    </g>
    <g transform="translate(15.28,107.41)" id="img-dea0543b-168">
      <g class="primitive">
        <text text-anchor="end" dy="0.35em">1</text>
      </g>
    </g>
    <g transform="translate(15.28,83.71)" id="img-dea0543b-169">
      <g class="primitive">
        <text text-anchor="end" dy="0.35em">2</text>
      </g>
    </g>
    <g transform="translate(15.28,60.01)" id="img-dea0543b-170">
      <g class="primitive">
        <text text-anchor="end" dy="0.35em">3</text>
      </g>
    </g>
    <g transform="translate(15.28,36.31)" id="img-dea0543b-171">
      <g class="primitive">
        <text text-anchor="end" dy="0.35em">4</text>
      </g>
    </g>
    <g transform="translate(15.28,12.61)" id="img-dea0543b-172">
      <g class="primitive">
        <text text-anchor="end" dy="0.35em">5</text>
      </g>
    </g>
  </g>
  <g font-size="3.88" font-family="'PT Sans','Helvetica Neue','Helvetica',sans-serif" fill="#564A55" stroke="#000000" stroke-opacity="0.000" id="img-dea0543b-173">
    <g transform="translate(8.81,69.86)" id="img-dea0543b-174">
      <g class="primitive">
        <text text-anchor="middle" dy="0.35em" transform="rotate(-90,0, 2)">Count</text>
      </g>
    </g>
  </g>
  <g font-size="3.88" font-family="'PT Sans','Helvetica Neue','Helvetica',sans-serif" fill="#564A55" stroke="#000000" stroke-opacity="0.000" id="img-dea0543b-175">
    <g transform="translate(69.14,5)" id="img-dea0543b-176">
      <g class="primitive">
        <text text-anchor="middle" dy="0.6em">Weird</text>
      </g>
    </g>
  </g>
</g>
<defs>
  <clipPath id="img-dea0543b-4">
    <path d="M143.28,10.61 L 249 10.61 249 133.12 143.28 133.12" />
  </clipPath>
  <clipPath id="img-dea0543b-96">
    <path d="M16.28,10.61 L 122 10.61 122 133.11 16.28 133.11" />
  </clipPath>
</defs>
</svg>
