<?xml version="1.0" encoding="UTF-8"?>
<svg xmlns="http://www.w3.org/2000/svg"
     xmlns:xlink="http://www.w3.org/1999/xlink"
     xmlns:gadfly="http://www.gadflyjl.org/ns"
     version="1.2"
     width="203.2mm" height="101.6mm" viewBox="0 0 203.2 101.6"
     stroke="none"
     fill="#000000"
     stroke-width="0.3"
     font-size="3.88"
>
<defs>
  <marker id="arrow" markerWidth="15" markerHeight="7" refX="5" refY="3.5" orient="auto" markerUnits="strokeWidth">
    <path d="M0,0 L15,3.5 L0,7 z" stroke="context-stroke" fill="context-stroke"/>
  </marker>
</defs>
<g class="plotroot xscalable yscalable" id="img-5024fee8-1">
  <g font-size="3.88" font-family="'PT Sans','Helvetica Neue','Helvetica',sans-serif" fill="#564A55" stroke="#000000" stroke-opacity="0.000" id="img-5024fee8-2">
    <g transform="translate(108.08,89.99)">
      <g class="primitive">
        <text text-anchor="middle" dy="0.6em">kMeas/kCalc</text>
      </g>
    </g>
  </g>
  <g class="guide xlabels" font-size="2.82" font-family="'PT Sans Caption','Helvetica Neue','Helvetica',sans-serif" fill="#6C606B" id="img-5024fee8-3">
    <g transform="translate(19.96,83.32)">
      <g class="primitive">
        <text text-anchor="middle" dy="0.6em">0.0</text>
      </g>
    </g>
    <g transform="translate(64.02,83.32)">
      <g class="primitive">
        <text text-anchor="middle" dy="0.6em">0.5</text>
      </g>
    </g>
    <g transform="translate(108.08,83.32)">
      <g class="primitive">
        <text text-anchor="middle" dy="0.6em">1.0</text>
      </g>
    </g>
    <g transform="translate(152.14,83.32)">
      <g class="primitive">
        <text text-anchor="middle" dy="0.6em">1.5</text>
      </g>
    </g>
    <g transform="translate(196.2,83.32)">
      <g class="primitive">
        <text text-anchor="middle" dy="0.6em">2.0</text>
      </g>
    </g>
  </g>
  <g clip-path="url(#img-5024fee8-4)">
    <g id="img-5024fee8-5">
      <g pointer-events="visible" stroke-width="0.3" fill="#000000" fill-opacity="0.000" stroke="#000000" stroke-opacity="0.000" class="guide background" id="img-5024fee8-6">
        <g transform="translate(108.08,46.46)" id="img-5024fee8-7">
          <path d="M-90.12,-35.85 L 90.12 -35.85 90.12 35.85 -90.12 35.85 z" class="primitive"/>
        </g>
      </g>
      <g class="guide ygridlines xfixed" stroke-dasharray="0.5,0.5" stroke-width="0.2" stroke="#D0D0E0" id="img-5024fee8-8">
        <g transform="translate(108.08,80.32)" id="img-5024fee8-9">
          <path fill="none" d="M-90.12,0 L 90.12 0" class="primitive"/>
        </g>
        <g transform="translate(108.08,63.39)" id="img-5024fee8-10">
          <path fill="none" d="M-90.12,0 L 90.12 0" class="primitive"/>
        </g>
        <g transform="translate(108.08,46.46)" id="img-5024fee8-11">
          <path fill="none" d="M-90.12,0 L 90.12 0" class="primitive"/>
        </g>
        <g transform="translate(108.08,29.54)" id="img-5024fee8-12">
          <path fill="none" d="M-90.12,0 L 90.12 0" class="primitive"/>
        </g>
        <g transform="translate(108.08,12.61)" id="img-5024fee8-13">
          <path fill="none" d="M-90.12,0 L 90.12 0" class="primitive"/>
        </g>
      </g>
      <g class="guide xgridlines yfixed" stroke-dasharray="0.5,0.5" stroke-width="0.2" stroke="#D0D0E0" id="img-5024fee8-14">
        <g transform="translate(19.96,46.46)" id="img-5024fee8-15">
          <path fill="none" d="M0,-35.85 L 0 35.85" class="primitive"/>
        </g>
        <g transform="translate(64.02,46.46)" id="img-5024fee8-16">
          <path fill="none" d="M0,-35.85 L 0 35.85" class="primitive"/>
        </g>
        <g transform="translate(108.08,46.46)" id="img-5024fee8-17">
          <path fill="none" d="M0,-35.85 L 0 35.85" class="primitive"/>
        </g>
        <g transform="translate(152.14,46.46)" id="img-5024fee8-18">
          <path fill="none" d="M0,-35.85 L 0 35.85" class="primitive"/>
        </g>
        <g transform="translate(196.2,46.46)" id="img-5024fee8-19">
          <path fill="none" d="M0,-35.85 L 0 35.85" class="primitive"/>
        </g>
      </g>
      <g class="plotpanel" id="img-5024fee8-20">
        <metadata>
          <boundingbox value="17.958333333333343mm 10.611666666666665mm 180.24166666666665mm 71.70333333333333mm"/>
          <unitbox value="-0.02269610856305263 20.59081286002659 2.045392217126105 -21.181625720053173"/>
        </metadata>
        <g shape-rendering="crispEdges" stroke-width="0.3" id="img-5024fee8-21">
          <g class="geometry" fill-opacity="1" stroke="#000000" stroke-opacity="0.000" fill="#00BFFF" id="img-5024fee8-22">
            <g transform="translate(60.24,76.93)" id="img-5024fee8-23">
              <path d="M-1.65,-3.39 L 1.65 -3.39 1.65 3.39 -1.65 3.39 z" class="primitive"/>
            </g>
            <g transform="translate(63.49,80.32)" id="img-5024fee8-24">
              <path d="M-1.65,-0 L 1.65 -0 1.65 0 -1.65 0 z" class="primitive"/>
            </g>
            <g transform="translate(66.74,78.62)" id="img-5024fee8-25">
              <path d="M-1.65,-1.69 L 1.65 -1.69 1.65 1.69 -1.65 1.69 z" class="primitive"/>
            </g>
            <g transform="translate(69.99,80.32)" id="img-5024fee8-26">
              <path d="M-1.65,-0 L 1.65 -0 1.65 0 -1.65 0 z" class="primitive"/>
            </g>
            <g transform="translate(73.24,78.62)" id="img-5024fee8-27">
              <path d="M-1.65,-1.69 L 1.65 -1.69 1.65 1.69 -1.65 1.69 z" class="primitive"/>
            </g>
            <g transform="translate(76.49,78.62)" id="img-5024fee8-28">
              <path d="M-1.65,-1.69 L 1.65 -1.69 1.65 1.69 -1.65 1.69 z" class="primitive"/>
            </g>
            <g transform="translate(79.75,78.62)" id="img-5024fee8-29">
              <path d="M-1.65,-1.69 L 1.65 -1.69 1.65 1.69 -1.65 1.69 z" class="primitive"/>
            </g>
            <g transform="translate(83,76.93)" id="img-5024fee8-30">
              <path d="M-1.65,-3.39 L 1.65 -3.39 1.65 3.39 -1.65 3.39 z" class="primitive"/>
            </g>
            <g transform="translate(86.25,80.32)" id="img-5024fee8-31">
              <path d="M-1.65,-0 L 1.65 -0 1.65 0 -1.65 0 z" class="primitive"/>
            </g>
            <g transform="translate(89.5,75.24)" id="img-5024fee8-32">
              <path d="M-1.65,-5.08 L 1.65 -5.08 1.65 5.08 -1.65 5.08 z" class="primitive"/>
            </g>
            <g transform="translate(92.75,73.54)" id="img-5024fee8-33">
              <path d="M-1.65,-6.77 L 1.65 -6.77 1.65 6.77 -1.65 6.77 z" class="primitive"/>
            </g>
            <g transform="translate(96,75.24)" id="img-5024fee8-34">
              <path d="M-1.65,-5.08 L 1.65 -5.08 1.65 5.08 -1.65 5.08 z" class="primitive"/>
            </g>
            <g transform="translate(99.26,66.77)" id="img-5024fee8-35">
              <path d="M-1.65,-13.54 L 1.65 -13.54 1.65 13.54 -1.65 13.54 z" class="primitive"/>
            </g>
            <g transform="translate(102.51,66.77)" id="img-5024fee8-36">
              <path d="M-1.65,-13.54 L 1.65 -13.54 1.65 13.54 -1.65 13.54 z" class="primitive"/>
            </g>
            <g transform="translate(105.76,54.93)" id="img-5024fee8-37">
              <path d="M-1.65,-25.39 L 1.65 -25.39 1.65 25.39 -1.65 25.39 z" class="primitive"/>
            </g>
            <g transform="translate(109.01,61.7)" id="img-5024fee8-38">
              <path d="M-1.65,-18.62 L 1.65 -18.62 1.65 18.62 -1.65 18.62 z" class="primitive"/>
            </g>
            <g transform="translate(112.26,53.23)" id="img-5024fee8-39">
              <path d="M-1.65,-27.08 L 1.65 -27.08 1.65 27.08 -1.65 27.08 z" class="primitive"/>
            </g>
            <g transform="translate(115.51,66.77)" id="img-5024fee8-40">
              <path d="M-1.65,-13.54 L 1.65 -13.54 1.65 13.54 -1.65 13.54 z" class="primitive"/>
            </g>
            <g transform="translate(118.77,58.31)" id="img-5024fee8-41">
              <path d="M-1.65,-22 L 1.65 -22 1.65 22 -1.65 22 z" class="primitive"/>
            </g>
            <g transform="translate(122.02,68.47)" id="img-5024fee8-42">
              <path d="M-1.65,-11.85 L 1.65 -11.85 1.65 11.85 -1.65 11.85 z" class="primitive"/>
            </g>
            <g transform="translate(125.27,58.31)" id="img-5024fee8-43">
              <path d="M-1.65,-22 L 1.65 -22 1.65 22 -1.65 22 z" class="primitive"/>
            </g>
            <g transform="translate(128.52,68.47)" id="img-5024fee8-44">
              <path d="M-1.65,-11.85 L 1.65 -11.85 1.65 11.85 -1.65 11.85 z" class="primitive"/>
            </g>
            <g transform="translate(131.77,63.39)" id="img-5024fee8-45">
              <path d="M-1.65,-16.93 L 1.65 -16.93 1.65 16.93 -1.65 16.93 z" class="primitive"/>
            </g>
            <g transform="translate(135.02,63.39)" id="img-5024fee8-46">
              <path d="M-1.65,-16.93 L 1.65 -16.93 1.65 16.93 -1.65 16.93 z" class="primitive"/>
            </g>
            <g transform="translate(138.28,75.24)" id="img-5024fee8-47">
              <path d="M-1.65,-5.08 L 1.65 -5.08 1.65 5.08 -1.65 5.08 z" class="primitive"/>
            </g>
            <g transform="translate(141.53,76.93)" id="img-5024fee8-48">
              <path d="M-1.65,-3.39 L 1.65 -3.39 1.65 3.39 -1.65 3.39 z" class="primitive"/>
            </g>
            <g transform="translate(144.78,76.93)" id="img-5024fee8-49">
              <path d="M-1.65,-3.39 L 1.65 -3.39 1.65 3.39 -1.65 3.39 z" class="primitive"/>
            </g>
            <g transform="translate(148.03,76.93)" id="img-5024fee8-50">
              <path d="M-1.65,-3.39 L 1.65 -3.39 1.65 3.39 -1.65 3.39 z" class="primitive"/>
            </g>
            <g transform="translate(151.28,73.54)" id="img-5024fee8-51">
              <path d="M-1.65,-6.77 L 1.65 -6.77 1.65 6.77 -1.65 6.77 z" class="primitive"/>
            </g>
            <g transform="translate(154.53,73.54)" id="img-5024fee8-52">
              <path d="M-1.65,-6.77 L 1.65 -6.77 1.65 6.77 -1.65 6.77 z" class="primitive"/>
            </g>
            <g transform="translate(157.79,75.24)" id="img-5024fee8-53">
              <path d="M-1.65,-5.08 L 1.65 -5.08 1.65 5.08 -1.65 5.08 z" class="primitive"/>
            </g>
            <g transform="translate(161.04,78.62)" id="img-5024fee8-54">
              <path d="M-1.65,-1.69 L 1.65 -1.69 1.65 1.69 -1.65 1.69 z" class="primitive"/>
            </g>
            <g transform="translate(164.29,76.93)" id="img-5024fee8-55">
              <path d="M-1.65,-3.39 L 1.65 -3.39 1.65 3.39 -1.65 3.39 z" class="primitive"/>
            </g>
            <g transform="translate(167.54,80.32)" id="img-5024fee8-56">
              <path d="M-1.65,-0 L 1.65 -0 1.65 0 -1.65 0 z" class="primitive"/>
            </g>
            <g transform="translate(170.79,76.93)" id="img-5024fee8-57">
              <path d="M-1.65,-3.39 L 1.65 -3.39 1.65 3.39 -1.65 3.39 z" class="primitive"/>
            </g>
            <g transform="translate(174.04,75.24)" id="img-5024fee8-58">
              <path d="M-1.65,-5.08 L 1.65 -5.08 1.65 5.08 -1.65 5.08 z" class="primitive"/>
            </g>
            <g transform="translate(177.3,76.93)" id="img-5024fee8-59">
              <path d="M-1.65,-3.39 L 1.65 -3.39 1.65 3.39 -1.65 3.39 z" class="primitive"/>
            </g>
            <g transform="translate(180.55,76.93)" id="img-5024fee8-60">
              <path d="M-1.65,-3.39 L 1.65 -3.39 1.65 3.39 -1.65 3.39 z" class="primitive"/>
            </g>
            <g transform="translate(183.8,75.24)" id="img-5024fee8-61">
              <path d="M-1.65,-5.08 L 1.65 -5.08 1.65 5.08 -1.65 5.08 z" class="primitive"/>
            </g>
            <g transform="translate(187.05,76.93)" id="img-5024fee8-62">
              <path d="M-1.65,-3.39 L 1.65 -3.39 1.65 3.39 -1.65 3.39 z" class="primitive"/>
            </g>
            <g transform="translate(190.3,78.62)" id="img-5024fee8-63">
              <path d="M-1.65,-1.69 L 1.65 -1.69 1.65 1.69 -1.65 1.69 z" class="primitive"/>
            </g>
            <g transform="translate(193.55,80.32)" id="img-5024fee8-64">
              <path d="M-1.65,-0 L 1.65 -0 1.65 0 -1.65 0 z" class="primitive"/>
            </g>
            <g transform="translate(196.81,78.62)" id="img-5024fee8-65">
              <path d="M-1.65,-1.69 L 1.65 -1.69 1.65 1.69 -1.65 1.69 z" class="primitive"/>
            </g>
            <g transform="translate(200.06,76.93)" id="img-5024fee8-66">
              <path d="M-1.65,-3.39 L 1.65 -3.39 1.65 3.39 -1.65 3.39 z" class="primitive"/>
            </g>
            <g transform="translate(203.31,78.62)" id="img-5024fee8-67">
              <path d="M-1.65,-1.69 L 1.65 -1.69 1.65 1.69 -1.65 1.69 z" class="primitive"/>
            </g>
            <g transform="translate(206.56,76.93)" id="img-5024fee8-68">
              <path d="M-1.65,-3.39 L 1.65 -3.39 1.65 3.39 -1.65 3.39 z" class="primitive"/>
            </g>
            <g transform="translate(209.81,80.32)" id="img-5024fee8-69">
              <path d="M-1.65,-0 L 1.65 -0 1.65 0 -1.65 0 z" class="primitive"/>
            </g>
            <g transform="translate(213.06,80.32)" id="img-5024fee8-70">
              <path d="M-1.65,-0 L 1.65 -0 1.65 0 -1.65 0 z" class="primitive"/>
            </g>
            <g transform="translate(216.32,78.62)" id="img-5024fee8-71">
              <path d="M-1.65,-1.69 L 1.65 -1.69 1.65 1.69 -1.65 1.69 z" class="primitive"/>
            </g>
            <g transform="translate(219.57,78.62)" id="img-5024fee8-72">
              <path d="M-1.65,-1.69 L 1.65 -1.69 1.65 1.69 -1.65 1.69 z" class="primitive"/>
            </g>
          </g>
        </g>
      </g>
    </g>
  </g>
  <g class="guide ylabels" font-size="2.82" font-family="'PT Sans Caption','Helvetica Neue','Helvetica',sans-serif" fill="#6C606B" id="img-5024fee8-73">
    <g transform="translate(16.96,80.32)" id="img-5024fee8-74">
      <g class="primitive">
        <text text-anchor="end" dy="0.35em">0</text>
      </g>
    </g>
    <g transform="translate(16.96,63.39)" id="img-5024fee8-75">
      <g class="primitive">
        <text text-anchor="end" dy="0.35em">5</text>
      </g>
    </g>
    <g transform="translate(16.96,46.46)" id="img-5024fee8-76">
      <g class="primitive">
        <text text-anchor="end" dy="0.35em">10</text>
      </g>
    </g>
    <g transform="translate(16.96,29.54)" id="img-5024fee8-77">
      <g class="primitive">
        <text text-anchor="end" dy="0.35em">15</text>
      </g>
    </g>
    <g transform="translate(16.96,12.61)" id="img-5024fee8-78">
      <g class="primitive">
        <text text-anchor="end" dy="0.35em">20</text>
      </g>
    </g>
  </g>
  <g font-size="3.88" font-family="'PT Sans','Helvetica Neue','Helvetica',sans-serif" fill="#564A55" stroke="#000000" stroke-opacity="0.000" id="img-5024fee8-79">
    <g transform="translate(8.81,44.46)" id="img-5024fee8-80">
      <g class="primitive">
        <text text-anchor="middle" dy="0.35em" transform="rotate(-90,0, 2)">Count</text>
      </g>
    </g>
  </g>
  <g font-size="3.88" font-family="'PT Sans','Helvetica Neue','Helvetica',sans-serif" fill="#564A55" stroke="#000000" stroke-opacity="0.000" id="img-5024fee8-81">
    <g transform="translate(108.08,5)" id="img-5024fee8-82">
      <g class="primitive">
        <text text-anchor="middle" dy="0.6em">CitZAF</text>
      </g>
    </g>
  </g>
</g>
<defs>
  <clipPath id="img-5024fee8-4">
    <path d="M17.96,10.61 L 198.2 10.61 198.2 82.32 17.96 82.32" />
  </clipPath>
</defs>
</svg>
