<?xml version="1.0" encoding="UTF-8"?>
<svg xmlns="http://www.w3.org/2000/svg"
     xmlns:xlink="http://www.w3.org/1999/xlink"
     xmlns:gadfly="http://www.gadflyjl.org/ns"
     version="1.2"
     width="254mm" height="152.4mm" viewBox="0 0 254 152.4"
     stroke="none"
     fill="#000000"
     stroke-width="0.3"
     font-size="3.88"
>
<defs>
  <marker id="arrow" markerWidth="15" markerHeight="7" refX="5" refY="3.5" orient="auto" markerUnits="strokeWidth">
    <path d="M0,0 L15,3.5 L0,7 z" stroke="context-stroke" fill="context-stroke"/>
  </marker>
</defs>
<g class="plotroot xscalable yscalable" id="img-5fe9bc66-1">
  <g font-size="3.88" font-family="'PT Sans','Helvetica Neue','Helvetica',sans-serif" fill="#564A55" stroke="#000000" stroke-opacity="0.000" id="img-5fe9bc66-2">
    <g transform="translate(196.14,140.79)">
      <g class="primitive">
        <text text-anchor="middle" dy="0.6em">kMeas/kCalc</text>
      </g>
    </g>
  </g>
  <g class="guide xlabels" font-size="2.82" font-family="'PT Sans Caption','Helvetica Neue','Helvetica',sans-serif" fill="#6C606B" id="img-5fe9bc66-3">
    <g transform="translate(145.28,134.11)">
      <g class="primitive">
        <text text-anchor="middle" dy="0.6em">0.0</text>
      </g>
    </g>
    <g transform="translate(170.71,134.11)">
      <g class="primitive">
        <text text-anchor="middle" dy="0.6em">0.5</text>
      </g>
    </g>
    <g transform="translate(196.14,134.11)">
      <g class="primitive">
        <text text-anchor="middle" dy="0.6em">1.0</text>
      </g>
    </g>
    <g transform="translate(221.57,134.11)">
      <g class="primitive">
        <text text-anchor="middle" dy="0.6em">1.5</text>
      </g>
    </g>
    <g transform="translate(247,134.11)">
      <g class="primitive">
        <text text-anchor="middle" dy="0.6em">2.0</text>
      </g>
    </g>
  </g>
  <g clip-path="url(#img-5fe9bc66-4)">
    <g id="img-5fe9bc66-5">
      <g pointer-events="visible" stroke-width="0.3" fill="#000000" fill-opacity="0.000" stroke="#000000" stroke-opacity="0.000" class="guide background" id="img-5fe9bc66-6">
        <g transform="translate(196.14,71.86)" id="img-5fe9bc66-7">
          <path d="M-52.86,-61.25 L 52.86 -61.25 52.86 61.25 -52.86 61.25 z" class="primitive"/>
        </g>
      </g>
      <g class="guide ygridlines xfixed" stroke-dasharray="0.5,0.5" stroke-width="0.2" stroke="#D0D0E0" id="img-5fe9bc66-8">
        <g transform="translate(196.14,131.11)" id="img-5fe9bc66-9">
          <path fill="none" d="M-52.86,0 L 52.86 0" class="primitive"/>
        </g>
        <g transform="translate(196.14,101.49)" id="img-5fe9bc66-10">
          <path fill="none" d="M-52.86,0 L 52.86 0" class="primitive"/>
        </g>
        <g transform="translate(196.14,71.86)" id="img-5fe9bc66-11">
          <path fill="none" d="M-52.86,0 L 52.86 0" class="primitive"/>
        </g>
        <g transform="translate(196.14,42.24)" id="img-5fe9bc66-12">
          <path fill="none" d="M-52.86,0 L 52.86 0" class="primitive"/>
        </g>
        <g transform="translate(196.14,12.61)" id="img-5fe9bc66-13">
          <path fill="none" d="M-52.86,0 L 52.86 0" class="primitive"/>
        </g>
      </g>
      <g class="guide xgridlines yfixed" stroke-dasharray="0.5,0.5" stroke-width="0.2" stroke="#D0D0E0" id="img-5fe9bc66-14">
        <g transform="translate(145.28,71.86)" id="img-5fe9bc66-15">
          <path fill="none" d="M0,-61.25 L 0 61.25" class="primitive"/>
        </g>
        <g transform="translate(170.71,71.86)" id="img-5fe9bc66-16">
          <path fill="none" d="M0,-61.25 L 0 61.25" class="primitive"/>
        </g>
        <g transform="translate(196.14,71.86)" id="img-5fe9bc66-17">
          <path fill="none" d="M0,-61.25 L 0 61.25" class="primitive"/>
        </g>
        <g transform="translate(221.57,71.86)" id="img-5fe9bc66-18">
          <path fill="none" d="M0,-61.25 L 0 61.25" class="primitive"/>
        </g>
        <g transform="translate(247,71.86)" id="img-5fe9bc66-19">
          <path fill="none" d="M0,-61.25 L 0 61.25" class="primitive"/>
        </g>
      </g>
      <g class="plotpanel" id="img-5fe9bc66-20">
        <metadata>
          <boundingbox value="143.285mm 10.611666666666665mm 105.715mm 122.50333333333332mm"/>
          <unitbox value="-0.03932556653394288 4.067508649545723 2.078651133067886 -4.135017299091446"/>
        </metadata>
        <g shape-rendering="crispEdges" stroke-width="0.3" id="img-5fe9bc66-21">
          <g class="geometry" fill-opacity="1" stroke="#000000" stroke-opacity="0.000" fill="#00BFFF" id="img-5fe9bc66-22">
            <g transform="translate(195.32,116.3)" id="img-5fe9bc66-23">
              <path d="M-0.05,-14.81 L 0.05 -14.81 0.05 14.81 -0.05 14.81 z" class="primitive"/>
            </g>
            <g transform="translate(195.36,131.12)" id="img-5fe9bc66-24">
              <path d="M-0.05,-0 L 0.05 -0 0.05 0 -0.05 0 z" class="primitive"/>
            </g>
            <g transform="translate(195.41,116.3)" id="img-5fe9bc66-25">
              <path d="M-0.05,-14.81 L 0.05 -14.81 0.05 14.81 -0.05 14.81 z" class="primitive"/>
            </g>
            <g transform="translate(195.45,131.12)" id="img-5fe9bc66-26">
              <path d="M-0.05,-0 L 0.05 -0 0.05 0 -0.05 0 z" class="primitive"/>
            </g>
            <g transform="translate(195.5,131.12)" id="img-5fe9bc66-27">
              <path d="M-0.05,-0 L 0.05 -0 0.05 0 -0.05 0 z" class="primitive"/>
            </g>
            <g transform="translate(195.54,131.12)" id="img-5fe9bc66-28">
              <path d="M-0.05,-0 L 0.05 -0 0.05 0 -0.05 0 z" class="primitive"/>
            </g>
            <g transform="translate(195.59,131.12)" id="img-5fe9bc66-29">
              <path d="M-0.05,-0 L 0.05 -0 0.05 0 -0.05 0 z" class="primitive"/>
            </g>
            <g transform="translate(195.63,131.12)" id="img-5fe9bc66-30">
              <path d="M-0.05,-0 L 0.05 -0 0.05 0 -0.05 0 z" class="primitive"/>
            </g>
            <g transform="translate(195.67,131.12)" id="img-5fe9bc66-31">
              <path d="M-0.05,-0 L 0.05 -0 0.05 0 -0.05 0 z" class="primitive"/>
            </g>
            <g transform="translate(195.72,131.12)" id="img-5fe9bc66-32">
              <path d="M-0.05,-0 L 0.05 -0 0.05 0 -0.05 0 z" class="primitive"/>
            </g>
            <g transform="translate(195.76,131.12)" id="img-5fe9bc66-33">
              <path d="M-0.05,-0 L 0.05 -0 0.05 0 -0.05 0 z" class="primitive"/>
            </g>
            <g transform="translate(195.81,131.12)" id="img-5fe9bc66-34">
              <path d="M-0.05,-0 L 0.05 -0 0.05 0 -0.05 0 z" class="primitive"/>
            </g>
            <g transform="translate(195.85,131.12)" id="img-5fe9bc66-35">
              <path d="M-0.05,-0 L 0.05 -0 0.05 0 -0.05 0 z" class="primitive"/>
            </g>
            <g transform="translate(195.9,101.49)" id="img-5fe9bc66-36">
              <path d="M-0.05,-29.63 L 0.05 -29.63 0.05 29.63 -0.05 29.63 z" class="primitive"/>
            </g>
            <g transform="translate(195.94,101.49)" id="img-5fe9bc66-37">
              <path d="M-0.05,-29.63 L 0.05 -29.63 0.05 29.63 -0.05 29.63 z" class="primitive"/>
            </g>
            <g transform="translate(195.99,116.3)" id="img-5fe9bc66-38">
              <path d="M-0.05,-14.81 L 0.05 -14.81 0.05 14.81 -0.05 14.81 z" class="primitive"/>
            </g>
            <g transform="translate(196.03,116.3)" id="img-5fe9bc66-39">
              <path d="M-0.05,-14.81 L 0.05 -14.81 0.05 14.81 -0.05 14.81 z" class="primitive"/>
            </g>
            <g transform="translate(196.07,116.3)" id="img-5fe9bc66-40">
              <path d="M-0.05,-14.81 L 0.05 -14.81 0.05 14.81 -0.05 14.81 z" class="primitive"/>
            </g>
            <g transform="translate(196.12,101.49)" id="img-5fe9bc66-41">
              <path d="M-0.05,-29.63 L 0.05 -29.63 0.05 29.63 -0.05 29.63 z" class="primitive"/>
            </g>
            <g transform="translate(196.16,131.12)" id="img-5fe9bc66-42">
              <path d="M-0.05,-0 L 0.05 -0 0.05 0 -0.05 0 z" class="primitive"/>
            </g>
            <g transform="translate(196.21,101.49)" id="img-5fe9bc66-43">
              <path d="M-0.05,-29.63 L 0.05 -29.63 0.05 29.63 -0.05 29.63 z" class="primitive"/>
            </g>
            <g transform="translate(196.25,86.68)" id="img-5fe9bc66-44">
              <path d="M-0.05,-44.44 L 0.05 -44.44 0.05 44.44 -0.05 44.44 z" class="primitive"/>
            </g>
            <g transform="translate(196.3,101.49)" id="img-5fe9bc66-45">
              <path d="M-0.05,-29.63 L 0.05 -29.63 0.05 29.63 -0.05 29.63 z" class="primitive"/>
            </g>
            <g transform="translate(196.34,116.3)" id="img-5fe9bc66-46">
              <path d="M-0.05,-14.81 L 0.05 -14.81 0.05 14.81 -0.05 14.81 z" class="primitive"/>
            </g>
            <g transform="translate(196.39,116.3)" id="img-5fe9bc66-47">
              <path d="M-0.05,-14.81 L 0.05 -14.81 0.05 14.81 -0.05 14.81 z" class="primitive"/>
            </g>
            <g transform="translate(196.43,86.68)" id="img-5fe9bc66-48">
              <path d="M-0.05,-44.44 L 0.05 -44.44 0.05 44.44 -0.05 44.44 z" class="primitive"/>
            </g>
            <g transform="translate(196.47,86.68)" id="img-5fe9bc66-49">
              <path d="M-0.05,-44.44 L 0.05 -44.44 0.05 44.44 -0.05 44.44 z" class="primitive"/>
            </g>
            <g transform="translate(196.52,86.68)" id="img-5fe9bc66-50">
              <path d="M-0.05,-44.44 L 0.05 -44.44 0.05 44.44 -0.05 44.44 z" class="primitive"/>
            </g>
            <g transform="translate(196.56,86.68)" id="img-5fe9bc66-51">
              <path d="M-0.05,-44.44 L 0.05 -44.44 0.05 44.44 -0.05 44.44 z" class="primitive"/>
            </g>
            <g transform="translate(196.61,71.86)" id="img-5fe9bc66-52">
              <path d="M-0.05,-59.25 L 0.05 -59.25 0.05 59.25 -0.05 59.25 z" class="primitive"/>
            </g>
            <g transform="translate(196.65,131.12)" id="img-5fe9bc66-53">
              <path d="M-0.05,-0 L 0.05 -0 0.05 0 -0.05 0 z" class="primitive"/>
            </g>
            <g transform="translate(196.7,131.12)" id="img-5fe9bc66-54">
              <path d="M-0.05,-0 L 0.05 -0 0.05 0 -0.05 0 z" class="primitive"/>
            </g>
            <g transform="translate(196.74,116.3)" id="img-5fe9bc66-55">
              <path d="M-0.05,-14.81 L 0.05 -14.81 0.05 14.81 -0.05 14.81 z" class="primitive"/>
            </g>
            <g transform="translate(196.79,101.49)" id="img-5fe9bc66-56">
              <path d="M-0.05,-29.63 L 0.05 -29.63 0.05 29.63 -0.05 29.63 z" class="primitive"/>
            </g>
            <g transform="translate(196.83,86.68)" id="img-5fe9bc66-57">
              <path d="M-0.05,-44.44 L 0.05 -44.44 0.05 44.44 -0.05 44.44 z" class="primitive"/>
            </g>
            <g transform="translate(196.87,116.3)" id="img-5fe9bc66-58">
              <path d="M-0.05,-14.81 L 0.05 -14.81 0.05 14.81 -0.05 14.81 z" class="primitive"/>
            </g>
            <g transform="translate(196.92,131.12)" id="img-5fe9bc66-59">
              <path d="M-0.05,-0 L 0.05 -0 0.05 0 -0.05 0 z" class="primitive"/>
            </g>
            <g transform="translate(196.96,131.12)" id="img-5fe9bc66-60">
              <path d="M-0.05,-0 L 0.05 -0 0.05 0 -0.05 0 z" class="primitive"/>
            </g>
            <g transform="translate(197.01,131.12)" id="img-5fe9bc66-61">
              <path d="M-0.05,-0 L 0.05 -0 0.05 0 -0.05 0 z" class="primitive"/>
            </g>
            <g transform="translate(197.05,131.12)" id="img-5fe9bc66-62">
              <path d="M-0.05,-0 L 0.05 -0 0.05 0 -0.05 0 z" class="primitive"/>
            </g>
            <g transform="translate(197.1,116.3)" id="img-5fe9bc66-63">
              <path d="M-0.05,-14.81 L 0.05 -14.81 0.05 14.81 -0.05 14.81 z" class="primitive"/>
            </g>
            <g transform="translate(197.14,131.12)" id="img-5fe9bc66-64">
              <path d="M-0.05,-0 L 0.05 -0 0.05 0 -0.05 0 z" class="primitive"/>
            </g>
            <g transform="translate(197.19,131.12)" id="img-5fe9bc66-65">
              <path d="M-0.05,-0 L 0.05 -0 0.05 0 -0.05 0 z" class="primitive"/>
            </g>
            <g transform="translate(197.23,131.12)" id="img-5fe9bc66-66">
              <path d="M-0.05,-0 L 0.05 -0 0.05 0 -0.05 0 z" class="primitive"/>
            </g>
            <g transform="translate(197.27,116.3)" id="img-5fe9bc66-67">
              <path d="M-0.05,-14.81 L 0.05 -14.81 0.05 14.81 -0.05 14.81 z" class="primitive"/>
            </g>
            <g transform="translate(197.32,131.12)" id="img-5fe9bc66-68">
              <path d="M-0.05,-0 L 0.05 -0 0.05 0 -0.05 0 z" class="primitive"/>
            </g>
            <g transform="translate(197.36,116.3)" id="img-5fe9bc66-69">
              <path d="M-0.05,-14.81 L 0.05 -14.81 0.05 14.81 -0.05 14.81 z" class="primitive"/>
            </g>
            <g transform="translate(197.41,131.12)" id="img-5fe9bc66-70">
              <path d="M-0.05,-0 L 0.05 -0 0.05 0 -0.05 0 z" class="primitive"/>
            </g>
            <g transform="translate(197.45,116.3)" id="img-5fe9bc66-71">
              <path d="M-0.05,-14.81 L 0.05 -14.81 0.05 14.81 -0.05 14.81 z" class="primitive"/>
            </g>
            <g transform="translate(197.5,116.3)" id="img-5fe9bc66-72">
              <path d="M-0.05,-14.81 L 0.05 -14.81 0.05 14.81 -0.05 14.81 z" class="primitive"/>
            </g>
          </g>
        </g>
      </g>
    </g>
  </g>
  <g class="guide ylabels" font-size="2.82" font-family="'PT Sans Caption','Helvetica Neue','Helvetica',sans-serif" fill="#6C606B" id="img-5fe9bc66-73">
    <g transform="translate(142.29,131.11)" id="img-5fe9bc66-74">
      <g class="primitive">
        <text text-anchor="end" dy="0.35em">0</text>
      </g>
    </g>
    <g transform="translate(142.29,101.49)" id="img-5fe9bc66-75">
      <g class="primitive">
        <text text-anchor="end" dy="0.35em">1</text>
      </g>
    </g>
    <g transform="translate(142.29,71.86)" id="img-5fe9bc66-76">
      <g class="primitive">
        <text text-anchor="end" dy="0.35em">2</text>
      </g>
    </g>
    <g transform="translate(142.29,42.24)" id="img-5fe9bc66-77">
      <g class="primitive">
        <text text-anchor="end" dy="0.35em">3</text>
      </g>
    </g>
    <g transform="translate(142.29,12.61)" id="img-5fe9bc66-78">
      <g class="primitive">
        <text text-anchor="end" dy="0.35em">4</text>
      </g>
    </g>
  </g>
  <g font-size="3.88" font-family="'PT Sans','Helvetica Neue','Helvetica',sans-serif" fill="#564A55" stroke="#000000" stroke-opacity="0.000" id="img-5fe9bc66-79">
    <g transform="translate(135.81,69.86)" id="img-5fe9bc66-80">
      <g class="primitive">
        <text text-anchor="middle" dy="0.35em" transform="rotate(-90,0, 2)">Count</text>
      </g>
    </g>
  </g>
  <g font-size="3.88" font-family="'PT Sans','Helvetica Neue','Helvetica',sans-serif" fill="#564A55" stroke="#000000" stroke-opacity="0.000" id="img-5fe9bc66-81">
    <g transform="translate(196.14,5)" id="img-5fe9bc66-82">
      <g class="primitive">
        <text text-anchor="middle" dy="0.6em">Less So</text>
      </g>
    </g>
  </g>
</g>
<g class="plotroot xscalable yscalable" id="img-5fe9bc66-83">
  <g font-size="3.88" font-family="'PT Sans','Helvetica Neue','Helvetica',sans-serif" fill="#564A55" stroke="#000000" stroke-opacity="0.000" id="img-5fe9bc66-84">
    <g transform="translate(69.14,140.79)" id="img-5fe9bc66-85">
      <g class="primitive">
        <text text-anchor="middle" dy="0.6em">kMeas/kCalc</text>
      </g>
    </g>
  </g>
  <g class="guide xlabels" font-size="2.82" font-family="'PT Sans Caption','Helvetica Neue','Helvetica',sans-serif" fill="#6C606B" id="img-5fe9bc66-86">
    <g transform="translate(18.28,134.11)" id="img-5fe9bc66-87">
      <g class="primitive">
        <text text-anchor="middle" dy="0.6em">0.0</text>
      </g>
    </g>
    <g transform="translate(43.71,134.11)" id="img-5fe9bc66-88">
      <g class="primitive">
        <text text-anchor="middle" dy="0.6em">0.5</text>
      </g>
    </g>
    <g transform="translate(69.14,134.11)" id="img-5fe9bc66-89">
      <g class="primitive">
        <text text-anchor="middle" dy="0.6em">1.0</text>
      </g>
    </g>
    <g transform="translate(94.57,134.11)" id="img-5fe9bc66-90">
      <g class="primitive">
        <text text-anchor="middle" dy="0.6em">1.5</text>
      </g>
    </g>
    <g transform="translate(120,134.11)" id="img-5fe9bc66-91">
      <g class="primitive">
        <text text-anchor="middle" dy="0.6em">2.0</text>
      </g>
    </g>
  </g>
  <g clip-path="url(#img-5fe9bc66-92)">
    <g id="img-5fe9bc66-93">
      <g pointer-events="visible" stroke-width="0.3" fill="#000000" fill-opacity="0.000" stroke="#000000" stroke-opacity="0.000" class="guide background" id="img-5fe9bc66-94">
        <g transform="translate(69.14,71.86)" id="img-5fe9bc66-95">
          <path d="M-52.86,-61.25 L 52.86 -61.25 52.86 61.25 -52.86 61.25 z" class="primitive"/>
        </g>
      </g>
      <g class="guide ygridlines xfixed" stroke-dasharray="0.5,0.5" stroke-width="0.2" stroke="#D0D0E0" id="img-5fe9bc66-96">
        <g transform="translate(69.14,131.11)" id="img-5fe9bc66-97">
          <path fill="none" d="M-52.86,0 L 52.86 0" class="primitive"/>
        </g>
        <g transform="translate(69.14,91.61)" id="img-5fe9bc66-98">
          <path fill="none" d="M-52.86,0 L 52.86 0" class="primitive"/>
        </g>
        <g transform="translate(69.14,52.11)" id="img-5fe9bc66-99">
          <path fill="none" d="M-52.86,0 L 52.86 0" class="primitive"/>
        </g>
        <g transform="translate(69.14,12.61)" id="img-5fe9bc66-100">
          <path fill="none" d="M-52.86,0 L 52.86 0" class="primitive"/>
        </g>
      </g>
      <g class="guide xgridlines yfixed" stroke-dasharray="0.5,0.5" stroke-width="0.2" stroke="#D0D0E0" id="img-5fe9bc66-101">
        <g transform="translate(18.28,71.86)" id="img-5fe9bc66-102">
          <path fill="none" d="M0,-61.25 L 0 61.25" class="primitive"/>
        </g>
        <g transform="translate(43.71,71.86)" id="img-5fe9bc66-103">
          <path fill="none" d="M0,-61.25 L 0 61.25" class="primitive"/>
        </g>
        <g transform="translate(69.14,71.86)" id="img-5fe9bc66-104">
          <path fill="none" d="M0,-61.25 L 0 61.25" class="primitive"/>
        </g>
        <g transform="translate(94.57,71.86)" id="img-5fe9bc66-105">
          <path fill="none" d="M0,-61.25 L 0 61.25" class="primitive"/>
        </g>
        <g transform="translate(120,71.86)" id="img-5fe9bc66-106">
          <path fill="none" d="M0,-61.25 L 0 61.25" class="primitive"/>
        </g>
      </g>
      <g class="plotpanel" id="img-5fe9bc66-107">
        <metadata>
          <boundingbox value="16.284999999999997mm 10.611666666666665mm 105.715mm 122.50333333333332mm"/>
          <unitbox value="-0.03932556653394288 3.050631487159292 2.078651133067886 -3.1012629743185847"/>
        </metadata>
        <g shape-rendering="crispEdges" stroke-width="0.3" id="img-5fe9bc66-108">
          <g class="geometry" fill-opacity="1" stroke="#000000" stroke-opacity="0.000" fill="#00BFFF" id="img-5fe9bc66-109">
            <g transform="translate(72.63,111.36)" id="img-5fe9bc66-110">
              <path d="M-0.06,-19.75 L 0.06 -19.75 0.06 19.75 -0.06 19.75 z" class="primitive"/>
            </g>
            <g transform="translate(72.69,131.12)" id="img-5fe9bc66-111">
              <path d="M-0.06,-0 L 0.06 -0 0.06 0 -0.06 0 z" class="primitive"/>
            </g>
            <g transform="translate(72.75,131.12)" id="img-5fe9bc66-112">
              <path d="M-0.06,-0 L 0.06 -0 0.06 0 -0.06 0 z" class="primitive"/>
            </g>
            <g transform="translate(72.82,111.36)" id="img-5fe9bc66-113">
              <path d="M-0.06,-19.75 L 0.06 -19.75 0.06 19.75 -0.06 19.75 z" class="primitive"/>
            </g>
            <g transform="translate(72.88,131.12)" id="img-5fe9bc66-114">
              <path d="M-0.06,-0 L 0.06 -0 0.06 0 -0.06 0 z" class="primitive"/>
            </g>
            <g transform="translate(72.94,111.36)" id="img-5fe9bc66-115">
              <path d="M-0.06,-19.75 L 0.06 -19.75 0.06 19.75 -0.06 19.75 z" class="primitive"/>
            </g>
            <g transform="translate(73.01,111.36)" id="img-5fe9bc66-116">
              <path d="M-0.06,-19.75 L 0.06 -19.75 0.06 19.75 -0.06 19.75 z" class="primitive"/>
            </g>
            <g transform="translate(73.07,111.36)" id="img-5fe9bc66-117">
              <path d="M-0.06,-19.75 L 0.06 -19.75 0.06 19.75 -0.06 19.75 z" class="primitive"/>
            </g>
            <g transform="translate(73.13,131.12)" id="img-5fe9bc66-118">
              <path d="M-0.06,-0 L 0.06 -0 0.06 0 -0.06 0 z" class="primitive"/>
            </g>
            <g transform="translate(73.2,111.36)" id="img-5fe9bc66-119">
              <path d="M-0.06,-19.75 L 0.06 -19.75 0.06 19.75 -0.06 19.75 z" class="primitive"/>
            </g>
            <g transform="translate(73.26,111.36)" id="img-5fe9bc66-120">
              <path d="M-0.06,-19.75 L 0.06 -19.75 0.06 19.75 -0.06 19.75 z" class="primitive"/>
            </g>
            <g transform="translate(73.32,111.36)" id="img-5fe9bc66-121">
              <path d="M-0.06,-19.75 L 0.06 -19.75 0.06 19.75 -0.06 19.75 z" class="primitive"/>
            </g>
            <g transform="translate(73.39,131.12)" id="img-5fe9bc66-122">
              <path d="M-0.06,-0 L 0.06 -0 0.06 0 -0.06 0 z" class="primitive"/>
            </g>
            <g transform="translate(73.45,131.12)" id="img-5fe9bc66-123">
              <path d="M-0.06,-0 L 0.06 -0 0.06 0 -0.06 0 z" class="primitive"/>
            </g>
            <g transform="translate(73.51,111.36)" id="img-5fe9bc66-124">
              <path d="M-0.06,-19.75 L 0.06 -19.75 0.06 19.75 -0.06 19.75 z" class="primitive"/>
            </g>
            <g transform="translate(73.58,91.61)" id="img-5fe9bc66-125">
              <path d="M-0.06,-39.5 L 0.06 -39.5 0.06 39.5 -0.06 39.5 z" class="primitive"/>
            </g>
            <g transform="translate(73.64,131.12)" id="img-5fe9bc66-126">
              <path d="M-0.06,-0 L 0.06 -0 0.06 0 -0.06 0 z" class="primitive"/>
            </g>
            <g transform="translate(73.7,91.61)" id="img-5fe9bc66-127">
              <path d="M-0.06,-39.5 L 0.06 -39.5 0.06 39.5 -0.06 39.5 z" class="primitive"/>
            </g>
            <g transform="translate(73.76,111.36)" id="img-5fe9bc66-128">
              <path d="M-0.06,-19.75 L 0.06 -19.75 0.06 19.75 -0.06 19.75 z" class="primitive"/>
            </g>
            <g transform="translate(73.83,131.12)" id="img-5fe9bc66-129">
              <path d="M-0.06,-0 L 0.06 -0 0.06 0 -0.06 0 z" class="primitive"/>
            </g>
            <g transform="translate(73.89,131.12)" id="img-5fe9bc66-130">
              <path d="M-0.06,-0 L 0.06 -0 0.06 0 -0.06 0 z" class="primitive"/>
            </g>
            <g transform="translate(73.95,91.61)" id="img-5fe9bc66-131">
              <path d="M-0.06,-39.5 L 0.06 -39.5 0.06 39.5 -0.06 39.5 z" class="primitive"/>
            </g>
            <g transform="translate(74.02,71.86)" id="img-5fe9bc66-132">
              <path d="M-0.06,-59.25 L 0.06 -59.25 0.06 59.25 -0.06 59.25 z" class="primitive"/>
            </g>
            <g transform="translate(74.08,71.86)" id="img-5fe9bc66-133">
              <path d="M-0.06,-59.25 L 0.06 -59.25 0.06 59.25 -0.06 59.25 z" class="primitive"/>
            </g>
            <g transform="translate(74.14,91.61)" id="img-5fe9bc66-134">
              <path d="M-0.06,-39.5 L 0.06 -39.5 0.06 39.5 -0.06 39.5 z" class="primitive"/>
            </g>
            <g transform="translate(74.21,131.12)" id="img-5fe9bc66-135">
              <path d="M-0.06,-0 L 0.06 -0 0.06 0 -0.06 0 z" class="primitive"/>
            </g>
            <g transform="translate(74.27,131.12)" id="img-5fe9bc66-136">
              <path d="M-0.06,-0 L 0.06 -0 0.06 0 -0.06 0 z" class="primitive"/>
            </g>
            <g transform="translate(74.33,111.36)" id="img-5fe9bc66-137">
              <path d="M-0.06,-19.75 L 0.06 -19.75 0.06 19.75 -0.06 19.75 z" class="primitive"/>
            </g>
            <g transform="translate(74.4,111.36)" id="img-5fe9bc66-138">
              <path d="M-0.06,-19.75 L 0.06 -19.75 0.06 19.75 -0.06 19.75 z" class="primitive"/>
            </g>
            <g transform="translate(74.46,91.61)" id="img-5fe9bc66-139">
              <path d="M-0.06,-39.5 L 0.06 -39.5 0.06 39.5 -0.06 39.5 z" class="primitive"/>
            </g>
            <g transform="translate(74.52,91.61)" id="img-5fe9bc66-140">
              <path d="M-0.06,-39.5 L 0.06 -39.5 0.06 39.5 -0.06 39.5 z" class="primitive"/>
            </g>
            <g transform="translate(74.59,131.12)" id="img-5fe9bc66-141">
              <path d="M-0.06,-0 L 0.06 -0 0.06 0 -0.06 0 z" class="primitive"/>
            </g>
            <g transform="translate(74.65,131.12)" id="img-5fe9bc66-142">
              <path d="M-0.06,-0 L 0.06 -0 0.06 0 -0.06 0 z" class="primitive"/>
            </g>
            <g transform="translate(74.71,111.36)" id="img-5fe9bc66-143">
              <path d="M-0.06,-19.75 L 0.06 -19.75 0.06 19.75 -0.06 19.75 z" class="primitive"/>
            </g>
            <g transform="translate(74.78,131.12)" id="img-5fe9bc66-144">
              <path d="M-0.06,-0 L 0.06 -0 0.06 0 -0.06 0 z" class="primitive"/>
            </g>
            <g transform="translate(74.84,131.12)" id="img-5fe9bc66-145">
              <path d="M-0.06,-0 L 0.06 -0 0.06 0 -0.06 0 z" class="primitive"/>
            </g>
            <g transform="translate(74.9,131.12)" id="img-5fe9bc66-146">
              <path d="M-0.06,-0 L 0.06 -0 0.06 0 -0.06 0 z" class="primitive"/>
            </g>
            <g transform="translate(74.97,131.12)" id="img-5fe9bc66-147">
              <path d="M-0.06,-0 L 0.06 -0 0.06 0 -0.06 0 z" class="primitive"/>
            </g>
            <g transform="translate(75.03,111.36)" id="img-5fe9bc66-148">
              <path d="M-0.06,-19.75 L 0.06 -19.75 0.06 19.75 -0.06 19.75 z" class="primitive"/>
            </g>
            <g transform="translate(75.09,111.36)" id="img-5fe9bc66-149">
              <path d="M-0.06,-19.75 L 0.06 -19.75 0.06 19.75 -0.06 19.75 z" class="primitive"/>
            </g>
            <g transform="translate(75.16,131.12)" id="img-5fe9bc66-150">
              <path d="M-0.06,-0 L 0.06 -0 0.06 0 -0.06 0 z" class="primitive"/>
            </g>
            <g transform="translate(75.22,131.12)" id="img-5fe9bc66-151">
              <path d="M-0.06,-0 L 0.06 -0 0.06 0 -0.06 0 z" class="primitive"/>
            </g>
            <g transform="translate(75.28,131.12)" id="img-5fe9bc66-152">
              <path d="M-0.06,-0 L 0.06 -0 0.06 0 -0.06 0 z" class="primitive"/>
            </g>
            <g transform="translate(75.35,131.12)" id="img-5fe9bc66-153">
              <path d="M-0.06,-0 L 0.06 -0 0.06 0 -0.06 0 z" class="primitive"/>
            </g>
            <g transform="translate(75.41,111.36)" id="img-5fe9bc66-154">
              <path d="M-0.06,-19.75 L 0.06 -19.75 0.06 19.75 -0.06 19.75 z" class="primitive"/>
            </g>
            <g transform="translate(75.47,131.12)" id="img-5fe9bc66-155">
              <path d="M-0.06,-0 L 0.06 -0 0.06 0 -0.06 0 z" class="primitive"/>
            </g>
            <g transform="translate(75.53,131.12)" id="img-5fe9bc66-156">
              <path d="M-0.06,-0 L 0.06 -0 0.06 0 -0.06 0 z" class="primitive"/>
            </g>
            <g transform="translate(75.6,131.12)" id="img-5fe9bc66-157">
              <path d="M-0.06,-0 L 0.06 -0 0.06 0 -0.06 0 z" class="primitive"/>
            </g>
            <g transform="translate(75.66,91.61)" id="img-5fe9bc66-158">
              <path d="M-0.06,-39.5 L 0.06 -39.5 0.06 39.5 -0.06 39.5 z" class="primitive"/>
            </g>
            <g transform="translate(75.72,131.12)" id="img-5fe9bc66-159">
              <path d="M-0.06,-0 L 0.06 -0 0.06 0 -0.06 0 z" class="primitive"/>
            </g>
          </g>
        </g>
      </g>
    </g>
  </g>
  <g class="guide ylabels" font-size="2.82" font-family="'PT Sans Caption','Helvetica Neue','Helvetica',sans-serif" fill="#6C606B" id="img-5fe9bc66-160">
    <g transform="translate(15.28,131.11)" id="img-5fe9bc66-161">
      <g class="primitive">
        <text text-anchor="end" dy="0.35em">0</text>
      </g>
    </g>
    <g transform="translate(15.28,91.61)" id="img-5fe9bc66-162">
      <g class="primitive">
        <text text-anchor="end" dy="0.35em">1</text>
      </g>
    </g>
    <g transform="translate(15.28,52.11)" id="img-5fe9bc66-163">
      <g class="primitive">
        <text text-anchor="end" dy="0.35em">2</text>
      </g>
    </g>
    <g transform="translate(15.28,12.61)" id="img-5fe9bc66-164">
      <g class="primitive">
        <text text-anchor="end" dy="0.35em">3</text>
      </g>
    </g>
  </g>
  <g font-size="3.88" font-family="'PT Sans','Helvetica Neue','Helvetica',sans-serif" fill="#564A55" stroke="#000000" stroke-opacity="0.000" id="img-5fe9bc66-165">
    <g transform="translate(8.81,69.86)" id="img-5fe9bc66-166">
      <g class="primitive">
        <text text-anchor="middle" dy="0.35em" transform="rotate(-90,0, 2)">Count</text>
      </g>
    </g>
  </g>
  <g font-size="3.88" font-family="'PT Sans','Helvetica Neue','Helvetica',sans-serif" fill="#564A55" stroke="#000000" stroke-opacity="0.000" id="img-5fe9bc66-167">
    <g transform="translate(69.14,5)" id="img-5fe9bc66-168">
      <g class="primitive">
        <text text-anchor="middle" dy="0.6em">Weird</text>
      </g>
    </g>
  </g>
</g>
<defs>
  <clipPath id="img-5fe9bc66-4">
    <path d="M143.28,10.61 L 249 10.61 249 133.11 143.28 133.11" />
  </clipPath>
  <clipPath id="img-5fe9bc66-92">
    <path d="M16.28,10.61 L 122 10.61 122 133.11 16.28 133.11" />
  </clipPath>
</defs>
</svg>
