<?xml version="1.0" encoding="UTF-8"?>
<svg xmlns="http://www.w3.org/2000/svg"
     xmlns:xlink="http://www.w3.org/1999/xlink"
     xmlns:gadfly="http://www.gadflyjl.org/ns"
     version="1.2"
     width="254mm" height="152.4mm" viewBox="0 0 254 152.4"
     stroke="none"
     fill="#000000"
     stroke-width="0.3"
     font-size="3.88"
>
<defs>
  <marker id="arrow" markerWidth="15" markerHeight="7" refX="5" refY="3.5" orient="auto" markerUnits="strokeWidth">
    <path d="M0,0 L15,3.5 L0,7 z" stroke="context-stroke" fill="context-stroke"/>
  </marker>
</defs>
<g class="plotroot xscalable yscalable" id="img-8ed659b2-1">
  <g font-size="3.88" font-family="'PT Sans','Helvetica Neue','Helvetica',sans-serif" fill="#564A55" stroke="#000000" stroke-opacity="0.000" id="img-8ed659b2-2">
    <g transform="translate(218.15,140.79)">
      <g class="primitive">
        <text text-anchor="middle" dy="0.6em">kMeas/kCalc</text>
      </g>
    </g>
  </g>
  <g class="guide xlabels" font-size="2.82" font-family="'PT Sans Caption','Helvetica Neue','Helvetica',sans-serif" fill="#6C606B" id="img-8ed659b2-3">
    <g transform="translate(189.29,134.11)">
      <g class="primitive">
        <text text-anchor="middle" dy="0.6em">0.0</text>
      </g>
    </g>
    <g transform="translate(203.72,134.11)">
      <g class="primitive">
        <text text-anchor="middle" dy="0.6em">0.5</text>
      </g>
    </g>
    <g transform="translate(218.15,134.11)">
      <g class="primitive">
        <text text-anchor="middle" dy="0.6em">1.0</text>
      </g>
    </g>
    <g transform="translate(232.57,134.11)">
      <g class="primitive">
        <text text-anchor="middle" dy="0.6em">1.5</text>
      </g>
    </g>
    <g transform="translate(247,134.11)">
      <g class="primitive">
        <text text-anchor="middle" dy="0.6em">2.0</text>
      </g>
    </g>
  </g>
  <g clip-path="url(#img-8ed659b2-4)">
    <g id="img-8ed659b2-5">
      <g pointer-events="visible" stroke-width="0.3" fill="#000000" fill-opacity="0.000" stroke="#000000" stroke-opacity="0.000" class="guide background" id="img-8ed659b2-6">
        <g transform="translate(218.15,109.96)" id="img-8ed659b2-7">
          <path d="M-30.85,-23.15 L 30.85 -23.15 30.85 23.15 -30.85 23.15 z" class="primitive"/>
        </g>
      </g>
      <g class="guide ygridlines xfixed" stroke-dasharray="0.5,0.5" stroke-width="0.2" stroke="#D0D0E0" id="img-8ed659b2-8">
        <g transform="translate(218.15,131.11)" id="img-8ed659b2-9">
          <path fill="none" d="M-30.85,0 L 30.85 0" class="primitive"/>
        </g>
        <g transform="translate(218.15,120.54)" id="img-8ed659b2-10">
          <path fill="none" d="M-30.85,0 L 30.85 0" class="primitive"/>
        </g>
        <g transform="translate(218.15,109.96)" id="img-8ed659b2-11">
          <path fill="none" d="M-30.85,0 L 30.85 0" class="primitive"/>
        </g>
        <g transform="translate(218.15,99.39)" id="img-8ed659b2-12">
          <path fill="none" d="M-30.85,0 L 30.85 0" class="primitive"/>
        </g>
        <g transform="translate(218.15,88.81)" id="img-8ed659b2-13">
          <path fill="none" d="M-30.85,0 L 30.85 0" class="primitive"/>
        </g>
      </g>
      <g class="guide xgridlines yfixed" stroke-dasharray="0.5,0.5" stroke-width="0.2" stroke="#D0D0E0" id="img-8ed659b2-14">
        <g transform="translate(189.29,109.96)" id="img-8ed659b2-15">
          <path fill="none" d="M0,-23.15 L 0 23.15" class="primitive"/>
        </g>
        <g transform="translate(203.72,109.96)" id="img-8ed659b2-16">
          <path fill="none" d="M0,-23.15 L 0 23.15" class="primitive"/>
        </g>
        <g transform="translate(218.15,109.96)" id="img-8ed659b2-17">
          <path fill="none" d="M0,-23.15 L 0 23.15" class="primitive"/>
        </g>
        <g transform="translate(232.57,109.96)" id="img-8ed659b2-18">
          <path fill="none" d="M0,-23.15 L 0 23.15" class="primitive"/>
        </g>
        <g transform="translate(247,109.96)" id="img-8ed659b2-19">
          <path fill="none" d="M0,-23.15 L 0 23.15" class="primitive"/>
        </g>
      </g>
      <g class="plotpanel" id="img-8ed659b2-20">
        <metadata>
          <boundingbox value="187.29166666666666mm 86.81166666666665mm 61.70833333333332mm 46.30333333333333mm"/>
          <unitbox value="-0.0693140794223827 83.78220786384051 2.1386281588447655 -87.56441572768104"/>
        </metadata>
        <g shape-rendering="crispEdges" stroke-width="0.3" id="img-8ed659b2-21">
          <g class="geometry" fill-opacity="1" stroke="#000000" stroke-opacity="0.000" fill="#00BFFF" id="img-8ed659b2-22">
            <g transform="translate(189.67,130.85)" id="img-8ed659b2-23">
              <path d="M-0.4,-0.26 L 0.4 -0.26 0.4 0.26 -0.4 0.26 z" class="primitive"/>
            </g>
            <g transform="translate(190.43,131.12)" id="img-8ed659b2-24">
              <path d="M-0.4,-0 L 0.4 -0 0.4 0 -0.4 0 z" class="primitive"/>
            </g>
            <g transform="translate(191.18,131.12)" id="img-8ed659b2-25">
              <path d="M-0.4,-0 L 0.4 -0 0.4 0 -0.4 0 z" class="primitive"/>
            </g>
            <g transform="translate(191.94,131.12)" id="img-8ed659b2-26">
              <path d="M-0.4,-0 L 0.4 -0 0.4 0 -0.4 0 z" class="primitive"/>
            </g>
            <g transform="translate(192.7,131.12)" id="img-8ed659b2-27">
              <path d="M-0.4,-0 L 0.4 -0 0.4 0 -0.4 0 z" class="primitive"/>
            </g>
            <g transform="translate(193.46,131.12)" id="img-8ed659b2-28">
              <path d="M-0.4,-0 L 0.4 -0 0.4 0 -0.4 0 z" class="primitive"/>
            </g>
            <g transform="translate(194.21,131.12)" id="img-8ed659b2-29">
              <path d="M-0.4,-0 L 0.4 -0 0.4 0 -0.4 0 z" class="primitive"/>
            </g>
            <g transform="translate(194.97,131.12)" id="img-8ed659b2-30">
              <path d="M-0.4,-0 L 0.4 -0 0.4 0 -0.4 0 z" class="primitive"/>
            </g>
            <g transform="translate(195.73,131.12)" id="img-8ed659b2-31">
              <path d="M-0.4,-0 L 0.4 -0 0.4 0 -0.4 0 z" class="primitive"/>
            </g>
            <g transform="translate(196.48,131.12)" id="img-8ed659b2-32">
              <path d="M-0.4,-0 L 0.4 -0 0.4 0 -0.4 0 z" class="primitive"/>
            </g>
            <g transform="translate(197.24,131.12)" id="img-8ed659b2-33">
              <path d="M-0.4,-0 L 0.4 -0 0.4 0 -0.4 0 z" class="primitive"/>
            </g>
            <g transform="translate(198,131.12)" id="img-8ed659b2-34">
              <path d="M-0.4,-0 L 0.4 -0 0.4 0 -0.4 0 z" class="primitive"/>
            </g>
            <g transform="translate(198.76,131.12)" id="img-8ed659b2-35">
              <path d="M-0.4,-0 L 0.4 -0 0.4 0 -0.4 0 z" class="primitive"/>
            </g>
            <g transform="translate(199.51,131.12)" id="img-8ed659b2-36">
              <path d="M-0.4,-0 L 0.4 -0 0.4 0 -0.4 0 z" class="primitive"/>
            </g>
            <g transform="translate(200.27,131.12)" id="img-8ed659b2-37">
              <path d="M-0.4,-0 L 0.4 -0 0.4 0 -0.4 0 z" class="primitive"/>
            </g>
            <g transform="translate(201.03,131.12)" id="img-8ed659b2-38">
              <path d="M-0.4,-0 L 0.4 -0 0.4 0 -0.4 0 z" class="primitive"/>
            </g>
            <g transform="translate(201.79,131.12)" id="img-8ed659b2-39">
              <path d="M-0.4,-0 L 0.4 -0 0.4 0 -0.4 0 z" class="primitive"/>
            </g>
            <g transform="translate(202.54,131.12)" id="img-8ed659b2-40">
              <path d="M-0.4,-0 L 0.4 -0 0.4 0 -0.4 0 z" class="primitive"/>
            </g>
            <g transform="translate(203.3,131.12)" id="img-8ed659b2-41">
              <path d="M-0.4,-0 L 0.4 -0 0.4 0 -0.4 0 z" class="primitive"/>
            </g>
            <g transform="translate(204.06,131.12)" id="img-8ed659b2-42">
              <path d="M-0.4,-0 L 0.4 -0 0.4 0 -0.4 0 z" class="primitive"/>
            </g>
            <g transform="translate(204.81,131.12)" id="img-8ed659b2-43">
              <path d="M-0.4,-0 L 0.4 -0 0.4 0 -0.4 0 z" class="primitive"/>
            </g>
            <g transform="translate(205.57,131.12)" id="img-8ed659b2-44">
              <path d="M-0.4,-0 L 0.4 -0 0.4 0 -0.4 0 z" class="primitive"/>
            </g>
            <g transform="translate(206.33,131.12)" id="img-8ed659b2-45">
              <path d="M-0.4,-0 L 0.4 -0 0.4 0 -0.4 0 z" class="primitive"/>
            </g>
            <g transform="translate(207.09,131.12)" id="img-8ed659b2-46">
              <path d="M-0.4,-0 L 0.4 -0 0.4 0 -0.4 0 z" class="primitive"/>
            </g>
            <g transform="translate(207.84,131.12)" id="img-8ed659b2-47">
              <path d="M-0.4,-0 L 0.4 -0 0.4 0 -0.4 0 z" class="primitive"/>
            </g>
            <g transform="translate(208.6,131.12)" id="img-8ed659b2-48">
              <path d="M-0.4,-0 L 0.4 -0 0.4 0 -0.4 0 z" class="primitive"/>
            </g>
            <g transform="translate(209.36,131.12)" id="img-8ed659b2-49">
              <path d="M-0.4,-0 L 0.4 -0 0.4 0 -0.4 0 z" class="primitive"/>
            </g>
            <g transform="translate(210.11,131.12)" id="img-8ed659b2-50">
              <path d="M-0.4,-0 L 0.4 -0 0.4 0 -0.4 0 z" class="primitive"/>
            </g>
            <g transform="translate(210.87,131.12)" id="img-8ed659b2-51">
              <path d="M-0.4,-0 L 0.4 -0 0.4 0 -0.4 0 z" class="primitive"/>
            </g>
            <g transform="translate(211.63,131.12)" id="img-8ed659b2-52">
              <path d="M-0.4,-0 L 0.4 -0 0.4 0 -0.4 0 z" class="primitive"/>
            </g>
            <g transform="translate(212.39,131.12)" id="img-8ed659b2-53">
              <path d="M-0.4,-0 L 0.4 -0 0.4 0 -0.4 0 z" class="primitive"/>
            </g>
            <g transform="translate(213.14,131.12)" id="img-8ed659b2-54">
              <path d="M-0.4,-0 L 0.4 -0 0.4 0 -0.4 0 z" class="primitive"/>
            </g>
            <g transform="translate(213.9,131.12)" id="img-8ed659b2-55">
              <path d="M-0.4,-0 L 0.4 -0 0.4 0 -0.4 0 z" class="primitive"/>
            </g>
            <g transform="translate(214.66,130.85)" id="img-8ed659b2-56">
              <path d="M-0.4,-0.26 L 0.4 -0.26 0.4 0.26 -0.4 0.26 z" class="primitive"/>
            </g>
            <g transform="translate(215.41,131.12)" id="img-8ed659b2-57">
              <path d="M-0.4,-0 L 0.4 -0 0.4 0 -0.4 0 z" class="primitive"/>
            </g>
            <g transform="translate(216.17,128.74)" id="img-8ed659b2-58">
              <path d="M-0.4,-2.38 L 0.4 -2.38 0.4 2.38 -0.4 2.38 z" class="primitive"/>
            </g>
            <g transform="translate(216.93,127.15)" id="img-8ed659b2-59">
              <path d="M-0.4,-3.97 L 0.4 -3.97 0.4 3.97 -0.4 3.97 z" class="primitive"/>
            </g>
            <g transform="translate(217.69,119.48)" id="img-8ed659b2-60">
              <path d="M-0.4,-11.63 L 0.4 -11.63 0.4 11.63 -0.4 11.63 z" class="primitive"/>
            </g>
            <g transform="translate(218.44,112.87)" id="img-8ed659b2-61">
              <path d="M-0.4,-18.24 L 0.4 -18.24 0.4 18.24 -0.4 18.24 z" class="primitive"/>
            </g>
            <g transform="translate(219.2,122.39)" id="img-8ed659b2-62">
              <path d="M-0.4,-8.73 L 0.4 -8.73 0.4 8.73 -0.4 8.73 z" class="primitive"/>
            </g>
            <g transform="translate(219.96,125.3)" id="img-8ed659b2-63">
              <path d="M-0.4,-5.82 L 0.4 -5.82 0.4 5.82 -0.4 5.82 z" class="primitive"/>
            </g>
            <g transform="translate(220.71,126.62)" id="img-8ed659b2-64">
              <path d="M-0.4,-4.49 L 0.4 -4.49 0.4 4.49 -0.4 4.49 z" class="primitive"/>
            </g>
            <g transform="translate(221.47,129.53)" id="img-8ed659b2-65">
              <path d="M-0.4,-1.59 L 0.4 -1.59 0.4 1.59 -0.4 1.59 z" class="primitive"/>
            </g>
            <g transform="translate(222.23,130.06)" id="img-8ed659b2-66">
              <path d="M-0.4,-1.06 L 0.4 -1.06 0.4 1.06 -0.4 1.06 z" class="primitive"/>
            </g>
            <g transform="translate(222.99,130.32)" id="img-8ed659b2-67">
              <path d="M-0.4,-0.79 L 0.4 -0.79 0.4 0.79 -0.4 0.79 z" class="primitive"/>
            </g>
            <g transform="translate(223.74,130.59)" id="img-8ed659b2-68">
              <path d="M-0.4,-0.53 L 0.4 -0.53 0.4 0.53 -0.4 0.53 z" class="primitive"/>
            </g>
            <g transform="translate(224.5,129.79)" id="img-8ed659b2-69">
              <path d="M-0.4,-1.32 L 0.4 -1.32 0.4 1.32 -0.4 1.32 z" class="primitive"/>
            </g>
            <g transform="translate(225.26,130.06)" id="img-8ed659b2-70">
              <path d="M-0.4,-1.06 L 0.4 -1.06 0.4 1.06 -0.4 1.06 z" class="primitive"/>
            </g>
            <g transform="translate(226.01,130.85)" id="img-8ed659b2-71">
              <path d="M-0.4,-0.26 L 0.4 -0.26 0.4 0.26 -0.4 0.26 z" class="primitive"/>
            </g>
            <g transform="translate(226.77,130.85)" id="img-8ed659b2-72">
              <path d="M-0.4,-0.26 L 0.4 -0.26 0.4 0.26 -0.4 0.26 z" class="primitive"/>
            </g>
          </g>
        </g>
      </g>
    </g>
  </g>
  <g class="guide ylabels" font-size="2.82" font-family="'PT Sans Caption','Helvetica Neue','Helvetica',sans-serif" fill="#6C606B" id="img-8ed659b2-73">
    <g transform="translate(186.29,131.11)" id="img-8ed659b2-74">
      <g class="primitive">
        <text text-anchor="end" dy="0.35em">0</text>
      </g>
    </g>
    <g transform="translate(186.29,120.54)" id="img-8ed659b2-75">
      <g class="primitive">
        <text text-anchor="end" dy="0.35em">20</text>
      </g>
    </g>
    <g transform="translate(186.29,109.96)" id="img-8ed659b2-76">
      <g class="primitive">
        <text text-anchor="end" dy="0.35em">40</text>
      </g>
    </g>
    <g transform="translate(186.29,99.39)" id="img-8ed659b2-77">
      <g class="primitive">
        <text text-anchor="end" dy="0.35em">60</text>
      </g>
    </g>
    <g transform="translate(186.29,88.81)" id="img-8ed659b2-78">
      <g class="primitive">
        <text text-anchor="end" dy="0.35em">80</text>
      </g>
    </g>
  </g>
  <g font-size="3.88" font-family="'PT Sans','Helvetica Neue','Helvetica',sans-serif" fill="#564A55" stroke="#000000" stroke-opacity="0.000" id="img-8ed659b2-79">
    <g transform="translate(178.14,107.96)" id="img-8ed659b2-80">
      <g class="primitive">
        <text text-anchor="middle" dy="0.35em" transform="rotate(-90,0, 2)">Count</text>
      </g>
    </g>
  </g>
  <g font-size="3.88" font-family="'PT Sans','Helvetica Neue','Helvetica',sans-serif" fill="#564A55" stroke="#000000" stroke-opacity="0.000" id="img-8ed659b2-81">
    <g transform="translate(218.15,81.2)" id="img-8ed659b2-82">
      <g class="primitive">
        <text text-anchor="middle" dy="0.6em">Riveros</text>
      </g>
    </g>
  </g>
</g>
<g class="plotroot xscalable yscalable" id="img-8ed659b2-83">
  <g font-size="3.88" font-family="'PT Sans','Helvetica Neue','Helvetica',sans-serif" fill="#564A55" stroke="#000000" stroke-opacity="0.000" id="img-8ed659b2-84">
    <g transform="translate(133.48,140.79)" id="img-8ed659b2-85">
      <g class="primitive">
        <text text-anchor="middle" dy="0.6em">kMeas/kCalc</text>
      </g>
    </g>
  </g>
  <g class="guide xlabels" font-size="2.82" font-family="'PT Sans Caption','Helvetica Neue','Helvetica',sans-serif" fill="#6C606B" id="img-8ed659b2-86">
    <g transform="translate(104.62,134.11)" id="img-8ed659b2-87">
      <g class="primitive">
        <text text-anchor="middle" dy="0.6em">0.0</text>
      </g>
    </g>
    <g transform="translate(119.05,134.11)" id="img-8ed659b2-88">
      <g class="primitive">
        <text text-anchor="middle" dy="0.6em">0.5</text>
      </g>
    </g>
    <g transform="translate(133.48,134.11)" id="img-8ed659b2-89">
      <g class="primitive">
        <text text-anchor="middle" dy="0.6em">1.0</text>
      </g>
    </g>
    <g transform="translate(147.91,134.11)" id="img-8ed659b2-90">
      <g class="primitive">
        <text text-anchor="middle" dy="0.6em">1.5</text>
      </g>
    </g>
    <g transform="translate(162.33,134.11)" id="img-8ed659b2-91">
      <g class="primitive">
        <text text-anchor="middle" dy="0.6em">2.0</text>
      </g>
    </g>
  </g>
  <g clip-path="url(#img-8ed659b2-92)">
    <g id="img-8ed659b2-93">
      <g pointer-events="visible" stroke-width="0.3" fill="#000000" fill-opacity="0.000" stroke="#000000" stroke-opacity="0.000" class="guide background" id="img-8ed659b2-94">
        <g transform="translate(133.48,109.96)" id="img-8ed659b2-95">
          <path d="M-30.85,-23.15 L 30.85 -23.15 30.85 23.15 -30.85 23.15 z" class="primitive"/>
        </g>
      </g>
      <g class="guide ygridlines xfixed" stroke-dasharray="0.5,0.5" stroke-width="0.2" stroke="#D0D0E0" id="img-8ed659b2-96">
        <g transform="translate(133.48,131.11)" id="img-8ed659b2-97">
          <path fill="none" d="M-30.85,0 L 30.85 0" class="primitive"/>
        </g>
        <g transform="translate(133.48,122.65)" id="img-8ed659b2-98">
          <path fill="none" d="M-30.85,0 L 30.85 0" class="primitive"/>
        </g>
        <g transform="translate(133.48,114.19)" id="img-8ed659b2-99">
          <path fill="none" d="M-30.85,0 L 30.85 0" class="primitive"/>
        </g>
        <g transform="translate(133.48,105.73)" id="img-8ed659b2-100">
          <path fill="none" d="M-30.85,0 L 30.85 0" class="primitive"/>
        </g>
        <g transform="translate(133.48,97.27)" id="img-8ed659b2-101">
          <path fill="none" d="M-30.85,0 L 30.85 0" class="primitive"/>
        </g>
        <g transform="translate(133.48,88.81)" id="img-8ed659b2-102">
          <path fill="none" d="M-30.85,0 L 30.85 0" class="primitive"/>
        </g>
      </g>
      <g class="guide xgridlines yfixed" stroke-dasharray="0.5,0.5" stroke-width="0.2" stroke="#D0D0E0" id="img-8ed659b2-103">
        <g transform="translate(104.62,109.96)" id="img-8ed659b2-104">
          <path fill="none" d="M0,-23.15 L 0 23.15" class="primitive"/>
        </g>
        <g transform="translate(119.05,109.96)" id="img-8ed659b2-105">
          <path fill="none" d="M0,-23.15 L 0 23.15" class="primitive"/>
        </g>
        <g transform="translate(133.48,109.96)" id="img-8ed659b2-106">
          <path fill="none" d="M0,-23.15 L 0 23.15" class="primitive"/>
        </g>
        <g transform="translate(147.91,109.96)" id="img-8ed659b2-107">
          <path fill="none" d="M0,-23.15 L 0 23.15" class="primitive"/>
        </g>
        <g transform="translate(162.33,109.96)" id="img-8ed659b2-108">
          <path fill="none" d="M0,-23.15 L 0 23.15" class="primitive"/>
        </g>
      </g>
      <g class="plotpanel" id="img-8ed659b2-109">
        <metadata>
          <boundingbox value="102.625mm 86.81166666666665mm 61.70833333333332mm 46.30333333333333mm"/>
          <unitbox value="-0.0693140794223827 26.18193995745016 2.1386281588447655 -27.363879914900323"/>
        </metadata>
        <g shape-rendering="crispEdges" stroke-width="0.3" id="img-8ed659b2-110">
          <g class="geometry" fill-opacity="1" stroke="#000000" stroke-opacity="0.000" fill="#00BFFF" id="img-8ed659b2-111">
            <g transform="translate(129.17,130.27)" id="img-8ed659b2-112">
              <path d="M-0.13,-0.85 L 0.13 -0.85 0.13 0.85 -0.13 0.85 z" class="primitive"/>
            </g>
            <g transform="translate(129.38,130.27)" id="img-8ed659b2-113">
              <path d="M-0.13,-0.85 L 0.13 -0.85 0.13 0.85 -0.13 0.85 z" class="primitive"/>
            </g>
            <g transform="translate(129.59,131.12)" id="img-8ed659b2-114">
              <path d="M-0.13,-0 L 0.13 -0 0.13 0 -0.13 0 z" class="primitive"/>
            </g>
            <g transform="translate(129.79,128.58)" id="img-8ed659b2-115">
              <path d="M-0.13,-2.54 L 0.13 -2.54 0.13 2.54 -0.13 2.54 z" class="primitive"/>
            </g>
            <g transform="translate(130,130.27)" id="img-8ed659b2-116">
              <path d="M-0.13,-0.85 L 0.13 -0.85 0.13 0.85 -0.13 0.85 z" class="primitive"/>
            </g>
            <g transform="translate(130.21,129.42)" id="img-8ed659b2-117">
              <path d="M-0.13,-1.69 L 0.13 -1.69 0.13 1.69 -0.13 1.69 z" class="primitive"/>
            </g>
            <g transform="translate(130.41,129.42)" id="img-8ed659b2-118">
              <path d="M-0.13,-1.69 L 0.13 -1.69 0.13 1.69 -0.13 1.69 z" class="primitive"/>
            </g>
            <g transform="translate(130.62,125.19)" id="img-8ed659b2-119">
              <path d="M-0.13,-5.92 L 0.13 -5.92 0.13 5.92 -0.13 5.92 z" class="primitive"/>
            </g>
            <g transform="translate(130.83,126.88)" id="img-8ed659b2-120">
              <path d="M-0.13,-4.23 L 0.13 -4.23 0.13 4.23 -0.13 4.23 z" class="primitive"/>
            </g>
            <g transform="translate(131.03,127.73)" id="img-8ed659b2-121">
              <path d="M-0.13,-3.38 L 0.13 -3.38 0.13 3.38 -0.13 3.38 z" class="primitive"/>
            </g>
            <g transform="translate(131.24,124.35)" id="img-8ed659b2-122">
              <path d="M-0.13,-6.77 L 0.13 -6.77 0.13 6.77 -0.13 6.77 z" class="primitive"/>
            </g>
            <g transform="translate(131.45,124.35)" id="img-8ed659b2-123">
              <path d="M-0.13,-6.77 L 0.13 -6.77 0.13 6.77 -0.13 6.77 z" class="primitive"/>
            </g>
            <g transform="translate(131.65,120.96)" id="img-8ed659b2-124">
              <path d="M-0.13,-10.15 L 0.13 -10.15 0.13 10.15 -0.13 10.15 z" class="primitive"/>
            </g>
            <g transform="translate(131.86,126.04)" id="img-8ed659b2-125">
              <path d="M-0.13,-5.08 L 0.13 -5.08 0.13 5.08 -0.13 5.08 z" class="primitive"/>
            </g>
            <g transform="translate(132.07,124.35)" id="img-8ed659b2-126">
              <path d="M-0.13,-6.77 L 0.13 -6.77 0.13 6.77 -0.13 6.77 z" class="primitive"/>
            </g>
            <g transform="translate(132.27,116.73)" id="img-8ed659b2-127">
              <path d="M-0.13,-14.38 L 0.13 -14.38 0.13 14.38 -0.13 14.38 z" class="primitive"/>
            </g>
            <g transform="translate(132.48,123.5)" id="img-8ed659b2-128">
              <path d="M-0.13,-7.61 L 0.13 -7.61 0.13 7.61 -0.13 7.61 z" class="primitive"/>
            </g>
            <g transform="translate(132.68,113.35)" id="img-8ed659b2-129">
              <path d="M-0.13,-17.77 L 0.13 -17.77 0.13 17.77 -0.13 17.77 z" class="primitive"/>
            </g>
            <g transform="translate(132.89,111.66)" id="img-8ed659b2-130">
              <path d="M-0.13,-19.46 L 0.13 -19.46 0.13 19.46 -0.13 19.46 z" class="primitive"/>
            </g>
            <g transform="translate(133.1,113.35)" id="img-8ed659b2-131">
              <path d="M-0.13,-17.77 L 0.13 -17.77 0.13 17.77 -0.13 17.77 z" class="primitive"/>
            </g>
            <g transform="translate(133.3,114.19)" id="img-8ed659b2-132">
              <path d="M-0.13,-16.92 L 0.13 -16.92 0.13 16.92 -0.13 16.92 z" class="primitive"/>
            </g>
            <g transform="translate(133.51,116.73)" id="img-8ed659b2-133">
              <path d="M-0.13,-14.38 L 0.13 -14.38 0.13 14.38 -0.13 14.38 z" class="primitive"/>
            </g>
            <g transform="translate(133.72,120.12)" id="img-8ed659b2-134">
              <path d="M-0.13,-11 L 0.13 -11 0.13 11 -0.13 11 z" class="primitive"/>
            </g>
            <g transform="translate(133.92,125.19)" id="img-8ed659b2-135">
              <path d="M-0.13,-5.92 L 0.13 -5.92 0.13 5.92 -0.13 5.92 z" class="primitive"/>
            </g>
            <g transform="translate(134.13,127.73)" id="img-8ed659b2-136">
              <path d="M-0.13,-3.38 L 0.13 -3.38 0.13 3.38 -0.13 3.38 z" class="primitive"/>
            </g>
            <g transform="translate(134.34,127.73)" id="img-8ed659b2-137">
              <path d="M-0.13,-3.38 L 0.13 -3.38 0.13 3.38 -0.13 3.38 z" class="primitive"/>
            </g>
            <g transform="translate(134.54,128.58)" id="img-8ed659b2-138">
              <path d="M-0.13,-2.54 L 0.13 -2.54 0.13 2.54 -0.13 2.54 z" class="primitive"/>
            </g>
            <g transform="translate(134.75,131.12)" id="img-8ed659b2-139">
              <path d="M-0.13,-0 L 0.13 -0 0.13 0 -0.13 0 z" class="primitive"/>
            </g>
            <g transform="translate(134.96,130.27)" id="img-8ed659b2-140">
              <path d="M-0.13,-0.85 L 0.13 -0.85 0.13 0.85 -0.13 0.85 z" class="primitive"/>
            </g>
            <g transform="translate(135.16,131.12)" id="img-8ed659b2-141">
              <path d="M-0.13,-0 L 0.13 -0 0.13 0 -0.13 0 z" class="primitive"/>
            </g>
            <g transform="translate(135.37,130.27)" id="img-8ed659b2-142">
              <path d="M-0.13,-0.85 L 0.13 -0.85 0.13 0.85 -0.13 0.85 z" class="primitive"/>
            </g>
            <g transform="translate(135.58,129.42)" id="img-8ed659b2-143">
              <path d="M-0.13,-1.69 L 0.13 -1.69 0.13 1.69 -0.13 1.69 z" class="primitive"/>
            </g>
            <g transform="translate(135.78,131.12)" id="img-8ed659b2-144">
              <path d="M-0.13,-0 L 0.13 -0 0.13 0 -0.13 0 z" class="primitive"/>
            </g>
            <g transform="translate(135.99,131.12)" id="img-8ed659b2-145">
              <path d="M-0.13,-0 L 0.13 -0 0.13 0 -0.13 0 z" class="primitive"/>
            </g>
            <g transform="translate(136.2,130.27)" id="img-8ed659b2-146">
              <path d="M-0.13,-0.85 L 0.13 -0.85 0.13 0.85 -0.13 0.85 z" class="primitive"/>
            </g>
            <g transform="translate(136.4,131.12)" id="img-8ed659b2-147">
              <path d="M-0.13,-0 L 0.13 -0 0.13 0 -0.13 0 z" class="primitive"/>
            </g>
            <g transform="translate(136.61,130.27)" id="img-8ed659b2-148">
              <path d="M-0.13,-0.85 L 0.13 -0.85 0.13 0.85 -0.13 0.85 z" class="primitive"/>
            </g>
            <g transform="translate(136.82,130.27)" id="img-8ed659b2-149">
              <path d="M-0.13,-0.85 L 0.13 -0.85 0.13 0.85 -0.13 0.85 z" class="primitive"/>
            </g>
            <g transform="translate(137.02,130.27)" id="img-8ed659b2-150">
              <path d="M-0.13,-0.85 L 0.13 -0.85 0.13 0.85 -0.13 0.85 z" class="primitive"/>
            </g>
            <g transform="translate(137.23,130.27)" id="img-8ed659b2-151">
              <path d="M-0.13,-0.85 L 0.13 -0.85 0.13 0.85 -0.13 0.85 z" class="primitive"/>
            </g>
            <g transform="translate(137.44,131.12)" id="img-8ed659b2-152">
              <path d="M-0.13,-0 L 0.13 -0 0.13 0 -0.13 0 z" class="primitive"/>
            </g>
            <g transform="translate(137.64,131.12)" id="img-8ed659b2-153">
              <path d="M-0.13,-0 L 0.13 -0 0.13 0 -0.13 0 z" class="primitive"/>
            </g>
            <g transform="translate(137.85,131.12)" id="img-8ed659b2-154">
              <path d="M-0.13,-0 L 0.13 -0 0.13 0 -0.13 0 z" class="primitive"/>
            </g>
            <g transform="translate(138.06,131.12)" id="img-8ed659b2-155">
              <path d="M-0.13,-0 L 0.13 -0 0.13 0 -0.13 0 z" class="primitive"/>
            </g>
            <g transform="translate(138.26,131.12)" id="img-8ed659b2-156">
              <path d="M-0.13,-0 L 0.13 -0 0.13 0 -0.13 0 z" class="primitive"/>
            </g>
            <g transform="translate(138.47,131.12)" id="img-8ed659b2-157">
              <path d="M-0.13,-0 L 0.13 -0 0.13 0 -0.13 0 z" class="primitive"/>
            </g>
            <g transform="translate(138.67,131.12)" id="img-8ed659b2-158">
              <path d="M-0.13,-0 L 0.13 -0 0.13 0 -0.13 0 z" class="primitive"/>
            </g>
            <g transform="translate(138.88,131.12)" id="img-8ed659b2-159">
              <path d="M-0.13,-0 L 0.13 -0 0.13 0 -0.13 0 z" class="primitive"/>
            </g>
            <g transform="translate(139.09,131.12)" id="img-8ed659b2-160">
              <path d="M-0.13,-0 L 0.13 -0 0.13 0 -0.13 0 z" class="primitive"/>
            </g>
            <g transform="translate(139.29,130.27)" id="img-8ed659b2-161">
              <path d="M-0.13,-0.85 L 0.13 -0.85 0.13 0.85 -0.13 0.85 z" class="primitive"/>
            </g>
          </g>
        </g>
      </g>
    </g>
  </g>
  <g class="guide ylabels" font-size="2.82" font-family="'PT Sans Caption','Helvetica Neue','Helvetica',sans-serif" fill="#6C606B" id="img-8ed659b2-162">
    <g transform="translate(101.62,131.11)" id="img-8ed659b2-163">
      <g class="primitive">
        <text text-anchor="end" dy="0.35em">0</text>
      </g>
    </g>
    <g transform="translate(101.62,122.65)" id="img-8ed659b2-164">
      <g class="primitive">
        <text text-anchor="end" dy="0.35em">5</text>
      </g>
    </g>
    <g transform="translate(101.62,114.19)" id="img-8ed659b2-165">
      <g class="primitive">
        <text text-anchor="end" dy="0.35em">10</text>
      </g>
    </g>
    <g transform="translate(101.62,105.73)" id="img-8ed659b2-166">
      <g class="primitive">
        <text text-anchor="end" dy="0.35em">15</text>
      </g>
    </g>
    <g transform="translate(101.62,97.27)" id="img-8ed659b2-167">
      <g class="primitive">
        <text text-anchor="end" dy="0.35em">20</text>
      </g>
    </g>
    <g transform="translate(101.62,88.81)" id="img-8ed659b2-168">
      <g class="primitive">
        <text text-anchor="end" dy="0.35em">25</text>
      </g>
    </g>
  </g>
  <g font-size="3.88" font-family="'PT Sans','Helvetica Neue','Helvetica',sans-serif" fill="#564A55" stroke="#000000" stroke-opacity="0.000" id="img-8ed659b2-169">
    <g transform="translate(93.47,107.96)" id="img-8ed659b2-170">
      <g class="primitive">
        <text text-anchor="middle" dy="0.35em" transform="rotate(-90,0, 2)">Count</text>
      </g>
    </g>
  </g>
  <g font-size="3.88" font-family="'PT Sans','Helvetica Neue','Helvetica',sans-serif" fill="#564A55" stroke="#000000" stroke-opacity="0.000" id="img-8ed659b2-171">
    <g transform="translate(133.48,81.2)" id="img-8ed659b2-172">
      <g class="primitive">
        <text text-anchor="middle" dy="0.6em">CitZAF</text>
      </g>
    </g>
  </g>
</g>
<g class="plotroot xscalable yscalable" id="img-8ed659b2-173">
  <g font-size="3.88" font-family="'PT Sans','Helvetica Neue','Helvetica',sans-serif" fill="#564A55" stroke="#000000" stroke-opacity="0.000" id="img-8ed659b2-174">
    <g transform="translate(48.81,140.79)" id="img-8ed659b2-175">
      <g class="primitive">
        <text text-anchor="middle" dy="0.6em">kMeas/kCalc</text>
      </g>
    </g>
  </g>
  <g class="guide xlabels" font-size="2.82" font-family="'PT Sans Caption','Helvetica Neue','Helvetica',sans-serif" fill="#6C606B" id="img-8ed659b2-176">
    <g transform="translate(19.96,134.11)" id="img-8ed659b2-177">
      <g class="primitive">
        <text text-anchor="middle" dy="0.6em">0.0</text>
      </g>
    </g>
    <g transform="translate(34.39,134.11)" id="img-8ed659b2-178">
      <g class="primitive">
        <text text-anchor="middle" dy="0.6em">0.5</text>
      </g>
    </g>
    <g transform="translate(48.81,134.11)" id="img-8ed659b2-179">
      <g class="primitive">
        <text text-anchor="middle" dy="0.6em">1.0</text>
      </g>
    </g>
    <g transform="translate(63.24,134.11)" id="img-8ed659b2-180">
      <g class="primitive">
        <text text-anchor="middle" dy="0.6em">1.5</text>
      </g>
    </g>
    <g transform="translate(77.67,134.11)" id="img-8ed659b2-181">
      <g class="primitive">
        <text text-anchor="middle" dy="0.6em">2.0</text>
      </g>
    </g>
  </g>
  <g clip-path="url(#img-8ed659b2-182)">
    <g id="img-8ed659b2-183">
      <g pointer-events="visible" stroke-width="0.3" fill="#000000" fill-opacity="0.000" stroke="#000000" stroke-opacity="0.000" class="guide background" id="img-8ed659b2-184">
        <g transform="translate(48.81,109.96)" id="img-8ed659b2-185">
          <path d="M-30.85,-23.15 L 30.85 -23.15 30.85 23.15 -30.85 23.15 z" class="primitive"/>
        </g>
      </g>
      <g class="guide ygridlines xfixed" stroke-dasharray="0.5,0.5" stroke-width="0.2" stroke="#D0D0E0" id="img-8ed659b2-186">
        <g transform="translate(48.81,131.11)" id="img-8ed659b2-187">
          <path fill="none" d="M-30.85,0 L 30.85 0" class="primitive"/>
        </g>
        <g transform="translate(48.81,122.65)" id="img-8ed659b2-188">
          <path fill="none" d="M-30.85,0 L 30.85 0" class="primitive"/>
        </g>
        <g transform="translate(48.81,114.19)" id="img-8ed659b2-189">
          <path fill="none" d="M-30.85,0 L 30.85 0" class="primitive"/>
        </g>
        <g transform="translate(48.81,105.73)" id="img-8ed659b2-190">
          <path fill="none" d="M-30.85,0 L 30.85 0" class="primitive"/>
        </g>
        <g transform="translate(48.81,97.27)" id="img-8ed659b2-191">
          <path fill="none" d="M-30.85,0 L 30.85 0" class="primitive"/>
        </g>
        <g transform="translate(48.81,88.81)" id="img-8ed659b2-192">
          <path fill="none" d="M-30.85,0 L 30.85 0" class="primitive"/>
        </g>
      </g>
      <g class="guide xgridlines yfixed" stroke-dasharray="0.5,0.5" stroke-width="0.2" stroke="#D0D0E0" id="img-8ed659b2-193">
        <g transform="translate(19.96,109.96)" id="img-8ed659b2-194">
          <path fill="none" d="M0,-23.15 L 0 23.15" class="primitive"/>
        </g>
        <g transform="translate(34.39,109.96)" id="img-8ed659b2-195">
          <path fill="none" d="M0,-23.15 L 0 23.15" class="primitive"/>
        </g>
        <g transform="translate(48.81,109.96)" id="img-8ed659b2-196">
          <path fill="none" d="M0,-23.15 L 0 23.15" class="primitive"/>
        </g>
        <g transform="translate(63.24,109.96)" id="img-8ed659b2-197">
          <path fill="none" d="M0,-23.15 L 0 23.15" class="primitive"/>
        </g>
        <g transform="translate(77.67,109.96)" id="img-8ed659b2-198">
          <path fill="none" d="M0,-23.15 L 0 23.15" class="primitive"/>
        </g>
      </g>
      <g class="plotpanel" id="img-8ed659b2-199">
        <metadata>
          <boundingbox value="17.958333333333336mm 86.81166666666665mm 61.70833333333332mm 46.30333333333333mm"/>
          <unitbox value="-0.0693140794223827 26.18193995745016 2.1386281588447655 -27.363879914900323"/>
        </metadata>
        <g shape-rendering="crispEdges" stroke-width="0.3" id="img-8ed659b2-200">
          <g class="geometry" fill-opacity="1" stroke="#000000" stroke-opacity="0.000" fill="#00BFFF" id="img-8ed659b2-201">
            <g transform="translate(46.24,130.27)" id="img-8ed659b2-202">
              <path d="M-0.1,-0.85 L 0.1 -0.85 0.1 0.85 -0.1 0.85 z" class="primitive"/>
            </g>
            <g transform="translate(46.4,131.12)" id="img-8ed659b2-203">
              <path d="M-0.1,-0 L 0.1 -0 0.1 0 -0.1 0 z" class="primitive"/>
            </g>
            <g transform="translate(46.55,130.27)" id="img-8ed659b2-204">
              <path d="M-0.1,-0.85 L 0.1 -0.85 0.1 0.85 -0.1 0.85 z" class="primitive"/>
            </g>
            <g transform="translate(46.71,131.12)" id="img-8ed659b2-205">
              <path d="M-0.1,-0 L 0.1 -0 0.1 0 -0.1 0 z" class="primitive"/>
            </g>
            <g transform="translate(46.87,127.73)" id="img-8ed659b2-206">
              <path d="M-0.1,-3.38 L 0.1 -3.38 0.1 3.38 -0.1 3.38 z" class="primitive"/>
            </g>
            <g transform="translate(47.03,131.12)" id="img-8ed659b2-207">
              <path d="M-0.1,-0 L 0.1 -0 0.1 0 -0.1 0 z" class="primitive"/>
            </g>
            <g transform="translate(47.18,125.19)" id="img-8ed659b2-208">
              <path d="M-0.1,-5.92 L 0.1 -5.92 0.1 5.92 -0.1 5.92 z" class="primitive"/>
            </g>
            <g transform="translate(47.34,129.42)" id="img-8ed659b2-209">
              <path d="M-0.1,-1.69 L 0.1 -1.69 0.1 1.69 -0.1 1.69 z" class="primitive"/>
            </g>
            <g transform="translate(47.5,130.27)" id="img-8ed659b2-210">
              <path d="M-0.1,-0.85 L 0.1 -0.85 0.1 0.85 -0.1 0.85 z" class="primitive"/>
            </g>
            <g transform="translate(47.66,128.58)" id="img-8ed659b2-211">
              <path d="M-0.1,-2.54 L 0.1 -2.54 0.1 2.54 -0.1 2.54 z" class="primitive"/>
            </g>
            <g transform="translate(47.81,127.73)" id="img-8ed659b2-212">
              <path d="M-0.1,-3.38 L 0.1 -3.38 0.1 3.38 -0.1 3.38 z" class="primitive"/>
            </g>
            <g transform="translate(47.97,122.65)" id="img-8ed659b2-213">
              <path d="M-0.1,-8.46 L 0.1 -8.46 0.1 8.46 -0.1 8.46 z" class="primitive"/>
            </g>
            <g transform="translate(48.13,122.65)" id="img-8ed659b2-214">
              <path d="M-0.1,-8.46 L 0.1 -8.46 0.1 8.46 -0.1 8.46 z" class="primitive"/>
            </g>
            <g transform="translate(48.29,120.12)" id="img-8ed659b2-215">
              <path d="M-0.1,-11 L 0.1 -11 0.1 11 -0.1 11 z" class="primitive"/>
            </g>
            <g transform="translate(48.44,114.19)" id="img-8ed659b2-216">
              <path d="M-0.1,-16.92 L 0.1 -16.92 0.1 16.92 -0.1 16.92 z" class="primitive"/>
            </g>
            <g transform="translate(48.6,120.12)" id="img-8ed659b2-217">
              <path d="M-0.1,-11 L 0.1 -11 0.1 11 -0.1 11 z" class="primitive"/>
            </g>
            <g transform="translate(48.76,111.66)" id="img-8ed659b2-218">
              <path d="M-0.1,-19.46 L 0.1 -19.46 0.1 19.46 -0.1 19.46 z" class="primitive"/>
            </g>
            <g transform="translate(48.91,114.19)" id="img-8ed659b2-219">
              <path d="M-0.1,-16.92 L 0.1 -16.92 0.1 16.92 -0.1 16.92 z" class="primitive"/>
            </g>
            <g transform="translate(49.07,115.89)" id="img-8ed659b2-220">
              <path d="M-0.1,-15.23 L 0.1 -15.23 0.1 15.23 -0.1 15.23 z" class="primitive"/>
            </g>
            <g transform="translate(49.23,119.27)" id="img-8ed659b2-221">
              <path d="M-0.1,-11.84 L 0.1 -11.84 0.1 11.84 -0.1 11.84 z" class="primitive"/>
            </g>
            <g transform="translate(49.39,120.12)" id="img-8ed659b2-222">
              <path d="M-0.1,-11 L 0.1 -11 0.1 11 -0.1 11 z" class="primitive"/>
            </g>
            <g transform="translate(49.54,120.96)" id="img-8ed659b2-223">
              <path d="M-0.1,-10.15 L 0.1 -10.15 0.1 10.15 -0.1 10.15 z" class="primitive"/>
            </g>
            <g transform="translate(49.7,121.81)" id="img-8ed659b2-224">
              <path d="M-0.1,-9.31 L 0.1 -9.31 0.1 9.31 -0.1 9.31 z" class="primitive"/>
            </g>
            <g transform="translate(49.86,126.88)" id="img-8ed659b2-225">
              <path d="M-0.1,-4.23 L 0.1 -4.23 0.1 4.23 -0.1 4.23 z" class="primitive"/>
            </g>
            <g transform="translate(50.02,127.73)" id="img-8ed659b2-226">
              <path d="M-0.1,-3.38 L 0.1 -3.38 0.1 3.38 -0.1 3.38 z" class="primitive"/>
            </g>
            <g transform="translate(50.17,127.73)" id="img-8ed659b2-227">
              <path d="M-0.1,-3.38 L 0.1 -3.38 0.1 3.38 -0.1 3.38 z" class="primitive"/>
            </g>
            <g transform="translate(50.33,125.19)" id="img-8ed659b2-228">
              <path d="M-0.1,-5.92 L 0.1 -5.92 0.1 5.92 -0.1 5.92 z" class="primitive"/>
            </g>
            <g transform="translate(50.49,127.73)" id="img-8ed659b2-229">
              <path d="M-0.1,-3.38 L 0.1 -3.38 0.1 3.38 -0.1 3.38 z" class="primitive"/>
            </g>
            <g transform="translate(50.65,130.27)" id="img-8ed659b2-230">
              <path d="M-0.1,-0.85 L 0.1 -0.85 0.1 0.85 -0.1 0.85 z" class="primitive"/>
            </g>
            <g transform="translate(50.8,131.12)" id="img-8ed659b2-231">
              <path d="M-0.1,-0 L 0.1 -0 0.1 0 -0.1 0 z" class="primitive"/>
            </g>
            <g transform="translate(50.96,128.58)" id="img-8ed659b2-232">
              <path d="M-0.1,-2.54 L 0.1 -2.54 0.1 2.54 -0.1 2.54 z" class="primitive"/>
            </g>
            <g transform="translate(51.12,131.12)" id="img-8ed659b2-233">
              <path d="M-0.1,-0 L 0.1 -0 0.1 0 -0.1 0 z" class="primitive"/>
            </g>
            <g transform="translate(51.28,130.27)" id="img-8ed659b2-234">
              <path d="M-0.1,-0.85 L 0.1 -0.85 0.1 0.85 -0.1 0.85 z" class="primitive"/>
            </g>
            <g transform="translate(51.43,130.27)" id="img-8ed659b2-235">
              <path d="M-0.1,-0.85 L 0.1 -0.85 0.1 0.85 -0.1 0.85 z" class="primitive"/>
            </g>
            <g transform="translate(51.59,128.58)" id="img-8ed659b2-236">
              <path d="M-0.1,-2.54 L 0.1 -2.54 0.1 2.54 -0.1 2.54 z" class="primitive"/>
            </g>
            <g transform="translate(51.75,130.27)" id="img-8ed659b2-237">
              <path d="M-0.1,-0.85 L 0.1 -0.85 0.1 0.85 -0.1 0.85 z" class="primitive"/>
            </g>
            <g transform="translate(51.9,131.12)" id="img-8ed659b2-238">
              <path d="M-0.1,-0 L 0.1 -0 0.1 0 -0.1 0 z" class="primitive"/>
            </g>
            <g transform="translate(52.06,130.27)" id="img-8ed659b2-239">
              <path d="M-0.1,-0.85 L 0.1 -0.85 0.1 0.85 -0.1 0.85 z" class="primitive"/>
            </g>
            <g transform="translate(52.22,130.27)" id="img-8ed659b2-240">
              <path d="M-0.1,-0.85 L 0.1 -0.85 0.1 0.85 -0.1 0.85 z" class="primitive"/>
            </g>
            <g transform="translate(52.38,131.12)" id="img-8ed659b2-241">
              <path d="M-0.1,-0 L 0.1 -0 0.1 0 -0.1 0 z" class="primitive"/>
            </g>
            <g transform="translate(52.53,131.12)" id="img-8ed659b2-242">
              <path d="M-0.1,-0 L 0.1 -0 0.1 0 -0.1 0 z" class="primitive"/>
            </g>
            <g transform="translate(52.69,131.12)" id="img-8ed659b2-243">
              <path d="M-0.1,-0 L 0.1 -0 0.1 0 -0.1 0 z" class="primitive"/>
            </g>
            <g transform="translate(52.85,131.12)" id="img-8ed659b2-244">
              <path d="M-0.1,-0 L 0.1 -0 0.1 0 -0.1 0 z" class="primitive"/>
            </g>
            <g transform="translate(53.01,131.12)" id="img-8ed659b2-245">
              <path d="M-0.1,-0 L 0.1 -0 0.1 0 -0.1 0 z" class="primitive"/>
            </g>
            <g transform="translate(53.16,131.12)" id="img-8ed659b2-246">
              <path d="M-0.1,-0 L 0.1 -0 0.1 0 -0.1 0 z" class="primitive"/>
            </g>
            <g transform="translate(53.32,131.12)" id="img-8ed659b2-247">
              <path d="M-0.1,-0 L 0.1 -0 0.1 0 -0.1 0 z" class="primitive"/>
            </g>
            <g transform="translate(53.48,131.12)" id="img-8ed659b2-248">
              <path d="M-0.1,-0 L 0.1 -0 0.1 0 -0.1 0 z" class="primitive"/>
            </g>
            <g transform="translate(53.64,131.12)" id="img-8ed659b2-249">
              <path d="M-0.1,-0 L 0.1 -0 0.1 0 -0.1 0 z" class="primitive"/>
            </g>
            <g transform="translate(53.79,131.12)" id="img-8ed659b2-250">
              <path d="M-0.1,-0 L 0.1 -0 0.1 0 -0.1 0 z" class="primitive"/>
            </g>
            <g transform="translate(53.95,130.27)" id="img-8ed659b2-251">
              <path d="M-0.1,-0.85 L 0.1 -0.85 0.1 0.85 -0.1 0.85 z" class="primitive"/>
            </g>
          </g>
        </g>
      </g>
    </g>
  </g>
  <g class="guide ylabels" font-size="2.82" font-family="'PT Sans Caption','Helvetica Neue','Helvetica',sans-serif" fill="#6C606B" id="img-8ed659b2-252">
    <g transform="translate(16.96,131.11)" id="img-8ed659b2-253">
      <g class="primitive">
        <text text-anchor="end" dy="0.35em">0</text>
      </g>
    </g>
    <g transform="translate(16.96,122.65)" id="img-8ed659b2-254">
      <g class="primitive">
        <text text-anchor="end" dy="0.35em">5</text>
      </g>
    </g>
    <g transform="translate(16.96,114.19)" id="img-8ed659b2-255">
      <g class="primitive">
        <text text-anchor="end" dy="0.35em">10</text>
      </g>
    </g>
    <g transform="translate(16.96,105.73)" id="img-8ed659b2-256">
      <g class="primitive">
        <text text-anchor="end" dy="0.35em">15</text>
      </g>
    </g>
    <g transform="translate(16.96,97.27)" id="img-8ed659b2-257">
      <g class="primitive">
        <text text-anchor="end" dy="0.35em">20</text>
      </g>
    </g>
    <g transform="translate(16.96,88.81)" id="img-8ed659b2-258">
      <g class="primitive">
        <text text-anchor="end" dy="0.35em">25</text>
      </g>
    </g>
  </g>
  <g font-size="3.88" font-family="'PT Sans','Helvetica Neue','Helvetica',sans-serif" fill="#564A55" stroke="#000000" stroke-opacity="0.000" id="img-8ed659b2-259">
    <g transform="translate(8.81,107.96)" id="img-8ed659b2-260">
      <g class="primitive">
        <text text-anchor="middle" dy="0.35em" transform="rotate(-90,0, 2)">Count</text>
      </g>
    </g>
  </g>
  <g font-size="3.88" font-family="'PT Sans','Helvetica Neue','Helvetica',sans-serif" fill="#564A55" stroke="#000000" stroke-opacity="0.000" id="img-8ed659b2-261">
    <g transform="translate(48.81,81.2)" id="img-8ed659b2-262">
      <g class="primitive">
        <text text-anchor="middle" dy="0.6em">XPP</text>
      </g>
    </g>
  </g>
</g>
<g font-size="7.06" font-family="Arial" id="img-8ed659b2-263">
  <g transform="translate(127,38.1)" id="img-8ed659b2-264">
    <g class="primitive">
      <text text-anchor="middle" dy="0.35em">NBS 1 measurements</text>
    </g>
  </g>
</g>
<defs>
  <clipPath id="img-8ed659b2-4">
    <path d="M187.29,86.81 L 249 86.81 249 133.11 187.29 133.11" />
  </clipPath>
  <clipPath id="img-8ed659b2-92">
    <path d="M102.62,86.81 L 164.33 86.81 164.33 133.11 102.62 133.11" />
  </clipPath>
  <clipPath id="img-8ed659b2-182">
    <path d="M17.96,86.81 L 79.67 86.81 79.67 133.11 17.96 133.11" />
  </clipPath>
</defs>
</svg>
