<?xml version="1.0" encoding="UTF-8"?>
<svg xmlns="http://www.w3.org/2000/svg"
     xmlns:xlink="http://www.w3.org/1999/xlink"
     xmlns:gadfly="http://www.gadflyjl.org/ns"
     version="1.2"
     width="203.2mm" height="101.6mm" viewBox="0 0 203.2 101.6"
     stroke="none"
     fill="#000000"
     stroke-width="0.3"
     font-size="3.88"
>
<defs>
  <marker id="arrow" markerWidth="15" markerHeight="7" refX="5" refY="3.5" orient="auto" markerUnits="strokeWidth">
    <path d="M0,0 L15,3.5 L0,7 z" stroke="context-stroke" fill="context-stroke"/>
  </marker>
</defs>
<g class="plotroot xscalable yscalable" id="img-5a17774e-1">
  <g font-size="3.88" font-family="'PT Sans','Helvetica Neue','Helvetica',sans-serif" fill="#564A55" stroke="#000000" stroke-opacity="0.000" id="img-5a17774e-2">
    <g transform="translate(109.75,89.99)">
      <g class="primitive">
        <text text-anchor="middle" dy="0.6em">kMeas/kCalc</text>
      </g>
    </g>
  </g>
  <g class="guide xlabels" font-size="2.82" font-family="'PT Sans Caption','Helvetica Neue','Helvetica',sans-serif" fill="#6C606B" id="img-5a17774e-3">
    <g transform="translate(23.31,83.32)">
      <g class="primitive">
        <text text-anchor="middle" dy="0.6em">0.0</text>
      </g>
    </g>
    <g transform="translate(66.53,83.32)">
      <g class="primitive">
        <text text-anchor="middle" dy="0.6em">0.5</text>
      </g>
    </g>
    <g transform="translate(109.75,83.32)">
      <g class="primitive">
        <text text-anchor="middle" dy="0.6em">1.0</text>
      </g>
    </g>
    <g transform="translate(152.98,83.32)">
      <g class="primitive">
        <text text-anchor="middle" dy="0.6em">1.5</text>
      </g>
    </g>
    <g transform="translate(196.2,83.32)">
      <g class="primitive">
        <text text-anchor="middle" dy="0.6em">2.0</text>
      </g>
    </g>
  </g>
  <g clip-path="url(#img-5a17774e-4)">
    <g id="img-5a17774e-5">
      <g pointer-events="visible" stroke-width="0.3" fill="#000000" fill-opacity="0.000" stroke="#000000" stroke-opacity="0.000" class="guide background" id="img-5a17774e-6">
        <g transform="translate(109.75,46.46)" id="img-5a17774e-7">
          <path d="M-88.45,-35.85 L 88.45 -35.85 88.45 35.85 -88.45 35.85 z" class="primitive"/>
        </g>
      </g>
      <g class="guide ygridlines xfixed" stroke-dasharray="0.5,0.5" stroke-width="0.2" stroke="#D0D0E0" id="img-5a17774e-8">
        <g transform="translate(109.75,80.32)" id="img-5a17774e-9">
          <path fill="none" d="M-88.45,0 L 88.45 0" class="primitive"/>
        </g>
        <g transform="translate(109.75,57.75)" id="img-5a17774e-10">
          <path fill="none" d="M-88.45,0 L 88.45 0" class="primitive"/>
        </g>
        <g transform="translate(109.75,35.18)" id="img-5a17774e-11">
          <path fill="none" d="M-88.45,0 L 88.45 0" class="primitive"/>
        </g>
        <g transform="translate(109.75,12.61)" id="img-5a17774e-12">
          <path fill="none" d="M-88.45,0 L 88.45 0" class="primitive"/>
        </g>
      </g>
      <g class="guide xgridlines yfixed" stroke-dasharray="0.5,0.5" stroke-width="0.2" stroke="#D0D0E0" id="img-5a17774e-13">
        <g transform="translate(23.31,46.46)" id="img-5a17774e-14">
          <path fill="none" d="M0,-35.85 L 0 35.85" class="primitive"/>
        </g>
        <g transform="translate(66.53,46.46)" id="img-5a17774e-15">
          <path fill="none" d="M0,-35.85 L 0 35.85" class="primitive"/>
        </g>
        <g transform="translate(109.75,46.46)" id="img-5a17774e-16">
          <path fill="none" d="M0,-35.85 L 0 35.85" class="primitive"/>
        </g>
        <g transform="translate(152.98,46.46)" id="img-5a17774e-17">
          <path fill="none" d="M0,-35.85 L 0 35.85" class="primitive"/>
        </g>
        <g transform="translate(196.2,46.46)" id="img-5a17774e-18">
          <path fill="none" d="M0,-35.85 L 0 35.85" class="primitive"/>
        </g>
      </g>
      <g class="plotpanel" id="img-5a17774e-19">
        <metadata>
          <boundingbox value="21.305000000000007mm 10.611666666666665mm 176.89499999999998mm 71.70333333333333mm"/>
          <unitbox value="-0.023135429017611845 1544.310964501994 2.0462708580352236 -1588.6219290039878"/>
        </metadata>
        <g shape-rendering="crispEdges" stroke-width="0.3" id="img-5a17774e-20">
          <g class="geometry" fill-opacity="1" stroke="#000000" stroke-opacity="0.000" fill="#00BFFF" id="img-5a17774e-21">
            <g transform="translate(26.84,79.82)" id="img-5a17774e-22">
              <path d="M-3.56,-0.5 L 3.56 -0.5 3.56 0.5 -3.56 0.5 z" class="primitive"/>
            </g>
            <g transform="translate(33.9,80.32)" id="img-5a17774e-23">
              <path d="M-3.56,-0 L 3.56 -0 3.56 0 -3.56 0 z" class="primitive"/>
            </g>
            <g transform="translate(40.96,80.32)" id="img-5a17774e-24">
              <path d="M-3.56,-0 L 3.56 -0 3.56 0 -3.56 0 z" class="primitive"/>
            </g>
            <g transform="translate(48.03,80.32)" id="img-5a17774e-25">
              <path d="M-3.56,-0 L 3.56 -0 3.56 0 -3.56 0 z" class="primitive"/>
            </g>
            <g transform="translate(55.09,80.32)" id="img-5a17774e-26">
              <path d="M-3.56,-0 L 3.56 -0 3.56 0 -3.56 0 z" class="primitive"/>
            </g>
            <g transform="translate(62.15,80.32)" id="img-5a17774e-27">
              <path d="M-3.56,-0 L 3.56 -0 3.56 0 -3.56 0 z" class="primitive"/>
            </g>
            <g transform="translate(69.22,80.32)" id="img-5a17774e-28">
              <path d="M-3.56,-0 L 3.56 -0 3.56 0 -3.56 0 z" class="primitive"/>
            </g>
            <g transform="translate(76.28,80.29)" id="img-5a17774e-29">
              <path d="M-3.56,-0.02 L 3.56 -0.02 3.56 0.02 -3.56 0.02 z" class="primitive"/>
            </g>
            <g transform="translate(83.35,80.22)" id="img-5a17774e-30">
              <path d="M-3.56,-0.09 L 3.56 -0.09 3.56 0.09 -3.56 0.09 z" class="primitive"/>
            </g>
            <g transform="translate(90.41,80.29)" id="img-5a17774e-31">
              <path d="M-3.56,-0.02 L 3.56 -0.02 3.56 0.02 -3.56 0.02 z" class="primitive"/>
            </g>
            <g transform="translate(97.47,80.13)" id="img-5a17774e-32">
              <path d="M-3.56,-0.18 L 3.56 -0.18 3.56 0.18 -3.56 0.18 z" class="primitive"/>
            </g>
            <g transform="translate(104.54,76.68)" id="img-5a17774e-33">
              <path d="M-3.56,-3.63 L 3.56 -3.63 3.56 3.63 -3.56 3.63 z" class="primitive"/>
            </g>
            <g transform="translate(111.6,54.29)" id="img-5a17774e-34">
              <path d="M-3.56,-26.02 L 3.56 -26.02 3.56 26.02 -3.56 26.02 z" class="primitive"/>
            </g>
            <g transform="translate(118.66,74.33)" id="img-5a17774e-35">
              <path d="M-3.56,-5.98 L 3.56 -5.98 3.56 5.98 -3.56 5.98 z" class="primitive"/>
            </g>
            <g transform="translate(125.73,78.67)" id="img-5a17774e-36">
              <path d="M-3.56,-1.65 L 3.56 -1.65 3.56 1.65 -3.56 1.65 z" class="primitive"/>
            </g>
            <g transform="translate(132.79,79.75)" id="img-5a17774e-37">
              <path d="M-3.56,-0.56 L 3.56 -0.56 3.56 0.56 -3.56 0.56 z" class="primitive"/>
            </g>
            <g transform="translate(139.85,79.98)" id="img-5a17774e-38">
              <path d="M-3.56,-0.34 L 3.56 -0.34 3.56 0.34 -3.56 0.34 z" class="primitive"/>
            </g>
            <g transform="translate(146.92,79.98)" id="img-5a17774e-39">
              <path d="M-3.56,-0.34 L 3.56 -0.34 3.56 0.34 -3.56 0.34 z" class="primitive"/>
            </g>
            <g transform="translate(153.98,80.02)" id="img-5a17774e-40">
              <path d="M-3.56,-0.29 L 3.56 -0.29 3.56 0.29 -3.56 0.29 z" class="primitive"/>
            </g>
            <g transform="translate(161.04,80)" id="img-5a17774e-41">
              <path d="M-3.56,-0.32 L 3.56 -0.32 3.56 0.32 -3.56 0.32 z" class="primitive"/>
            </g>
            <g transform="translate(168.11,80.11)" id="img-5a17774e-42">
              <path d="M-3.56,-0.2 L 3.56 -0.2 3.56 0.2 -3.56 0.2 z" class="primitive"/>
            </g>
            <g transform="translate(175.17,80.09)" id="img-5a17774e-43">
              <path d="M-3.56,-0.23 L 3.56 -0.23 3.56 0.23 -3.56 0.23 z" class="primitive"/>
            </g>
            <g transform="translate(182.23,80.2)" id="img-5a17774e-44">
              <path d="M-3.56,-0.11 L 3.56 -0.11 3.56 0.11 -3.56 0.11 z" class="primitive"/>
            </g>
            <g transform="translate(189.3,80.27)" id="img-5a17774e-45">
              <path d="M-3.56,-0.05 L 3.56 -0.05 3.56 0.05 -3.56 0.05 z" class="primitive"/>
            </g>
            <g transform="translate(196.36,80.22)" id="img-5a17774e-46">
              <path d="M-3.56,-0.09 L 3.56 -0.09 3.56 0.09 -3.56 0.09 z" class="primitive"/>
            </g>
            <g transform="translate(203.43,80.27)" id="img-5a17774e-47">
              <path d="M-3.56,-0.05 L 3.56 -0.05 3.56 0.05 -3.56 0.05 z" class="primitive"/>
            </g>
            <g transform="translate(210.49,80.27)" id="img-5a17774e-48">
              <path d="M-3.56,-0.05 L 3.56 -0.05 3.56 0.05 -3.56 0.05 z" class="primitive"/>
            </g>
            <g transform="translate(217.55,80.29)" id="img-5a17774e-49">
              <path d="M-3.56,-0.02 L 3.56 -0.02 3.56 0.02 -3.56 0.02 z" class="primitive"/>
            </g>
            <g transform="translate(224.62,80.27)" id="img-5a17774e-50">
              <path d="M-3.56,-0.05 L 3.56 -0.05 3.56 0.05 -3.56 0.05 z" class="primitive"/>
            </g>
            <g transform="translate(231.68,80.25)" id="img-5a17774e-51">
              <path d="M-3.56,-0.07 L 3.56 -0.07 3.56 0.07 -3.56 0.07 z" class="primitive"/>
            </g>
            <g transform="translate(238.74,80.29)" id="img-5a17774e-52">
              <path d="M-3.56,-0.02 L 3.56 -0.02 3.56 0.02 -3.56 0.02 z" class="primitive"/>
            </g>
            <g transform="translate(245.81,80.32)" id="img-5a17774e-53">
              <path d="M-3.56,-0 L 3.56 -0 3.56 0 -3.56 0 z" class="primitive"/>
            </g>
            <g transform="translate(252.87,80.27)" id="img-5a17774e-54">
              <path d="M-3.56,-0.05 L 3.56 -0.05 3.56 0.05 -3.56 0.05 z" class="primitive"/>
            </g>
            <g transform="translate(259.93,80.22)" id="img-5a17774e-55">
              <path d="M-3.56,-0.09 L 3.56 -0.09 3.56 0.09 -3.56 0.09 z" class="primitive"/>
            </g>
            <g transform="translate(267,80.29)" id="img-5a17774e-56">
              <path d="M-3.56,-0.02 L 3.56 -0.02 3.56 0.02 -3.56 0.02 z" class="primitive"/>
            </g>
            <g transform="translate(274.06,80.32)" id="img-5a17774e-57">
              <path d="M-3.56,-0 L 3.56 -0 3.56 0 -3.56 0 z" class="primitive"/>
            </g>
            <g transform="translate(281.12,80.27)" id="img-5a17774e-58">
              <path d="M-3.56,-0.05 L 3.56 -0.05 3.56 0.05 -3.56 0.05 z" class="primitive"/>
            </g>
            <g transform="translate(288.19,80.32)" id="img-5a17774e-59">
              <path d="M-3.56,-0 L 3.56 -0 3.56 0 -3.56 0 z" class="primitive"/>
            </g>
            <g transform="translate(295.25,80.32)" id="img-5a17774e-60">
              <path d="M-3.56,-0 L 3.56 -0 3.56 0 -3.56 0 z" class="primitive"/>
            </g>
            <g transform="translate(302.31,80.32)" id="img-5a17774e-61">
              <path d="M-3.56,-0 L 3.56 -0 3.56 0 -3.56 0 z" class="primitive"/>
            </g>
            <g transform="translate(309.38,80.32)" id="img-5a17774e-62">
              <path d="M-3.56,-0 L 3.56 -0 3.56 0 -3.56 0 z" class="primitive"/>
            </g>
            <g transform="translate(316.44,80.32)" id="img-5a17774e-63">
              <path d="M-3.56,-0 L 3.56 -0 3.56 0 -3.56 0 z" class="primitive"/>
            </g>
            <g transform="translate(323.51,80.32)" id="img-5a17774e-64">
              <path d="M-3.56,-0 L 3.56 -0 3.56 0 -3.56 0 z" class="primitive"/>
            </g>
            <g transform="translate(330.57,80.32)" id="img-5a17774e-65">
              <path d="M-3.56,-0 L 3.56 -0 3.56 0 -3.56 0 z" class="primitive"/>
            </g>
            <g transform="translate(337.63,80.32)" id="img-5a17774e-66">
              <path d="M-3.56,-0 L 3.56 -0 3.56 0 -3.56 0 z" class="primitive"/>
            </g>
            <g transform="translate(344.7,80.32)" id="img-5a17774e-67">
              <path d="M-3.56,-0 L 3.56 -0 3.56 0 -3.56 0 z" class="primitive"/>
            </g>
            <g transform="translate(351.76,80.32)" id="img-5a17774e-68">
              <path d="M-3.56,-0 L 3.56 -0 3.56 0 -3.56 0 z" class="primitive"/>
            </g>
            <g transform="translate(358.82,80.32)" id="img-5a17774e-69">
              <path d="M-3.56,-0 L 3.56 -0 3.56 0 -3.56 0 z" class="primitive"/>
            </g>
            <g transform="translate(365.89,80.32)" id="img-5a17774e-70">
              <path d="M-3.56,-0 L 3.56 -0 3.56 0 -3.56 0 z" class="primitive"/>
            </g>
            <g transform="translate(372.95,80.29)" id="img-5a17774e-71">
              <path d="M-3.56,-0.02 L 3.56 -0.02 3.56 0.02 -3.56 0.02 z" class="primitive"/>
            </g>
          </g>
        </g>
      </g>
    </g>
  </g>
  <g class="guide ylabels" font-size="2.82" font-family="'PT Sans Caption','Helvetica Neue','Helvetica',sans-serif" fill="#6C606B" id="img-5a17774e-72">
    <g transform="translate(20.3,80.32)" id="img-5a17774e-73">
      <g class="primitive">
        <text text-anchor="end" dy="0.35em">0</text>
      </g>
    </g>
    <g transform="translate(20.3,57.75)" id="img-5a17774e-74">
      <g class="primitive">
        <text text-anchor="end" dy="0.35em">500</text>
      </g>
    </g>
    <g transform="translate(20.3,35.18)" id="img-5a17774e-75">
      <g class="primitive">
        <text text-anchor="end" dy="0.35em">1000</text>
      </g>
    </g>
    <g transform="translate(20.3,12.61)" id="img-5a17774e-76">
      <g class="primitive">
        <text text-anchor="end" dy="0.35em">1500</text>
      </g>
    </g>
  </g>
  <g font-size="3.88" font-family="'PT Sans','Helvetica Neue','Helvetica',sans-serif" fill="#564A55" stroke="#000000" stroke-opacity="0.000" id="img-5a17774e-77">
    <g transform="translate(8.81,44.46)" id="img-5a17774e-78">
      <g class="primitive">
        <text text-anchor="middle" dy="0.35em" transform="rotate(-90,0, 2)">Count</text>
      </g>
    </g>
  </g>
  <g font-size="3.88" font-family="'PT Sans','Helvetica Neue','Helvetica',sans-serif" fill="#564A55" stroke="#000000" stroke-opacity="0.000" id="img-5a17774e-79">
    <g transform="translate(109.75,5)" id="img-5a17774e-80">
      <g class="primitive">
        <text text-anchor="middle" dy="0.6em">Riveros</text>
      </g>
    </g>
  </g>
</g>
<defs>
  <clipPath id="img-5a17774e-4">
    <path d="M21.31,10.61 L 198.2 10.61 198.2 82.32 21.31 82.32" />
  </clipPath>
</defs>
</svg>
