<?xml version="1.0" encoding="UTF-8"?>
<svg xmlns="http://www.w3.org/2000/svg"
     xmlns:xlink="http://www.w3.org/1999/xlink"
     xmlns:gadfly="http://www.gadflyjl.org/ns"
     version="1.2"
     width="254mm" height="152.4mm" viewBox="0 0 254 152.4"
     stroke="none"
     fill="#000000"
     stroke-width="0.3"
     font-size="3.88"
>
<defs>
  <marker id="arrow" markerWidth="15" markerHeight="7" refX="5" refY="3.5" orient="auto" markerUnits="strokeWidth">
    <path d="M0,0 L15,3.5 L0,7 z" stroke="context-stroke" fill="context-stroke"/>
  </marker>
</defs>
<g class="plotroot xscalable yscalable" id="img-dc60de48-1">
  <g font-size="3.88" font-family="'PT Sans','Helvetica Neue','Helvetica',sans-serif" fill="#564A55" stroke="#000000" stroke-opacity="0.000" id="img-dc60de48-2">
    <g transform="translate(217.31,140.79)">
      <g class="primitive">
        <text text-anchor="middle" dy="0.6em">kMeas/kCalc</text>
      </g>
    </g>
  </g>
  <g class="guide xlabels" font-size="2.82" font-family="'PT Sans Caption','Helvetica Neue','Helvetica',sans-serif" fill="#6C606B" id="img-dc60de48-3">
    <g transform="translate(187.62,134.11)">
      <g class="primitive">
        <text text-anchor="middle" dy="0.6em">0.0</text>
      </g>
    </g>
    <g transform="translate(202.46,134.11)">
      <g class="primitive">
        <text text-anchor="middle" dy="0.6em">0.5</text>
      </g>
    </g>
    <g transform="translate(217.31,134.11)">
      <g class="primitive">
        <text text-anchor="middle" dy="0.6em">1.0</text>
      </g>
    </g>
    <g transform="translate(232.15,134.11)">
      <g class="primitive">
        <text text-anchor="middle" dy="0.6em">1.5</text>
      </g>
    </g>
    <g transform="translate(247,134.11)">
      <g class="primitive">
        <text text-anchor="middle" dy="0.6em">2.0</text>
      </g>
    </g>
  </g>
  <g clip-path="url(#img-dc60de48-4)">
    <g id="img-dc60de48-5">
      <g pointer-events="visible" stroke-width="0.3" fill="#000000" fill-opacity="0.000" stroke="#000000" stroke-opacity="0.000" class="guide background" id="img-dc60de48-6">
        <g transform="translate(217.31,109.96)" id="img-dc60de48-7">
          <path d="M-31.69,-23.15 L 31.69 -23.15 31.69 23.15 -31.69 23.15 z" class="primitive"/>
        </g>
      </g>
      <g class="guide ygridlines xfixed" stroke-dasharray="0.5,0.5" stroke-width="0.2" stroke="#D0D0E0" id="img-dc60de48-8">
        <g transform="translate(217.31,131.11)" id="img-dc60de48-9">
          <path fill="none" d="M-31.69,0 L 31.69 0" class="primitive"/>
        </g>
        <g transform="translate(217.31,120.54)" id="img-dc60de48-10">
          <path fill="none" d="M-31.69,0 L 31.69 0" class="primitive"/>
        </g>
        <g transform="translate(217.31,109.96)" id="img-dc60de48-11">
          <path fill="none" d="M-31.69,0 L 31.69 0" class="primitive"/>
        </g>
        <g transform="translate(217.31,99.39)" id="img-dc60de48-12">
          <path fill="none" d="M-31.69,0 L 31.69 0" class="primitive"/>
        </g>
        <g transform="translate(217.31,88.81)" id="img-dc60de48-13">
          <path fill="none" d="M-31.69,0 L 31.69 0" class="primitive"/>
        </g>
      </g>
      <g class="guide xgridlines yfixed" stroke-dasharray="0.5,0.5" stroke-width="0.2" stroke="#D0D0E0" id="img-dc60de48-14">
        <g transform="translate(187.62,109.96)" id="img-dc60de48-15">
          <path fill="none" d="M0,-23.15 L 0 23.15" class="primitive"/>
        </g>
        <g transform="translate(202.46,109.96)" id="img-dc60de48-16">
          <path fill="none" d="M0,-23.15 L 0 23.15" class="primitive"/>
        </g>
        <g transform="translate(217.31,109.96)" id="img-dc60de48-17">
          <path fill="none" d="M0,-23.15 L 0 23.15" class="primitive"/>
        </g>
        <g transform="translate(232.15,109.96)" id="img-dc60de48-18">
          <path fill="none" d="M0,-23.15 L 0 23.15" class="primitive"/>
        </g>
        <g transform="translate(247,109.96)" id="img-dc60de48-19">
          <path fill="none" d="M0,-23.15 L 0 23.15" class="primitive"/>
        </g>
      </g>
      <g class="plotpanel" id="img-dc60de48-20">
        <metadata>
          <boundingbox value="185.6183333333333mm 86.81166666666665mm 63.38166666666665mm 46.30333333333333mm"/>
          <unitbox value="-0.06736085772825509 4.189110393192026 2.1347217154565103 -4.378220786384052"/>
        </metadata>
        <g shape-rendering="crispEdges" stroke-width="0.3" id="img-dc60de48-21">
          <g class="geometry" fill-opacity="1" stroke="#000000" stroke-opacity="0.000" fill="#00BFFF" id="img-dc60de48-22">
            <g transform="translate(215.28,125.83)" id="img-dc60de48-23">
              <path d="M-0.07,-5.29 L 0.07 -5.29 0.07 5.29 -0.07 5.29 z" class="primitive"/>
            </g>
            <g transform="translate(215.37,131.12)" id="img-dc60de48-24">
              <path d="M-0.07,-0 L 0.07 -0 0.07 0 -0.07 0 z" class="primitive"/>
            </g>
            <g transform="translate(215.46,131.12)" id="img-dc60de48-25">
              <path d="M-0.07,-0 L 0.07 -0 0.07 0 -0.07 0 z" class="primitive"/>
            </g>
            <g transform="translate(215.55,131.12)" id="img-dc60de48-26">
              <path d="M-0.07,-0 L 0.07 -0 0.07 0 -0.07 0 z" class="primitive"/>
            </g>
            <g transform="translate(215.64,131.12)" id="img-dc60de48-27">
              <path d="M-0.07,-0 L 0.07 -0 0.07 0 -0.07 0 z" class="primitive"/>
            </g>
            <g transform="translate(215.74,131.12)" id="img-dc60de48-28">
              <path d="M-0.07,-0 L 0.07 -0 0.07 0 -0.07 0 z" class="primitive"/>
            </g>
            <g transform="translate(215.83,131.12)" id="img-dc60de48-29">
              <path d="M-0.07,-0 L 0.07 -0 0.07 0 -0.07 0 z" class="primitive"/>
            </g>
            <g transform="translate(215.92,131.12)" id="img-dc60de48-30">
              <path d="M-0.07,-0 L 0.07 -0 0.07 0 -0.07 0 z" class="primitive"/>
            </g>
            <g transform="translate(216.01,131.12)" id="img-dc60de48-31">
              <path d="M-0.07,-0 L 0.07 -0 0.07 0 -0.07 0 z" class="primitive"/>
            </g>
            <g transform="translate(216.1,125.83)" id="img-dc60de48-32">
              <path d="M-0.07,-5.29 L 0.07 -5.29 0.07 5.29 -0.07 5.29 z" class="primitive"/>
            </g>
            <g transform="translate(216.19,131.12)" id="img-dc60de48-33">
              <path d="M-0.07,-0 L 0.07 -0 0.07 0 -0.07 0 z" class="primitive"/>
            </g>
            <g transform="translate(216.29,125.83)" id="img-dc60de48-34">
              <path d="M-0.07,-5.29 L 0.07 -5.29 0.07 5.29 -0.07 5.29 z" class="primitive"/>
            </g>
            <g transform="translate(216.38,131.12)" id="img-dc60de48-35">
              <path d="M-0.07,-0 L 0.07 -0 0.07 0 -0.07 0 z" class="primitive"/>
            </g>
            <g transform="translate(216.47,131.12)" id="img-dc60de48-36">
              <path d="M-0.07,-0 L 0.07 -0 0.07 0 -0.07 0 z" class="primitive"/>
            </g>
            <g transform="translate(216.56,131.12)" id="img-dc60de48-37">
              <path d="M-0.07,-0 L 0.07 -0 0.07 0 -0.07 0 z" class="primitive"/>
            </g>
            <g transform="translate(216.65,125.83)" id="img-dc60de48-38">
              <path d="M-0.07,-5.29 L 0.07 -5.29 0.07 5.29 -0.07 5.29 z" class="primitive"/>
            </g>
            <g transform="translate(216.74,131.12)" id="img-dc60de48-39">
              <path d="M-0.07,-0 L 0.07 -0 0.07 0 -0.07 0 z" class="primitive"/>
            </g>
            <g transform="translate(216.84,131.12)" id="img-dc60de48-40">
              <path d="M-0.07,-0 L 0.07 -0 0.07 0 -0.07 0 z" class="primitive"/>
            </g>
            <g transform="translate(216.93,131.12)" id="img-dc60de48-41">
              <path d="M-0.07,-0 L 0.07 -0 0.07 0 -0.07 0 z" class="primitive"/>
            </g>
            <g transform="translate(217.02,125.83)" id="img-dc60de48-42">
              <path d="M-0.07,-5.29 L 0.07 -5.29 0.07 5.29 -0.07 5.29 z" class="primitive"/>
            </g>
            <g transform="translate(217.11,125.83)" id="img-dc60de48-43">
              <path d="M-0.07,-5.29 L 0.07 -5.29 0.07 5.29 -0.07 5.29 z" class="primitive"/>
            </g>
            <g transform="translate(217.2,125.83)" id="img-dc60de48-44">
              <path d="M-0.07,-5.29 L 0.07 -5.29 0.07 5.29 -0.07 5.29 z" class="primitive"/>
            </g>
            <g transform="translate(217.29,125.83)" id="img-dc60de48-45">
              <path d="M-0.07,-5.29 L 0.07 -5.29 0.07 5.29 -0.07 5.29 z" class="primitive"/>
            </g>
            <g transform="translate(217.39,109.96)" id="img-dc60de48-46">
              <path d="M-0.07,-21.15 L 0.07 -21.15 0.07 21.15 -0.07 21.15 z" class="primitive"/>
            </g>
            <g transform="translate(217.48,115.25)" id="img-dc60de48-47">
              <path d="M-0.07,-15.86 L 0.07 -15.86 0.07 15.86 -0.07 15.86 z" class="primitive"/>
            </g>
            <g transform="translate(217.57,120.54)" id="img-dc60de48-48">
              <path d="M-0.07,-10.58 L 0.07 -10.58 0.07 10.58 -0.07 10.58 z" class="primitive"/>
            </g>
            <g transform="translate(217.66,120.54)" id="img-dc60de48-49">
              <path d="M-0.07,-10.58 L 0.07 -10.58 0.07 10.58 -0.07 10.58 z" class="primitive"/>
            </g>
            <g transform="translate(217.75,115.25)" id="img-dc60de48-50">
              <path d="M-0.07,-15.86 L 0.07 -15.86 0.07 15.86 -0.07 15.86 z" class="primitive"/>
            </g>
            <g transform="translate(217.85,120.54)" id="img-dc60de48-51">
              <path d="M-0.07,-10.58 L 0.07 -10.58 0.07 10.58 -0.07 10.58 z" class="primitive"/>
            </g>
            <g transform="translate(217.94,120.54)" id="img-dc60de48-52">
              <path d="M-0.07,-10.58 L 0.07 -10.58 0.07 10.58 -0.07 10.58 z" class="primitive"/>
            </g>
            <g transform="translate(218.03,120.54)" id="img-dc60de48-53">
              <path d="M-0.07,-10.58 L 0.07 -10.58 0.07 10.58 -0.07 10.58 z" class="primitive"/>
            </g>
            <g transform="translate(218.12,131.12)" id="img-dc60de48-54">
              <path d="M-0.07,-0 L 0.07 -0 0.07 0 -0.07 0 z" class="primitive"/>
            </g>
            <g transform="translate(218.21,131.12)" id="img-dc60de48-55">
              <path d="M-0.07,-0 L 0.07 -0 0.07 0 -0.07 0 z" class="primitive"/>
            </g>
            <g transform="translate(218.3,125.83)" id="img-dc60de48-56">
              <path d="M-0.07,-5.29 L 0.07 -5.29 0.07 5.29 -0.07 5.29 z" class="primitive"/>
            </g>
            <g transform="translate(218.4,125.83)" id="img-dc60de48-57">
              <path d="M-0.07,-5.29 L 0.07 -5.29 0.07 5.29 -0.07 5.29 z" class="primitive"/>
            </g>
            <g transform="translate(218.49,131.12)" id="img-dc60de48-58">
              <path d="M-0.07,-0 L 0.07 -0 0.07 0 -0.07 0 z" class="primitive"/>
            </g>
            <g transform="translate(218.58,125.83)" id="img-dc60de48-59">
              <path d="M-0.07,-5.29 L 0.07 -5.29 0.07 5.29 -0.07 5.29 z" class="primitive"/>
            </g>
            <g transform="translate(218.67,131.12)" id="img-dc60de48-60">
              <path d="M-0.07,-0 L 0.07 -0 0.07 0 -0.07 0 z" class="primitive"/>
            </g>
            <g transform="translate(218.76,131.12)" id="img-dc60de48-61">
              <path d="M-0.07,-0 L 0.07 -0 0.07 0 -0.07 0 z" class="primitive"/>
            </g>
            <g transform="translate(218.85,131.12)" id="img-dc60de48-62">
              <path d="M-0.07,-0 L 0.07 -0 0.07 0 -0.07 0 z" class="primitive"/>
            </g>
            <g transform="translate(218.95,125.83)" id="img-dc60de48-63">
              <path d="M-0.07,-5.29 L 0.07 -5.29 0.07 5.29 -0.07 5.29 z" class="primitive"/>
            </g>
            <g transform="translate(219.04,131.12)" id="img-dc60de48-64">
              <path d="M-0.07,-0 L 0.07 -0 0.07 0 -0.07 0 z" class="primitive"/>
            </g>
            <g transform="translate(219.13,125.83)" id="img-dc60de48-65">
              <path d="M-0.07,-5.29 L 0.07 -5.29 0.07 5.29 -0.07 5.29 z" class="primitive"/>
            </g>
            <g transform="translate(219.22,131.12)" id="img-dc60de48-66">
              <path d="M-0.07,-0 L 0.07 -0 0.07 0 -0.07 0 z" class="primitive"/>
            </g>
            <g transform="translate(219.31,131.12)" id="img-dc60de48-67">
              <path d="M-0.07,-0 L 0.07 -0 0.07 0 -0.07 0 z" class="primitive"/>
            </g>
            <g transform="translate(219.4,131.12)" id="img-dc60de48-68">
              <path d="M-0.07,-0 L 0.07 -0 0.07 0 -0.07 0 z" class="primitive"/>
            </g>
            <g transform="translate(219.5,131.12)" id="img-dc60de48-69">
              <path d="M-0.07,-0 L 0.07 -0 0.07 0 -0.07 0 z" class="primitive"/>
            </g>
            <g transform="translate(219.59,131.12)" id="img-dc60de48-70">
              <path d="M-0.07,-0 L 0.07 -0 0.07 0 -0.07 0 z" class="primitive"/>
            </g>
            <g transform="translate(219.68,125.83)" id="img-dc60de48-71">
              <path d="M-0.07,-5.29 L 0.07 -5.29 0.07 5.29 -0.07 5.29 z" class="primitive"/>
            </g>
            <g transform="translate(219.77,131.12)" id="img-dc60de48-72">
              <path d="M-0.07,-0 L 0.07 -0 0.07 0 -0.07 0 z" class="primitive"/>
            </g>
          </g>
        </g>
      </g>
    </g>
  </g>
  <g class="guide ylabels" font-size="2.82" font-family="'PT Sans Caption','Helvetica Neue','Helvetica',sans-serif" fill="#6C606B" id="img-dc60de48-73">
    <g transform="translate(184.62,131.11)" id="img-dc60de48-74">
      <g class="primitive">
        <text text-anchor="end" dy="0.35em">0</text>
      </g>
    </g>
    <g transform="translate(184.62,120.54)" id="img-dc60de48-75">
      <g class="primitive">
        <text text-anchor="end" dy="0.35em">1</text>
      </g>
    </g>
    <g transform="translate(184.62,109.96)" id="img-dc60de48-76">
      <g class="primitive">
        <text text-anchor="end" dy="0.35em">2</text>
      </g>
    </g>
    <g transform="translate(184.62,99.39)" id="img-dc60de48-77">
      <g class="primitive">
        <text text-anchor="end" dy="0.35em">3</text>
      </g>
    </g>
    <g transform="translate(184.62,88.81)" id="img-dc60de48-78">
      <g class="primitive">
        <text text-anchor="end" dy="0.35em">4</text>
      </g>
    </g>
  </g>
  <g font-size="3.88" font-family="'PT Sans','Helvetica Neue','Helvetica',sans-serif" fill="#564A55" stroke="#000000" stroke-opacity="0.000" id="img-dc60de48-79">
    <g transform="translate(178.14,107.96)" id="img-dc60de48-80">
      <g class="primitive">
        <text text-anchor="middle" dy="0.35em" transform="rotate(-90,0, 2)">Count</text>
      </g>
    </g>
  </g>
  <g font-size="3.88" font-family="'PT Sans','Helvetica Neue','Helvetica',sans-serif" fill="#564A55" stroke="#000000" stroke-opacity="0.000" id="img-dc60de48-81">
    <g transform="translate(217.31,81.2)" id="img-dc60de48-82">
      <g class="primitive">
        <text text-anchor="middle" dy="0.6em">Riveros</text>
      </g>
    </g>
  </g>
</g>
<g class="plotroot xscalable yscalable" id="img-dc60de48-83">
  <g font-size="3.88" font-family="'PT Sans','Helvetica Neue','Helvetica',sans-serif" fill="#564A55" stroke="#000000" stroke-opacity="0.000" id="img-dc60de48-84">
    <g transform="translate(132.64,140.79)" id="img-dc60de48-85">
      <g class="primitive">
        <text text-anchor="middle" dy="0.6em">kMeas/kCalc</text>
      </g>
    </g>
  </g>
  <g class="guide xlabels" font-size="2.82" font-family="'PT Sans Caption','Helvetica Neue','Helvetica',sans-serif" fill="#6C606B" id="img-dc60de48-86">
    <g transform="translate(102.95,134.11)" id="img-dc60de48-87">
      <g class="primitive">
        <text text-anchor="middle" dy="0.6em">0.0</text>
      </g>
    </g>
    <g transform="translate(117.8,134.11)" id="img-dc60de48-88">
      <g class="primitive">
        <text text-anchor="middle" dy="0.6em">0.5</text>
      </g>
    </g>
    <g transform="translate(132.64,134.11)" id="img-dc60de48-89">
      <g class="primitive">
        <text text-anchor="middle" dy="0.6em">1.0</text>
      </g>
    </g>
    <g transform="translate(147.49,134.11)" id="img-dc60de48-90">
      <g class="primitive">
        <text text-anchor="middle" dy="0.6em">1.5</text>
      </g>
    </g>
    <g transform="translate(162.33,134.11)" id="img-dc60de48-91">
      <g class="primitive">
        <text text-anchor="middle" dy="0.6em">2.0</text>
      </g>
    </g>
  </g>
  <g clip-path="url(#img-dc60de48-92)">
    <g id="img-dc60de48-93">
      <g pointer-events="visible" stroke-width="0.3" fill="#000000" fill-opacity="0.000" stroke="#000000" stroke-opacity="0.000" class="guide background" id="img-dc60de48-94">
        <g transform="translate(132.64,109.96)" id="img-dc60de48-95">
          <path d="M-31.69,-23.15 L 31.69 -23.15 31.69 23.15 -31.69 23.15 z" class="primitive"/>
        </g>
      </g>
      <g class="guide ygridlines xfixed" stroke-dasharray="0.5,0.5" stroke-width="0.2" stroke="#D0D0E0" id="img-dc60de48-96">
        <g transform="translate(132.64,131.11)" id="img-dc60de48-97">
          <path fill="none" d="M-31.69,0 L 31.69 0" class="primitive"/>
        </g>
        <g transform="translate(132.64,117.01)" id="img-dc60de48-98">
          <path fill="none" d="M-31.69,0 L 31.69 0" class="primitive"/>
        </g>
        <g transform="translate(132.64,102.91)" id="img-dc60de48-99">
          <path fill="none" d="M-31.69,0 L 31.69 0" class="primitive"/>
        </g>
        <g transform="translate(132.64,88.81)" id="img-dc60de48-100">
          <path fill="none" d="M-31.69,0 L 31.69 0" class="primitive"/>
        </g>
      </g>
      <g class="guide xgridlines yfixed" stroke-dasharray="0.5,0.5" stroke-width="0.2" stroke="#D0D0E0" id="img-dc60de48-101">
        <g transform="translate(102.95,109.96)" id="img-dc60de48-102">
          <path fill="none" d="M0,-23.15 L 0 23.15" class="primitive"/>
        </g>
        <g transform="translate(117.8,109.96)" id="img-dc60de48-103">
          <path fill="none" d="M0,-23.15 L 0 23.15" class="primitive"/>
        </g>
        <g transform="translate(132.64,109.96)" id="img-dc60de48-104">
          <path fill="none" d="M0,-23.15 L 0 23.15" class="primitive"/>
        </g>
        <g transform="translate(147.49,109.96)" id="img-dc60de48-105">
          <path fill="none" d="M0,-23.15 L 0 23.15" class="primitive"/>
        </g>
        <g transform="translate(162.33,109.96)" id="img-dc60de48-106">
          <path fill="none" d="M0,-23.15 L 0 23.15" class="primitive"/>
        </g>
      </g>
      <g class="plotpanel" id="img-dc60de48-107">
        <metadata>
          <boundingbox value="100.95166666666665mm 86.81166666666665mm 63.38166666666665mm 46.30333333333333mm"/>
          <unitbox value="-0.06736085772825509 3.1418327948940195 2.1347217154565103 -3.283665589788039"/>
        </metadata>
        <g shape-rendering="crispEdges" stroke-width="0.3" id="img-dc60de48-108">
          <g class="geometry" fill-opacity="1" stroke="#000000" stroke-opacity="0.000" fill="#00BFFF" id="img-dc60de48-109">
            <g transform="translate(125.99,124.06)" id="img-dc60de48-110">
              <path d="M-0.11,-7.05 L 0.11 -7.05 0.11 7.05 -0.11 7.05 z" class="primitive"/>
            </g>
            <g transform="translate(126.15,124.06)" id="img-dc60de48-111">
              <path d="M-0.11,-7.05 L 0.11 -7.05 0.11 7.05 -0.11 7.05 z" class="primitive"/>
            </g>
            <g transform="translate(126.32,131.12)" id="img-dc60de48-112">
              <path d="M-0.11,-0 L 0.11 -0 0.11 0 -0.11 0 z" class="primitive"/>
            </g>
            <g transform="translate(126.49,124.06)" id="img-dc60de48-113">
              <path d="M-0.11,-7.05 L 0.11 -7.05 0.11 7.05 -0.11 7.05 z" class="primitive"/>
            </g>
            <g transform="translate(126.66,131.12)" id="img-dc60de48-114">
              <path d="M-0.11,-0 L 0.11 -0 0.11 0 -0.11 0 z" class="primitive"/>
            </g>
            <g transform="translate(126.83,117.01)" id="img-dc60de48-115">
              <path d="M-0.11,-14.1 L 0.11 -14.1 0.11 14.1 -0.11 14.1 z" class="primitive"/>
            </g>
            <g transform="translate(127,131.12)" id="img-dc60de48-116">
              <path d="M-0.11,-0 L 0.11 -0 0.11 0 -0.11 0 z" class="primitive"/>
            </g>
            <g transform="translate(127.16,131.12)" id="img-dc60de48-117">
              <path d="M-0.11,-0 L 0.11 -0 0.11 0 -0.11 0 z" class="primitive"/>
            </g>
            <g transform="translate(127.33,131.12)" id="img-dc60de48-118">
              <path d="M-0.11,-0 L 0.11 -0 0.11 0 -0.11 0 z" class="primitive"/>
            </g>
            <g transform="translate(127.5,117.01)" id="img-dc60de48-119">
              <path d="M-0.11,-14.1 L 0.11 -14.1 0.11 14.1 -0.11 14.1 z" class="primitive"/>
            </g>
            <g transform="translate(127.67,131.12)" id="img-dc60de48-120">
              <path d="M-0.11,-0 L 0.11 -0 0.11 0 -0.11 0 z" class="primitive"/>
            </g>
            <g transform="translate(127.84,124.06)" id="img-dc60de48-121">
              <path d="M-0.11,-7.05 L 0.11 -7.05 0.11 7.05 -0.11 7.05 z" class="primitive"/>
            </g>
            <g transform="translate(128,124.06)" id="img-dc60de48-122">
              <path d="M-0.11,-7.05 L 0.11 -7.05 0.11 7.05 -0.11 7.05 z" class="primitive"/>
            </g>
            <g transform="translate(128.17,131.12)" id="img-dc60de48-123">
              <path d="M-0.11,-0 L 0.11 -0 0.11 0 -0.11 0 z" class="primitive"/>
            </g>
            <g transform="translate(128.34,131.12)" id="img-dc60de48-124">
              <path d="M-0.11,-0 L 0.11 -0 0.11 0 -0.11 0 z" class="primitive"/>
            </g>
            <g transform="translate(128.51,131.12)" id="img-dc60de48-125">
              <path d="M-0.11,-0 L 0.11 -0 0.11 0 -0.11 0 z" class="primitive"/>
            </g>
            <g transform="translate(128.68,131.12)" id="img-dc60de48-126">
              <path d="M-0.11,-0 L 0.11 -0 0.11 0 -0.11 0 z" class="primitive"/>
            </g>
            <g transform="translate(128.84,109.96)" id="img-dc60de48-127">
              <path d="M-0.11,-21.15 L 0.11 -21.15 0.11 21.15 -0.11 21.15 z" class="primitive"/>
            </g>
            <g transform="translate(129.01,124.06)" id="img-dc60de48-128">
              <path d="M-0.11,-7.05 L 0.11 -7.05 0.11 7.05 -0.11 7.05 z" class="primitive"/>
            </g>
            <g transform="translate(129.18,131.12)" id="img-dc60de48-129">
              <path d="M-0.11,-0 L 0.11 -0 0.11 0 -0.11 0 z" class="primitive"/>
            </g>
            <g transform="translate(129.35,131.12)" id="img-dc60de48-130">
              <path d="M-0.11,-0 L 0.11 -0 0.11 0 -0.11 0 z" class="primitive"/>
            </g>
            <g transform="translate(129.52,131.12)" id="img-dc60de48-131">
              <path d="M-0.11,-0 L 0.11 -0 0.11 0 -0.11 0 z" class="primitive"/>
            </g>
            <g transform="translate(129.68,131.12)" id="img-dc60de48-132">
              <path d="M-0.11,-0 L 0.11 -0 0.11 0 -0.11 0 z" class="primitive"/>
            </g>
            <g transform="translate(129.85,124.06)" id="img-dc60de48-133">
              <path d="M-0.11,-7.05 L 0.11 -7.05 0.11 7.05 -0.11 7.05 z" class="primitive"/>
            </g>
            <g transform="translate(130.02,131.12)" id="img-dc60de48-134">
              <path d="M-0.11,-0 L 0.11 -0 0.11 0 -0.11 0 z" class="primitive"/>
            </g>
            <g transform="translate(130.19,131.12)" id="img-dc60de48-135">
              <path d="M-0.11,-0 L 0.11 -0 0.11 0 -0.11 0 z" class="primitive"/>
            </g>
            <g transform="translate(130.36,124.06)" id="img-dc60de48-136">
              <path d="M-0.11,-7.05 L 0.11 -7.05 0.11 7.05 -0.11 7.05 z" class="primitive"/>
            </g>
            <g transform="translate(130.52,131.12)" id="img-dc60de48-137">
              <path d="M-0.11,-0 L 0.11 -0 0.11 0 -0.11 0 z" class="primitive"/>
            </g>
            <g transform="translate(130.69,131.12)" id="img-dc60de48-138">
              <path d="M-0.11,-0 L 0.11 -0 0.11 0 -0.11 0 z" class="primitive"/>
            </g>
            <g transform="translate(130.86,131.12)" id="img-dc60de48-139">
              <path d="M-0.11,-0 L 0.11 -0 0.11 0 -0.11 0 z" class="primitive"/>
            </g>
            <g transform="translate(131.03,131.12)" id="img-dc60de48-140">
              <path d="M-0.11,-0 L 0.11 -0 0.11 0 -0.11 0 z" class="primitive"/>
            </g>
            <g transform="translate(131.2,124.06)" id="img-dc60de48-141">
              <path d="M-0.11,-7.05 L 0.11 -7.05 0.11 7.05 -0.11 7.05 z" class="primitive"/>
            </g>
            <g transform="translate(131.36,124.06)" id="img-dc60de48-142">
              <path d="M-0.11,-7.05 L 0.11 -7.05 0.11 7.05 -0.11 7.05 z" class="primitive"/>
            </g>
            <g transform="translate(131.53,131.12)" id="img-dc60de48-143">
              <path d="M-0.11,-0 L 0.11 -0 0.11 0 -0.11 0 z" class="primitive"/>
            </g>
            <g transform="translate(131.7,131.12)" id="img-dc60de48-144">
              <path d="M-0.11,-0 L 0.11 -0 0.11 0 -0.11 0 z" class="primitive"/>
            </g>
            <g transform="translate(131.87,124.06)" id="img-dc60de48-145">
              <path d="M-0.11,-7.05 L 0.11 -7.05 0.11 7.05 -0.11 7.05 z" class="primitive"/>
            </g>
            <g transform="translate(132.04,131.12)" id="img-dc60de48-146">
              <path d="M-0.11,-0 L 0.11 -0 0.11 0 -0.11 0 z" class="primitive"/>
            </g>
            <g transform="translate(132.2,124.06)" id="img-dc60de48-147">
              <path d="M-0.11,-7.05 L 0.11 -7.05 0.11 7.05 -0.11 7.05 z" class="primitive"/>
            </g>
            <g transform="translate(132.37,117.01)" id="img-dc60de48-148">
              <path d="M-0.11,-14.1 L 0.11 -14.1 0.11 14.1 -0.11 14.1 z" class="primitive"/>
            </g>
            <g transform="translate(132.54,109.96)" id="img-dc60de48-149">
              <path d="M-0.11,-21.15 L 0.11 -21.15 0.11 21.15 -0.11 21.15 z" class="primitive"/>
            </g>
            <g transform="translate(132.71,117.01)" id="img-dc60de48-150">
              <path d="M-0.11,-14.1 L 0.11 -14.1 0.11 14.1 -0.11 14.1 z" class="primitive"/>
            </g>
            <g transform="translate(132.88,124.06)" id="img-dc60de48-151">
              <path d="M-0.11,-7.05 L 0.11 -7.05 0.11 7.05 -0.11 7.05 z" class="primitive"/>
            </g>
            <g transform="translate(133.05,109.96)" id="img-dc60de48-152">
              <path d="M-0.11,-21.15 L 0.11 -21.15 0.11 21.15 -0.11 21.15 z" class="primitive"/>
            </g>
            <g transform="translate(133.21,131.12)" id="img-dc60de48-153">
              <path d="M-0.11,-0 L 0.11 -0 0.11 0 -0.11 0 z" class="primitive"/>
            </g>
            <g transform="translate(133.38,124.06)" id="img-dc60de48-154">
              <path d="M-0.11,-7.05 L 0.11 -7.05 0.11 7.05 -0.11 7.05 z" class="primitive"/>
            </g>
            <g transform="translate(133.55,117.01)" id="img-dc60de48-155">
              <path d="M-0.11,-14.1 L 0.11 -14.1 0.11 14.1 -0.11 14.1 z" class="primitive"/>
            </g>
            <g transform="translate(133.72,131.12)" id="img-dc60de48-156">
              <path d="M-0.11,-0 L 0.11 -0 0.11 0 -0.11 0 z" class="primitive"/>
            </g>
            <g transform="translate(133.89,131.12)" id="img-dc60de48-157">
              <path d="M-0.11,-0 L 0.11 -0 0.11 0 -0.11 0 z" class="primitive"/>
            </g>
            <g transform="translate(134.05,131.12)" id="img-dc60de48-158">
              <path d="M-0.11,-0 L 0.11 -0 0.11 0 -0.11 0 z" class="primitive"/>
            </g>
            <g transform="translate(134.22,124.06)" id="img-dc60de48-159">
              <path d="M-0.11,-7.05 L 0.11 -7.05 0.11 7.05 -0.11 7.05 z" class="primitive"/>
            </g>
          </g>
        </g>
      </g>
    </g>
  </g>
  <g class="guide ylabels" font-size="2.82" font-family="'PT Sans Caption','Helvetica Neue','Helvetica',sans-serif" fill="#6C606B" id="img-dc60de48-160">
    <g transform="translate(99.95,131.11)" id="img-dc60de48-161">
      <g class="primitive">
        <text text-anchor="end" dy="0.35em">0</text>
      </g>
    </g>
    <g transform="translate(99.95,117.01)" id="img-dc60de48-162">
      <g class="primitive">
        <text text-anchor="end" dy="0.35em">1</text>
      </g>
    </g>
    <g transform="translate(99.95,102.91)" id="img-dc60de48-163">
      <g class="primitive">
        <text text-anchor="end" dy="0.35em">2</text>
      </g>
    </g>
    <g transform="translate(99.95,88.81)" id="img-dc60de48-164">
      <g class="primitive">
        <text text-anchor="end" dy="0.35em">3</text>
      </g>
    </g>
  </g>
  <g font-size="3.88" font-family="'PT Sans','Helvetica Neue','Helvetica',sans-serif" fill="#564A55" stroke="#000000" stroke-opacity="0.000" id="img-dc60de48-165">
    <g transform="translate(93.47,107.96)" id="img-dc60de48-166">
      <g class="primitive">
        <text text-anchor="middle" dy="0.35em" transform="rotate(-90,0, 2)">Count</text>
      </g>
    </g>
  </g>
  <g font-size="3.88" font-family="'PT Sans','Helvetica Neue','Helvetica',sans-serif" fill="#564A55" stroke="#000000" stroke-opacity="0.000" id="img-dc60de48-167">
    <g transform="translate(132.64,81.2)" id="img-dc60de48-168">
      <g class="primitive">
        <text text-anchor="middle" dy="0.6em">CitZAF</text>
      </g>
    </g>
  </g>
</g>
<g class="plotroot xscalable yscalable" id="img-dc60de48-169">
  <g font-size="3.88" font-family="'PT Sans','Helvetica Neue','Helvetica',sans-serif" fill="#564A55" stroke="#000000" stroke-opacity="0.000" id="img-dc60de48-170">
    <g transform="translate(47.98,140.79)" id="img-dc60de48-171">
      <g class="primitive">
        <text text-anchor="middle" dy="0.6em">kMeas/kCalc</text>
      </g>
    </g>
  </g>
  <g class="guide xlabels" font-size="2.82" font-family="'PT Sans Caption','Helvetica Neue','Helvetica',sans-serif" fill="#6C606B" id="img-dc60de48-172">
    <g transform="translate(18.29,134.11)" id="img-dc60de48-173">
      <g class="primitive">
        <text text-anchor="middle" dy="0.6em">0.0</text>
      </g>
    </g>
    <g transform="translate(33.13,134.11)" id="img-dc60de48-174">
      <g class="primitive">
        <text text-anchor="middle" dy="0.6em">0.5</text>
      </g>
    </g>
    <g transform="translate(47.98,134.11)" id="img-dc60de48-175">
      <g class="primitive">
        <text text-anchor="middle" dy="0.6em">1.0</text>
      </g>
    </g>
    <g transform="translate(62.82,134.11)" id="img-dc60de48-176">
      <g class="primitive">
        <text text-anchor="middle" dy="0.6em">1.5</text>
      </g>
    </g>
    <g transform="translate(77.67,134.11)" id="img-dc60de48-177">
      <g class="primitive">
        <text text-anchor="middle" dy="0.6em">2.0</text>
      </g>
    </g>
  </g>
  <g clip-path="url(#img-dc60de48-178)">
    <g id="img-dc60de48-179">
      <g pointer-events="visible" stroke-width="0.3" fill="#000000" fill-opacity="0.000" stroke="#000000" stroke-opacity="0.000" class="guide background" id="img-dc60de48-180">
        <g transform="translate(47.98,109.96)" id="img-dc60de48-181">
          <path d="M-31.69,-23.15 L 31.69 -23.15 31.69 23.15 -31.69 23.15 z" class="primitive"/>
        </g>
      </g>
      <g class="guide ygridlines xfixed" stroke-dasharray="0.5,0.5" stroke-width="0.2" stroke="#D0D0E0" id="img-dc60de48-182">
        <g transform="translate(47.98,131.11)" id="img-dc60de48-183">
          <path fill="none" d="M-31.69,0 L 31.69 0" class="primitive"/>
        </g>
        <g transform="translate(47.98,120.54)" id="img-dc60de48-184">
          <path fill="none" d="M-31.69,0 L 31.69 0" class="primitive"/>
        </g>
        <g transform="translate(47.98,109.96)" id="img-dc60de48-185">
          <path fill="none" d="M-31.69,0 L 31.69 0" class="primitive"/>
        </g>
        <g transform="translate(47.98,99.39)" id="img-dc60de48-186">
          <path fill="none" d="M-31.69,0 L 31.69 0" class="primitive"/>
        </g>
        <g transform="translate(47.98,88.81)" id="img-dc60de48-187">
          <path fill="none" d="M-31.69,0 L 31.69 0" class="primitive"/>
        </g>
      </g>
      <g class="guide xgridlines yfixed" stroke-dasharray="0.5,0.5" stroke-width="0.2" stroke="#D0D0E0" id="img-dc60de48-188">
        <g transform="translate(18.29,109.96)" id="img-dc60de48-189">
          <path fill="none" d="M0,-23.15 L 0 23.15" class="primitive"/>
        </g>
        <g transform="translate(33.13,109.96)" id="img-dc60de48-190">
          <path fill="none" d="M0,-23.15 L 0 23.15" class="primitive"/>
        </g>
        <g transform="translate(47.98,109.96)" id="img-dc60de48-191">
          <path fill="none" d="M0,-23.15 L 0 23.15" class="primitive"/>
        </g>
        <g transform="translate(62.82,109.96)" id="img-dc60de48-192">
          <path fill="none" d="M0,-23.15 L 0 23.15" class="primitive"/>
        </g>
        <g transform="translate(77.67,109.96)" id="img-dc60de48-193">
          <path fill="none" d="M0,-23.15 L 0 23.15" class="primitive"/>
        </g>
      </g>
      <g class="plotpanel" id="img-dc60de48-194">
        <metadata>
          <boundingbox value="16.285000000000004mm 86.81166666666665mm 63.38166666666665mm 46.30333333333333mm"/>
          <unitbox value="-0.06736085772825509 4.189110393192026 2.1347217154565103 -4.378220786384052"/>
        </metadata>
        <g shape-rendering="crispEdges" stroke-width="0.3" id="img-dc60de48-195">
          <g class="geometry" fill-opacity="1" stroke="#000000" stroke-opacity="0.000" fill="#00BFFF" id="img-dc60de48-196">
            <g transform="translate(45.63,125.83)" id="img-dc60de48-197">
              <path d="M-0.07,-5.29 L 0.07 -5.29 0.07 5.29 -0.07 5.29 z" class="primitive"/>
            </g>
            <g transform="translate(45.71,131.12)" id="img-dc60de48-198">
              <path d="M-0.07,-0 L 0.07 -0 0.07 0 -0.07 0 z" class="primitive"/>
            </g>
            <g transform="translate(45.8,131.12)" id="img-dc60de48-199">
              <path d="M-0.07,-0 L 0.07 -0 0.07 0 -0.07 0 z" class="primitive"/>
            </g>
            <g transform="translate(45.89,131.12)" id="img-dc60de48-200">
              <path d="M-0.07,-0 L 0.07 -0 0.07 0 -0.07 0 z" class="primitive"/>
            </g>
            <g transform="translate(45.98,131.12)" id="img-dc60de48-201">
              <path d="M-0.07,-0 L 0.07 -0 0.07 0 -0.07 0 z" class="primitive"/>
            </g>
            <g transform="translate(46.06,131.12)" id="img-dc60de48-202">
              <path d="M-0.07,-0 L 0.07 -0 0.07 0 -0.07 0 z" class="primitive"/>
            </g>
            <g transform="translate(46.15,131.12)" id="img-dc60de48-203">
              <path d="M-0.07,-0 L 0.07 -0 0.07 0 -0.07 0 z" class="primitive"/>
            </g>
            <g transform="translate(46.24,131.12)" id="img-dc60de48-204">
              <path d="M-0.07,-0 L 0.07 -0 0.07 0 -0.07 0 z" class="primitive"/>
            </g>
            <g transform="translate(46.32,131.12)" id="img-dc60de48-205">
              <path d="M-0.07,-0 L 0.07 -0 0.07 0 -0.07 0 z" class="primitive"/>
            </g>
            <g transform="translate(46.41,125.83)" id="img-dc60de48-206">
              <path d="M-0.07,-5.29 L 0.07 -5.29 0.07 5.29 -0.07 5.29 z" class="primitive"/>
            </g>
            <g transform="translate(46.5,125.83)" id="img-dc60de48-207">
              <path d="M-0.07,-5.29 L 0.07 -5.29 0.07 5.29 -0.07 5.29 z" class="primitive"/>
            </g>
            <g transform="translate(46.59,125.83)" id="img-dc60de48-208">
              <path d="M-0.07,-5.29 L 0.07 -5.29 0.07 5.29 -0.07 5.29 z" class="primitive"/>
            </g>
            <g transform="translate(46.67,131.12)" id="img-dc60de48-209">
              <path d="M-0.07,-0 L 0.07 -0 0.07 0 -0.07 0 z" class="primitive"/>
            </g>
            <g transform="translate(46.76,131.12)" id="img-dc60de48-210">
              <path d="M-0.07,-0 L 0.07 -0 0.07 0 -0.07 0 z" class="primitive"/>
            </g>
            <g transform="translate(46.85,131.12)" id="img-dc60de48-211">
              <path d="M-0.07,-0 L 0.07 -0 0.07 0 -0.07 0 z" class="primitive"/>
            </g>
            <g transform="translate(46.94,131.12)" id="img-dc60de48-212">
              <path d="M-0.07,-0 L 0.07 -0 0.07 0 -0.07 0 z" class="primitive"/>
            </g>
            <g transform="translate(47.02,131.12)" id="img-dc60de48-213">
              <path d="M-0.07,-0 L 0.07 -0 0.07 0 -0.07 0 z" class="primitive"/>
            </g>
            <g transform="translate(47.11,125.83)" id="img-dc60de48-214">
              <path d="M-0.07,-5.29 L 0.07 -5.29 0.07 5.29 -0.07 5.29 z" class="primitive"/>
            </g>
            <g transform="translate(47.2,131.12)" id="img-dc60de48-215">
              <path d="M-0.07,-0 L 0.07 -0 0.07 0 -0.07 0 z" class="primitive"/>
            </g>
            <g transform="translate(47.29,125.83)" id="img-dc60de48-216">
              <path d="M-0.07,-5.29 L 0.07 -5.29 0.07 5.29 -0.07 5.29 z" class="primitive"/>
            </g>
            <g transform="translate(47.37,131.12)" id="img-dc60de48-217">
              <path d="M-0.07,-0 L 0.07 -0 0.07 0 -0.07 0 z" class="primitive"/>
            </g>
            <g transform="translate(47.46,120.54)" id="img-dc60de48-218">
              <path d="M-0.07,-10.58 L 0.07 -10.58 0.07 10.58 -0.07 10.58 z" class="primitive"/>
            </g>
            <g transform="translate(47.55,131.12)" id="img-dc60de48-219">
              <path d="M-0.07,-0 L 0.07 -0 0.07 0 -0.07 0 z" class="primitive"/>
            </g>
            <g transform="translate(47.63,125.83)" id="img-dc60de48-220">
              <path d="M-0.07,-5.29 L 0.07 -5.29 0.07 5.29 -0.07 5.29 z" class="primitive"/>
            </g>
            <g transform="translate(47.72,125.83)" id="img-dc60de48-221">
              <path d="M-0.07,-5.29 L 0.07 -5.29 0.07 5.29 -0.07 5.29 z" class="primitive"/>
            </g>
            <g transform="translate(47.81,120.54)" id="img-dc60de48-222">
              <path d="M-0.07,-10.58 L 0.07 -10.58 0.07 10.58 -0.07 10.58 z" class="primitive"/>
            </g>
            <g transform="translate(47.9,125.83)" id="img-dc60de48-223">
              <path d="M-0.07,-5.29 L 0.07 -5.29 0.07 5.29 -0.07 5.29 z" class="primitive"/>
            </g>
            <g transform="translate(47.98,120.54)" id="img-dc60de48-224">
              <path d="M-0.07,-10.58 L 0.07 -10.58 0.07 10.58 -0.07 10.58 z" class="primitive"/>
            </g>
            <g transform="translate(48.07,125.83)" id="img-dc60de48-225">
              <path d="M-0.07,-5.29 L 0.07 -5.29 0.07 5.29 -0.07 5.29 z" class="primitive"/>
            </g>
            <g transform="translate(48.16,109.96)" id="img-dc60de48-226">
              <path d="M-0.07,-21.15 L 0.07 -21.15 0.07 21.15 -0.07 21.15 z" class="primitive"/>
            </g>
            <g transform="translate(48.25,115.25)" id="img-dc60de48-227">
              <path d="M-0.07,-15.86 L 0.07 -15.86 0.07 15.86 -0.07 15.86 z" class="primitive"/>
            </g>
            <g transform="translate(48.33,125.83)" id="img-dc60de48-228">
              <path d="M-0.07,-5.29 L 0.07 -5.29 0.07 5.29 -0.07 5.29 z" class="primitive"/>
            </g>
            <g transform="translate(48.42,125.83)" id="img-dc60de48-229">
              <path d="M-0.07,-5.29 L 0.07 -5.29 0.07 5.29 -0.07 5.29 z" class="primitive"/>
            </g>
            <g transform="translate(48.51,125.83)" id="img-dc60de48-230">
              <path d="M-0.07,-5.29 L 0.07 -5.29 0.07 5.29 -0.07 5.29 z" class="primitive"/>
            </g>
            <g transform="translate(48.6,125.83)" id="img-dc60de48-231">
              <path d="M-0.07,-5.29 L 0.07 -5.29 0.07 5.29 -0.07 5.29 z" class="primitive"/>
            </g>
            <g transform="translate(48.68,125.83)" id="img-dc60de48-232">
              <path d="M-0.07,-5.29 L 0.07 -5.29 0.07 5.29 -0.07 5.29 z" class="primitive"/>
            </g>
            <g transform="translate(48.77,125.83)" id="img-dc60de48-233">
              <path d="M-0.07,-5.29 L 0.07 -5.29 0.07 5.29 -0.07 5.29 z" class="primitive"/>
            </g>
            <g transform="translate(48.86,131.12)" id="img-dc60de48-234">
              <path d="M-0.07,-0 L 0.07 -0 0.07 0 -0.07 0 z" class="primitive"/>
            </g>
            <g transform="translate(48.94,125.83)" id="img-dc60de48-235">
              <path d="M-0.07,-5.29 L 0.07 -5.29 0.07 5.29 -0.07 5.29 z" class="primitive"/>
            </g>
            <g transform="translate(49.03,125.83)" id="img-dc60de48-236">
              <path d="M-0.07,-5.29 L 0.07 -5.29 0.07 5.29 -0.07 5.29 z" class="primitive"/>
            </g>
            <g transform="translate(49.12,131.12)" id="img-dc60de48-237">
              <path d="M-0.07,-0 L 0.07 -0 0.07 0 -0.07 0 z" class="primitive"/>
            </g>
            <g transform="translate(49.21,131.12)" id="img-dc60de48-238">
              <path d="M-0.07,-0 L 0.07 -0 0.07 0 -0.07 0 z" class="primitive"/>
            </g>
            <g transform="translate(49.29,131.12)" id="img-dc60de48-239">
              <path d="M-0.07,-0 L 0.07 -0 0.07 0 -0.07 0 z" class="primitive"/>
            </g>
            <g transform="translate(49.38,125.83)" id="img-dc60de48-240">
              <path d="M-0.07,-5.29 L 0.07 -5.29 0.07 5.29 -0.07 5.29 z" class="primitive"/>
            </g>
            <g transform="translate(49.47,131.12)" id="img-dc60de48-241">
              <path d="M-0.07,-0 L 0.07 -0 0.07 0 -0.07 0 z" class="primitive"/>
            </g>
            <g transform="translate(49.56,125.83)" id="img-dc60de48-242">
              <path d="M-0.07,-5.29 L 0.07 -5.29 0.07 5.29 -0.07 5.29 z" class="primitive"/>
            </g>
            <g transform="translate(49.64,131.12)" id="img-dc60de48-243">
              <path d="M-0.07,-0 L 0.07 -0 0.07 0 -0.07 0 z" class="primitive"/>
            </g>
            <g transform="translate(49.73,125.83)" id="img-dc60de48-244">
              <path d="M-0.07,-5.29 L 0.07 -5.29 0.07 5.29 -0.07 5.29 z" class="primitive"/>
            </g>
            <g transform="translate(49.82,131.12)" id="img-dc60de48-245">
              <path d="M-0.07,-0 L 0.07 -0 0.07 0 -0.07 0 z" class="primitive"/>
            </g>
            <g transform="translate(49.91,131.12)" id="img-dc60de48-246">
              <path d="M-0.07,-0 L 0.07 -0 0.07 0 -0.07 0 z" class="primitive"/>
            </g>
          </g>
        </g>
      </g>
    </g>
  </g>
  <g class="guide ylabels" font-size="2.82" font-family="'PT Sans Caption','Helvetica Neue','Helvetica',sans-serif" fill="#6C606B" id="img-dc60de48-247">
    <g transform="translate(15.28,131.11)" id="img-dc60de48-248">
      <g class="primitive">
        <text text-anchor="end" dy="0.35em">0</text>
      </g>
    </g>
    <g transform="translate(15.28,120.54)" id="img-dc60de48-249">
      <g class="primitive">
        <text text-anchor="end" dy="0.35em">1</text>
      </g>
    </g>
    <g transform="translate(15.28,109.96)" id="img-dc60de48-250">
      <g class="primitive">
        <text text-anchor="end" dy="0.35em">2</text>
      </g>
    </g>
    <g transform="translate(15.28,99.39)" id="img-dc60de48-251">
      <g class="primitive">
        <text text-anchor="end" dy="0.35em">3</text>
      </g>
    </g>
    <g transform="translate(15.28,88.81)" id="img-dc60de48-252">
      <g class="primitive">
        <text text-anchor="end" dy="0.35em">4</text>
      </g>
    </g>
  </g>
  <g font-size="3.88" font-family="'PT Sans','Helvetica Neue','Helvetica',sans-serif" fill="#564A55" stroke="#000000" stroke-opacity="0.000" id="img-dc60de48-253">
    <g transform="translate(8.81,107.96)" id="img-dc60de48-254">
      <g class="primitive">
        <text text-anchor="middle" dy="0.35em" transform="rotate(-90,0, 2)">Count</text>
      </g>
    </g>
  </g>
  <g font-size="3.88" font-family="'PT Sans','Helvetica Neue','Helvetica',sans-serif" fill="#564A55" stroke="#000000" stroke-opacity="0.000" id="img-dc60de48-255">
    <g transform="translate(47.98,81.2)" id="img-dc60de48-256">
      <g class="primitive">
        <text text-anchor="middle" dy="0.6em">XPP</text>
      </g>
    </g>
  </g>
</g>
<g font-size="7.06" font-family="Arial" id="img-dc60de48-257">
  <g transform="translate(127,38.1)" id="img-dc60de48-258">
    <g class="primitive">
      <text text-anchor="middle" dy="0.35em">Goldstein et al. measurements</text>
    </g>
  </g>
</g>
<defs>
  <clipPath id="img-dc60de48-4">
    <path d="M185.62,86.81 L 249 86.81 249 133.11 185.62 133.11" />
  </clipPath>
  <clipPath id="img-dc60de48-92">
    <path d="M100.95,86.81 L 164.33 86.81 164.33 133.11 100.95 133.11" />
  </clipPath>
  <clipPath id="img-dc60de48-178">
    <path d="M16.29,86.81 L 79.67 86.81 79.67 133.11 16.29 133.11" />
  </clipPath>
</defs>
</svg>
