<?xml version="1.0" encoding="UTF-8"?>
<svg xmlns="http://www.w3.org/2000/svg"
     xmlns:xlink="http://www.w3.org/1999/xlink"
     xmlns:gadfly="http://www.gadflyjl.org/ns"
     version="1.2"
     width="254mm" height="152.4mm" viewBox="0 0 254 152.4"
     stroke="none"
     fill="#000000"
     stroke-width="0.3"
     font-size="3.88"
>
<defs>
  <marker id="arrow" markerWidth="15" markerHeight="7" refX="5" refY="3.5" orient="auto" markerUnits="strokeWidth">
    <path d="M0,0 L15,3.5 L0,7 z" stroke="context-stroke" fill="context-stroke"/>
  </marker>
</defs>
<g class="plotroot xscalable yscalable" id="img-0e7bc8ae-1">
  <g font-size="3.88" font-family="'PT Sans','Helvetica Neue','Helvetica',sans-serif" fill="#564A55" stroke="#000000" stroke-opacity="0.000" id="img-0e7bc8ae-2">
    <g transform="translate(218.98,140.79)">
      <g class="primitive">
        <text text-anchor="middle" dy="0.6em">kMeas/kCalc</text>
      </g>
    </g>
  </g>
  <g class="guide xlabels" font-size="2.82" font-family="'PT Sans Caption','Helvetica Neue','Helvetica',sans-serif" fill="#6C606B" id="img-0e7bc8ae-3">
    <g transform="translate(190.96,134.11)">
      <g class="primitive">
        <text text-anchor="middle" dy="0.6em">0.0</text>
      </g>
    </g>
    <g transform="translate(204.97,134.11)">
      <g class="primitive">
        <text text-anchor="middle" dy="0.6em">0.5</text>
      </g>
    </g>
    <g transform="translate(218.98,134.11)">
      <g class="primitive">
        <text text-anchor="middle" dy="0.6em">1.0</text>
      </g>
    </g>
    <g transform="translate(232.99,134.11)">
      <g class="primitive">
        <text text-anchor="middle" dy="0.6em">1.5</text>
      </g>
    </g>
    <g transform="translate(247,134.11)">
      <g class="primitive">
        <text text-anchor="middle" dy="0.6em">2.0</text>
      </g>
    </g>
  </g>
  <g clip-path="url(#img-0e7bc8ae-4)">
    <g id="img-0e7bc8ae-5">
      <g pointer-events="visible" stroke-width="0.3" fill="#000000" fill-opacity="0.000" stroke="#000000" stroke-opacity="0.000" class="guide background" id="img-0e7bc8ae-6">
        <g transform="translate(218.98,109.96)" id="img-0e7bc8ae-7">
          <path d="M-30.02,-23.15 L 30.02 -23.15 30.02 23.15 -30.02 23.15 z" class="primitive"/>
        </g>
      </g>
      <g class="guide ygridlines xfixed" stroke-dasharray="0.5,0.5" stroke-width="0.2" stroke="#D0D0E0" id="img-0e7bc8ae-8">
        <g transform="translate(218.98,131.11)" id="img-0e7bc8ae-9">
          <path fill="none" d="M-30.02,0 L 30.02 0" class="primitive"/>
        </g>
        <g transform="translate(218.98,120.54)" id="img-0e7bc8ae-10">
          <path fill="none" d="M-30.02,0 L 30.02 0" class="primitive"/>
        </g>
        <g transform="translate(218.98,109.96)" id="img-0e7bc8ae-11">
          <path fill="none" d="M-30.02,0 L 30.02 0" class="primitive"/>
        </g>
        <g transform="translate(218.98,99.39)" id="img-0e7bc8ae-12">
          <path fill="none" d="M-30.02,0 L 30.02 0" class="primitive"/>
        </g>
        <g transform="translate(218.98,88.81)" id="img-0e7bc8ae-13">
          <path fill="none" d="M-30.02,0 L 30.02 0" class="primitive"/>
        </g>
      </g>
      <g class="guide xgridlines yfixed" stroke-dasharray="0.5,0.5" stroke-width="0.2" stroke="#D0D0E0" id="img-0e7bc8ae-14">
        <g transform="translate(190.96,109.96)" id="img-0e7bc8ae-15">
          <path fill="none" d="M0,-23.15 L 0 23.15" class="primitive"/>
        </g>
        <g transform="translate(204.97,109.96)" id="img-0e7bc8ae-16">
          <path fill="none" d="M0,-23.15 L 0 23.15" class="primitive"/>
        </g>
        <g transform="translate(218.98,109.96)" id="img-0e7bc8ae-17">
          <path fill="none" d="M0,-23.15 L 0 23.15" class="primitive"/>
        </g>
        <g transform="translate(232.99,109.96)" id="img-0e7bc8ae-18">
          <path fill="none" d="M0,-23.15 L 0 23.15" class="primitive"/>
        </g>
        <g transform="translate(247,109.96)" id="img-0e7bc8ae-19">
          <path fill="none" d="M0,-23.15 L 0 23.15" class="primitive"/>
        </g>
      </g>
      <g class="plotpanel" id="img-0e7bc8ae-20">
        <metadata>
          <boundingbox value="188.96499999999997mm 86.81166666666665mm 60.03499999999999mm 46.30333333333333mm"/>
          <unitbox value="-0.07138395645578657 209.4555196596013 2.142767912911573 -218.9110393192026"/>
        </metadata>
        <g shape-rendering="crispEdges" stroke-width="0.3" id="img-0e7bc8ae-21">
          <g class="geometry" fill-opacity="1" stroke="#000000" stroke-opacity="0.000" fill="#00BFFF" id="img-0e7bc8ae-22">
            <g transform="translate(191.72,130.9)" id="img-0e7bc8ae-23">
              <path d="M-0.78,-0.21 L 0.78 -0.21 0.78 0.21 -0.78 0.21 z" class="primitive"/>
            </g>
            <g transform="translate(193.24,131.12)" id="img-0e7bc8ae-24">
              <path d="M-0.78,-0 L 0.78 -0 0.78 0 -0.78 0 z" class="primitive"/>
            </g>
            <g transform="translate(194.76,131.12)" id="img-0e7bc8ae-25">
              <path d="M-0.78,-0 L 0.78 -0 0.78 0 -0.78 0 z" class="primitive"/>
            </g>
            <g transform="translate(196.28,131.12)" id="img-0e7bc8ae-26">
              <path d="M-0.78,-0 L 0.78 -0 0.78 0 -0.78 0 z" class="primitive"/>
            </g>
            <g transform="translate(197.8,131.12)" id="img-0e7bc8ae-27">
              <path d="M-0.78,-0 L 0.78 -0 0.78 0 -0.78 0 z" class="primitive"/>
            </g>
            <g transform="translate(199.32,131.12)" id="img-0e7bc8ae-28">
              <path d="M-0.78,-0 L 0.78 -0 0.78 0 -0.78 0 z" class="primitive"/>
            </g>
            <g transform="translate(200.84,131.12)" id="img-0e7bc8ae-29">
              <path d="M-0.78,-0 L 0.78 -0 0.78 0 -0.78 0 z" class="primitive"/>
            </g>
            <g transform="translate(202.36,131.12)" id="img-0e7bc8ae-30">
              <path d="M-0.78,-0 L 0.78 -0 0.78 0 -0.78 0 z" class="primitive"/>
            </g>
            <g transform="translate(203.88,131.12)" id="img-0e7bc8ae-31">
              <path d="M-0.78,-0 L 0.78 -0 0.78 0 -0.78 0 z" class="primitive"/>
            </g>
            <g transform="translate(205.4,131.12)" id="img-0e7bc8ae-32">
              <path d="M-0.78,-0 L 0.78 -0 0.78 0 -0.78 0 z" class="primitive"/>
            </g>
            <g transform="translate(206.92,131.12)" id="img-0e7bc8ae-33">
              <path d="M-0.78,-0 L 0.78 -0 0.78 0 -0.78 0 z" class="primitive"/>
            </g>
            <g transform="translate(208.43,131.12)" id="img-0e7bc8ae-34">
              <path d="M-0.78,-0 L 0.78 -0 0.78 0 -0.78 0 z" class="primitive"/>
            </g>
            <g transform="translate(209.95,131.12)" id="img-0e7bc8ae-35">
              <path d="M-0.78,-0 L 0.78 -0 0.78 0 -0.78 0 z" class="primitive"/>
            </g>
            <g transform="translate(211.47,131.12)" id="img-0e7bc8ae-36">
              <path d="M-0.78,-0 L 0.78 -0 0.78 0 -0.78 0 z" class="primitive"/>
            </g>
            <g transform="translate(212.99,131.12)" id="img-0e7bc8ae-37">
              <path d="M-0.78,-0 L 0.78 -0 0.78 0 -0.78 0 z" class="primitive"/>
            </g>
            <g transform="translate(214.51,131.01)" id="img-0e7bc8ae-38">
              <path d="M-0.78,-0.11 L 0.78 -0.11 0.78 0.11 -0.78 0.11 z" class="primitive"/>
            </g>
            <g transform="translate(216.03,130.59)" id="img-0e7bc8ae-39">
              <path d="M-0.78,-0.53 L 0.78 -0.53 0.78 0.53 -0.78 0.53 z" class="primitive"/>
            </g>
            <g transform="translate(217.55,127.52)" id="img-0e7bc8ae-40">
              <path d="M-0.78,-3.6 L 0.78 -3.6 0.78 3.6 -0.78 3.6 z" class="primitive"/>
            </g>
            <g transform="translate(219.07,112.92)" id="img-0e7bc8ae-41">
              <path d="M-0.78,-18.19 L 0.78 -18.19 0.78 18.19 -0.78 18.19 z" class="primitive"/>
            </g>
            <g transform="translate(220.59,119.69)" id="img-0e7bc8ae-42">
              <path d="M-0.78,-11.42 L 0.78 -11.42 0.78 11.42 -0.78 11.42 z" class="primitive"/>
            </g>
            <g transform="translate(222.11,127.52)" id="img-0e7bc8ae-43">
              <path d="M-0.78,-3.6 L 0.78 -3.6 0.78 3.6 -0.78 3.6 z" class="primitive"/>
            </g>
            <g transform="translate(223.63,130.8)" id="img-0e7bc8ae-44">
              <path d="M-0.78,-0.32 L 0.78 -0.32 0.78 0.32 -0.78 0.32 z" class="primitive"/>
            </g>
            <g transform="translate(225.15,130.37)" id="img-0e7bc8ae-45">
              <path d="M-0.78,-0.74 L 0.78 -0.74 0.78 0.74 -0.78 0.74 z" class="primitive"/>
            </g>
            <g transform="translate(226.66,130.9)" id="img-0e7bc8ae-46">
              <path d="M-0.78,-0.21 L 0.78 -0.21 0.78 0.21 -0.78 0.21 z" class="primitive"/>
            </g>
            <g transform="translate(228.18,130.9)" id="img-0e7bc8ae-47">
              <path d="M-0.78,-0.21 L 0.78 -0.21 0.78 0.21 -0.78 0.21 z" class="primitive"/>
            </g>
            <g transform="translate(229.7,130.69)" id="img-0e7bc8ae-48">
              <path d="M-0.78,-0.42 L 0.78 -0.42 0.78 0.42 -0.78 0.42 z" class="primitive"/>
            </g>
            <g transform="translate(231.22,131.01)" id="img-0e7bc8ae-49">
              <path d="M-0.78,-0.11 L 0.78 -0.11 0.78 0.11 -0.78 0.11 z" class="primitive"/>
            </g>
            <g transform="translate(232.74,131.01)" id="img-0e7bc8ae-50">
              <path d="M-0.78,-0.11 L 0.78 -0.11 0.78 0.11 -0.78 0.11 z" class="primitive"/>
            </g>
            <g transform="translate(234.26,130.8)" id="img-0e7bc8ae-51">
              <path d="M-0.78,-0.32 L 0.78 -0.32 0.78 0.32 -0.78 0.32 z" class="primitive"/>
            </g>
            <g transform="translate(235.78,130.37)" id="img-0e7bc8ae-52">
              <path d="M-0.78,-0.74 L 0.78 -0.74 0.78 0.74 -0.78 0.74 z" class="primitive"/>
            </g>
            <g transform="translate(237.3,130.9)" id="img-0e7bc8ae-53">
              <path d="M-0.78,-0.21 L 0.78 -0.21 0.78 0.21 -0.78 0.21 z" class="primitive"/>
            </g>
            <g transform="translate(238.82,130.9)" id="img-0e7bc8ae-54">
              <path d="M-0.78,-0.21 L 0.78 -0.21 0.78 0.21 -0.78 0.21 z" class="primitive"/>
            </g>
            <g transform="translate(240.34,130.9)" id="img-0e7bc8ae-55">
              <path d="M-0.78,-0.21 L 0.78 -0.21 0.78 0.21 -0.78 0.21 z" class="primitive"/>
            </g>
            <g transform="translate(241.86,131.01)" id="img-0e7bc8ae-56">
              <path d="M-0.78,-0.11 L 0.78 -0.11 0.78 0.11 -0.78 0.11 z" class="primitive"/>
            </g>
            <g transform="translate(243.37,131.12)" id="img-0e7bc8ae-57">
              <path d="M-0.78,-0 L 0.78 -0 0.78 0 -0.78 0 z" class="primitive"/>
            </g>
            <g transform="translate(244.89,131.01)" id="img-0e7bc8ae-58">
              <path d="M-0.78,-0.11 L 0.78 -0.11 0.78 0.11 -0.78 0.11 z" class="primitive"/>
            </g>
            <g transform="translate(246.41,131.12)" id="img-0e7bc8ae-59">
              <path d="M-0.78,-0 L 0.78 -0 0.78 0 -0.78 0 z" class="primitive"/>
            </g>
            <g transform="translate(247.93,131.12)" id="img-0e7bc8ae-60">
              <path d="M-0.78,-0 L 0.78 -0 0.78 0 -0.78 0 z" class="primitive"/>
            </g>
            <g transform="translate(249.45,131.12)" id="img-0e7bc8ae-61">
              <path d="M-0.78,-0 L 0.78 -0 0.78 0 -0.78 0 z" class="primitive"/>
            </g>
            <g transform="translate(250.97,131.12)" id="img-0e7bc8ae-62">
              <path d="M-0.78,-0 L 0.78 -0 0.78 0 -0.78 0 z" class="primitive"/>
            </g>
            <g transform="translate(252.49,131.12)" id="img-0e7bc8ae-63">
              <path d="M-0.78,-0 L 0.78 -0 0.78 0 -0.78 0 z" class="primitive"/>
            </g>
            <g transform="translate(254.01,131.12)" id="img-0e7bc8ae-64">
              <path d="M-0.78,-0 L 0.78 -0 0.78 0 -0.78 0 z" class="primitive"/>
            </g>
            <g transform="translate(255.53,131.12)" id="img-0e7bc8ae-65">
              <path d="M-0.78,-0 L 0.78 -0 0.78 0 -0.78 0 z" class="primitive"/>
            </g>
            <g transform="translate(257.05,131.12)" id="img-0e7bc8ae-66">
              <path d="M-0.78,-0 L 0.78 -0 0.78 0 -0.78 0 z" class="primitive"/>
            </g>
            <g transform="translate(258.57,131.12)" id="img-0e7bc8ae-67">
              <path d="M-0.78,-0 L 0.78 -0 0.78 0 -0.78 0 z" class="primitive"/>
            </g>
            <g transform="translate(260.08,131.12)" id="img-0e7bc8ae-68">
              <path d="M-0.78,-0 L 0.78 -0 0.78 0 -0.78 0 z" class="primitive"/>
            </g>
            <g transform="translate(261.6,131.12)" id="img-0e7bc8ae-69">
              <path d="M-0.78,-0 L 0.78 -0 0.78 0 -0.78 0 z" class="primitive"/>
            </g>
            <g transform="translate(263.12,131.12)" id="img-0e7bc8ae-70">
              <path d="M-0.78,-0 L 0.78 -0 0.78 0 -0.78 0 z" class="primitive"/>
            </g>
            <g transform="translate(264.64,131.12)" id="img-0e7bc8ae-71">
              <path d="M-0.78,-0 L 0.78 -0 0.78 0 -0.78 0 z" class="primitive"/>
            </g>
            <g transform="translate(266.16,131.01)" id="img-0e7bc8ae-72">
              <path d="M-0.78,-0.11 L 0.78 -0.11 0.78 0.11 -0.78 0.11 z" class="primitive"/>
            </g>
          </g>
        </g>
      </g>
    </g>
  </g>
  <g class="guide ylabels" font-size="2.82" font-family="'PT Sans Caption','Helvetica Neue','Helvetica',sans-serif" fill="#6C606B" id="img-0e7bc8ae-73">
    <g transform="translate(187.96,131.11)" id="img-0e7bc8ae-74">
      <g class="primitive">
        <text text-anchor="end" dy="0.35em">0</text>
      </g>
    </g>
    <g transform="translate(187.96,120.54)" id="img-0e7bc8ae-75">
      <g class="primitive">
        <text text-anchor="end" dy="0.35em">50</text>
      </g>
    </g>
    <g transform="translate(187.96,109.96)" id="img-0e7bc8ae-76">
      <g class="primitive">
        <text text-anchor="end" dy="0.35em">100</text>
      </g>
    </g>
    <g transform="translate(187.96,99.39)" id="img-0e7bc8ae-77">
      <g class="primitive">
        <text text-anchor="end" dy="0.35em">150</text>
      </g>
    </g>
    <g transform="translate(187.96,88.81)" id="img-0e7bc8ae-78">
      <g class="primitive">
        <text text-anchor="end" dy="0.35em">200</text>
      </g>
    </g>
  </g>
  <g font-size="3.88" font-family="'PT Sans','Helvetica Neue','Helvetica',sans-serif" fill="#564A55" stroke="#000000" stroke-opacity="0.000" id="img-0e7bc8ae-79">
    <g transform="translate(178.14,107.96)" id="img-0e7bc8ae-80">
      <g class="primitive">
        <text text-anchor="middle" dy="0.35em" transform="rotate(-90,0, 2)">Count</text>
      </g>
    </g>
  </g>
  <g font-size="3.88" font-family="'PT Sans','Helvetica Neue','Helvetica',sans-serif" fill="#564A55" stroke="#000000" stroke-opacity="0.000" id="img-0e7bc8ae-81">
    <g transform="translate(218.98,81.2)" id="img-0e7bc8ae-82">
      <g class="primitive">
        <text text-anchor="middle" dy="0.6em">Riveros</text>
      </g>
    </g>
  </g>
</g>
<g class="plotroot xscalable yscalable" id="img-0e7bc8ae-83">
  <g font-size="3.88" font-family="'PT Sans','Helvetica Neue','Helvetica',sans-serif" fill="#564A55" stroke="#000000" stroke-opacity="0.000" id="img-0e7bc8ae-84">
    <g transform="translate(133.48,140.79)" id="img-0e7bc8ae-85">
      <g class="primitive">
        <text text-anchor="middle" dy="0.6em">kMeas/kCalc</text>
      </g>
    </g>
  </g>
  <g class="guide xlabels" font-size="2.82" font-family="'PT Sans Caption','Helvetica Neue','Helvetica',sans-serif" fill="#6C606B" id="img-0e7bc8ae-86">
    <g transform="translate(104.62,134.11)" id="img-0e7bc8ae-87">
      <g class="primitive">
        <text text-anchor="middle" dy="0.6em">0.0</text>
      </g>
    </g>
    <g transform="translate(119.05,134.11)" id="img-0e7bc8ae-88">
      <g class="primitive">
        <text text-anchor="middle" dy="0.6em">0.5</text>
      </g>
    </g>
    <g transform="translate(133.48,134.11)" id="img-0e7bc8ae-89">
      <g class="primitive">
        <text text-anchor="middle" dy="0.6em">1.0</text>
      </g>
    </g>
    <g transform="translate(147.91,134.11)" id="img-0e7bc8ae-90">
      <g class="primitive">
        <text text-anchor="middle" dy="0.6em">1.5</text>
      </g>
    </g>
    <g transform="translate(162.33,134.11)" id="img-0e7bc8ae-91">
      <g class="primitive">
        <text text-anchor="middle" dy="0.6em">2.0</text>
      </g>
    </g>
  </g>
  <g clip-path="url(#img-0e7bc8ae-92)">
    <g id="img-0e7bc8ae-93">
      <g pointer-events="visible" stroke-width="0.3" fill="#000000" fill-opacity="0.000" stroke="#000000" stroke-opacity="0.000" class="guide background" id="img-0e7bc8ae-94">
        <g transform="translate(133.48,109.96)" id="img-0e7bc8ae-95">
          <path d="M-30.85,-23.15 L 30.85 -23.15 30.85 23.15 -30.85 23.15 z" class="primitive"/>
        </g>
      </g>
      <g class="guide ygridlines xfixed" stroke-dasharray="0.5,0.5" stroke-width="0.2" stroke="#D0D0E0" id="img-0e7bc8ae-96">
        <g transform="translate(133.48,131.11)" id="img-0e7bc8ae-97">
          <path fill="none" d="M-30.85,0 L 30.85 0" class="primitive"/>
        </g>
        <g transform="translate(133.48,122.65)" id="img-0e7bc8ae-98">
          <path fill="none" d="M-30.85,0 L 30.85 0" class="primitive"/>
        </g>
        <g transform="translate(133.48,114.19)" id="img-0e7bc8ae-99">
          <path fill="none" d="M-30.85,0 L 30.85 0" class="primitive"/>
        </g>
        <g transform="translate(133.48,105.73)" id="img-0e7bc8ae-100">
          <path fill="none" d="M-30.85,0 L 30.85 0" class="primitive"/>
        </g>
        <g transform="translate(133.48,97.27)" id="img-0e7bc8ae-101">
          <path fill="none" d="M-30.85,0 L 30.85 0" class="primitive"/>
        </g>
        <g transform="translate(133.48,88.81)" id="img-0e7bc8ae-102">
          <path fill="none" d="M-30.85,0 L 30.85 0" class="primitive"/>
        </g>
      </g>
      <g class="guide xgridlines yfixed" stroke-dasharray="0.5,0.5" stroke-width="0.2" stroke="#D0D0E0" id="img-0e7bc8ae-103">
        <g transform="translate(104.62,109.96)" id="img-0e7bc8ae-104">
          <path fill="none" d="M0,-23.15 L 0 23.15" class="primitive"/>
        </g>
        <g transform="translate(119.05,109.96)" id="img-0e7bc8ae-105">
          <path fill="none" d="M0,-23.15 L 0 23.15" class="primitive"/>
        </g>
        <g transform="translate(133.48,109.96)" id="img-0e7bc8ae-106">
          <path fill="none" d="M0,-23.15 L 0 23.15" class="primitive"/>
        </g>
        <g transform="translate(147.91,109.96)" id="img-0e7bc8ae-107">
          <path fill="none" d="M0,-23.15 L 0 23.15" class="primitive"/>
        </g>
        <g transform="translate(162.33,109.96)" id="img-0e7bc8ae-108">
          <path fill="none" d="M0,-23.15 L 0 23.15" class="primitive"/>
        </g>
      </g>
      <g class="plotpanel" id="img-0e7bc8ae-109">
        <metadata>
          <boundingbox value="102.625mm 86.81166666666665mm 61.70833333333332mm 46.30333333333333mm"/>
          <unitbox value="-0.0693140794223827 52.36387991490032 2.1386281588447655 -54.72775982980065"/>
        </metadata>
        <g shape-rendering="crispEdges" stroke-width="0.3" id="img-0e7bc8ae-110">
          <g class="geometry" fill-opacity="1" stroke="#000000" stroke-opacity="0.000" fill="#00BFFF" id="img-0e7bc8ae-111">
            <g transform="translate(125.4,130.69)" id="img-0e7bc8ae-112">
              <path d="M-0.22,-0.42 L 0.22 -0.42 0.22 0.42 -0.22 0.42 z" class="primitive"/>
            </g>
            <g transform="translate(125.79,130.69)" id="img-0e7bc8ae-113">
              <path d="M-0.22,-0.42 L 0.22 -0.42 0.22 0.42 -0.22 0.42 z" class="primitive"/>
            </g>
            <g transform="translate(126.17,130.69)" id="img-0e7bc8ae-114">
              <path d="M-0.22,-0.42 L 0.22 -0.42 0.22 0.42 -0.22 0.42 z" class="primitive"/>
            </g>
            <g transform="translate(126.56,131.12)" id="img-0e7bc8ae-115">
              <path d="M-0.22,-0 L 0.22 -0 0.22 0 -0.22 0 z" class="primitive"/>
            </g>
            <g transform="translate(126.94,130.69)" id="img-0e7bc8ae-116">
              <path d="M-0.22,-0.42 L 0.22 -0.42 0.22 0.42 -0.22 0.42 z" class="primitive"/>
            </g>
            <g transform="translate(127.32,131.12)" id="img-0e7bc8ae-117">
              <path d="M-0.22,-0 L 0.22 -0 0.22 0 -0.22 0 z" class="primitive"/>
            </g>
            <g transform="translate(127.71,131.12)" id="img-0e7bc8ae-118">
              <path d="M-0.22,-0 L 0.22 -0 0.22 0 -0.22 0 z" class="primitive"/>
            </g>
            <g transform="translate(128.09,129)" id="img-0e7bc8ae-119">
              <path d="M-0.22,-2.12 L 0.22 -2.12 0.22 2.12 -0.22 2.12 z" class="primitive"/>
            </g>
            <g transform="translate(128.48,129.42)" id="img-0e7bc8ae-120">
              <path d="M-0.22,-1.69 L 0.22 -1.69 0.22 1.69 -0.22 1.69 z" class="primitive"/>
            </g>
            <g transform="translate(128.86,129.42)" id="img-0e7bc8ae-121">
              <path d="M-0.22,-1.69 L 0.22 -1.69 0.22 1.69 -0.22 1.69 z" class="primitive"/>
            </g>
            <g transform="translate(129.25,129.42)" id="img-0e7bc8ae-122">
              <path d="M-0.22,-1.69 L 0.22 -1.69 0.22 1.69 -0.22 1.69 z" class="primitive"/>
            </g>
            <g transform="translate(129.63,127.31)" id="img-0e7bc8ae-123">
              <path d="M-0.22,-3.81 L 0.22 -3.81 0.22 3.81 -0.22 3.81 z" class="primitive"/>
            </g>
            <g transform="translate(130.02,127.73)" id="img-0e7bc8ae-124">
              <path d="M-0.22,-3.38 L 0.22 -3.38 0.22 3.38 -0.22 3.38 z" class="primitive"/>
            </g>
            <g transform="translate(130.4,128.58)" id="img-0e7bc8ae-125">
              <path d="M-0.22,-2.54 L 0.22 -2.54 0.22 2.54 -0.22 2.54 z" class="primitive"/>
            </g>
            <g transform="translate(130.78,127.31)" id="img-0e7bc8ae-126">
              <path d="M-0.22,-3.81 L 0.22 -3.81 0.22 3.81 -0.22 3.81 z" class="primitive"/>
            </g>
            <g transform="translate(131.17,126.46)" id="img-0e7bc8ae-127">
              <path d="M-0.22,-4.65 L 0.22 -4.65 0.22 4.65 -0.22 4.65 z" class="primitive"/>
            </g>
            <g transform="translate(131.55,125.62)" id="img-0e7bc8ae-128">
              <path d="M-0.22,-5.5 L 0.22 -5.5 0.22 5.5 -0.22 5.5 z" class="primitive"/>
            </g>
            <g transform="translate(131.94,122.65)" id="img-0e7bc8ae-129">
              <path d="M-0.22,-8.46 L 0.22 -8.46 0.22 8.46 -0.22 8.46 z" class="primitive"/>
            </g>
            <g transform="translate(132.32,116.31)" id="img-0e7bc8ae-130">
              <path d="M-0.22,-14.81 L 0.22 -14.81 0.22 14.81 -0.22 14.81 z" class="primitive"/>
            </g>
            <g transform="translate(132.71,116.31)" id="img-0e7bc8ae-131">
              <path d="M-0.22,-14.81 L 0.22 -14.81 0.22 14.81 -0.22 14.81 z" class="primitive"/>
            </g>
            <g transform="translate(133.09,114.62)" id="img-0e7bc8ae-132">
              <path d="M-0.22,-16.5 L 0.22 -16.5 0.22 16.5 -0.22 16.5 z" class="primitive"/>
            </g>
            <g transform="translate(133.47,112.08)" id="img-0e7bc8ae-133">
              <path d="M-0.22,-19.04 L 0.22 -19.04 0.22 19.04 -0.22 19.04 z" class="primitive"/>
            </g>
            <g transform="translate(133.86,118)" id="img-0e7bc8ae-134">
              <path d="M-0.22,-13.11 L 0.22 -13.11 0.22 13.11 -0.22 13.11 z" class="primitive"/>
            </g>
            <g transform="translate(134.24,118)" id="img-0e7bc8ae-135">
              <path d="M-0.22,-13.11 L 0.22 -13.11 0.22 13.11 -0.22 13.11 z" class="primitive"/>
            </g>
            <g transform="translate(134.63,120.54)" id="img-0e7bc8ae-136">
              <path d="M-0.22,-10.58 L 0.22 -10.58 0.22 10.58 -0.22 10.58 z" class="primitive"/>
            </g>
            <g transform="translate(135.01,124.35)" id="img-0e7bc8ae-137">
              <path d="M-0.22,-6.77 L 0.22 -6.77 0.22 6.77 -0.22 6.77 z" class="primitive"/>
            </g>
            <g transform="translate(135.4,126.04)" id="img-0e7bc8ae-138">
              <path d="M-0.22,-5.08 L 0.22 -5.08 0.22 5.08 -0.22 5.08 z" class="primitive"/>
            </g>
            <g transform="translate(135.78,128.58)" id="img-0e7bc8ae-139">
              <path d="M-0.22,-2.54 L 0.22 -2.54 0.22 2.54 -0.22 2.54 z" class="primitive"/>
            </g>
            <g transform="translate(136.16,128.58)" id="img-0e7bc8ae-140">
              <path d="M-0.22,-2.54 L 0.22 -2.54 0.22 2.54 -0.22 2.54 z" class="primitive"/>
            </g>
            <g transform="translate(136.55,129.85)" id="img-0e7bc8ae-141">
              <path d="M-0.22,-1.27 L 0.22 -1.27 0.22 1.27 -0.22 1.27 z" class="primitive"/>
            </g>
            <g transform="translate(136.93,130.27)" id="img-0e7bc8ae-142">
              <path d="M-0.22,-0.85 L 0.22 -0.85 0.22 0.85 -0.22 0.85 z" class="primitive"/>
            </g>
            <g transform="translate(137.32,130.69)" id="img-0e7bc8ae-143">
              <path d="M-0.22,-0.42 L 0.22 -0.42 0.22 0.42 -0.22 0.42 z" class="primitive"/>
            </g>
            <g transform="translate(137.7,131.12)" id="img-0e7bc8ae-144">
              <path d="M-0.22,-0 L 0.22 -0 0.22 0 -0.22 0 z" class="primitive"/>
            </g>
            <g transform="translate(138.09,131.12)" id="img-0e7bc8ae-145">
              <path d="M-0.22,-0 L 0.22 -0 0.22 0 -0.22 0 z" class="primitive"/>
            </g>
            <g transform="translate(138.47,130.69)" id="img-0e7bc8ae-146">
              <path d="M-0.22,-0.42 L 0.22 -0.42 0.22 0.42 -0.22 0.42 z" class="primitive"/>
            </g>
            <g transform="translate(138.86,130.69)" id="img-0e7bc8ae-147">
              <path d="M-0.22,-0.42 L 0.22 -0.42 0.22 0.42 -0.22 0.42 z" class="primitive"/>
            </g>
            <g transform="translate(139.24,131.12)" id="img-0e7bc8ae-148">
              <path d="M-0.22,-0 L 0.22 -0 0.22 0 -0.22 0 z" class="primitive"/>
            </g>
            <g transform="translate(139.62,129.85)" id="img-0e7bc8ae-149">
              <path d="M-0.22,-1.27 L 0.22 -1.27 0.22 1.27 -0.22 1.27 z" class="primitive"/>
            </g>
            <g transform="translate(140.01,131.12)" id="img-0e7bc8ae-150">
              <path d="M-0.22,-0 L 0.22 -0 0.22 0 -0.22 0 z" class="primitive"/>
            </g>
            <g transform="translate(140.39,130.69)" id="img-0e7bc8ae-151">
              <path d="M-0.22,-0.42 L 0.22 -0.42 0.22 0.42 -0.22 0.42 z" class="primitive"/>
            </g>
            <g transform="translate(140.78,131.12)" id="img-0e7bc8ae-152">
              <path d="M-0.22,-0 L 0.22 -0 0.22 0 -0.22 0 z" class="primitive"/>
            </g>
            <g transform="translate(141.16,131.12)" id="img-0e7bc8ae-153">
              <path d="M-0.22,-0 L 0.22 -0 0.22 0 -0.22 0 z" class="primitive"/>
            </g>
            <g transform="translate(141.55,129.85)" id="img-0e7bc8ae-154">
              <path d="M-0.22,-1.27 L 0.22 -1.27 0.22 1.27 -0.22 1.27 z" class="primitive"/>
            </g>
            <g transform="translate(141.93,131.12)" id="img-0e7bc8ae-155">
              <path d="M-0.22,-0 L 0.22 -0 0.22 0 -0.22 0 z" class="primitive"/>
            </g>
            <g transform="translate(142.31,131.12)" id="img-0e7bc8ae-156">
              <path d="M-0.22,-0 L 0.22 -0 0.22 0 -0.22 0 z" class="primitive"/>
            </g>
            <g transform="translate(142.7,130.69)" id="img-0e7bc8ae-157">
              <path d="M-0.22,-0.42 L 0.22 -0.42 0.22 0.42 -0.22 0.42 z" class="primitive"/>
            </g>
            <g transform="translate(143.08,131.12)" id="img-0e7bc8ae-158">
              <path d="M-0.22,-0 L 0.22 -0 0.22 0 -0.22 0 z" class="primitive"/>
            </g>
            <g transform="translate(143.47,131.12)" id="img-0e7bc8ae-159">
              <path d="M-0.22,-0 L 0.22 -0 0.22 0 -0.22 0 z" class="primitive"/>
            </g>
            <g transform="translate(143.85,131.12)" id="img-0e7bc8ae-160">
              <path d="M-0.22,-0 L 0.22 -0 0.22 0 -0.22 0 z" class="primitive"/>
            </g>
            <g transform="translate(144.24,130.69)" id="img-0e7bc8ae-161">
              <path d="M-0.22,-0.42 L 0.22 -0.42 0.22 0.42 -0.22 0.42 z" class="primitive"/>
            </g>
          </g>
        </g>
      </g>
    </g>
  </g>
  <g class="guide ylabels" font-size="2.82" font-family="'PT Sans Caption','Helvetica Neue','Helvetica',sans-serif" fill="#6C606B" id="img-0e7bc8ae-162">
    <g transform="translate(101.62,131.11)" id="img-0e7bc8ae-163">
      <g class="primitive">
        <text text-anchor="end" dy="0.35em">0</text>
      </g>
    </g>
    <g transform="translate(101.62,122.65)" id="img-0e7bc8ae-164">
      <g class="primitive">
        <text text-anchor="end" dy="0.35em">10</text>
      </g>
    </g>
    <g transform="translate(101.62,114.19)" id="img-0e7bc8ae-165">
      <g class="primitive">
        <text text-anchor="end" dy="0.35em">20</text>
      </g>
    </g>
    <g transform="translate(101.62,105.73)" id="img-0e7bc8ae-166">
      <g class="primitive">
        <text text-anchor="end" dy="0.35em">30</text>
      </g>
    </g>
    <g transform="translate(101.62,97.27)" id="img-0e7bc8ae-167">
      <g class="primitive">
        <text text-anchor="end" dy="0.35em">40</text>
      </g>
    </g>
    <g transform="translate(101.62,88.81)" id="img-0e7bc8ae-168">
      <g class="primitive">
        <text text-anchor="end" dy="0.35em">50</text>
      </g>
    </g>
  </g>
  <g font-size="3.88" font-family="'PT Sans','Helvetica Neue','Helvetica',sans-serif" fill="#564A55" stroke="#000000" stroke-opacity="0.000" id="img-0e7bc8ae-169">
    <g transform="translate(93.47,107.96)" id="img-0e7bc8ae-170">
      <g class="primitive">
        <text text-anchor="middle" dy="0.35em" transform="rotate(-90,0, 2)">Count</text>
      </g>
    </g>
  </g>
  <g font-size="3.88" font-family="'PT Sans','Helvetica Neue','Helvetica',sans-serif" fill="#564A55" stroke="#000000" stroke-opacity="0.000" id="img-0e7bc8ae-171">
    <g transform="translate(133.48,81.2)" id="img-0e7bc8ae-172">
      <g class="primitive">
        <text text-anchor="middle" dy="0.6em">CitZAF</text>
      </g>
    </g>
  </g>
</g>
<g class="plotroot xscalable yscalable" id="img-0e7bc8ae-173">
  <g font-size="3.88" font-family="'PT Sans','Helvetica Neue','Helvetica',sans-serif" fill="#564A55" stroke="#000000" stroke-opacity="0.000" id="img-0e7bc8ae-174">
    <g transform="translate(48.81,140.79)" id="img-0e7bc8ae-175">
      <g class="primitive">
        <text text-anchor="middle" dy="0.6em">kMeas/kCalc</text>
      </g>
    </g>
  </g>
  <g class="guide xlabels" font-size="2.82" font-family="'PT Sans Caption','Helvetica Neue','Helvetica',sans-serif" fill="#6C606B" id="img-0e7bc8ae-176">
    <g transform="translate(19.96,134.11)" id="img-0e7bc8ae-177">
      <g class="primitive">
        <text text-anchor="middle" dy="0.6em">0.0</text>
      </g>
    </g>
    <g transform="translate(34.39,134.11)" id="img-0e7bc8ae-178">
      <g class="primitive">
        <text text-anchor="middle" dy="0.6em">0.5</text>
      </g>
    </g>
    <g transform="translate(48.81,134.11)" id="img-0e7bc8ae-179">
      <g class="primitive">
        <text text-anchor="middle" dy="0.6em">1.0</text>
      </g>
    </g>
    <g transform="translate(63.24,134.11)" id="img-0e7bc8ae-180">
      <g class="primitive">
        <text text-anchor="middle" dy="0.6em">1.5</text>
      </g>
    </g>
    <g transform="translate(77.67,134.11)" id="img-0e7bc8ae-181">
      <g class="primitive">
        <text text-anchor="middle" dy="0.6em">2.0</text>
      </g>
    </g>
  </g>
  <g clip-path="url(#img-0e7bc8ae-182)">
    <g id="img-0e7bc8ae-183">
      <g pointer-events="visible" stroke-width="0.3" fill="#000000" fill-opacity="0.000" stroke="#000000" stroke-opacity="0.000" class="guide background" id="img-0e7bc8ae-184">
        <g transform="translate(48.81,109.96)" id="img-0e7bc8ae-185">
          <path d="M-30.85,-23.15 L 30.85 -23.15 30.85 23.15 -30.85 23.15 z" class="primitive"/>
        </g>
      </g>
      <g class="guide ygridlines xfixed" stroke-dasharray="0.5,0.5" stroke-width="0.2" stroke="#D0D0E0" id="img-0e7bc8ae-186">
        <g transform="translate(48.81,131.11)" id="img-0e7bc8ae-187">
          <path fill="none" d="M-30.85,0 L 30.85 0" class="primitive"/>
        </g>
        <g transform="translate(48.81,120.54)" id="img-0e7bc8ae-188">
          <path fill="none" d="M-30.85,0 L 30.85 0" class="primitive"/>
        </g>
        <g transform="translate(48.81,109.96)" id="img-0e7bc8ae-189">
          <path fill="none" d="M-30.85,0 L 30.85 0" class="primitive"/>
        </g>
        <g transform="translate(48.81,99.39)" id="img-0e7bc8ae-190">
          <path fill="none" d="M-30.85,0 L 30.85 0" class="primitive"/>
        </g>
        <g transform="translate(48.81,88.81)" id="img-0e7bc8ae-191">
          <path fill="none" d="M-30.85,0 L 30.85 0" class="primitive"/>
        </g>
      </g>
      <g class="guide xgridlines yfixed" stroke-dasharray="0.5,0.5" stroke-width="0.2" stroke="#D0D0E0" id="img-0e7bc8ae-192">
        <g transform="translate(19.96,109.96)" id="img-0e7bc8ae-193">
          <path fill="none" d="M0,-23.15 L 0 23.15" class="primitive"/>
        </g>
        <g transform="translate(34.39,109.96)" id="img-0e7bc8ae-194">
          <path fill="none" d="M0,-23.15 L 0 23.15" class="primitive"/>
        </g>
        <g transform="translate(48.81,109.96)" id="img-0e7bc8ae-195">
          <path fill="none" d="M0,-23.15 L 0 23.15" class="primitive"/>
        </g>
        <g transform="translate(63.24,109.96)" id="img-0e7bc8ae-196">
          <path fill="none" d="M0,-23.15 L 0 23.15" class="primitive"/>
        </g>
        <g transform="translate(77.67,109.96)" id="img-0e7bc8ae-197">
          <path fill="none" d="M0,-23.15 L 0 23.15" class="primitive"/>
        </g>
      </g>
      <g class="plotpanel" id="img-0e7bc8ae-198">
        <metadata>
          <boundingbox value="17.958333333333336mm 86.81166666666665mm 61.70833333333332mm 46.30333333333333mm"/>
          <unitbox value="-0.0693140794223827 83.78220786384051 2.1386281588447655 -87.56441572768104"/>
        </metadata>
        <g shape-rendering="crispEdges" stroke-width="0.3" id="img-0e7bc8ae-199">
          <g class="geometry" fill-opacity="1" stroke="#000000" stroke-opacity="0.000" fill="#00BFFF" id="img-0e7bc8ae-200">
            <g transform="translate(44.4,130.59)" id="img-0e7bc8ae-201">
              <path d="M-0.17,-0.53 L 0.17 -0.53 0.17 0.53 -0.17 0.53 z" class="primitive"/>
            </g>
            <g transform="translate(44.69,131.12)" id="img-0e7bc8ae-202">
              <path d="M-0.17,-0 L 0.17 -0 0.17 0 -0.17 0 z" class="primitive"/>
            </g>
            <g transform="translate(44.98,131.12)" id="img-0e7bc8ae-203">
              <path d="M-0.17,-0 L 0.17 -0 0.17 0 -0.17 0 z" class="primitive"/>
            </g>
            <g transform="translate(45.27,130.85)" id="img-0e7bc8ae-204">
              <path d="M-0.17,-0.26 L 0.17 -0.26 0.17 0.26 -0.17 0.26 z" class="primitive"/>
            </g>
            <g transform="translate(45.56,131.12)" id="img-0e7bc8ae-205">
              <path d="M-0.17,-0 L 0.17 -0 0.17 0 -0.17 0 z" class="primitive"/>
            </g>
            <g transform="translate(45.86,130.85)" id="img-0e7bc8ae-206">
              <path d="M-0.17,-0.26 L 0.17 -0.26 0.17 0.26 -0.17 0.26 z" class="primitive"/>
            </g>
            <g transform="translate(46.15,129.53)" id="img-0e7bc8ae-207">
              <path d="M-0.17,-1.59 L 0.17 -1.59 0.17 1.59 -0.17 1.59 z" class="primitive"/>
            </g>
            <g transform="translate(46.44,130.59)" id="img-0e7bc8ae-208">
              <path d="M-0.17,-0.53 L 0.17 -0.53 0.17 0.53 -0.17 0.53 z" class="primitive"/>
            </g>
            <g transform="translate(46.73,129.53)" id="img-0e7bc8ae-209">
              <path d="M-0.17,-1.59 L 0.17 -1.59 0.17 1.59 -0.17 1.59 z" class="primitive"/>
            </g>
            <g transform="translate(47.02,129.79)" id="img-0e7bc8ae-210">
              <path d="M-0.17,-1.32 L 0.17 -1.32 0.17 1.32 -0.17 1.32 z" class="primitive"/>
            </g>
            <g transform="translate(47.31,127.68)" id="img-0e7bc8ae-211">
              <path d="M-0.17,-3.44 L 0.17 -3.44 0.17 3.44 -0.17 3.44 z" class="primitive"/>
            </g>
            <g transform="translate(47.6,127.41)" id="img-0e7bc8ae-212">
              <path d="M-0.17,-3.7 L 0.17 -3.7 0.17 3.7 -0.17 3.7 z" class="primitive"/>
            </g>
            <g transform="translate(47.9,126.62)" id="img-0e7bc8ae-213">
              <path d="M-0.17,-4.49 L 0.17 -4.49 0.17 4.49 -0.17 4.49 z" class="primitive"/>
            </g>
            <g transform="translate(48.19,126.88)" id="img-0e7bc8ae-214">
              <path d="M-0.17,-4.23 L 0.17 -4.23 0.17 4.23 -0.17 4.23 z" class="primitive"/>
            </g>
            <g transform="translate(48.48,119.75)" id="img-0e7bc8ae-215">
              <path d="M-0.17,-11.37 L 0.17 -11.37 0.17 11.37 -0.17 11.37 z" class="primitive"/>
            </g>
            <g transform="translate(48.77,112.08)" id="img-0e7bc8ae-216">
              <path d="M-0.17,-19.04 L 0.17 -19.04 0.17 19.04 -0.17 19.04 z" class="primitive"/>
            </g>
            <g transform="translate(49.06,116.84)" id="img-0e7bc8ae-217">
              <path d="M-0.17,-14.28 L 0.17 -14.28 0.17 14.28 -0.17 14.28 z" class="primitive"/>
            </g>
            <g transform="translate(49.35,120.8)" id="img-0e7bc8ae-218">
              <path d="M-0.17,-10.31 L 0.17 -10.31 0.17 10.31 -0.17 10.31 z" class="primitive"/>
            </g>
            <g transform="translate(49.65,123.98)" id="img-0e7bc8ae-219">
              <path d="M-0.17,-7.14 L 0.17 -7.14 0.17 7.14 -0.17 7.14 z" class="primitive"/>
            </g>
            <g transform="translate(49.94,126.62)" id="img-0e7bc8ae-220">
              <path d="M-0.17,-4.49 L 0.17 -4.49 0.17 4.49 -0.17 4.49 z" class="primitive"/>
            </g>
            <g transform="translate(50.23,127.94)" id="img-0e7bc8ae-221">
              <path d="M-0.17,-3.17 L 0.17 -3.17 0.17 3.17 -0.17 3.17 z" class="primitive"/>
            </g>
            <g transform="translate(50.52,128.47)" id="img-0e7bc8ae-222">
              <path d="M-0.17,-2.64 L 0.17 -2.64 0.17 2.64 -0.17 2.64 z" class="primitive"/>
            </g>
            <g transform="translate(50.81,129.53)" id="img-0e7bc8ae-223">
              <path d="M-0.17,-1.59 L 0.17 -1.59 0.17 1.59 -0.17 1.59 z" class="primitive"/>
            </g>
            <g transform="translate(51.1,130.59)" id="img-0e7bc8ae-224">
              <path d="M-0.17,-0.53 L 0.17 -0.53 0.17 0.53 -0.17 0.53 z" class="primitive"/>
            </g>
            <g transform="translate(51.39,130.32)" id="img-0e7bc8ae-225">
              <path d="M-0.17,-0.79 L 0.17 -0.79 0.17 0.79 -0.17 0.79 z" class="primitive"/>
            </g>
            <g transform="translate(51.69,130.32)" id="img-0e7bc8ae-226">
              <path d="M-0.17,-0.79 L 0.17 -0.79 0.17 0.79 -0.17 0.79 z" class="primitive"/>
            </g>
            <g transform="translate(51.98,130.59)" id="img-0e7bc8ae-227">
              <path d="M-0.17,-0.53 L 0.17 -0.53 0.17 0.53 -0.17 0.53 z" class="primitive"/>
            </g>
            <g transform="translate(52.27,130.85)" id="img-0e7bc8ae-228">
              <path d="M-0.17,-0.26 L 0.17 -0.26 0.17 0.26 -0.17 0.26 z" class="primitive"/>
            </g>
            <g transform="translate(52.56,130.32)" id="img-0e7bc8ae-229">
              <path d="M-0.17,-0.79 L 0.17 -0.79 0.17 0.79 -0.17 0.79 z" class="primitive"/>
            </g>
            <g transform="translate(52.85,130.85)" id="img-0e7bc8ae-230">
              <path d="M-0.17,-0.26 L 0.17 -0.26 0.17 0.26 -0.17 0.26 z" class="primitive"/>
            </g>
            <g transform="translate(53.14,131.12)" id="img-0e7bc8ae-231">
              <path d="M-0.17,-0 L 0.17 -0 0.17 0 -0.17 0 z" class="primitive"/>
            </g>
            <g transform="translate(53.43,130.32)" id="img-0e7bc8ae-232">
              <path d="M-0.17,-0.79 L 0.17 -0.79 0.17 0.79 -0.17 0.79 z" class="primitive"/>
            </g>
            <g transform="translate(53.73,130.85)" id="img-0e7bc8ae-233">
              <path d="M-0.17,-0.26 L 0.17 -0.26 0.17 0.26 -0.17 0.26 z" class="primitive"/>
            </g>
            <g transform="translate(54.02,131.12)" id="img-0e7bc8ae-234">
              <path d="M-0.17,-0 L 0.17 -0 0.17 0 -0.17 0 z" class="primitive"/>
            </g>
            <g transform="translate(54.31,130.32)" id="img-0e7bc8ae-235">
              <path d="M-0.17,-0.79 L 0.17 -0.79 0.17 0.79 -0.17 0.79 z" class="primitive"/>
            </g>
            <g transform="translate(54.6,130.85)" id="img-0e7bc8ae-236">
              <path d="M-0.17,-0.26 L 0.17 -0.26 0.17 0.26 -0.17 0.26 z" class="primitive"/>
            </g>
            <g transform="translate(54.89,131.12)" id="img-0e7bc8ae-237">
              <path d="M-0.17,-0 L 0.17 -0 0.17 0 -0.17 0 z" class="primitive"/>
            </g>
            <g transform="translate(55.18,130.85)" id="img-0e7bc8ae-238">
              <path d="M-0.17,-0.26 L 0.17 -0.26 0.17 0.26 -0.17 0.26 z" class="primitive"/>
            </g>
            <g transform="translate(55.47,131.12)" id="img-0e7bc8ae-239">
              <path d="M-0.17,-0 L 0.17 -0 0.17 0 -0.17 0 z" class="primitive"/>
            </g>
            <g transform="translate(55.77,131.12)" id="img-0e7bc8ae-240">
              <path d="M-0.17,-0 L 0.17 -0 0.17 0 -0.17 0 z" class="primitive"/>
            </g>
            <g transform="translate(56.06,131.12)" id="img-0e7bc8ae-241">
              <path d="M-0.17,-0 L 0.17 -0 0.17 0 -0.17 0 z" class="primitive"/>
            </g>
            <g transform="translate(56.35,131.12)" id="img-0e7bc8ae-242">
              <path d="M-0.17,-0 L 0.17 -0 0.17 0 -0.17 0 z" class="primitive"/>
            </g>
            <g transform="translate(56.64,130.85)" id="img-0e7bc8ae-243">
              <path d="M-0.17,-0.26 L 0.17 -0.26 0.17 0.26 -0.17 0.26 z" class="primitive"/>
            </g>
            <g transform="translate(56.93,130.85)" id="img-0e7bc8ae-244">
              <path d="M-0.17,-0.26 L 0.17 -0.26 0.17 0.26 -0.17 0.26 z" class="primitive"/>
            </g>
            <g transform="translate(57.22,130.85)" id="img-0e7bc8ae-245">
              <path d="M-0.17,-0.26 L 0.17 -0.26 0.17 0.26 -0.17 0.26 z" class="primitive"/>
            </g>
            <g transform="translate(57.51,131.12)" id="img-0e7bc8ae-246">
              <path d="M-0.17,-0 L 0.17 -0 0.17 0 -0.17 0 z" class="primitive"/>
            </g>
            <g transform="translate(57.81,130.59)" id="img-0e7bc8ae-247">
              <path d="M-0.17,-0.53 L 0.17 -0.53 0.17 0.53 -0.17 0.53 z" class="primitive"/>
            </g>
            <g transform="translate(58.1,130.59)" id="img-0e7bc8ae-248">
              <path d="M-0.17,-0.53 L 0.17 -0.53 0.17 0.53 -0.17 0.53 z" class="primitive"/>
            </g>
            <g transform="translate(58.39,131.12)" id="img-0e7bc8ae-249">
              <path d="M-0.17,-0 L 0.17 -0 0.17 0 -0.17 0 z" class="primitive"/>
            </g>
            <g transform="translate(58.68,130.85)" id="img-0e7bc8ae-250">
              <path d="M-0.17,-0.26 L 0.17 -0.26 0.17 0.26 -0.17 0.26 z" class="primitive"/>
            </g>
          </g>
        </g>
      </g>
    </g>
  </g>
  <g class="guide ylabels" font-size="2.82" font-family="'PT Sans Caption','Helvetica Neue','Helvetica',sans-serif" fill="#6C606B" id="img-0e7bc8ae-251">
    <g transform="translate(16.96,131.11)" id="img-0e7bc8ae-252">
      <g class="primitive">
        <text text-anchor="end" dy="0.35em">0</text>
      </g>
    </g>
    <g transform="translate(16.96,120.54)" id="img-0e7bc8ae-253">
      <g class="primitive">
        <text text-anchor="end" dy="0.35em">20</text>
      </g>
    </g>
    <g transform="translate(16.96,109.96)" id="img-0e7bc8ae-254">
      <g class="primitive">
        <text text-anchor="end" dy="0.35em">40</text>
      </g>
    </g>
    <g transform="translate(16.96,99.39)" id="img-0e7bc8ae-255">
      <g class="primitive">
        <text text-anchor="end" dy="0.35em">60</text>
      </g>
    </g>
    <g transform="translate(16.96,88.81)" id="img-0e7bc8ae-256">
      <g class="primitive">
        <text text-anchor="end" dy="0.35em">80</text>
      </g>
    </g>
  </g>
  <g font-size="3.88" font-family="'PT Sans','Helvetica Neue','Helvetica',sans-serif" fill="#564A55" stroke="#000000" stroke-opacity="0.000" id="img-0e7bc8ae-257">
    <g transform="translate(8.81,107.96)" id="img-0e7bc8ae-258">
      <g class="primitive">
        <text text-anchor="middle" dy="0.35em" transform="rotate(-90,0, 2)">Count</text>
      </g>
    </g>
  </g>
  <g font-size="3.88" font-family="'PT Sans','Helvetica Neue','Helvetica',sans-serif" fill="#564A55" stroke="#000000" stroke-opacity="0.000" id="img-0e7bc8ae-259">
    <g transform="translate(48.81,81.2)" id="img-0e7bc8ae-260">
      <g class="primitive">
        <text text-anchor="middle" dy="0.6em">XPP</text>
      </g>
    </g>
  </g>
</g>
<g font-size="7.06" font-family="Arial" id="img-0e7bc8ae-261">
  <g transform="translate(127,38.1)" id="img-0e7bc8ae-262">
    <g class="primitive">
      <text text-anchor="middle" dy="0.35em">Bastin Data Basis</text>
    </g>
  </g>
</g>
<defs>
  <clipPath id="img-0e7bc8ae-4">
    <path d="M188.96,86.81 L 249 86.81 249 133.11 188.96 133.11" />
  </clipPath>
  <clipPath id="img-0e7bc8ae-92">
    <path d="M102.62,86.81 L 164.33 86.81 164.33 133.11 102.62 133.11" />
  </clipPath>
  <clipPath id="img-0e7bc8ae-182">
    <path d="M17.96,86.81 L 79.67 86.81 79.67 133.11 17.96 133.11" />
  </clipPath>
</defs>
</svg>
